%TF.GenerationSoftware,KiCad,Pcbnew,5.1.10*%
%TF.CreationDate,2021-12-13T09:13:28+01:00*%
%TF.ProjectId,power_board,706f7765-725f-4626-9f61-72642e6b6963,rev?*%
%TF.SameCoordinates,Original*%
%TF.FileFunction,Legend,Top*%
%TF.FilePolarity,Positive*%
%FSLAX46Y46*%
G04 Gerber Fmt 4.6, Leading zero omitted, Abs format (unit mm)*
G04 Created by KiCad (PCBNEW 5.1.10) date 2021-12-13 09:13:28*
%MOMM*%
%LPD*%
G01*
G04 APERTURE LIST*
%ADD10C,0.150000*%
%ADD11C,0.153000*%
%ADD12C,0.120000*%
%ADD13C,1.397000*%
%ADD14R,3.500000X3.500000*%
G04 APERTURE END LIST*
D10*
X103592380Y-35607047D02*
X104306666Y-35607047D01*
X104449523Y-35654666D01*
X104544761Y-35749904D01*
X104592380Y-35892761D01*
X104592380Y-35988000D01*
X104592380Y-34654666D02*
X104592380Y-35130857D01*
X103592380Y-35130857D01*
X104497142Y-33749904D02*
X104544761Y-33797523D01*
X104592380Y-33940380D01*
X104592380Y-34035619D01*
X104544761Y-34178476D01*
X104449523Y-34273714D01*
X104354285Y-34321333D01*
X104163809Y-34368952D01*
X104020952Y-34368952D01*
X103830476Y-34321333D01*
X103735238Y-34273714D01*
X103640000Y-34178476D01*
X103592380Y-34035619D01*
X103592380Y-33940380D01*
X103640000Y-33797523D01*
X103687619Y-33749904D01*
X103592380Y-33035619D02*
X104306666Y-33035619D01*
X104449523Y-33083238D01*
X104544761Y-33178476D01*
X104592380Y-33321333D01*
X104592380Y-33416571D01*
X104592380Y-32083238D02*
X104592380Y-32559428D01*
X103592380Y-32559428D01*
X104497142Y-31178476D02*
X104544761Y-31226095D01*
X104592380Y-31368952D01*
X104592380Y-31464190D01*
X104544761Y-31607047D01*
X104449523Y-31702285D01*
X104354285Y-31749904D01*
X104163809Y-31797523D01*
X104020952Y-31797523D01*
X103830476Y-31749904D01*
X103735238Y-31702285D01*
X103640000Y-31607047D01*
X103592380Y-31464190D01*
X103592380Y-31368952D01*
X103640000Y-31226095D01*
X103687619Y-31178476D01*
X103592380Y-30464190D02*
X104306666Y-30464190D01*
X104449523Y-30511809D01*
X104544761Y-30607047D01*
X104592380Y-30749904D01*
X104592380Y-30845142D01*
X104592380Y-29511809D02*
X104592380Y-29988000D01*
X103592380Y-29988000D01*
X104497142Y-28607047D02*
X104544761Y-28654666D01*
X104592380Y-28797523D01*
X104592380Y-28892761D01*
X104544761Y-29035619D01*
X104449523Y-29130857D01*
X104354285Y-29178476D01*
X104163809Y-29226095D01*
X104020952Y-29226095D01*
X103830476Y-29178476D01*
X103735238Y-29130857D01*
X103640000Y-29035619D01*
X103592380Y-28892761D01*
X103592380Y-28797523D01*
X103640000Y-28654666D01*
X103687619Y-28607047D01*
X103592380Y-27892761D02*
X104306666Y-27892761D01*
X104449523Y-27940380D01*
X104544761Y-28035619D01*
X104592380Y-28178476D01*
X104592380Y-28273714D01*
X104592380Y-26940380D02*
X104592380Y-27416571D01*
X103592380Y-27416571D01*
X104497142Y-26035619D02*
X104544761Y-26083238D01*
X104592380Y-26226095D01*
X104592380Y-26321333D01*
X104544761Y-26464190D01*
X104449523Y-26559428D01*
X104354285Y-26607047D01*
X104163809Y-26654666D01*
X104020952Y-26654666D01*
X103830476Y-26607047D01*
X103735238Y-26559428D01*
X103640000Y-26464190D01*
X103592380Y-26321333D01*
X103592380Y-26226095D01*
X103640000Y-26083238D01*
X103687619Y-26035619D01*
D11*
X110450380Y-78279047D02*
X111164666Y-78279047D01*
X111307523Y-78326666D01*
X111402761Y-78421904D01*
X111450380Y-78564761D01*
X111450380Y-78660000D01*
X111450380Y-77326666D02*
X111450380Y-77802857D01*
X110450380Y-77802857D01*
X111355142Y-76421904D02*
X111402761Y-76469523D01*
X111450380Y-76612380D01*
X111450380Y-76707619D01*
X111402761Y-76850476D01*
X111307523Y-76945714D01*
X111212285Y-76993333D01*
X111021809Y-77040952D01*
X110878952Y-77040952D01*
X110688476Y-76993333D01*
X110593238Y-76945714D01*
X110498000Y-76850476D01*
X110450380Y-76707619D01*
X110450380Y-76612380D01*
X110498000Y-76469523D01*
X110545619Y-76421904D01*
X110450380Y-75707619D02*
X111164666Y-75707619D01*
X111307523Y-75755238D01*
X111402761Y-75850476D01*
X111450380Y-75993333D01*
X111450380Y-76088571D01*
X111450380Y-74755238D02*
X111450380Y-75231428D01*
X110450380Y-75231428D01*
X111355142Y-73850476D02*
X111402761Y-73898095D01*
X111450380Y-74040952D01*
X111450380Y-74136190D01*
X111402761Y-74279047D01*
X111307523Y-74374285D01*
X111212285Y-74421904D01*
X111021809Y-74469523D01*
X110878952Y-74469523D01*
X110688476Y-74421904D01*
X110593238Y-74374285D01*
X110498000Y-74279047D01*
X110450380Y-74136190D01*
X110450380Y-74040952D01*
X110498000Y-73898095D01*
X110545619Y-73850476D01*
X110450380Y-73136190D02*
X111164666Y-73136190D01*
X111307523Y-73183809D01*
X111402761Y-73279047D01*
X111450380Y-73421904D01*
X111450380Y-73517142D01*
X111450380Y-72183809D02*
X111450380Y-72660000D01*
X110450380Y-72660000D01*
X111355142Y-71279047D02*
X111402761Y-71326666D01*
X111450380Y-71469523D01*
X111450380Y-71564761D01*
X111402761Y-71707619D01*
X111307523Y-71802857D01*
X111212285Y-71850476D01*
X111021809Y-71898095D01*
X110878952Y-71898095D01*
X110688476Y-71850476D01*
X110593238Y-71802857D01*
X110498000Y-71707619D01*
X110450380Y-71564761D01*
X110450380Y-71469523D01*
X110498000Y-71326666D01*
X110545619Y-71279047D01*
X110450380Y-70564761D02*
X111164666Y-70564761D01*
X111307523Y-70612380D01*
X111402761Y-70707619D01*
X111450380Y-70850476D01*
X111450380Y-70945714D01*
X111450380Y-69612380D02*
X111450380Y-70088571D01*
X110450380Y-70088571D01*
X111355142Y-68707619D02*
X111402761Y-68755238D01*
X111450380Y-68898095D01*
X111450380Y-68993333D01*
X111402761Y-69136190D01*
X111307523Y-69231428D01*
X111212285Y-69279047D01*
X111021809Y-69326666D01*
X110878952Y-69326666D01*
X110688476Y-69279047D01*
X110593238Y-69231428D01*
X110498000Y-69136190D01*
X110450380Y-68993333D01*
X110450380Y-68898095D01*
X110498000Y-68755238D01*
X110545619Y-68707619D01*
D12*
X102015801Y-115978000D02*
X102015801Y-124233000D01*
X108264201Y-115978000D02*
X102015801Y-115978000D01*
X108264201Y-124233000D02*
X108264201Y-115978000D01*
X102015801Y-124233000D02*
X108264201Y-124233000D01*
X93760800Y-115978000D02*
X93760800Y-124233000D01*
X100009200Y-115978000D02*
X93760800Y-115978000D01*
X100009200Y-124233000D02*
X100009200Y-115978000D01*
X93760800Y-124233000D02*
X100009200Y-124233000D01*
X100938000Y-95157800D02*
X92683000Y-95157800D01*
X100938000Y-101406200D02*
X100938000Y-95157800D01*
X92683000Y-101406200D02*
X100938000Y-101406200D01*
X92683000Y-95157800D02*
X92683000Y-101406200D01*
X100938000Y-88172800D02*
X92683000Y-88172800D01*
X100938000Y-94421200D02*
X100938000Y-88172800D01*
X92683000Y-94421200D02*
X100938000Y-94421200D01*
X92683000Y-88172800D02*
X92683000Y-94421200D01*
X100938000Y-81187800D02*
X92683000Y-81187800D01*
X100938000Y-87436200D02*
X100938000Y-81187800D01*
X92683000Y-87436200D02*
X100938000Y-87436200D01*
X92683000Y-81187800D02*
X92683000Y-87436200D01*
X100938000Y-74202800D02*
X92683000Y-74202800D01*
X100938000Y-80451200D02*
X100938000Y-74202800D01*
X92683000Y-80451200D02*
X100938000Y-80451200D01*
X92683000Y-74202800D02*
X92683000Y-80451200D01*
X100938000Y-67217800D02*
X92683000Y-67217800D01*
X100938000Y-73466200D02*
X100938000Y-67217800D01*
X92683000Y-73466200D02*
X100938000Y-73466200D01*
X92683000Y-67217800D02*
X92683000Y-73466200D01*
X100938000Y-60232800D02*
X92683000Y-60232800D01*
X100938000Y-66481200D02*
X100938000Y-60232800D01*
X92683000Y-66481200D02*
X100938000Y-66481200D01*
X92683000Y-60232800D02*
X92683000Y-66481200D01*
X100938000Y-53247801D02*
X92683000Y-53247801D01*
X100938000Y-59496201D02*
X100938000Y-53247801D01*
X92683000Y-59496201D02*
X100938000Y-59496201D01*
X92683000Y-53247801D02*
X92683000Y-59496201D01*
X100938000Y-46262800D02*
X92683000Y-46262800D01*
X100938000Y-52511200D02*
X100938000Y-46262800D01*
X92683000Y-52511200D02*
X100938000Y-52511200D01*
X92683000Y-46262800D02*
X92683000Y-52511200D01*
X100938000Y-39277801D02*
X92683000Y-39277801D01*
X100938000Y-45526201D02*
X100938000Y-39277801D01*
X92683000Y-45526201D02*
X100938000Y-45526201D01*
X92683000Y-39277801D02*
X92683000Y-45526201D01*
X100938000Y-102142800D02*
X92683000Y-102142800D01*
X100938000Y-108391200D02*
X100938000Y-102142800D01*
X92683000Y-108391200D02*
X100938000Y-108391200D01*
X92683000Y-102142800D02*
X92683000Y-108391200D01*
X100938000Y-109127800D02*
X92683000Y-109127800D01*
X100938000Y-115376200D02*
X100938000Y-109127800D01*
X92683000Y-115376200D02*
X100938000Y-115376200D01*
X92683000Y-109127800D02*
X92683000Y-115376200D01*
X106072000Y-31334200D02*
X114327000Y-31334200D01*
X106072000Y-25085800D02*
X106072000Y-31334200D01*
X114327000Y-25085800D02*
X106072000Y-25085800D01*
X114327000Y-31334200D02*
X114327000Y-25085800D01*
X106072000Y-38319200D02*
X114327000Y-38319200D01*
X106072000Y-32070800D02*
X106072000Y-38319200D01*
X114327000Y-32070800D02*
X106072000Y-32070800D01*
X114327000Y-38319200D02*
X114327000Y-32070800D01*
X106072000Y-45304200D02*
X114327000Y-45304200D01*
X106072000Y-39055800D02*
X106072000Y-45304200D01*
X114327000Y-39055800D02*
X106072000Y-39055800D01*
X114327000Y-45304200D02*
X114327000Y-39055800D01*
X106072000Y-52289199D02*
X114327000Y-52289199D01*
X106072000Y-46040799D02*
X106072000Y-52289199D01*
X114327000Y-46040799D02*
X106072000Y-46040799D01*
X114327000Y-52289199D02*
X114327000Y-46040799D01*
X106072000Y-59274200D02*
X114327000Y-59274200D01*
X106072000Y-53025800D02*
X106072000Y-59274200D01*
X114327000Y-53025800D02*
X106072000Y-53025800D01*
X114327000Y-59274200D02*
X114327000Y-53025800D01*
X106072000Y-66259199D02*
X114327000Y-66259199D01*
X106072000Y-60010799D02*
X106072000Y-66259199D01*
X114327000Y-60010799D02*
X106072000Y-60010799D01*
X114327000Y-66259199D02*
X114327000Y-60010799D01*
X106072000Y-73244200D02*
X114327000Y-73244200D01*
X106072000Y-66995800D02*
X106072000Y-73244200D01*
X114327000Y-66995800D02*
X106072000Y-66995800D01*
X114327000Y-73244200D02*
X114327000Y-66995800D01*
X106072000Y-80229199D02*
X114327000Y-80229199D01*
X106072000Y-73980799D02*
X106072000Y-80229199D01*
X114327000Y-73980799D02*
X106072000Y-73980799D01*
X114327000Y-80229199D02*
X114327000Y-73980799D01*
X106072000Y-87214200D02*
X114327000Y-87214200D01*
X106072000Y-80965800D02*
X106072000Y-87214200D01*
X114327000Y-80965800D02*
X106072000Y-80965800D01*
X114327000Y-87214200D02*
X114327000Y-80965800D01*
X106072000Y-94199200D02*
X114327000Y-94199200D01*
X106072000Y-87950800D02*
X106072000Y-94199200D01*
X114327000Y-87950800D02*
X106072000Y-87950800D01*
X114327000Y-94199200D02*
X114327000Y-87950800D01*
X106072000Y-101184200D02*
X114327000Y-101184200D01*
X106072000Y-94935800D02*
X106072000Y-101184200D01*
X114327000Y-94935800D02*
X106072000Y-94935800D01*
X114327000Y-101184200D02*
X114327000Y-94935800D01*
X106072000Y-108169200D02*
X114327000Y-108169200D01*
X106072000Y-101920800D02*
X106072000Y-108169200D01*
X114327000Y-101920800D02*
X106072000Y-101920800D01*
X114327000Y-108169200D02*
X114327000Y-101920800D01*
X106072000Y-115154199D02*
X114327000Y-115154199D01*
X106072000Y-108905799D02*
X106072000Y-115154199D01*
X114327000Y-108905799D02*
X106072000Y-108905799D01*
X114327000Y-115154199D02*
X114327000Y-108905799D01*
X105185000Y-37380000D02*
X102585000Y-37380000D01*
X105185000Y-22680000D02*
X105185000Y-37380000D01*
X95985000Y-37380000D02*
X95985000Y-35480000D01*
X98685000Y-37380000D02*
X95985000Y-37380000D01*
X95985000Y-22680000D02*
X105185000Y-22680000D01*
X95985000Y-31480000D02*
X95985000Y-22680000D01*
X105385000Y-36530000D02*
X105385000Y-37580000D01*
X104335000Y-37580000D02*
X105385000Y-37580000D01*
D10*
X104822667Y-122134380D02*
X104822667Y-122848666D01*
X104775048Y-122991523D01*
X104679810Y-123086761D01*
X104536953Y-123134380D01*
X104441715Y-123134380D01*
X105203620Y-122134380D02*
X105822667Y-122134380D01*
X105489334Y-122515333D01*
X105632191Y-122515333D01*
X105727429Y-122562952D01*
X105775048Y-122610571D01*
X105822667Y-122705809D01*
X105822667Y-122943904D01*
X105775048Y-123039142D01*
X105727429Y-123086761D01*
X105632191Y-123134380D01*
X105346477Y-123134380D01*
X105251239Y-123086761D01*
X105203620Y-123039142D01*
X109672380Y-123435714D02*
X108672380Y-123435714D01*
X109386666Y-123102380D01*
X108672380Y-122769047D01*
X109672380Y-122769047D01*
X109148571Y-121959523D02*
X109196190Y-121816666D01*
X109243809Y-121769047D01*
X109339047Y-121721428D01*
X109481904Y-121721428D01*
X109577142Y-121769047D01*
X109624761Y-121816666D01*
X109672380Y-121911904D01*
X109672380Y-122292857D01*
X108672380Y-122292857D01*
X108672380Y-121959523D01*
X108720000Y-121864285D01*
X108767619Y-121816666D01*
X108862857Y-121769047D01*
X108958095Y-121769047D01*
X109053333Y-121816666D01*
X109100952Y-121864285D01*
X109148571Y-121959523D01*
X109148571Y-122292857D01*
X108672380Y-121102380D02*
X108672380Y-120911904D01*
X108720000Y-120816666D01*
X108815238Y-120721428D01*
X109005714Y-120673809D01*
X109339047Y-120673809D01*
X109529523Y-120721428D01*
X109624761Y-120816666D01*
X109672380Y-120911904D01*
X109672380Y-121102380D01*
X109624761Y-121197619D01*
X109529523Y-121292857D01*
X109339047Y-121340476D01*
X109005714Y-121340476D01*
X108815238Y-121292857D01*
X108720000Y-121197619D01*
X108672380Y-121102380D01*
X109386666Y-120292857D02*
X109386666Y-119816666D01*
X109672380Y-120388095D02*
X108672380Y-120054761D01*
X109672380Y-119721428D01*
X109672380Y-118816666D02*
X109196190Y-119150000D01*
X109672380Y-119388095D02*
X108672380Y-119388095D01*
X108672380Y-119007142D01*
X108720000Y-118911904D01*
X108767619Y-118864285D01*
X108862857Y-118816666D01*
X109005714Y-118816666D01*
X109100952Y-118864285D01*
X109148571Y-118911904D01*
X109196190Y-119007142D01*
X109196190Y-119388095D01*
X109672380Y-118388095D02*
X108672380Y-118388095D01*
X108672380Y-118150000D01*
X108720000Y-118007142D01*
X108815238Y-117911904D01*
X108910476Y-117864285D01*
X109100952Y-117816666D01*
X109243809Y-117816666D01*
X109434285Y-117864285D01*
X109529523Y-117911904D01*
X109624761Y-118007142D01*
X109672380Y-118150000D01*
X109672380Y-118388095D01*
X104140001Y-116546380D02*
X104140001Y-116784476D01*
X103901905Y-116689238D02*
X104140001Y-116784476D01*
X104378096Y-116689238D01*
X103997143Y-116974952D02*
X104140001Y-116784476D01*
X104282858Y-116974952D01*
X96567666Y-122134380D02*
X96567666Y-122848666D01*
X96520047Y-122991523D01*
X96424809Y-123086761D01*
X96281952Y-123134380D01*
X96186714Y-123134380D01*
X97472428Y-122467714D02*
X97472428Y-123134380D01*
X97234333Y-122086761D02*
X96996238Y-122801047D01*
X97615285Y-122801047D01*
X101369761Y-123388095D02*
X101417380Y-123245238D01*
X101417380Y-123007142D01*
X101369761Y-122911904D01*
X101322142Y-122864285D01*
X101226904Y-122816666D01*
X101131666Y-122816666D01*
X101036428Y-122864285D01*
X100988809Y-122911904D01*
X100941190Y-123007142D01*
X100893571Y-123197619D01*
X100845952Y-123292857D01*
X100798333Y-123340476D01*
X100703095Y-123388095D01*
X100607857Y-123388095D01*
X100512619Y-123340476D01*
X100465000Y-123292857D01*
X100417380Y-123197619D01*
X100417380Y-122959523D01*
X100465000Y-122816666D01*
X100893571Y-122054761D02*
X100941190Y-121911904D01*
X100988809Y-121864285D01*
X101084047Y-121816666D01*
X101226904Y-121816666D01*
X101322142Y-121864285D01*
X101369761Y-121911904D01*
X101417380Y-122007142D01*
X101417380Y-122388095D01*
X100417380Y-122388095D01*
X100417380Y-122054761D01*
X100465000Y-121959523D01*
X100512619Y-121911904D01*
X100607857Y-121864285D01*
X100703095Y-121864285D01*
X100798333Y-121911904D01*
X100845952Y-121959523D01*
X100893571Y-122054761D01*
X100893571Y-122388095D01*
X100417380Y-121197619D02*
X100417380Y-121007142D01*
X100465000Y-120911904D01*
X100560238Y-120816666D01*
X100750714Y-120769047D01*
X101084047Y-120769047D01*
X101274523Y-120816666D01*
X101369761Y-120911904D01*
X101417380Y-121007142D01*
X101417380Y-121197619D01*
X101369761Y-121292857D01*
X101274523Y-121388095D01*
X101084047Y-121435714D01*
X100750714Y-121435714D01*
X100560238Y-121388095D01*
X100465000Y-121292857D01*
X100417380Y-121197619D01*
X101131666Y-120388095D02*
X101131666Y-119911904D01*
X101417380Y-120483333D02*
X100417380Y-120150000D01*
X101417380Y-119816666D01*
X101417380Y-118911904D02*
X100941190Y-119245238D01*
X101417380Y-119483333D02*
X100417380Y-119483333D01*
X100417380Y-119102380D01*
X100465000Y-119007142D01*
X100512619Y-118959523D01*
X100607857Y-118911904D01*
X100750714Y-118911904D01*
X100845952Y-118959523D01*
X100893571Y-119007142D01*
X100941190Y-119102380D01*
X100941190Y-119483333D01*
X101417380Y-118483333D02*
X100417380Y-118483333D01*
X100417380Y-118245238D01*
X100465000Y-118102380D01*
X100560238Y-118007142D01*
X100655476Y-117959523D01*
X100845952Y-117911904D01*
X100988809Y-117911904D01*
X101179285Y-117959523D01*
X101274523Y-118007142D01*
X101369761Y-118102380D01*
X101417380Y-118245238D01*
X101417380Y-118483333D01*
X95885000Y-116546380D02*
X95885000Y-116784476D01*
X95646904Y-116689238D02*
X95885000Y-116784476D01*
X96123095Y-116689238D01*
X95742142Y-116974952D02*
X95885000Y-116784476D01*
X96027857Y-116974952D01*
X93781619Y-96821809D02*
X94781619Y-96821809D01*
X94781619Y-97202761D01*
X94734000Y-97298000D01*
X94686380Y-97345619D01*
X94591142Y-97393238D01*
X94448285Y-97393238D01*
X94353047Y-97345619D01*
X94305428Y-97298000D01*
X94257809Y-97202761D01*
X94257809Y-96821809D01*
X93781619Y-97821809D02*
X94781619Y-97821809D01*
X93781619Y-98869428D02*
X94257809Y-98536095D01*
X93781619Y-98298000D02*
X94781619Y-98298000D01*
X94781619Y-98678952D01*
X94734000Y-98774190D01*
X94686380Y-98821809D01*
X94591142Y-98869428D01*
X94448285Y-98869428D01*
X94353047Y-98821809D01*
X94305428Y-98774190D01*
X94257809Y-98678952D01*
X94257809Y-98298000D01*
X93781619Y-99345619D02*
X93781619Y-99536095D01*
X93829238Y-99631333D01*
X93876857Y-99678952D01*
X94019714Y-99774190D01*
X94210190Y-99821809D01*
X94591142Y-99821809D01*
X94686380Y-99774190D01*
X94734000Y-99726571D01*
X94781619Y-99631333D01*
X94781619Y-99440857D01*
X94734000Y-99345619D01*
X94686380Y-99298000D01*
X94591142Y-99250380D01*
X94353047Y-99250380D01*
X94257809Y-99298000D01*
X94210190Y-99345619D01*
X94162571Y-99440857D01*
X94162571Y-99631333D01*
X94210190Y-99726571D01*
X94257809Y-99774190D01*
X94353047Y-99821809D01*
X97083619Y-96964666D02*
X98083619Y-96964666D01*
X98083619Y-97345619D01*
X98036000Y-97440857D01*
X97988380Y-97488476D01*
X97893142Y-97536095D01*
X97750285Y-97536095D01*
X97655047Y-97488476D01*
X97607428Y-97440857D01*
X97559809Y-97345619D01*
X97559809Y-96964666D01*
X98083619Y-97869428D02*
X97083619Y-98107523D01*
X97797904Y-98298000D01*
X97083619Y-98488476D01*
X98083619Y-98726571D01*
X97083619Y-99678952D02*
X97559809Y-99345619D01*
X97083619Y-99107523D02*
X98083619Y-99107523D01*
X98083619Y-99488476D01*
X98036000Y-99583714D01*
X97988380Y-99631333D01*
X97893142Y-99678952D01*
X97750285Y-99678952D01*
X97655047Y-99631333D01*
X97607428Y-99583714D01*
X97559809Y-99488476D01*
X97559809Y-99107523D01*
X99274380Y-97282000D02*
X99512476Y-97282000D01*
X99417238Y-97520095D02*
X99512476Y-97282000D01*
X99417238Y-97043904D01*
X99702952Y-97424857D02*
X99512476Y-97282000D01*
X99702952Y-97139142D01*
X93781619Y-89836809D02*
X94781619Y-89836809D01*
X94781619Y-90217761D01*
X94734000Y-90313000D01*
X94686380Y-90360619D01*
X94591142Y-90408238D01*
X94448285Y-90408238D01*
X94353047Y-90360619D01*
X94305428Y-90313000D01*
X94257809Y-90217761D01*
X94257809Y-89836809D01*
X93781619Y-90836809D02*
X94781619Y-90836809D01*
X93781619Y-91884428D02*
X94257809Y-91551095D01*
X93781619Y-91313000D02*
X94781619Y-91313000D01*
X94781619Y-91693952D01*
X94734000Y-91789190D01*
X94686380Y-91836809D01*
X94591142Y-91884428D01*
X94448285Y-91884428D01*
X94353047Y-91836809D01*
X94305428Y-91789190D01*
X94257809Y-91693952D01*
X94257809Y-91313000D01*
X94353047Y-92455857D02*
X94400666Y-92360619D01*
X94448285Y-92313000D01*
X94543523Y-92265380D01*
X94591142Y-92265380D01*
X94686380Y-92313000D01*
X94734000Y-92360619D01*
X94781619Y-92455857D01*
X94781619Y-92646333D01*
X94734000Y-92741571D01*
X94686380Y-92789190D01*
X94591142Y-92836809D01*
X94543523Y-92836809D01*
X94448285Y-92789190D01*
X94400666Y-92741571D01*
X94353047Y-92646333D01*
X94353047Y-92455857D01*
X94305428Y-92360619D01*
X94257809Y-92313000D01*
X94162571Y-92265380D01*
X93972095Y-92265380D01*
X93876857Y-92313000D01*
X93829238Y-92360619D01*
X93781619Y-92455857D01*
X93781619Y-92646333D01*
X93829238Y-92741571D01*
X93876857Y-92789190D01*
X93972095Y-92836809D01*
X94162571Y-92836809D01*
X94257809Y-92789190D01*
X94305428Y-92741571D01*
X94353047Y-92646333D01*
X97083619Y-89979666D02*
X98083619Y-89979666D01*
X98083619Y-90360619D01*
X98036000Y-90455857D01*
X97988380Y-90503476D01*
X97893142Y-90551095D01*
X97750285Y-90551095D01*
X97655047Y-90503476D01*
X97607428Y-90455857D01*
X97559809Y-90360619D01*
X97559809Y-89979666D01*
X98083619Y-90884428D02*
X97083619Y-91122523D01*
X97797904Y-91313000D01*
X97083619Y-91503476D01*
X98083619Y-91741571D01*
X97083619Y-92693952D02*
X97559809Y-92360619D01*
X97083619Y-92122523D02*
X98083619Y-92122523D01*
X98083619Y-92503476D01*
X98036000Y-92598714D01*
X97988380Y-92646333D01*
X97893142Y-92693952D01*
X97750285Y-92693952D01*
X97655047Y-92646333D01*
X97607428Y-92598714D01*
X97559809Y-92503476D01*
X97559809Y-92122523D01*
X99274380Y-90297000D02*
X99512476Y-90297000D01*
X99417238Y-90535095D02*
X99512476Y-90297000D01*
X99417238Y-90058904D01*
X99702952Y-90439857D02*
X99512476Y-90297000D01*
X99702952Y-90154142D01*
X93781619Y-82851809D02*
X94781619Y-82851809D01*
X94781619Y-83232761D01*
X94734000Y-83328000D01*
X94686380Y-83375619D01*
X94591142Y-83423238D01*
X94448285Y-83423238D01*
X94353047Y-83375619D01*
X94305428Y-83328000D01*
X94257809Y-83232761D01*
X94257809Y-82851809D01*
X93781619Y-83851809D02*
X94781619Y-83851809D01*
X93781619Y-84899428D02*
X94257809Y-84566095D01*
X93781619Y-84328000D02*
X94781619Y-84328000D01*
X94781619Y-84708952D01*
X94734000Y-84804190D01*
X94686380Y-84851809D01*
X94591142Y-84899428D01*
X94448285Y-84899428D01*
X94353047Y-84851809D01*
X94305428Y-84804190D01*
X94257809Y-84708952D01*
X94257809Y-84328000D01*
X94781619Y-85232761D02*
X94781619Y-85899428D01*
X93781619Y-85470857D01*
X97083619Y-82994666D02*
X98083619Y-82994666D01*
X98083619Y-83375619D01*
X98036000Y-83470857D01*
X97988380Y-83518476D01*
X97893142Y-83566095D01*
X97750285Y-83566095D01*
X97655047Y-83518476D01*
X97607428Y-83470857D01*
X97559809Y-83375619D01*
X97559809Y-82994666D01*
X98083619Y-83899428D02*
X97083619Y-84137523D01*
X97797904Y-84328000D01*
X97083619Y-84518476D01*
X98083619Y-84756571D01*
X97083619Y-85708952D02*
X97559809Y-85375619D01*
X97083619Y-85137523D02*
X98083619Y-85137523D01*
X98083619Y-85518476D01*
X98036000Y-85613714D01*
X97988380Y-85661333D01*
X97893142Y-85708952D01*
X97750285Y-85708952D01*
X97655047Y-85661333D01*
X97607428Y-85613714D01*
X97559809Y-85518476D01*
X97559809Y-85137523D01*
X99274380Y-83312000D02*
X99512476Y-83312000D01*
X99417238Y-83550095D02*
X99512476Y-83312000D01*
X99417238Y-83073904D01*
X99702952Y-83454857D02*
X99512476Y-83312000D01*
X99702952Y-83169142D01*
X93781619Y-75866809D02*
X94781619Y-75866809D01*
X94781619Y-76247761D01*
X94734000Y-76343000D01*
X94686380Y-76390619D01*
X94591142Y-76438238D01*
X94448285Y-76438238D01*
X94353047Y-76390619D01*
X94305428Y-76343000D01*
X94257809Y-76247761D01*
X94257809Y-75866809D01*
X93781619Y-76866809D02*
X94781619Y-76866809D01*
X93781619Y-77914428D02*
X94257809Y-77581095D01*
X93781619Y-77343000D02*
X94781619Y-77343000D01*
X94781619Y-77723952D01*
X94734000Y-77819190D01*
X94686380Y-77866809D01*
X94591142Y-77914428D01*
X94448285Y-77914428D01*
X94353047Y-77866809D01*
X94305428Y-77819190D01*
X94257809Y-77723952D01*
X94257809Y-77343000D01*
X94781619Y-78771571D02*
X94781619Y-78581095D01*
X94734000Y-78485857D01*
X94686380Y-78438238D01*
X94543523Y-78343000D01*
X94353047Y-78295380D01*
X93972095Y-78295380D01*
X93876857Y-78343000D01*
X93829238Y-78390619D01*
X93781619Y-78485857D01*
X93781619Y-78676333D01*
X93829238Y-78771571D01*
X93876857Y-78819190D01*
X93972095Y-78866809D01*
X94210190Y-78866809D01*
X94305428Y-78819190D01*
X94353047Y-78771571D01*
X94400666Y-78676333D01*
X94400666Y-78485857D01*
X94353047Y-78390619D01*
X94305428Y-78343000D01*
X94210190Y-78295380D01*
X97083619Y-76009666D02*
X98083619Y-76009666D01*
X98083619Y-76390619D01*
X98036000Y-76485857D01*
X97988380Y-76533476D01*
X97893142Y-76581095D01*
X97750285Y-76581095D01*
X97655047Y-76533476D01*
X97607428Y-76485857D01*
X97559809Y-76390619D01*
X97559809Y-76009666D01*
X98083619Y-76914428D02*
X97083619Y-77152523D01*
X97797904Y-77343000D01*
X97083619Y-77533476D01*
X98083619Y-77771571D01*
X97083619Y-78723952D02*
X97559809Y-78390619D01*
X97083619Y-78152523D02*
X98083619Y-78152523D01*
X98083619Y-78533476D01*
X98036000Y-78628714D01*
X97988380Y-78676333D01*
X97893142Y-78723952D01*
X97750285Y-78723952D01*
X97655047Y-78676333D01*
X97607428Y-78628714D01*
X97559809Y-78533476D01*
X97559809Y-78152523D01*
X99274380Y-76327000D02*
X99512476Y-76327000D01*
X99417238Y-76565095D02*
X99512476Y-76327000D01*
X99417238Y-76088904D01*
X99702952Y-76469857D02*
X99512476Y-76327000D01*
X99702952Y-76184142D01*
X93781619Y-68881809D02*
X94781619Y-68881809D01*
X94781619Y-69262761D01*
X94734000Y-69358000D01*
X94686380Y-69405619D01*
X94591142Y-69453238D01*
X94448285Y-69453238D01*
X94353047Y-69405619D01*
X94305428Y-69358000D01*
X94257809Y-69262761D01*
X94257809Y-68881809D01*
X93781619Y-69881809D02*
X94781619Y-69881809D01*
X93781619Y-70929428D02*
X94257809Y-70596095D01*
X93781619Y-70358000D02*
X94781619Y-70358000D01*
X94781619Y-70738952D01*
X94734000Y-70834190D01*
X94686380Y-70881809D01*
X94591142Y-70929428D01*
X94448285Y-70929428D01*
X94353047Y-70881809D01*
X94305428Y-70834190D01*
X94257809Y-70738952D01*
X94257809Y-70358000D01*
X94781619Y-71834190D02*
X94781619Y-71358000D01*
X94305428Y-71310380D01*
X94353047Y-71358000D01*
X94400666Y-71453238D01*
X94400666Y-71691333D01*
X94353047Y-71786571D01*
X94305428Y-71834190D01*
X94210190Y-71881809D01*
X93972095Y-71881809D01*
X93876857Y-71834190D01*
X93829238Y-71786571D01*
X93781619Y-71691333D01*
X93781619Y-71453238D01*
X93829238Y-71358000D01*
X93876857Y-71310380D01*
X97083619Y-69024666D02*
X98083619Y-69024666D01*
X98083619Y-69405619D01*
X98036000Y-69500857D01*
X97988380Y-69548476D01*
X97893142Y-69596095D01*
X97750285Y-69596095D01*
X97655047Y-69548476D01*
X97607428Y-69500857D01*
X97559809Y-69405619D01*
X97559809Y-69024666D01*
X98083619Y-69929428D02*
X97083619Y-70167523D01*
X97797904Y-70358000D01*
X97083619Y-70548476D01*
X98083619Y-70786571D01*
X97083619Y-71738952D02*
X97559809Y-71405619D01*
X97083619Y-71167523D02*
X98083619Y-71167523D01*
X98083619Y-71548476D01*
X98036000Y-71643714D01*
X97988380Y-71691333D01*
X97893142Y-71738952D01*
X97750285Y-71738952D01*
X97655047Y-71691333D01*
X97607428Y-71643714D01*
X97559809Y-71548476D01*
X97559809Y-71167523D01*
X99274380Y-69342000D02*
X99512476Y-69342000D01*
X99417238Y-69580095D02*
X99512476Y-69342000D01*
X99417238Y-69103904D01*
X99702952Y-69484857D02*
X99512476Y-69342000D01*
X99702952Y-69199142D01*
X93781619Y-61896809D02*
X94781619Y-61896809D01*
X94781619Y-62277761D01*
X94734000Y-62373000D01*
X94686380Y-62420619D01*
X94591142Y-62468238D01*
X94448285Y-62468238D01*
X94353047Y-62420619D01*
X94305428Y-62373000D01*
X94257809Y-62277761D01*
X94257809Y-61896809D01*
X93781619Y-62896809D02*
X94781619Y-62896809D01*
X93781619Y-63944428D02*
X94257809Y-63611095D01*
X93781619Y-63373000D02*
X94781619Y-63373000D01*
X94781619Y-63753952D01*
X94734000Y-63849190D01*
X94686380Y-63896809D01*
X94591142Y-63944428D01*
X94448285Y-63944428D01*
X94353047Y-63896809D01*
X94305428Y-63849190D01*
X94257809Y-63753952D01*
X94257809Y-63373000D01*
X94448285Y-64801571D02*
X93781619Y-64801571D01*
X94829238Y-64563476D02*
X94114952Y-64325380D01*
X94114952Y-64944428D01*
X97083619Y-62039666D02*
X98083619Y-62039666D01*
X98083619Y-62420619D01*
X98036000Y-62515857D01*
X97988380Y-62563476D01*
X97893142Y-62611095D01*
X97750285Y-62611095D01*
X97655047Y-62563476D01*
X97607428Y-62515857D01*
X97559809Y-62420619D01*
X97559809Y-62039666D01*
X98083619Y-62944428D02*
X97083619Y-63182523D01*
X97797904Y-63373000D01*
X97083619Y-63563476D01*
X98083619Y-63801571D01*
X97083619Y-64753952D02*
X97559809Y-64420619D01*
X97083619Y-64182523D02*
X98083619Y-64182523D01*
X98083619Y-64563476D01*
X98036000Y-64658714D01*
X97988380Y-64706333D01*
X97893142Y-64753952D01*
X97750285Y-64753952D01*
X97655047Y-64706333D01*
X97607428Y-64658714D01*
X97559809Y-64563476D01*
X97559809Y-64182523D01*
X99274380Y-62357000D02*
X99512476Y-62357000D01*
X99417238Y-62595095D02*
X99512476Y-62357000D01*
X99417238Y-62118904D01*
X99702952Y-62499857D02*
X99512476Y-62357000D01*
X99702952Y-62214142D01*
X93781619Y-54911810D02*
X94781619Y-54911810D01*
X94781619Y-55292762D01*
X94734000Y-55388001D01*
X94686380Y-55435620D01*
X94591142Y-55483239D01*
X94448285Y-55483239D01*
X94353047Y-55435620D01*
X94305428Y-55388001D01*
X94257809Y-55292762D01*
X94257809Y-54911810D01*
X93781619Y-55911810D02*
X94781619Y-55911810D01*
X93781619Y-56959429D02*
X94257809Y-56626096D01*
X93781619Y-56388001D02*
X94781619Y-56388001D01*
X94781619Y-56768953D01*
X94734000Y-56864191D01*
X94686380Y-56911810D01*
X94591142Y-56959429D01*
X94448285Y-56959429D01*
X94353047Y-56911810D01*
X94305428Y-56864191D01*
X94257809Y-56768953D01*
X94257809Y-56388001D01*
X94781619Y-57292762D02*
X94781619Y-57911810D01*
X94400666Y-57578477D01*
X94400666Y-57721334D01*
X94353047Y-57816572D01*
X94305428Y-57864191D01*
X94210190Y-57911810D01*
X93972095Y-57911810D01*
X93876857Y-57864191D01*
X93829238Y-57816572D01*
X93781619Y-57721334D01*
X93781619Y-57435620D01*
X93829238Y-57340381D01*
X93876857Y-57292762D01*
X97083619Y-55054667D02*
X98083619Y-55054667D01*
X98083619Y-55435620D01*
X98036000Y-55530858D01*
X97988380Y-55578477D01*
X97893142Y-55626096D01*
X97750285Y-55626096D01*
X97655047Y-55578477D01*
X97607428Y-55530858D01*
X97559809Y-55435620D01*
X97559809Y-55054667D01*
X98083619Y-55959429D02*
X97083619Y-56197524D01*
X97797904Y-56388001D01*
X97083619Y-56578477D01*
X98083619Y-56816572D01*
X97083619Y-57768953D02*
X97559809Y-57435620D01*
X97083619Y-57197524D02*
X98083619Y-57197524D01*
X98083619Y-57578477D01*
X98036000Y-57673715D01*
X97988380Y-57721334D01*
X97893142Y-57768953D01*
X97750285Y-57768953D01*
X97655047Y-57721334D01*
X97607428Y-57673715D01*
X97559809Y-57578477D01*
X97559809Y-57197524D01*
X99274380Y-55372001D02*
X99512476Y-55372001D01*
X99417238Y-55610096D02*
X99512476Y-55372001D01*
X99417238Y-55133905D01*
X99702952Y-55514858D02*
X99512476Y-55372001D01*
X99702952Y-55229143D01*
X93781619Y-47926809D02*
X94781619Y-47926809D01*
X94781619Y-48307761D01*
X94734000Y-48403000D01*
X94686380Y-48450619D01*
X94591142Y-48498238D01*
X94448285Y-48498238D01*
X94353047Y-48450619D01*
X94305428Y-48403000D01*
X94257809Y-48307761D01*
X94257809Y-47926809D01*
X93781619Y-48926809D02*
X94781619Y-48926809D01*
X93781619Y-49974428D02*
X94257809Y-49641095D01*
X93781619Y-49403000D02*
X94781619Y-49403000D01*
X94781619Y-49783952D01*
X94734000Y-49879190D01*
X94686380Y-49926809D01*
X94591142Y-49974428D01*
X94448285Y-49974428D01*
X94353047Y-49926809D01*
X94305428Y-49879190D01*
X94257809Y-49783952D01*
X94257809Y-49403000D01*
X94686380Y-50355380D02*
X94734000Y-50403000D01*
X94781619Y-50498238D01*
X94781619Y-50736333D01*
X94734000Y-50831571D01*
X94686380Y-50879190D01*
X94591142Y-50926809D01*
X94495904Y-50926809D01*
X94353047Y-50879190D01*
X93781619Y-50307761D01*
X93781619Y-50926809D01*
X97083619Y-48069666D02*
X98083619Y-48069666D01*
X98083619Y-48450619D01*
X98036000Y-48545857D01*
X97988380Y-48593476D01*
X97893142Y-48641095D01*
X97750285Y-48641095D01*
X97655047Y-48593476D01*
X97607428Y-48545857D01*
X97559809Y-48450619D01*
X97559809Y-48069666D01*
X98083619Y-48974428D02*
X97083619Y-49212523D01*
X97797904Y-49403000D01*
X97083619Y-49593476D01*
X98083619Y-49831571D01*
X97083619Y-50783952D02*
X97559809Y-50450619D01*
X97083619Y-50212523D02*
X98083619Y-50212523D01*
X98083619Y-50593476D01*
X98036000Y-50688714D01*
X97988380Y-50736333D01*
X97893142Y-50783952D01*
X97750285Y-50783952D01*
X97655047Y-50736333D01*
X97607428Y-50688714D01*
X97559809Y-50593476D01*
X97559809Y-50212523D01*
X99274380Y-48387000D02*
X99512476Y-48387000D01*
X99417238Y-48625095D02*
X99512476Y-48387000D01*
X99417238Y-48148904D01*
X99702952Y-48529857D02*
X99512476Y-48387000D01*
X99702952Y-48244142D01*
X96472190Y-37901619D02*
X96472190Y-38901619D01*
X96091238Y-38901619D01*
X95996000Y-38854000D01*
X95948380Y-38806380D01*
X95900761Y-38711142D01*
X95900761Y-38568285D01*
X95948380Y-38473047D01*
X95996000Y-38425428D01*
X96091238Y-38377809D01*
X96472190Y-38377809D01*
X95472190Y-37901619D02*
X95472190Y-38901619D01*
X94424571Y-37901619D02*
X94757904Y-38377809D01*
X94996000Y-37901619D02*
X94996000Y-38901619D01*
X94615047Y-38901619D01*
X94519809Y-38854000D01*
X94472190Y-38806380D01*
X94424571Y-38711142D01*
X94424571Y-38568285D01*
X94472190Y-38473047D01*
X94519809Y-38425428D01*
X94615047Y-38377809D01*
X94996000Y-38377809D01*
X93472190Y-37901619D02*
X94043619Y-37901619D01*
X93757904Y-37901619D02*
X93757904Y-38901619D01*
X93853142Y-38758761D01*
X93948380Y-38663523D01*
X94043619Y-38615904D01*
X97083619Y-41084667D02*
X98083619Y-41084667D01*
X98083619Y-41465620D01*
X98036000Y-41560858D01*
X97988380Y-41608477D01*
X97893142Y-41656096D01*
X97750285Y-41656096D01*
X97655047Y-41608477D01*
X97607428Y-41560858D01*
X97559809Y-41465620D01*
X97559809Y-41084667D01*
X98083619Y-41989429D02*
X97083619Y-42227524D01*
X97797904Y-42418001D01*
X97083619Y-42608477D01*
X98083619Y-42846572D01*
X97083619Y-43798953D02*
X97559809Y-43465620D01*
X97083619Y-43227524D02*
X98083619Y-43227524D01*
X98083619Y-43608477D01*
X98036000Y-43703715D01*
X97988380Y-43751334D01*
X97893142Y-43798953D01*
X97750285Y-43798953D01*
X97655047Y-43751334D01*
X97607428Y-43703715D01*
X97559809Y-43608477D01*
X97559809Y-43227524D01*
X99274380Y-41402001D02*
X99512476Y-41402001D01*
X99417238Y-41640096D02*
X99512476Y-41402001D01*
X99417238Y-41163905D01*
X99702952Y-41544858D02*
X99512476Y-41402001D01*
X99702952Y-41259143D01*
X93781619Y-103330619D02*
X94781619Y-103330619D01*
X94781619Y-103711571D01*
X94734000Y-103806809D01*
X94686380Y-103854428D01*
X94591142Y-103902047D01*
X94448285Y-103902047D01*
X94353047Y-103854428D01*
X94305428Y-103806809D01*
X94257809Y-103711571D01*
X94257809Y-103330619D01*
X93781619Y-104330619D02*
X94781619Y-104330619D01*
X93781619Y-105378238D02*
X94257809Y-105044904D01*
X93781619Y-104806809D02*
X94781619Y-104806809D01*
X94781619Y-105187761D01*
X94734000Y-105283000D01*
X94686380Y-105330619D01*
X94591142Y-105378238D01*
X94448285Y-105378238D01*
X94353047Y-105330619D01*
X94305428Y-105283000D01*
X94257809Y-105187761D01*
X94257809Y-104806809D01*
X93781619Y-106330619D02*
X93781619Y-105759190D01*
X93781619Y-106044904D02*
X94781619Y-106044904D01*
X94638761Y-105949666D01*
X94543523Y-105854428D01*
X94495904Y-105759190D01*
X94781619Y-106949666D02*
X94781619Y-107044904D01*
X94734000Y-107140142D01*
X94686380Y-107187761D01*
X94591142Y-107235380D01*
X94400666Y-107283000D01*
X94162571Y-107283000D01*
X93972095Y-107235380D01*
X93876857Y-107187761D01*
X93829238Y-107140142D01*
X93781619Y-107044904D01*
X93781619Y-106949666D01*
X93829238Y-106854428D01*
X93876857Y-106806809D01*
X93972095Y-106759190D01*
X94162571Y-106711571D01*
X94400666Y-106711571D01*
X94591142Y-106759190D01*
X94686380Y-106806809D01*
X94734000Y-106854428D01*
X94781619Y-106949666D01*
X97083619Y-103949666D02*
X98083619Y-103949666D01*
X98083619Y-104330619D01*
X98036000Y-104425857D01*
X97988380Y-104473476D01*
X97893142Y-104521095D01*
X97750285Y-104521095D01*
X97655047Y-104473476D01*
X97607428Y-104425857D01*
X97559809Y-104330619D01*
X97559809Y-103949666D01*
X98083619Y-104854428D02*
X97083619Y-105092523D01*
X97797904Y-105283000D01*
X97083619Y-105473476D01*
X98083619Y-105711571D01*
X97083619Y-106663952D02*
X97559809Y-106330619D01*
X97083619Y-106092523D02*
X98083619Y-106092523D01*
X98083619Y-106473476D01*
X98036000Y-106568714D01*
X97988380Y-106616333D01*
X97893142Y-106663952D01*
X97750285Y-106663952D01*
X97655047Y-106616333D01*
X97607428Y-106568714D01*
X97559809Y-106473476D01*
X97559809Y-106092523D01*
X99274380Y-104267000D02*
X99512476Y-104267000D01*
X99417238Y-104505095D02*
X99512476Y-104267000D01*
X99417238Y-104028904D01*
X99702952Y-104409857D02*
X99512476Y-104267000D01*
X99702952Y-104124142D01*
X101401619Y-111458619D02*
X102401619Y-111458619D01*
X102401619Y-111839571D01*
X102354000Y-111934809D01*
X102306380Y-111982428D01*
X102211142Y-112030047D01*
X102068285Y-112030047D01*
X101973047Y-111982428D01*
X101925428Y-111934809D01*
X101877809Y-111839571D01*
X101877809Y-111458619D01*
X101401619Y-112458619D02*
X102401619Y-112458619D01*
X101401619Y-113506238D02*
X101877809Y-113172904D01*
X101401619Y-112934809D02*
X102401619Y-112934809D01*
X102401619Y-113315761D01*
X102354000Y-113411000D01*
X102306380Y-113458619D01*
X102211142Y-113506238D01*
X102068285Y-113506238D01*
X101973047Y-113458619D01*
X101925428Y-113411000D01*
X101877809Y-113315761D01*
X101877809Y-112934809D01*
X101401619Y-114458619D02*
X101401619Y-113887190D01*
X101401619Y-114172904D02*
X102401619Y-114172904D01*
X102258761Y-114077666D01*
X102163523Y-113982428D01*
X102115904Y-113887190D01*
X101401619Y-115411000D02*
X101401619Y-114839571D01*
X101401619Y-115125285D02*
X102401619Y-115125285D01*
X102258761Y-115030047D01*
X102163523Y-114934809D01*
X102115904Y-114839571D01*
X97083619Y-110934666D02*
X98083619Y-110934666D01*
X98083619Y-111315619D01*
X98036000Y-111410857D01*
X97988380Y-111458476D01*
X97893142Y-111506095D01*
X97750285Y-111506095D01*
X97655047Y-111458476D01*
X97607428Y-111410857D01*
X97559809Y-111315619D01*
X97559809Y-110934666D01*
X98083619Y-111839428D02*
X97083619Y-112077523D01*
X97797904Y-112268000D01*
X97083619Y-112458476D01*
X98083619Y-112696571D01*
X97083619Y-113648952D02*
X97559809Y-113315619D01*
X97083619Y-113077523D02*
X98083619Y-113077523D01*
X98083619Y-113458476D01*
X98036000Y-113553714D01*
X97988380Y-113601333D01*
X97893142Y-113648952D01*
X97750285Y-113648952D01*
X97655047Y-113601333D01*
X97607428Y-113553714D01*
X97559809Y-113458476D01*
X97559809Y-113077523D01*
X99274380Y-111252000D02*
X99512476Y-111252000D01*
X99417238Y-111490095D02*
X99512476Y-111252000D01*
X99417238Y-111013904D01*
X99702952Y-111394857D02*
X99512476Y-111252000D01*
X99702952Y-111109142D01*
X113228380Y-30146380D02*
X112228380Y-30146380D01*
X112228380Y-29765428D01*
X112276000Y-29670190D01*
X112323619Y-29622571D01*
X112418857Y-29574952D01*
X112561714Y-29574952D01*
X112656952Y-29622571D01*
X112704571Y-29670190D01*
X112752190Y-29765428D01*
X112752190Y-30146380D01*
X113228380Y-29146380D02*
X112228380Y-29146380D01*
X113228380Y-28098761D02*
X112752190Y-28432095D01*
X113228380Y-28670190D02*
X112228380Y-28670190D01*
X112228380Y-28289238D01*
X112276000Y-28194000D01*
X112323619Y-28146380D01*
X112418857Y-28098761D01*
X112561714Y-28098761D01*
X112656952Y-28146380D01*
X112704571Y-28194000D01*
X112752190Y-28289238D01*
X112752190Y-28670190D01*
X113228380Y-27146380D02*
X113228380Y-27717809D01*
X113228380Y-27432095D02*
X112228380Y-27432095D01*
X112371238Y-27527333D01*
X112466476Y-27622571D01*
X112514095Y-27717809D01*
X112323619Y-26765428D02*
X112276000Y-26717809D01*
X112228380Y-26622571D01*
X112228380Y-26384476D01*
X112276000Y-26289238D01*
X112323619Y-26241619D01*
X112418857Y-26194000D01*
X112514095Y-26194000D01*
X112656952Y-26241619D01*
X113228380Y-26813047D01*
X113228380Y-26194000D01*
X109926380Y-29527333D02*
X108926380Y-29527333D01*
X108926380Y-29146380D01*
X108974000Y-29051142D01*
X109021619Y-29003523D01*
X109116857Y-28955904D01*
X109259714Y-28955904D01*
X109354952Y-29003523D01*
X109402571Y-29051142D01*
X109450190Y-29146380D01*
X109450190Y-29527333D01*
X108926380Y-28622571D02*
X109926380Y-28384476D01*
X109212095Y-28194000D01*
X109926380Y-28003523D01*
X108926380Y-27765428D01*
X109926380Y-26813047D02*
X109450190Y-27146380D01*
X109926380Y-27384476D02*
X108926380Y-27384476D01*
X108926380Y-27003523D01*
X108974000Y-26908285D01*
X109021619Y-26860666D01*
X109116857Y-26813047D01*
X109259714Y-26813047D01*
X109354952Y-26860666D01*
X109402571Y-26908285D01*
X109450190Y-27003523D01*
X109450190Y-27384476D01*
X106640380Y-29210000D02*
X106878476Y-29210000D01*
X106783238Y-29448095D02*
X106878476Y-29210000D01*
X106783238Y-28971904D01*
X107068952Y-29352857D02*
X106878476Y-29210000D01*
X107068952Y-29067142D01*
X113228380Y-37131380D02*
X112228380Y-37131380D01*
X112228380Y-36750428D01*
X112276000Y-36655190D01*
X112323619Y-36607571D01*
X112418857Y-36559952D01*
X112561714Y-36559952D01*
X112656952Y-36607571D01*
X112704571Y-36655190D01*
X112752190Y-36750428D01*
X112752190Y-37131380D01*
X113228380Y-36131380D02*
X112228380Y-36131380D01*
X113228380Y-35083761D02*
X112752190Y-35417095D01*
X113228380Y-35655190D02*
X112228380Y-35655190D01*
X112228380Y-35274238D01*
X112276000Y-35179000D01*
X112323619Y-35131380D01*
X112418857Y-35083761D01*
X112561714Y-35083761D01*
X112656952Y-35131380D01*
X112704571Y-35179000D01*
X112752190Y-35274238D01*
X112752190Y-35655190D01*
X113228380Y-34131380D02*
X113228380Y-34702809D01*
X113228380Y-34417095D02*
X112228380Y-34417095D01*
X112371238Y-34512333D01*
X112466476Y-34607571D01*
X112514095Y-34702809D01*
X112228380Y-33798047D02*
X112228380Y-33179000D01*
X112609333Y-33512333D01*
X112609333Y-33369476D01*
X112656952Y-33274238D01*
X112704571Y-33226619D01*
X112799809Y-33179000D01*
X113037904Y-33179000D01*
X113133142Y-33226619D01*
X113180761Y-33274238D01*
X113228380Y-33369476D01*
X113228380Y-33655190D01*
X113180761Y-33750428D01*
X113133142Y-33798047D01*
X109926380Y-36512333D02*
X108926380Y-36512333D01*
X108926380Y-36131380D01*
X108974000Y-36036142D01*
X109021619Y-35988523D01*
X109116857Y-35940904D01*
X109259714Y-35940904D01*
X109354952Y-35988523D01*
X109402571Y-36036142D01*
X109450190Y-36131380D01*
X109450190Y-36512333D01*
X108926380Y-35607571D02*
X109926380Y-35369476D01*
X109212095Y-35179000D01*
X109926380Y-34988523D01*
X108926380Y-34750428D01*
X109926380Y-33798047D02*
X109450190Y-34131380D01*
X109926380Y-34369476D02*
X108926380Y-34369476D01*
X108926380Y-33988523D01*
X108974000Y-33893285D01*
X109021619Y-33845666D01*
X109116857Y-33798047D01*
X109259714Y-33798047D01*
X109354952Y-33845666D01*
X109402571Y-33893285D01*
X109450190Y-33988523D01*
X109450190Y-34369476D01*
X106640380Y-36195000D02*
X106878476Y-36195000D01*
X106783238Y-36433095D02*
X106878476Y-36195000D01*
X106783238Y-35956904D01*
X107068952Y-36337857D02*
X106878476Y-36195000D01*
X107068952Y-36052142D01*
X113228380Y-44116380D02*
X112228380Y-44116380D01*
X112228380Y-43735428D01*
X112276000Y-43640190D01*
X112323619Y-43592571D01*
X112418857Y-43544952D01*
X112561714Y-43544952D01*
X112656952Y-43592571D01*
X112704571Y-43640190D01*
X112752190Y-43735428D01*
X112752190Y-44116380D01*
X113228380Y-43116380D02*
X112228380Y-43116380D01*
X113228380Y-42068761D02*
X112752190Y-42402095D01*
X113228380Y-42640190D02*
X112228380Y-42640190D01*
X112228380Y-42259238D01*
X112276000Y-42164000D01*
X112323619Y-42116380D01*
X112418857Y-42068761D01*
X112561714Y-42068761D01*
X112656952Y-42116380D01*
X112704571Y-42164000D01*
X112752190Y-42259238D01*
X112752190Y-42640190D01*
X113228380Y-41116380D02*
X113228380Y-41687809D01*
X113228380Y-41402095D02*
X112228380Y-41402095D01*
X112371238Y-41497333D01*
X112466476Y-41592571D01*
X112514095Y-41687809D01*
X112561714Y-40259238D02*
X113228380Y-40259238D01*
X112180761Y-40497333D02*
X112895047Y-40735428D01*
X112895047Y-40116380D01*
X109926380Y-43497333D02*
X108926380Y-43497333D01*
X108926380Y-43116380D01*
X108974000Y-43021142D01*
X109021619Y-42973523D01*
X109116857Y-42925904D01*
X109259714Y-42925904D01*
X109354952Y-42973523D01*
X109402571Y-43021142D01*
X109450190Y-43116380D01*
X109450190Y-43497333D01*
X108926380Y-42592571D02*
X109926380Y-42354476D01*
X109212095Y-42164000D01*
X109926380Y-41973523D01*
X108926380Y-41735428D01*
X109926380Y-40783047D02*
X109450190Y-41116380D01*
X109926380Y-41354476D02*
X108926380Y-41354476D01*
X108926380Y-40973523D01*
X108974000Y-40878285D01*
X109021619Y-40830666D01*
X109116857Y-40783047D01*
X109259714Y-40783047D01*
X109354952Y-40830666D01*
X109402571Y-40878285D01*
X109450190Y-40973523D01*
X109450190Y-41354476D01*
X106640380Y-43180000D02*
X106878476Y-43180000D01*
X106783238Y-43418095D02*
X106878476Y-43180000D01*
X106783238Y-42941904D01*
X107068952Y-43322857D02*
X106878476Y-43180000D01*
X107068952Y-43037142D01*
X113228380Y-51101379D02*
X112228380Y-51101379D01*
X112228380Y-50720427D01*
X112276000Y-50625189D01*
X112323619Y-50577570D01*
X112418857Y-50529951D01*
X112561714Y-50529951D01*
X112656952Y-50577570D01*
X112704571Y-50625189D01*
X112752190Y-50720427D01*
X112752190Y-51101379D01*
X113228380Y-50101379D02*
X112228380Y-50101379D01*
X113228380Y-49053760D02*
X112752190Y-49387094D01*
X113228380Y-49625189D02*
X112228380Y-49625189D01*
X112228380Y-49244237D01*
X112276000Y-49148999D01*
X112323619Y-49101379D01*
X112418857Y-49053760D01*
X112561714Y-49053760D01*
X112656952Y-49101379D01*
X112704571Y-49148999D01*
X112752190Y-49244237D01*
X112752190Y-49625189D01*
X113228380Y-48101379D02*
X113228380Y-48672808D01*
X113228380Y-48387094D02*
X112228380Y-48387094D01*
X112371238Y-48482332D01*
X112466476Y-48577570D01*
X112514095Y-48672808D01*
X112228380Y-47196618D02*
X112228380Y-47672808D01*
X112704571Y-47720427D01*
X112656952Y-47672808D01*
X112609333Y-47577570D01*
X112609333Y-47339475D01*
X112656952Y-47244237D01*
X112704571Y-47196618D01*
X112799809Y-47148999D01*
X113037904Y-47148999D01*
X113133142Y-47196618D01*
X113180761Y-47244237D01*
X113228380Y-47339475D01*
X113228380Y-47577570D01*
X113180761Y-47672808D01*
X113133142Y-47720427D01*
X109926380Y-50482332D02*
X108926380Y-50482332D01*
X108926380Y-50101379D01*
X108974000Y-50006141D01*
X109021619Y-49958522D01*
X109116857Y-49910903D01*
X109259714Y-49910903D01*
X109354952Y-49958522D01*
X109402571Y-50006141D01*
X109450190Y-50101379D01*
X109450190Y-50482332D01*
X108926380Y-49577570D02*
X109926380Y-49339475D01*
X109212095Y-49148999D01*
X109926380Y-48958522D01*
X108926380Y-48720427D01*
X109926380Y-47768046D02*
X109450190Y-48101379D01*
X109926380Y-48339475D02*
X108926380Y-48339475D01*
X108926380Y-47958522D01*
X108974000Y-47863284D01*
X109021619Y-47815665D01*
X109116857Y-47768046D01*
X109259714Y-47768046D01*
X109354952Y-47815665D01*
X109402571Y-47863284D01*
X109450190Y-47958522D01*
X109450190Y-48339475D01*
X106640380Y-50164999D02*
X106878476Y-50164999D01*
X106783238Y-50403094D02*
X106878476Y-50164999D01*
X106783238Y-49926903D01*
X107068952Y-50307856D02*
X106878476Y-50164999D01*
X107068952Y-50022141D01*
X113228380Y-58086380D02*
X112228380Y-58086380D01*
X112228380Y-57705428D01*
X112276000Y-57610190D01*
X112323619Y-57562571D01*
X112418857Y-57514952D01*
X112561714Y-57514952D01*
X112656952Y-57562571D01*
X112704571Y-57610190D01*
X112752190Y-57705428D01*
X112752190Y-58086380D01*
X113228380Y-57086380D02*
X112228380Y-57086380D01*
X113228380Y-56038761D02*
X112752190Y-56372095D01*
X113228380Y-56610190D02*
X112228380Y-56610190D01*
X112228380Y-56229238D01*
X112276000Y-56134000D01*
X112323619Y-56086380D01*
X112418857Y-56038761D01*
X112561714Y-56038761D01*
X112656952Y-56086380D01*
X112704571Y-56134000D01*
X112752190Y-56229238D01*
X112752190Y-56610190D01*
X113228380Y-55086380D02*
X113228380Y-55657809D01*
X113228380Y-55372095D02*
X112228380Y-55372095D01*
X112371238Y-55467333D01*
X112466476Y-55562571D01*
X112514095Y-55657809D01*
X112228380Y-54229238D02*
X112228380Y-54419714D01*
X112276000Y-54514952D01*
X112323619Y-54562571D01*
X112466476Y-54657809D01*
X112656952Y-54705428D01*
X113037904Y-54705428D01*
X113133142Y-54657809D01*
X113180761Y-54610190D01*
X113228380Y-54514952D01*
X113228380Y-54324476D01*
X113180761Y-54229238D01*
X113133142Y-54181619D01*
X113037904Y-54134000D01*
X112799809Y-54134000D01*
X112704571Y-54181619D01*
X112656952Y-54229238D01*
X112609333Y-54324476D01*
X112609333Y-54514952D01*
X112656952Y-54610190D01*
X112704571Y-54657809D01*
X112799809Y-54705428D01*
X109926380Y-57467333D02*
X108926380Y-57467333D01*
X108926380Y-57086380D01*
X108974000Y-56991142D01*
X109021619Y-56943523D01*
X109116857Y-56895904D01*
X109259714Y-56895904D01*
X109354952Y-56943523D01*
X109402571Y-56991142D01*
X109450190Y-57086380D01*
X109450190Y-57467333D01*
X108926380Y-56562571D02*
X109926380Y-56324476D01*
X109212095Y-56134000D01*
X109926380Y-55943523D01*
X108926380Y-55705428D01*
X109926380Y-54753047D02*
X109450190Y-55086380D01*
X109926380Y-55324476D02*
X108926380Y-55324476D01*
X108926380Y-54943523D01*
X108974000Y-54848285D01*
X109021619Y-54800666D01*
X109116857Y-54753047D01*
X109259714Y-54753047D01*
X109354952Y-54800666D01*
X109402571Y-54848285D01*
X109450190Y-54943523D01*
X109450190Y-55324476D01*
X106640380Y-57150000D02*
X106878476Y-57150000D01*
X106783238Y-57388095D02*
X106878476Y-57150000D01*
X106783238Y-56911904D01*
X107068952Y-57292857D02*
X106878476Y-57150000D01*
X107068952Y-57007142D01*
X113228380Y-65071379D02*
X112228380Y-65071379D01*
X112228380Y-64690427D01*
X112276000Y-64595189D01*
X112323619Y-64547570D01*
X112418857Y-64499951D01*
X112561714Y-64499951D01*
X112656952Y-64547570D01*
X112704571Y-64595189D01*
X112752190Y-64690427D01*
X112752190Y-65071379D01*
X113228380Y-64071379D02*
X112228380Y-64071379D01*
X113228380Y-63023760D02*
X112752190Y-63357094D01*
X113228380Y-63595189D02*
X112228380Y-63595189D01*
X112228380Y-63214237D01*
X112276000Y-63118999D01*
X112323619Y-63071379D01*
X112418857Y-63023760D01*
X112561714Y-63023760D01*
X112656952Y-63071379D01*
X112704571Y-63118999D01*
X112752190Y-63214237D01*
X112752190Y-63595189D01*
X113228380Y-62071379D02*
X113228380Y-62642808D01*
X113228380Y-62357094D02*
X112228380Y-62357094D01*
X112371238Y-62452332D01*
X112466476Y-62547570D01*
X112514095Y-62642808D01*
X112228380Y-61738046D02*
X112228380Y-61071379D01*
X113228380Y-61499951D01*
X109926380Y-64452332D02*
X108926380Y-64452332D01*
X108926380Y-64071379D01*
X108974000Y-63976141D01*
X109021619Y-63928522D01*
X109116857Y-63880903D01*
X109259714Y-63880903D01*
X109354952Y-63928522D01*
X109402571Y-63976141D01*
X109450190Y-64071379D01*
X109450190Y-64452332D01*
X108926380Y-63547570D02*
X109926380Y-63309475D01*
X109212095Y-63118999D01*
X109926380Y-62928522D01*
X108926380Y-62690427D01*
X109926380Y-61738046D02*
X109450190Y-62071379D01*
X109926380Y-62309475D02*
X108926380Y-62309475D01*
X108926380Y-61928522D01*
X108974000Y-61833284D01*
X109021619Y-61785665D01*
X109116857Y-61738046D01*
X109259714Y-61738046D01*
X109354952Y-61785665D01*
X109402571Y-61833284D01*
X109450190Y-61928522D01*
X109450190Y-62309475D01*
X106640380Y-64134999D02*
X106878476Y-64134999D01*
X106783238Y-64373094D02*
X106878476Y-64134999D01*
X106783238Y-63896903D01*
X107068952Y-64277856D02*
X106878476Y-64134999D01*
X107068952Y-63992141D01*
X113228380Y-72056380D02*
X112228380Y-72056380D01*
X112228380Y-71675428D01*
X112276000Y-71580190D01*
X112323619Y-71532571D01*
X112418857Y-71484952D01*
X112561714Y-71484952D01*
X112656952Y-71532571D01*
X112704571Y-71580190D01*
X112752190Y-71675428D01*
X112752190Y-72056380D01*
X113228380Y-71056380D02*
X112228380Y-71056380D01*
X113228380Y-70008761D02*
X112752190Y-70342095D01*
X113228380Y-70580190D02*
X112228380Y-70580190D01*
X112228380Y-70199238D01*
X112276000Y-70104000D01*
X112323619Y-70056380D01*
X112418857Y-70008761D01*
X112561714Y-70008761D01*
X112656952Y-70056380D01*
X112704571Y-70104000D01*
X112752190Y-70199238D01*
X112752190Y-70580190D01*
X113228380Y-69056380D02*
X113228380Y-69627809D01*
X113228380Y-69342095D02*
X112228380Y-69342095D01*
X112371238Y-69437333D01*
X112466476Y-69532571D01*
X112514095Y-69627809D01*
X112656952Y-68484952D02*
X112609333Y-68580190D01*
X112561714Y-68627809D01*
X112466476Y-68675428D01*
X112418857Y-68675428D01*
X112323619Y-68627809D01*
X112276000Y-68580190D01*
X112228380Y-68484952D01*
X112228380Y-68294476D01*
X112276000Y-68199238D01*
X112323619Y-68151619D01*
X112418857Y-68104000D01*
X112466476Y-68104000D01*
X112561714Y-68151619D01*
X112609333Y-68199238D01*
X112656952Y-68294476D01*
X112656952Y-68484952D01*
X112704571Y-68580190D01*
X112752190Y-68627809D01*
X112847428Y-68675428D01*
X113037904Y-68675428D01*
X113133142Y-68627809D01*
X113180761Y-68580190D01*
X113228380Y-68484952D01*
X113228380Y-68294476D01*
X113180761Y-68199238D01*
X113133142Y-68151619D01*
X113037904Y-68104000D01*
X112847428Y-68104000D01*
X112752190Y-68151619D01*
X112704571Y-68199238D01*
X112656952Y-68294476D01*
X109926380Y-71437333D02*
X108926380Y-71437333D01*
X108926380Y-71056380D01*
X108974000Y-70961142D01*
X109021619Y-70913523D01*
X109116857Y-70865904D01*
X109259714Y-70865904D01*
X109354952Y-70913523D01*
X109402571Y-70961142D01*
X109450190Y-71056380D01*
X109450190Y-71437333D01*
X108926380Y-70532571D02*
X109926380Y-70294476D01*
X109212095Y-70104000D01*
X109926380Y-69913523D01*
X108926380Y-69675428D01*
X109926380Y-68723047D02*
X109450190Y-69056380D01*
X109926380Y-69294476D02*
X108926380Y-69294476D01*
X108926380Y-68913523D01*
X108974000Y-68818285D01*
X109021619Y-68770666D01*
X109116857Y-68723047D01*
X109259714Y-68723047D01*
X109354952Y-68770666D01*
X109402571Y-68818285D01*
X109450190Y-68913523D01*
X109450190Y-69294476D01*
X106640380Y-71120000D02*
X106878476Y-71120000D01*
X106783238Y-71358095D02*
X106878476Y-71120000D01*
X106783238Y-70881904D01*
X107068952Y-71262857D02*
X106878476Y-71120000D01*
X107068952Y-70977142D01*
X113228380Y-79041379D02*
X112228380Y-79041379D01*
X112228380Y-78660427D01*
X112276000Y-78565189D01*
X112323619Y-78517570D01*
X112418857Y-78469951D01*
X112561714Y-78469951D01*
X112656952Y-78517570D01*
X112704571Y-78565189D01*
X112752190Y-78660427D01*
X112752190Y-79041379D01*
X113228380Y-78041379D02*
X112228380Y-78041379D01*
X113228380Y-76993760D02*
X112752190Y-77327094D01*
X113228380Y-77565189D02*
X112228380Y-77565189D01*
X112228380Y-77184237D01*
X112276000Y-77088999D01*
X112323619Y-77041379D01*
X112418857Y-76993760D01*
X112561714Y-76993760D01*
X112656952Y-77041379D01*
X112704571Y-77088999D01*
X112752190Y-77184237D01*
X112752190Y-77565189D01*
X113228380Y-76041379D02*
X113228380Y-76612808D01*
X113228380Y-76327094D02*
X112228380Y-76327094D01*
X112371238Y-76422332D01*
X112466476Y-76517570D01*
X112514095Y-76612808D01*
X113228380Y-75565189D02*
X113228380Y-75374713D01*
X113180761Y-75279475D01*
X113133142Y-75231856D01*
X112990285Y-75136618D01*
X112799809Y-75088999D01*
X112418857Y-75088999D01*
X112323619Y-75136618D01*
X112276000Y-75184237D01*
X112228380Y-75279475D01*
X112228380Y-75469951D01*
X112276000Y-75565189D01*
X112323619Y-75612808D01*
X112418857Y-75660427D01*
X112656952Y-75660427D01*
X112752190Y-75612808D01*
X112799809Y-75565189D01*
X112847428Y-75469951D01*
X112847428Y-75279475D01*
X112799809Y-75184237D01*
X112752190Y-75136618D01*
X112656952Y-75088999D01*
X109926380Y-78422332D02*
X108926380Y-78422332D01*
X108926380Y-78041379D01*
X108974000Y-77946141D01*
X109021619Y-77898522D01*
X109116857Y-77850903D01*
X109259714Y-77850903D01*
X109354952Y-77898522D01*
X109402571Y-77946141D01*
X109450190Y-78041379D01*
X109450190Y-78422332D01*
X108926380Y-77517570D02*
X109926380Y-77279475D01*
X109212095Y-77088999D01*
X109926380Y-76898522D01*
X108926380Y-76660427D01*
X109926380Y-75708046D02*
X109450190Y-76041379D01*
X109926380Y-76279475D02*
X108926380Y-76279475D01*
X108926380Y-75898522D01*
X108974000Y-75803284D01*
X109021619Y-75755665D01*
X109116857Y-75708046D01*
X109259714Y-75708046D01*
X109354952Y-75755665D01*
X109402571Y-75803284D01*
X109450190Y-75898522D01*
X109450190Y-76279475D01*
X106640380Y-78104999D02*
X106878476Y-78104999D01*
X106783238Y-78343094D02*
X106878476Y-78104999D01*
X106783238Y-77866903D01*
X107068952Y-78247856D02*
X106878476Y-78104999D01*
X107068952Y-77962141D01*
X113228380Y-86026380D02*
X112228380Y-86026380D01*
X112228380Y-85645428D01*
X112276000Y-85550190D01*
X112323619Y-85502571D01*
X112418857Y-85454952D01*
X112561714Y-85454952D01*
X112656952Y-85502571D01*
X112704571Y-85550190D01*
X112752190Y-85645428D01*
X112752190Y-86026380D01*
X113228380Y-85026380D02*
X112228380Y-85026380D01*
X113228380Y-83978761D02*
X112752190Y-84312095D01*
X113228380Y-84550190D02*
X112228380Y-84550190D01*
X112228380Y-84169238D01*
X112276000Y-84074000D01*
X112323619Y-84026380D01*
X112418857Y-83978761D01*
X112561714Y-83978761D01*
X112656952Y-84026380D01*
X112704571Y-84074000D01*
X112752190Y-84169238D01*
X112752190Y-84550190D01*
X112323619Y-83597809D02*
X112276000Y-83550190D01*
X112228380Y-83454952D01*
X112228380Y-83216857D01*
X112276000Y-83121619D01*
X112323619Y-83074000D01*
X112418857Y-83026380D01*
X112514095Y-83026380D01*
X112656952Y-83074000D01*
X113228380Y-83645428D01*
X113228380Y-83026380D01*
X112228380Y-82407333D02*
X112228380Y-82312095D01*
X112276000Y-82216857D01*
X112323619Y-82169238D01*
X112418857Y-82121619D01*
X112609333Y-82074000D01*
X112847428Y-82074000D01*
X113037904Y-82121619D01*
X113133142Y-82169238D01*
X113180761Y-82216857D01*
X113228380Y-82312095D01*
X113228380Y-82407333D01*
X113180761Y-82502571D01*
X113133142Y-82550190D01*
X113037904Y-82597809D01*
X112847428Y-82645428D01*
X112609333Y-82645428D01*
X112418857Y-82597809D01*
X112323619Y-82550190D01*
X112276000Y-82502571D01*
X112228380Y-82407333D01*
X109926380Y-85407333D02*
X108926380Y-85407333D01*
X108926380Y-85026380D01*
X108974000Y-84931142D01*
X109021619Y-84883523D01*
X109116857Y-84835904D01*
X109259714Y-84835904D01*
X109354952Y-84883523D01*
X109402571Y-84931142D01*
X109450190Y-85026380D01*
X109450190Y-85407333D01*
X108926380Y-84502571D02*
X109926380Y-84264476D01*
X109212095Y-84074000D01*
X109926380Y-83883523D01*
X108926380Y-83645428D01*
X109926380Y-82693047D02*
X109450190Y-83026380D01*
X109926380Y-83264476D02*
X108926380Y-83264476D01*
X108926380Y-82883523D01*
X108974000Y-82788285D01*
X109021619Y-82740666D01*
X109116857Y-82693047D01*
X109259714Y-82693047D01*
X109354952Y-82740666D01*
X109402571Y-82788285D01*
X109450190Y-82883523D01*
X109450190Y-83264476D01*
X106640380Y-85090000D02*
X106878476Y-85090000D01*
X106783238Y-85328095D02*
X106878476Y-85090000D01*
X106783238Y-84851904D01*
X107068952Y-85232857D02*
X106878476Y-85090000D01*
X107068952Y-84947142D01*
X113228380Y-93011380D02*
X112228380Y-93011380D01*
X112228380Y-92630428D01*
X112276000Y-92535190D01*
X112323619Y-92487571D01*
X112418857Y-92439952D01*
X112561714Y-92439952D01*
X112656952Y-92487571D01*
X112704571Y-92535190D01*
X112752190Y-92630428D01*
X112752190Y-93011380D01*
X113228380Y-92011380D02*
X112228380Y-92011380D01*
X113228380Y-90963761D02*
X112752190Y-91297095D01*
X113228380Y-91535190D02*
X112228380Y-91535190D01*
X112228380Y-91154238D01*
X112276000Y-91059000D01*
X112323619Y-91011380D01*
X112418857Y-90963761D01*
X112561714Y-90963761D01*
X112656952Y-91011380D01*
X112704571Y-91059000D01*
X112752190Y-91154238D01*
X112752190Y-91535190D01*
X112323619Y-90582809D02*
X112276000Y-90535190D01*
X112228380Y-90439952D01*
X112228380Y-90201857D01*
X112276000Y-90106619D01*
X112323619Y-90059000D01*
X112418857Y-90011380D01*
X112514095Y-90011380D01*
X112656952Y-90059000D01*
X113228380Y-90630428D01*
X113228380Y-90011380D01*
X113228380Y-89059000D02*
X113228380Y-89630428D01*
X113228380Y-89344714D02*
X112228380Y-89344714D01*
X112371238Y-89439952D01*
X112466476Y-89535190D01*
X112514095Y-89630428D01*
X109926380Y-92392333D02*
X108926380Y-92392333D01*
X108926380Y-92011380D01*
X108974000Y-91916142D01*
X109021619Y-91868523D01*
X109116857Y-91820904D01*
X109259714Y-91820904D01*
X109354952Y-91868523D01*
X109402571Y-91916142D01*
X109450190Y-92011380D01*
X109450190Y-92392333D01*
X108926380Y-91487571D02*
X109926380Y-91249476D01*
X109212095Y-91059000D01*
X109926380Y-90868523D01*
X108926380Y-90630428D01*
X109926380Y-89678047D02*
X109450190Y-90011380D01*
X109926380Y-90249476D02*
X108926380Y-90249476D01*
X108926380Y-89868523D01*
X108974000Y-89773285D01*
X109021619Y-89725666D01*
X109116857Y-89678047D01*
X109259714Y-89678047D01*
X109354952Y-89725666D01*
X109402571Y-89773285D01*
X109450190Y-89868523D01*
X109450190Y-90249476D01*
X106640380Y-92075000D02*
X106878476Y-92075000D01*
X106783238Y-92313095D02*
X106878476Y-92075000D01*
X106783238Y-91836904D01*
X107068952Y-92217857D02*
X106878476Y-92075000D01*
X107068952Y-91932142D01*
X113228380Y-99996380D02*
X112228380Y-99996380D01*
X112228380Y-99615428D01*
X112276000Y-99520190D01*
X112323619Y-99472571D01*
X112418857Y-99424952D01*
X112561714Y-99424952D01*
X112656952Y-99472571D01*
X112704571Y-99520190D01*
X112752190Y-99615428D01*
X112752190Y-99996380D01*
X113228380Y-98996380D02*
X112228380Y-98996380D01*
X113228380Y-97948761D02*
X112752190Y-98282095D01*
X113228380Y-98520190D02*
X112228380Y-98520190D01*
X112228380Y-98139238D01*
X112276000Y-98044000D01*
X112323619Y-97996380D01*
X112418857Y-97948761D01*
X112561714Y-97948761D01*
X112656952Y-97996380D01*
X112704571Y-98044000D01*
X112752190Y-98139238D01*
X112752190Y-98520190D01*
X112323619Y-97567809D02*
X112276000Y-97520190D01*
X112228380Y-97424952D01*
X112228380Y-97186857D01*
X112276000Y-97091619D01*
X112323619Y-97044000D01*
X112418857Y-96996380D01*
X112514095Y-96996380D01*
X112656952Y-97044000D01*
X113228380Y-97615428D01*
X113228380Y-96996380D01*
X112323619Y-96615428D02*
X112276000Y-96567809D01*
X112228380Y-96472571D01*
X112228380Y-96234476D01*
X112276000Y-96139238D01*
X112323619Y-96091619D01*
X112418857Y-96044000D01*
X112514095Y-96044000D01*
X112656952Y-96091619D01*
X113228380Y-96663047D01*
X113228380Y-96044000D01*
X109926380Y-99377333D02*
X108926380Y-99377333D01*
X108926380Y-98996380D01*
X108974000Y-98901142D01*
X109021619Y-98853523D01*
X109116857Y-98805904D01*
X109259714Y-98805904D01*
X109354952Y-98853523D01*
X109402571Y-98901142D01*
X109450190Y-98996380D01*
X109450190Y-99377333D01*
X108926380Y-98472571D02*
X109926380Y-98234476D01*
X109212095Y-98044000D01*
X109926380Y-97853523D01*
X108926380Y-97615428D01*
X109926380Y-96663047D02*
X109450190Y-96996380D01*
X109926380Y-97234476D02*
X108926380Y-97234476D01*
X108926380Y-96853523D01*
X108974000Y-96758285D01*
X109021619Y-96710666D01*
X109116857Y-96663047D01*
X109259714Y-96663047D01*
X109354952Y-96710666D01*
X109402571Y-96758285D01*
X109450190Y-96853523D01*
X109450190Y-97234476D01*
X106640380Y-99060000D02*
X106878476Y-99060000D01*
X106783238Y-99298095D02*
X106878476Y-99060000D01*
X106783238Y-98821904D01*
X107068952Y-99202857D02*
X106878476Y-99060000D01*
X107068952Y-98917142D01*
X113228380Y-106981380D02*
X112228380Y-106981380D01*
X112228380Y-106600428D01*
X112276000Y-106505190D01*
X112323619Y-106457571D01*
X112418857Y-106409952D01*
X112561714Y-106409952D01*
X112656952Y-106457571D01*
X112704571Y-106505190D01*
X112752190Y-106600428D01*
X112752190Y-106981380D01*
X113228380Y-105981380D02*
X112228380Y-105981380D01*
X113228380Y-104933761D02*
X112752190Y-105267095D01*
X113228380Y-105505190D02*
X112228380Y-105505190D01*
X112228380Y-105124238D01*
X112276000Y-105029000D01*
X112323619Y-104981380D01*
X112418857Y-104933761D01*
X112561714Y-104933761D01*
X112656952Y-104981380D01*
X112704571Y-105029000D01*
X112752190Y-105124238D01*
X112752190Y-105505190D01*
X112323619Y-104552809D02*
X112276000Y-104505190D01*
X112228380Y-104409952D01*
X112228380Y-104171857D01*
X112276000Y-104076619D01*
X112323619Y-104029000D01*
X112418857Y-103981380D01*
X112514095Y-103981380D01*
X112656952Y-104029000D01*
X113228380Y-104600428D01*
X113228380Y-103981380D01*
X112228380Y-103648047D02*
X112228380Y-103029000D01*
X112609333Y-103362333D01*
X112609333Y-103219476D01*
X112656952Y-103124238D01*
X112704571Y-103076619D01*
X112799809Y-103029000D01*
X113037904Y-103029000D01*
X113133142Y-103076619D01*
X113180761Y-103124238D01*
X113228380Y-103219476D01*
X113228380Y-103505190D01*
X113180761Y-103600428D01*
X113133142Y-103648047D01*
X109926380Y-106362333D02*
X108926380Y-106362333D01*
X108926380Y-105981380D01*
X108974000Y-105886142D01*
X109021619Y-105838523D01*
X109116857Y-105790904D01*
X109259714Y-105790904D01*
X109354952Y-105838523D01*
X109402571Y-105886142D01*
X109450190Y-105981380D01*
X109450190Y-106362333D01*
X108926380Y-105457571D02*
X109926380Y-105219476D01*
X109212095Y-105029000D01*
X109926380Y-104838523D01*
X108926380Y-104600428D01*
X109926380Y-103648047D02*
X109450190Y-103981380D01*
X109926380Y-104219476D02*
X108926380Y-104219476D01*
X108926380Y-103838523D01*
X108974000Y-103743285D01*
X109021619Y-103695666D01*
X109116857Y-103648047D01*
X109259714Y-103648047D01*
X109354952Y-103695666D01*
X109402571Y-103743285D01*
X109450190Y-103838523D01*
X109450190Y-104219476D01*
X106640380Y-106045000D02*
X106878476Y-106045000D01*
X106783238Y-106283095D02*
X106878476Y-106045000D01*
X106783238Y-105806904D01*
X107068952Y-106187857D02*
X106878476Y-106045000D01*
X107068952Y-105902142D01*
X109426619Y-116657380D02*
X109426619Y-115657380D01*
X109807571Y-115657380D01*
X109902809Y-115705000D01*
X109950428Y-115752619D01*
X109998047Y-115847857D01*
X109998047Y-115990714D01*
X109950428Y-116085952D01*
X109902809Y-116133571D01*
X109807571Y-116181190D01*
X109426619Y-116181190D01*
X110426619Y-116657380D02*
X110426619Y-115657380D01*
X111474238Y-116657380D02*
X111140904Y-116181190D01*
X110902809Y-116657380D02*
X110902809Y-115657380D01*
X111283761Y-115657380D01*
X111379000Y-115705000D01*
X111426619Y-115752619D01*
X111474238Y-115847857D01*
X111474238Y-115990714D01*
X111426619Y-116085952D01*
X111379000Y-116133571D01*
X111283761Y-116181190D01*
X110902809Y-116181190D01*
X111855190Y-115752619D02*
X111902809Y-115705000D01*
X111998047Y-115657380D01*
X112236142Y-115657380D01*
X112331380Y-115705000D01*
X112379000Y-115752619D01*
X112426619Y-115847857D01*
X112426619Y-115943095D01*
X112379000Y-116085952D01*
X111807571Y-116657380D01*
X112426619Y-116657380D01*
X113283761Y-115990714D02*
X113283761Y-116657380D01*
X113045666Y-115609761D02*
X112807571Y-116324047D01*
X113426619Y-116324047D01*
X109926380Y-113347332D02*
X108926380Y-113347332D01*
X108926380Y-112966379D01*
X108974000Y-112871141D01*
X109021619Y-112823522D01*
X109116857Y-112775903D01*
X109259714Y-112775903D01*
X109354952Y-112823522D01*
X109402571Y-112871141D01*
X109450190Y-112966379D01*
X109450190Y-113347332D01*
X108926380Y-112442570D02*
X109926380Y-112204475D01*
X109212095Y-112013999D01*
X109926380Y-111823522D01*
X108926380Y-111585427D01*
X109926380Y-110633046D02*
X109450190Y-110966379D01*
X109926380Y-111204475D02*
X108926380Y-111204475D01*
X108926380Y-110823522D01*
X108974000Y-110728284D01*
X109021619Y-110680665D01*
X109116857Y-110633046D01*
X109259714Y-110633046D01*
X109354952Y-110680665D01*
X109402571Y-110728284D01*
X109450190Y-110823522D01*
X109450190Y-111204475D01*
X106640380Y-113029999D02*
X106878476Y-113029999D01*
X106783238Y-113268094D02*
X106878476Y-113029999D01*
X106783238Y-112791903D01*
X107068952Y-113172856D02*
X106878476Y-113029999D01*
X107068952Y-112887141D01*
X94906428Y-29315714D02*
X94906428Y-28553809D01*
X95287380Y-28934761D02*
X94525476Y-28934761D01*
X94287380Y-27601428D02*
X94287380Y-28077619D01*
X94763571Y-28125238D01*
X94715952Y-28077619D01*
X94668333Y-27982380D01*
X94668333Y-27744285D01*
X94715952Y-27649047D01*
X94763571Y-27601428D01*
X94858809Y-27553809D01*
X95096904Y-27553809D01*
X95192142Y-27601428D01*
X95239761Y-27649047D01*
X95287380Y-27744285D01*
X95287380Y-27982380D01*
X95239761Y-28077619D01*
X95192142Y-28125238D01*
X94287380Y-27268095D02*
X95287380Y-26934761D01*
X94287380Y-26601428D01*
%LPC*%
D13*
X106140002Y-117856000D03*
X104140000Y-117856000D03*
X97885001Y-117856000D03*
X95884999Y-117856000D03*
X99060000Y-99282001D03*
X99060000Y-97281999D03*
X99060000Y-92297001D03*
X99060000Y-90296999D03*
X99060000Y-85312001D03*
X99060000Y-83311999D03*
X99060000Y-78327001D03*
X99060000Y-76326999D03*
X99060000Y-71342001D03*
X99060000Y-69341999D03*
X99060000Y-64357001D03*
X99060000Y-62356999D03*
X99060000Y-57372002D03*
X99060000Y-55372000D03*
X99060000Y-50387001D03*
X99060000Y-48386999D03*
X99060000Y-43402002D03*
X99060000Y-41402000D03*
X99060000Y-106267001D03*
X99060000Y-104266999D03*
X99060000Y-113252001D03*
X99060000Y-111251999D03*
X107950000Y-27209999D03*
X107950000Y-29210001D03*
X107950000Y-34194999D03*
X107950000Y-36195001D03*
X107950000Y-41179999D03*
X107950000Y-43180001D03*
X107950000Y-48164998D03*
X107950000Y-50165000D03*
X107950000Y-55149999D03*
X107950000Y-57150001D03*
X107950000Y-62134998D03*
X107950000Y-64135000D03*
X107950000Y-69119999D03*
X107950000Y-71120001D03*
X107950000Y-76104998D03*
X107950000Y-78105000D03*
X107950000Y-83089999D03*
X107950000Y-85090001D03*
X107950000Y-90074999D03*
X107950000Y-92075001D03*
X107950000Y-97059999D03*
X107950000Y-99060001D03*
X107950000Y-104044999D03*
X107950000Y-106045001D03*
X107950000Y-111029998D03*
X107950000Y-113030000D03*
G36*
G01*
X95010000Y-31730000D02*
X96760000Y-31730000D01*
G75*
G02*
X97635000Y-32605000I0J-875000D01*
G01*
X97635000Y-34355000D01*
G75*
G02*
X96760000Y-35230000I-875000J0D01*
G01*
X95010000Y-35230000D01*
G75*
G02*
X94135000Y-34355000I0J875000D01*
G01*
X94135000Y-32605000D01*
G75*
G02*
X95010000Y-31730000I875000J0D01*
G01*
G37*
G36*
G01*
X99585000Y-28980000D02*
X101585000Y-28980000D01*
G75*
G02*
X102335000Y-29730000I0J-750000D01*
G01*
X102335000Y-31230000D01*
G75*
G02*
X101585000Y-31980000I-750000J0D01*
G01*
X99585000Y-31980000D01*
G75*
G02*
X98835000Y-31230000I0J750000D01*
G01*
X98835000Y-29730000D01*
G75*
G02*
X99585000Y-28980000I750000J0D01*
G01*
G37*
D14*
X100585000Y-36480000D03*
M02*
