%FSLAX45Y45*%
G04 Gerber Fmt 4.5, Leading zero omitted, Abs format (unit mm)*
G04 Created by KiCad (PCBNEW 5.1.10) date 2021-12-13 09:13:31*
%MOMM*%
%LPD*%
G01*
G04 APERTURE LIST*
%TA.AperFunction,Profile*%
%ADD10C,0.100000*%
%TD*%
%ADD11C,0.200000*%
%ADD12C,0.300000*%
G04 APERTURE END LIST*
D10*
X11379200Y-2463800D02*
X9321800Y-2463800D01*
X11379200Y-12369800D02*
X11379200Y-2463800D01*
X9321800Y-12369800D02*
X11379200Y-12369800D01*
X9321800Y-2463800D02*
X9321800Y-12369800D01*
D11*
X9544050Y-11741150D02*
X9632950Y-11830050D01*
X9632950Y-11741150D02*
X9544050Y-11830050D01*
X9744050Y-11741150D02*
X9832950Y-11830050D01*
X9832950Y-11741150D02*
X9744050Y-11830050D01*
X9861550Y-4095750D02*
X9950450Y-4184650D01*
X9950450Y-4095750D02*
X9861550Y-4184650D01*
X9861550Y-4295750D02*
X9950450Y-4384650D01*
X9950450Y-4295750D02*
X9861550Y-4384650D01*
X9861550Y-4794250D02*
X9950450Y-4883150D01*
X9950450Y-4794250D02*
X9861550Y-4883150D01*
X9861550Y-4994250D02*
X9950450Y-5083150D01*
X9950450Y-4994250D02*
X9861550Y-5083150D01*
X9861550Y-5492750D02*
X9950450Y-5581650D01*
X9950450Y-5492750D02*
X9861550Y-5581650D01*
X9861550Y-5692750D02*
X9950450Y-5781650D01*
X9950450Y-5692750D02*
X9861550Y-5781650D01*
X9861550Y-6191250D02*
X9950450Y-6280150D01*
X9950450Y-6191250D02*
X9861550Y-6280150D01*
X9861550Y-6391250D02*
X9950450Y-6480150D01*
X9950450Y-6391250D02*
X9861550Y-6480150D01*
X9861550Y-6889750D02*
X9950450Y-6978650D01*
X9950450Y-6889750D02*
X9861550Y-6978650D01*
X9861550Y-7089750D02*
X9950450Y-7178650D01*
X9950450Y-7089750D02*
X9861550Y-7178650D01*
X9861550Y-7588250D02*
X9950450Y-7677150D01*
X9950450Y-7588250D02*
X9861550Y-7677150D01*
X9861550Y-7788250D02*
X9950450Y-7877150D01*
X9950450Y-7788250D02*
X9861550Y-7877150D01*
X9861550Y-8286750D02*
X9950450Y-8375650D01*
X9950450Y-8286750D02*
X9861550Y-8375650D01*
X9861550Y-8486750D02*
X9950450Y-8575650D01*
X9950450Y-8486750D02*
X9861550Y-8575650D01*
X9861550Y-8985250D02*
X9950450Y-9074150D01*
X9950450Y-8985250D02*
X9861550Y-9074150D01*
X9861550Y-9185250D02*
X9950450Y-9274150D01*
X9950450Y-9185250D02*
X9861550Y-9274150D01*
X9861550Y-9683750D02*
X9950450Y-9772650D01*
X9950450Y-9683750D02*
X9861550Y-9772650D01*
X9861550Y-9883750D02*
X9950450Y-9972650D01*
X9950450Y-9883750D02*
X9861550Y-9972650D01*
X9861550Y-10382250D02*
X9950450Y-10471150D01*
X9950450Y-10382250D02*
X9861550Y-10471150D01*
X9861550Y-10582250D02*
X9950450Y-10671150D01*
X9950450Y-10582250D02*
X9861550Y-10671150D01*
X9861550Y-11080750D02*
X9950450Y-11169650D01*
X9950450Y-11080750D02*
X9861550Y-11169650D01*
X9861550Y-11280750D02*
X9950450Y-11369650D01*
X9950450Y-11280750D02*
X9861550Y-11369650D01*
X10369550Y-11741150D02*
X10458450Y-11830050D01*
X10458450Y-11741150D02*
X10369550Y-11830050D01*
X10569550Y-11741150D02*
X10658450Y-11830050D01*
X10658450Y-11741150D02*
X10569550Y-11830050D01*
X10750550Y-2676550D02*
X10839450Y-2765450D01*
X10839450Y-2676550D02*
X10750550Y-2765450D01*
X10750550Y-2876550D02*
X10839450Y-2965450D01*
X10839450Y-2876550D02*
X10750550Y-2965450D01*
X10750550Y-3375050D02*
X10839450Y-3463950D01*
X10839450Y-3375050D02*
X10750550Y-3463950D01*
X10750550Y-3575050D02*
X10839450Y-3663950D01*
X10839450Y-3575050D02*
X10750550Y-3663950D01*
X10750550Y-4073550D02*
X10839450Y-4162450D01*
X10839450Y-4073550D02*
X10750550Y-4162450D01*
X10750550Y-4273550D02*
X10839450Y-4362450D01*
X10839450Y-4273550D02*
X10750550Y-4362450D01*
X10750550Y-4772050D02*
X10839450Y-4860950D01*
X10839450Y-4772050D02*
X10750550Y-4860950D01*
X10750550Y-4972050D02*
X10839450Y-5060950D01*
X10839450Y-4972050D02*
X10750550Y-5060950D01*
X10750550Y-5470550D02*
X10839450Y-5559450D01*
X10839450Y-5470550D02*
X10750550Y-5559450D01*
X10750550Y-5670550D02*
X10839450Y-5759450D01*
X10839450Y-5670550D02*
X10750550Y-5759450D01*
X10750550Y-6169050D02*
X10839450Y-6257950D01*
X10839450Y-6169050D02*
X10750550Y-6257950D01*
X10750550Y-6369050D02*
X10839450Y-6457950D01*
X10839450Y-6369050D02*
X10750550Y-6457950D01*
X10750550Y-6867550D02*
X10839450Y-6956450D01*
X10839450Y-6867550D02*
X10750550Y-6956450D01*
X10750550Y-7067550D02*
X10839450Y-7156450D01*
X10839450Y-7067550D02*
X10750550Y-7156450D01*
X10750550Y-7566050D02*
X10839450Y-7654950D01*
X10839450Y-7566050D02*
X10750550Y-7654950D01*
X10750550Y-7766050D02*
X10839450Y-7854950D01*
X10839450Y-7766050D02*
X10750550Y-7854950D01*
X10750550Y-8264550D02*
X10839450Y-8353450D01*
X10839450Y-8264550D02*
X10750550Y-8353450D01*
X10750550Y-8464550D02*
X10839450Y-8553450D01*
X10839450Y-8464550D02*
X10750550Y-8553450D01*
X10750550Y-8963050D02*
X10839450Y-9051950D01*
X10839450Y-8963050D02*
X10750550Y-9051950D01*
X10750550Y-9163050D02*
X10839450Y-9251950D01*
X10839450Y-9163050D02*
X10750550Y-9251950D01*
X10750550Y-9661550D02*
X10839450Y-9750450D01*
X10839450Y-9661550D02*
X10750550Y-9750450D01*
X10750550Y-9861550D02*
X10839450Y-9950450D01*
X10839450Y-9861550D02*
X10750550Y-9950450D01*
X10750550Y-10360050D02*
X10839450Y-10448950D01*
X10839450Y-10360050D02*
X10750550Y-10448950D01*
X10750550Y-10560050D02*
X10839450Y-10648950D01*
X10839450Y-10560050D02*
X10750550Y-10648950D01*
X10750550Y-11058550D02*
X10839450Y-11147450D01*
X10839450Y-11058550D02*
X10750550Y-11147450D01*
X10750550Y-11258550D02*
X10839450Y-11347450D01*
X10839450Y-11258550D02*
X10750550Y-11347450D01*
X9638500Y-3348000D02*
G75*
G03*
X9638500Y-3348000I-50000J0D01*
G01*
X9548500Y-3248000D02*
X9548500Y-3448000D01*
X9628500Y-3248000D02*
X9628500Y-3448000D01*
X9548500Y-3448000D02*
G75*
G03*
X9628500Y-3448000I40000J0D01*
G01*
X9628500Y-3248000D02*
G75*
G03*
X9548500Y-3248000I-40000J0D01*
G01*
X10108500Y-3048000D02*
G75*
G03*
X10108500Y-3048000I-50000J0D01*
G01*
X10158500Y-3008000D02*
X9958500Y-3008000D01*
X10158500Y-3088000D02*
X9958500Y-3088000D01*
X9958500Y-3008000D02*
G75*
G03*
X9958500Y-3088000I0J-40000D01*
G01*
X10158500Y-3088000D02*
G75*
G03*
X10158500Y-3008000I0J40000D01*
G01*
X10108500Y-3648000D02*
G75*
G03*
X10108500Y-3648000I-50000J0D01*
G01*
X10158500Y-3608000D02*
X9958500Y-3608000D01*
X10158500Y-3688000D02*
X9958500Y-3688000D01*
X9958500Y-3608000D02*
G75*
G03*
X9958500Y-3688000I0J-40000D01*
G01*
X10158500Y-3688000D02*
G75*
G03*
X10158500Y-3608000I0J40000D01*
G01*
D12*
X9603228Y-12840514D02*
X9603228Y-12540514D01*
X9674657Y-12540514D01*
X9717514Y-12554800D01*
X9746086Y-12583371D01*
X9760371Y-12611943D01*
X9774657Y-12669086D01*
X9774657Y-12711943D01*
X9760371Y-12769086D01*
X9746086Y-12797657D01*
X9717514Y-12826229D01*
X9674657Y-12840514D01*
X9603228Y-12840514D01*
X9903228Y-12840514D02*
X9903228Y-12640514D01*
X9903228Y-12697657D02*
X9917514Y-12669086D01*
X9931800Y-12654800D01*
X9960371Y-12640514D01*
X9988943Y-12640514D01*
X10088943Y-12840514D02*
X10088943Y-12640514D01*
X10088943Y-12540514D02*
X10074657Y-12554800D01*
X10088943Y-12569086D01*
X10103228Y-12554800D01*
X10088943Y-12540514D01*
X10088943Y-12569086D01*
X10274657Y-12840514D02*
X10246086Y-12826229D01*
X10231800Y-12797657D01*
X10231800Y-12540514D01*
X10431800Y-12840514D02*
X10403228Y-12826229D01*
X10388943Y-12797657D01*
X10388943Y-12540514D01*
X10774657Y-12840514D02*
X10774657Y-12540514D01*
X10874657Y-12754800D01*
X10974657Y-12540514D01*
X10974657Y-12840514D01*
X11246086Y-12840514D02*
X11246086Y-12683371D01*
X11231800Y-12654800D01*
X11203228Y-12640514D01*
X11146086Y-12640514D01*
X11117514Y-12654800D01*
X11246086Y-12826229D02*
X11217514Y-12840514D01*
X11146086Y-12840514D01*
X11117514Y-12826229D01*
X11103228Y-12797657D01*
X11103228Y-12769086D01*
X11117514Y-12740514D01*
X11146086Y-12726229D01*
X11217514Y-12726229D01*
X11246086Y-12711943D01*
X11388943Y-12640514D02*
X11388943Y-12940514D01*
X11388943Y-12654800D02*
X11417514Y-12640514D01*
X11474657Y-12640514D01*
X11503228Y-12654800D01*
X11517514Y-12669086D01*
X11531800Y-12697657D01*
X11531800Y-12783371D01*
X11517514Y-12811943D01*
X11503228Y-12826229D01*
X11474657Y-12840514D01*
X11417514Y-12840514D01*
X11388943Y-12826229D01*
X11660371Y-12811943D02*
X11674657Y-12826229D01*
X11660371Y-12840514D01*
X11646086Y-12826229D01*
X11660371Y-12811943D01*
X11660371Y-12840514D01*
X11660371Y-12654800D02*
X11674657Y-12669086D01*
X11660371Y-12683371D01*
X11646086Y-12669086D01*
X11660371Y-12654800D01*
X11660371Y-12683371D01*
X9227900Y-13290350D02*
X9316800Y-13379250D01*
X9316800Y-13290350D02*
X9227900Y-13379250D01*
X9660371Y-13170514D02*
X9688943Y-13170514D01*
X9717514Y-13184800D01*
X9731800Y-13199086D01*
X9746086Y-13227657D01*
X9760371Y-13284800D01*
X9760371Y-13356229D01*
X9746086Y-13413371D01*
X9731800Y-13441943D01*
X9717514Y-13456229D01*
X9688943Y-13470514D01*
X9660371Y-13470514D01*
X9631800Y-13456229D01*
X9617514Y-13441943D01*
X9603228Y-13413371D01*
X9588943Y-13356229D01*
X9588943Y-13284800D01*
X9603228Y-13227657D01*
X9617514Y-13199086D01*
X9631800Y-13184800D01*
X9660371Y-13170514D01*
X9888943Y-13441943D02*
X9903228Y-13456229D01*
X9888943Y-13470514D01*
X9874657Y-13456229D01*
X9888943Y-13441943D01*
X9888943Y-13470514D01*
X10074657Y-13299086D02*
X10046086Y-13284800D01*
X10031800Y-13270514D01*
X10017514Y-13241943D01*
X10017514Y-13227657D01*
X10031800Y-13199086D01*
X10046086Y-13184800D01*
X10074657Y-13170514D01*
X10131800Y-13170514D01*
X10160371Y-13184800D01*
X10174657Y-13199086D01*
X10188943Y-13227657D01*
X10188943Y-13241943D01*
X10174657Y-13270514D01*
X10160371Y-13284800D01*
X10131800Y-13299086D01*
X10074657Y-13299086D01*
X10046086Y-13313371D01*
X10031800Y-13327657D01*
X10017514Y-13356229D01*
X10017514Y-13413371D01*
X10031800Y-13441943D01*
X10046086Y-13456229D01*
X10074657Y-13470514D01*
X10131800Y-13470514D01*
X10160371Y-13456229D01*
X10174657Y-13441943D01*
X10188943Y-13413371D01*
X10188943Y-13356229D01*
X10174657Y-13327657D01*
X10160371Y-13313371D01*
X10131800Y-13299086D01*
X10360371Y-13299086D02*
X10331800Y-13284800D01*
X10317514Y-13270514D01*
X10303228Y-13241943D01*
X10303228Y-13227657D01*
X10317514Y-13199086D01*
X10331800Y-13184800D01*
X10360371Y-13170514D01*
X10417514Y-13170514D01*
X10446086Y-13184800D01*
X10460371Y-13199086D01*
X10474657Y-13227657D01*
X10474657Y-13241943D01*
X10460371Y-13270514D01*
X10446086Y-13284800D01*
X10417514Y-13299086D01*
X10360371Y-13299086D01*
X10331800Y-13313371D01*
X10317514Y-13327657D01*
X10303228Y-13356229D01*
X10303228Y-13413371D01*
X10317514Y-13441943D01*
X10331800Y-13456229D01*
X10360371Y-13470514D01*
X10417514Y-13470514D01*
X10446086Y-13456229D01*
X10460371Y-13441943D01*
X10474657Y-13413371D01*
X10474657Y-13356229D01*
X10460371Y-13327657D01*
X10446086Y-13313371D01*
X10417514Y-13299086D01*
X10617514Y-13470514D02*
X10674657Y-13470514D01*
X10703228Y-13456229D01*
X10717514Y-13441943D01*
X10746086Y-13399086D01*
X10760371Y-13341943D01*
X10760371Y-13227657D01*
X10746086Y-13199086D01*
X10731800Y-13184800D01*
X10703228Y-13170514D01*
X10646086Y-13170514D01*
X10617514Y-13184800D01*
X10603228Y-13199086D01*
X10588943Y-13227657D01*
X10588943Y-13299086D01*
X10603228Y-13327657D01*
X10617514Y-13341943D01*
X10646086Y-13356229D01*
X10703228Y-13356229D01*
X10731800Y-13341943D01*
X10746086Y-13327657D01*
X10760371Y-13299086D01*
X10888943Y-13470514D02*
X10888943Y-13270514D01*
X10888943Y-13299086D02*
X10903228Y-13284800D01*
X10931800Y-13270514D01*
X10974657Y-13270514D01*
X11003228Y-13284800D01*
X11017514Y-13313371D01*
X11017514Y-13470514D01*
X11017514Y-13313371D02*
X11031800Y-13284800D01*
X11060371Y-13270514D01*
X11103228Y-13270514D01*
X11131800Y-13284800D01*
X11146086Y-13313371D01*
X11146086Y-13470514D01*
X11288943Y-13470514D02*
X11288943Y-13270514D01*
X11288943Y-13299086D02*
X11303228Y-13284800D01*
X11331800Y-13270514D01*
X11374657Y-13270514D01*
X11403228Y-13284800D01*
X11417514Y-13313371D01*
X11417514Y-13470514D01*
X11417514Y-13313371D02*
X11431800Y-13284800D01*
X11460371Y-13270514D01*
X11503228Y-13270514D01*
X11531800Y-13284800D01*
X11546086Y-13313371D01*
X11546086Y-13470514D01*
X12131800Y-13156229D02*
X11874657Y-13541943D01*
X12517514Y-13170514D02*
X12546086Y-13170514D01*
X12574657Y-13184800D01*
X12588943Y-13199086D01*
X12603228Y-13227657D01*
X12617514Y-13284800D01*
X12617514Y-13356229D01*
X12603228Y-13413371D01*
X12588943Y-13441943D01*
X12574657Y-13456229D01*
X12546086Y-13470514D01*
X12517514Y-13470514D01*
X12488943Y-13456229D01*
X12474657Y-13441943D01*
X12460371Y-13413371D01*
X12446086Y-13356229D01*
X12446086Y-13284800D01*
X12460371Y-13227657D01*
X12474657Y-13199086D01*
X12488943Y-13184800D01*
X12517514Y-13170514D01*
X12746086Y-13441943D02*
X12760371Y-13456229D01*
X12746086Y-13470514D01*
X12731800Y-13456229D01*
X12746086Y-13441943D01*
X12746086Y-13470514D01*
X12946086Y-13170514D02*
X12974657Y-13170514D01*
X13003228Y-13184800D01*
X13017514Y-13199086D01*
X13031800Y-13227657D01*
X13046086Y-13284800D01*
X13046086Y-13356229D01*
X13031800Y-13413371D01*
X13017514Y-13441943D01*
X13003228Y-13456229D01*
X12974657Y-13470514D01*
X12946086Y-13470514D01*
X12917514Y-13456229D01*
X12903228Y-13441943D01*
X12888943Y-13413371D01*
X12874657Y-13356229D01*
X12874657Y-13284800D01*
X12888943Y-13227657D01*
X12903228Y-13199086D01*
X12917514Y-13184800D01*
X12946086Y-13170514D01*
X13146086Y-13170514D02*
X13331800Y-13170514D01*
X13231800Y-13284800D01*
X13274657Y-13284800D01*
X13303228Y-13299086D01*
X13317514Y-13313371D01*
X13331800Y-13341943D01*
X13331800Y-13413371D01*
X13317514Y-13441943D01*
X13303228Y-13456229D01*
X13274657Y-13470514D01*
X13188943Y-13470514D01*
X13160371Y-13456229D01*
X13146086Y-13441943D01*
X13603228Y-13170514D02*
X13460371Y-13170514D01*
X13446086Y-13313371D01*
X13460371Y-13299086D01*
X13488943Y-13284800D01*
X13560371Y-13284800D01*
X13588943Y-13299086D01*
X13603228Y-13313371D01*
X13617514Y-13341943D01*
X13617514Y-13413371D01*
X13603228Y-13441943D01*
X13588943Y-13456229D01*
X13560371Y-13470514D01*
X13488943Y-13470514D01*
X13460371Y-13456229D01*
X13446086Y-13441943D01*
X13803228Y-13170514D02*
X13831800Y-13170514D01*
X13860371Y-13184800D01*
X13874657Y-13199086D01*
X13888943Y-13227657D01*
X13903228Y-13284800D01*
X13903228Y-13356229D01*
X13888943Y-13413371D01*
X13874657Y-13441943D01*
X13860371Y-13456229D01*
X13831800Y-13470514D01*
X13803228Y-13470514D01*
X13774657Y-13456229D01*
X13760371Y-13441943D01*
X13746086Y-13413371D01*
X13731800Y-13356229D01*
X13731800Y-13284800D01*
X13746086Y-13227657D01*
X13760371Y-13199086D01*
X13774657Y-13184800D01*
X13803228Y-13170514D01*
X14017514Y-13170514D02*
X14017514Y-13227657D01*
X14131800Y-13170514D02*
X14131800Y-13227657D01*
X14574657Y-13584800D02*
X14560371Y-13570514D01*
X14531800Y-13527657D01*
X14517514Y-13499086D01*
X14503228Y-13456229D01*
X14488943Y-13384800D01*
X14488943Y-13327657D01*
X14503228Y-13256229D01*
X14517514Y-13213371D01*
X14531800Y-13184800D01*
X14560371Y-13141943D01*
X14574657Y-13127657D01*
X14831800Y-13170514D02*
X14688943Y-13170514D01*
X14674657Y-13313371D01*
X14688943Y-13299086D01*
X14717514Y-13284800D01*
X14788943Y-13284800D01*
X14817514Y-13299086D01*
X14831800Y-13313371D01*
X14846086Y-13341943D01*
X14846086Y-13413371D01*
X14831800Y-13441943D01*
X14817514Y-13456229D01*
X14788943Y-13470514D01*
X14717514Y-13470514D01*
X14688943Y-13456229D01*
X14674657Y-13441943D01*
X14960371Y-13199086D02*
X14974657Y-13184800D01*
X15003228Y-13170514D01*
X15074657Y-13170514D01*
X15103228Y-13184800D01*
X15117514Y-13199086D01*
X15131800Y-13227657D01*
X15131800Y-13256229D01*
X15117514Y-13299086D01*
X14946086Y-13470514D01*
X15131800Y-13470514D01*
X15488943Y-13470514D02*
X15488943Y-13170514D01*
X15617514Y-13470514D02*
X15617514Y-13313371D01*
X15603228Y-13284800D01*
X15574657Y-13270514D01*
X15531800Y-13270514D01*
X15503228Y-13284800D01*
X15488943Y-13299086D01*
X15803228Y-13470514D02*
X15774657Y-13456229D01*
X15760371Y-13441943D01*
X15746086Y-13413371D01*
X15746086Y-13327657D01*
X15760371Y-13299086D01*
X15774657Y-13284800D01*
X15803228Y-13270514D01*
X15846086Y-13270514D01*
X15874657Y-13284800D01*
X15888943Y-13299086D01*
X15903228Y-13327657D01*
X15903228Y-13413371D01*
X15888943Y-13441943D01*
X15874657Y-13456229D01*
X15846086Y-13470514D01*
X15803228Y-13470514D01*
X16074657Y-13470514D02*
X16046086Y-13456229D01*
X16031800Y-13427657D01*
X16031800Y-13170514D01*
X16303228Y-13456229D02*
X16274657Y-13470514D01*
X16217514Y-13470514D01*
X16188943Y-13456229D01*
X16174657Y-13427657D01*
X16174657Y-13313371D01*
X16188943Y-13284800D01*
X16217514Y-13270514D01*
X16274657Y-13270514D01*
X16303228Y-13284800D01*
X16317514Y-13313371D01*
X16317514Y-13341943D01*
X16174657Y-13370514D01*
X16431800Y-13456229D02*
X16460371Y-13470514D01*
X16517514Y-13470514D01*
X16546086Y-13456229D01*
X16560371Y-13427657D01*
X16560371Y-13413371D01*
X16546086Y-13384800D01*
X16517514Y-13370514D01*
X16474657Y-13370514D01*
X16446086Y-13356229D01*
X16431800Y-13327657D01*
X16431800Y-13313371D01*
X16446086Y-13284800D01*
X16474657Y-13270514D01*
X16517514Y-13270514D01*
X16546086Y-13284800D01*
X16660371Y-13584800D02*
X16674657Y-13570514D01*
X16703228Y-13527657D01*
X16717514Y-13499086D01*
X16731800Y-13456229D01*
X16746086Y-13384800D01*
X16746086Y-13327657D01*
X16731800Y-13256229D01*
X16717514Y-13213371D01*
X16703228Y-13184800D01*
X16674657Y-13141943D01*
X16660371Y-13127657D01*
X9316800Y-13730800D02*
G75*
G03*
X9316800Y-13730800I-50000J0D01*
G01*
X9760371Y-13866514D02*
X9588943Y-13866514D01*
X9674657Y-13866514D02*
X9674657Y-13566514D01*
X9646086Y-13609371D01*
X9617514Y-13637943D01*
X9588943Y-13652229D01*
X9888943Y-13837943D02*
X9903228Y-13852229D01*
X9888943Y-13866514D01*
X9874657Y-13852229D01*
X9888943Y-13837943D01*
X9888943Y-13866514D01*
X10088943Y-13566514D02*
X10117514Y-13566514D01*
X10146086Y-13580800D01*
X10160371Y-13595086D01*
X10174657Y-13623657D01*
X10188943Y-13680800D01*
X10188943Y-13752229D01*
X10174657Y-13809371D01*
X10160371Y-13837943D01*
X10146086Y-13852229D01*
X10117514Y-13866514D01*
X10088943Y-13866514D01*
X10060371Y-13852229D01*
X10046086Y-13837943D01*
X10031800Y-13809371D01*
X10017514Y-13752229D01*
X10017514Y-13680800D01*
X10031800Y-13623657D01*
X10046086Y-13595086D01*
X10060371Y-13580800D01*
X10088943Y-13566514D01*
X10374657Y-13566514D02*
X10403228Y-13566514D01*
X10431800Y-13580800D01*
X10446086Y-13595086D01*
X10460371Y-13623657D01*
X10474657Y-13680800D01*
X10474657Y-13752229D01*
X10460371Y-13809371D01*
X10446086Y-13837943D01*
X10431800Y-13852229D01*
X10403228Y-13866514D01*
X10374657Y-13866514D01*
X10346086Y-13852229D01*
X10331800Y-13837943D01*
X10317514Y-13809371D01*
X10303228Y-13752229D01*
X10303228Y-13680800D01*
X10317514Y-13623657D01*
X10331800Y-13595086D01*
X10346086Y-13580800D01*
X10374657Y-13566514D01*
X10660371Y-13566514D02*
X10688943Y-13566514D01*
X10717514Y-13580800D01*
X10731800Y-13595086D01*
X10746086Y-13623657D01*
X10760371Y-13680800D01*
X10760371Y-13752229D01*
X10746086Y-13809371D01*
X10731800Y-13837943D01*
X10717514Y-13852229D01*
X10688943Y-13866514D01*
X10660371Y-13866514D01*
X10631800Y-13852229D01*
X10617514Y-13837943D01*
X10603228Y-13809371D01*
X10588943Y-13752229D01*
X10588943Y-13680800D01*
X10603228Y-13623657D01*
X10617514Y-13595086D01*
X10631800Y-13580800D01*
X10660371Y-13566514D01*
X10888943Y-13866514D02*
X10888943Y-13666514D01*
X10888943Y-13695086D02*
X10903228Y-13680800D01*
X10931800Y-13666514D01*
X10974657Y-13666514D01*
X11003228Y-13680800D01*
X11017514Y-13709371D01*
X11017514Y-13866514D01*
X11017514Y-13709371D02*
X11031800Y-13680800D01*
X11060371Y-13666514D01*
X11103228Y-13666514D01*
X11131800Y-13680800D01*
X11146086Y-13709371D01*
X11146086Y-13866514D01*
X11288943Y-13866514D02*
X11288943Y-13666514D01*
X11288943Y-13695086D02*
X11303228Y-13680800D01*
X11331800Y-13666514D01*
X11374657Y-13666514D01*
X11403228Y-13680800D01*
X11417514Y-13709371D01*
X11417514Y-13866514D01*
X11417514Y-13709371D02*
X11431800Y-13680800D01*
X11460371Y-13666514D01*
X11503228Y-13666514D01*
X11531800Y-13680800D01*
X11546086Y-13709371D01*
X11546086Y-13866514D01*
X12131800Y-13552229D02*
X11874657Y-13937943D01*
X12517514Y-13566514D02*
X12546086Y-13566514D01*
X12574657Y-13580800D01*
X12588943Y-13595086D01*
X12603228Y-13623657D01*
X12617514Y-13680800D01*
X12617514Y-13752229D01*
X12603228Y-13809371D01*
X12588943Y-13837943D01*
X12574657Y-13852229D01*
X12546086Y-13866514D01*
X12517514Y-13866514D01*
X12488943Y-13852229D01*
X12474657Y-13837943D01*
X12460371Y-13809371D01*
X12446086Y-13752229D01*
X12446086Y-13680800D01*
X12460371Y-13623657D01*
X12474657Y-13595086D01*
X12488943Y-13580800D01*
X12517514Y-13566514D01*
X12746086Y-13837943D02*
X12760371Y-13852229D01*
X12746086Y-13866514D01*
X12731800Y-13852229D01*
X12746086Y-13837943D01*
X12746086Y-13866514D01*
X12946086Y-13566514D02*
X12974657Y-13566514D01*
X13003228Y-13580800D01*
X13017514Y-13595086D01*
X13031800Y-13623657D01*
X13046086Y-13680800D01*
X13046086Y-13752229D01*
X13031800Y-13809371D01*
X13017514Y-13837943D01*
X13003228Y-13852229D01*
X12974657Y-13866514D01*
X12946086Y-13866514D01*
X12917514Y-13852229D01*
X12903228Y-13837943D01*
X12888943Y-13809371D01*
X12874657Y-13752229D01*
X12874657Y-13680800D01*
X12888943Y-13623657D01*
X12903228Y-13595086D01*
X12917514Y-13580800D01*
X12946086Y-13566514D01*
X13146086Y-13566514D02*
X13331800Y-13566514D01*
X13231800Y-13680800D01*
X13274657Y-13680800D01*
X13303228Y-13695086D01*
X13317514Y-13709371D01*
X13331800Y-13737943D01*
X13331800Y-13809371D01*
X13317514Y-13837943D01*
X13303228Y-13852229D01*
X13274657Y-13866514D01*
X13188943Y-13866514D01*
X13160371Y-13852229D01*
X13146086Y-13837943D01*
X13474657Y-13866514D02*
X13531800Y-13866514D01*
X13560371Y-13852229D01*
X13574657Y-13837943D01*
X13603228Y-13795086D01*
X13617514Y-13737943D01*
X13617514Y-13623657D01*
X13603228Y-13595086D01*
X13588943Y-13580800D01*
X13560371Y-13566514D01*
X13503228Y-13566514D01*
X13474657Y-13580800D01*
X13460371Y-13595086D01*
X13446086Y-13623657D01*
X13446086Y-13695086D01*
X13460371Y-13723657D01*
X13474657Y-13737943D01*
X13503228Y-13752229D01*
X13560371Y-13752229D01*
X13588943Y-13737943D01*
X13603228Y-13723657D01*
X13617514Y-13695086D01*
X13874657Y-13666514D02*
X13874657Y-13866514D01*
X13803228Y-13552229D02*
X13731800Y-13766514D01*
X13917514Y-13766514D01*
X14017514Y-13566514D02*
X14017514Y-13623657D01*
X14131800Y-13566514D02*
X14131800Y-13623657D01*
X14574657Y-13980800D02*
X14560371Y-13966514D01*
X14531800Y-13923657D01*
X14517514Y-13895086D01*
X14503228Y-13852229D01*
X14488943Y-13780800D01*
X14488943Y-13723657D01*
X14503228Y-13652229D01*
X14517514Y-13609371D01*
X14531800Y-13580800D01*
X14560371Y-13537943D01*
X14574657Y-13523657D01*
X14746086Y-13566514D02*
X14774657Y-13566514D01*
X14803228Y-13580800D01*
X14817514Y-13595086D01*
X14831800Y-13623657D01*
X14846086Y-13680800D01*
X14846086Y-13752229D01*
X14831800Y-13809371D01*
X14817514Y-13837943D01*
X14803228Y-13852229D01*
X14774657Y-13866514D01*
X14746086Y-13866514D01*
X14717514Y-13852229D01*
X14703228Y-13837943D01*
X14688943Y-13809371D01*
X14674657Y-13752229D01*
X14674657Y-13680800D01*
X14688943Y-13623657D01*
X14703228Y-13595086D01*
X14717514Y-13580800D01*
X14746086Y-13566514D01*
X15203228Y-13866514D02*
X15203228Y-13566514D01*
X15331800Y-13866514D02*
X15331800Y-13709371D01*
X15317514Y-13680800D01*
X15288943Y-13666514D01*
X15246086Y-13666514D01*
X15217514Y-13680800D01*
X15203228Y-13695086D01*
X15517514Y-13866514D02*
X15488943Y-13852229D01*
X15474657Y-13837943D01*
X15460371Y-13809371D01*
X15460371Y-13723657D01*
X15474657Y-13695086D01*
X15488943Y-13680800D01*
X15517514Y-13666514D01*
X15560371Y-13666514D01*
X15588943Y-13680800D01*
X15603228Y-13695086D01*
X15617514Y-13723657D01*
X15617514Y-13809371D01*
X15603228Y-13837943D01*
X15588943Y-13852229D01*
X15560371Y-13866514D01*
X15517514Y-13866514D01*
X15788943Y-13866514D02*
X15760371Y-13852229D01*
X15746086Y-13823657D01*
X15746086Y-13566514D01*
X16017514Y-13852229D02*
X15988943Y-13866514D01*
X15931800Y-13866514D01*
X15903228Y-13852229D01*
X15888943Y-13823657D01*
X15888943Y-13709371D01*
X15903228Y-13680800D01*
X15931800Y-13666514D01*
X15988943Y-13666514D01*
X16017514Y-13680800D01*
X16031800Y-13709371D01*
X16031800Y-13737943D01*
X15888943Y-13766514D01*
X16146086Y-13852229D02*
X16174657Y-13866514D01*
X16231800Y-13866514D01*
X16260371Y-13852229D01*
X16274657Y-13823657D01*
X16274657Y-13809371D01*
X16260371Y-13780800D01*
X16231800Y-13766514D01*
X16188943Y-13766514D01*
X16160371Y-13752229D01*
X16146086Y-13723657D01*
X16146086Y-13709371D01*
X16160371Y-13680800D01*
X16188943Y-13666514D01*
X16231800Y-13666514D01*
X16260371Y-13680800D01*
X16631800Y-13752229D02*
X16860371Y-13752229D01*
X16746086Y-13866514D02*
X16746086Y-13637943D01*
X17203228Y-13566514D02*
X17388943Y-13566514D01*
X17288943Y-13680800D01*
X17331800Y-13680800D01*
X17360371Y-13695086D01*
X17374657Y-13709371D01*
X17388943Y-13737943D01*
X17388943Y-13809371D01*
X17374657Y-13837943D01*
X17360371Y-13852229D01*
X17331800Y-13866514D01*
X17246086Y-13866514D01*
X17217514Y-13852229D01*
X17203228Y-13837943D01*
X17731800Y-13852229D02*
X17760371Y-13866514D01*
X17817514Y-13866514D01*
X17846086Y-13852229D01*
X17860371Y-13823657D01*
X17860371Y-13809371D01*
X17846086Y-13780800D01*
X17817514Y-13766514D01*
X17774657Y-13766514D01*
X17746086Y-13752229D01*
X17731800Y-13723657D01*
X17731800Y-13709371D01*
X17746086Y-13680800D01*
X17774657Y-13666514D01*
X17817514Y-13666514D01*
X17846086Y-13680800D01*
X18031800Y-13866514D02*
X18003228Y-13852229D01*
X17988943Y-13823657D01*
X17988943Y-13566514D01*
X18188943Y-13866514D02*
X18160371Y-13852229D01*
X18146086Y-13837943D01*
X18131800Y-13809371D01*
X18131800Y-13723657D01*
X18146086Y-13695086D01*
X18160371Y-13680800D01*
X18188943Y-13666514D01*
X18231800Y-13666514D01*
X18260371Y-13680800D01*
X18274657Y-13695086D01*
X18288943Y-13723657D01*
X18288943Y-13809371D01*
X18274657Y-13837943D01*
X18260371Y-13852229D01*
X18231800Y-13866514D01*
X18188943Y-13866514D01*
X18374657Y-13666514D02*
X18488943Y-13666514D01*
X18417514Y-13566514D02*
X18417514Y-13823657D01*
X18431800Y-13852229D01*
X18460371Y-13866514D01*
X18488943Y-13866514D01*
X18574657Y-13852229D02*
X18603228Y-13866514D01*
X18660371Y-13866514D01*
X18688943Y-13852229D01*
X18703228Y-13823657D01*
X18703228Y-13809371D01*
X18688943Y-13780800D01*
X18660371Y-13766514D01*
X18617514Y-13766514D01*
X18588943Y-13752229D01*
X18574657Y-13723657D01*
X18574657Y-13709371D01*
X18588943Y-13680800D01*
X18617514Y-13666514D01*
X18660371Y-13666514D01*
X18688943Y-13680800D01*
X18803228Y-13980800D02*
X18817514Y-13966514D01*
X18846086Y-13923657D01*
X18860371Y-13895086D01*
X18874657Y-13852229D01*
X18888943Y-13780800D01*
X18888943Y-13723657D01*
X18874657Y-13652229D01*
X18860371Y-13609371D01*
X18846086Y-13580800D01*
X18817514Y-13537943D01*
X18803228Y-13523657D01*
M02*
