M48
; DRILL file {KiCad 5.1.10} date Mon Dec 13 09:13:31 2021
; FORMAT={-:-/ absolute / metric / decimal}
; #@! TF.CreationDate,2021-12-13T09:13:31+01:00
; #@! TF.GenerationSoftware,Kicad,Pcbnew,5.1.10
; #@! TF.FileFunction,Plated,1,2,PTH
FMAT,2
METRIC
T1C0.889
T2C1.000
%
G90
G05
T1
X95.885Y-117.856
X97.885Y-117.856
X99.06Y-41.402
X99.06Y-43.402
X99.06Y-48.387
X99.06Y-50.387
X99.06Y-55.372
X99.06Y-57.372
X99.06Y-62.357
X99.06Y-64.357
X99.06Y-69.342
X99.06Y-71.342
X99.06Y-76.327
X99.06Y-78.327
X99.06Y-83.312
X99.06Y-85.312
X99.06Y-90.297
X99.06Y-92.297
X99.06Y-97.282
X99.06Y-99.282
X99.06Y-104.267
X99.06Y-106.267
X99.06Y-111.252
X99.06Y-113.252
X104.14Y-117.856
X106.14Y-117.856
X107.95Y-27.21
X107.95Y-29.21
X107.95Y-34.195
X107.95Y-36.195
X107.95Y-41.18
X107.95Y-43.18
X107.95Y-48.165
X107.95Y-50.165
X107.95Y-55.15
X107.95Y-57.15
X107.95Y-62.135
X107.95Y-64.135
X107.95Y-69.12
X107.95Y-71.12
X107.95Y-76.105
X107.95Y-78.105
X107.95Y-83.09
X107.95Y-85.09
X107.95Y-90.075
X107.95Y-92.075
X107.95Y-97.06
X107.95Y-99.06
X107.95Y-104.045
X107.95Y-106.045
X107.95Y-111.03
X107.95Y-113.03
T2
X95.885Y-32.48G85X95.885Y-34.48
G05
X101.585Y-30.48G85X99.585Y-30.48
G05
X101.585Y-36.48G85X99.585Y-36.48
G05
T0
M30
