%TF.GenerationSoftware,KiCad,Pcbnew,5.1.10*%
%TF.CreationDate,2021-12-13T09:13:28+01:00*%
%TF.ProjectId,power_board,706f7765-725f-4626-9f61-72642e6b6963,rev?*%
%TF.SameCoordinates,Original*%
%TF.FileFunction,Copper,L1,Top*%
%TF.FilePolarity,Positive*%
%FSLAX46Y46*%
G04 Gerber Fmt 4.6, Leading zero omitted, Abs format (unit mm)*
G04 Created by KiCad (PCBNEW 5.1.10) date 2021-12-13 09:13:28*
%MOMM*%
%LPD*%
G01*
G04 APERTURE LIST*
%TA.AperFunction,ComponentPad*%
%ADD10C,1.397000*%
%TD*%
%TA.AperFunction,ComponentPad*%
%ADD11R,3.500000X3.500000*%
%TD*%
%TA.AperFunction,Conductor*%
%ADD12C,0.254000*%
%TD*%
%TA.AperFunction,Conductor*%
%ADD13C,0.100000*%
%TD*%
G04 APERTURE END LIST*
D10*
X106140002Y-117856000D03*
X104140000Y-117856000D03*
X97885001Y-117856000D03*
X95884999Y-117856000D03*
X99060000Y-99282001D03*
X99060000Y-97281999D03*
X99060000Y-92297001D03*
X99060000Y-90296999D03*
X99060000Y-85312001D03*
X99060000Y-83311999D03*
X99060000Y-78327001D03*
X99060000Y-76326999D03*
X99060000Y-71342001D03*
X99060000Y-69341999D03*
X99060000Y-64357001D03*
X99060000Y-62356999D03*
X99060000Y-57372002D03*
X99060000Y-55372000D03*
X99060000Y-50387001D03*
X99060000Y-48386999D03*
X99060000Y-43402002D03*
X99060000Y-41402000D03*
X99060000Y-106267001D03*
X99060000Y-104266999D03*
X99060000Y-113252001D03*
X99060000Y-111251999D03*
X107950000Y-27209999D03*
X107950000Y-29210001D03*
X107950000Y-34194999D03*
X107950000Y-36195001D03*
X107950000Y-41179999D03*
X107950000Y-43180001D03*
X107950000Y-48164998D03*
X107950000Y-50165000D03*
X107950000Y-55149999D03*
X107950000Y-57150001D03*
X107950000Y-62134998D03*
X107950000Y-64135000D03*
X107950000Y-69119999D03*
X107950000Y-71120001D03*
X107950000Y-76104998D03*
X107950000Y-78105000D03*
X107950000Y-83089999D03*
X107950000Y-85090001D03*
X107950000Y-90074999D03*
X107950000Y-92075001D03*
X107950000Y-97059999D03*
X107950000Y-99060001D03*
X107950000Y-104044999D03*
X107950000Y-106045001D03*
X107950000Y-111029998D03*
X107950000Y-113030000D03*
%TA.AperFunction,ComponentPad*%
G36*
G01*
X95010000Y-31730000D02*
X96760000Y-31730000D01*
G75*
G02*
X97635000Y-32605000I0J-875000D01*
G01*
X97635000Y-34355000D01*
G75*
G02*
X96760000Y-35230000I-875000J0D01*
G01*
X95010000Y-35230000D01*
G75*
G02*
X94135000Y-34355000I0J875000D01*
G01*
X94135000Y-32605000D01*
G75*
G02*
X95010000Y-31730000I875000J0D01*
G01*
G37*
%TD.AperFunction*%
%TA.AperFunction,ComponentPad*%
G36*
G01*
X99585000Y-28980000D02*
X101585000Y-28980000D01*
G75*
G02*
X102335000Y-29730000I0J-750000D01*
G01*
X102335000Y-31230000D01*
G75*
G02*
X101585000Y-31980000I-750000J0D01*
G01*
X99585000Y-31980000D01*
G75*
G02*
X98835000Y-31230000I0J750000D01*
G01*
X98835000Y-29730000D01*
G75*
G02*
X99585000Y-28980000I750000J0D01*
G01*
G37*
%TD.AperFunction*%
D11*
X100585000Y-36480000D03*
D12*
X113107000Y-123013000D02*
X93903000Y-123013000D01*
X93903000Y-118776197D01*
X95144407Y-118776197D01*
X95203685Y-119009812D01*
X95441874Y-119120559D01*
X95697092Y-119182711D01*
X95959532Y-119193876D01*
X96219106Y-119153629D01*
X96465841Y-119063514D01*
X96566313Y-119009812D01*
X96625591Y-118776197D01*
X95884999Y-118035605D01*
X95144407Y-118776197D01*
X93903000Y-118776197D01*
X93903000Y-117930533D01*
X94547123Y-117930533D01*
X94587370Y-118190107D01*
X94677485Y-118436842D01*
X94731187Y-118537314D01*
X94964802Y-118596592D01*
X95705394Y-117856000D01*
X96064604Y-117856000D01*
X96717397Y-118508793D01*
X96849204Y-118706057D01*
X97034944Y-118891797D01*
X97253352Y-119037732D01*
X97496033Y-119138254D01*
X97753663Y-119189500D01*
X98016339Y-119189500D01*
X98273969Y-119138254D01*
X98516650Y-119037732D01*
X98735058Y-118891797D01*
X98850658Y-118776197D01*
X103399408Y-118776197D01*
X103458686Y-119009812D01*
X103696875Y-119120559D01*
X103952093Y-119182711D01*
X104214533Y-119193876D01*
X104474107Y-119153629D01*
X104720842Y-119063514D01*
X104821314Y-119009812D01*
X104880592Y-118776197D01*
X104140000Y-118035605D01*
X103399408Y-118776197D01*
X98850658Y-118776197D01*
X98920798Y-118706057D01*
X99066733Y-118487649D01*
X99167255Y-118244968D01*
X99218501Y-117987338D01*
X99218501Y-117930533D01*
X102802124Y-117930533D01*
X102842371Y-118190107D01*
X102932486Y-118436842D01*
X102986188Y-118537314D01*
X103219803Y-118596592D01*
X103960395Y-117856000D01*
X104319605Y-117856000D01*
X104972398Y-118508793D01*
X105104205Y-118706057D01*
X105289945Y-118891797D01*
X105508353Y-119037732D01*
X105751034Y-119138254D01*
X106008664Y-119189500D01*
X106271340Y-119189500D01*
X106528970Y-119138254D01*
X106771651Y-119037732D01*
X106990059Y-118891797D01*
X107175799Y-118706057D01*
X107321734Y-118487649D01*
X107422256Y-118244968D01*
X107473502Y-117987338D01*
X107473502Y-117724662D01*
X107422256Y-117467032D01*
X107321734Y-117224351D01*
X107175799Y-117005943D01*
X106990059Y-116820203D01*
X106771651Y-116674268D01*
X106528970Y-116573746D01*
X106271340Y-116522500D01*
X106008664Y-116522500D01*
X105751034Y-116573746D01*
X105508353Y-116674268D01*
X105289945Y-116820203D01*
X105104205Y-117005943D01*
X104972398Y-117203207D01*
X104319605Y-117856000D01*
X103960395Y-117856000D01*
X103219803Y-117115408D01*
X102986188Y-117174686D01*
X102875441Y-117412875D01*
X102813289Y-117668093D01*
X102802124Y-117930533D01*
X99218501Y-117930533D01*
X99218501Y-117724662D01*
X99167255Y-117467032D01*
X99066733Y-117224351D01*
X98920798Y-117005943D01*
X98850658Y-116935803D01*
X103399408Y-116935803D01*
X104140000Y-117676395D01*
X104880592Y-116935803D01*
X104821314Y-116702188D01*
X104583125Y-116591441D01*
X104327907Y-116529289D01*
X104065467Y-116518124D01*
X103805893Y-116558371D01*
X103559158Y-116648486D01*
X103458686Y-116702188D01*
X103399408Y-116935803D01*
X98850658Y-116935803D01*
X98735058Y-116820203D01*
X98516650Y-116674268D01*
X98273969Y-116573746D01*
X98016339Y-116522500D01*
X97753663Y-116522500D01*
X97496033Y-116573746D01*
X97253352Y-116674268D01*
X97034944Y-116820203D01*
X96849204Y-117005943D01*
X96717397Y-117203207D01*
X96064604Y-117856000D01*
X95705394Y-117856000D01*
X94964802Y-117115408D01*
X94731187Y-117174686D01*
X94620440Y-117412875D01*
X94558288Y-117668093D01*
X94547123Y-117930533D01*
X93903000Y-117930533D01*
X93903000Y-116935803D01*
X95144407Y-116935803D01*
X95884999Y-117676395D01*
X96625591Y-116935803D01*
X96566313Y-116702188D01*
X96328124Y-116591441D01*
X96072906Y-116529289D01*
X95810466Y-116518124D01*
X95550892Y-116558371D01*
X95304157Y-116648486D01*
X95203685Y-116702188D01*
X95144407Y-116935803D01*
X93903000Y-116935803D01*
X93903000Y-113120663D01*
X97726500Y-113120663D01*
X97726500Y-113383339D01*
X97777746Y-113640969D01*
X97878268Y-113883650D01*
X98024203Y-114102058D01*
X98209943Y-114287798D01*
X98428351Y-114433733D01*
X98671032Y-114534255D01*
X98928662Y-114585501D01*
X99191338Y-114585501D01*
X99448968Y-114534255D01*
X99691649Y-114433733D01*
X99910057Y-114287798D01*
X100095797Y-114102058D01*
X100197266Y-113950197D01*
X107209408Y-113950197D01*
X107268686Y-114183812D01*
X107506875Y-114294559D01*
X107762093Y-114356711D01*
X108024533Y-114367876D01*
X108284107Y-114327629D01*
X108530842Y-114237514D01*
X108631314Y-114183812D01*
X108690592Y-113950197D01*
X107950000Y-113209605D01*
X107209408Y-113950197D01*
X100197266Y-113950197D01*
X100241732Y-113883650D01*
X100342254Y-113640969D01*
X100393500Y-113383339D01*
X100393500Y-113120663D01*
X100390292Y-113104533D01*
X106612124Y-113104533D01*
X106652371Y-113364107D01*
X106742486Y-113610842D01*
X106796188Y-113711314D01*
X107029803Y-113770592D01*
X107770395Y-113030000D01*
X108129605Y-113030000D01*
X108870197Y-113770592D01*
X109103812Y-113711314D01*
X109214559Y-113473125D01*
X109276711Y-113217907D01*
X109287876Y-112955467D01*
X109247629Y-112695893D01*
X109157514Y-112449158D01*
X109103812Y-112348686D01*
X108870197Y-112289408D01*
X108129605Y-113030000D01*
X107770395Y-113030000D01*
X107029803Y-112289408D01*
X106796188Y-112348686D01*
X106685441Y-112586875D01*
X106623289Y-112842093D01*
X106612124Y-113104533D01*
X100390292Y-113104533D01*
X100342254Y-112863033D01*
X100241732Y-112620352D01*
X100095797Y-112401944D01*
X99910057Y-112216204D01*
X99712793Y-112084397D01*
X99060000Y-111431604D01*
X98407207Y-112084397D01*
X98209943Y-112216204D01*
X98024203Y-112401944D01*
X97878268Y-112620352D01*
X97777746Y-112863033D01*
X97726500Y-113120663D01*
X93903000Y-113120663D01*
X93903000Y-111326532D01*
X97722124Y-111326532D01*
X97762371Y-111586106D01*
X97852486Y-111832841D01*
X97906188Y-111933313D01*
X98139803Y-111992591D01*
X98880395Y-111251999D01*
X99239605Y-111251999D01*
X99980197Y-111992591D01*
X100213812Y-111933313D01*
X100324559Y-111695124D01*
X100386711Y-111439906D01*
X100397876Y-111177466D01*
X100357629Y-110917892D01*
X100350605Y-110898660D01*
X106616500Y-110898660D01*
X106616500Y-111161336D01*
X106667746Y-111418966D01*
X106768268Y-111661647D01*
X106914203Y-111880055D01*
X107099943Y-112065795D01*
X107297207Y-112197602D01*
X107950000Y-112850395D01*
X108602793Y-112197602D01*
X108800057Y-112065795D01*
X108985797Y-111880055D01*
X109131732Y-111661647D01*
X109232254Y-111418966D01*
X109283500Y-111161336D01*
X109283500Y-110898660D01*
X109232254Y-110641030D01*
X109131732Y-110398349D01*
X108985797Y-110179941D01*
X108800057Y-109994201D01*
X108581649Y-109848266D01*
X108338968Y-109747744D01*
X108081338Y-109696498D01*
X107818662Y-109696498D01*
X107561032Y-109747744D01*
X107318351Y-109848266D01*
X107099943Y-109994201D01*
X106914203Y-110179941D01*
X106768268Y-110398349D01*
X106667746Y-110641030D01*
X106616500Y-110898660D01*
X100350605Y-110898660D01*
X100267514Y-110671157D01*
X100213812Y-110570685D01*
X99980197Y-110511407D01*
X99239605Y-111251999D01*
X98880395Y-111251999D01*
X98139803Y-110511407D01*
X97906188Y-110570685D01*
X97795441Y-110808874D01*
X97733289Y-111064092D01*
X97722124Y-111326532D01*
X93903000Y-111326532D01*
X93903000Y-110331802D01*
X98319408Y-110331802D01*
X99060000Y-111072394D01*
X99800592Y-110331802D01*
X99741314Y-110098187D01*
X99503125Y-109987440D01*
X99247907Y-109925288D01*
X98985467Y-109914123D01*
X98725893Y-109954370D01*
X98479158Y-110044485D01*
X98378686Y-110098187D01*
X98319408Y-110331802D01*
X93903000Y-110331802D01*
X93903000Y-106135663D01*
X97726500Y-106135663D01*
X97726500Y-106398339D01*
X97777746Y-106655969D01*
X97878268Y-106898650D01*
X98024203Y-107117058D01*
X98209943Y-107302798D01*
X98428351Y-107448733D01*
X98671032Y-107549255D01*
X98928662Y-107600501D01*
X99191338Y-107600501D01*
X99448968Y-107549255D01*
X99691649Y-107448733D01*
X99910057Y-107302798D01*
X100095797Y-107117058D01*
X100197266Y-106965198D01*
X107209408Y-106965198D01*
X107268686Y-107198813D01*
X107506875Y-107309560D01*
X107762093Y-107371712D01*
X108024533Y-107382877D01*
X108284107Y-107342630D01*
X108530842Y-107252515D01*
X108631314Y-107198813D01*
X108690592Y-106965198D01*
X107950000Y-106224606D01*
X107209408Y-106965198D01*
X100197266Y-106965198D01*
X100241732Y-106898650D01*
X100342254Y-106655969D01*
X100393500Y-106398339D01*
X100393500Y-106135663D01*
X100390292Y-106119534D01*
X106612124Y-106119534D01*
X106652371Y-106379108D01*
X106742486Y-106625843D01*
X106796188Y-106726315D01*
X107029803Y-106785593D01*
X107770395Y-106045001D01*
X108129605Y-106045001D01*
X108870197Y-106785593D01*
X109103812Y-106726315D01*
X109214559Y-106488126D01*
X109276711Y-106232908D01*
X109287876Y-105970468D01*
X109247629Y-105710894D01*
X109157514Y-105464159D01*
X109103812Y-105363687D01*
X108870197Y-105304409D01*
X108129605Y-106045001D01*
X107770395Y-106045001D01*
X107029803Y-105304409D01*
X106796188Y-105363687D01*
X106685441Y-105601876D01*
X106623289Y-105857094D01*
X106612124Y-106119534D01*
X100390292Y-106119534D01*
X100342254Y-105878033D01*
X100241732Y-105635352D01*
X100095797Y-105416944D01*
X99910057Y-105231204D01*
X99712793Y-105099397D01*
X99060000Y-104446604D01*
X98407207Y-105099397D01*
X98209943Y-105231204D01*
X98024203Y-105416944D01*
X97878268Y-105635352D01*
X97777746Y-105878033D01*
X97726500Y-106135663D01*
X93903000Y-106135663D01*
X93903000Y-104341532D01*
X97722124Y-104341532D01*
X97762371Y-104601106D01*
X97852486Y-104847841D01*
X97906188Y-104948313D01*
X98139803Y-105007591D01*
X98880395Y-104266999D01*
X99239605Y-104266999D01*
X99980197Y-105007591D01*
X100213812Y-104948313D01*
X100324559Y-104710124D01*
X100386711Y-104454906D01*
X100397876Y-104192466D01*
X100357629Y-103932892D01*
X100350606Y-103913661D01*
X106616500Y-103913661D01*
X106616500Y-104176337D01*
X106667746Y-104433967D01*
X106768268Y-104676648D01*
X106914203Y-104895056D01*
X107099943Y-105080796D01*
X107297207Y-105212603D01*
X107950000Y-105865396D01*
X108602793Y-105212603D01*
X108800057Y-105080796D01*
X108985797Y-104895056D01*
X109131732Y-104676648D01*
X109232254Y-104433967D01*
X109283500Y-104176337D01*
X109283500Y-103913661D01*
X109232254Y-103656031D01*
X109131732Y-103413350D01*
X108985797Y-103194942D01*
X108800057Y-103009202D01*
X108581649Y-102863267D01*
X108338968Y-102762745D01*
X108081338Y-102711499D01*
X107818662Y-102711499D01*
X107561032Y-102762745D01*
X107318351Y-102863267D01*
X107099943Y-103009202D01*
X106914203Y-103194942D01*
X106768268Y-103413350D01*
X106667746Y-103656031D01*
X106616500Y-103913661D01*
X100350606Y-103913661D01*
X100267514Y-103686157D01*
X100213812Y-103585685D01*
X99980197Y-103526407D01*
X99239605Y-104266999D01*
X98880395Y-104266999D01*
X98139803Y-103526407D01*
X97906188Y-103585685D01*
X97795441Y-103823874D01*
X97733289Y-104079092D01*
X97722124Y-104341532D01*
X93903000Y-104341532D01*
X93903000Y-103346802D01*
X98319408Y-103346802D01*
X99060000Y-104087394D01*
X99800592Y-103346802D01*
X99741314Y-103113187D01*
X99503125Y-103002440D01*
X99247907Y-102940288D01*
X98985467Y-102929123D01*
X98725893Y-102969370D01*
X98479158Y-103059485D01*
X98378686Y-103113187D01*
X98319408Y-103346802D01*
X93903000Y-103346802D01*
X93903000Y-99150663D01*
X97726500Y-99150663D01*
X97726500Y-99413339D01*
X97777746Y-99670969D01*
X97878268Y-99913650D01*
X98024203Y-100132058D01*
X98209943Y-100317798D01*
X98428351Y-100463733D01*
X98671032Y-100564255D01*
X98928662Y-100615501D01*
X99191338Y-100615501D01*
X99448968Y-100564255D01*
X99691649Y-100463733D01*
X99910057Y-100317798D01*
X100095797Y-100132058D01*
X100197266Y-99980198D01*
X107209408Y-99980198D01*
X107268686Y-100213813D01*
X107506875Y-100324560D01*
X107762093Y-100386712D01*
X108024533Y-100397877D01*
X108284107Y-100357630D01*
X108530842Y-100267515D01*
X108631314Y-100213813D01*
X108690592Y-99980198D01*
X107950000Y-99239606D01*
X107209408Y-99980198D01*
X100197266Y-99980198D01*
X100241732Y-99913650D01*
X100342254Y-99670969D01*
X100393500Y-99413339D01*
X100393500Y-99150663D01*
X100390292Y-99134534D01*
X106612124Y-99134534D01*
X106652371Y-99394108D01*
X106742486Y-99640843D01*
X106796188Y-99741315D01*
X107029803Y-99800593D01*
X107770395Y-99060001D01*
X108129605Y-99060001D01*
X108870197Y-99800593D01*
X109103812Y-99741315D01*
X109214559Y-99503126D01*
X109276711Y-99247908D01*
X109287876Y-98985468D01*
X109247629Y-98725894D01*
X109157514Y-98479159D01*
X109103812Y-98378687D01*
X108870197Y-98319409D01*
X108129605Y-99060001D01*
X107770395Y-99060001D01*
X107029803Y-98319409D01*
X106796188Y-98378687D01*
X106685441Y-98616876D01*
X106623289Y-98872094D01*
X106612124Y-99134534D01*
X100390292Y-99134534D01*
X100342254Y-98893033D01*
X100241732Y-98650352D01*
X100095797Y-98431944D01*
X99910057Y-98246204D01*
X99712793Y-98114397D01*
X99060000Y-97461604D01*
X98407207Y-98114397D01*
X98209943Y-98246204D01*
X98024203Y-98431944D01*
X97878268Y-98650352D01*
X97777746Y-98893033D01*
X97726500Y-99150663D01*
X93903000Y-99150663D01*
X93903000Y-97356532D01*
X97722124Y-97356532D01*
X97762371Y-97616106D01*
X97852486Y-97862841D01*
X97906188Y-97963313D01*
X98139803Y-98022591D01*
X98880395Y-97281999D01*
X99239605Y-97281999D01*
X99980197Y-98022591D01*
X100213812Y-97963313D01*
X100324559Y-97725124D01*
X100386711Y-97469906D01*
X100397876Y-97207466D01*
X100357629Y-96947892D01*
X100350606Y-96928661D01*
X106616500Y-96928661D01*
X106616500Y-97191337D01*
X106667746Y-97448967D01*
X106768268Y-97691648D01*
X106914203Y-97910056D01*
X107099943Y-98095796D01*
X107297207Y-98227603D01*
X107950000Y-98880396D01*
X108602793Y-98227603D01*
X108800057Y-98095796D01*
X108985797Y-97910056D01*
X109131732Y-97691648D01*
X109232254Y-97448967D01*
X109283500Y-97191337D01*
X109283500Y-96928661D01*
X109232254Y-96671031D01*
X109131732Y-96428350D01*
X108985797Y-96209942D01*
X108800057Y-96024202D01*
X108581649Y-95878267D01*
X108338968Y-95777745D01*
X108081338Y-95726499D01*
X107818662Y-95726499D01*
X107561032Y-95777745D01*
X107318351Y-95878267D01*
X107099943Y-96024202D01*
X106914203Y-96209942D01*
X106768268Y-96428350D01*
X106667746Y-96671031D01*
X106616500Y-96928661D01*
X100350606Y-96928661D01*
X100267514Y-96701157D01*
X100213812Y-96600685D01*
X99980197Y-96541407D01*
X99239605Y-97281999D01*
X98880395Y-97281999D01*
X98139803Y-96541407D01*
X97906188Y-96600685D01*
X97795441Y-96838874D01*
X97733289Y-97094092D01*
X97722124Y-97356532D01*
X93903000Y-97356532D01*
X93903000Y-96361802D01*
X98319408Y-96361802D01*
X99060000Y-97102394D01*
X99800592Y-96361802D01*
X99741314Y-96128187D01*
X99503125Y-96017440D01*
X99247907Y-95955288D01*
X98985467Y-95944123D01*
X98725893Y-95984370D01*
X98479158Y-96074485D01*
X98378686Y-96128187D01*
X98319408Y-96361802D01*
X93903000Y-96361802D01*
X93903000Y-92165663D01*
X97726500Y-92165663D01*
X97726500Y-92428339D01*
X97777746Y-92685969D01*
X97878268Y-92928650D01*
X98024203Y-93147058D01*
X98209943Y-93332798D01*
X98428351Y-93478733D01*
X98671032Y-93579255D01*
X98928662Y-93630501D01*
X99191338Y-93630501D01*
X99448968Y-93579255D01*
X99691649Y-93478733D01*
X99910057Y-93332798D01*
X100095797Y-93147058D01*
X100197266Y-92995198D01*
X107209408Y-92995198D01*
X107268686Y-93228813D01*
X107506875Y-93339560D01*
X107762093Y-93401712D01*
X108024533Y-93412877D01*
X108284107Y-93372630D01*
X108530842Y-93282515D01*
X108631314Y-93228813D01*
X108690592Y-92995198D01*
X107950000Y-92254606D01*
X107209408Y-92995198D01*
X100197266Y-92995198D01*
X100241732Y-92928650D01*
X100342254Y-92685969D01*
X100393500Y-92428339D01*
X100393500Y-92165663D01*
X100390292Y-92149534D01*
X106612124Y-92149534D01*
X106652371Y-92409108D01*
X106742486Y-92655843D01*
X106796188Y-92756315D01*
X107029803Y-92815593D01*
X107770395Y-92075001D01*
X108129605Y-92075001D01*
X108870197Y-92815593D01*
X109103812Y-92756315D01*
X109214559Y-92518126D01*
X109276711Y-92262908D01*
X109287876Y-92000468D01*
X109247629Y-91740894D01*
X109157514Y-91494159D01*
X109103812Y-91393687D01*
X108870197Y-91334409D01*
X108129605Y-92075001D01*
X107770395Y-92075001D01*
X107029803Y-91334409D01*
X106796188Y-91393687D01*
X106685441Y-91631876D01*
X106623289Y-91887094D01*
X106612124Y-92149534D01*
X100390292Y-92149534D01*
X100342254Y-91908033D01*
X100241732Y-91665352D01*
X100095797Y-91446944D01*
X99910057Y-91261204D01*
X99712793Y-91129397D01*
X99060000Y-90476604D01*
X98407207Y-91129397D01*
X98209943Y-91261204D01*
X98024203Y-91446944D01*
X97878268Y-91665352D01*
X97777746Y-91908033D01*
X97726500Y-92165663D01*
X93903000Y-92165663D01*
X93903000Y-90371532D01*
X97722124Y-90371532D01*
X97762371Y-90631106D01*
X97852486Y-90877841D01*
X97906188Y-90978313D01*
X98139803Y-91037591D01*
X98880395Y-90296999D01*
X99239605Y-90296999D01*
X99980197Y-91037591D01*
X100213812Y-90978313D01*
X100324559Y-90740124D01*
X100386711Y-90484906D01*
X100397876Y-90222466D01*
X100357629Y-89962892D01*
X100350606Y-89943661D01*
X106616500Y-89943661D01*
X106616500Y-90206337D01*
X106667746Y-90463967D01*
X106768268Y-90706648D01*
X106914203Y-90925056D01*
X107099943Y-91110796D01*
X107297207Y-91242603D01*
X107950000Y-91895396D01*
X108602793Y-91242603D01*
X108800057Y-91110796D01*
X108985797Y-90925056D01*
X109131732Y-90706648D01*
X109232254Y-90463967D01*
X109283500Y-90206337D01*
X109283500Y-89943661D01*
X109232254Y-89686031D01*
X109131732Y-89443350D01*
X108985797Y-89224942D01*
X108800057Y-89039202D01*
X108581649Y-88893267D01*
X108338968Y-88792745D01*
X108081338Y-88741499D01*
X107818662Y-88741499D01*
X107561032Y-88792745D01*
X107318351Y-88893267D01*
X107099943Y-89039202D01*
X106914203Y-89224942D01*
X106768268Y-89443350D01*
X106667746Y-89686031D01*
X106616500Y-89943661D01*
X100350606Y-89943661D01*
X100267514Y-89716157D01*
X100213812Y-89615685D01*
X99980197Y-89556407D01*
X99239605Y-90296999D01*
X98880395Y-90296999D01*
X98139803Y-89556407D01*
X97906188Y-89615685D01*
X97795441Y-89853874D01*
X97733289Y-90109092D01*
X97722124Y-90371532D01*
X93903000Y-90371532D01*
X93903000Y-89376802D01*
X98319408Y-89376802D01*
X99060000Y-90117394D01*
X99800592Y-89376802D01*
X99741314Y-89143187D01*
X99503125Y-89032440D01*
X99247907Y-88970288D01*
X98985467Y-88959123D01*
X98725893Y-88999370D01*
X98479158Y-89089485D01*
X98378686Y-89143187D01*
X98319408Y-89376802D01*
X93903000Y-89376802D01*
X93903000Y-85180663D01*
X97726500Y-85180663D01*
X97726500Y-85443339D01*
X97777746Y-85700969D01*
X97878268Y-85943650D01*
X98024203Y-86162058D01*
X98209943Y-86347798D01*
X98428351Y-86493733D01*
X98671032Y-86594255D01*
X98928662Y-86645501D01*
X99191338Y-86645501D01*
X99448968Y-86594255D01*
X99691649Y-86493733D01*
X99910057Y-86347798D01*
X100095797Y-86162058D01*
X100197266Y-86010198D01*
X107209408Y-86010198D01*
X107268686Y-86243813D01*
X107506875Y-86354560D01*
X107762093Y-86416712D01*
X108024533Y-86427877D01*
X108284107Y-86387630D01*
X108530842Y-86297515D01*
X108631314Y-86243813D01*
X108690592Y-86010198D01*
X107950000Y-85269606D01*
X107209408Y-86010198D01*
X100197266Y-86010198D01*
X100241732Y-85943650D01*
X100342254Y-85700969D01*
X100393500Y-85443339D01*
X100393500Y-85180663D01*
X100390292Y-85164534D01*
X106612124Y-85164534D01*
X106652371Y-85424108D01*
X106742486Y-85670843D01*
X106796188Y-85771315D01*
X107029803Y-85830593D01*
X107770395Y-85090001D01*
X108129605Y-85090001D01*
X108870197Y-85830593D01*
X109103812Y-85771315D01*
X109214559Y-85533126D01*
X109276711Y-85277908D01*
X109287876Y-85015468D01*
X109247629Y-84755894D01*
X109157514Y-84509159D01*
X109103812Y-84408687D01*
X108870197Y-84349409D01*
X108129605Y-85090001D01*
X107770395Y-85090001D01*
X107029803Y-84349409D01*
X106796188Y-84408687D01*
X106685441Y-84646876D01*
X106623289Y-84902094D01*
X106612124Y-85164534D01*
X100390292Y-85164534D01*
X100342254Y-84923033D01*
X100241732Y-84680352D01*
X100095797Y-84461944D01*
X99910057Y-84276204D01*
X99712793Y-84144397D01*
X99060000Y-83491604D01*
X98407207Y-84144397D01*
X98209943Y-84276204D01*
X98024203Y-84461944D01*
X97878268Y-84680352D01*
X97777746Y-84923033D01*
X97726500Y-85180663D01*
X93903000Y-85180663D01*
X93903000Y-83386532D01*
X97722124Y-83386532D01*
X97762371Y-83646106D01*
X97852486Y-83892841D01*
X97906188Y-83993313D01*
X98139803Y-84052591D01*
X98880395Y-83311999D01*
X99239605Y-83311999D01*
X99980197Y-84052591D01*
X100213812Y-83993313D01*
X100324559Y-83755124D01*
X100386711Y-83499906D01*
X100397876Y-83237466D01*
X100357629Y-82977892D01*
X100350606Y-82958661D01*
X106616500Y-82958661D01*
X106616500Y-83221337D01*
X106667746Y-83478967D01*
X106768268Y-83721648D01*
X106914203Y-83940056D01*
X107099943Y-84125796D01*
X107297207Y-84257603D01*
X107950000Y-84910396D01*
X108602793Y-84257603D01*
X108800057Y-84125796D01*
X108985797Y-83940056D01*
X109131732Y-83721648D01*
X109232254Y-83478967D01*
X109283500Y-83221337D01*
X109283500Y-82958661D01*
X109232254Y-82701031D01*
X109131732Y-82458350D01*
X108985797Y-82239942D01*
X108800057Y-82054202D01*
X108581649Y-81908267D01*
X108338968Y-81807745D01*
X108081338Y-81756499D01*
X107818662Y-81756499D01*
X107561032Y-81807745D01*
X107318351Y-81908267D01*
X107099943Y-82054202D01*
X106914203Y-82239942D01*
X106768268Y-82458350D01*
X106667746Y-82701031D01*
X106616500Y-82958661D01*
X100350606Y-82958661D01*
X100267514Y-82731157D01*
X100213812Y-82630685D01*
X99980197Y-82571407D01*
X99239605Y-83311999D01*
X98880395Y-83311999D01*
X98139803Y-82571407D01*
X97906188Y-82630685D01*
X97795441Y-82868874D01*
X97733289Y-83124092D01*
X97722124Y-83386532D01*
X93903000Y-83386532D01*
X93903000Y-82391802D01*
X98319408Y-82391802D01*
X99060000Y-83132394D01*
X99800592Y-82391802D01*
X99741314Y-82158187D01*
X99503125Y-82047440D01*
X99247907Y-81985288D01*
X98985467Y-81974123D01*
X98725893Y-82014370D01*
X98479158Y-82104485D01*
X98378686Y-82158187D01*
X98319408Y-82391802D01*
X93903000Y-82391802D01*
X93903000Y-78195663D01*
X97726500Y-78195663D01*
X97726500Y-78458339D01*
X97777746Y-78715969D01*
X97878268Y-78958650D01*
X98024203Y-79177058D01*
X98209943Y-79362798D01*
X98428351Y-79508733D01*
X98671032Y-79609255D01*
X98928662Y-79660501D01*
X99191338Y-79660501D01*
X99448968Y-79609255D01*
X99691649Y-79508733D01*
X99910057Y-79362798D01*
X100095797Y-79177058D01*
X100197266Y-79025197D01*
X107209408Y-79025197D01*
X107268686Y-79258812D01*
X107506875Y-79369559D01*
X107762093Y-79431711D01*
X108024533Y-79442876D01*
X108284107Y-79402629D01*
X108530842Y-79312514D01*
X108631314Y-79258812D01*
X108690592Y-79025197D01*
X107950000Y-78284605D01*
X107209408Y-79025197D01*
X100197266Y-79025197D01*
X100241732Y-78958650D01*
X100342254Y-78715969D01*
X100393500Y-78458339D01*
X100393500Y-78195663D01*
X100390292Y-78179533D01*
X106612124Y-78179533D01*
X106652371Y-78439107D01*
X106742486Y-78685842D01*
X106796188Y-78786314D01*
X107029803Y-78845592D01*
X107770395Y-78105000D01*
X108129605Y-78105000D01*
X108870197Y-78845592D01*
X109103812Y-78786314D01*
X109214559Y-78548125D01*
X109276711Y-78292907D01*
X109287876Y-78030467D01*
X109247629Y-77770893D01*
X109157514Y-77524158D01*
X109103812Y-77423686D01*
X108870197Y-77364408D01*
X108129605Y-78105000D01*
X107770395Y-78105000D01*
X107029803Y-77364408D01*
X106796188Y-77423686D01*
X106685441Y-77661875D01*
X106623289Y-77917093D01*
X106612124Y-78179533D01*
X100390292Y-78179533D01*
X100342254Y-77938033D01*
X100241732Y-77695352D01*
X100095797Y-77476944D01*
X99910057Y-77291204D01*
X99712793Y-77159397D01*
X99060000Y-76506604D01*
X98407207Y-77159397D01*
X98209943Y-77291204D01*
X98024203Y-77476944D01*
X97878268Y-77695352D01*
X97777746Y-77938033D01*
X97726500Y-78195663D01*
X93903000Y-78195663D01*
X93903000Y-76401532D01*
X97722124Y-76401532D01*
X97762371Y-76661106D01*
X97852486Y-76907841D01*
X97906188Y-77008313D01*
X98139803Y-77067591D01*
X98880395Y-76326999D01*
X99239605Y-76326999D01*
X99980197Y-77067591D01*
X100213812Y-77008313D01*
X100324559Y-76770124D01*
X100386711Y-76514906D01*
X100397876Y-76252466D01*
X100357629Y-75992892D01*
X100350605Y-75973660D01*
X106616500Y-75973660D01*
X106616500Y-76236336D01*
X106667746Y-76493966D01*
X106768268Y-76736647D01*
X106914203Y-76955055D01*
X107099943Y-77140795D01*
X107297207Y-77272602D01*
X107950000Y-77925395D01*
X108602793Y-77272602D01*
X108800057Y-77140795D01*
X108985797Y-76955055D01*
X109131732Y-76736647D01*
X109232254Y-76493966D01*
X109283500Y-76236336D01*
X109283500Y-75973660D01*
X109232254Y-75716030D01*
X109131732Y-75473349D01*
X108985797Y-75254941D01*
X108800057Y-75069201D01*
X108581649Y-74923266D01*
X108338968Y-74822744D01*
X108081338Y-74771498D01*
X107818662Y-74771498D01*
X107561032Y-74822744D01*
X107318351Y-74923266D01*
X107099943Y-75069201D01*
X106914203Y-75254941D01*
X106768268Y-75473349D01*
X106667746Y-75716030D01*
X106616500Y-75973660D01*
X100350605Y-75973660D01*
X100267514Y-75746157D01*
X100213812Y-75645685D01*
X99980197Y-75586407D01*
X99239605Y-76326999D01*
X98880395Y-76326999D01*
X98139803Y-75586407D01*
X97906188Y-75645685D01*
X97795441Y-75883874D01*
X97733289Y-76139092D01*
X97722124Y-76401532D01*
X93903000Y-76401532D01*
X93903000Y-75406802D01*
X98319408Y-75406802D01*
X99060000Y-76147394D01*
X99800592Y-75406802D01*
X99741314Y-75173187D01*
X99503125Y-75062440D01*
X99247907Y-75000288D01*
X98985467Y-74989123D01*
X98725893Y-75029370D01*
X98479158Y-75119485D01*
X98378686Y-75173187D01*
X98319408Y-75406802D01*
X93903000Y-75406802D01*
X93903000Y-71210663D01*
X97726500Y-71210663D01*
X97726500Y-71473339D01*
X97777746Y-71730969D01*
X97878268Y-71973650D01*
X98024203Y-72192058D01*
X98209943Y-72377798D01*
X98428351Y-72523733D01*
X98671032Y-72624255D01*
X98928662Y-72675501D01*
X99191338Y-72675501D01*
X99448968Y-72624255D01*
X99691649Y-72523733D01*
X99910057Y-72377798D01*
X100095797Y-72192058D01*
X100197266Y-72040198D01*
X107209408Y-72040198D01*
X107268686Y-72273813D01*
X107506875Y-72384560D01*
X107762093Y-72446712D01*
X108024533Y-72457877D01*
X108284107Y-72417630D01*
X108530842Y-72327515D01*
X108631314Y-72273813D01*
X108690592Y-72040198D01*
X107950000Y-71299606D01*
X107209408Y-72040198D01*
X100197266Y-72040198D01*
X100241732Y-71973650D01*
X100342254Y-71730969D01*
X100393500Y-71473339D01*
X100393500Y-71210663D01*
X100390292Y-71194534D01*
X106612124Y-71194534D01*
X106652371Y-71454108D01*
X106742486Y-71700843D01*
X106796188Y-71801315D01*
X107029803Y-71860593D01*
X107770395Y-71120001D01*
X108129605Y-71120001D01*
X108870197Y-71860593D01*
X109103812Y-71801315D01*
X109214559Y-71563126D01*
X109276711Y-71307908D01*
X109287876Y-71045468D01*
X109247629Y-70785894D01*
X109157514Y-70539159D01*
X109103812Y-70438687D01*
X108870197Y-70379409D01*
X108129605Y-71120001D01*
X107770395Y-71120001D01*
X107029803Y-70379409D01*
X106796188Y-70438687D01*
X106685441Y-70676876D01*
X106623289Y-70932094D01*
X106612124Y-71194534D01*
X100390292Y-71194534D01*
X100342254Y-70953033D01*
X100241732Y-70710352D01*
X100095797Y-70491944D01*
X99910057Y-70306204D01*
X99712793Y-70174397D01*
X99060000Y-69521604D01*
X98407207Y-70174397D01*
X98209943Y-70306204D01*
X98024203Y-70491944D01*
X97878268Y-70710352D01*
X97777746Y-70953033D01*
X97726500Y-71210663D01*
X93903000Y-71210663D01*
X93903000Y-69416532D01*
X97722124Y-69416532D01*
X97762371Y-69676106D01*
X97852486Y-69922841D01*
X97906188Y-70023313D01*
X98139803Y-70082591D01*
X98880395Y-69341999D01*
X99239605Y-69341999D01*
X99980197Y-70082591D01*
X100213812Y-70023313D01*
X100324559Y-69785124D01*
X100386711Y-69529906D01*
X100397876Y-69267466D01*
X100357629Y-69007892D01*
X100350606Y-68988661D01*
X106616500Y-68988661D01*
X106616500Y-69251337D01*
X106667746Y-69508967D01*
X106768268Y-69751648D01*
X106914203Y-69970056D01*
X107099943Y-70155796D01*
X107297207Y-70287603D01*
X107950000Y-70940396D01*
X108602793Y-70287603D01*
X108800057Y-70155796D01*
X108985797Y-69970056D01*
X109131732Y-69751648D01*
X109232254Y-69508967D01*
X109283500Y-69251337D01*
X109283500Y-68988661D01*
X109232254Y-68731031D01*
X109131732Y-68488350D01*
X108985797Y-68269942D01*
X108800057Y-68084202D01*
X108581649Y-67938267D01*
X108338968Y-67837745D01*
X108081338Y-67786499D01*
X107818662Y-67786499D01*
X107561032Y-67837745D01*
X107318351Y-67938267D01*
X107099943Y-68084202D01*
X106914203Y-68269942D01*
X106768268Y-68488350D01*
X106667746Y-68731031D01*
X106616500Y-68988661D01*
X100350606Y-68988661D01*
X100267514Y-68761157D01*
X100213812Y-68660685D01*
X99980197Y-68601407D01*
X99239605Y-69341999D01*
X98880395Y-69341999D01*
X98139803Y-68601407D01*
X97906188Y-68660685D01*
X97795441Y-68898874D01*
X97733289Y-69154092D01*
X97722124Y-69416532D01*
X93903000Y-69416532D01*
X93903000Y-68421802D01*
X98319408Y-68421802D01*
X99060000Y-69162394D01*
X99800592Y-68421802D01*
X99741314Y-68188187D01*
X99503125Y-68077440D01*
X99247907Y-68015288D01*
X98985467Y-68004123D01*
X98725893Y-68044370D01*
X98479158Y-68134485D01*
X98378686Y-68188187D01*
X98319408Y-68421802D01*
X93903000Y-68421802D01*
X93903000Y-64225663D01*
X97726500Y-64225663D01*
X97726500Y-64488339D01*
X97777746Y-64745969D01*
X97878268Y-64988650D01*
X98024203Y-65207058D01*
X98209943Y-65392798D01*
X98428351Y-65538733D01*
X98671032Y-65639255D01*
X98928662Y-65690501D01*
X99191338Y-65690501D01*
X99448968Y-65639255D01*
X99691649Y-65538733D01*
X99910057Y-65392798D01*
X100095797Y-65207058D01*
X100197266Y-65055197D01*
X107209408Y-65055197D01*
X107268686Y-65288812D01*
X107506875Y-65399559D01*
X107762093Y-65461711D01*
X108024533Y-65472876D01*
X108284107Y-65432629D01*
X108530842Y-65342514D01*
X108631314Y-65288812D01*
X108690592Y-65055197D01*
X107950000Y-64314605D01*
X107209408Y-65055197D01*
X100197266Y-65055197D01*
X100241732Y-64988650D01*
X100342254Y-64745969D01*
X100393500Y-64488339D01*
X100393500Y-64225663D01*
X100390292Y-64209533D01*
X106612124Y-64209533D01*
X106652371Y-64469107D01*
X106742486Y-64715842D01*
X106796188Y-64816314D01*
X107029803Y-64875592D01*
X107770395Y-64135000D01*
X108129605Y-64135000D01*
X108870197Y-64875592D01*
X109103812Y-64816314D01*
X109214559Y-64578125D01*
X109276711Y-64322907D01*
X109287876Y-64060467D01*
X109247629Y-63800893D01*
X109157514Y-63554158D01*
X109103812Y-63453686D01*
X108870197Y-63394408D01*
X108129605Y-64135000D01*
X107770395Y-64135000D01*
X107029803Y-63394408D01*
X106796188Y-63453686D01*
X106685441Y-63691875D01*
X106623289Y-63947093D01*
X106612124Y-64209533D01*
X100390292Y-64209533D01*
X100342254Y-63968033D01*
X100241732Y-63725352D01*
X100095797Y-63506944D01*
X99910057Y-63321204D01*
X99712793Y-63189397D01*
X99060000Y-62536604D01*
X98407207Y-63189397D01*
X98209943Y-63321204D01*
X98024203Y-63506944D01*
X97878268Y-63725352D01*
X97777746Y-63968033D01*
X97726500Y-64225663D01*
X93903000Y-64225663D01*
X93903000Y-62431532D01*
X97722124Y-62431532D01*
X97762371Y-62691106D01*
X97852486Y-62937841D01*
X97906188Y-63038313D01*
X98139803Y-63097591D01*
X98880395Y-62356999D01*
X99239605Y-62356999D01*
X99980197Y-63097591D01*
X100213812Y-63038313D01*
X100324559Y-62800124D01*
X100386711Y-62544906D01*
X100397876Y-62282466D01*
X100357629Y-62022892D01*
X100350605Y-62003660D01*
X106616500Y-62003660D01*
X106616500Y-62266336D01*
X106667746Y-62523966D01*
X106768268Y-62766647D01*
X106914203Y-62985055D01*
X107099943Y-63170795D01*
X107297207Y-63302602D01*
X107950000Y-63955395D01*
X108602793Y-63302602D01*
X108800057Y-63170795D01*
X108985797Y-62985055D01*
X109131732Y-62766647D01*
X109232254Y-62523966D01*
X109283500Y-62266336D01*
X109283500Y-62003660D01*
X109232254Y-61746030D01*
X109131732Y-61503349D01*
X108985797Y-61284941D01*
X108800057Y-61099201D01*
X108581649Y-60953266D01*
X108338968Y-60852744D01*
X108081338Y-60801498D01*
X107818662Y-60801498D01*
X107561032Y-60852744D01*
X107318351Y-60953266D01*
X107099943Y-61099201D01*
X106914203Y-61284941D01*
X106768268Y-61503349D01*
X106667746Y-61746030D01*
X106616500Y-62003660D01*
X100350605Y-62003660D01*
X100267514Y-61776157D01*
X100213812Y-61675685D01*
X99980197Y-61616407D01*
X99239605Y-62356999D01*
X98880395Y-62356999D01*
X98139803Y-61616407D01*
X97906188Y-61675685D01*
X97795441Y-61913874D01*
X97733289Y-62169092D01*
X97722124Y-62431532D01*
X93903000Y-62431532D01*
X93903000Y-61436802D01*
X98319408Y-61436802D01*
X99060000Y-62177394D01*
X99800592Y-61436802D01*
X99741314Y-61203187D01*
X99503125Y-61092440D01*
X99247907Y-61030288D01*
X98985467Y-61019123D01*
X98725893Y-61059370D01*
X98479158Y-61149485D01*
X98378686Y-61203187D01*
X98319408Y-61436802D01*
X93903000Y-61436802D01*
X93903000Y-57240664D01*
X97726500Y-57240664D01*
X97726500Y-57503340D01*
X97777746Y-57760970D01*
X97878268Y-58003651D01*
X98024203Y-58222059D01*
X98209943Y-58407799D01*
X98428351Y-58553734D01*
X98671032Y-58654256D01*
X98928662Y-58705502D01*
X99191338Y-58705502D01*
X99448968Y-58654256D01*
X99691649Y-58553734D01*
X99910057Y-58407799D01*
X100095797Y-58222059D01*
X100197266Y-58070198D01*
X107209408Y-58070198D01*
X107268686Y-58303813D01*
X107506875Y-58414560D01*
X107762093Y-58476712D01*
X108024533Y-58487877D01*
X108284107Y-58447630D01*
X108530842Y-58357515D01*
X108631314Y-58303813D01*
X108690592Y-58070198D01*
X107950000Y-57329606D01*
X107209408Y-58070198D01*
X100197266Y-58070198D01*
X100241732Y-58003651D01*
X100342254Y-57760970D01*
X100393500Y-57503340D01*
X100393500Y-57240664D01*
X100390292Y-57224534D01*
X106612124Y-57224534D01*
X106652371Y-57484108D01*
X106742486Y-57730843D01*
X106796188Y-57831315D01*
X107029803Y-57890593D01*
X107770395Y-57150001D01*
X108129605Y-57150001D01*
X108870197Y-57890593D01*
X109103812Y-57831315D01*
X109214559Y-57593126D01*
X109276711Y-57337908D01*
X109287876Y-57075468D01*
X109247629Y-56815894D01*
X109157514Y-56569159D01*
X109103812Y-56468687D01*
X108870197Y-56409409D01*
X108129605Y-57150001D01*
X107770395Y-57150001D01*
X107029803Y-56409409D01*
X106796188Y-56468687D01*
X106685441Y-56706876D01*
X106623289Y-56962094D01*
X106612124Y-57224534D01*
X100390292Y-57224534D01*
X100342254Y-56983034D01*
X100241732Y-56740353D01*
X100095797Y-56521945D01*
X99910057Y-56336205D01*
X99712793Y-56204398D01*
X99060000Y-55551605D01*
X98407207Y-56204398D01*
X98209943Y-56336205D01*
X98024203Y-56521945D01*
X97878268Y-56740353D01*
X97777746Y-56983034D01*
X97726500Y-57240664D01*
X93903000Y-57240664D01*
X93903000Y-55446533D01*
X97722124Y-55446533D01*
X97762371Y-55706107D01*
X97852486Y-55952842D01*
X97906188Y-56053314D01*
X98139803Y-56112592D01*
X98880395Y-55372000D01*
X99239605Y-55372000D01*
X99980197Y-56112592D01*
X100213812Y-56053314D01*
X100324559Y-55815125D01*
X100386711Y-55559907D01*
X100397876Y-55297467D01*
X100357629Y-55037893D01*
X100350605Y-55018661D01*
X106616500Y-55018661D01*
X106616500Y-55281337D01*
X106667746Y-55538967D01*
X106768268Y-55781648D01*
X106914203Y-56000056D01*
X107099943Y-56185796D01*
X107297207Y-56317603D01*
X107950000Y-56970396D01*
X108602793Y-56317603D01*
X108800057Y-56185796D01*
X108985797Y-56000056D01*
X109131732Y-55781648D01*
X109232254Y-55538967D01*
X109283500Y-55281337D01*
X109283500Y-55018661D01*
X109232254Y-54761031D01*
X109131732Y-54518350D01*
X108985797Y-54299942D01*
X108800057Y-54114202D01*
X108581649Y-53968267D01*
X108338968Y-53867745D01*
X108081338Y-53816499D01*
X107818662Y-53816499D01*
X107561032Y-53867745D01*
X107318351Y-53968267D01*
X107099943Y-54114202D01*
X106914203Y-54299942D01*
X106768268Y-54518350D01*
X106667746Y-54761031D01*
X106616500Y-55018661D01*
X100350605Y-55018661D01*
X100267514Y-54791158D01*
X100213812Y-54690686D01*
X99980197Y-54631408D01*
X99239605Y-55372000D01*
X98880395Y-55372000D01*
X98139803Y-54631408D01*
X97906188Y-54690686D01*
X97795441Y-54928875D01*
X97733289Y-55184093D01*
X97722124Y-55446533D01*
X93903000Y-55446533D01*
X93903000Y-54451803D01*
X98319408Y-54451803D01*
X99060000Y-55192395D01*
X99800592Y-54451803D01*
X99741314Y-54218188D01*
X99503125Y-54107441D01*
X99247907Y-54045289D01*
X98985467Y-54034124D01*
X98725893Y-54074371D01*
X98479158Y-54164486D01*
X98378686Y-54218188D01*
X98319408Y-54451803D01*
X93903000Y-54451803D01*
X93903000Y-50255663D01*
X97726500Y-50255663D01*
X97726500Y-50518339D01*
X97777746Y-50775969D01*
X97878268Y-51018650D01*
X98024203Y-51237058D01*
X98209943Y-51422798D01*
X98428351Y-51568733D01*
X98671032Y-51669255D01*
X98928662Y-51720501D01*
X99191338Y-51720501D01*
X99448968Y-51669255D01*
X99691649Y-51568733D01*
X99910057Y-51422798D01*
X100095797Y-51237058D01*
X100197266Y-51085197D01*
X107209408Y-51085197D01*
X107268686Y-51318812D01*
X107506875Y-51429559D01*
X107762093Y-51491711D01*
X108024533Y-51502876D01*
X108284107Y-51462629D01*
X108530842Y-51372514D01*
X108631314Y-51318812D01*
X108690592Y-51085197D01*
X107950000Y-50344605D01*
X107209408Y-51085197D01*
X100197266Y-51085197D01*
X100241732Y-51018650D01*
X100342254Y-50775969D01*
X100393500Y-50518339D01*
X100393500Y-50255663D01*
X100390292Y-50239533D01*
X106612124Y-50239533D01*
X106652371Y-50499107D01*
X106742486Y-50745842D01*
X106796188Y-50846314D01*
X107029803Y-50905592D01*
X107770395Y-50165000D01*
X108129605Y-50165000D01*
X108870197Y-50905592D01*
X109103812Y-50846314D01*
X109214559Y-50608125D01*
X109276711Y-50352907D01*
X109287876Y-50090467D01*
X109247629Y-49830893D01*
X109157514Y-49584158D01*
X109103812Y-49483686D01*
X108870197Y-49424408D01*
X108129605Y-50165000D01*
X107770395Y-50165000D01*
X107029803Y-49424408D01*
X106796188Y-49483686D01*
X106685441Y-49721875D01*
X106623289Y-49977093D01*
X106612124Y-50239533D01*
X100390292Y-50239533D01*
X100342254Y-49998033D01*
X100241732Y-49755352D01*
X100095797Y-49536944D01*
X99910057Y-49351204D01*
X99712793Y-49219397D01*
X99060000Y-48566604D01*
X98407207Y-49219397D01*
X98209943Y-49351204D01*
X98024203Y-49536944D01*
X97878268Y-49755352D01*
X97777746Y-49998033D01*
X97726500Y-50255663D01*
X93903000Y-50255663D01*
X93903000Y-48461532D01*
X97722124Y-48461532D01*
X97762371Y-48721106D01*
X97852486Y-48967841D01*
X97906188Y-49068313D01*
X98139803Y-49127591D01*
X98880395Y-48386999D01*
X99239605Y-48386999D01*
X99980197Y-49127591D01*
X100213812Y-49068313D01*
X100324559Y-48830124D01*
X100386711Y-48574906D01*
X100397876Y-48312466D01*
X100357629Y-48052892D01*
X100350605Y-48033660D01*
X106616500Y-48033660D01*
X106616500Y-48296336D01*
X106667746Y-48553966D01*
X106768268Y-48796647D01*
X106914203Y-49015055D01*
X107099943Y-49200795D01*
X107297207Y-49332602D01*
X107950000Y-49985395D01*
X108602793Y-49332602D01*
X108800057Y-49200795D01*
X108985797Y-49015055D01*
X109131732Y-48796647D01*
X109232254Y-48553966D01*
X109283500Y-48296336D01*
X109283500Y-48033660D01*
X109232254Y-47776030D01*
X109131732Y-47533349D01*
X108985797Y-47314941D01*
X108800057Y-47129201D01*
X108581649Y-46983266D01*
X108338968Y-46882744D01*
X108081338Y-46831498D01*
X107818662Y-46831498D01*
X107561032Y-46882744D01*
X107318351Y-46983266D01*
X107099943Y-47129201D01*
X106914203Y-47314941D01*
X106768268Y-47533349D01*
X106667746Y-47776030D01*
X106616500Y-48033660D01*
X100350605Y-48033660D01*
X100267514Y-47806157D01*
X100213812Y-47705685D01*
X99980197Y-47646407D01*
X99239605Y-48386999D01*
X98880395Y-48386999D01*
X98139803Y-47646407D01*
X97906188Y-47705685D01*
X97795441Y-47943874D01*
X97733289Y-48199092D01*
X97722124Y-48461532D01*
X93903000Y-48461532D01*
X93903000Y-47466802D01*
X98319408Y-47466802D01*
X99060000Y-48207394D01*
X99800592Y-47466802D01*
X99741314Y-47233187D01*
X99503125Y-47122440D01*
X99247907Y-47060288D01*
X98985467Y-47049123D01*
X98725893Y-47089370D01*
X98479158Y-47179485D01*
X98378686Y-47233187D01*
X98319408Y-47466802D01*
X93903000Y-47466802D01*
X93903000Y-43270664D01*
X97726500Y-43270664D01*
X97726500Y-43533340D01*
X97777746Y-43790970D01*
X97878268Y-44033651D01*
X98024203Y-44252059D01*
X98209943Y-44437799D01*
X98428351Y-44583734D01*
X98671032Y-44684256D01*
X98928662Y-44735502D01*
X99191338Y-44735502D01*
X99448968Y-44684256D01*
X99691649Y-44583734D01*
X99910057Y-44437799D01*
X100095797Y-44252059D01*
X100197266Y-44100198D01*
X107209408Y-44100198D01*
X107268686Y-44333813D01*
X107506875Y-44444560D01*
X107762093Y-44506712D01*
X108024533Y-44517877D01*
X108284107Y-44477630D01*
X108530842Y-44387515D01*
X108631314Y-44333813D01*
X108690592Y-44100198D01*
X107950000Y-43359606D01*
X107209408Y-44100198D01*
X100197266Y-44100198D01*
X100241732Y-44033651D01*
X100342254Y-43790970D01*
X100393500Y-43533340D01*
X100393500Y-43270664D01*
X100390292Y-43254534D01*
X106612124Y-43254534D01*
X106652371Y-43514108D01*
X106742486Y-43760843D01*
X106796188Y-43861315D01*
X107029803Y-43920593D01*
X107770395Y-43180001D01*
X108129605Y-43180001D01*
X108870197Y-43920593D01*
X109103812Y-43861315D01*
X109214559Y-43623126D01*
X109276711Y-43367908D01*
X109287876Y-43105468D01*
X109247629Y-42845894D01*
X109157514Y-42599159D01*
X109103812Y-42498687D01*
X108870197Y-42439409D01*
X108129605Y-43180001D01*
X107770395Y-43180001D01*
X107029803Y-42439409D01*
X106796188Y-42498687D01*
X106685441Y-42736876D01*
X106623289Y-42992094D01*
X106612124Y-43254534D01*
X100390292Y-43254534D01*
X100342254Y-43013034D01*
X100241732Y-42770353D01*
X100095797Y-42551945D01*
X99910057Y-42366205D01*
X99712793Y-42234398D01*
X99060000Y-41581605D01*
X98407207Y-42234398D01*
X98209943Y-42366205D01*
X98024203Y-42551945D01*
X97878268Y-42770353D01*
X97777746Y-43013034D01*
X97726500Y-43270664D01*
X93903000Y-43270664D01*
X93903000Y-41476533D01*
X97722124Y-41476533D01*
X97762371Y-41736107D01*
X97852486Y-41982842D01*
X97906188Y-42083314D01*
X98139803Y-42142592D01*
X98880395Y-41402000D01*
X99239605Y-41402000D01*
X99980197Y-42142592D01*
X100213812Y-42083314D01*
X100324559Y-41845125D01*
X100386711Y-41589907D01*
X100397876Y-41327467D01*
X100357629Y-41067893D01*
X100350605Y-41048661D01*
X106616500Y-41048661D01*
X106616500Y-41311337D01*
X106667746Y-41568967D01*
X106768268Y-41811648D01*
X106914203Y-42030056D01*
X107099943Y-42215796D01*
X107297207Y-42347603D01*
X107950000Y-43000396D01*
X108602793Y-42347603D01*
X108800057Y-42215796D01*
X108985797Y-42030056D01*
X109131732Y-41811648D01*
X109232254Y-41568967D01*
X109283500Y-41311337D01*
X109283500Y-41048661D01*
X109232254Y-40791031D01*
X109131732Y-40548350D01*
X108985797Y-40329942D01*
X108800057Y-40144202D01*
X108581649Y-39998267D01*
X108338968Y-39897745D01*
X108081338Y-39846499D01*
X107818662Y-39846499D01*
X107561032Y-39897745D01*
X107318351Y-39998267D01*
X107099943Y-40144202D01*
X106914203Y-40329942D01*
X106768268Y-40548350D01*
X106667746Y-40791031D01*
X106616500Y-41048661D01*
X100350605Y-41048661D01*
X100267514Y-40821158D01*
X100213812Y-40720686D01*
X99980197Y-40661408D01*
X99239605Y-41402000D01*
X98880395Y-41402000D01*
X98139803Y-40661408D01*
X97906188Y-40720686D01*
X97795441Y-40958875D01*
X97733289Y-41214093D01*
X97722124Y-41476533D01*
X93903000Y-41476533D01*
X93903000Y-40481803D01*
X98319408Y-40481803D01*
X99060000Y-41222395D01*
X99800592Y-40481803D01*
X99741314Y-40248188D01*
X99503125Y-40137441D01*
X99247907Y-40075289D01*
X98985467Y-40064124D01*
X98725893Y-40104371D01*
X98479158Y-40194486D01*
X98378686Y-40248188D01*
X98319408Y-40481803D01*
X93903000Y-40481803D01*
X93903000Y-38230000D01*
X98196928Y-38230000D01*
X98209188Y-38354482D01*
X98245498Y-38474180D01*
X98304463Y-38584494D01*
X98383815Y-38681185D01*
X98480506Y-38760537D01*
X98590820Y-38819502D01*
X98710518Y-38855812D01*
X98835000Y-38868072D01*
X100299250Y-38865000D01*
X100458000Y-38706250D01*
X100458000Y-36607000D01*
X100712000Y-36607000D01*
X100712000Y-38706250D01*
X100870750Y-38865000D01*
X102335000Y-38868072D01*
X102459482Y-38855812D01*
X102579180Y-38819502D01*
X102689494Y-38760537D01*
X102786185Y-38681185D01*
X102865537Y-38584494D01*
X102924502Y-38474180D01*
X102960812Y-38354482D01*
X102973072Y-38230000D01*
X102970734Y-37115198D01*
X107209408Y-37115198D01*
X107268686Y-37348813D01*
X107506875Y-37459560D01*
X107762093Y-37521712D01*
X108024533Y-37532877D01*
X108284107Y-37492630D01*
X108530842Y-37402515D01*
X108631314Y-37348813D01*
X108690592Y-37115198D01*
X107950000Y-36374606D01*
X107209408Y-37115198D01*
X102970734Y-37115198D01*
X102970000Y-36765750D01*
X102811250Y-36607000D01*
X100712000Y-36607000D01*
X100458000Y-36607000D01*
X98358750Y-36607000D01*
X98200000Y-36765750D01*
X98196928Y-38230000D01*
X93903000Y-38230000D01*
X93903000Y-35379700D01*
X93940097Y-35424903D01*
X94169382Y-35613073D01*
X94430972Y-35752896D01*
X94714814Y-35838999D01*
X95010000Y-35868072D01*
X96760000Y-35868072D01*
X97055186Y-35838999D01*
X97339028Y-35752896D01*
X97600618Y-35613073D01*
X97829903Y-35424903D01*
X98018073Y-35195618D01*
X98157896Y-34934028D01*
X98197085Y-34804840D01*
X98200000Y-36194250D01*
X98358750Y-36353000D01*
X100458000Y-36353000D01*
X100458000Y-34253750D01*
X100712000Y-34253750D01*
X100712000Y-36353000D01*
X102811250Y-36353000D01*
X102894716Y-36269534D01*
X106612124Y-36269534D01*
X106652371Y-36529108D01*
X106742486Y-36775843D01*
X106796188Y-36876315D01*
X107029803Y-36935593D01*
X107770395Y-36195001D01*
X108129605Y-36195001D01*
X108870197Y-36935593D01*
X109103812Y-36876315D01*
X109214559Y-36638126D01*
X109276711Y-36382908D01*
X109287876Y-36120468D01*
X109247629Y-35860894D01*
X109157514Y-35614159D01*
X109103812Y-35513687D01*
X108870197Y-35454409D01*
X108129605Y-36195001D01*
X107770395Y-36195001D01*
X107029803Y-35454409D01*
X106796188Y-35513687D01*
X106685441Y-35751876D01*
X106623289Y-36007094D01*
X106612124Y-36269534D01*
X102894716Y-36269534D01*
X102970000Y-36194250D01*
X102973072Y-34730000D01*
X102960812Y-34605518D01*
X102924502Y-34485820D01*
X102865537Y-34375506D01*
X102786185Y-34278815D01*
X102689494Y-34199463D01*
X102579180Y-34140498D01*
X102459482Y-34104188D01*
X102335000Y-34091928D01*
X100870750Y-34095000D01*
X100712000Y-34253750D01*
X100458000Y-34253750D01*
X100299250Y-34095000D01*
X98835000Y-34091928D01*
X98710518Y-34104188D01*
X98590820Y-34140498D01*
X98480506Y-34199463D01*
X98383815Y-34278815D01*
X98304463Y-34375506D01*
X98263506Y-34452131D01*
X98273072Y-34355000D01*
X98273072Y-34063661D01*
X106616500Y-34063661D01*
X106616500Y-34326337D01*
X106667746Y-34583967D01*
X106768268Y-34826648D01*
X106914203Y-35045056D01*
X107099943Y-35230796D01*
X107297207Y-35362603D01*
X107950000Y-36015396D01*
X108602793Y-35362603D01*
X108800057Y-35230796D01*
X108985797Y-35045056D01*
X109131732Y-34826648D01*
X109232254Y-34583967D01*
X109283500Y-34326337D01*
X109283500Y-34063661D01*
X109232254Y-33806031D01*
X109131732Y-33563350D01*
X108985797Y-33344942D01*
X108800057Y-33159202D01*
X108581649Y-33013267D01*
X108338968Y-32912745D01*
X108081338Y-32861499D01*
X107818662Y-32861499D01*
X107561032Y-32912745D01*
X107318351Y-33013267D01*
X107099943Y-33159202D01*
X106914203Y-33344942D01*
X106768268Y-33563350D01*
X106667746Y-33806031D01*
X106616500Y-34063661D01*
X98273072Y-34063661D01*
X98273072Y-32605000D01*
X98243999Y-32309814D01*
X98157896Y-32025972D01*
X98018073Y-31764382D01*
X97829903Y-31535097D01*
X97600618Y-31346927D01*
X97339028Y-31207104D01*
X97055186Y-31121001D01*
X96760000Y-31091928D01*
X95010000Y-31091928D01*
X94714814Y-31121001D01*
X94430972Y-31207104D01*
X94169382Y-31346927D01*
X93940097Y-31535097D01*
X93903000Y-31580300D01*
X93903000Y-29730000D01*
X98196928Y-29730000D01*
X98196928Y-31230000D01*
X98223599Y-31500799D01*
X98302589Y-31761192D01*
X98430860Y-32001171D01*
X98603485Y-32211515D01*
X98813829Y-32384140D01*
X99053808Y-32512411D01*
X99314201Y-32591401D01*
X99585000Y-32618072D01*
X101585000Y-32618072D01*
X101855799Y-32591401D01*
X102116192Y-32512411D01*
X102356171Y-32384140D01*
X102566515Y-32211515D01*
X102739140Y-32001171D01*
X102867411Y-31761192D01*
X102946401Y-31500799D01*
X102973072Y-31230000D01*
X102973072Y-30130198D01*
X107209408Y-30130198D01*
X107268686Y-30363813D01*
X107506875Y-30474560D01*
X107762093Y-30536712D01*
X108024533Y-30547877D01*
X108284107Y-30507630D01*
X108530842Y-30417515D01*
X108631314Y-30363813D01*
X108690592Y-30130198D01*
X107950000Y-29389606D01*
X107209408Y-30130198D01*
X102973072Y-30130198D01*
X102973072Y-29730000D01*
X102946401Y-29459201D01*
X102893416Y-29284534D01*
X106612124Y-29284534D01*
X106652371Y-29544108D01*
X106742486Y-29790843D01*
X106796188Y-29891315D01*
X107029803Y-29950593D01*
X107770395Y-29210001D01*
X108129605Y-29210001D01*
X108870197Y-29950593D01*
X109103812Y-29891315D01*
X109214559Y-29653126D01*
X109276711Y-29397908D01*
X109287876Y-29135468D01*
X109247629Y-28875894D01*
X109157514Y-28629159D01*
X109103812Y-28528687D01*
X108870197Y-28469409D01*
X108129605Y-29210001D01*
X107770395Y-29210001D01*
X107029803Y-28469409D01*
X106796188Y-28528687D01*
X106685441Y-28766876D01*
X106623289Y-29022094D01*
X106612124Y-29284534D01*
X102893416Y-29284534D01*
X102867411Y-29198808D01*
X102739140Y-28958829D01*
X102566515Y-28748485D01*
X102356171Y-28575860D01*
X102116192Y-28447589D01*
X101855799Y-28368599D01*
X101585000Y-28341928D01*
X99585000Y-28341928D01*
X99314201Y-28368599D01*
X99053808Y-28447589D01*
X98813829Y-28575860D01*
X98603485Y-28748485D01*
X98430860Y-28958829D01*
X98302589Y-29198808D01*
X98223599Y-29459201D01*
X98196928Y-29730000D01*
X93903000Y-29730000D01*
X93903000Y-27078661D01*
X106616500Y-27078661D01*
X106616500Y-27341337D01*
X106667746Y-27598967D01*
X106768268Y-27841648D01*
X106914203Y-28060056D01*
X107099943Y-28245796D01*
X107297207Y-28377603D01*
X107950000Y-29030396D01*
X108602793Y-28377603D01*
X108800057Y-28245796D01*
X108985797Y-28060056D01*
X109131732Y-27841648D01*
X109232254Y-27598967D01*
X109283500Y-27341337D01*
X109283500Y-27078661D01*
X109232254Y-26821031D01*
X109131732Y-26578350D01*
X108985797Y-26359942D01*
X108800057Y-26174202D01*
X108581649Y-26028267D01*
X108338968Y-25927745D01*
X108081338Y-25876499D01*
X107818662Y-25876499D01*
X107561032Y-25927745D01*
X107318351Y-26028267D01*
X107099943Y-26174202D01*
X106914203Y-26359942D01*
X106768268Y-26578350D01*
X106667746Y-26821031D01*
X106616500Y-27078661D01*
X93903000Y-27078661D01*
X93903000Y-25323000D01*
X113107001Y-25323000D01*
X113107000Y-123013000D01*
%TA.AperFunction,Conductor*%
D13*
G36*
X113107000Y-123013000D02*
G01*
X93903000Y-123013000D01*
X93903000Y-118776197D01*
X95144407Y-118776197D01*
X95203685Y-119009812D01*
X95441874Y-119120559D01*
X95697092Y-119182711D01*
X95959532Y-119193876D01*
X96219106Y-119153629D01*
X96465841Y-119063514D01*
X96566313Y-119009812D01*
X96625591Y-118776197D01*
X95884999Y-118035605D01*
X95144407Y-118776197D01*
X93903000Y-118776197D01*
X93903000Y-117930533D01*
X94547123Y-117930533D01*
X94587370Y-118190107D01*
X94677485Y-118436842D01*
X94731187Y-118537314D01*
X94964802Y-118596592D01*
X95705394Y-117856000D01*
X96064604Y-117856000D01*
X96717397Y-118508793D01*
X96849204Y-118706057D01*
X97034944Y-118891797D01*
X97253352Y-119037732D01*
X97496033Y-119138254D01*
X97753663Y-119189500D01*
X98016339Y-119189500D01*
X98273969Y-119138254D01*
X98516650Y-119037732D01*
X98735058Y-118891797D01*
X98850658Y-118776197D01*
X103399408Y-118776197D01*
X103458686Y-119009812D01*
X103696875Y-119120559D01*
X103952093Y-119182711D01*
X104214533Y-119193876D01*
X104474107Y-119153629D01*
X104720842Y-119063514D01*
X104821314Y-119009812D01*
X104880592Y-118776197D01*
X104140000Y-118035605D01*
X103399408Y-118776197D01*
X98850658Y-118776197D01*
X98920798Y-118706057D01*
X99066733Y-118487649D01*
X99167255Y-118244968D01*
X99218501Y-117987338D01*
X99218501Y-117930533D01*
X102802124Y-117930533D01*
X102842371Y-118190107D01*
X102932486Y-118436842D01*
X102986188Y-118537314D01*
X103219803Y-118596592D01*
X103960395Y-117856000D01*
X104319605Y-117856000D01*
X104972398Y-118508793D01*
X105104205Y-118706057D01*
X105289945Y-118891797D01*
X105508353Y-119037732D01*
X105751034Y-119138254D01*
X106008664Y-119189500D01*
X106271340Y-119189500D01*
X106528970Y-119138254D01*
X106771651Y-119037732D01*
X106990059Y-118891797D01*
X107175799Y-118706057D01*
X107321734Y-118487649D01*
X107422256Y-118244968D01*
X107473502Y-117987338D01*
X107473502Y-117724662D01*
X107422256Y-117467032D01*
X107321734Y-117224351D01*
X107175799Y-117005943D01*
X106990059Y-116820203D01*
X106771651Y-116674268D01*
X106528970Y-116573746D01*
X106271340Y-116522500D01*
X106008664Y-116522500D01*
X105751034Y-116573746D01*
X105508353Y-116674268D01*
X105289945Y-116820203D01*
X105104205Y-117005943D01*
X104972398Y-117203207D01*
X104319605Y-117856000D01*
X103960395Y-117856000D01*
X103219803Y-117115408D01*
X102986188Y-117174686D01*
X102875441Y-117412875D01*
X102813289Y-117668093D01*
X102802124Y-117930533D01*
X99218501Y-117930533D01*
X99218501Y-117724662D01*
X99167255Y-117467032D01*
X99066733Y-117224351D01*
X98920798Y-117005943D01*
X98850658Y-116935803D01*
X103399408Y-116935803D01*
X104140000Y-117676395D01*
X104880592Y-116935803D01*
X104821314Y-116702188D01*
X104583125Y-116591441D01*
X104327907Y-116529289D01*
X104065467Y-116518124D01*
X103805893Y-116558371D01*
X103559158Y-116648486D01*
X103458686Y-116702188D01*
X103399408Y-116935803D01*
X98850658Y-116935803D01*
X98735058Y-116820203D01*
X98516650Y-116674268D01*
X98273969Y-116573746D01*
X98016339Y-116522500D01*
X97753663Y-116522500D01*
X97496033Y-116573746D01*
X97253352Y-116674268D01*
X97034944Y-116820203D01*
X96849204Y-117005943D01*
X96717397Y-117203207D01*
X96064604Y-117856000D01*
X95705394Y-117856000D01*
X94964802Y-117115408D01*
X94731187Y-117174686D01*
X94620440Y-117412875D01*
X94558288Y-117668093D01*
X94547123Y-117930533D01*
X93903000Y-117930533D01*
X93903000Y-116935803D01*
X95144407Y-116935803D01*
X95884999Y-117676395D01*
X96625591Y-116935803D01*
X96566313Y-116702188D01*
X96328124Y-116591441D01*
X96072906Y-116529289D01*
X95810466Y-116518124D01*
X95550892Y-116558371D01*
X95304157Y-116648486D01*
X95203685Y-116702188D01*
X95144407Y-116935803D01*
X93903000Y-116935803D01*
X93903000Y-113120663D01*
X97726500Y-113120663D01*
X97726500Y-113383339D01*
X97777746Y-113640969D01*
X97878268Y-113883650D01*
X98024203Y-114102058D01*
X98209943Y-114287798D01*
X98428351Y-114433733D01*
X98671032Y-114534255D01*
X98928662Y-114585501D01*
X99191338Y-114585501D01*
X99448968Y-114534255D01*
X99691649Y-114433733D01*
X99910057Y-114287798D01*
X100095797Y-114102058D01*
X100197266Y-113950197D01*
X107209408Y-113950197D01*
X107268686Y-114183812D01*
X107506875Y-114294559D01*
X107762093Y-114356711D01*
X108024533Y-114367876D01*
X108284107Y-114327629D01*
X108530842Y-114237514D01*
X108631314Y-114183812D01*
X108690592Y-113950197D01*
X107950000Y-113209605D01*
X107209408Y-113950197D01*
X100197266Y-113950197D01*
X100241732Y-113883650D01*
X100342254Y-113640969D01*
X100393500Y-113383339D01*
X100393500Y-113120663D01*
X100390292Y-113104533D01*
X106612124Y-113104533D01*
X106652371Y-113364107D01*
X106742486Y-113610842D01*
X106796188Y-113711314D01*
X107029803Y-113770592D01*
X107770395Y-113030000D01*
X108129605Y-113030000D01*
X108870197Y-113770592D01*
X109103812Y-113711314D01*
X109214559Y-113473125D01*
X109276711Y-113217907D01*
X109287876Y-112955467D01*
X109247629Y-112695893D01*
X109157514Y-112449158D01*
X109103812Y-112348686D01*
X108870197Y-112289408D01*
X108129605Y-113030000D01*
X107770395Y-113030000D01*
X107029803Y-112289408D01*
X106796188Y-112348686D01*
X106685441Y-112586875D01*
X106623289Y-112842093D01*
X106612124Y-113104533D01*
X100390292Y-113104533D01*
X100342254Y-112863033D01*
X100241732Y-112620352D01*
X100095797Y-112401944D01*
X99910057Y-112216204D01*
X99712793Y-112084397D01*
X99060000Y-111431604D01*
X98407207Y-112084397D01*
X98209943Y-112216204D01*
X98024203Y-112401944D01*
X97878268Y-112620352D01*
X97777746Y-112863033D01*
X97726500Y-113120663D01*
X93903000Y-113120663D01*
X93903000Y-111326532D01*
X97722124Y-111326532D01*
X97762371Y-111586106D01*
X97852486Y-111832841D01*
X97906188Y-111933313D01*
X98139803Y-111992591D01*
X98880395Y-111251999D01*
X99239605Y-111251999D01*
X99980197Y-111992591D01*
X100213812Y-111933313D01*
X100324559Y-111695124D01*
X100386711Y-111439906D01*
X100397876Y-111177466D01*
X100357629Y-110917892D01*
X100350605Y-110898660D01*
X106616500Y-110898660D01*
X106616500Y-111161336D01*
X106667746Y-111418966D01*
X106768268Y-111661647D01*
X106914203Y-111880055D01*
X107099943Y-112065795D01*
X107297207Y-112197602D01*
X107950000Y-112850395D01*
X108602793Y-112197602D01*
X108800057Y-112065795D01*
X108985797Y-111880055D01*
X109131732Y-111661647D01*
X109232254Y-111418966D01*
X109283500Y-111161336D01*
X109283500Y-110898660D01*
X109232254Y-110641030D01*
X109131732Y-110398349D01*
X108985797Y-110179941D01*
X108800057Y-109994201D01*
X108581649Y-109848266D01*
X108338968Y-109747744D01*
X108081338Y-109696498D01*
X107818662Y-109696498D01*
X107561032Y-109747744D01*
X107318351Y-109848266D01*
X107099943Y-109994201D01*
X106914203Y-110179941D01*
X106768268Y-110398349D01*
X106667746Y-110641030D01*
X106616500Y-110898660D01*
X100350605Y-110898660D01*
X100267514Y-110671157D01*
X100213812Y-110570685D01*
X99980197Y-110511407D01*
X99239605Y-111251999D01*
X98880395Y-111251999D01*
X98139803Y-110511407D01*
X97906188Y-110570685D01*
X97795441Y-110808874D01*
X97733289Y-111064092D01*
X97722124Y-111326532D01*
X93903000Y-111326532D01*
X93903000Y-110331802D01*
X98319408Y-110331802D01*
X99060000Y-111072394D01*
X99800592Y-110331802D01*
X99741314Y-110098187D01*
X99503125Y-109987440D01*
X99247907Y-109925288D01*
X98985467Y-109914123D01*
X98725893Y-109954370D01*
X98479158Y-110044485D01*
X98378686Y-110098187D01*
X98319408Y-110331802D01*
X93903000Y-110331802D01*
X93903000Y-106135663D01*
X97726500Y-106135663D01*
X97726500Y-106398339D01*
X97777746Y-106655969D01*
X97878268Y-106898650D01*
X98024203Y-107117058D01*
X98209943Y-107302798D01*
X98428351Y-107448733D01*
X98671032Y-107549255D01*
X98928662Y-107600501D01*
X99191338Y-107600501D01*
X99448968Y-107549255D01*
X99691649Y-107448733D01*
X99910057Y-107302798D01*
X100095797Y-107117058D01*
X100197266Y-106965198D01*
X107209408Y-106965198D01*
X107268686Y-107198813D01*
X107506875Y-107309560D01*
X107762093Y-107371712D01*
X108024533Y-107382877D01*
X108284107Y-107342630D01*
X108530842Y-107252515D01*
X108631314Y-107198813D01*
X108690592Y-106965198D01*
X107950000Y-106224606D01*
X107209408Y-106965198D01*
X100197266Y-106965198D01*
X100241732Y-106898650D01*
X100342254Y-106655969D01*
X100393500Y-106398339D01*
X100393500Y-106135663D01*
X100390292Y-106119534D01*
X106612124Y-106119534D01*
X106652371Y-106379108D01*
X106742486Y-106625843D01*
X106796188Y-106726315D01*
X107029803Y-106785593D01*
X107770395Y-106045001D01*
X108129605Y-106045001D01*
X108870197Y-106785593D01*
X109103812Y-106726315D01*
X109214559Y-106488126D01*
X109276711Y-106232908D01*
X109287876Y-105970468D01*
X109247629Y-105710894D01*
X109157514Y-105464159D01*
X109103812Y-105363687D01*
X108870197Y-105304409D01*
X108129605Y-106045001D01*
X107770395Y-106045001D01*
X107029803Y-105304409D01*
X106796188Y-105363687D01*
X106685441Y-105601876D01*
X106623289Y-105857094D01*
X106612124Y-106119534D01*
X100390292Y-106119534D01*
X100342254Y-105878033D01*
X100241732Y-105635352D01*
X100095797Y-105416944D01*
X99910057Y-105231204D01*
X99712793Y-105099397D01*
X99060000Y-104446604D01*
X98407207Y-105099397D01*
X98209943Y-105231204D01*
X98024203Y-105416944D01*
X97878268Y-105635352D01*
X97777746Y-105878033D01*
X97726500Y-106135663D01*
X93903000Y-106135663D01*
X93903000Y-104341532D01*
X97722124Y-104341532D01*
X97762371Y-104601106D01*
X97852486Y-104847841D01*
X97906188Y-104948313D01*
X98139803Y-105007591D01*
X98880395Y-104266999D01*
X99239605Y-104266999D01*
X99980197Y-105007591D01*
X100213812Y-104948313D01*
X100324559Y-104710124D01*
X100386711Y-104454906D01*
X100397876Y-104192466D01*
X100357629Y-103932892D01*
X100350606Y-103913661D01*
X106616500Y-103913661D01*
X106616500Y-104176337D01*
X106667746Y-104433967D01*
X106768268Y-104676648D01*
X106914203Y-104895056D01*
X107099943Y-105080796D01*
X107297207Y-105212603D01*
X107950000Y-105865396D01*
X108602793Y-105212603D01*
X108800057Y-105080796D01*
X108985797Y-104895056D01*
X109131732Y-104676648D01*
X109232254Y-104433967D01*
X109283500Y-104176337D01*
X109283500Y-103913661D01*
X109232254Y-103656031D01*
X109131732Y-103413350D01*
X108985797Y-103194942D01*
X108800057Y-103009202D01*
X108581649Y-102863267D01*
X108338968Y-102762745D01*
X108081338Y-102711499D01*
X107818662Y-102711499D01*
X107561032Y-102762745D01*
X107318351Y-102863267D01*
X107099943Y-103009202D01*
X106914203Y-103194942D01*
X106768268Y-103413350D01*
X106667746Y-103656031D01*
X106616500Y-103913661D01*
X100350606Y-103913661D01*
X100267514Y-103686157D01*
X100213812Y-103585685D01*
X99980197Y-103526407D01*
X99239605Y-104266999D01*
X98880395Y-104266999D01*
X98139803Y-103526407D01*
X97906188Y-103585685D01*
X97795441Y-103823874D01*
X97733289Y-104079092D01*
X97722124Y-104341532D01*
X93903000Y-104341532D01*
X93903000Y-103346802D01*
X98319408Y-103346802D01*
X99060000Y-104087394D01*
X99800592Y-103346802D01*
X99741314Y-103113187D01*
X99503125Y-103002440D01*
X99247907Y-102940288D01*
X98985467Y-102929123D01*
X98725893Y-102969370D01*
X98479158Y-103059485D01*
X98378686Y-103113187D01*
X98319408Y-103346802D01*
X93903000Y-103346802D01*
X93903000Y-99150663D01*
X97726500Y-99150663D01*
X97726500Y-99413339D01*
X97777746Y-99670969D01*
X97878268Y-99913650D01*
X98024203Y-100132058D01*
X98209943Y-100317798D01*
X98428351Y-100463733D01*
X98671032Y-100564255D01*
X98928662Y-100615501D01*
X99191338Y-100615501D01*
X99448968Y-100564255D01*
X99691649Y-100463733D01*
X99910057Y-100317798D01*
X100095797Y-100132058D01*
X100197266Y-99980198D01*
X107209408Y-99980198D01*
X107268686Y-100213813D01*
X107506875Y-100324560D01*
X107762093Y-100386712D01*
X108024533Y-100397877D01*
X108284107Y-100357630D01*
X108530842Y-100267515D01*
X108631314Y-100213813D01*
X108690592Y-99980198D01*
X107950000Y-99239606D01*
X107209408Y-99980198D01*
X100197266Y-99980198D01*
X100241732Y-99913650D01*
X100342254Y-99670969D01*
X100393500Y-99413339D01*
X100393500Y-99150663D01*
X100390292Y-99134534D01*
X106612124Y-99134534D01*
X106652371Y-99394108D01*
X106742486Y-99640843D01*
X106796188Y-99741315D01*
X107029803Y-99800593D01*
X107770395Y-99060001D01*
X108129605Y-99060001D01*
X108870197Y-99800593D01*
X109103812Y-99741315D01*
X109214559Y-99503126D01*
X109276711Y-99247908D01*
X109287876Y-98985468D01*
X109247629Y-98725894D01*
X109157514Y-98479159D01*
X109103812Y-98378687D01*
X108870197Y-98319409D01*
X108129605Y-99060001D01*
X107770395Y-99060001D01*
X107029803Y-98319409D01*
X106796188Y-98378687D01*
X106685441Y-98616876D01*
X106623289Y-98872094D01*
X106612124Y-99134534D01*
X100390292Y-99134534D01*
X100342254Y-98893033D01*
X100241732Y-98650352D01*
X100095797Y-98431944D01*
X99910057Y-98246204D01*
X99712793Y-98114397D01*
X99060000Y-97461604D01*
X98407207Y-98114397D01*
X98209943Y-98246204D01*
X98024203Y-98431944D01*
X97878268Y-98650352D01*
X97777746Y-98893033D01*
X97726500Y-99150663D01*
X93903000Y-99150663D01*
X93903000Y-97356532D01*
X97722124Y-97356532D01*
X97762371Y-97616106D01*
X97852486Y-97862841D01*
X97906188Y-97963313D01*
X98139803Y-98022591D01*
X98880395Y-97281999D01*
X99239605Y-97281999D01*
X99980197Y-98022591D01*
X100213812Y-97963313D01*
X100324559Y-97725124D01*
X100386711Y-97469906D01*
X100397876Y-97207466D01*
X100357629Y-96947892D01*
X100350606Y-96928661D01*
X106616500Y-96928661D01*
X106616500Y-97191337D01*
X106667746Y-97448967D01*
X106768268Y-97691648D01*
X106914203Y-97910056D01*
X107099943Y-98095796D01*
X107297207Y-98227603D01*
X107950000Y-98880396D01*
X108602793Y-98227603D01*
X108800057Y-98095796D01*
X108985797Y-97910056D01*
X109131732Y-97691648D01*
X109232254Y-97448967D01*
X109283500Y-97191337D01*
X109283500Y-96928661D01*
X109232254Y-96671031D01*
X109131732Y-96428350D01*
X108985797Y-96209942D01*
X108800057Y-96024202D01*
X108581649Y-95878267D01*
X108338968Y-95777745D01*
X108081338Y-95726499D01*
X107818662Y-95726499D01*
X107561032Y-95777745D01*
X107318351Y-95878267D01*
X107099943Y-96024202D01*
X106914203Y-96209942D01*
X106768268Y-96428350D01*
X106667746Y-96671031D01*
X106616500Y-96928661D01*
X100350606Y-96928661D01*
X100267514Y-96701157D01*
X100213812Y-96600685D01*
X99980197Y-96541407D01*
X99239605Y-97281999D01*
X98880395Y-97281999D01*
X98139803Y-96541407D01*
X97906188Y-96600685D01*
X97795441Y-96838874D01*
X97733289Y-97094092D01*
X97722124Y-97356532D01*
X93903000Y-97356532D01*
X93903000Y-96361802D01*
X98319408Y-96361802D01*
X99060000Y-97102394D01*
X99800592Y-96361802D01*
X99741314Y-96128187D01*
X99503125Y-96017440D01*
X99247907Y-95955288D01*
X98985467Y-95944123D01*
X98725893Y-95984370D01*
X98479158Y-96074485D01*
X98378686Y-96128187D01*
X98319408Y-96361802D01*
X93903000Y-96361802D01*
X93903000Y-92165663D01*
X97726500Y-92165663D01*
X97726500Y-92428339D01*
X97777746Y-92685969D01*
X97878268Y-92928650D01*
X98024203Y-93147058D01*
X98209943Y-93332798D01*
X98428351Y-93478733D01*
X98671032Y-93579255D01*
X98928662Y-93630501D01*
X99191338Y-93630501D01*
X99448968Y-93579255D01*
X99691649Y-93478733D01*
X99910057Y-93332798D01*
X100095797Y-93147058D01*
X100197266Y-92995198D01*
X107209408Y-92995198D01*
X107268686Y-93228813D01*
X107506875Y-93339560D01*
X107762093Y-93401712D01*
X108024533Y-93412877D01*
X108284107Y-93372630D01*
X108530842Y-93282515D01*
X108631314Y-93228813D01*
X108690592Y-92995198D01*
X107950000Y-92254606D01*
X107209408Y-92995198D01*
X100197266Y-92995198D01*
X100241732Y-92928650D01*
X100342254Y-92685969D01*
X100393500Y-92428339D01*
X100393500Y-92165663D01*
X100390292Y-92149534D01*
X106612124Y-92149534D01*
X106652371Y-92409108D01*
X106742486Y-92655843D01*
X106796188Y-92756315D01*
X107029803Y-92815593D01*
X107770395Y-92075001D01*
X108129605Y-92075001D01*
X108870197Y-92815593D01*
X109103812Y-92756315D01*
X109214559Y-92518126D01*
X109276711Y-92262908D01*
X109287876Y-92000468D01*
X109247629Y-91740894D01*
X109157514Y-91494159D01*
X109103812Y-91393687D01*
X108870197Y-91334409D01*
X108129605Y-92075001D01*
X107770395Y-92075001D01*
X107029803Y-91334409D01*
X106796188Y-91393687D01*
X106685441Y-91631876D01*
X106623289Y-91887094D01*
X106612124Y-92149534D01*
X100390292Y-92149534D01*
X100342254Y-91908033D01*
X100241732Y-91665352D01*
X100095797Y-91446944D01*
X99910057Y-91261204D01*
X99712793Y-91129397D01*
X99060000Y-90476604D01*
X98407207Y-91129397D01*
X98209943Y-91261204D01*
X98024203Y-91446944D01*
X97878268Y-91665352D01*
X97777746Y-91908033D01*
X97726500Y-92165663D01*
X93903000Y-92165663D01*
X93903000Y-90371532D01*
X97722124Y-90371532D01*
X97762371Y-90631106D01*
X97852486Y-90877841D01*
X97906188Y-90978313D01*
X98139803Y-91037591D01*
X98880395Y-90296999D01*
X99239605Y-90296999D01*
X99980197Y-91037591D01*
X100213812Y-90978313D01*
X100324559Y-90740124D01*
X100386711Y-90484906D01*
X100397876Y-90222466D01*
X100357629Y-89962892D01*
X100350606Y-89943661D01*
X106616500Y-89943661D01*
X106616500Y-90206337D01*
X106667746Y-90463967D01*
X106768268Y-90706648D01*
X106914203Y-90925056D01*
X107099943Y-91110796D01*
X107297207Y-91242603D01*
X107950000Y-91895396D01*
X108602793Y-91242603D01*
X108800057Y-91110796D01*
X108985797Y-90925056D01*
X109131732Y-90706648D01*
X109232254Y-90463967D01*
X109283500Y-90206337D01*
X109283500Y-89943661D01*
X109232254Y-89686031D01*
X109131732Y-89443350D01*
X108985797Y-89224942D01*
X108800057Y-89039202D01*
X108581649Y-88893267D01*
X108338968Y-88792745D01*
X108081338Y-88741499D01*
X107818662Y-88741499D01*
X107561032Y-88792745D01*
X107318351Y-88893267D01*
X107099943Y-89039202D01*
X106914203Y-89224942D01*
X106768268Y-89443350D01*
X106667746Y-89686031D01*
X106616500Y-89943661D01*
X100350606Y-89943661D01*
X100267514Y-89716157D01*
X100213812Y-89615685D01*
X99980197Y-89556407D01*
X99239605Y-90296999D01*
X98880395Y-90296999D01*
X98139803Y-89556407D01*
X97906188Y-89615685D01*
X97795441Y-89853874D01*
X97733289Y-90109092D01*
X97722124Y-90371532D01*
X93903000Y-90371532D01*
X93903000Y-89376802D01*
X98319408Y-89376802D01*
X99060000Y-90117394D01*
X99800592Y-89376802D01*
X99741314Y-89143187D01*
X99503125Y-89032440D01*
X99247907Y-88970288D01*
X98985467Y-88959123D01*
X98725893Y-88999370D01*
X98479158Y-89089485D01*
X98378686Y-89143187D01*
X98319408Y-89376802D01*
X93903000Y-89376802D01*
X93903000Y-85180663D01*
X97726500Y-85180663D01*
X97726500Y-85443339D01*
X97777746Y-85700969D01*
X97878268Y-85943650D01*
X98024203Y-86162058D01*
X98209943Y-86347798D01*
X98428351Y-86493733D01*
X98671032Y-86594255D01*
X98928662Y-86645501D01*
X99191338Y-86645501D01*
X99448968Y-86594255D01*
X99691649Y-86493733D01*
X99910057Y-86347798D01*
X100095797Y-86162058D01*
X100197266Y-86010198D01*
X107209408Y-86010198D01*
X107268686Y-86243813D01*
X107506875Y-86354560D01*
X107762093Y-86416712D01*
X108024533Y-86427877D01*
X108284107Y-86387630D01*
X108530842Y-86297515D01*
X108631314Y-86243813D01*
X108690592Y-86010198D01*
X107950000Y-85269606D01*
X107209408Y-86010198D01*
X100197266Y-86010198D01*
X100241732Y-85943650D01*
X100342254Y-85700969D01*
X100393500Y-85443339D01*
X100393500Y-85180663D01*
X100390292Y-85164534D01*
X106612124Y-85164534D01*
X106652371Y-85424108D01*
X106742486Y-85670843D01*
X106796188Y-85771315D01*
X107029803Y-85830593D01*
X107770395Y-85090001D01*
X108129605Y-85090001D01*
X108870197Y-85830593D01*
X109103812Y-85771315D01*
X109214559Y-85533126D01*
X109276711Y-85277908D01*
X109287876Y-85015468D01*
X109247629Y-84755894D01*
X109157514Y-84509159D01*
X109103812Y-84408687D01*
X108870197Y-84349409D01*
X108129605Y-85090001D01*
X107770395Y-85090001D01*
X107029803Y-84349409D01*
X106796188Y-84408687D01*
X106685441Y-84646876D01*
X106623289Y-84902094D01*
X106612124Y-85164534D01*
X100390292Y-85164534D01*
X100342254Y-84923033D01*
X100241732Y-84680352D01*
X100095797Y-84461944D01*
X99910057Y-84276204D01*
X99712793Y-84144397D01*
X99060000Y-83491604D01*
X98407207Y-84144397D01*
X98209943Y-84276204D01*
X98024203Y-84461944D01*
X97878268Y-84680352D01*
X97777746Y-84923033D01*
X97726500Y-85180663D01*
X93903000Y-85180663D01*
X93903000Y-83386532D01*
X97722124Y-83386532D01*
X97762371Y-83646106D01*
X97852486Y-83892841D01*
X97906188Y-83993313D01*
X98139803Y-84052591D01*
X98880395Y-83311999D01*
X99239605Y-83311999D01*
X99980197Y-84052591D01*
X100213812Y-83993313D01*
X100324559Y-83755124D01*
X100386711Y-83499906D01*
X100397876Y-83237466D01*
X100357629Y-82977892D01*
X100350606Y-82958661D01*
X106616500Y-82958661D01*
X106616500Y-83221337D01*
X106667746Y-83478967D01*
X106768268Y-83721648D01*
X106914203Y-83940056D01*
X107099943Y-84125796D01*
X107297207Y-84257603D01*
X107950000Y-84910396D01*
X108602793Y-84257603D01*
X108800057Y-84125796D01*
X108985797Y-83940056D01*
X109131732Y-83721648D01*
X109232254Y-83478967D01*
X109283500Y-83221337D01*
X109283500Y-82958661D01*
X109232254Y-82701031D01*
X109131732Y-82458350D01*
X108985797Y-82239942D01*
X108800057Y-82054202D01*
X108581649Y-81908267D01*
X108338968Y-81807745D01*
X108081338Y-81756499D01*
X107818662Y-81756499D01*
X107561032Y-81807745D01*
X107318351Y-81908267D01*
X107099943Y-82054202D01*
X106914203Y-82239942D01*
X106768268Y-82458350D01*
X106667746Y-82701031D01*
X106616500Y-82958661D01*
X100350606Y-82958661D01*
X100267514Y-82731157D01*
X100213812Y-82630685D01*
X99980197Y-82571407D01*
X99239605Y-83311999D01*
X98880395Y-83311999D01*
X98139803Y-82571407D01*
X97906188Y-82630685D01*
X97795441Y-82868874D01*
X97733289Y-83124092D01*
X97722124Y-83386532D01*
X93903000Y-83386532D01*
X93903000Y-82391802D01*
X98319408Y-82391802D01*
X99060000Y-83132394D01*
X99800592Y-82391802D01*
X99741314Y-82158187D01*
X99503125Y-82047440D01*
X99247907Y-81985288D01*
X98985467Y-81974123D01*
X98725893Y-82014370D01*
X98479158Y-82104485D01*
X98378686Y-82158187D01*
X98319408Y-82391802D01*
X93903000Y-82391802D01*
X93903000Y-78195663D01*
X97726500Y-78195663D01*
X97726500Y-78458339D01*
X97777746Y-78715969D01*
X97878268Y-78958650D01*
X98024203Y-79177058D01*
X98209943Y-79362798D01*
X98428351Y-79508733D01*
X98671032Y-79609255D01*
X98928662Y-79660501D01*
X99191338Y-79660501D01*
X99448968Y-79609255D01*
X99691649Y-79508733D01*
X99910057Y-79362798D01*
X100095797Y-79177058D01*
X100197266Y-79025197D01*
X107209408Y-79025197D01*
X107268686Y-79258812D01*
X107506875Y-79369559D01*
X107762093Y-79431711D01*
X108024533Y-79442876D01*
X108284107Y-79402629D01*
X108530842Y-79312514D01*
X108631314Y-79258812D01*
X108690592Y-79025197D01*
X107950000Y-78284605D01*
X107209408Y-79025197D01*
X100197266Y-79025197D01*
X100241732Y-78958650D01*
X100342254Y-78715969D01*
X100393500Y-78458339D01*
X100393500Y-78195663D01*
X100390292Y-78179533D01*
X106612124Y-78179533D01*
X106652371Y-78439107D01*
X106742486Y-78685842D01*
X106796188Y-78786314D01*
X107029803Y-78845592D01*
X107770395Y-78105000D01*
X108129605Y-78105000D01*
X108870197Y-78845592D01*
X109103812Y-78786314D01*
X109214559Y-78548125D01*
X109276711Y-78292907D01*
X109287876Y-78030467D01*
X109247629Y-77770893D01*
X109157514Y-77524158D01*
X109103812Y-77423686D01*
X108870197Y-77364408D01*
X108129605Y-78105000D01*
X107770395Y-78105000D01*
X107029803Y-77364408D01*
X106796188Y-77423686D01*
X106685441Y-77661875D01*
X106623289Y-77917093D01*
X106612124Y-78179533D01*
X100390292Y-78179533D01*
X100342254Y-77938033D01*
X100241732Y-77695352D01*
X100095797Y-77476944D01*
X99910057Y-77291204D01*
X99712793Y-77159397D01*
X99060000Y-76506604D01*
X98407207Y-77159397D01*
X98209943Y-77291204D01*
X98024203Y-77476944D01*
X97878268Y-77695352D01*
X97777746Y-77938033D01*
X97726500Y-78195663D01*
X93903000Y-78195663D01*
X93903000Y-76401532D01*
X97722124Y-76401532D01*
X97762371Y-76661106D01*
X97852486Y-76907841D01*
X97906188Y-77008313D01*
X98139803Y-77067591D01*
X98880395Y-76326999D01*
X99239605Y-76326999D01*
X99980197Y-77067591D01*
X100213812Y-77008313D01*
X100324559Y-76770124D01*
X100386711Y-76514906D01*
X100397876Y-76252466D01*
X100357629Y-75992892D01*
X100350605Y-75973660D01*
X106616500Y-75973660D01*
X106616500Y-76236336D01*
X106667746Y-76493966D01*
X106768268Y-76736647D01*
X106914203Y-76955055D01*
X107099943Y-77140795D01*
X107297207Y-77272602D01*
X107950000Y-77925395D01*
X108602793Y-77272602D01*
X108800057Y-77140795D01*
X108985797Y-76955055D01*
X109131732Y-76736647D01*
X109232254Y-76493966D01*
X109283500Y-76236336D01*
X109283500Y-75973660D01*
X109232254Y-75716030D01*
X109131732Y-75473349D01*
X108985797Y-75254941D01*
X108800057Y-75069201D01*
X108581649Y-74923266D01*
X108338968Y-74822744D01*
X108081338Y-74771498D01*
X107818662Y-74771498D01*
X107561032Y-74822744D01*
X107318351Y-74923266D01*
X107099943Y-75069201D01*
X106914203Y-75254941D01*
X106768268Y-75473349D01*
X106667746Y-75716030D01*
X106616500Y-75973660D01*
X100350605Y-75973660D01*
X100267514Y-75746157D01*
X100213812Y-75645685D01*
X99980197Y-75586407D01*
X99239605Y-76326999D01*
X98880395Y-76326999D01*
X98139803Y-75586407D01*
X97906188Y-75645685D01*
X97795441Y-75883874D01*
X97733289Y-76139092D01*
X97722124Y-76401532D01*
X93903000Y-76401532D01*
X93903000Y-75406802D01*
X98319408Y-75406802D01*
X99060000Y-76147394D01*
X99800592Y-75406802D01*
X99741314Y-75173187D01*
X99503125Y-75062440D01*
X99247907Y-75000288D01*
X98985467Y-74989123D01*
X98725893Y-75029370D01*
X98479158Y-75119485D01*
X98378686Y-75173187D01*
X98319408Y-75406802D01*
X93903000Y-75406802D01*
X93903000Y-71210663D01*
X97726500Y-71210663D01*
X97726500Y-71473339D01*
X97777746Y-71730969D01*
X97878268Y-71973650D01*
X98024203Y-72192058D01*
X98209943Y-72377798D01*
X98428351Y-72523733D01*
X98671032Y-72624255D01*
X98928662Y-72675501D01*
X99191338Y-72675501D01*
X99448968Y-72624255D01*
X99691649Y-72523733D01*
X99910057Y-72377798D01*
X100095797Y-72192058D01*
X100197266Y-72040198D01*
X107209408Y-72040198D01*
X107268686Y-72273813D01*
X107506875Y-72384560D01*
X107762093Y-72446712D01*
X108024533Y-72457877D01*
X108284107Y-72417630D01*
X108530842Y-72327515D01*
X108631314Y-72273813D01*
X108690592Y-72040198D01*
X107950000Y-71299606D01*
X107209408Y-72040198D01*
X100197266Y-72040198D01*
X100241732Y-71973650D01*
X100342254Y-71730969D01*
X100393500Y-71473339D01*
X100393500Y-71210663D01*
X100390292Y-71194534D01*
X106612124Y-71194534D01*
X106652371Y-71454108D01*
X106742486Y-71700843D01*
X106796188Y-71801315D01*
X107029803Y-71860593D01*
X107770395Y-71120001D01*
X108129605Y-71120001D01*
X108870197Y-71860593D01*
X109103812Y-71801315D01*
X109214559Y-71563126D01*
X109276711Y-71307908D01*
X109287876Y-71045468D01*
X109247629Y-70785894D01*
X109157514Y-70539159D01*
X109103812Y-70438687D01*
X108870197Y-70379409D01*
X108129605Y-71120001D01*
X107770395Y-71120001D01*
X107029803Y-70379409D01*
X106796188Y-70438687D01*
X106685441Y-70676876D01*
X106623289Y-70932094D01*
X106612124Y-71194534D01*
X100390292Y-71194534D01*
X100342254Y-70953033D01*
X100241732Y-70710352D01*
X100095797Y-70491944D01*
X99910057Y-70306204D01*
X99712793Y-70174397D01*
X99060000Y-69521604D01*
X98407207Y-70174397D01*
X98209943Y-70306204D01*
X98024203Y-70491944D01*
X97878268Y-70710352D01*
X97777746Y-70953033D01*
X97726500Y-71210663D01*
X93903000Y-71210663D01*
X93903000Y-69416532D01*
X97722124Y-69416532D01*
X97762371Y-69676106D01*
X97852486Y-69922841D01*
X97906188Y-70023313D01*
X98139803Y-70082591D01*
X98880395Y-69341999D01*
X99239605Y-69341999D01*
X99980197Y-70082591D01*
X100213812Y-70023313D01*
X100324559Y-69785124D01*
X100386711Y-69529906D01*
X100397876Y-69267466D01*
X100357629Y-69007892D01*
X100350606Y-68988661D01*
X106616500Y-68988661D01*
X106616500Y-69251337D01*
X106667746Y-69508967D01*
X106768268Y-69751648D01*
X106914203Y-69970056D01*
X107099943Y-70155796D01*
X107297207Y-70287603D01*
X107950000Y-70940396D01*
X108602793Y-70287603D01*
X108800057Y-70155796D01*
X108985797Y-69970056D01*
X109131732Y-69751648D01*
X109232254Y-69508967D01*
X109283500Y-69251337D01*
X109283500Y-68988661D01*
X109232254Y-68731031D01*
X109131732Y-68488350D01*
X108985797Y-68269942D01*
X108800057Y-68084202D01*
X108581649Y-67938267D01*
X108338968Y-67837745D01*
X108081338Y-67786499D01*
X107818662Y-67786499D01*
X107561032Y-67837745D01*
X107318351Y-67938267D01*
X107099943Y-68084202D01*
X106914203Y-68269942D01*
X106768268Y-68488350D01*
X106667746Y-68731031D01*
X106616500Y-68988661D01*
X100350606Y-68988661D01*
X100267514Y-68761157D01*
X100213812Y-68660685D01*
X99980197Y-68601407D01*
X99239605Y-69341999D01*
X98880395Y-69341999D01*
X98139803Y-68601407D01*
X97906188Y-68660685D01*
X97795441Y-68898874D01*
X97733289Y-69154092D01*
X97722124Y-69416532D01*
X93903000Y-69416532D01*
X93903000Y-68421802D01*
X98319408Y-68421802D01*
X99060000Y-69162394D01*
X99800592Y-68421802D01*
X99741314Y-68188187D01*
X99503125Y-68077440D01*
X99247907Y-68015288D01*
X98985467Y-68004123D01*
X98725893Y-68044370D01*
X98479158Y-68134485D01*
X98378686Y-68188187D01*
X98319408Y-68421802D01*
X93903000Y-68421802D01*
X93903000Y-64225663D01*
X97726500Y-64225663D01*
X97726500Y-64488339D01*
X97777746Y-64745969D01*
X97878268Y-64988650D01*
X98024203Y-65207058D01*
X98209943Y-65392798D01*
X98428351Y-65538733D01*
X98671032Y-65639255D01*
X98928662Y-65690501D01*
X99191338Y-65690501D01*
X99448968Y-65639255D01*
X99691649Y-65538733D01*
X99910057Y-65392798D01*
X100095797Y-65207058D01*
X100197266Y-65055197D01*
X107209408Y-65055197D01*
X107268686Y-65288812D01*
X107506875Y-65399559D01*
X107762093Y-65461711D01*
X108024533Y-65472876D01*
X108284107Y-65432629D01*
X108530842Y-65342514D01*
X108631314Y-65288812D01*
X108690592Y-65055197D01*
X107950000Y-64314605D01*
X107209408Y-65055197D01*
X100197266Y-65055197D01*
X100241732Y-64988650D01*
X100342254Y-64745969D01*
X100393500Y-64488339D01*
X100393500Y-64225663D01*
X100390292Y-64209533D01*
X106612124Y-64209533D01*
X106652371Y-64469107D01*
X106742486Y-64715842D01*
X106796188Y-64816314D01*
X107029803Y-64875592D01*
X107770395Y-64135000D01*
X108129605Y-64135000D01*
X108870197Y-64875592D01*
X109103812Y-64816314D01*
X109214559Y-64578125D01*
X109276711Y-64322907D01*
X109287876Y-64060467D01*
X109247629Y-63800893D01*
X109157514Y-63554158D01*
X109103812Y-63453686D01*
X108870197Y-63394408D01*
X108129605Y-64135000D01*
X107770395Y-64135000D01*
X107029803Y-63394408D01*
X106796188Y-63453686D01*
X106685441Y-63691875D01*
X106623289Y-63947093D01*
X106612124Y-64209533D01*
X100390292Y-64209533D01*
X100342254Y-63968033D01*
X100241732Y-63725352D01*
X100095797Y-63506944D01*
X99910057Y-63321204D01*
X99712793Y-63189397D01*
X99060000Y-62536604D01*
X98407207Y-63189397D01*
X98209943Y-63321204D01*
X98024203Y-63506944D01*
X97878268Y-63725352D01*
X97777746Y-63968033D01*
X97726500Y-64225663D01*
X93903000Y-64225663D01*
X93903000Y-62431532D01*
X97722124Y-62431532D01*
X97762371Y-62691106D01*
X97852486Y-62937841D01*
X97906188Y-63038313D01*
X98139803Y-63097591D01*
X98880395Y-62356999D01*
X99239605Y-62356999D01*
X99980197Y-63097591D01*
X100213812Y-63038313D01*
X100324559Y-62800124D01*
X100386711Y-62544906D01*
X100397876Y-62282466D01*
X100357629Y-62022892D01*
X100350605Y-62003660D01*
X106616500Y-62003660D01*
X106616500Y-62266336D01*
X106667746Y-62523966D01*
X106768268Y-62766647D01*
X106914203Y-62985055D01*
X107099943Y-63170795D01*
X107297207Y-63302602D01*
X107950000Y-63955395D01*
X108602793Y-63302602D01*
X108800057Y-63170795D01*
X108985797Y-62985055D01*
X109131732Y-62766647D01*
X109232254Y-62523966D01*
X109283500Y-62266336D01*
X109283500Y-62003660D01*
X109232254Y-61746030D01*
X109131732Y-61503349D01*
X108985797Y-61284941D01*
X108800057Y-61099201D01*
X108581649Y-60953266D01*
X108338968Y-60852744D01*
X108081338Y-60801498D01*
X107818662Y-60801498D01*
X107561032Y-60852744D01*
X107318351Y-60953266D01*
X107099943Y-61099201D01*
X106914203Y-61284941D01*
X106768268Y-61503349D01*
X106667746Y-61746030D01*
X106616500Y-62003660D01*
X100350605Y-62003660D01*
X100267514Y-61776157D01*
X100213812Y-61675685D01*
X99980197Y-61616407D01*
X99239605Y-62356999D01*
X98880395Y-62356999D01*
X98139803Y-61616407D01*
X97906188Y-61675685D01*
X97795441Y-61913874D01*
X97733289Y-62169092D01*
X97722124Y-62431532D01*
X93903000Y-62431532D01*
X93903000Y-61436802D01*
X98319408Y-61436802D01*
X99060000Y-62177394D01*
X99800592Y-61436802D01*
X99741314Y-61203187D01*
X99503125Y-61092440D01*
X99247907Y-61030288D01*
X98985467Y-61019123D01*
X98725893Y-61059370D01*
X98479158Y-61149485D01*
X98378686Y-61203187D01*
X98319408Y-61436802D01*
X93903000Y-61436802D01*
X93903000Y-57240664D01*
X97726500Y-57240664D01*
X97726500Y-57503340D01*
X97777746Y-57760970D01*
X97878268Y-58003651D01*
X98024203Y-58222059D01*
X98209943Y-58407799D01*
X98428351Y-58553734D01*
X98671032Y-58654256D01*
X98928662Y-58705502D01*
X99191338Y-58705502D01*
X99448968Y-58654256D01*
X99691649Y-58553734D01*
X99910057Y-58407799D01*
X100095797Y-58222059D01*
X100197266Y-58070198D01*
X107209408Y-58070198D01*
X107268686Y-58303813D01*
X107506875Y-58414560D01*
X107762093Y-58476712D01*
X108024533Y-58487877D01*
X108284107Y-58447630D01*
X108530842Y-58357515D01*
X108631314Y-58303813D01*
X108690592Y-58070198D01*
X107950000Y-57329606D01*
X107209408Y-58070198D01*
X100197266Y-58070198D01*
X100241732Y-58003651D01*
X100342254Y-57760970D01*
X100393500Y-57503340D01*
X100393500Y-57240664D01*
X100390292Y-57224534D01*
X106612124Y-57224534D01*
X106652371Y-57484108D01*
X106742486Y-57730843D01*
X106796188Y-57831315D01*
X107029803Y-57890593D01*
X107770395Y-57150001D01*
X108129605Y-57150001D01*
X108870197Y-57890593D01*
X109103812Y-57831315D01*
X109214559Y-57593126D01*
X109276711Y-57337908D01*
X109287876Y-57075468D01*
X109247629Y-56815894D01*
X109157514Y-56569159D01*
X109103812Y-56468687D01*
X108870197Y-56409409D01*
X108129605Y-57150001D01*
X107770395Y-57150001D01*
X107029803Y-56409409D01*
X106796188Y-56468687D01*
X106685441Y-56706876D01*
X106623289Y-56962094D01*
X106612124Y-57224534D01*
X100390292Y-57224534D01*
X100342254Y-56983034D01*
X100241732Y-56740353D01*
X100095797Y-56521945D01*
X99910057Y-56336205D01*
X99712793Y-56204398D01*
X99060000Y-55551605D01*
X98407207Y-56204398D01*
X98209943Y-56336205D01*
X98024203Y-56521945D01*
X97878268Y-56740353D01*
X97777746Y-56983034D01*
X97726500Y-57240664D01*
X93903000Y-57240664D01*
X93903000Y-55446533D01*
X97722124Y-55446533D01*
X97762371Y-55706107D01*
X97852486Y-55952842D01*
X97906188Y-56053314D01*
X98139803Y-56112592D01*
X98880395Y-55372000D01*
X99239605Y-55372000D01*
X99980197Y-56112592D01*
X100213812Y-56053314D01*
X100324559Y-55815125D01*
X100386711Y-55559907D01*
X100397876Y-55297467D01*
X100357629Y-55037893D01*
X100350605Y-55018661D01*
X106616500Y-55018661D01*
X106616500Y-55281337D01*
X106667746Y-55538967D01*
X106768268Y-55781648D01*
X106914203Y-56000056D01*
X107099943Y-56185796D01*
X107297207Y-56317603D01*
X107950000Y-56970396D01*
X108602793Y-56317603D01*
X108800057Y-56185796D01*
X108985797Y-56000056D01*
X109131732Y-55781648D01*
X109232254Y-55538967D01*
X109283500Y-55281337D01*
X109283500Y-55018661D01*
X109232254Y-54761031D01*
X109131732Y-54518350D01*
X108985797Y-54299942D01*
X108800057Y-54114202D01*
X108581649Y-53968267D01*
X108338968Y-53867745D01*
X108081338Y-53816499D01*
X107818662Y-53816499D01*
X107561032Y-53867745D01*
X107318351Y-53968267D01*
X107099943Y-54114202D01*
X106914203Y-54299942D01*
X106768268Y-54518350D01*
X106667746Y-54761031D01*
X106616500Y-55018661D01*
X100350605Y-55018661D01*
X100267514Y-54791158D01*
X100213812Y-54690686D01*
X99980197Y-54631408D01*
X99239605Y-55372000D01*
X98880395Y-55372000D01*
X98139803Y-54631408D01*
X97906188Y-54690686D01*
X97795441Y-54928875D01*
X97733289Y-55184093D01*
X97722124Y-55446533D01*
X93903000Y-55446533D01*
X93903000Y-54451803D01*
X98319408Y-54451803D01*
X99060000Y-55192395D01*
X99800592Y-54451803D01*
X99741314Y-54218188D01*
X99503125Y-54107441D01*
X99247907Y-54045289D01*
X98985467Y-54034124D01*
X98725893Y-54074371D01*
X98479158Y-54164486D01*
X98378686Y-54218188D01*
X98319408Y-54451803D01*
X93903000Y-54451803D01*
X93903000Y-50255663D01*
X97726500Y-50255663D01*
X97726500Y-50518339D01*
X97777746Y-50775969D01*
X97878268Y-51018650D01*
X98024203Y-51237058D01*
X98209943Y-51422798D01*
X98428351Y-51568733D01*
X98671032Y-51669255D01*
X98928662Y-51720501D01*
X99191338Y-51720501D01*
X99448968Y-51669255D01*
X99691649Y-51568733D01*
X99910057Y-51422798D01*
X100095797Y-51237058D01*
X100197266Y-51085197D01*
X107209408Y-51085197D01*
X107268686Y-51318812D01*
X107506875Y-51429559D01*
X107762093Y-51491711D01*
X108024533Y-51502876D01*
X108284107Y-51462629D01*
X108530842Y-51372514D01*
X108631314Y-51318812D01*
X108690592Y-51085197D01*
X107950000Y-50344605D01*
X107209408Y-51085197D01*
X100197266Y-51085197D01*
X100241732Y-51018650D01*
X100342254Y-50775969D01*
X100393500Y-50518339D01*
X100393500Y-50255663D01*
X100390292Y-50239533D01*
X106612124Y-50239533D01*
X106652371Y-50499107D01*
X106742486Y-50745842D01*
X106796188Y-50846314D01*
X107029803Y-50905592D01*
X107770395Y-50165000D01*
X108129605Y-50165000D01*
X108870197Y-50905592D01*
X109103812Y-50846314D01*
X109214559Y-50608125D01*
X109276711Y-50352907D01*
X109287876Y-50090467D01*
X109247629Y-49830893D01*
X109157514Y-49584158D01*
X109103812Y-49483686D01*
X108870197Y-49424408D01*
X108129605Y-50165000D01*
X107770395Y-50165000D01*
X107029803Y-49424408D01*
X106796188Y-49483686D01*
X106685441Y-49721875D01*
X106623289Y-49977093D01*
X106612124Y-50239533D01*
X100390292Y-50239533D01*
X100342254Y-49998033D01*
X100241732Y-49755352D01*
X100095797Y-49536944D01*
X99910057Y-49351204D01*
X99712793Y-49219397D01*
X99060000Y-48566604D01*
X98407207Y-49219397D01*
X98209943Y-49351204D01*
X98024203Y-49536944D01*
X97878268Y-49755352D01*
X97777746Y-49998033D01*
X97726500Y-50255663D01*
X93903000Y-50255663D01*
X93903000Y-48461532D01*
X97722124Y-48461532D01*
X97762371Y-48721106D01*
X97852486Y-48967841D01*
X97906188Y-49068313D01*
X98139803Y-49127591D01*
X98880395Y-48386999D01*
X99239605Y-48386999D01*
X99980197Y-49127591D01*
X100213812Y-49068313D01*
X100324559Y-48830124D01*
X100386711Y-48574906D01*
X100397876Y-48312466D01*
X100357629Y-48052892D01*
X100350605Y-48033660D01*
X106616500Y-48033660D01*
X106616500Y-48296336D01*
X106667746Y-48553966D01*
X106768268Y-48796647D01*
X106914203Y-49015055D01*
X107099943Y-49200795D01*
X107297207Y-49332602D01*
X107950000Y-49985395D01*
X108602793Y-49332602D01*
X108800057Y-49200795D01*
X108985797Y-49015055D01*
X109131732Y-48796647D01*
X109232254Y-48553966D01*
X109283500Y-48296336D01*
X109283500Y-48033660D01*
X109232254Y-47776030D01*
X109131732Y-47533349D01*
X108985797Y-47314941D01*
X108800057Y-47129201D01*
X108581649Y-46983266D01*
X108338968Y-46882744D01*
X108081338Y-46831498D01*
X107818662Y-46831498D01*
X107561032Y-46882744D01*
X107318351Y-46983266D01*
X107099943Y-47129201D01*
X106914203Y-47314941D01*
X106768268Y-47533349D01*
X106667746Y-47776030D01*
X106616500Y-48033660D01*
X100350605Y-48033660D01*
X100267514Y-47806157D01*
X100213812Y-47705685D01*
X99980197Y-47646407D01*
X99239605Y-48386999D01*
X98880395Y-48386999D01*
X98139803Y-47646407D01*
X97906188Y-47705685D01*
X97795441Y-47943874D01*
X97733289Y-48199092D01*
X97722124Y-48461532D01*
X93903000Y-48461532D01*
X93903000Y-47466802D01*
X98319408Y-47466802D01*
X99060000Y-48207394D01*
X99800592Y-47466802D01*
X99741314Y-47233187D01*
X99503125Y-47122440D01*
X99247907Y-47060288D01*
X98985467Y-47049123D01*
X98725893Y-47089370D01*
X98479158Y-47179485D01*
X98378686Y-47233187D01*
X98319408Y-47466802D01*
X93903000Y-47466802D01*
X93903000Y-43270664D01*
X97726500Y-43270664D01*
X97726500Y-43533340D01*
X97777746Y-43790970D01*
X97878268Y-44033651D01*
X98024203Y-44252059D01*
X98209943Y-44437799D01*
X98428351Y-44583734D01*
X98671032Y-44684256D01*
X98928662Y-44735502D01*
X99191338Y-44735502D01*
X99448968Y-44684256D01*
X99691649Y-44583734D01*
X99910057Y-44437799D01*
X100095797Y-44252059D01*
X100197266Y-44100198D01*
X107209408Y-44100198D01*
X107268686Y-44333813D01*
X107506875Y-44444560D01*
X107762093Y-44506712D01*
X108024533Y-44517877D01*
X108284107Y-44477630D01*
X108530842Y-44387515D01*
X108631314Y-44333813D01*
X108690592Y-44100198D01*
X107950000Y-43359606D01*
X107209408Y-44100198D01*
X100197266Y-44100198D01*
X100241732Y-44033651D01*
X100342254Y-43790970D01*
X100393500Y-43533340D01*
X100393500Y-43270664D01*
X100390292Y-43254534D01*
X106612124Y-43254534D01*
X106652371Y-43514108D01*
X106742486Y-43760843D01*
X106796188Y-43861315D01*
X107029803Y-43920593D01*
X107770395Y-43180001D01*
X108129605Y-43180001D01*
X108870197Y-43920593D01*
X109103812Y-43861315D01*
X109214559Y-43623126D01*
X109276711Y-43367908D01*
X109287876Y-43105468D01*
X109247629Y-42845894D01*
X109157514Y-42599159D01*
X109103812Y-42498687D01*
X108870197Y-42439409D01*
X108129605Y-43180001D01*
X107770395Y-43180001D01*
X107029803Y-42439409D01*
X106796188Y-42498687D01*
X106685441Y-42736876D01*
X106623289Y-42992094D01*
X106612124Y-43254534D01*
X100390292Y-43254534D01*
X100342254Y-43013034D01*
X100241732Y-42770353D01*
X100095797Y-42551945D01*
X99910057Y-42366205D01*
X99712793Y-42234398D01*
X99060000Y-41581605D01*
X98407207Y-42234398D01*
X98209943Y-42366205D01*
X98024203Y-42551945D01*
X97878268Y-42770353D01*
X97777746Y-43013034D01*
X97726500Y-43270664D01*
X93903000Y-43270664D01*
X93903000Y-41476533D01*
X97722124Y-41476533D01*
X97762371Y-41736107D01*
X97852486Y-41982842D01*
X97906188Y-42083314D01*
X98139803Y-42142592D01*
X98880395Y-41402000D01*
X99239605Y-41402000D01*
X99980197Y-42142592D01*
X100213812Y-42083314D01*
X100324559Y-41845125D01*
X100386711Y-41589907D01*
X100397876Y-41327467D01*
X100357629Y-41067893D01*
X100350605Y-41048661D01*
X106616500Y-41048661D01*
X106616500Y-41311337D01*
X106667746Y-41568967D01*
X106768268Y-41811648D01*
X106914203Y-42030056D01*
X107099943Y-42215796D01*
X107297207Y-42347603D01*
X107950000Y-43000396D01*
X108602793Y-42347603D01*
X108800057Y-42215796D01*
X108985797Y-42030056D01*
X109131732Y-41811648D01*
X109232254Y-41568967D01*
X109283500Y-41311337D01*
X109283500Y-41048661D01*
X109232254Y-40791031D01*
X109131732Y-40548350D01*
X108985797Y-40329942D01*
X108800057Y-40144202D01*
X108581649Y-39998267D01*
X108338968Y-39897745D01*
X108081338Y-39846499D01*
X107818662Y-39846499D01*
X107561032Y-39897745D01*
X107318351Y-39998267D01*
X107099943Y-40144202D01*
X106914203Y-40329942D01*
X106768268Y-40548350D01*
X106667746Y-40791031D01*
X106616500Y-41048661D01*
X100350605Y-41048661D01*
X100267514Y-40821158D01*
X100213812Y-40720686D01*
X99980197Y-40661408D01*
X99239605Y-41402000D01*
X98880395Y-41402000D01*
X98139803Y-40661408D01*
X97906188Y-40720686D01*
X97795441Y-40958875D01*
X97733289Y-41214093D01*
X97722124Y-41476533D01*
X93903000Y-41476533D01*
X93903000Y-40481803D01*
X98319408Y-40481803D01*
X99060000Y-41222395D01*
X99800592Y-40481803D01*
X99741314Y-40248188D01*
X99503125Y-40137441D01*
X99247907Y-40075289D01*
X98985467Y-40064124D01*
X98725893Y-40104371D01*
X98479158Y-40194486D01*
X98378686Y-40248188D01*
X98319408Y-40481803D01*
X93903000Y-40481803D01*
X93903000Y-38230000D01*
X98196928Y-38230000D01*
X98209188Y-38354482D01*
X98245498Y-38474180D01*
X98304463Y-38584494D01*
X98383815Y-38681185D01*
X98480506Y-38760537D01*
X98590820Y-38819502D01*
X98710518Y-38855812D01*
X98835000Y-38868072D01*
X100299250Y-38865000D01*
X100458000Y-38706250D01*
X100458000Y-36607000D01*
X100712000Y-36607000D01*
X100712000Y-38706250D01*
X100870750Y-38865000D01*
X102335000Y-38868072D01*
X102459482Y-38855812D01*
X102579180Y-38819502D01*
X102689494Y-38760537D01*
X102786185Y-38681185D01*
X102865537Y-38584494D01*
X102924502Y-38474180D01*
X102960812Y-38354482D01*
X102973072Y-38230000D01*
X102970734Y-37115198D01*
X107209408Y-37115198D01*
X107268686Y-37348813D01*
X107506875Y-37459560D01*
X107762093Y-37521712D01*
X108024533Y-37532877D01*
X108284107Y-37492630D01*
X108530842Y-37402515D01*
X108631314Y-37348813D01*
X108690592Y-37115198D01*
X107950000Y-36374606D01*
X107209408Y-37115198D01*
X102970734Y-37115198D01*
X102970000Y-36765750D01*
X102811250Y-36607000D01*
X100712000Y-36607000D01*
X100458000Y-36607000D01*
X98358750Y-36607000D01*
X98200000Y-36765750D01*
X98196928Y-38230000D01*
X93903000Y-38230000D01*
X93903000Y-35379700D01*
X93940097Y-35424903D01*
X94169382Y-35613073D01*
X94430972Y-35752896D01*
X94714814Y-35838999D01*
X95010000Y-35868072D01*
X96760000Y-35868072D01*
X97055186Y-35838999D01*
X97339028Y-35752896D01*
X97600618Y-35613073D01*
X97829903Y-35424903D01*
X98018073Y-35195618D01*
X98157896Y-34934028D01*
X98197085Y-34804840D01*
X98200000Y-36194250D01*
X98358750Y-36353000D01*
X100458000Y-36353000D01*
X100458000Y-34253750D01*
X100712000Y-34253750D01*
X100712000Y-36353000D01*
X102811250Y-36353000D01*
X102894716Y-36269534D01*
X106612124Y-36269534D01*
X106652371Y-36529108D01*
X106742486Y-36775843D01*
X106796188Y-36876315D01*
X107029803Y-36935593D01*
X107770395Y-36195001D01*
X108129605Y-36195001D01*
X108870197Y-36935593D01*
X109103812Y-36876315D01*
X109214559Y-36638126D01*
X109276711Y-36382908D01*
X109287876Y-36120468D01*
X109247629Y-35860894D01*
X109157514Y-35614159D01*
X109103812Y-35513687D01*
X108870197Y-35454409D01*
X108129605Y-36195001D01*
X107770395Y-36195001D01*
X107029803Y-35454409D01*
X106796188Y-35513687D01*
X106685441Y-35751876D01*
X106623289Y-36007094D01*
X106612124Y-36269534D01*
X102894716Y-36269534D01*
X102970000Y-36194250D01*
X102973072Y-34730000D01*
X102960812Y-34605518D01*
X102924502Y-34485820D01*
X102865537Y-34375506D01*
X102786185Y-34278815D01*
X102689494Y-34199463D01*
X102579180Y-34140498D01*
X102459482Y-34104188D01*
X102335000Y-34091928D01*
X100870750Y-34095000D01*
X100712000Y-34253750D01*
X100458000Y-34253750D01*
X100299250Y-34095000D01*
X98835000Y-34091928D01*
X98710518Y-34104188D01*
X98590820Y-34140498D01*
X98480506Y-34199463D01*
X98383815Y-34278815D01*
X98304463Y-34375506D01*
X98263506Y-34452131D01*
X98273072Y-34355000D01*
X98273072Y-34063661D01*
X106616500Y-34063661D01*
X106616500Y-34326337D01*
X106667746Y-34583967D01*
X106768268Y-34826648D01*
X106914203Y-35045056D01*
X107099943Y-35230796D01*
X107297207Y-35362603D01*
X107950000Y-36015396D01*
X108602793Y-35362603D01*
X108800057Y-35230796D01*
X108985797Y-35045056D01*
X109131732Y-34826648D01*
X109232254Y-34583967D01*
X109283500Y-34326337D01*
X109283500Y-34063661D01*
X109232254Y-33806031D01*
X109131732Y-33563350D01*
X108985797Y-33344942D01*
X108800057Y-33159202D01*
X108581649Y-33013267D01*
X108338968Y-32912745D01*
X108081338Y-32861499D01*
X107818662Y-32861499D01*
X107561032Y-32912745D01*
X107318351Y-33013267D01*
X107099943Y-33159202D01*
X106914203Y-33344942D01*
X106768268Y-33563350D01*
X106667746Y-33806031D01*
X106616500Y-34063661D01*
X98273072Y-34063661D01*
X98273072Y-32605000D01*
X98243999Y-32309814D01*
X98157896Y-32025972D01*
X98018073Y-31764382D01*
X97829903Y-31535097D01*
X97600618Y-31346927D01*
X97339028Y-31207104D01*
X97055186Y-31121001D01*
X96760000Y-31091928D01*
X95010000Y-31091928D01*
X94714814Y-31121001D01*
X94430972Y-31207104D01*
X94169382Y-31346927D01*
X93940097Y-31535097D01*
X93903000Y-31580300D01*
X93903000Y-29730000D01*
X98196928Y-29730000D01*
X98196928Y-31230000D01*
X98223599Y-31500799D01*
X98302589Y-31761192D01*
X98430860Y-32001171D01*
X98603485Y-32211515D01*
X98813829Y-32384140D01*
X99053808Y-32512411D01*
X99314201Y-32591401D01*
X99585000Y-32618072D01*
X101585000Y-32618072D01*
X101855799Y-32591401D01*
X102116192Y-32512411D01*
X102356171Y-32384140D01*
X102566515Y-32211515D01*
X102739140Y-32001171D01*
X102867411Y-31761192D01*
X102946401Y-31500799D01*
X102973072Y-31230000D01*
X102973072Y-30130198D01*
X107209408Y-30130198D01*
X107268686Y-30363813D01*
X107506875Y-30474560D01*
X107762093Y-30536712D01*
X108024533Y-30547877D01*
X108284107Y-30507630D01*
X108530842Y-30417515D01*
X108631314Y-30363813D01*
X108690592Y-30130198D01*
X107950000Y-29389606D01*
X107209408Y-30130198D01*
X102973072Y-30130198D01*
X102973072Y-29730000D01*
X102946401Y-29459201D01*
X102893416Y-29284534D01*
X106612124Y-29284534D01*
X106652371Y-29544108D01*
X106742486Y-29790843D01*
X106796188Y-29891315D01*
X107029803Y-29950593D01*
X107770395Y-29210001D01*
X108129605Y-29210001D01*
X108870197Y-29950593D01*
X109103812Y-29891315D01*
X109214559Y-29653126D01*
X109276711Y-29397908D01*
X109287876Y-29135468D01*
X109247629Y-28875894D01*
X109157514Y-28629159D01*
X109103812Y-28528687D01*
X108870197Y-28469409D01*
X108129605Y-29210001D01*
X107770395Y-29210001D01*
X107029803Y-28469409D01*
X106796188Y-28528687D01*
X106685441Y-28766876D01*
X106623289Y-29022094D01*
X106612124Y-29284534D01*
X102893416Y-29284534D01*
X102867411Y-29198808D01*
X102739140Y-28958829D01*
X102566515Y-28748485D01*
X102356171Y-28575860D01*
X102116192Y-28447589D01*
X101855799Y-28368599D01*
X101585000Y-28341928D01*
X99585000Y-28341928D01*
X99314201Y-28368599D01*
X99053808Y-28447589D01*
X98813829Y-28575860D01*
X98603485Y-28748485D01*
X98430860Y-28958829D01*
X98302589Y-29198808D01*
X98223599Y-29459201D01*
X98196928Y-29730000D01*
X93903000Y-29730000D01*
X93903000Y-27078661D01*
X106616500Y-27078661D01*
X106616500Y-27341337D01*
X106667746Y-27598967D01*
X106768268Y-27841648D01*
X106914203Y-28060056D01*
X107099943Y-28245796D01*
X107297207Y-28377603D01*
X107950000Y-29030396D01*
X108602793Y-28377603D01*
X108800057Y-28245796D01*
X108985797Y-28060056D01*
X109131732Y-27841648D01*
X109232254Y-27598967D01*
X109283500Y-27341337D01*
X109283500Y-27078661D01*
X109232254Y-26821031D01*
X109131732Y-26578350D01*
X108985797Y-26359942D01*
X108800057Y-26174202D01*
X108581649Y-26028267D01*
X108338968Y-25927745D01*
X108081338Y-25876499D01*
X107818662Y-25876499D01*
X107561032Y-25927745D01*
X107318351Y-26028267D01*
X107099943Y-26174202D01*
X106914203Y-26359942D01*
X106768268Y-26578350D01*
X106667746Y-26821031D01*
X106616500Y-27078661D01*
X93903000Y-27078661D01*
X93903000Y-25323000D01*
X113107001Y-25323000D01*
X113107000Y-123013000D01*
G37*
%TD.AperFunction*%
M02*
