%TF.GenerationSoftware,KiCad,Pcbnew,5.1.10*%
%TF.CreationDate,2021-12-13T09:12:55+01:00*%
%TF.ProjectId,sensor_board,73656e73-6f72-45f6-926f-6172642e6b69,rev?*%
%TF.SameCoordinates,Original*%
%TF.FileFunction,Legend,Top*%
%TF.FilePolarity,Positive*%
%FSLAX46Y46*%
G04 Gerber Fmt 4.6, Leading zero omitted, Abs format (unit mm)*
G04 Created by KiCad (PCBNEW 5.1.10) date 2021-12-13 09:12:55*
%MOMM*%
%LPD*%
G01*
G04 APERTURE LIST*
%ADD10C,0.300000*%
%ADD11C,0.150000*%
%ADD12C,0.100000*%
%ADD13C,0.120000*%
%ADD14O,11.300000X7.000000*%
%ADD15C,7.000000*%
%ADD16R,1.500000X1.500000*%
%ADD17C,1.500000*%
%ADD18C,3.250000*%
%ADD19O,1.700000X1.700000*%
%ADD20R,1.700000X1.700000*%
G04 APERTURE END LIST*
D10*
X105567442Y-79830871D02*
X105162680Y-78964204D01*
X104757919Y-79830871D01*
X103381728Y-78964204D02*
X103381728Y-79645157D01*
X103462680Y-79768966D01*
X103624585Y-79830871D01*
X103948395Y-79830871D01*
X104110300Y-79768966D01*
X103381728Y-79026109D02*
X103543633Y-78964204D01*
X103948395Y-78964204D01*
X104110300Y-79026109D01*
X104191252Y-79149919D01*
X104191252Y-79273728D01*
X104110300Y-79397538D01*
X103948395Y-79459442D01*
X103543633Y-79459442D01*
X103381728Y-79521347D01*
X102572204Y-78964204D02*
X102572204Y-79830871D01*
X102572204Y-79707061D02*
X102491252Y-79768966D01*
X102329347Y-79830871D01*
X102086490Y-79830871D01*
X101924585Y-79768966D01*
X101843633Y-79645157D01*
X101843633Y-78964204D01*
X101843633Y-79645157D02*
X101762680Y-79768966D01*
X101600776Y-79830871D01*
X101357919Y-79830871D01*
X101196014Y-79768966D01*
X101115061Y-79645157D01*
X101115061Y-78964204D01*
X101114000Y-81343000D02*
X101114000Y-78957940D01*
X105183816Y-78955842D02*
G75*
G02*
X106125955Y-78883232I484404J-136718D01*
G01*
X106148280Y-78919840D02*
G75*
G02*
X106246668Y-81062123I-2146971J-1172004D01*
G01*
X103001980Y-81325302D02*
X102859122Y-81396731D01*
X102573408Y-81396731D01*
X102430551Y-81325302D01*
X102359122Y-81182445D01*
X102359122Y-80611017D01*
X102430551Y-80468160D01*
X102573408Y-80396731D01*
X102859122Y-80396731D01*
X103001980Y-80468160D01*
X103073408Y-80611017D01*
X103073408Y-80753874D01*
X102359122Y-80896731D01*
X103644837Y-81325302D02*
X103787694Y-81396731D01*
X104073408Y-81396731D01*
X104216265Y-81325302D01*
X104287694Y-81182445D01*
X104287694Y-81111017D01*
X104216265Y-80968160D01*
X104073408Y-80896731D01*
X103859122Y-80896731D01*
X103716265Y-80825302D01*
X103644837Y-80682445D01*
X103644837Y-80611017D01*
X103716265Y-80468160D01*
X103859122Y-80396731D01*
X104073408Y-80396731D01*
X104216265Y-80468160D01*
X105144837Y-81396731D02*
X105001980Y-81325302D01*
X104930551Y-81253874D01*
X104859122Y-81111017D01*
X104859122Y-80682445D01*
X104930551Y-80539588D01*
X105001980Y-80468160D01*
X105144837Y-80396731D01*
X105359122Y-80396731D01*
X105501980Y-80468160D01*
X105573408Y-80539588D01*
X105644837Y-80682445D01*
X105644837Y-81111017D01*
X105573408Y-81253874D01*
X105501980Y-81325302D01*
X105359122Y-81396731D01*
X105144837Y-81396731D01*
X101115151Y-81392615D02*
X101115151Y-80092615D01*
X101758008Y-81392615D02*
X101758008Y-80711662D01*
X101686580Y-80587853D01*
X101543722Y-80525948D01*
X101329437Y-80525948D01*
X101186580Y-80587853D01*
X101115151Y-80649758D01*
D11*
X129812774Y-93226988D02*
X129105668Y-92519881D01*
X129375042Y-92250507D01*
X129476057Y-92216835D01*
X129543400Y-92216835D01*
X129644416Y-92250507D01*
X129745431Y-92351522D01*
X129779103Y-92452538D01*
X129779103Y-92519881D01*
X129745431Y-92620896D01*
X129476057Y-92890270D01*
X130519881Y-92519881D02*
X129812774Y-91812774D01*
X131260660Y-91779103D02*
X130688240Y-91678087D01*
X130856599Y-92183164D02*
X130149492Y-91476057D01*
X130418866Y-91206683D01*
X130519881Y-91173011D01*
X130587225Y-91173011D01*
X130688240Y-91206683D01*
X130789255Y-91307698D01*
X130822927Y-91408713D01*
X130822927Y-91476057D01*
X130789255Y-91577072D01*
X130519881Y-91846446D01*
D12*
G36*
X170500000Y-92500000D02*
G01*
X151800000Y-92500000D01*
X151800000Y-78300000D01*
X170500000Y-78300000D01*
X170500000Y-92500000D01*
G37*
X170500000Y-92500000D02*
X151800000Y-92500000D01*
X151800000Y-78300000D01*
X170500000Y-78300000D01*
X170500000Y-92500000D01*
G36*
X126600000Y-92500000D02*
G01*
X107900000Y-92500000D01*
X107900000Y-78300000D01*
X126600000Y-78300000D01*
X126600000Y-92500000D01*
G37*
X126600000Y-92500000D02*
X107900000Y-92500000D01*
X107900000Y-78300000D01*
X126600000Y-78300000D01*
X126600000Y-92500000D01*
D11*
X159545357Y-93804761D02*
X159688214Y-93852380D01*
X159926309Y-93852380D01*
X160021547Y-93804761D01*
X160069166Y-93757142D01*
X160116785Y-93661904D01*
X160116785Y-93566666D01*
X160069166Y-93471428D01*
X160021547Y-93423809D01*
X159926309Y-93376190D01*
X159735833Y-93328571D01*
X159640595Y-93280952D01*
X159592976Y-93233333D01*
X159545357Y-93138095D01*
X159545357Y-93042857D01*
X159592976Y-92947619D01*
X159640595Y-92900000D01*
X159735833Y-92852380D01*
X159973928Y-92852380D01*
X160116785Y-92900000D01*
X160926309Y-93804761D02*
X160831071Y-93852380D01*
X160640595Y-93852380D01*
X160545357Y-93804761D01*
X160497738Y-93709523D01*
X160497738Y-93328571D01*
X160545357Y-93233333D01*
X160640595Y-93185714D01*
X160831071Y-93185714D01*
X160926309Y-93233333D01*
X160973928Y-93328571D01*
X160973928Y-93423809D01*
X160497738Y-93519047D01*
X161402500Y-93185714D02*
X161402500Y-93852380D01*
X161402500Y-93280952D02*
X161450119Y-93233333D01*
X161545357Y-93185714D01*
X161688214Y-93185714D01*
X161783452Y-93233333D01*
X161831071Y-93328571D01*
X161831071Y-93852380D01*
X162259642Y-93804761D02*
X162354880Y-93852380D01*
X162545357Y-93852380D01*
X162640595Y-93804761D01*
X162688214Y-93709523D01*
X162688214Y-93661904D01*
X162640595Y-93566666D01*
X162545357Y-93519047D01*
X162402500Y-93519047D01*
X162307261Y-93471428D01*
X162259642Y-93376190D01*
X162259642Y-93328571D01*
X162307261Y-93233333D01*
X162402500Y-93185714D01*
X162545357Y-93185714D01*
X162640595Y-93233333D01*
X163259642Y-93852380D02*
X163164404Y-93804761D01*
X163116785Y-93757142D01*
X163069166Y-93661904D01*
X163069166Y-93376190D01*
X163116785Y-93280952D01*
X163164404Y-93233333D01*
X163259642Y-93185714D01*
X163402500Y-93185714D01*
X163497738Y-93233333D01*
X163545357Y-93280952D01*
X163592976Y-93376190D01*
X163592976Y-93661904D01*
X163545357Y-93757142D01*
X163497738Y-93804761D01*
X163402500Y-93852380D01*
X163259642Y-93852380D01*
X164021547Y-93852380D02*
X164021547Y-93185714D01*
X164021547Y-93376190D02*
X164069166Y-93280952D01*
X164116785Y-93233333D01*
X164212023Y-93185714D01*
X164307261Y-93185714D01*
X165402500Y-93852380D02*
X165402500Y-92852380D01*
X165402500Y-93233333D02*
X165497738Y-93185714D01*
X165688214Y-93185714D01*
X165783452Y-93233333D01*
X165831071Y-93280952D01*
X165878690Y-93376190D01*
X165878690Y-93661904D01*
X165831071Y-93757142D01*
X165783452Y-93804761D01*
X165688214Y-93852380D01*
X165497738Y-93852380D01*
X165402500Y-93804761D01*
X166450119Y-93852380D02*
X166354880Y-93804761D01*
X166307261Y-93757142D01*
X166259642Y-93661904D01*
X166259642Y-93376190D01*
X166307261Y-93280952D01*
X166354880Y-93233333D01*
X166450119Y-93185714D01*
X166592976Y-93185714D01*
X166688214Y-93233333D01*
X166735833Y-93280952D01*
X166783452Y-93376190D01*
X166783452Y-93661904D01*
X166735833Y-93757142D01*
X166688214Y-93804761D01*
X166592976Y-93852380D01*
X166450119Y-93852380D01*
X167640595Y-93852380D02*
X167640595Y-93328571D01*
X167592976Y-93233333D01*
X167497738Y-93185714D01*
X167307261Y-93185714D01*
X167212023Y-93233333D01*
X167640595Y-93804761D02*
X167545357Y-93852380D01*
X167307261Y-93852380D01*
X167212023Y-93804761D01*
X167164404Y-93709523D01*
X167164404Y-93614285D01*
X167212023Y-93519047D01*
X167307261Y-93471428D01*
X167545357Y-93471428D01*
X167640595Y-93423809D01*
X168116785Y-93852380D02*
X168116785Y-93185714D01*
X168116785Y-93376190D02*
X168164404Y-93280952D01*
X168212023Y-93233333D01*
X168307261Y-93185714D01*
X168402500Y-93185714D01*
X169164404Y-93852380D02*
X169164404Y-92852380D01*
X169164404Y-93804761D02*
X169069166Y-93852380D01*
X168878690Y-93852380D01*
X168783452Y-93804761D01*
X168735833Y-93757142D01*
X168688214Y-93661904D01*
X168688214Y-93376190D01*
X168735833Y-93280952D01*
X168783452Y-93233333D01*
X168878690Y-93185714D01*
X169069166Y-93185714D01*
X169164404Y-93233333D01*
X109235595Y-93852380D02*
X109235595Y-92852380D01*
X109568928Y-93566666D01*
X109902261Y-92852380D01*
X109902261Y-93852380D01*
X110378452Y-93852380D02*
X110378452Y-92852380D01*
X111426071Y-93852380D02*
X111092738Y-93376190D01*
X110854642Y-93852380D02*
X110854642Y-92852380D01*
X111235595Y-92852380D01*
X111330833Y-92900000D01*
X111378452Y-92947619D01*
X111426071Y-93042857D01*
X111426071Y-93185714D01*
X111378452Y-93280952D01*
X111330833Y-93328571D01*
X111235595Y-93376190D01*
X110854642Y-93376190D01*
X112045119Y-92852380D02*
X112235595Y-92852380D01*
X112330833Y-92900000D01*
X112426071Y-92995238D01*
X112473690Y-93185714D01*
X112473690Y-93519047D01*
X112426071Y-93709523D01*
X112330833Y-93804761D01*
X112235595Y-93852380D01*
X112045119Y-93852380D01*
X111949880Y-93804761D01*
X111854642Y-93709523D01*
X111807023Y-93519047D01*
X111807023Y-93185714D01*
X111854642Y-92995238D01*
X111949880Y-92900000D01*
X112045119Y-92852380D01*
X112854642Y-93804761D02*
X112997500Y-93852380D01*
X113235595Y-93852380D01*
X113330833Y-93804761D01*
X113378452Y-93757142D01*
X113426071Y-93661904D01*
X113426071Y-93566666D01*
X113378452Y-93471428D01*
X113330833Y-93423809D01*
X113235595Y-93376190D01*
X113045119Y-93328571D01*
X112949880Y-93280952D01*
X112902261Y-93233333D01*
X112854642Y-93138095D01*
X112854642Y-93042857D01*
X112902261Y-92947619D01*
X112949880Y-92900000D01*
X113045119Y-92852380D01*
X113283214Y-92852380D01*
X113426071Y-92900000D01*
X114330833Y-93852380D02*
X113854642Y-93852380D01*
X113854642Y-92852380D01*
X114616547Y-93566666D02*
X115092738Y-93566666D01*
X114521309Y-93852380D02*
X114854642Y-92852380D01*
X115187976Y-93852380D01*
X115378452Y-92852380D02*
X115711785Y-93852380D01*
X116045119Y-92852380D01*
X117045119Y-93185714D02*
X117283214Y-93852380D01*
X117521309Y-93185714D01*
X118092738Y-92852380D02*
X118187976Y-92852380D01*
X118283214Y-92900000D01*
X118330833Y-92947619D01*
X118378452Y-93042857D01*
X118426071Y-93233333D01*
X118426071Y-93471428D01*
X118378452Y-93661904D01*
X118330833Y-93757142D01*
X118283214Y-93804761D01*
X118187976Y-93852380D01*
X118092738Y-93852380D01*
X117997500Y-93804761D01*
X117949880Y-93757142D01*
X117902261Y-93661904D01*
X117854642Y-93471428D01*
X117854642Y-93233333D01*
X117902261Y-93042857D01*
X117949880Y-92947619D01*
X117997500Y-92900000D01*
X118092738Y-92852380D01*
X118854642Y-93757142D02*
X118902261Y-93804761D01*
X118854642Y-93852380D01*
X118807023Y-93804761D01*
X118854642Y-93757142D01*
X118854642Y-93852380D01*
X119759404Y-93185714D02*
X119759404Y-93852380D01*
X119521309Y-92804761D02*
X119283214Y-93519047D01*
X119902261Y-93519047D01*
X147173011Y-91812774D02*
X147880118Y-91105668D01*
X148149492Y-91375042D01*
X148183164Y-91476057D01*
X148183164Y-91543400D01*
X148149492Y-91644416D01*
X148048477Y-91745431D01*
X147947461Y-91779103D01*
X147880118Y-91779103D01*
X147779103Y-91745431D01*
X147509729Y-91476057D01*
X147880118Y-92519881D02*
X148587225Y-91812774D01*
X148620896Y-93260660D02*
X148721912Y-92688240D01*
X148216835Y-92856599D02*
X148923942Y-92149492D01*
X149193316Y-92418866D01*
X149226988Y-92519881D01*
X149226988Y-92587225D01*
X149193316Y-92688240D01*
X149092301Y-92789255D01*
X148991286Y-92822927D01*
X148923942Y-92822927D01*
X148822927Y-92789255D01*
X148553553Y-92519881D01*
X131920000Y-78300000D02*
X131920000Y-94100000D01*
X146480000Y-78300000D02*
X146480000Y-94100000D01*
X170500000Y-78300000D02*
X170500000Y-94100000D01*
X107900000Y-78300000D02*
X107900000Y-94100000D01*
X179135641Y-91286603D02*
X178442820Y-91686603D01*
X179035641Y-91113397D02*
X179135641Y-91286603D01*
X178342820Y-91513397D02*
X179035641Y-91113397D01*
X178642820Y-92033013D02*
X178469615Y-92133013D01*
X178142820Y-91166987D02*
X178642820Y-92033013D01*
X177969615Y-91266987D02*
X178142820Y-91166987D01*
X177869615Y-91093782D02*
X175964359Y-92193782D01*
X178569615Y-92306218D02*
X177869615Y-91093782D01*
X176664359Y-93406218D02*
X178569615Y-92306218D01*
X175964359Y-92193782D02*
X176664359Y-93406218D01*
X180381217Y-93073806D02*
G75*
G02*
X179326793Y-92634631I-585175J80423D01*
G01*
X179467670Y-91217514D02*
G75*
G02*
X180381217Y-93073806I-881107J-1586564D01*
G01*
X179455778Y-91238931D02*
G75*
G02*
X179326793Y-92634631I-802188J-629675D01*
G01*
D10*
X183100000Y-94100000D02*
X183100000Y-92100000D01*
X183100000Y-94100000D02*
X181100000Y-94100000D01*
X181100000Y-92100000D02*
X183100000Y-94100000D01*
D13*
X133585000Y-94390000D02*
X144765000Y-94390000D01*
X144765000Y-94390000D02*
X144765000Y-89540000D01*
X133585000Y-78010000D02*
X144765000Y-78010000D01*
X144765000Y-86300000D02*
X144765000Y-78010000D01*
X133585000Y-86300000D02*
X133585000Y-78010000D01*
X133585000Y-94390000D02*
X133585000Y-89540000D01*
X133085000Y-80820000D02*
X133085000Y-82320000D01*
X129270000Y-84945000D02*
X131930000Y-84945000D01*
X129270000Y-84945000D02*
X129270000Y-90085000D01*
X129270000Y-90085000D02*
X131930000Y-90085000D01*
X131930000Y-84945000D02*
X131930000Y-90085000D01*
X131930000Y-82345000D02*
X131930000Y-83675000D01*
X130600000Y-82345000D02*
X131930000Y-82345000D01*
X149130000Y-87455000D02*
X146470000Y-87455000D01*
X149130000Y-87455000D02*
X149130000Y-82315000D01*
X149130000Y-82315000D02*
X146470000Y-82315000D01*
X146470000Y-87455000D02*
X146470000Y-82315000D01*
X146470000Y-90055000D02*
X146470000Y-88725000D01*
X147800000Y-90055000D02*
X146470000Y-90055000D01*
D11*
X138266666Y-93052380D02*
X138266666Y-93766666D01*
X138219047Y-93909523D01*
X138123809Y-94004761D01*
X137980952Y-94052380D01*
X137885714Y-94052380D01*
X138647619Y-93052380D02*
X139266666Y-93052380D01*
X138933333Y-93433333D01*
X139076190Y-93433333D01*
X139171428Y-93480952D01*
X139219047Y-93528571D01*
X139266666Y-93623809D01*
X139266666Y-93861904D01*
X139219047Y-93957142D01*
X139171428Y-94004761D01*
X139076190Y-94052380D01*
X138790476Y-94052380D01*
X138695238Y-94004761D01*
X138647619Y-93957142D01*
%LPC*%
D14*
X176850000Y-86200000D03*
D15*
X103700000Y-86200000D03*
D16*
X137265000Y-81570000D03*
D17*
X138535000Y-79030000D03*
X139805000Y-81570000D03*
X141075000Y-79030000D03*
D18*
X142985000Y-87920000D03*
X135365000Y-87920000D03*
D19*
X130600000Y-88755000D03*
X130600000Y-86215000D03*
D20*
X130600000Y-83675000D03*
D19*
X147800000Y-83645000D03*
X147800000Y-86185000D03*
D20*
X147800000Y-88725000D03*
M02*
