%TF.GenerationSoftware,KiCad,Pcbnew,5.1.10*%
%TF.CreationDate,2021-12-13T09:12:55+01:00*%
%TF.ProjectId,sensor_board,73656e73-6f72-45f6-926f-6172642e6b69,rev?*%
%TF.SameCoordinates,Original*%
%TF.FileFunction,Legend,Bot*%
%TF.FilePolarity,Positive*%
%FSLAX46Y46*%
G04 Gerber Fmt 4.6, Leading zero omitted, Abs format (unit mm)*
G04 Created by KiCad (PCBNEW 5.1.10) date 2021-12-13 09:12:55*
%MOMM*%
%LPD*%
G01*
G04 APERTURE LIST*
%ADD10C,0.150000*%
%ADD11C,0.300000*%
%ADD12O,11.300000X7.000000*%
%ADD13C,7.000000*%
%ADD14R,1.500000X1.500000*%
%ADD15C,1.500000*%
%ADD16C,3.250000*%
%ADD17O,1.700000X1.700000*%
%ADD18R,1.700000X1.700000*%
G04 APERTURE END LIST*
D10*
X156130952Y-85452380D02*
X156130952Y-86166666D01*
X156083333Y-86309523D01*
X155988095Y-86404761D01*
X155845238Y-86452380D01*
X155750000Y-86452380D01*
X157083333Y-86452380D02*
X156607142Y-86452380D01*
X156607142Y-85452380D01*
X157988095Y-86357142D02*
X157940476Y-86404761D01*
X157797619Y-86452380D01*
X157702380Y-86452380D01*
X157559523Y-86404761D01*
X157464285Y-86309523D01*
X157416666Y-86214285D01*
X157369047Y-86023809D01*
X157369047Y-85880952D01*
X157416666Y-85690476D01*
X157464285Y-85595238D01*
X157559523Y-85500000D01*
X157702380Y-85452380D01*
X157797619Y-85452380D01*
X157940476Y-85500000D01*
X157988095Y-85547619D01*
X158702380Y-85452380D02*
X158702380Y-86166666D01*
X158654761Y-86309523D01*
X158559523Y-86404761D01*
X158416666Y-86452380D01*
X158321428Y-86452380D01*
X159654761Y-86452380D02*
X159178571Y-86452380D01*
X159178571Y-85452380D01*
X160559523Y-86357142D02*
X160511904Y-86404761D01*
X160369047Y-86452380D01*
X160273809Y-86452380D01*
X160130952Y-86404761D01*
X160035714Y-86309523D01*
X159988095Y-86214285D01*
X159940476Y-86023809D01*
X159940476Y-85880952D01*
X159988095Y-85690476D01*
X160035714Y-85595238D01*
X160130952Y-85500000D01*
X160273809Y-85452380D01*
X160369047Y-85452380D01*
X160511904Y-85500000D01*
X160559523Y-85547619D01*
X161273809Y-85452380D02*
X161273809Y-86166666D01*
X161226190Y-86309523D01*
X161130952Y-86404761D01*
X160988095Y-86452380D01*
X160892857Y-86452380D01*
X162226190Y-86452380D02*
X161750000Y-86452380D01*
X161750000Y-85452380D01*
X163130952Y-86357142D02*
X163083333Y-86404761D01*
X162940476Y-86452380D01*
X162845238Y-86452380D01*
X162702380Y-86404761D01*
X162607142Y-86309523D01*
X162559523Y-86214285D01*
X162511904Y-86023809D01*
X162511904Y-85880952D01*
X162559523Y-85690476D01*
X162607142Y-85595238D01*
X162702380Y-85500000D01*
X162845238Y-85452380D01*
X162940476Y-85452380D01*
X163083333Y-85500000D01*
X163130952Y-85547619D01*
X163845238Y-85452380D02*
X163845238Y-86166666D01*
X163797619Y-86309523D01*
X163702380Y-86404761D01*
X163559523Y-86452380D01*
X163464285Y-86452380D01*
X164797619Y-86452380D02*
X164321428Y-86452380D01*
X164321428Y-85452380D01*
X165702380Y-86357142D02*
X165654761Y-86404761D01*
X165511904Y-86452380D01*
X165416666Y-86452380D01*
X165273809Y-86404761D01*
X165178571Y-86309523D01*
X165130952Y-86214285D01*
X165083333Y-86023809D01*
X165083333Y-85880952D01*
X165130952Y-85690476D01*
X165178571Y-85595238D01*
X165273809Y-85500000D01*
X165416666Y-85452380D01*
X165511904Y-85452380D01*
X165654761Y-85500000D01*
X165702380Y-85547619D01*
D11*
X179498020Y-93325302D02*
X179640877Y-93396731D01*
X179926591Y-93396731D01*
X180069448Y-93325302D01*
X180140877Y-93182445D01*
X180140877Y-92611017D01*
X180069448Y-92468160D01*
X179926591Y-92396731D01*
X179640877Y-92396731D01*
X179498020Y-92468160D01*
X179426591Y-92611017D01*
X179426591Y-92753874D01*
X180140877Y-92896731D01*
X178855162Y-93325302D02*
X178712305Y-93396731D01*
X178426591Y-93396731D01*
X178283734Y-93325302D01*
X178212305Y-93182445D01*
X178212305Y-93111017D01*
X178283734Y-92968160D01*
X178426591Y-92896731D01*
X178640877Y-92896731D01*
X178783734Y-92825302D01*
X178855162Y-92682445D01*
X178855162Y-92611017D01*
X178783734Y-92468160D01*
X178640877Y-92396731D01*
X178426591Y-92396731D01*
X178283734Y-92468160D01*
X177355162Y-93396731D02*
X177498020Y-93325302D01*
X177569448Y-93253874D01*
X177640877Y-93111017D01*
X177640877Y-92682445D01*
X177569448Y-92539588D01*
X177498020Y-92468160D01*
X177355162Y-92396731D01*
X177140877Y-92396731D01*
X176998020Y-92468160D01*
X176926591Y-92539588D01*
X176855162Y-92682445D01*
X176855162Y-93111017D01*
X176926591Y-93253874D01*
X176998020Y-93325302D01*
X177140877Y-93396731D01*
X177355162Y-93396731D01*
X176351720Y-90919840D02*
G75*
G03*
X176253332Y-93062123I2146971J-1172004D01*
G01*
X181386000Y-93343000D02*
X181386000Y-90957940D01*
X177316184Y-90955842D02*
G75*
G03*
X176374045Y-90883232I-484404J-136718D01*
G01*
X181384848Y-93392615D02*
X181384848Y-92092615D01*
X180741991Y-93392615D02*
X180741991Y-92711662D01*
X180813420Y-92587853D01*
X180956277Y-92525948D01*
X181170562Y-92525948D01*
X181313420Y-92587853D01*
X181384848Y-92649758D01*
X176932557Y-91830871D02*
X177337319Y-90964204D01*
X177742080Y-91830871D01*
X179118271Y-90964204D02*
X179118271Y-91645157D01*
X179037319Y-91768966D01*
X178875414Y-91830871D01*
X178551604Y-91830871D01*
X178389700Y-91768966D01*
X179118271Y-91026109D02*
X178956366Y-90964204D01*
X178551604Y-90964204D01*
X178389700Y-91026109D01*
X178308747Y-91149919D01*
X178308747Y-91273728D01*
X178389700Y-91397538D01*
X178551604Y-91459442D01*
X178956366Y-91459442D01*
X179118271Y-91521347D01*
X179927795Y-90964204D02*
X179927795Y-91830871D01*
X179927795Y-91707061D02*
X180008747Y-91768966D01*
X180170652Y-91830871D01*
X180413509Y-91830871D01*
X180575414Y-91768966D01*
X180656366Y-91645157D01*
X180656366Y-90964204D01*
X180656366Y-91645157D02*
X180737319Y-91768966D01*
X180899223Y-91830871D01*
X181142080Y-91830871D01*
X181303985Y-91768966D01*
X181384938Y-91645157D01*
X181384938Y-90964204D01*
%LPC*%
D12*
X176850000Y-86200000D03*
D13*
X103700000Y-86200000D03*
D14*
X137265000Y-81570000D03*
D15*
X138535000Y-79030000D03*
X139805000Y-81570000D03*
X141075000Y-79030000D03*
D16*
X142985000Y-87920000D03*
X135365000Y-87920000D03*
D17*
X130600000Y-88755000D03*
X130600000Y-86215000D03*
D18*
X130600000Y-83675000D03*
D17*
X147800000Y-83645000D03*
X147800000Y-86185000D03*
D18*
X147800000Y-88725000D03*
M02*
