%FSLAX45Y45*%
G04 Gerber Fmt 4.5, Leading zero omitted, Abs format (unit mm)*
G04 Created by KiCad (PCBNEW 5.1.10) date 2021-12-13 09:12:57*
%MOMM*%
%LPD*%
G01*
G04 APERTURE LIST*
%TA.AperFunction,Profile*%
%ADD10C,0.100000*%
%TD*%
%ADD11C,0.200000*%
%ADD12C,0.300000*%
G04 APERTURE END LIST*
D10*
X17980000Y-9510000D02*
X18410000Y-9510000D01*
X17980000Y-7730000D02*
X18410000Y-7730000D01*
X18410000Y-7730000D02*
X18410000Y-8600000D01*
X9860000Y-7730000D02*
X17980000Y-7730000D01*
X9860000Y-8600000D02*
X9860000Y-7730000D01*
X9860000Y-9510000D02*
X17980000Y-9510000D01*
X18410000Y-8600000D02*
X18410000Y-9510000D01*
X9860000Y-8600000D02*
X9860000Y-9510000D01*
D11*
X13374000Y-8629500D02*
X13699000Y-8954500D01*
X13699000Y-8629500D02*
X13374000Y-8954500D01*
X14136000Y-8629500D02*
X14461000Y-8954500D01*
X14461000Y-8629500D02*
X14136000Y-8954500D01*
D12*
X10141428Y-9980714D02*
X10141428Y-9680714D01*
X10212857Y-9680714D01*
X10255714Y-9695000D01*
X10284286Y-9723572D01*
X10298571Y-9752143D01*
X10312857Y-9809286D01*
X10312857Y-9852143D01*
X10298571Y-9909286D01*
X10284286Y-9937857D01*
X10255714Y-9966429D01*
X10212857Y-9980714D01*
X10141428Y-9980714D01*
X10441428Y-9980714D02*
X10441428Y-9780714D01*
X10441428Y-9837857D02*
X10455714Y-9809286D01*
X10470000Y-9795000D01*
X10498571Y-9780714D01*
X10527143Y-9780714D01*
X10627143Y-9980714D02*
X10627143Y-9780714D01*
X10627143Y-9680714D02*
X10612857Y-9695000D01*
X10627143Y-9709286D01*
X10641428Y-9695000D01*
X10627143Y-9680714D01*
X10627143Y-9709286D01*
X10812857Y-9980714D02*
X10784286Y-9966429D01*
X10770000Y-9937857D01*
X10770000Y-9680714D01*
X10970000Y-9980714D02*
X10941428Y-9966429D01*
X10927143Y-9937857D01*
X10927143Y-9680714D01*
X11312857Y-9980714D02*
X11312857Y-9680714D01*
X11412857Y-9895000D01*
X11512857Y-9680714D01*
X11512857Y-9980714D01*
X11784286Y-9980714D02*
X11784286Y-9823572D01*
X11770000Y-9795000D01*
X11741428Y-9780714D01*
X11684286Y-9780714D01*
X11655714Y-9795000D01*
X11784286Y-9966429D02*
X11755714Y-9980714D01*
X11684286Y-9980714D01*
X11655714Y-9966429D01*
X11641428Y-9937857D01*
X11641428Y-9909286D01*
X11655714Y-9880714D01*
X11684286Y-9866429D01*
X11755714Y-9866429D01*
X11784286Y-9852143D01*
X11927143Y-9780714D02*
X11927143Y-10080714D01*
X11927143Y-9795000D02*
X11955714Y-9780714D01*
X12012857Y-9780714D01*
X12041428Y-9795000D01*
X12055714Y-9809286D01*
X12070000Y-9837857D01*
X12070000Y-9923572D01*
X12055714Y-9952143D01*
X12041428Y-9966429D01*
X12012857Y-9980714D01*
X11955714Y-9980714D01*
X11927143Y-9966429D01*
X12198571Y-9952143D02*
X12212857Y-9966429D01*
X12198571Y-9980714D01*
X12184286Y-9966429D01*
X12198571Y-9952143D01*
X12198571Y-9980714D01*
X12198571Y-9795000D02*
X12212857Y-9809286D01*
X12198571Y-9823572D01*
X12184286Y-9809286D01*
X12198571Y-9795000D01*
X12198571Y-9823572D01*
X9530000Y-10312500D02*
X9855000Y-10637500D01*
X9855000Y-10312500D02*
X9530000Y-10637500D01*
X10112857Y-10310714D02*
X10298571Y-10310714D01*
X10198571Y-10425000D01*
X10241428Y-10425000D01*
X10270000Y-10439286D01*
X10284286Y-10453572D01*
X10298571Y-10482143D01*
X10298571Y-10553572D01*
X10284286Y-10582143D01*
X10270000Y-10596429D01*
X10241428Y-10610714D01*
X10155714Y-10610714D01*
X10127143Y-10596429D01*
X10112857Y-10582143D01*
X10427143Y-10582143D02*
X10441428Y-10596429D01*
X10427143Y-10610714D01*
X10412857Y-10596429D01*
X10427143Y-10582143D01*
X10427143Y-10610714D01*
X10555714Y-10339286D02*
X10570000Y-10325000D01*
X10598571Y-10310714D01*
X10670000Y-10310714D01*
X10698571Y-10325000D01*
X10712857Y-10339286D01*
X10727143Y-10367857D01*
X10727143Y-10396429D01*
X10712857Y-10439286D01*
X10541428Y-10610714D01*
X10727143Y-10610714D01*
X10998571Y-10310714D02*
X10855714Y-10310714D01*
X10841428Y-10453572D01*
X10855714Y-10439286D01*
X10884286Y-10425000D01*
X10955714Y-10425000D01*
X10984286Y-10439286D01*
X10998571Y-10453572D01*
X11012857Y-10482143D01*
X11012857Y-10553572D01*
X10998571Y-10582143D01*
X10984286Y-10596429D01*
X10955714Y-10610714D01*
X10884286Y-10610714D01*
X10855714Y-10596429D01*
X10841428Y-10582143D01*
X11198571Y-10310714D02*
X11227143Y-10310714D01*
X11255714Y-10325000D01*
X11270000Y-10339286D01*
X11284286Y-10367857D01*
X11298571Y-10425000D01*
X11298571Y-10496429D01*
X11284286Y-10553572D01*
X11270000Y-10582143D01*
X11255714Y-10596429D01*
X11227143Y-10610714D01*
X11198571Y-10610714D01*
X11170000Y-10596429D01*
X11155714Y-10582143D01*
X11141428Y-10553572D01*
X11127143Y-10496429D01*
X11127143Y-10425000D01*
X11141428Y-10367857D01*
X11155714Y-10339286D01*
X11170000Y-10325000D01*
X11198571Y-10310714D01*
X11427143Y-10610714D02*
X11427143Y-10410714D01*
X11427143Y-10439286D02*
X11441428Y-10425000D01*
X11470000Y-10410714D01*
X11512857Y-10410714D01*
X11541428Y-10425000D01*
X11555714Y-10453572D01*
X11555714Y-10610714D01*
X11555714Y-10453572D02*
X11570000Y-10425000D01*
X11598571Y-10410714D01*
X11641428Y-10410714D01*
X11670000Y-10425000D01*
X11684286Y-10453572D01*
X11684286Y-10610714D01*
X11827143Y-10610714D02*
X11827143Y-10410714D01*
X11827143Y-10439286D02*
X11841428Y-10425000D01*
X11870000Y-10410714D01*
X11912857Y-10410714D01*
X11941428Y-10425000D01*
X11955714Y-10453572D01*
X11955714Y-10610714D01*
X11955714Y-10453572D02*
X11970000Y-10425000D01*
X11998571Y-10410714D01*
X12041428Y-10410714D01*
X12070000Y-10425000D01*
X12084286Y-10453572D01*
X12084286Y-10610714D01*
X12670000Y-10296429D02*
X12412857Y-10682143D01*
X13055714Y-10310714D02*
X13084286Y-10310714D01*
X13112857Y-10325000D01*
X13127143Y-10339286D01*
X13141428Y-10367857D01*
X13155714Y-10425000D01*
X13155714Y-10496429D01*
X13141428Y-10553572D01*
X13127143Y-10582143D01*
X13112857Y-10596429D01*
X13084286Y-10610714D01*
X13055714Y-10610714D01*
X13027143Y-10596429D01*
X13012857Y-10582143D01*
X12998571Y-10553572D01*
X12984286Y-10496429D01*
X12984286Y-10425000D01*
X12998571Y-10367857D01*
X13012857Y-10339286D01*
X13027143Y-10325000D01*
X13055714Y-10310714D01*
X13284286Y-10582143D02*
X13298571Y-10596429D01*
X13284286Y-10610714D01*
X13270000Y-10596429D01*
X13284286Y-10582143D01*
X13284286Y-10610714D01*
X13584286Y-10610714D02*
X13412857Y-10610714D01*
X13498571Y-10610714D02*
X13498571Y-10310714D01*
X13470000Y-10353572D01*
X13441428Y-10382143D01*
X13412857Y-10396429D01*
X13698571Y-10339286D02*
X13712857Y-10325000D01*
X13741428Y-10310714D01*
X13812857Y-10310714D01*
X13841428Y-10325000D01*
X13855714Y-10339286D01*
X13870000Y-10367857D01*
X13870000Y-10396429D01*
X13855714Y-10439286D01*
X13684286Y-10610714D01*
X13870000Y-10610714D01*
X14041428Y-10439286D02*
X14012857Y-10425000D01*
X13998571Y-10410714D01*
X13984286Y-10382143D01*
X13984286Y-10367857D01*
X13998571Y-10339286D01*
X14012857Y-10325000D01*
X14041428Y-10310714D01*
X14098571Y-10310714D01*
X14127143Y-10325000D01*
X14141428Y-10339286D01*
X14155714Y-10367857D01*
X14155714Y-10382143D01*
X14141428Y-10410714D01*
X14127143Y-10425000D01*
X14098571Y-10439286D01*
X14041428Y-10439286D01*
X14012857Y-10453572D01*
X13998571Y-10467857D01*
X13984286Y-10496429D01*
X13984286Y-10553572D01*
X13998571Y-10582143D01*
X14012857Y-10596429D01*
X14041428Y-10610714D01*
X14098571Y-10610714D01*
X14127143Y-10596429D01*
X14141428Y-10582143D01*
X14155714Y-10553572D01*
X14155714Y-10496429D01*
X14141428Y-10467857D01*
X14127143Y-10453572D01*
X14098571Y-10439286D01*
X14341428Y-10310714D02*
X14370000Y-10310714D01*
X14398571Y-10325000D01*
X14412857Y-10339286D01*
X14427143Y-10367857D01*
X14441428Y-10425000D01*
X14441428Y-10496429D01*
X14427143Y-10553572D01*
X14412857Y-10582143D01*
X14398571Y-10596429D01*
X14370000Y-10610714D01*
X14341428Y-10610714D01*
X14312857Y-10596429D01*
X14298571Y-10582143D01*
X14284286Y-10553572D01*
X14270000Y-10496429D01*
X14270000Y-10425000D01*
X14284286Y-10367857D01*
X14298571Y-10339286D01*
X14312857Y-10325000D01*
X14341428Y-10310714D01*
X14555714Y-10310714D02*
X14555714Y-10367857D01*
X14670000Y-10310714D02*
X14670000Y-10367857D01*
X15112857Y-10725000D02*
X15098571Y-10710714D01*
X15070000Y-10667857D01*
X15055714Y-10639286D01*
X15041428Y-10596429D01*
X15027143Y-10525000D01*
X15027143Y-10467857D01*
X15041428Y-10396429D01*
X15055714Y-10353572D01*
X15070000Y-10325000D01*
X15098571Y-10282143D01*
X15112857Y-10267857D01*
X15212857Y-10339286D02*
X15227143Y-10325000D01*
X15255714Y-10310714D01*
X15327143Y-10310714D01*
X15355714Y-10325000D01*
X15370000Y-10339286D01*
X15384286Y-10367857D01*
X15384286Y-10396429D01*
X15370000Y-10439286D01*
X15198571Y-10610714D01*
X15384286Y-10610714D01*
X15741428Y-10610714D02*
X15741428Y-10310714D01*
X15870000Y-10610714D02*
X15870000Y-10453572D01*
X15855714Y-10425000D01*
X15827143Y-10410714D01*
X15784286Y-10410714D01*
X15755714Y-10425000D01*
X15741428Y-10439286D01*
X16055714Y-10610714D02*
X16027143Y-10596429D01*
X16012857Y-10582143D01*
X15998571Y-10553572D01*
X15998571Y-10467857D01*
X16012857Y-10439286D01*
X16027143Y-10425000D01*
X16055714Y-10410714D01*
X16098571Y-10410714D01*
X16127143Y-10425000D01*
X16141428Y-10439286D01*
X16155714Y-10467857D01*
X16155714Y-10553572D01*
X16141428Y-10582143D01*
X16127143Y-10596429D01*
X16098571Y-10610714D01*
X16055714Y-10610714D01*
X16327143Y-10610714D02*
X16298571Y-10596429D01*
X16284286Y-10567857D01*
X16284286Y-10310714D01*
X16555714Y-10596429D02*
X16527143Y-10610714D01*
X16470000Y-10610714D01*
X16441428Y-10596429D01*
X16427143Y-10567857D01*
X16427143Y-10453572D01*
X16441428Y-10425000D01*
X16470000Y-10410714D01*
X16527143Y-10410714D01*
X16555714Y-10425000D01*
X16570000Y-10453572D01*
X16570000Y-10482143D01*
X16427143Y-10510714D01*
X16684286Y-10596429D02*
X16712857Y-10610714D01*
X16770000Y-10610714D01*
X16798571Y-10596429D01*
X16812857Y-10567857D01*
X16812857Y-10553572D01*
X16798571Y-10525000D01*
X16770000Y-10510714D01*
X16727143Y-10510714D01*
X16698571Y-10496429D01*
X16684286Y-10467857D01*
X16684286Y-10453572D01*
X16698571Y-10425000D01*
X16727143Y-10410714D01*
X16770000Y-10410714D01*
X16798571Y-10425000D01*
X16912857Y-10725000D02*
X16927143Y-10710714D01*
X16955714Y-10667857D01*
X16970000Y-10639286D01*
X16984286Y-10596429D01*
X16998571Y-10525000D01*
X16998571Y-10467857D01*
X16984286Y-10396429D01*
X16970000Y-10353572D01*
X16955714Y-10325000D01*
X16927143Y-10282143D01*
X16912857Y-10267857D01*
X17455714Y-10725000D02*
X17441428Y-10710714D01*
X17412857Y-10667857D01*
X17398571Y-10639286D01*
X17384286Y-10596429D01*
X17370000Y-10525000D01*
X17370000Y-10467857D01*
X17384286Y-10396429D01*
X17398571Y-10353572D01*
X17412857Y-10325000D01*
X17441428Y-10282143D01*
X17455714Y-10267857D01*
X17570000Y-10410714D02*
X17570000Y-10610714D01*
X17570000Y-10439286D02*
X17584286Y-10425000D01*
X17612857Y-10410714D01*
X17655714Y-10410714D01*
X17684286Y-10425000D01*
X17698571Y-10453572D01*
X17698571Y-10610714D01*
X17884286Y-10610714D02*
X17855714Y-10596429D01*
X17841428Y-10582143D01*
X17827143Y-10553572D01*
X17827143Y-10467857D01*
X17841428Y-10439286D01*
X17855714Y-10425000D01*
X17884286Y-10410714D01*
X17927143Y-10410714D01*
X17955714Y-10425000D01*
X17970000Y-10439286D01*
X17984286Y-10467857D01*
X17984286Y-10553572D01*
X17970000Y-10582143D01*
X17955714Y-10596429D01*
X17927143Y-10610714D01*
X17884286Y-10610714D01*
X18070000Y-10410714D02*
X18184286Y-10410714D01*
X18112857Y-10310714D02*
X18112857Y-10567857D01*
X18127143Y-10596429D01*
X18155714Y-10610714D01*
X18184286Y-10610714D01*
X18512857Y-10410714D02*
X18512857Y-10710714D01*
X18512857Y-10425000D02*
X18541428Y-10410714D01*
X18598571Y-10410714D01*
X18627143Y-10425000D01*
X18641428Y-10439286D01*
X18655714Y-10467857D01*
X18655714Y-10553572D01*
X18641428Y-10582143D01*
X18627143Y-10596429D01*
X18598571Y-10610714D01*
X18541428Y-10610714D01*
X18512857Y-10596429D01*
X18827143Y-10610714D02*
X18798571Y-10596429D01*
X18784286Y-10567857D01*
X18784286Y-10310714D01*
X19070000Y-10610714D02*
X19070000Y-10453572D01*
X19055714Y-10425000D01*
X19027143Y-10410714D01*
X18970000Y-10410714D01*
X18941428Y-10425000D01*
X19070000Y-10596429D02*
X19041428Y-10610714D01*
X18970000Y-10610714D01*
X18941428Y-10596429D01*
X18927143Y-10567857D01*
X18927143Y-10539286D01*
X18941428Y-10510714D01*
X18970000Y-10496429D01*
X19041428Y-10496429D01*
X19070000Y-10482143D01*
X19170000Y-10410714D02*
X19284286Y-10410714D01*
X19212857Y-10310714D02*
X19212857Y-10567857D01*
X19227143Y-10596429D01*
X19255714Y-10610714D01*
X19284286Y-10610714D01*
X19498571Y-10596429D02*
X19470000Y-10610714D01*
X19412857Y-10610714D01*
X19384286Y-10596429D01*
X19370000Y-10567857D01*
X19370000Y-10453572D01*
X19384286Y-10425000D01*
X19412857Y-10410714D01*
X19470000Y-10410714D01*
X19498571Y-10425000D01*
X19512857Y-10453572D01*
X19512857Y-10482143D01*
X19370000Y-10510714D01*
X19770000Y-10610714D02*
X19770000Y-10310714D01*
X19770000Y-10596429D02*
X19741428Y-10610714D01*
X19684286Y-10610714D01*
X19655714Y-10596429D01*
X19641428Y-10582143D01*
X19627143Y-10553572D01*
X19627143Y-10467857D01*
X19641428Y-10439286D01*
X19655714Y-10425000D01*
X19684286Y-10410714D01*
X19741428Y-10410714D01*
X19770000Y-10425000D01*
X19884286Y-10725000D02*
X19898571Y-10710714D01*
X19927143Y-10667857D01*
X19941428Y-10639286D01*
X19955714Y-10596429D01*
X19970000Y-10525000D01*
X19970000Y-10467857D01*
X19955714Y-10396429D01*
X19941428Y-10353572D01*
X19927143Y-10325000D01*
X19898571Y-10282143D01*
X19884286Y-10267857D01*
M02*
