%TF.GenerationSoftware,KiCad,Pcbnew,5.1.10*%
%TF.CreationDate,2021-12-13T09:12:55+01:00*%
%TF.ProjectId,sensor_board,73656e73-6f72-45f6-926f-6172642e6b69,rev?*%
%TF.SameCoordinates,Original*%
%TF.FileFunction,Copper,L1,Top*%
%TF.FilePolarity,Positive*%
%FSLAX46Y46*%
G04 Gerber Fmt 4.6, Leading zero omitted, Abs format (unit mm)*
G04 Created by KiCad (PCBNEW 5.1.10) date 2021-12-13 09:12:55*
%MOMM*%
%LPD*%
G01*
G04 APERTURE LIST*
%TA.AperFunction,ComponentPad*%
%ADD10O,11.300000X7.000000*%
%TD*%
%TA.AperFunction,ComponentPad*%
%ADD11C,7.000000*%
%TD*%
%TA.AperFunction,ComponentPad*%
%ADD12R,1.500000X1.500000*%
%TD*%
%TA.AperFunction,ComponentPad*%
%ADD13C,1.500000*%
%TD*%
%TA.AperFunction,ComponentPad*%
%ADD14O,1.700000X1.700000*%
%TD*%
%TA.AperFunction,ComponentPad*%
%ADD15R,1.700000X1.700000*%
%TD*%
%TA.AperFunction,ViaPad*%
%ADD16C,0.800000*%
%TD*%
%TA.AperFunction,Conductor*%
%ADD17C,0.250000*%
%TD*%
%TA.AperFunction,Conductor*%
%ADD18C,0.254000*%
%TD*%
%TA.AperFunction,Conductor*%
%ADD19C,0.100000*%
%TD*%
G04 APERTURE END LIST*
D10*
X176850000Y-86200000D03*
D11*
X103700000Y-86200000D03*
D12*
X137265000Y-81570000D03*
D13*
X138535000Y-79030000D03*
X139805000Y-81570000D03*
X141075000Y-79030000D03*
D14*
X130600000Y-88755000D03*
X130600000Y-86215000D03*
D15*
X130600000Y-83675000D03*
D14*
X147800000Y-83645000D03*
X147800000Y-86185000D03*
D15*
X147800000Y-88725000D03*
D16*
X139100000Y-88000000D03*
X137850000Y-84750000D03*
X142350000Y-84750000D03*
X130850000Y-79500000D03*
X133850000Y-79000000D03*
D17*
X137265000Y-82090000D02*
X137265000Y-81570000D01*
X130600000Y-88755000D02*
X137265000Y-82090000D01*
X147800000Y-86215000D02*
X146815000Y-86215000D01*
X142170000Y-81570000D02*
X139805000Y-81570000D01*
X146815000Y-86215000D02*
X142170000Y-81570000D01*
X130600000Y-86215000D02*
X130600000Y-86000000D01*
X130600000Y-86215000D02*
X134000000Y-82815000D01*
X134000000Y-82815000D02*
X134000000Y-81600000D01*
X134000000Y-81600000D02*
X135400000Y-80200000D01*
X139905000Y-80200000D02*
X141075000Y-79030000D01*
X135400000Y-80200000D02*
X139905000Y-80200000D01*
D18*
X146251201Y-86726003D02*
X146274999Y-86755001D01*
X146303997Y-86778799D01*
X146390723Y-86849974D01*
X146495887Y-86906185D01*
X146646525Y-87131632D01*
X146778380Y-87263487D01*
X146705820Y-87285498D01*
X146595506Y-87344463D01*
X146498815Y-87423815D01*
X146419463Y-87520506D01*
X146360498Y-87630820D01*
X146324188Y-87750518D01*
X146311928Y-87875000D01*
X146315000Y-88439250D01*
X146473750Y-88598000D01*
X147673000Y-88598000D01*
X147673000Y-88578000D01*
X147927000Y-88578000D01*
X147927000Y-88598000D01*
X147947000Y-88598000D01*
X147947000Y-88852000D01*
X147927000Y-88852000D01*
X147927000Y-88872000D01*
X147673000Y-88872000D01*
X147673000Y-88852000D01*
X146473750Y-88852000D01*
X146315000Y-89010750D01*
X146311928Y-89575000D01*
X146324188Y-89699482D01*
X146360498Y-89819180D01*
X146419463Y-89929494D01*
X146498815Y-90026185D01*
X146555859Y-90073000D01*
X143692862Y-90073000D01*
X144055511Y-89922786D01*
X144425666Y-89675456D01*
X144740456Y-89360666D01*
X144987786Y-88990511D01*
X145158149Y-88579218D01*
X145245000Y-88142591D01*
X145245000Y-87697409D01*
X145158149Y-87260782D01*
X144987786Y-86849489D01*
X144740456Y-86479334D01*
X144425666Y-86164544D01*
X144055511Y-85917214D01*
X143644218Y-85746851D01*
X143207591Y-85660000D01*
X142762409Y-85660000D01*
X142325782Y-85746851D01*
X141914489Y-85917214D01*
X141544334Y-86164544D01*
X141229544Y-86479334D01*
X140982214Y-86849489D01*
X140811851Y-87260782D01*
X140725000Y-87697409D01*
X140725000Y-88142591D01*
X140811851Y-88579218D01*
X140982214Y-88990511D01*
X141229544Y-89360666D01*
X141544334Y-89675456D01*
X141914489Y-89922786D01*
X142277138Y-90073000D01*
X136072862Y-90073000D01*
X136435511Y-89922786D01*
X136805666Y-89675456D01*
X137120456Y-89360666D01*
X137367786Y-88990511D01*
X137538149Y-88579218D01*
X137625000Y-88142591D01*
X137625000Y-87697409D01*
X137538149Y-87260782D01*
X137367786Y-86849489D01*
X137120456Y-86479334D01*
X136805666Y-86164544D01*
X136435511Y-85917214D01*
X136024218Y-85746851D01*
X135587591Y-85660000D01*
X135142409Y-85660000D01*
X134705782Y-85746851D01*
X134666807Y-85762995D01*
X137471731Y-82958072D01*
X138015000Y-82958072D01*
X138139482Y-82945812D01*
X138259180Y-82909502D01*
X138369494Y-82850537D01*
X138466185Y-82771185D01*
X138545537Y-82674494D01*
X138604502Y-82564180D01*
X138640812Y-82444482D01*
X138651445Y-82336517D01*
X138729201Y-82452886D01*
X138922114Y-82645799D01*
X139148957Y-82797371D01*
X139401011Y-82901775D01*
X139668589Y-82955000D01*
X139941411Y-82955000D01*
X140208989Y-82901775D01*
X140461043Y-82797371D01*
X140687886Y-82645799D01*
X140880799Y-82452886D01*
X140962909Y-82330000D01*
X141855199Y-82330000D01*
X146251201Y-86726003D01*
%TA.AperFunction,Conductor*%
D19*
G36*
X146251201Y-86726003D02*
G01*
X146274999Y-86755001D01*
X146303997Y-86778799D01*
X146390723Y-86849974D01*
X146495887Y-86906185D01*
X146646525Y-87131632D01*
X146778380Y-87263487D01*
X146705820Y-87285498D01*
X146595506Y-87344463D01*
X146498815Y-87423815D01*
X146419463Y-87520506D01*
X146360498Y-87630820D01*
X146324188Y-87750518D01*
X146311928Y-87875000D01*
X146315000Y-88439250D01*
X146473750Y-88598000D01*
X147673000Y-88598000D01*
X147673000Y-88578000D01*
X147927000Y-88578000D01*
X147927000Y-88598000D01*
X147947000Y-88598000D01*
X147947000Y-88852000D01*
X147927000Y-88852000D01*
X147927000Y-88872000D01*
X147673000Y-88872000D01*
X147673000Y-88852000D01*
X146473750Y-88852000D01*
X146315000Y-89010750D01*
X146311928Y-89575000D01*
X146324188Y-89699482D01*
X146360498Y-89819180D01*
X146419463Y-89929494D01*
X146498815Y-90026185D01*
X146555859Y-90073000D01*
X143692862Y-90073000D01*
X144055511Y-89922786D01*
X144425666Y-89675456D01*
X144740456Y-89360666D01*
X144987786Y-88990511D01*
X145158149Y-88579218D01*
X145245000Y-88142591D01*
X145245000Y-87697409D01*
X145158149Y-87260782D01*
X144987786Y-86849489D01*
X144740456Y-86479334D01*
X144425666Y-86164544D01*
X144055511Y-85917214D01*
X143644218Y-85746851D01*
X143207591Y-85660000D01*
X142762409Y-85660000D01*
X142325782Y-85746851D01*
X141914489Y-85917214D01*
X141544334Y-86164544D01*
X141229544Y-86479334D01*
X140982214Y-86849489D01*
X140811851Y-87260782D01*
X140725000Y-87697409D01*
X140725000Y-88142591D01*
X140811851Y-88579218D01*
X140982214Y-88990511D01*
X141229544Y-89360666D01*
X141544334Y-89675456D01*
X141914489Y-89922786D01*
X142277138Y-90073000D01*
X136072862Y-90073000D01*
X136435511Y-89922786D01*
X136805666Y-89675456D01*
X137120456Y-89360666D01*
X137367786Y-88990511D01*
X137538149Y-88579218D01*
X137625000Y-88142591D01*
X137625000Y-87697409D01*
X137538149Y-87260782D01*
X137367786Y-86849489D01*
X137120456Y-86479334D01*
X136805666Y-86164544D01*
X136435511Y-85917214D01*
X136024218Y-85746851D01*
X135587591Y-85660000D01*
X135142409Y-85660000D01*
X134705782Y-85746851D01*
X134666807Y-85762995D01*
X137471731Y-82958072D01*
X138015000Y-82958072D01*
X138139482Y-82945812D01*
X138259180Y-82909502D01*
X138369494Y-82850537D01*
X138466185Y-82771185D01*
X138545537Y-82674494D01*
X138604502Y-82564180D01*
X138640812Y-82444482D01*
X138651445Y-82336517D01*
X138729201Y-82452886D01*
X138922114Y-82645799D01*
X139148957Y-82797371D01*
X139401011Y-82901775D01*
X139668589Y-82955000D01*
X139941411Y-82955000D01*
X140208989Y-82901775D01*
X140461043Y-82797371D01*
X140687886Y-82645799D01*
X140880799Y-82452886D01*
X140962909Y-82330000D01*
X141855199Y-82330000D01*
X146251201Y-86726003D01*
G37*
%TD.AperFunction*%
D18*
X137461549Y-78136157D02*
X137578005Y-78252613D01*
X137339140Y-78318137D01*
X137223240Y-78565116D01*
X137157750Y-78829960D01*
X137145188Y-79102492D01*
X137186035Y-79372238D01*
X137210512Y-79440000D01*
X135437322Y-79440000D01*
X135400000Y-79436324D01*
X135362677Y-79440000D01*
X135362667Y-79440000D01*
X135251014Y-79450997D01*
X135107753Y-79494454D01*
X134975723Y-79565026D01*
X134897976Y-79628832D01*
X134859999Y-79659999D01*
X134836201Y-79688997D01*
X133488998Y-81036201D01*
X133460000Y-81059999D01*
X133436202Y-81088997D01*
X133436201Y-81088998D01*
X133365026Y-81175724D01*
X133294454Y-81307754D01*
X133250998Y-81451015D01*
X133236324Y-81600000D01*
X133240001Y-81637332D01*
X133240000Y-82500198D01*
X132085000Y-83655198D01*
X132085000Y-83547998D01*
X131926252Y-83547998D01*
X132085000Y-83389250D01*
X132088072Y-82825000D01*
X132075812Y-82700518D01*
X132039502Y-82580820D01*
X131980537Y-82470506D01*
X131901185Y-82373815D01*
X131804494Y-82294463D01*
X131694180Y-82235498D01*
X131574482Y-82199188D01*
X131450000Y-82186928D01*
X130885750Y-82190000D01*
X130727000Y-82348750D01*
X130727000Y-83548000D01*
X130747000Y-83548000D01*
X130747000Y-83802000D01*
X130727000Y-83802000D01*
X130727000Y-83822000D01*
X130473000Y-83822000D01*
X130473000Y-83802000D01*
X130453000Y-83802000D01*
X130453000Y-83548000D01*
X130473000Y-83548000D01*
X130473000Y-82348750D01*
X130314250Y-82190000D01*
X129750000Y-82186928D01*
X129625518Y-82199188D01*
X129505820Y-82235498D01*
X129395506Y-82294463D01*
X129327000Y-82350684D01*
X129327000Y-78127000D01*
X137470706Y-78127000D01*
X137461549Y-78136157D01*
%TA.AperFunction,Conductor*%
D19*
G36*
X137461549Y-78136157D02*
G01*
X137578005Y-78252613D01*
X137339140Y-78318137D01*
X137223240Y-78565116D01*
X137157750Y-78829960D01*
X137145188Y-79102492D01*
X137186035Y-79372238D01*
X137210512Y-79440000D01*
X135437322Y-79440000D01*
X135400000Y-79436324D01*
X135362677Y-79440000D01*
X135362667Y-79440000D01*
X135251014Y-79450997D01*
X135107753Y-79494454D01*
X134975723Y-79565026D01*
X134897976Y-79628832D01*
X134859999Y-79659999D01*
X134836201Y-79688997D01*
X133488998Y-81036201D01*
X133460000Y-81059999D01*
X133436202Y-81088997D01*
X133436201Y-81088998D01*
X133365026Y-81175724D01*
X133294454Y-81307754D01*
X133250998Y-81451015D01*
X133236324Y-81600000D01*
X133240001Y-81637332D01*
X133240000Y-82500198D01*
X132085000Y-83655198D01*
X132085000Y-83547998D01*
X131926252Y-83547998D01*
X132085000Y-83389250D01*
X132088072Y-82825000D01*
X132075812Y-82700518D01*
X132039502Y-82580820D01*
X131980537Y-82470506D01*
X131901185Y-82373815D01*
X131804494Y-82294463D01*
X131694180Y-82235498D01*
X131574482Y-82199188D01*
X131450000Y-82186928D01*
X130885750Y-82190000D01*
X130727000Y-82348750D01*
X130727000Y-83548000D01*
X130747000Y-83548000D01*
X130747000Y-83802000D01*
X130727000Y-83802000D01*
X130727000Y-83822000D01*
X130473000Y-83822000D01*
X130473000Y-83802000D01*
X130453000Y-83802000D01*
X130453000Y-83548000D01*
X130473000Y-83548000D01*
X130473000Y-82348750D01*
X130314250Y-82190000D01*
X129750000Y-82186928D01*
X129625518Y-82199188D01*
X129505820Y-82235498D01*
X129395506Y-82294463D01*
X129327000Y-82350684D01*
X129327000Y-78127000D01*
X137470706Y-78127000D01*
X137461549Y-78136157D01*
G37*
%TD.AperFunction*%
D18*
X138728748Y-79015858D02*
X138714605Y-79030000D01*
X138728748Y-79044143D01*
X138549143Y-79223748D01*
X138535000Y-79209605D01*
X138520858Y-79223748D01*
X138341253Y-79044143D01*
X138355395Y-79030000D01*
X138341253Y-79015858D01*
X138520858Y-78836253D01*
X138535000Y-78850395D01*
X138549143Y-78836253D01*
X138728748Y-79015858D01*
%TA.AperFunction,Conductor*%
D19*
G36*
X138728748Y-79015858D02*
G01*
X138714605Y-79030000D01*
X138728748Y-79044143D01*
X138549143Y-79223748D01*
X138535000Y-79209605D01*
X138520858Y-79223748D01*
X138341253Y-79044143D01*
X138355395Y-79030000D01*
X138341253Y-79015858D01*
X138520858Y-78836253D01*
X138535000Y-78850395D01*
X138549143Y-78836253D01*
X138728748Y-79015858D01*
G37*
%TD.AperFunction*%
M02*
