%FSLAX45Y45*%
G04 Gerber Fmt 4.5, Leading zero omitted, Abs format (unit mm)*
G04 Created by KiCad (PCBNEW 5.1.10) date 2021-12-13 09:12:37*
%MOMM*%
%LPD*%
G01*
G04 APERTURE LIST*
%TA.AperFunction,Profile*%
%ADD10C,0.100000*%
%TD*%
%ADD11C,0.200000*%
%ADD12C,0.300000*%
G04 APERTURE END LIST*
D10*
X5969000Y-9601200D02*
X5969000Y-2184400D01*
X8458200Y-9601200D02*
X5969000Y-9601200D01*
X8458200Y-2184400D02*
X8458200Y-9601200D01*
X5969000Y-2184400D02*
X8458200Y-2184400D01*
D11*
D12*
X6250428Y-10071914D02*
X6250428Y-9771914D01*
X6321857Y-9771914D01*
X6364714Y-9786200D01*
X6393286Y-9814772D01*
X6407571Y-9843343D01*
X6421857Y-9900486D01*
X6421857Y-9943343D01*
X6407571Y-10000486D01*
X6393286Y-10029057D01*
X6364714Y-10057629D01*
X6321857Y-10071914D01*
X6250428Y-10071914D01*
X6550428Y-10071914D02*
X6550428Y-9871914D01*
X6550428Y-9929057D02*
X6564714Y-9900486D01*
X6579000Y-9886200D01*
X6607571Y-9871914D01*
X6636143Y-9871914D01*
X6736143Y-10071914D02*
X6736143Y-9871914D01*
X6736143Y-9771914D02*
X6721857Y-9786200D01*
X6736143Y-9800486D01*
X6750428Y-9786200D01*
X6736143Y-9771914D01*
X6736143Y-9800486D01*
X6921857Y-10071914D02*
X6893286Y-10057629D01*
X6879000Y-10029057D01*
X6879000Y-9771914D01*
X7079000Y-10071914D02*
X7050428Y-10057629D01*
X7036143Y-10029057D01*
X7036143Y-9771914D01*
X7421857Y-10071914D02*
X7421857Y-9771914D01*
X7521857Y-9986200D01*
X7621857Y-9771914D01*
X7621857Y-10071914D01*
X7893286Y-10071914D02*
X7893286Y-9914772D01*
X7879000Y-9886200D01*
X7850428Y-9871914D01*
X7793286Y-9871914D01*
X7764714Y-9886200D01*
X7893286Y-10057629D02*
X7864714Y-10071914D01*
X7793286Y-10071914D01*
X7764714Y-10057629D01*
X7750428Y-10029057D01*
X7750428Y-10000486D01*
X7764714Y-9971914D01*
X7793286Y-9957629D01*
X7864714Y-9957629D01*
X7893286Y-9943343D01*
X8036143Y-9871914D02*
X8036143Y-10171914D01*
X8036143Y-9886200D02*
X8064714Y-9871914D01*
X8121857Y-9871914D01*
X8150428Y-9886200D01*
X8164714Y-9900486D01*
X8179000Y-9929057D01*
X8179000Y-10014772D01*
X8164714Y-10043343D01*
X8150428Y-10057629D01*
X8121857Y-10071914D01*
X8064714Y-10071914D01*
X8036143Y-10057629D01*
X8307571Y-10043343D02*
X8321857Y-10057629D01*
X8307571Y-10071914D01*
X8293286Y-10057629D01*
X8307571Y-10043343D01*
X8307571Y-10071914D01*
X8307571Y-9886200D02*
X8321857Y-9900486D01*
X8307571Y-9914772D01*
X8293286Y-9900486D01*
X8307571Y-9886200D01*
X8307571Y-9914772D01*
M02*
