%TF.GenerationSoftware,KiCad,Pcbnew,5.1.10*%
%TF.CreationDate,2021-12-13T09:12:35+01:00*%
%TF.ProjectId,serialization_board,73657269-616c-4697-9a61-74696f6e5f62,rev?*%
%TF.SameCoordinates,Original*%
%TF.FileFunction,Legend,Top*%
%TF.FilePolarity,Positive*%
%FSLAX46Y46*%
G04 Gerber Fmt 4.6, Leading zero omitted, Abs format (unit mm)*
G04 Created by KiCad (PCBNEW 5.1.10) date 2021-12-13 09:12:35*
%MOMM*%
%LPD*%
G01*
G04 APERTURE LIST*
%ADD10C,0.150000*%
%ADD11C,0.100000*%
%ADD12C,0.120000*%
%ADD13O,1.700000X1.700000*%
%ADD14R,1.700000X1.700000*%
%ADD15C,1.397000*%
%ADD16C,7.000000*%
%ADD17O,1.600000X1.600000*%
%ADD18R,1.600000X1.600000*%
%ADD19R,1.500000X1.000000*%
%ADD20C,1.524000*%
G04 APERTURE END LIST*
D10*
X71397904Y-86796619D02*
X71397904Y-87796619D01*
X71874095Y-86796619D02*
X71874095Y-87796619D01*
X72112190Y-87796619D01*
X72255047Y-87749000D01*
X72350285Y-87653761D01*
X72397904Y-87558523D01*
X72445523Y-87368047D01*
X72445523Y-87225190D01*
X72397904Y-87034714D01*
X72350285Y-86939476D01*
X72255047Y-86844238D01*
X72112190Y-86796619D01*
X71874095Y-86796619D01*
X72874095Y-86891857D02*
X72921714Y-86844238D01*
X72874095Y-86796619D01*
X72826476Y-86844238D01*
X72874095Y-86891857D01*
X72874095Y-86796619D01*
X72874095Y-87415666D02*
X72921714Y-87368047D01*
X72874095Y-87320428D01*
X72826476Y-87368047D01*
X72874095Y-87415666D01*
X72874095Y-87320428D01*
D11*
G36*
X70738999Y-88392000D02*
G01*
X73405999Y-88392000D01*
X73659999Y-87503000D01*
X76199999Y-87503000D01*
X76199999Y-95504000D01*
X68071999Y-95504000D01*
X68071999Y-87503000D01*
X70484999Y-87503000D01*
X70738999Y-88392000D01*
G37*
X70738999Y-88392000D02*
X73405999Y-88392000D01*
X73659999Y-87503000D01*
X76199999Y-87503000D01*
X76199999Y-95504000D01*
X68071999Y-95504000D01*
X68071999Y-87503000D01*
X70484999Y-87503000D01*
X70738999Y-88392000D01*
D10*
X72350380Y-77771047D02*
X73064666Y-77771047D01*
X73207523Y-77818666D01*
X73302761Y-77913904D01*
X73350380Y-78056761D01*
X73350380Y-78152000D01*
X73350380Y-76818666D02*
X73350380Y-77294857D01*
X72350380Y-77294857D01*
X73255142Y-75913904D02*
X73302761Y-75961523D01*
X73350380Y-76104380D01*
X73350380Y-76199619D01*
X73302761Y-76342476D01*
X73207523Y-76437714D01*
X73112285Y-76485333D01*
X72921809Y-76532952D01*
X72778952Y-76532952D01*
X72588476Y-76485333D01*
X72493238Y-76437714D01*
X72398000Y-76342476D01*
X72350380Y-76199619D01*
X72350380Y-76104380D01*
X72398000Y-75961523D01*
X72445619Y-75913904D01*
X72350380Y-75199619D02*
X73064666Y-75199619D01*
X73207523Y-75247238D01*
X73302761Y-75342476D01*
X73350380Y-75485333D01*
X73350380Y-75580571D01*
X73350380Y-74247238D02*
X73350380Y-74723428D01*
X72350380Y-74723428D01*
X73255142Y-73342476D02*
X73302761Y-73390095D01*
X73350380Y-73532952D01*
X73350380Y-73628190D01*
X73302761Y-73771047D01*
X73207523Y-73866285D01*
X73112285Y-73913904D01*
X72921809Y-73961523D01*
X72778952Y-73961523D01*
X72588476Y-73913904D01*
X72493238Y-73866285D01*
X72398000Y-73771047D01*
X72350380Y-73628190D01*
X72350380Y-73532952D01*
X72398000Y-73390095D01*
X72445619Y-73342476D01*
X72350380Y-72628190D02*
X73064666Y-72628190D01*
X73207523Y-72675809D01*
X73302761Y-72771047D01*
X73350380Y-72913904D01*
X73350380Y-73009142D01*
X73350380Y-71675809D02*
X73350380Y-72152000D01*
X72350380Y-72152000D01*
X73255142Y-70771047D02*
X73302761Y-70818666D01*
X73350380Y-70961523D01*
X73350380Y-71056761D01*
X73302761Y-71199619D01*
X73207523Y-71294857D01*
X73112285Y-71342476D01*
X72921809Y-71390095D01*
X72778952Y-71390095D01*
X72588476Y-71342476D01*
X72493238Y-71294857D01*
X72398000Y-71199619D01*
X72350380Y-71056761D01*
X72350380Y-70961523D01*
X72398000Y-70818666D01*
X72445619Y-70771047D01*
X72350380Y-70056761D02*
X73064666Y-70056761D01*
X73207523Y-70104380D01*
X73302761Y-70199619D01*
X73350380Y-70342476D01*
X73350380Y-70437714D01*
X73350380Y-69104380D02*
X73350380Y-69580571D01*
X72350380Y-69580571D01*
X73255142Y-68199619D02*
X73302761Y-68247238D01*
X73350380Y-68390095D01*
X73350380Y-68485333D01*
X73302761Y-68628190D01*
X73207523Y-68723428D01*
X73112285Y-68771047D01*
X72921809Y-68818666D01*
X72778952Y-68818666D01*
X72588476Y-68771047D01*
X72493238Y-68723428D01*
X72398000Y-68628190D01*
X72350380Y-68485333D01*
X72350380Y-68390095D01*
X72398000Y-68247238D01*
X72445619Y-68199619D01*
D12*
X72838000Y-35513000D02*
X75498000Y-35513000D01*
X75498000Y-32913000D02*
X75498000Y-35513000D01*
X75498000Y-30313000D02*
X75498000Y-31643000D01*
X74168000Y-30313000D02*
X75498000Y-30313000D01*
X69155000Y-35493000D02*
X71815000Y-35493000D01*
X69155000Y-32893000D02*
X69155000Y-35493000D01*
X69155000Y-31623000D02*
X69155000Y-30293000D01*
X69155000Y-30293000D02*
X70485000Y-30293000D01*
X71688000Y-36516000D02*
X69028000Y-36516000D01*
X69028000Y-44196000D02*
X69028000Y-36516000D01*
X69028000Y-45466000D02*
X69028000Y-46796000D01*
X70358000Y-46796000D02*
X69028000Y-46796000D01*
X75498000Y-44196000D02*
X75498000Y-36516000D01*
X75498000Y-36516000D02*
X72838000Y-36516000D01*
X75498000Y-46796000D02*
X75498000Y-45466000D01*
X75498000Y-46796000D02*
X74168000Y-46796000D01*
X67283000Y-31276800D02*
X59028000Y-31276800D01*
X67283000Y-37525200D02*
X67283000Y-31276800D01*
X59028000Y-37525200D02*
X67283000Y-37525200D01*
X59028000Y-31276800D02*
X59028000Y-37525200D01*
X67283000Y-80171800D02*
X59028000Y-80171800D01*
X67283000Y-86420200D02*
X67283000Y-80171800D01*
X59028000Y-86420200D02*
X67283000Y-86420200D01*
X59028000Y-80171800D02*
X59028000Y-86420200D01*
X67283000Y-66201800D02*
X59028000Y-66201800D01*
X67283000Y-72450200D02*
X67283000Y-66201800D01*
X59028000Y-72450200D02*
X67283000Y-72450200D01*
X59028000Y-66201800D02*
X59028000Y-72450200D01*
X74025000Y-83626000D02*
X75675000Y-83626000D01*
X75675000Y-83626000D02*
X75675000Y-47946000D01*
X75675000Y-47946000D02*
X70375000Y-47946000D01*
X70375000Y-47946000D02*
X70375000Y-83626000D01*
X70375000Y-83626000D02*
X72025000Y-83626000D01*
X72025000Y-83626000D02*
G75*
G02*
X74025000Y-83626000I1000000J0D01*
G01*
X67283000Y-38261801D02*
X59028000Y-38261801D01*
X67283000Y-44510201D02*
X67283000Y-38261801D01*
X59028000Y-44510201D02*
X67283000Y-44510201D01*
X59028000Y-38261801D02*
X59028000Y-44510201D01*
X67283000Y-73186800D02*
X59028000Y-73186800D01*
X67283000Y-79435200D02*
X67283000Y-73186800D01*
X59028000Y-79435200D02*
X67283000Y-79435200D01*
X59028000Y-73186800D02*
X59028000Y-79435200D01*
X67283000Y-59216800D02*
X59028000Y-59216800D01*
X67283000Y-65465200D02*
X67283000Y-59216800D01*
X59028000Y-65465200D02*
X67283000Y-65465200D01*
X59028000Y-59216800D02*
X59028000Y-65465200D01*
X67283000Y-52231800D02*
X59028000Y-52231800D01*
X67283000Y-58480200D02*
X67283000Y-52231800D01*
X59028000Y-58480200D02*
X67283000Y-58480200D01*
X59028000Y-52231800D02*
X59028000Y-58480200D01*
X67283000Y-45246800D02*
X59028000Y-45246800D01*
X67283000Y-51495200D02*
X67283000Y-45246800D01*
X59028000Y-51495200D02*
X67283000Y-51495200D01*
X59028000Y-45246800D02*
X59028000Y-51495200D01*
X82534000Y-70092000D02*
X80534000Y-70092000D01*
X82534000Y-65992000D02*
X82534000Y-70092000D01*
X80534000Y-65992000D02*
X82534000Y-65992000D01*
X80534000Y-70092000D02*
X80534000Y-65992000D01*
X82534000Y-77092000D02*
X80534000Y-77092000D01*
X82534000Y-72992000D02*
X82534000Y-77092000D01*
X80534000Y-72992000D02*
X82534000Y-72992000D01*
X80534000Y-77092000D02*
X80534000Y-72992000D01*
X82534000Y-84092000D02*
X80534000Y-84092000D01*
X82534000Y-79992000D02*
X82534000Y-84092000D01*
X80534000Y-79992000D02*
X82534000Y-79992000D01*
X80534000Y-84092000D02*
X80534000Y-79992000D01*
X76862000Y-47336199D02*
X85117000Y-47336199D01*
X76862000Y-41087799D02*
X76862000Y-47336199D01*
X85117000Y-41087799D02*
X76862000Y-41087799D01*
X85117000Y-47336199D02*
X85117000Y-41087799D01*
X82626200Y-40562200D02*
X82626200Y-29995800D01*
X82626200Y-29995800D02*
X76860400Y-29995800D01*
X76860400Y-29995800D02*
X76860400Y-40562200D01*
X76860400Y-40562200D02*
X82626200Y-40562200D01*
X82042000Y-38354000D02*
G75*
G03*
X82042000Y-38354000I-381000J0D01*
G01*
X75260200Y-29564000D02*
X75260200Y-21309000D01*
X69011800Y-29564000D02*
X75260200Y-29564000D01*
X69011800Y-21309000D02*
X69011800Y-29564000D01*
X75260200Y-21309000D02*
X69011800Y-21309000D01*
X78338000Y-61455752D02*
X78338000Y-60033248D01*
X80158000Y-61455752D02*
X80158000Y-60033248D01*
D10*
X72842380Y-35281857D02*
X71842380Y-35281857D01*
X71842380Y-34900904D01*
X71890000Y-34805666D01*
X71937619Y-34758047D01*
X72032857Y-34710428D01*
X72175714Y-34710428D01*
X72270952Y-34758047D01*
X72318571Y-34805666D01*
X72366190Y-34900904D01*
X72366190Y-35281857D01*
X71842380Y-34377095D02*
X72842380Y-34139000D01*
X72128095Y-33948523D01*
X72842380Y-33758047D01*
X71842380Y-33519952D01*
X72842380Y-32567571D02*
X72366190Y-32900904D01*
X72842380Y-33139000D02*
X71842380Y-33139000D01*
X71842380Y-32758047D01*
X71890000Y-32662809D01*
X71937619Y-32615190D01*
X72032857Y-32567571D01*
X72175714Y-32567571D01*
X72270952Y-32615190D01*
X72318571Y-32662809D01*
X72366190Y-32758047D01*
X72366190Y-33139000D01*
X72794761Y-31424714D02*
X72842380Y-31329476D01*
X72842380Y-31139000D01*
X72794761Y-31043761D01*
X72699523Y-30996142D01*
X72651904Y-30996142D01*
X72556666Y-31043761D01*
X72509047Y-31139000D01*
X72509047Y-31281857D01*
X72461428Y-31377095D01*
X72366190Y-31424714D01*
X72318571Y-31424714D01*
X72223333Y-31377095D01*
X72175714Y-31281857D01*
X72175714Y-31139000D01*
X72223333Y-31043761D01*
X72175714Y-30710428D02*
X72175714Y-30329476D01*
X71842380Y-30567571D02*
X72699523Y-30567571D01*
X72794761Y-30519952D01*
X72842380Y-30424714D01*
X72842380Y-30329476D01*
X72747142Y-29996142D02*
X72794761Y-29948523D01*
X72842380Y-29996142D01*
X72794761Y-30043761D01*
X72747142Y-29996142D01*
X72842380Y-29996142D01*
X72715380Y-44989333D02*
X71715380Y-44989333D01*
X71810619Y-44560761D02*
X71763000Y-44513142D01*
X71715380Y-44417904D01*
X71715380Y-44179809D01*
X71763000Y-44084571D01*
X71810619Y-44036952D01*
X71905857Y-43989333D01*
X72001095Y-43989333D01*
X72143952Y-44036952D01*
X72715380Y-44608380D01*
X72715380Y-43989333D01*
X72620142Y-42989333D02*
X72667761Y-43036952D01*
X72715380Y-43179809D01*
X72715380Y-43275047D01*
X72667761Y-43417904D01*
X72572523Y-43513142D01*
X72477285Y-43560761D01*
X72286809Y-43608380D01*
X72143952Y-43608380D01*
X71953476Y-43560761D01*
X71858238Y-43513142D01*
X71763000Y-43417904D01*
X71715380Y-43275047D01*
X71715380Y-43179809D01*
X71763000Y-43036952D01*
X71810619Y-42989333D01*
X72667761Y-41846476D02*
X72715380Y-41751238D01*
X72715380Y-41560761D01*
X72667761Y-41465523D01*
X72572523Y-41417904D01*
X72524904Y-41417904D01*
X72429666Y-41465523D01*
X72382047Y-41560761D01*
X72382047Y-41703619D01*
X72334428Y-41798857D01*
X72239190Y-41846476D01*
X72191571Y-41846476D01*
X72096333Y-41798857D01*
X72048714Y-41703619D01*
X72048714Y-41560761D01*
X72096333Y-41465523D01*
X72048714Y-41132190D02*
X72048714Y-40751238D01*
X71715380Y-40989333D02*
X72572523Y-40989333D01*
X72667761Y-40941714D01*
X72715380Y-40846476D01*
X72715380Y-40751238D01*
X72715380Y-39989333D02*
X72191571Y-39989333D01*
X72096333Y-40036952D01*
X72048714Y-40132190D01*
X72048714Y-40322666D01*
X72096333Y-40417904D01*
X72667761Y-39989333D02*
X72715380Y-40084571D01*
X72715380Y-40322666D01*
X72667761Y-40417904D01*
X72572523Y-40465523D01*
X72477285Y-40465523D01*
X72382047Y-40417904D01*
X72334428Y-40322666D01*
X72334428Y-40084571D01*
X72286809Y-39989333D01*
X72667761Y-39084571D02*
X72715380Y-39179809D01*
X72715380Y-39370285D01*
X72667761Y-39465523D01*
X72620142Y-39513142D01*
X72524904Y-39560761D01*
X72239190Y-39560761D01*
X72143952Y-39513142D01*
X72096333Y-39465523D01*
X72048714Y-39370285D01*
X72048714Y-39179809D01*
X72096333Y-39084571D01*
X72715380Y-38656000D02*
X71715380Y-38656000D01*
X72334428Y-38560761D02*
X72715380Y-38275047D01*
X72048714Y-38275047D02*
X72429666Y-38656000D01*
X63388666Y-30027619D02*
X63388666Y-31027619D01*
X63007714Y-31027619D01*
X62912476Y-30980000D01*
X62864857Y-30932380D01*
X62817238Y-30837142D01*
X62817238Y-30694285D01*
X62864857Y-30599047D01*
X62912476Y-30551428D01*
X63007714Y-30503809D01*
X63388666Y-30503809D01*
X62388666Y-30027619D02*
X62388666Y-31027619D01*
X62388666Y-30551428D02*
X61817238Y-30551428D01*
X61817238Y-30027619D02*
X61817238Y-31027619D01*
X60864857Y-30027619D02*
X61341047Y-30027619D01*
X61341047Y-31027619D01*
X60341047Y-31027619D02*
X60245809Y-31027619D01*
X60150571Y-30980000D01*
X60102952Y-30932380D01*
X60055333Y-30837142D01*
X60007714Y-30646666D01*
X60007714Y-30408571D01*
X60055333Y-30218095D01*
X60102952Y-30122857D01*
X60150571Y-30075238D01*
X60245809Y-30027619D01*
X60341047Y-30027619D01*
X60436285Y-30075238D01*
X60483904Y-30122857D01*
X60531523Y-30218095D01*
X60579142Y-30408571D01*
X60579142Y-30646666D01*
X60531523Y-30837142D01*
X60483904Y-30932380D01*
X60436285Y-30980000D01*
X60341047Y-31027619D01*
X64857380Y-33401000D02*
X65095476Y-33401000D01*
X65000238Y-33639095D02*
X65095476Y-33401000D01*
X65000238Y-33162904D01*
X65285952Y-33543857D02*
X65095476Y-33401000D01*
X65285952Y-33258142D01*
X60055333Y-87828380D02*
X60055333Y-86828380D01*
X60436285Y-86828380D01*
X60531523Y-86876000D01*
X60579142Y-86923619D01*
X60626761Y-87018857D01*
X60626761Y-87161714D01*
X60579142Y-87256952D01*
X60531523Y-87304571D01*
X60436285Y-87352190D01*
X60055333Y-87352190D01*
X61055333Y-87828380D02*
X61055333Y-86828380D01*
X61055333Y-87304571D02*
X61626761Y-87304571D01*
X61626761Y-87828380D02*
X61626761Y-86828380D01*
X62579142Y-87828380D02*
X62102952Y-87828380D01*
X62102952Y-86828380D01*
X62817238Y-86828380D02*
X63483904Y-86828380D01*
X63055333Y-87828380D01*
X64857380Y-82296000D02*
X65095476Y-82296000D01*
X65000238Y-82534095D02*
X65095476Y-82296000D01*
X65000238Y-82057904D01*
X65285952Y-82438857D02*
X65095476Y-82296000D01*
X65285952Y-82153142D01*
X64857380Y-68326000D02*
X65095476Y-68326000D01*
X65000238Y-68564095D02*
X65095476Y-68326000D01*
X65000238Y-68087904D01*
X65285952Y-68468857D02*
X65095476Y-68326000D01*
X65285952Y-68183142D01*
X64857380Y-40386001D02*
X65095476Y-40386001D01*
X65000238Y-40624096D02*
X65095476Y-40386001D01*
X65000238Y-40147905D01*
X65285952Y-40528858D02*
X65095476Y-40386001D01*
X65285952Y-40243143D01*
X64857380Y-75311000D02*
X65095476Y-75311000D01*
X65000238Y-75549095D02*
X65095476Y-75311000D01*
X65000238Y-75072904D01*
X65285952Y-75453857D02*
X65095476Y-75311000D01*
X65285952Y-75168142D01*
X64857380Y-61341000D02*
X65095476Y-61341000D01*
X65000238Y-61579095D02*
X65095476Y-61341000D01*
X65000238Y-61102904D01*
X65285952Y-61483857D02*
X65095476Y-61341000D01*
X65285952Y-61198142D01*
X64857380Y-54356000D02*
X65095476Y-54356000D01*
X65000238Y-54594095D02*
X65095476Y-54356000D01*
X65000238Y-54117904D01*
X65285952Y-54498857D02*
X65095476Y-54356000D01*
X65285952Y-54213142D01*
X64857380Y-47371000D02*
X65095476Y-47371000D01*
X65000238Y-47609095D02*
X65095476Y-47371000D01*
X65000238Y-47132904D01*
X65285952Y-47513857D02*
X65095476Y-47371000D01*
X65285952Y-47228142D01*
X83772666Y-70360285D02*
X83772666Y-69884095D01*
X84058380Y-70455523D02*
X83058380Y-70122190D01*
X84058380Y-69788857D01*
X84058380Y-69455523D02*
X83058380Y-69455523D01*
X83058380Y-69217428D01*
X83106000Y-69074571D01*
X83201238Y-68979333D01*
X83296476Y-68931714D01*
X83486952Y-68884095D01*
X83629809Y-68884095D01*
X83820285Y-68931714D01*
X83915523Y-68979333D01*
X84010761Y-69074571D01*
X84058380Y-69217428D01*
X84058380Y-69455523D01*
X84058380Y-68455523D02*
X83058380Y-68455523D01*
X83058380Y-68217428D01*
X83106000Y-68074571D01*
X83201238Y-67979333D01*
X83296476Y-67931714D01*
X83486952Y-67884095D01*
X83629809Y-67884095D01*
X83820285Y-67931714D01*
X83915523Y-67979333D01*
X84010761Y-68074571D01*
X84058380Y-68217428D01*
X84058380Y-68455523D01*
X84058380Y-66884095D02*
X83582190Y-67217428D01*
X84058380Y-67455523D02*
X83058380Y-67455523D01*
X83058380Y-67074571D01*
X83106000Y-66979333D01*
X83153619Y-66931714D01*
X83248857Y-66884095D01*
X83391714Y-66884095D01*
X83486952Y-66931714D01*
X83534571Y-66979333D01*
X83582190Y-67074571D01*
X83582190Y-67455523D01*
X83058380Y-66550761D02*
X83058380Y-65931714D01*
X83439333Y-66265047D01*
X83439333Y-66122190D01*
X83486952Y-66026952D01*
X83534571Y-65979333D01*
X83629809Y-65931714D01*
X83867904Y-65931714D01*
X83963142Y-65979333D01*
X84010761Y-66026952D01*
X84058380Y-66122190D01*
X84058380Y-66407904D01*
X84010761Y-66503142D01*
X83963142Y-66550761D01*
X81986380Y-70356285D02*
X81986380Y-70927714D01*
X81986380Y-70642000D02*
X80986380Y-70642000D01*
X81129238Y-70737238D01*
X81224476Y-70832476D01*
X81272095Y-70927714D01*
X80986380Y-65489619D02*
X80986380Y-65394380D01*
X81034000Y-65299142D01*
X81081619Y-65251523D01*
X81176857Y-65203904D01*
X81367333Y-65156285D01*
X81605428Y-65156285D01*
X81795904Y-65203904D01*
X81891142Y-65251523D01*
X81938761Y-65299142D01*
X81986380Y-65394380D01*
X81986380Y-65489619D01*
X81938761Y-65584857D01*
X81891142Y-65632476D01*
X81795904Y-65680095D01*
X81605428Y-65727714D01*
X81367333Y-65727714D01*
X81176857Y-65680095D01*
X81081619Y-65632476D01*
X81034000Y-65584857D01*
X80986380Y-65489619D01*
X83772666Y-77250285D02*
X83772666Y-76774095D01*
X84058380Y-77345523D02*
X83058380Y-77012190D01*
X84058380Y-76678857D01*
X84058380Y-76345523D02*
X83058380Y-76345523D01*
X83058380Y-76107428D01*
X83106000Y-75964571D01*
X83201238Y-75869333D01*
X83296476Y-75821714D01*
X83486952Y-75774095D01*
X83629809Y-75774095D01*
X83820285Y-75821714D01*
X83915523Y-75869333D01*
X84010761Y-75964571D01*
X84058380Y-76107428D01*
X84058380Y-76345523D01*
X84058380Y-75345523D02*
X83058380Y-75345523D01*
X83058380Y-75107428D01*
X83106000Y-74964571D01*
X83201238Y-74869333D01*
X83296476Y-74821714D01*
X83486952Y-74774095D01*
X83629809Y-74774095D01*
X83820285Y-74821714D01*
X83915523Y-74869333D01*
X84010761Y-74964571D01*
X84058380Y-75107428D01*
X84058380Y-75345523D01*
X84058380Y-73774095D02*
X83582190Y-74107428D01*
X84058380Y-74345523D02*
X83058380Y-74345523D01*
X83058380Y-73964571D01*
X83106000Y-73869333D01*
X83153619Y-73821714D01*
X83248857Y-73774095D01*
X83391714Y-73774095D01*
X83486952Y-73821714D01*
X83534571Y-73869333D01*
X83582190Y-73964571D01*
X83582190Y-74345523D01*
X83153619Y-73393142D02*
X83106000Y-73345523D01*
X83058380Y-73250285D01*
X83058380Y-73012190D01*
X83106000Y-72916952D01*
X83153619Y-72869333D01*
X83248857Y-72821714D01*
X83344095Y-72821714D01*
X83486952Y-72869333D01*
X84058380Y-73440761D01*
X84058380Y-72821714D01*
X81986380Y-77356285D02*
X81986380Y-77927714D01*
X81986380Y-77642000D02*
X80986380Y-77642000D01*
X81129238Y-77737238D01*
X81224476Y-77832476D01*
X81272095Y-77927714D01*
X80986380Y-72489619D02*
X80986380Y-72394380D01*
X81034000Y-72299142D01*
X81081619Y-72251523D01*
X81176857Y-72203904D01*
X81367333Y-72156285D01*
X81605428Y-72156285D01*
X81795904Y-72203904D01*
X81891142Y-72251523D01*
X81938761Y-72299142D01*
X81986380Y-72394380D01*
X81986380Y-72489619D01*
X81938761Y-72584857D01*
X81891142Y-72632476D01*
X81795904Y-72680095D01*
X81605428Y-72727714D01*
X81367333Y-72727714D01*
X81176857Y-72680095D01*
X81081619Y-72632476D01*
X81034000Y-72584857D01*
X80986380Y-72489619D01*
X83732666Y-84256285D02*
X83732666Y-83780095D01*
X84018380Y-84351523D02*
X83018380Y-84018190D01*
X84018380Y-83684857D01*
X84018380Y-83351523D02*
X83018380Y-83351523D01*
X83018380Y-83113428D01*
X83066000Y-82970571D01*
X83161238Y-82875333D01*
X83256476Y-82827714D01*
X83446952Y-82780095D01*
X83589809Y-82780095D01*
X83780285Y-82827714D01*
X83875523Y-82875333D01*
X83970761Y-82970571D01*
X84018380Y-83113428D01*
X84018380Y-83351523D01*
X84018380Y-82351523D02*
X83018380Y-82351523D01*
X83018380Y-82113428D01*
X83066000Y-81970571D01*
X83161238Y-81875333D01*
X83256476Y-81827714D01*
X83446952Y-81780095D01*
X83589809Y-81780095D01*
X83780285Y-81827714D01*
X83875523Y-81875333D01*
X83970761Y-81970571D01*
X84018380Y-82113428D01*
X84018380Y-82351523D01*
X84018380Y-80780095D02*
X83542190Y-81113428D01*
X84018380Y-81351523D02*
X83018380Y-81351523D01*
X83018380Y-80970571D01*
X83066000Y-80875333D01*
X83113619Y-80827714D01*
X83208857Y-80780095D01*
X83351714Y-80780095D01*
X83446952Y-80827714D01*
X83494571Y-80875333D01*
X83542190Y-80970571D01*
X83542190Y-81351523D01*
X84018380Y-79827714D02*
X84018380Y-80399142D01*
X84018380Y-80113428D02*
X83018380Y-80113428D01*
X83161238Y-80208666D01*
X83256476Y-80303904D01*
X83304095Y-80399142D01*
X81986380Y-84356285D02*
X81986380Y-84927714D01*
X81986380Y-84642000D02*
X80986380Y-84642000D01*
X81129238Y-84737238D01*
X81224476Y-84832476D01*
X81272095Y-84927714D01*
X80986380Y-79489619D02*
X80986380Y-79394380D01*
X81034000Y-79299142D01*
X81081619Y-79251523D01*
X81176857Y-79203904D01*
X81367333Y-79156285D01*
X81605428Y-79156285D01*
X81795904Y-79203904D01*
X81891142Y-79251523D01*
X81938761Y-79299142D01*
X81986380Y-79394380D01*
X81986380Y-79489619D01*
X81938761Y-79584857D01*
X81891142Y-79632476D01*
X81795904Y-79680095D01*
X81605428Y-79727714D01*
X81367333Y-79727714D01*
X81176857Y-79680095D01*
X81081619Y-79632476D01*
X81034000Y-79584857D01*
X80986380Y-79489619D01*
X84272380Y-49672761D02*
X83272380Y-49672761D01*
X84272380Y-49196571D02*
X83272380Y-49196571D01*
X84272380Y-48625142D01*
X83272380Y-48625142D01*
X83272380Y-48291809D02*
X83272380Y-47720380D01*
X84272380Y-48006095D02*
X83272380Y-48006095D01*
X78192380Y-45211999D02*
X78430476Y-45211999D01*
X78335238Y-45450094D02*
X78430476Y-45211999D01*
X78335238Y-44973903D01*
X78620952Y-45354856D02*
X78430476Y-45211999D01*
X78620952Y-45069141D01*
X84018380Y-36255190D02*
X83018380Y-36255190D01*
X83113619Y-35826619D02*
X83066000Y-35779000D01*
X83018380Y-35683761D01*
X83018380Y-35445666D01*
X83066000Y-35350428D01*
X83113619Y-35302809D01*
X83208857Y-35255190D01*
X83304095Y-35255190D01*
X83446952Y-35302809D01*
X84018380Y-35874238D01*
X84018380Y-35255190D01*
X83923142Y-34255190D02*
X83970761Y-34302809D01*
X84018380Y-34445666D01*
X84018380Y-34540904D01*
X83970761Y-34683761D01*
X83875523Y-34779000D01*
X83780285Y-34826619D01*
X83589809Y-34874238D01*
X83446952Y-34874238D01*
X83256476Y-34826619D01*
X83161238Y-34779000D01*
X83066000Y-34683761D01*
X83018380Y-34540904D01*
X83018380Y-34445666D01*
X83066000Y-34302809D01*
X83113619Y-34255190D01*
X79208380Y-38354000D02*
X79446476Y-38354000D01*
X79351238Y-38592095D02*
X79446476Y-38354000D01*
X79351238Y-38115904D01*
X79636952Y-38496857D02*
X79446476Y-38354000D01*
X79636952Y-38211142D01*
X80208380Y-39592285D02*
X80208380Y-40163714D01*
X80208380Y-39878000D02*
X79208380Y-39878000D01*
X79351238Y-39973238D01*
X79446476Y-40068476D01*
X79494095Y-40163714D01*
X80208380Y-39592285D02*
X80208380Y-40163714D01*
X80208380Y-39878000D02*
X79208380Y-39878000D01*
X79351238Y-39973238D01*
X79446476Y-40068476D01*
X79494095Y-40163714D01*
X79541714Y-30489524D02*
X80208380Y-30489524D01*
X79160761Y-30727620D02*
X79875047Y-30965715D01*
X79875047Y-30346667D01*
X79541714Y-30489524D02*
X80208380Y-30489524D01*
X79160761Y-30727620D02*
X79875047Y-30965715D01*
X79875047Y-30346667D01*
X71786666Y-25360380D02*
X71786666Y-26074666D01*
X71739047Y-26217523D01*
X71643809Y-26312761D01*
X71500952Y-26360380D01*
X71405714Y-26360380D01*
X72786666Y-26360380D02*
X72215238Y-26360380D01*
X72500952Y-26360380D02*
X72500952Y-25360380D01*
X72405714Y-25503238D01*
X72310476Y-25598476D01*
X72215238Y-25646095D01*
X75525380Y-27257047D02*
X75525380Y-26638000D01*
X75906333Y-26971333D01*
X75906333Y-26828476D01*
X75953952Y-26733238D01*
X76001571Y-26685619D01*
X76096809Y-26638000D01*
X76334904Y-26638000D01*
X76430142Y-26685619D01*
X76477761Y-26733238D01*
X76525380Y-26828476D01*
X76525380Y-27114190D01*
X76477761Y-27209428D01*
X76430142Y-27257047D01*
X76430142Y-26209428D02*
X76477761Y-26161809D01*
X76525380Y-26209428D01*
X76477761Y-26257047D01*
X76430142Y-26209428D01*
X76525380Y-26209428D01*
X75525380Y-25828476D02*
X75525380Y-25209428D01*
X75906333Y-25542761D01*
X75906333Y-25399904D01*
X75953952Y-25304666D01*
X76001571Y-25257047D01*
X76096809Y-25209428D01*
X76334904Y-25209428D01*
X76430142Y-25257047D01*
X76477761Y-25304666D01*
X76525380Y-25399904D01*
X76525380Y-25685619D01*
X76477761Y-25780857D01*
X76430142Y-25828476D01*
X75525380Y-24923714D02*
X76525380Y-24590380D01*
X75525380Y-24257047D01*
X76525380Y-23161809D02*
X75525380Y-23161809D01*
X76525380Y-22685619D02*
X75525380Y-22685619D01*
X76525380Y-22114190D01*
X75525380Y-22114190D01*
X73136000Y-27138380D02*
X73136000Y-27376476D01*
X72897904Y-27281238D02*
X73136000Y-27376476D01*
X73374095Y-27281238D01*
X72993142Y-27566952D02*
X73136000Y-27376476D01*
X73278857Y-27566952D01*
X77755142Y-60911166D02*
X77802761Y-60958785D01*
X77850380Y-61101642D01*
X77850380Y-61196880D01*
X77802761Y-61339738D01*
X77707523Y-61434976D01*
X77612285Y-61482595D01*
X77421809Y-61530214D01*
X77278952Y-61530214D01*
X77088476Y-61482595D01*
X76993238Y-61434976D01*
X76898000Y-61339738D01*
X76850380Y-61196880D01*
X76850380Y-61101642D01*
X76898000Y-60958785D01*
X76945619Y-60911166D01*
X77850380Y-59958785D02*
X77850380Y-60530214D01*
X77850380Y-60244500D02*
X76850380Y-60244500D01*
X76993238Y-60339738D01*
X77088476Y-60434976D01*
X77136095Y-60530214D01*
%LPC*%
D13*
X74168000Y-34183000D03*
D14*
X74168000Y-31643000D03*
D13*
X70485000Y-34163000D03*
D14*
X70485000Y-31623000D03*
D13*
X70358000Y-37846000D03*
X70358000Y-40386000D03*
X70358000Y-42926000D03*
D14*
X70358000Y-45466000D03*
D13*
X74168000Y-37846000D03*
X74168000Y-40386000D03*
X74168000Y-42926000D03*
D14*
X74168000Y-45466000D03*
D15*
X65405000Y-33400999D03*
X65405000Y-35401001D03*
X65405000Y-82295999D03*
X65405000Y-84296001D03*
D16*
X80518000Y-25908000D03*
X80518000Y-91694000D03*
X63754000Y-91694000D03*
X63754000Y-25908000D03*
D15*
X65405000Y-68325999D03*
X65405000Y-70326001D03*
D17*
X69215000Y-82296000D03*
X76835000Y-49276000D03*
X69215000Y-79756000D03*
X76835000Y-51816000D03*
X69215000Y-77216000D03*
X76835000Y-54356000D03*
X69215000Y-74676000D03*
X76835000Y-56896000D03*
X69215000Y-72136000D03*
X76835000Y-59436000D03*
X69215000Y-69596000D03*
X76835000Y-61976000D03*
X69215000Y-67056000D03*
X76835000Y-64516000D03*
X69215000Y-64516000D03*
X76835000Y-67056000D03*
X69215000Y-61976000D03*
X76835000Y-69596000D03*
X69215000Y-59436000D03*
X76835000Y-72136000D03*
X69215000Y-56896000D03*
X76835000Y-74676000D03*
X69215000Y-54356000D03*
X76835000Y-77216000D03*
X69215000Y-51816000D03*
X76835000Y-79756000D03*
X69215000Y-49276000D03*
D18*
X76835000Y-82296000D03*
D15*
X65405000Y-40386000D03*
X65405000Y-42386002D03*
X65405000Y-75310999D03*
X65405000Y-77311001D03*
X65405000Y-61340999D03*
X65405000Y-63341001D03*
X65405000Y-54355999D03*
X65405000Y-56356001D03*
X65405000Y-47370999D03*
X65405000Y-49371001D03*
D19*
X81534000Y-69342000D03*
X81534000Y-68042000D03*
X81534000Y-66742000D03*
X81534000Y-76342000D03*
X81534000Y-75042000D03*
X81534000Y-73742000D03*
X81534000Y-83342000D03*
X81534000Y-82042000D03*
X81534000Y-80742000D03*
D15*
X78740000Y-45212000D03*
X78740000Y-43211998D03*
D20*
X79756000Y-38354000D03*
X79756000Y-36303999D03*
X79756000Y-34254001D03*
X79756000Y-32204000D03*
D15*
X73136001Y-27686000D03*
X71135999Y-27686000D03*
G36*
G01*
X79898001Y-59844500D02*
X78597999Y-59844500D01*
G75*
G02*
X78348000Y-59594501I0J249999D01*
G01*
X78348000Y-58769499D01*
G75*
G02*
X78597999Y-58519500I249999J0D01*
G01*
X79898001Y-58519500D01*
G75*
G02*
X80148000Y-58769499I0J-249999D01*
G01*
X80148000Y-59594501D01*
G75*
G02*
X79898001Y-59844500I-249999J0D01*
G01*
G37*
G36*
G01*
X79898001Y-62969500D02*
X78597999Y-62969500D01*
G75*
G02*
X78348000Y-62719501I0J249999D01*
G01*
X78348000Y-61894499D01*
G75*
G02*
X78597999Y-61644500I249999J0D01*
G01*
X79898001Y-61644500D01*
G75*
G02*
X80148000Y-61894499I0J-249999D01*
G01*
X80148000Y-62719501D01*
G75*
G02*
X79898001Y-62969500I-249999J0D01*
G01*
G37*
M02*
