%FSLAX45Y45*%
G04 Gerber Fmt 4.5, Leading zero omitted, Abs format (unit mm)*
G04 Created by KiCad (PCBNEW 5.1.10) date 2021-12-13 09:12:37*
%MOMM*%
%LPD*%
G01*
G04 APERTURE LIST*
%TA.AperFunction,Profile*%
%ADD10C,0.100000*%
%TD*%
%ADD11C,0.200000*%
%ADD12C,0.300000*%
G04 APERTURE END LIST*
D10*
X5969000Y-9601200D02*
X5969000Y-2184400D01*
X8458200Y-9601200D02*
X5969000Y-9601200D01*
X8458200Y-2184400D02*
X8458200Y-9601200D01*
X5969000Y-2184400D02*
X8458200Y-2184400D01*
D11*
X6190300Y-3157600D02*
X6230300Y-3197600D01*
X6230300Y-3157600D02*
X6190300Y-3197600D01*
X6190300Y-3666350D02*
X6230300Y-3706350D01*
X6230300Y-3666350D02*
X6190300Y-3706350D01*
X6190300Y-4175100D02*
X6230300Y-4215100D01*
X6230300Y-4175100D02*
X6190300Y-4215100D01*
X6190300Y-4683850D02*
X6230300Y-4723850D01*
X6230300Y-4683850D02*
X6190300Y-4723850D01*
X6190300Y-5192600D02*
X6230300Y-5232600D01*
X6230300Y-5192600D02*
X6190300Y-5232600D01*
X6190300Y-5701350D02*
X6230300Y-5741350D01*
X6230300Y-5701350D02*
X6190300Y-5741350D01*
X6190300Y-6210100D02*
X6230300Y-6250100D01*
X6230300Y-6210100D02*
X6190300Y-6250100D01*
X6190300Y-6718850D02*
X6230300Y-6758850D01*
X6230300Y-6718850D02*
X6190300Y-6758850D01*
X6190300Y-7227600D02*
X6230300Y-7267600D01*
X6230300Y-7227600D02*
X6190300Y-7267600D01*
X6190300Y-7736350D02*
X6230300Y-7776350D01*
X6230300Y-7736350D02*
X6190300Y-7776350D01*
X6190300Y-8245100D02*
X6230300Y-8285100D01*
X6230300Y-8245100D02*
X6190300Y-8285100D01*
X6253800Y-8590600D02*
X6293800Y-8630600D01*
X6293800Y-8590600D02*
X6253800Y-8630600D01*
X6520500Y-7968300D02*
X6560500Y-8008300D01*
X6560500Y-7968300D02*
X6520500Y-8008300D01*
X6774500Y-2939100D02*
X6814500Y-2979100D01*
X6814500Y-2939100D02*
X6774500Y-2979100D01*
X6774500Y-3396300D02*
X6814500Y-3436300D01*
X6814500Y-3396300D02*
X6774500Y-3436300D01*
X6787200Y-8590600D02*
X6827200Y-8630600D01*
X6827200Y-8590600D02*
X6787200Y-8630600D01*
X6929500Y-2443800D02*
X6969500Y-2483800D01*
X6969500Y-2443800D02*
X6929500Y-2483800D01*
X6929500Y-8971600D02*
X6969500Y-9011600D01*
X6969500Y-8971600D02*
X6929500Y-9011600D01*
X6929500Y-9301800D02*
X6969500Y-9341800D01*
X6969500Y-9301800D02*
X6929500Y-9341800D01*
X7193600Y-2443800D02*
X7233600Y-2483800D01*
X7233600Y-2443800D02*
X7193600Y-2483800D01*
X7193600Y-8971600D02*
X7233600Y-9011600D01*
X7233600Y-8971600D02*
X7193600Y-9011600D01*
X7193600Y-9301800D02*
X7233600Y-9341800D01*
X7233600Y-9301800D02*
X7193600Y-9341800D01*
X7193600Y-6076000D02*
X7233600Y-6116000D01*
X7233600Y-6076000D02*
X7193600Y-6116000D01*
X7206300Y-2939100D02*
X7246300Y-2979100D01*
X7246300Y-2939100D02*
X7206300Y-2979100D01*
X7206300Y-3586800D02*
X7246300Y-3626800D01*
X7246300Y-3586800D02*
X7206300Y-3626800D01*
X7206300Y-8590600D02*
X7246300Y-8630600D01*
X7246300Y-8590600D02*
X7206300Y-8630600D01*
X7320600Y-6076000D02*
X7360600Y-6116000D01*
X7360600Y-6076000D02*
X7320600Y-6116000D01*
X7447600Y-6076000D02*
X7487600Y-6116000D01*
X7487600Y-6076000D02*
X7447600Y-6116000D01*
X7457700Y-2443800D02*
X7497700Y-2483800D01*
X7497700Y-2443800D02*
X7457700Y-2483800D01*
X7457700Y-8971600D02*
X7497700Y-9011600D01*
X7497700Y-8971600D02*
X7457700Y-9011600D01*
X7457700Y-9301800D02*
X7497700Y-9341800D01*
X7497700Y-9301800D02*
X7457700Y-9341800D01*
X7574600Y-2748600D02*
X7614600Y-2788600D01*
X7614600Y-2748600D02*
X7574600Y-2788600D01*
X7650800Y-8590600D02*
X7690800Y-8630600D01*
X7690800Y-8590600D02*
X7650800Y-8630600D01*
X7676200Y-3269300D02*
X7716200Y-3309300D01*
X7716200Y-3269300D02*
X7676200Y-3309300D01*
X7930200Y-7041200D02*
X7970200Y-7081200D01*
X7970200Y-7041200D02*
X7930200Y-7081200D01*
X7930200Y-7803200D02*
X7970200Y-7843200D01*
X7970200Y-7803200D02*
X7930200Y-7843200D01*
X7981000Y-6431600D02*
X8021000Y-6471600D01*
X8021000Y-6431600D02*
X7981000Y-6471600D01*
X8082600Y-4196400D02*
X8122600Y-4236400D01*
X8122600Y-4196400D02*
X8082600Y-4236400D01*
X8108000Y-5720400D02*
X8148000Y-5760400D01*
X8148000Y-5720400D02*
X8108000Y-5760400D01*
X8146100Y-4615500D02*
X8186100Y-4655500D01*
X8186100Y-4615500D02*
X8146100Y-4655500D01*
X8146100Y-5237800D02*
X8186100Y-5277800D01*
X8186100Y-5237800D02*
X8146100Y-5277800D01*
X8184200Y-8590600D02*
X8224200Y-8630600D01*
X8224200Y-8590600D02*
X8184200Y-8630600D01*
X6961500Y-4927600D02*
G75*
G03*
X6961500Y-4927600I-40000J0D01*
G01*
X6961500Y-5181600D02*
G75*
G03*
X6961500Y-5181600I-40000J0D01*
G01*
X6961500Y-5435600D02*
G75*
G03*
X6961500Y-5435600I-40000J0D01*
G01*
X6961500Y-5689600D02*
G75*
G03*
X6961500Y-5689600I-40000J0D01*
G01*
X6961500Y-5943600D02*
G75*
G03*
X6961500Y-5943600I-40000J0D01*
G01*
X6961500Y-6197600D02*
G75*
G03*
X6961500Y-6197600I-40000J0D01*
G01*
X6961500Y-6451600D02*
G75*
G03*
X6961500Y-6451600I-40000J0D01*
G01*
X6961500Y-6705600D02*
G75*
G03*
X6961500Y-6705600I-40000J0D01*
G01*
X6961500Y-6959600D02*
G75*
G03*
X6961500Y-6959600I-40000J0D01*
G01*
X6961500Y-7213600D02*
G75*
G03*
X6961500Y-7213600I-40000J0D01*
G01*
X6961500Y-7467600D02*
G75*
G03*
X6961500Y-7467600I-40000J0D01*
G01*
X6961500Y-7721600D02*
G75*
G03*
X6961500Y-7721600I-40000J0D01*
G01*
X6961500Y-7975600D02*
G75*
G03*
X6961500Y-7975600I-40000J0D01*
G01*
X6961500Y-8229600D02*
G75*
G03*
X6961500Y-8229600I-40000J0D01*
G01*
X7723500Y-4927600D02*
G75*
G03*
X7723500Y-4927600I-40000J0D01*
G01*
X7723500Y-5181600D02*
G75*
G03*
X7723500Y-5181600I-40000J0D01*
G01*
X7723500Y-5435600D02*
G75*
G03*
X7723500Y-5435600I-40000J0D01*
G01*
X7723500Y-5689600D02*
G75*
G03*
X7723500Y-5689600I-40000J0D01*
G01*
X7723500Y-5943600D02*
G75*
G03*
X7723500Y-5943600I-40000J0D01*
G01*
X7723500Y-6197600D02*
G75*
G03*
X7723500Y-6197600I-40000J0D01*
G01*
X7723500Y-6451600D02*
G75*
G03*
X7723500Y-6451600I-40000J0D01*
G01*
X7723500Y-6705600D02*
G75*
G03*
X7723500Y-6705600I-40000J0D01*
G01*
X7723500Y-6959600D02*
G75*
G03*
X7723500Y-6959600I-40000J0D01*
G01*
X7723500Y-7213600D02*
G75*
G03*
X7723500Y-7213600I-40000J0D01*
G01*
X7723500Y-7467600D02*
G75*
G03*
X7723500Y-7467600I-40000J0D01*
G01*
X7723500Y-7721600D02*
G75*
G03*
X7723500Y-7721600I-40000J0D01*
G01*
X7723500Y-7975600D02*
G75*
G03*
X7723500Y-7975600I-40000J0D01*
G01*
X7723500Y-8229600D02*
G75*
G03*
X7723500Y-8229600I-40000J0D01*
G01*
X6540500Y-3295650D02*
X6540500Y-3384550D01*
X6496050Y-3340100D02*
X6584950Y-3340100D01*
X6540500Y-3495650D02*
X6540500Y-3584550D01*
X6496050Y-3540100D02*
X6584950Y-3540100D01*
X6540500Y-3994150D02*
X6540500Y-4083050D01*
X6496050Y-4038600D02*
X6584950Y-4038600D01*
X6540500Y-4194150D02*
X6540500Y-4283050D01*
X6496050Y-4238600D02*
X6584950Y-4238600D01*
X6540500Y-4692650D02*
X6540500Y-4781550D01*
X6496050Y-4737100D02*
X6584950Y-4737100D01*
X6540500Y-4892650D02*
X6540500Y-4981550D01*
X6496050Y-4937100D02*
X6584950Y-4937100D01*
X6540500Y-5391150D02*
X6540500Y-5480050D01*
X6496050Y-5435600D02*
X6584950Y-5435600D01*
X6540500Y-5591150D02*
X6540500Y-5680050D01*
X6496050Y-5635600D02*
X6584950Y-5635600D01*
X6540500Y-6089650D02*
X6540500Y-6178550D01*
X6496050Y-6134100D02*
X6584950Y-6134100D01*
X6540500Y-6289650D02*
X6540500Y-6378550D01*
X6496050Y-6334100D02*
X6584950Y-6334100D01*
X6540500Y-6788150D02*
X6540500Y-6877050D01*
X6496050Y-6832600D02*
X6584950Y-6832600D01*
X6540500Y-6988150D02*
X6540500Y-7077050D01*
X6496050Y-7032600D02*
X6584950Y-7032600D01*
X6540500Y-7486650D02*
X6540500Y-7575550D01*
X6496050Y-7531100D02*
X6584950Y-7531100D01*
X6540500Y-7686650D02*
X6540500Y-7775550D01*
X6496050Y-7731100D02*
X6584950Y-7731100D01*
X6540500Y-8185150D02*
X6540500Y-8274050D01*
X6496050Y-8229600D02*
X6584950Y-8229600D01*
X6540500Y-8385150D02*
X6540500Y-8474050D01*
X6496050Y-8429600D02*
X6584950Y-8429600D01*
X7113600Y-2724150D02*
X7113600Y-2813050D01*
X7069150Y-2768600D02*
X7158050Y-2768600D01*
X7313600Y-2724150D02*
X7313600Y-2813050D01*
X7269150Y-2768600D02*
X7358050Y-2768600D01*
X7874000Y-4276750D02*
X7874000Y-4365650D01*
X7829550Y-4321200D02*
X7918450Y-4321200D01*
X7874000Y-4476750D02*
X7874000Y-4565650D01*
X7829550Y-4521200D02*
X7918450Y-4521200D01*
X7071156Y-3819956D02*
X7071156Y-3749244D01*
X7000444Y-3749244D01*
X7000444Y-3819956D01*
X7071156Y-3819956D01*
X7071156Y-4073956D02*
X7071156Y-4003244D01*
X7000444Y-4003244D01*
X7000444Y-4073956D01*
X7071156Y-4073956D01*
X7071156Y-4327956D02*
X7071156Y-4257244D01*
X7000444Y-4257244D01*
X7000444Y-4327956D01*
X7071156Y-4327956D01*
X7071156Y-4581956D02*
X7071156Y-4511244D01*
X7000444Y-4511244D01*
X7000444Y-4581956D01*
X7071156Y-4581956D01*
X7083856Y-3197656D02*
X7083856Y-3126944D01*
X7013144Y-3126944D01*
X7013144Y-3197656D01*
X7083856Y-3197656D01*
X7083856Y-3451656D02*
X7083856Y-3380944D01*
X7013144Y-3380944D01*
X7013144Y-3451656D01*
X7083856Y-3451656D01*
X7452156Y-3199656D02*
X7452156Y-3128944D01*
X7381444Y-3128944D01*
X7381444Y-3199656D01*
X7452156Y-3199656D01*
X7452156Y-3453656D02*
X7452156Y-3382944D01*
X7381444Y-3382944D01*
X7381444Y-3453656D01*
X7452156Y-3453656D01*
X7452156Y-3819956D02*
X7452156Y-3749244D01*
X7381444Y-3749244D01*
X7381444Y-3819956D01*
X7452156Y-3819956D01*
X7452156Y-4073956D02*
X7452156Y-4003244D01*
X7381444Y-4003244D01*
X7381444Y-4073956D01*
X7452156Y-4073956D01*
X7452156Y-4327956D02*
X7452156Y-4257244D01*
X7381444Y-4257244D01*
X7381444Y-4327956D01*
X7452156Y-4327956D01*
X7452156Y-4581956D02*
X7452156Y-4511244D01*
X7381444Y-4511244D01*
X7381444Y-4581956D01*
X7452156Y-4581956D01*
X7975600Y-3271200D02*
X8026400Y-3220400D01*
X7975600Y-3169600D01*
X7924800Y-3220400D01*
X7975600Y-3271200D01*
X7975600Y-3476200D02*
X8026400Y-3425400D01*
X7975600Y-3374600D01*
X7924800Y-3425400D01*
X7975600Y-3476200D01*
X7975600Y-3681200D02*
X8026400Y-3630400D01*
X7975600Y-3579600D01*
X7924800Y-3630400D01*
X7975600Y-3681200D01*
X7975600Y-3886200D02*
X8026400Y-3835400D01*
X7975600Y-3784600D01*
X7924800Y-3835400D01*
X7975600Y-3886200D01*
X6160400Y-2375800D02*
X6590400Y-2805800D01*
X6590400Y-2375800D02*
X6160400Y-2805800D01*
X6590400Y-2590800D02*
G75*
G03*
X6590400Y-2590800I-215000J0D01*
G01*
X6160400Y-8954400D02*
X6590400Y-9384400D01*
X6590400Y-8954400D02*
X6160400Y-9384400D01*
X6590400Y-9169400D02*
G75*
G03*
X6590400Y-9169400I-215000J0D01*
G01*
X7836800Y-2375800D02*
X8266800Y-2805800D01*
X8266800Y-2375800D02*
X7836800Y-2805800D01*
X8266800Y-2590800D02*
G75*
G03*
X8266800Y-2590800I-215000J0D01*
G01*
X7836800Y-8954400D02*
X8266800Y-9384400D01*
X8266800Y-8954400D02*
X7836800Y-9384400D01*
X8266800Y-9169400D02*
G75*
G03*
X8266800Y-9169400I-215000J0D01*
G01*
D12*
X6250428Y-10071914D02*
X6250428Y-9771914D01*
X6321857Y-9771914D01*
X6364714Y-9786200D01*
X6393286Y-9814772D01*
X6407571Y-9843343D01*
X6421857Y-9900486D01*
X6421857Y-9943343D01*
X6407571Y-10000486D01*
X6393286Y-10029057D01*
X6364714Y-10057629D01*
X6321857Y-10071914D01*
X6250428Y-10071914D01*
X6550428Y-10071914D02*
X6550428Y-9871914D01*
X6550428Y-9929057D02*
X6564714Y-9900486D01*
X6579000Y-9886200D01*
X6607571Y-9871914D01*
X6636143Y-9871914D01*
X6736143Y-10071914D02*
X6736143Y-9871914D01*
X6736143Y-9771914D02*
X6721857Y-9786200D01*
X6736143Y-9800486D01*
X6750428Y-9786200D01*
X6736143Y-9771914D01*
X6736143Y-9800486D01*
X6921857Y-10071914D02*
X6893286Y-10057629D01*
X6879000Y-10029057D01*
X6879000Y-9771914D01*
X7079000Y-10071914D02*
X7050428Y-10057629D01*
X7036143Y-10029057D01*
X7036143Y-9771914D01*
X7421857Y-10071914D02*
X7421857Y-9771914D01*
X7521857Y-9986200D01*
X7621857Y-9771914D01*
X7621857Y-10071914D01*
X7893286Y-10071914D02*
X7893286Y-9914772D01*
X7879000Y-9886200D01*
X7850428Y-9871914D01*
X7793286Y-9871914D01*
X7764714Y-9886200D01*
X7893286Y-10057629D02*
X7864714Y-10071914D01*
X7793286Y-10071914D01*
X7764714Y-10057629D01*
X7750428Y-10029057D01*
X7750428Y-10000486D01*
X7764714Y-9971914D01*
X7793286Y-9957629D01*
X7864714Y-9957629D01*
X7893286Y-9943343D01*
X8036143Y-9871914D02*
X8036143Y-10171914D01*
X8036143Y-9886200D02*
X8064714Y-9871914D01*
X8121857Y-9871914D01*
X8150428Y-9886200D01*
X8164714Y-9900486D01*
X8179000Y-9929057D01*
X8179000Y-10014772D01*
X8164714Y-10043343D01*
X8150428Y-10057629D01*
X8121857Y-10071914D01*
X8064714Y-10071914D01*
X8036143Y-10057629D01*
X8307571Y-10043343D02*
X8321857Y-10057629D01*
X8307571Y-10071914D01*
X8293286Y-10057629D01*
X8307571Y-10043343D01*
X8307571Y-10071914D01*
X8307571Y-9886200D02*
X8321857Y-9900486D01*
X8307571Y-9914772D01*
X8293286Y-9900486D01*
X8307571Y-9886200D01*
X8307571Y-9914772D01*
X5924000Y-10546200D02*
X5964000Y-10586200D01*
X5964000Y-10546200D02*
X5924000Y-10586200D01*
X6307571Y-10401914D02*
X6336143Y-10401914D01*
X6364714Y-10416200D01*
X6379000Y-10430486D01*
X6393286Y-10459057D01*
X6407571Y-10516200D01*
X6407571Y-10587629D01*
X6393286Y-10644772D01*
X6379000Y-10673343D01*
X6364714Y-10687629D01*
X6336143Y-10701914D01*
X6307571Y-10701914D01*
X6279000Y-10687629D01*
X6264714Y-10673343D01*
X6250428Y-10644772D01*
X6236143Y-10587629D01*
X6236143Y-10516200D01*
X6250428Y-10459057D01*
X6264714Y-10430486D01*
X6279000Y-10416200D01*
X6307571Y-10401914D01*
X6536143Y-10673343D02*
X6550428Y-10687629D01*
X6536143Y-10701914D01*
X6521857Y-10687629D01*
X6536143Y-10673343D01*
X6536143Y-10701914D01*
X6807571Y-10501914D02*
X6807571Y-10701914D01*
X6736143Y-10387629D02*
X6664714Y-10601914D01*
X6850428Y-10601914D01*
X7021857Y-10401914D02*
X7050428Y-10401914D01*
X7079000Y-10416200D01*
X7093286Y-10430486D01*
X7107571Y-10459057D01*
X7121857Y-10516200D01*
X7121857Y-10587629D01*
X7107571Y-10644772D01*
X7093286Y-10673343D01*
X7079000Y-10687629D01*
X7050428Y-10701914D01*
X7021857Y-10701914D01*
X6993286Y-10687629D01*
X6979000Y-10673343D01*
X6964714Y-10644772D01*
X6950428Y-10587629D01*
X6950428Y-10516200D01*
X6964714Y-10459057D01*
X6979000Y-10430486D01*
X6993286Y-10416200D01*
X7021857Y-10401914D01*
X7307571Y-10401914D02*
X7336143Y-10401914D01*
X7364714Y-10416200D01*
X7379000Y-10430486D01*
X7393286Y-10459057D01*
X7407571Y-10516200D01*
X7407571Y-10587629D01*
X7393286Y-10644772D01*
X7379000Y-10673343D01*
X7364714Y-10687629D01*
X7336143Y-10701914D01*
X7307571Y-10701914D01*
X7279000Y-10687629D01*
X7264714Y-10673343D01*
X7250428Y-10644772D01*
X7236143Y-10587629D01*
X7236143Y-10516200D01*
X7250428Y-10459057D01*
X7264714Y-10430486D01*
X7279000Y-10416200D01*
X7307571Y-10401914D01*
X7536143Y-10701914D02*
X7536143Y-10501914D01*
X7536143Y-10530486D02*
X7550428Y-10516200D01*
X7579000Y-10501914D01*
X7621857Y-10501914D01*
X7650428Y-10516200D01*
X7664714Y-10544772D01*
X7664714Y-10701914D01*
X7664714Y-10544772D02*
X7679000Y-10516200D01*
X7707571Y-10501914D01*
X7750428Y-10501914D01*
X7779000Y-10516200D01*
X7793286Y-10544772D01*
X7793286Y-10701914D01*
X7936143Y-10701914D02*
X7936143Y-10501914D01*
X7936143Y-10530486D02*
X7950428Y-10516200D01*
X7979000Y-10501914D01*
X8021857Y-10501914D01*
X8050428Y-10516200D01*
X8064714Y-10544772D01*
X8064714Y-10701914D01*
X8064714Y-10544772D02*
X8079000Y-10516200D01*
X8107571Y-10501914D01*
X8150428Y-10501914D01*
X8179000Y-10516200D01*
X8193286Y-10544772D01*
X8193286Y-10701914D01*
X8779000Y-10387629D02*
X8521857Y-10773343D01*
X9164714Y-10401914D02*
X9193286Y-10401914D01*
X9221857Y-10416200D01*
X9236143Y-10430486D01*
X9250428Y-10459057D01*
X9264714Y-10516200D01*
X9264714Y-10587629D01*
X9250428Y-10644772D01*
X9236143Y-10673343D01*
X9221857Y-10687629D01*
X9193286Y-10701914D01*
X9164714Y-10701914D01*
X9136143Y-10687629D01*
X9121857Y-10673343D01*
X9107571Y-10644772D01*
X9093286Y-10587629D01*
X9093286Y-10516200D01*
X9107571Y-10459057D01*
X9121857Y-10430486D01*
X9136143Y-10416200D01*
X9164714Y-10401914D01*
X9393286Y-10673343D02*
X9407571Y-10687629D01*
X9393286Y-10701914D01*
X9379000Y-10687629D01*
X9393286Y-10673343D01*
X9393286Y-10701914D01*
X9593286Y-10401914D02*
X9621857Y-10401914D01*
X9650428Y-10416200D01*
X9664714Y-10430486D01*
X9679000Y-10459057D01*
X9693286Y-10516200D01*
X9693286Y-10587629D01*
X9679000Y-10644772D01*
X9664714Y-10673343D01*
X9650428Y-10687629D01*
X9621857Y-10701914D01*
X9593286Y-10701914D01*
X9564714Y-10687629D01*
X9550428Y-10673343D01*
X9536143Y-10644772D01*
X9521857Y-10587629D01*
X9521857Y-10516200D01*
X9536143Y-10459057D01*
X9550428Y-10430486D01*
X9564714Y-10416200D01*
X9593286Y-10401914D01*
X9979000Y-10701914D02*
X9807571Y-10701914D01*
X9893286Y-10701914D02*
X9893286Y-10401914D01*
X9864714Y-10444772D01*
X9836143Y-10473343D01*
X9807571Y-10487629D01*
X10250428Y-10401914D02*
X10107571Y-10401914D01*
X10093286Y-10544772D01*
X10107571Y-10530486D01*
X10136143Y-10516200D01*
X10207571Y-10516200D01*
X10236143Y-10530486D01*
X10250428Y-10544772D01*
X10264714Y-10573343D01*
X10264714Y-10644772D01*
X10250428Y-10673343D01*
X10236143Y-10687629D01*
X10207571Y-10701914D01*
X10136143Y-10701914D01*
X10107571Y-10687629D01*
X10093286Y-10673343D01*
X10364714Y-10401914D02*
X10564714Y-10401914D01*
X10436143Y-10701914D01*
X10664714Y-10401914D02*
X10664714Y-10459057D01*
X10779000Y-10401914D02*
X10779000Y-10459057D01*
X11221857Y-10816200D02*
X11207571Y-10801914D01*
X11179000Y-10759057D01*
X11164714Y-10730486D01*
X11150428Y-10687629D01*
X11136143Y-10616200D01*
X11136143Y-10559057D01*
X11150428Y-10487629D01*
X11164714Y-10444772D01*
X11179000Y-10416200D01*
X11207571Y-10373343D01*
X11221857Y-10359057D01*
X11464714Y-10501914D02*
X11464714Y-10701914D01*
X11393286Y-10387629D02*
X11321857Y-10601914D01*
X11507571Y-10601914D01*
X11607571Y-10430486D02*
X11621857Y-10416200D01*
X11650428Y-10401914D01*
X11721857Y-10401914D01*
X11750428Y-10416200D01*
X11764714Y-10430486D01*
X11779000Y-10459057D01*
X11779000Y-10487629D01*
X11764714Y-10530486D01*
X11593286Y-10701914D01*
X11779000Y-10701914D01*
X12136143Y-10701914D02*
X12136143Y-10401914D01*
X12264714Y-10701914D02*
X12264714Y-10544772D01*
X12250428Y-10516200D01*
X12221857Y-10501914D01*
X12179000Y-10501914D01*
X12150428Y-10516200D01*
X12136143Y-10530486D01*
X12450428Y-10701914D02*
X12421857Y-10687629D01*
X12407571Y-10673343D01*
X12393286Y-10644772D01*
X12393286Y-10559057D01*
X12407571Y-10530486D01*
X12421857Y-10516200D01*
X12450428Y-10501914D01*
X12493286Y-10501914D01*
X12521857Y-10516200D01*
X12536143Y-10530486D01*
X12550428Y-10559057D01*
X12550428Y-10644772D01*
X12536143Y-10673343D01*
X12521857Y-10687629D01*
X12493286Y-10701914D01*
X12450428Y-10701914D01*
X12721857Y-10701914D02*
X12693286Y-10687629D01*
X12679000Y-10659057D01*
X12679000Y-10401914D01*
X12950428Y-10687629D02*
X12921857Y-10701914D01*
X12864714Y-10701914D01*
X12836143Y-10687629D01*
X12821857Y-10659057D01*
X12821857Y-10544772D01*
X12836143Y-10516200D01*
X12864714Y-10501914D01*
X12921857Y-10501914D01*
X12950428Y-10516200D01*
X12964714Y-10544772D01*
X12964714Y-10573343D01*
X12821857Y-10601914D01*
X13079000Y-10687629D02*
X13107571Y-10701914D01*
X13164714Y-10701914D01*
X13193286Y-10687629D01*
X13207571Y-10659057D01*
X13207571Y-10644772D01*
X13193286Y-10616200D01*
X13164714Y-10601914D01*
X13121857Y-10601914D01*
X13093286Y-10587629D01*
X13079000Y-10559057D01*
X13079000Y-10544772D01*
X13093286Y-10516200D01*
X13121857Y-10501914D01*
X13164714Y-10501914D01*
X13193286Y-10516200D01*
X13307571Y-10816200D02*
X13321857Y-10801914D01*
X13350428Y-10759057D01*
X13364714Y-10730486D01*
X13379000Y-10687629D01*
X13393286Y-10616200D01*
X13393286Y-10559057D01*
X13379000Y-10487629D01*
X13364714Y-10444772D01*
X13350428Y-10416200D01*
X13321857Y-10373343D01*
X13307571Y-10359057D01*
X5964000Y-10962200D02*
G75*
G03*
X5964000Y-10962200I-40000J0D01*
G01*
X6307571Y-10797914D02*
X6336143Y-10797914D01*
X6364714Y-10812200D01*
X6379000Y-10826486D01*
X6393286Y-10855057D01*
X6407571Y-10912200D01*
X6407571Y-10983629D01*
X6393286Y-11040772D01*
X6379000Y-11069343D01*
X6364714Y-11083629D01*
X6336143Y-11097914D01*
X6307571Y-11097914D01*
X6279000Y-11083629D01*
X6264714Y-11069343D01*
X6250428Y-11040772D01*
X6236143Y-10983629D01*
X6236143Y-10912200D01*
X6250428Y-10855057D01*
X6264714Y-10826486D01*
X6279000Y-10812200D01*
X6307571Y-10797914D01*
X6536143Y-11069343D02*
X6550428Y-11083629D01*
X6536143Y-11097914D01*
X6521857Y-11083629D01*
X6536143Y-11069343D01*
X6536143Y-11097914D01*
X6721857Y-10926486D02*
X6693286Y-10912200D01*
X6679000Y-10897914D01*
X6664714Y-10869343D01*
X6664714Y-10855057D01*
X6679000Y-10826486D01*
X6693286Y-10812200D01*
X6721857Y-10797914D01*
X6779000Y-10797914D01*
X6807571Y-10812200D01*
X6821857Y-10826486D01*
X6836143Y-10855057D01*
X6836143Y-10869343D01*
X6821857Y-10897914D01*
X6807571Y-10912200D01*
X6779000Y-10926486D01*
X6721857Y-10926486D01*
X6693286Y-10940772D01*
X6679000Y-10955057D01*
X6664714Y-10983629D01*
X6664714Y-11040772D01*
X6679000Y-11069343D01*
X6693286Y-11083629D01*
X6721857Y-11097914D01*
X6779000Y-11097914D01*
X6807571Y-11083629D01*
X6821857Y-11069343D01*
X6836143Y-11040772D01*
X6836143Y-10983629D01*
X6821857Y-10955057D01*
X6807571Y-10940772D01*
X6779000Y-10926486D01*
X7021857Y-10797914D02*
X7050428Y-10797914D01*
X7079000Y-10812200D01*
X7093286Y-10826486D01*
X7107571Y-10855057D01*
X7121857Y-10912200D01*
X7121857Y-10983629D01*
X7107571Y-11040772D01*
X7093286Y-11069343D01*
X7079000Y-11083629D01*
X7050428Y-11097914D01*
X7021857Y-11097914D01*
X6993286Y-11083629D01*
X6979000Y-11069343D01*
X6964714Y-11040772D01*
X6950428Y-10983629D01*
X6950428Y-10912200D01*
X6964714Y-10855057D01*
X6979000Y-10826486D01*
X6993286Y-10812200D01*
X7021857Y-10797914D01*
X7307571Y-10797914D02*
X7336143Y-10797914D01*
X7364714Y-10812200D01*
X7379000Y-10826486D01*
X7393286Y-10855057D01*
X7407571Y-10912200D01*
X7407571Y-10983629D01*
X7393286Y-11040772D01*
X7379000Y-11069343D01*
X7364714Y-11083629D01*
X7336143Y-11097914D01*
X7307571Y-11097914D01*
X7279000Y-11083629D01*
X7264714Y-11069343D01*
X7250428Y-11040772D01*
X7236143Y-10983629D01*
X7236143Y-10912200D01*
X7250428Y-10855057D01*
X7264714Y-10826486D01*
X7279000Y-10812200D01*
X7307571Y-10797914D01*
X7536143Y-11097914D02*
X7536143Y-10897914D01*
X7536143Y-10926486D02*
X7550428Y-10912200D01*
X7579000Y-10897914D01*
X7621857Y-10897914D01*
X7650428Y-10912200D01*
X7664714Y-10940772D01*
X7664714Y-11097914D01*
X7664714Y-10940772D02*
X7679000Y-10912200D01*
X7707571Y-10897914D01*
X7750428Y-10897914D01*
X7779000Y-10912200D01*
X7793286Y-10940772D01*
X7793286Y-11097914D01*
X7936143Y-11097914D02*
X7936143Y-10897914D01*
X7936143Y-10926486D02*
X7950428Y-10912200D01*
X7979000Y-10897914D01*
X8021857Y-10897914D01*
X8050428Y-10912200D01*
X8064714Y-10940772D01*
X8064714Y-11097914D01*
X8064714Y-10940772D02*
X8079000Y-10912200D01*
X8107571Y-10897914D01*
X8150428Y-10897914D01*
X8179000Y-10912200D01*
X8193286Y-10940772D01*
X8193286Y-11097914D01*
X8779000Y-10783629D02*
X8521857Y-11169343D01*
X9164714Y-10797914D02*
X9193286Y-10797914D01*
X9221857Y-10812200D01*
X9236143Y-10826486D01*
X9250428Y-10855057D01*
X9264714Y-10912200D01*
X9264714Y-10983629D01*
X9250428Y-11040772D01*
X9236143Y-11069343D01*
X9221857Y-11083629D01*
X9193286Y-11097914D01*
X9164714Y-11097914D01*
X9136143Y-11083629D01*
X9121857Y-11069343D01*
X9107571Y-11040772D01*
X9093286Y-10983629D01*
X9093286Y-10912200D01*
X9107571Y-10855057D01*
X9121857Y-10826486D01*
X9136143Y-10812200D01*
X9164714Y-10797914D01*
X9393286Y-11069343D02*
X9407571Y-11083629D01*
X9393286Y-11097914D01*
X9379000Y-11083629D01*
X9393286Y-11069343D01*
X9393286Y-11097914D01*
X9593286Y-10797914D02*
X9621857Y-10797914D01*
X9650428Y-10812200D01*
X9664714Y-10826486D01*
X9679000Y-10855057D01*
X9693286Y-10912200D01*
X9693286Y-10983629D01*
X9679000Y-11040772D01*
X9664714Y-11069343D01*
X9650428Y-11083629D01*
X9621857Y-11097914D01*
X9593286Y-11097914D01*
X9564714Y-11083629D01*
X9550428Y-11069343D01*
X9536143Y-11040772D01*
X9521857Y-10983629D01*
X9521857Y-10912200D01*
X9536143Y-10855057D01*
X9550428Y-10826486D01*
X9564714Y-10812200D01*
X9593286Y-10797914D01*
X9793286Y-10797914D02*
X9979000Y-10797914D01*
X9879000Y-10912200D01*
X9921857Y-10912200D01*
X9950428Y-10926486D01*
X9964714Y-10940772D01*
X9979000Y-10969343D01*
X9979000Y-11040772D01*
X9964714Y-11069343D01*
X9950428Y-11083629D01*
X9921857Y-11097914D01*
X9836143Y-11097914D01*
X9807571Y-11083629D01*
X9793286Y-11069343D01*
X10264714Y-11097914D02*
X10093286Y-11097914D01*
X10179000Y-11097914D02*
X10179000Y-10797914D01*
X10150428Y-10840772D01*
X10121857Y-10869343D01*
X10093286Y-10883629D01*
X10536143Y-10797914D02*
X10393286Y-10797914D01*
X10379000Y-10940772D01*
X10393286Y-10926486D01*
X10421857Y-10912200D01*
X10493286Y-10912200D01*
X10521857Y-10926486D01*
X10536143Y-10940772D01*
X10550428Y-10969343D01*
X10550428Y-11040772D01*
X10536143Y-11069343D01*
X10521857Y-11083629D01*
X10493286Y-11097914D01*
X10421857Y-11097914D01*
X10393286Y-11083629D01*
X10379000Y-11069343D01*
X10664714Y-10797914D02*
X10664714Y-10855057D01*
X10779000Y-10797914D02*
X10779000Y-10855057D01*
X11221857Y-11212200D02*
X11207571Y-11197914D01*
X11179000Y-11155057D01*
X11164714Y-11126486D01*
X11150428Y-11083629D01*
X11136143Y-11012200D01*
X11136143Y-10955057D01*
X11150428Y-10883629D01*
X11164714Y-10840772D01*
X11179000Y-10812200D01*
X11207571Y-10769343D01*
X11221857Y-10755057D01*
X11321857Y-10826486D02*
X11336143Y-10812200D01*
X11364714Y-10797914D01*
X11436143Y-10797914D01*
X11464714Y-10812200D01*
X11479000Y-10826486D01*
X11493286Y-10855057D01*
X11493286Y-10883629D01*
X11479000Y-10926486D01*
X11307571Y-11097914D01*
X11493286Y-11097914D01*
X11664714Y-10926486D02*
X11636143Y-10912200D01*
X11621857Y-10897914D01*
X11607571Y-10869343D01*
X11607571Y-10855057D01*
X11621857Y-10826486D01*
X11636143Y-10812200D01*
X11664714Y-10797914D01*
X11721857Y-10797914D01*
X11750428Y-10812200D01*
X11764714Y-10826486D01*
X11779000Y-10855057D01*
X11779000Y-10869343D01*
X11764714Y-10897914D01*
X11750428Y-10912200D01*
X11721857Y-10926486D01*
X11664714Y-10926486D01*
X11636143Y-10940772D01*
X11621857Y-10955057D01*
X11607571Y-10983629D01*
X11607571Y-11040772D01*
X11621857Y-11069343D01*
X11636143Y-11083629D01*
X11664714Y-11097914D01*
X11721857Y-11097914D01*
X11750428Y-11083629D01*
X11764714Y-11069343D01*
X11779000Y-11040772D01*
X11779000Y-10983629D01*
X11764714Y-10955057D01*
X11750428Y-10940772D01*
X11721857Y-10926486D01*
X12136143Y-11097914D02*
X12136143Y-10797914D01*
X12264714Y-11097914D02*
X12264714Y-10940772D01*
X12250428Y-10912200D01*
X12221857Y-10897914D01*
X12179000Y-10897914D01*
X12150428Y-10912200D01*
X12136143Y-10926486D01*
X12450428Y-11097914D02*
X12421857Y-11083629D01*
X12407571Y-11069343D01*
X12393286Y-11040772D01*
X12393286Y-10955057D01*
X12407571Y-10926486D01*
X12421857Y-10912200D01*
X12450428Y-10897914D01*
X12493286Y-10897914D01*
X12521857Y-10912200D01*
X12536143Y-10926486D01*
X12550428Y-10955057D01*
X12550428Y-11040772D01*
X12536143Y-11069343D01*
X12521857Y-11083629D01*
X12493286Y-11097914D01*
X12450428Y-11097914D01*
X12721857Y-11097914D02*
X12693286Y-11083629D01*
X12679000Y-11055057D01*
X12679000Y-10797914D01*
X12950428Y-11083629D02*
X12921857Y-11097914D01*
X12864714Y-11097914D01*
X12836143Y-11083629D01*
X12821857Y-11055057D01*
X12821857Y-10940772D01*
X12836143Y-10912200D01*
X12864714Y-10897914D01*
X12921857Y-10897914D01*
X12950428Y-10912200D01*
X12964714Y-10940772D01*
X12964714Y-10969343D01*
X12821857Y-10997914D01*
X13079000Y-11083629D02*
X13107571Y-11097914D01*
X13164714Y-11097914D01*
X13193286Y-11083629D01*
X13207571Y-11055057D01*
X13207571Y-11040772D01*
X13193286Y-11012200D01*
X13164714Y-10997914D01*
X13121857Y-10997914D01*
X13093286Y-10983629D01*
X13079000Y-10955057D01*
X13079000Y-10940772D01*
X13093286Y-10912200D01*
X13121857Y-10897914D01*
X13164714Y-10897914D01*
X13193286Y-10912200D01*
X13307571Y-11212200D02*
X13321857Y-11197914D01*
X13350428Y-11155057D01*
X13364714Y-11126486D01*
X13379000Y-11083629D01*
X13393286Y-11012200D01*
X13393286Y-10955057D01*
X13379000Y-10883629D01*
X13364714Y-10840772D01*
X13350428Y-10812200D01*
X13321857Y-10769343D01*
X13307571Y-10755057D01*
X5919550Y-11313750D02*
X5919550Y-11402650D01*
X5875100Y-11358200D02*
X5964000Y-11358200D01*
X6307571Y-11193914D02*
X6336143Y-11193914D01*
X6364714Y-11208200D01*
X6379000Y-11222486D01*
X6393286Y-11251057D01*
X6407571Y-11308200D01*
X6407571Y-11379629D01*
X6393286Y-11436771D01*
X6379000Y-11465343D01*
X6364714Y-11479629D01*
X6336143Y-11493914D01*
X6307571Y-11493914D01*
X6279000Y-11479629D01*
X6264714Y-11465343D01*
X6250428Y-11436771D01*
X6236143Y-11379629D01*
X6236143Y-11308200D01*
X6250428Y-11251057D01*
X6264714Y-11222486D01*
X6279000Y-11208200D01*
X6307571Y-11193914D01*
X6536143Y-11465343D02*
X6550428Y-11479629D01*
X6536143Y-11493914D01*
X6521857Y-11479629D01*
X6536143Y-11465343D01*
X6536143Y-11493914D01*
X6721857Y-11322486D02*
X6693286Y-11308200D01*
X6679000Y-11293914D01*
X6664714Y-11265343D01*
X6664714Y-11251057D01*
X6679000Y-11222486D01*
X6693286Y-11208200D01*
X6721857Y-11193914D01*
X6779000Y-11193914D01*
X6807571Y-11208200D01*
X6821857Y-11222486D01*
X6836143Y-11251057D01*
X6836143Y-11265343D01*
X6821857Y-11293914D01*
X6807571Y-11308200D01*
X6779000Y-11322486D01*
X6721857Y-11322486D01*
X6693286Y-11336771D01*
X6679000Y-11351057D01*
X6664714Y-11379629D01*
X6664714Y-11436771D01*
X6679000Y-11465343D01*
X6693286Y-11479629D01*
X6721857Y-11493914D01*
X6779000Y-11493914D01*
X6807571Y-11479629D01*
X6821857Y-11465343D01*
X6836143Y-11436771D01*
X6836143Y-11379629D01*
X6821857Y-11351057D01*
X6807571Y-11336771D01*
X6779000Y-11322486D01*
X7007571Y-11322486D02*
X6979000Y-11308200D01*
X6964714Y-11293914D01*
X6950428Y-11265343D01*
X6950428Y-11251057D01*
X6964714Y-11222486D01*
X6979000Y-11208200D01*
X7007571Y-11193914D01*
X7064714Y-11193914D01*
X7093286Y-11208200D01*
X7107571Y-11222486D01*
X7121857Y-11251057D01*
X7121857Y-11265343D01*
X7107571Y-11293914D01*
X7093286Y-11308200D01*
X7064714Y-11322486D01*
X7007571Y-11322486D01*
X6979000Y-11336771D01*
X6964714Y-11351057D01*
X6950428Y-11379629D01*
X6950428Y-11436771D01*
X6964714Y-11465343D01*
X6979000Y-11479629D01*
X7007571Y-11493914D01*
X7064714Y-11493914D01*
X7093286Y-11479629D01*
X7107571Y-11465343D01*
X7121857Y-11436771D01*
X7121857Y-11379629D01*
X7107571Y-11351057D01*
X7093286Y-11336771D01*
X7064714Y-11322486D01*
X7264714Y-11493914D02*
X7321857Y-11493914D01*
X7350428Y-11479629D01*
X7364714Y-11465343D01*
X7393286Y-11422486D01*
X7407571Y-11365343D01*
X7407571Y-11251057D01*
X7393286Y-11222486D01*
X7379000Y-11208200D01*
X7350428Y-11193914D01*
X7293286Y-11193914D01*
X7264714Y-11208200D01*
X7250428Y-11222486D01*
X7236143Y-11251057D01*
X7236143Y-11322486D01*
X7250428Y-11351057D01*
X7264714Y-11365343D01*
X7293286Y-11379629D01*
X7350428Y-11379629D01*
X7379000Y-11365343D01*
X7393286Y-11351057D01*
X7407571Y-11322486D01*
X7536143Y-11493914D02*
X7536143Y-11293914D01*
X7536143Y-11322486D02*
X7550428Y-11308200D01*
X7579000Y-11293914D01*
X7621857Y-11293914D01*
X7650428Y-11308200D01*
X7664714Y-11336771D01*
X7664714Y-11493914D01*
X7664714Y-11336771D02*
X7679000Y-11308200D01*
X7707571Y-11293914D01*
X7750428Y-11293914D01*
X7779000Y-11308200D01*
X7793286Y-11336771D01*
X7793286Y-11493914D01*
X7936143Y-11493914D02*
X7936143Y-11293914D01*
X7936143Y-11322486D02*
X7950428Y-11308200D01*
X7979000Y-11293914D01*
X8021857Y-11293914D01*
X8050428Y-11308200D01*
X8064714Y-11336771D01*
X8064714Y-11493914D01*
X8064714Y-11336771D02*
X8079000Y-11308200D01*
X8107571Y-11293914D01*
X8150428Y-11293914D01*
X8179000Y-11308200D01*
X8193286Y-11336771D01*
X8193286Y-11493914D01*
X8779000Y-11179629D02*
X8521857Y-11565343D01*
X9164714Y-11193914D02*
X9193286Y-11193914D01*
X9221857Y-11208200D01*
X9236143Y-11222486D01*
X9250428Y-11251057D01*
X9264714Y-11308200D01*
X9264714Y-11379629D01*
X9250428Y-11436771D01*
X9236143Y-11465343D01*
X9221857Y-11479629D01*
X9193286Y-11493914D01*
X9164714Y-11493914D01*
X9136143Y-11479629D01*
X9121857Y-11465343D01*
X9107571Y-11436771D01*
X9093286Y-11379629D01*
X9093286Y-11308200D01*
X9107571Y-11251057D01*
X9121857Y-11222486D01*
X9136143Y-11208200D01*
X9164714Y-11193914D01*
X9393286Y-11465343D02*
X9407571Y-11479629D01*
X9393286Y-11493914D01*
X9379000Y-11479629D01*
X9393286Y-11465343D01*
X9393286Y-11493914D01*
X9593286Y-11193914D02*
X9621857Y-11193914D01*
X9650428Y-11208200D01*
X9664714Y-11222486D01*
X9679000Y-11251057D01*
X9693286Y-11308200D01*
X9693286Y-11379629D01*
X9679000Y-11436771D01*
X9664714Y-11465343D01*
X9650428Y-11479629D01*
X9621857Y-11493914D01*
X9593286Y-11493914D01*
X9564714Y-11479629D01*
X9550428Y-11465343D01*
X9536143Y-11436771D01*
X9521857Y-11379629D01*
X9521857Y-11308200D01*
X9536143Y-11251057D01*
X9550428Y-11222486D01*
X9564714Y-11208200D01*
X9593286Y-11193914D01*
X9793286Y-11193914D02*
X9979000Y-11193914D01*
X9879000Y-11308200D01*
X9921857Y-11308200D01*
X9950428Y-11322486D01*
X9964714Y-11336771D01*
X9979000Y-11365343D01*
X9979000Y-11436771D01*
X9964714Y-11465343D01*
X9950428Y-11479629D01*
X9921857Y-11493914D01*
X9836143Y-11493914D01*
X9807571Y-11479629D01*
X9793286Y-11465343D01*
X10250428Y-11193914D02*
X10107571Y-11193914D01*
X10093286Y-11336771D01*
X10107571Y-11322486D01*
X10136143Y-11308200D01*
X10207571Y-11308200D01*
X10236143Y-11322486D01*
X10250428Y-11336771D01*
X10264714Y-11365343D01*
X10264714Y-11436771D01*
X10250428Y-11465343D01*
X10236143Y-11479629D01*
X10207571Y-11493914D01*
X10136143Y-11493914D01*
X10107571Y-11479629D01*
X10093286Y-11465343D01*
X10450428Y-11193914D02*
X10479000Y-11193914D01*
X10507571Y-11208200D01*
X10521857Y-11222486D01*
X10536143Y-11251057D01*
X10550428Y-11308200D01*
X10550428Y-11379629D01*
X10536143Y-11436771D01*
X10521857Y-11465343D01*
X10507571Y-11479629D01*
X10479000Y-11493914D01*
X10450428Y-11493914D01*
X10421857Y-11479629D01*
X10407571Y-11465343D01*
X10393286Y-11436771D01*
X10379000Y-11379629D01*
X10379000Y-11308200D01*
X10393286Y-11251057D01*
X10407571Y-11222486D01*
X10421857Y-11208200D01*
X10450428Y-11193914D01*
X10664714Y-11193914D02*
X10664714Y-11251057D01*
X10779000Y-11193914D02*
X10779000Y-11251057D01*
X11221857Y-11608200D02*
X11207571Y-11593914D01*
X11179000Y-11551057D01*
X11164714Y-11522486D01*
X11150428Y-11479629D01*
X11136143Y-11408200D01*
X11136143Y-11351057D01*
X11150428Y-11279629D01*
X11164714Y-11236771D01*
X11179000Y-11208200D01*
X11207571Y-11165343D01*
X11221857Y-11151057D01*
X11321857Y-11222486D02*
X11336143Y-11208200D01*
X11364714Y-11193914D01*
X11436143Y-11193914D01*
X11464714Y-11208200D01*
X11479000Y-11222486D01*
X11493286Y-11251057D01*
X11493286Y-11279629D01*
X11479000Y-11322486D01*
X11307571Y-11493914D01*
X11493286Y-11493914D01*
X11679000Y-11193914D02*
X11707571Y-11193914D01*
X11736143Y-11208200D01*
X11750428Y-11222486D01*
X11764714Y-11251057D01*
X11779000Y-11308200D01*
X11779000Y-11379629D01*
X11764714Y-11436771D01*
X11750428Y-11465343D01*
X11736143Y-11479629D01*
X11707571Y-11493914D01*
X11679000Y-11493914D01*
X11650428Y-11479629D01*
X11636143Y-11465343D01*
X11621857Y-11436771D01*
X11607571Y-11379629D01*
X11607571Y-11308200D01*
X11621857Y-11251057D01*
X11636143Y-11222486D01*
X11650428Y-11208200D01*
X11679000Y-11193914D01*
X12136143Y-11493914D02*
X12136143Y-11193914D01*
X12264714Y-11493914D02*
X12264714Y-11336771D01*
X12250428Y-11308200D01*
X12221857Y-11293914D01*
X12179000Y-11293914D01*
X12150428Y-11308200D01*
X12136143Y-11322486D01*
X12450428Y-11493914D02*
X12421857Y-11479629D01*
X12407571Y-11465343D01*
X12393286Y-11436771D01*
X12393286Y-11351057D01*
X12407571Y-11322486D01*
X12421857Y-11308200D01*
X12450428Y-11293914D01*
X12493286Y-11293914D01*
X12521857Y-11308200D01*
X12536143Y-11322486D01*
X12550428Y-11351057D01*
X12550428Y-11436771D01*
X12536143Y-11465343D01*
X12521857Y-11479629D01*
X12493286Y-11493914D01*
X12450428Y-11493914D01*
X12721857Y-11493914D02*
X12693286Y-11479629D01*
X12679000Y-11451057D01*
X12679000Y-11193914D01*
X12950428Y-11479629D02*
X12921857Y-11493914D01*
X12864714Y-11493914D01*
X12836143Y-11479629D01*
X12821857Y-11451057D01*
X12821857Y-11336771D01*
X12836143Y-11308200D01*
X12864714Y-11293914D01*
X12921857Y-11293914D01*
X12950428Y-11308200D01*
X12964714Y-11336771D01*
X12964714Y-11365343D01*
X12821857Y-11393914D01*
X13079000Y-11479629D02*
X13107571Y-11493914D01*
X13164714Y-11493914D01*
X13193286Y-11479629D01*
X13207571Y-11451057D01*
X13207571Y-11436771D01*
X13193286Y-11408200D01*
X13164714Y-11393914D01*
X13121857Y-11393914D01*
X13093286Y-11379629D01*
X13079000Y-11351057D01*
X13079000Y-11336771D01*
X13093286Y-11308200D01*
X13121857Y-11293914D01*
X13164714Y-11293914D01*
X13193286Y-11308200D01*
X13307571Y-11608200D02*
X13321857Y-11593914D01*
X13350428Y-11551057D01*
X13364714Y-11522486D01*
X13379000Y-11479629D01*
X13393286Y-11408200D01*
X13393286Y-11351057D01*
X13379000Y-11279629D01*
X13364714Y-11236771D01*
X13350428Y-11208200D01*
X13321857Y-11165343D01*
X13307571Y-11151057D01*
X5949356Y-11789556D02*
X5949356Y-11718844D01*
X5878644Y-11718844D01*
X5878644Y-11789556D01*
X5949356Y-11789556D01*
X6407571Y-11889914D02*
X6236143Y-11889914D01*
X6321857Y-11889914D02*
X6321857Y-11589914D01*
X6293286Y-11632771D01*
X6264714Y-11661343D01*
X6236143Y-11675629D01*
X6536143Y-11861343D02*
X6550428Y-11875629D01*
X6536143Y-11889914D01*
X6521857Y-11875629D01*
X6536143Y-11861343D01*
X6536143Y-11889914D01*
X6736143Y-11589914D02*
X6764714Y-11589914D01*
X6793286Y-11604200D01*
X6807571Y-11618486D01*
X6821857Y-11647057D01*
X6836143Y-11704200D01*
X6836143Y-11775629D01*
X6821857Y-11832771D01*
X6807571Y-11861343D01*
X6793286Y-11875629D01*
X6764714Y-11889914D01*
X6736143Y-11889914D01*
X6707571Y-11875629D01*
X6693286Y-11861343D01*
X6679000Y-11832771D01*
X6664714Y-11775629D01*
X6664714Y-11704200D01*
X6679000Y-11647057D01*
X6693286Y-11618486D01*
X6707571Y-11604200D01*
X6736143Y-11589914D01*
X7021857Y-11589914D02*
X7050428Y-11589914D01*
X7079000Y-11604200D01*
X7093286Y-11618486D01*
X7107571Y-11647057D01*
X7121857Y-11704200D01*
X7121857Y-11775629D01*
X7107571Y-11832771D01*
X7093286Y-11861343D01*
X7079000Y-11875629D01*
X7050428Y-11889914D01*
X7021857Y-11889914D01*
X6993286Y-11875629D01*
X6979000Y-11861343D01*
X6964714Y-11832771D01*
X6950428Y-11775629D01*
X6950428Y-11704200D01*
X6964714Y-11647057D01*
X6979000Y-11618486D01*
X6993286Y-11604200D01*
X7021857Y-11589914D01*
X7307571Y-11589914D02*
X7336143Y-11589914D01*
X7364714Y-11604200D01*
X7379000Y-11618486D01*
X7393286Y-11647057D01*
X7407571Y-11704200D01*
X7407571Y-11775629D01*
X7393286Y-11832771D01*
X7379000Y-11861343D01*
X7364714Y-11875629D01*
X7336143Y-11889914D01*
X7307571Y-11889914D01*
X7279000Y-11875629D01*
X7264714Y-11861343D01*
X7250428Y-11832771D01*
X7236143Y-11775629D01*
X7236143Y-11704200D01*
X7250428Y-11647057D01*
X7264714Y-11618486D01*
X7279000Y-11604200D01*
X7307571Y-11589914D01*
X7536143Y-11889914D02*
X7536143Y-11689914D01*
X7536143Y-11718486D02*
X7550428Y-11704200D01*
X7579000Y-11689914D01*
X7621857Y-11689914D01*
X7650428Y-11704200D01*
X7664714Y-11732771D01*
X7664714Y-11889914D01*
X7664714Y-11732771D02*
X7679000Y-11704200D01*
X7707571Y-11689914D01*
X7750428Y-11689914D01*
X7779000Y-11704200D01*
X7793286Y-11732771D01*
X7793286Y-11889914D01*
X7936143Y-11889914D02*
X7936143Y-11689914D01*
X7936143Y-11718486D02*
X7950428Y-11704200D01*
X7979000Y-11689914D01*
X8021857Y-11689914D01*
X8050428Y-11704200D01*
X8064714Y-11732771D01*
X8064714Y-11889914D01*
X8064714Y-11732771D02*
X8079000Y-11704200D01*
X8107571Y-11689914D01*
X8150428Y-11689914D01*
X8179000Y-11704200D01*
X8193286Y-11732771D01*
X8193286Y-11889914D01*
X8779000Y-11575629D02*
X8521857Y-11961343D01*
X9164714Y-11589914D02*
X9193286Y-11589914D01*
X9221857Y-11604200D01*
X9236143Y-11618486D01*
X9250428Y-11647057D01*
X9264714Y-11704200D01*
X9264714Y-11775629D01*
X9250428Y-11832771D01*
X9236143Y-11861343D01*
X9221857Y-11875629D01*
X9193286Y-11889914D01*
X9164714Y-11889914D01*
X9136143Y-11875629D01*
X9121857Y-11861343D01*
X9107571Y-11832771D01*
X9093286Y-11775629D01*
X9093286Y-11704200D01*
X9107571Y-11647057D01*
X9121857Y-11618486D01*
X9136143Y-11604200D01*
X9164714Y-11589914D01*
X9393286Y-11861343D02*
X9407571Y-11875629D01*
X9393286Y-11889914D01*
X9379000Y-11875629D01*
X9393286Y-11861343D01*
X9393286Y-11889914D01*
X9593286Y-11589914D02*
X9621857Y-11589914D01*
X9650428Y-11604200D01*
X9664714Y-11618486D01*
X9679000Y-11647057D01*
X9693286Y-11704200D01*
X9693286Y-11775629D01*
X9679000Y-11832771D01*
X9664714Y-11861343D01*
X9650428Y-11875629D01*
X9621857Y-11889914D01*
X9593286Y-11889914D01*
X9564714Y-11875629D01*
X9550428Y-11861343D01*
X9536143Y-11832771D01*
X9521857Y-11775629D01*
X9521857Y-11704200D01*
X9536143Y-11647057D01*
X9550428Y-11618486D01*
X9564714Y-11604200D01*
X9593286Y-11589914D01*
X9793286Y-11589914D02*
X9979000Y-11589914D01*
X9879000Y-11704200D01*
X9921857Y-11704200D01*
X9950428Y-11718486D01*
X9964714Y-11732771D01*
X9979000Y-11761343D01*
X9979000Y-11832771D01*
X9964714Y-11861343D01*
X9950428Y-11875629D01*
X9921857Y-11889914D01*
X9836143Y-11889914D01*
X9807571Y-11875629D01*
X9793286Y-11861343D01*
X10121857Y-11889914D02*
X10179000Y-11889914D01*
X10207571Y-11875629D01*
X10221857Y-11861343D01*
X10250428Y-11818486D01*
X10264714Y-11761343D01*
X10264714Y-11647057D01*
X10250428Y-11618486D01*
X10236143Y-11604200D01*
X10207571Y-11589914D01*
X10150428Y-11589914D01*
X10121857Y-11604200D01*
X10107571Y-11618486D01*
X10093286Y-11647057D01*
X10093286Y-11718486D01*
X10107571Y-11747057D01*
X10121857Y-11761343D01*
X10150428Y-11775629D01*
X10207571Y-11775629D01*
X10236143Y-11761343D01*
X10250428Y-11747057D01*
X10264714Y-11718486D01*
X10521857Y-11689914D02*
X10521857Y-11889914D01*
X10450428Y-11575629D02*
X10379000Y-11789914D01*
X10564714Y-11789914D01*
X10664714Y-11589914D02*
X10664714Y-11647057D01*
X10779000Y-11589914D02*
X10779000Y-11647057D01*
X11221857Y-12004200D02*
X11207571Y-11989914D01*
X11179000Y-11947057D01*
X11164714Y-11918486D01*
X11150428Y-11875629D01*
X11136143Y-11804200D01*
X11136143Y-11747057D01*
X11150428Y-11675629D01*
X11164714Y-11632771D01*
X11179000Y-11604200D01*
X11207571Y-11561343D01*
X11221857Y-11547057D01*
X11493286Y-11889914D02*
X11321857Y-11889914D01*
X11407571Y-11889914D02*
X11407571Y-11589914D01*
X11379000Y-11632771D01*
X11350428Y-11661343D01*
X11321857Y-11675629D01*
X11607571Y-11618486D02*
X11621857Y-11604200D01*
X11650428Y-11589914D01*
X11721857Y-11589914D01*
X11750428Y-11604200D01*
X11764714Y-11618486D01*
X11779000Y-11647057D01*
X11779000Y-11675629D01*
X11764714Y-11718486D01*
X11593286Y-11889914D01*
X11779000Y-11889914D01*
X12136143Y-11889914D02*
X12136143Y-11589914D01*
X12264714Y-11889914D02*
X12264714Y-11732771D01*
X12250428Y-11704200D01*
X12221857Y-11689914D01*
X12179000Y-11689914D01*
X12150428Y-11704200D01*
X12136143Y-11718486D01*
X12450428Y-11889914D02*
X12421857Y-11875629D01*
X12407571Y-11861343D01*
X12393286Y-11832771D01*
X12393286Y-11747057D01*
X12407571Y-11718486D01*
X12421857Y-11704200D01*
X12450428Y-11689914D01*
X12493286Y-11689914D01*
X12521857Y-11704200D01*
X12536143Y-11718486D01*
X12550428Y-11747057D01*
X12550428Y-11832771D01*
X12536143Y-11861343D01*
X12521857Y-11875629D01*
X12493286Y-11889914D01*
X12450428Y-11889914D01*
X12721857Y-11889914D02*
X12693286Y-11875629D01*
X12679000Y-11847057D01*
X12679000Y-11589914D01*
X12950428Y-11875629D02*
X12921857Y-11889914D01*
X12864714Y-11889914D01*
X12836143Y-11875629D01*
X12821857Y-11847057D01*
X12821857Y-11732771D01*
X12836143Y-11704200D01*
X12864714Y-11689914D01*
X12921857Y-11689914D01*
X12950428Y-11704200D01*
X12964714Y-11732771D01*
X12964714Y-11761343D01*
X12821857Y-11789914D01*
X13079000Y-11875629D02*
X13107571Y-11889914D01*
X13164714Y-11889914D01*
X13193286Y-11875629D01*
X13207571Y-11847057D01*
X13207571Y-11832771D01*
X13193286Y-11804200D01*
X13164714Y-11789914D01*
X13121857Y-11789914D01*
X13093286Y-11775629D01*
X13079000Y-11747057D01*
X13079000Y-11732771D01*
X13093286Y-11704200D01*
X13121857Y-11689914D01*
X13164714Y-11689914D01*
X13193286Y-11704200D01*
X13307571Y-12004200D02*
X13321857Y-11989914D01*
X13350428Y-11947057D01*
X13364714Y-11918486D01*
X13379000Y-11875629D01*
X13393286Y-11804200D01*
X13393286Y-11747057D01*
X13379000Y-11675629D01*
X13364714Y-11632771D01*
X13350428Y-11604200D01*
X13321857Y-11561343D01*
X13307571Y-11547057D01*
X5913200Y-12201000D02*
X5964000Y-12150200D01*
X5913200Y-12099400D01*
X5862400Y-12150200D01*
X5913200Y-12201000D01*
X6407571Y-12285914D02*
X6236143Y-12285914D01*
X6321857Y-12285914D02*
X6321857Y-11985914D01*
X6293286Y-12028771D01*
X6264714Y-12057343D01*
X6236143Y-12071629D01*
X6536143Y-12257343D02*
X6550428Y-12271629D01*
X6536143Y-12285914D01*
X6521857Y-12271629D01*
X6536143Y-12257343D01*
X6536143Y-12285914D01*
X6736143Y-11985914D02*
X6764714Y-11985914D01*
X6793286Y-12000200D01*
X6807571Y-12014486D01*
X6821857Y-12043057D01*
X6836143Y-12100200D01*
X6836143Y-12171629D01*
X6821857Y-12228771D01*
X6807571Y-12257343D01*
X6793286Y-12271629D01*
X6764714Y-12285914D01*
X6736143Y-12285914D01*
X6707571Y-12271629D01*
X6693286Y-12257343D01*
X6679000Y-12228771D01*
X6664714Y-12171629D01*
X6664714Y-12100200D01*
X6679000Y-12043057D01*
X6693286Y-12014486D01*
X6707571Y-12000200D01*
X6736143Y-11985914D01*
X7121857Y-12285914D02*
X6950428Y-12285914D01*
X7036143Y-12285914D02*
X7036143Y-11985914D01*
X7007571Y-12028771D01*
X6979000Y-12057343D01*
X6950428Y-12071629D01*
X7379000Y-11985914D02*
X7321857Y-11985914D01*
X7293286Y-12000200D01*
X7279000Y-12014486D01*
X7250428Y-12057343D01*
X7236143Y-12114486D01*
X7236143Y-12228771D01*
X7250428Y-12257343D01*
X7264714Y-12271629D01*
X7293286Y-12285914D01*
X7350428Y-12285914D01*
X7379000Y-12271629D01*
X7393286Y-12257343D01*
X7407571Y-12228771D01*
X7407571Y-12157343D01*
X7393286Y-12128771D01*
X7379000Y-12114486D01*
X7350428Y-12100200D01*
X7293286Y-12100200D01*
X7264714Y-12114486D01*
X7250428Y-12128771D01*
X7236143Y-12157343D01*
X7536143Y-12285914D02*
X7536143Y-12085914D01*
X7536143Y-12114486D02*
X7550428Y-12100200D01*
X7579000Y-12085914D01*
X7621857Y-12085914D01*
X7650428Y-12100200D01*
X7664714Y-12128771D01*
X7664714Y-12285914D01*
X7664714Y-12128771D02*
X7679000Y-12100200D01*
X7707571Y-12085914D01*
X7750428Y-12085914D01*
X7779000Y-12100200D01*
X7793286Y-12128771D01*
X7793286Y-12285914D01*
X7936143Y-12285914D02*
X7936143Y-12085914D01*
X7936143Y-12114486D02*
X7950428Y-12100200D01*
X7979000Y-12085914D01*
X8021857Y-12085914D01*
X8050428Y-12100200D01*
X8064714Y-12128771D01*
X8064714Y-12285914D01*
X8064714Y-12128771D02*
X8079000Y-12100200D01*
X8107571Y-12085914D01*
X8150428Y-12085914D01*
X8179000Y-12100200D01*
X8193286Y-12128771D01*
X8193286Y-12285914D01*
X8779000Y-11971629D02*
X8521857Y-12357343D01*
X9164714Y-11985914D02*
X9193286Y-11985914D01*
X9221857Y-12000200D01*
X9236143Y-12014486D01*
X9250428Y-12043057D01*
X9264714Y-12100200D01*
X9264714Y-12171629D01*
X9250428Y-12228771D01*
X9236143Y-12257343D01*
X9221857Y-12271629D01*
X9193286Y-12285914D01*
X9164714Y-12285914D01*
X9136143Y-12271629D01*
X9121857Y-12257343D01*
X9107571Y-12228771D01*
X9093286Y-12171629D01*
X9093286Y-12100200D01*
X9107571Y-12043057D01*
X9121857Y-12014486D01*
X9136143Y-12000200D01*
X9164714Y-11985914D01*
X9393286Y-12257343D02*
X9407571Y-12271629D01*
X9393286Y-12285914D01*
X9379000Y-12271629D01*
X9393286Y-12257343D01*
X9393286Y-12285914D01*
X9593286Y-11985914D02*
X9621857Y-11985914D01*
X9650428Y-12000200D01*
X9664714Y-12014486D01*
X9679000Y-12043057D01*
X9693286Y-12100200D01*
X9693286Y-12171629D01*
X9679000Y-12228771D01*
X9664714Y-12257343D01*
X9650428Y-12271629D01*
X9621857Y-12285914D01*
X9593286Y-12285914D01*
X9564714Y-12271629D01*
X9550428Y-12257343D01*
X9536143Y-12228771D01*
X9521857Y-12171629D01*
X9521857Y-12100200D01*
X9536143Y-12043057D01*
X9550428Y-12014486D01*
X9564714Y-12000200D01*
X9593286Y-11985914D01*
X9950428Y-12085914D02*
X9950428Y-12285914D01*
X9879000Y-11971629D02*
X9807571Y-12185914D01*
X9993286Y-12185914D01*
X10164714Y-11985914D02*
X10193286Y-11985914D01*
X10221857Y-12000200D01*
X10236143Y-12014486D01*
X10250428Y-12043057D01*
X10264714Y-12100200D01*
X10264714Y-12171629D01*
X10250428Y-12228771D01*
X10236143Y-12257343D01*
X10221857Y-12271629D01*
X10193286Y-12285914D01*
X10164714Y-12285914D01*
X10136143Y-12271629D01*
X10121857Y-12257343D01*
X10107571Y-12228771D01*
X10093286Y-12171629D01*
X10093286Y-12100200D01*
X10107571Y-12043057D01*
X10121857Y-12014486D01*
X10136143Y-12000200D01*
X10164714Y-11985914D01*
X10450428Y-11985914D02*
X10479000Y-11985914D01*
X10507571Y-12000200D01*
X10521857Y-12014486D01*
X10536143Y-12043057D01*
X10550428Y-12100200D01*
X10550428Y-12171629D01*
X10536143Y-12228771D01*
X10521857Y-12257343D01*
X10507571Y-12271629D01*
X10479000Y-12285914D01*
X10450428Y-12285914D01*
X10421857Y-12271629D01*
X10407571Y-12257343D01*
X10393286Y-12228771D01*
X10379000Y-12171629D01*
X10379000Y-12100200D01*
X10393286Y-12043057D01*
X10407571Y-12014486D01*
X10421857Y-12000200D01*
X10450428Y-11985914D01*
X10664714Y-11985914D02*
X10664714Y-12043057D01*
X10779000Y-11985914D02*
X10779000Y-12043057D01*
X11221857Y-12400200D02*
X11207571Y-12385914D01*
X11179000Y-12343057D01*
X11164714Y-12314486D01*
X11150428Y-12271629D01*
X11136143Y-12200200D01*
X11136143Y-12143057D01*
X11150428Y-12071629D01*
X11164714Y-12028771D01*
X11179000Y-12000200D01*
X11207571Y-11957343D01*
X11221857Y-11943057D01*
X11464714Y-12085914D02*
X11464714Y-12285914D01*
X11393286Y-11971629D02*
X11321857Y-12185914D01*
X11507571Y-12185914D01*
X11850428Y-12285914D02*
X11850428Y-11985914D01*
X11979000Y-12285914D02*
X11979000Y-12128771D01*
X11964714Y-12100200D01*
X11936143Y-12085914D01*
X11893286Y-12085914D01*
X11864714Y-12100200D01*
X11850428Y-12114486D01*
X12164714Y-12285914D02*
X12136143Y-12271629D01*
X12121857Y-12257343D01*
X12107571Y-12228771D01*
X12107571Y-12143057D01*
X12121857Y-12114486D01*
X12136143Y-12100200D01*
X12164714Y-12085914D01*
X12207571Y-12085914D01*
X12236143Y-12100200D01*
X12250428Y-12114486D01*
X12264714Y-12143057D01*
X12264714Y-12228771D01*
X12250428Y-12257343D01*
X12236143Y-12271629D01*
X12207571Y-12285914D01*
X12164714Y-12285914D01*
X12436143Y-12285914D02*
X12407571Y-12271629D01*
X12393286Y-12243057D01*
X12393286Y-11985914D01*
X12664714Y-12271629D02*
X12636143Y-12285914D01*
X12579000Y-12285914D01*
X12550428Y-12271629D01*
X12536143Y-12243057D01*
X12536143Y-12128771D01*
X12550428Y-12100200D01*
X12579000Y-12085914D01*
X12636143Y-12085914D01*
X12664714Y-12100200D01*
X12679000Y-12128771D01*
X12679000Y-12157343D01*
X12536143Y-12185914D01*
X12793286Y-12271629D02*
X12821857Y-12285914D01*
X12879000Y-12285914D01*
X12907571Y-12271629D01*
X12921857Y-12243057D01*
X12921857Y-12228771D01*
X12907571Y-12200200D01*
X12879000Y-12185914D01*
X12836143Y-12185914D01*
X12807571Y-12171629D01*
X12793286Y-12143057D01*
X12793286Y-12128771D01*
X12807571Y-12100200D01*
X12836143Y-12085914D01*
X12879000Y-12085914D01*
X12907571Y-12100200D01*
X13021857Y-12400200D02*
X13036143Y-12385914D01*
X13064714Y-12343057D01*
X13079000Y-12314486D01*
X13093286Y-12271629D01*
X13107571Y-12200200D01*
X13107571Y-12143057D01*
X13093286Y-12071629D01*
X13079000Y-12028771D01*
X13064714Y-12000200D01*
X13036143Y-11957343D01*
X13021857Y-11943057D01*
X5534000Y-12331200D02*
X5964000Y-12761200D01*
X5964000Y-12331200D02*
X5534000Y-12761200D01*
X5964000Y-12546200D02*
G75*
G03*
X5964000Y-12546200I-215000J0D01*
G01*
X6379000Y-12481914D02*
X6379000Y-12681914D01*
X6307571Y-12367629D02*
X6236143Y-12581914D01*
X6421857Y-12581914D01*
X6536143Y-12653343D02*
X6550428Y-12667629D01*
X6536143Y-12681914D01*
X6521857Y-12667629D01*
X6536143Y-12653343D01*
X6536143Y-12681914D01*
X6650428Y-12381914D02*
X6836143Y-12381914D01*
X6736143Y-12496200D01*
X6779000Y-12496200D01*
X6807571Y-12510486D01*
X6821857Y-12524771D01*
X6836143Y-12553343D01*
X6836143Y-12624771D01*
X6821857Y-12653343D01*
X6807571Y-12667629D01*
X6779000Y-12681914D01*
X6693286Y-12681914D01*
X6664714Y-12667629D01*
X6650428Y-12653343D01*
X7021857Y-12381914D02*
X7050428Y-12381914D01*
X7079000Y-12396200D01*
X7093286Y-12410486D01*
X7107571Y-12439057D01*
X7121857Y-12496200D01*
X7121857Y-12567629D01*
X7107571Y-12624771D01*
X7093286Y-12653343D01*
X7079000Y-12667629D01*
X7050428Y-12681914D01*
X7021857Y-12681914D01*
X6993286Y-12667629D01*
X6979000Y-12653343D01*
X6964714Y-12624771D01*
X6950428Y-12567629D01*
X6950428Y-12496200D01*
X6964714Y-12439057D01*
X6979000Y-12410486D01*
X6993286Y-12396200D01*
X7021857Y-12381914D01*
X7307571Y-12381914D02*
X7336143Y-12381914D01*
X7364714Y-12396200D01*
X7379000Y-12410486D01*
X7393286Y-12439057D01*
X7407571Y-12496200D01*
X7407571Y-12567629D01*
X7393286Y-12624771D01*
X7379000Y-12653343D01*
X7364714Y-12667629D01*
X7336143Y-12681914D01*
X7307571Y-12681914D01*
X7279000Y-12667629D01*
X7264714Y-12653343D01*
X7250428Y-12624771D01*
X7236143Y-12567629D01*
X7236143Y-12496200D01*
X7250428Y-12439057D01*
X7264714Y-12410486D01*
X7279000Y-12396200D01*
X7307571Y-12381914D01*
X7536143Y-12681914D02*
X7536143Y-12481914D01*
X7536143Y-12510486D02*
X7550428Y-12496200D01*
X7579000Y-12481914D01*
X7621857Y-12481914D01*
X7650428Y-12496200D01*
X7664714Y-12524771D01*
X7664714Y-12681914D01*
X7664714Y-12524771D02*
X7679000Y-12496200D01*
X7707571Y-12481914D01*
X7750428Y-12481914D01*
X7779000Y-12496200D01*
X7793286Y-12524771D01*
X7793286Y-12681914D01*
X7936143Y-12681914D02*
X7936143Y-12481914D01*
X7936143Y-12510486D02*
X7950428Y-12496200D01*
X7979000Y-12481914D01*
X8021857Y-12481914D01*
X8050428Y-12496200D01*
X8064714Y-12524771D01*
X8064714Y-12681914D01*
X8064714Y-12524771D02*
X8079000Y-12496200D01*
X8107571Y-12481914D01*
X8150428Y-12481914D01*
X8179000Y-12496200D01*
X8193286Y-12524771D01*
X8193286Y-12681914D01*
X8779000Y-12367629D02*
X8521857Y-12753343D01*
X9164714Y-12381914D02*
X9193286Y-12381914D01*
X9221857Y-12396200D01*
X9236143Y-12410486D01*
X9250428Y-12439057D01*
X9264714Y-12496200D01*
X9264714Y-12567629D01*
X9250428Y-12624771D01*
X9236143Y-12653343D01*
X9221857Y-12667629D01*
X9193286Y-12681914D01*
X9164714Y-12681914D01*
X9136143Y-12667629D01*
X9121857Y-12653343D01*
X9107571Y-12624771D01*
X9093286Y-12567629D01*
X9093286Y-12496200D01*
X9107571Y-12439057D01*
X9121857Y-12410486D01*
X9136143Y-12396200D01*
X9164714Y-12381914D01*
X9393286Y-12653343D02*
X9407571Y-12667629D01*
X9393286Y-12681914D01*
X9379000Y-12667629D01*
X9393286Y-12653343D01*
X9393286Y-12681914D01*
X9693286Y-12681914D02*
X9521857Y-12681914D01*
X9607571Y-12681914D02*
X9607571Y-12381914D01*
X9579000Y-12424771D01*
X9550428Y-12453343D01*
X9521857Y-12467629D01*
X9950428Y-12381914D02*
X9893286Y-12381914D01*
X9864714Y-12396200D01*
X9850428Y-12410486D01*
X9821857Y-12453343D01*
X9807571Y-12510486D01*
X9807571Y-12624771D01*
X9821857Y-12653343D01*
X9836143Y-12667629D01*
X9864714Y-12681914D01*
X9921857Y-12681914D01*
X9950428Y-12667629D01*
X9964714Y-12653343D01*
X9979000Y-12624771D01*
X9979000Y-12553343D01*
X9964714Y-12524771D01*
X9950428Y-12510486D01*
X9921857Y-12496200D01*
X9864714Y-12496200D01*
X9836143Y-12510486D01*
X9821857Y-12524771D01*
X9807571Y-12553343D01*
X10121857Y-12681914D02*
X10179000Y-12681914D01*
X10207571Y-12667629D01*
X10221857Y-12653343D01*
X10250428Y-12610486D01*
X10264714Y-12553343D01*
X10264714Y-12439057D01*
X10250428Y-12410486D01*
X10236143Y-12396200D01*
X10207571Y-12381914D01*
X10150428Y-12381914D01*
X10121857Y-12396200D01*
X10107571Y-12410486D01*
X10093286Y-12439057D01*
X10093286Y-12510486D01*
X10107571Y-12539057D01*
X10121857Y-12553343D01*
X10150428Y-12567629D01*
X10207571Y-12567629D01*
X10236143Y-12553343D01*
X10250428Y-12539057D01*
X10264714Y-12510486D01*
X10364714Y-12381914D02*
X10550428Y-12381914D01*
X10450428Y-12496200D01*
X10493286Y-12496200D01*
X10521857Y-12510486D01*
X10536143Y-12524771D01*
X10550428Y-12553343D01*
X10550428Y-12624771D01*
X10536143Y-12653343D01*
X10521857Y-12667629D01*
X10493286Y-12681914D01*
X10407571Y-12681914D01*
X10379000Y-12667629D01*
X10364714Y-12653343D01*
X10664714Y-12381914D02*
X10664714Y-12439057D01*
X10779000Y-12381914D02*
X10779000Y-12439057D01*
X11221857Y-12796200D02*
X11207571Y-12781914D01*
X11179000Y-12739057D01*
X11164714Y-12710486D01*
X11150428Y-12667629D01*
X11136143Y-12596200D01*
X11136143Y-12539057D01*
X11150428Y-12467629D01*
X11164714Y-12424771D01*
X11179000Y-12396200D01*
X11207571Y-12353343D01*
X11221857Y-12339057D01*
X11464714Y-12481914D02*
X11464714Y-12681914D01*
X11393286Y-12367629D02*
X11321857Y-12581914D01*
X11507571Y-12581914D01*
X11850428Y-12681914D02*
X11850428Y-12381914D01*
X11979000Y-12681914D02*
X11979000Y-12524771D01*
X11964714Y-12496200D01*
X11936143Y-12481914D01*
X11893286Y-12481914D01*
X11864714Y-12496200D01*
X11850428Y-12510486D01*
X12164714Y-12681914D02*
X12136143Y-12667629D01*
X12121857Y-12653343D01*
X12107571Y-12624771D01*
X12107571Y-12539057D01*
X12121857Y-12510486D01*
X12136143Y-12496200D01*
X12164714Y-12481914D01*
X12207571Y-12481914D01*
X12236143Y-12496200D01*
X12250428Y-12510486D01*
X12264714Y-12539057D01*
X12264714Y-12624771D01*
X12250428Y-12653343D01*
X12236143Y-12667629D01*
X12207571Y-12681914D01*
X12164714Y-12681914D01*
X12436143Y-12681914D02*
X12407571Y-12667629D01*
X12393286Y-12639057D01*
X12393286Y-12381914D01*
X12664714Y-12667629D02*
X12636143Y-12681914D01*
X12579000Y-12681914D01*
X12550428Y-12667629D01*
X12536143Y-12639057D01*
X12536143Y-12524771D01*
X12550428Y-12496200D01*
X12579000Y-12481914D01*
X12636143Y-12481914D01*
X12664714Y-12496200D01*
X12679000Y-12524771D01*
X12679000Y-12553343D01*
X12536143Y-12581914D01*
X12793286Y-12667629D02*
X12821857Y-12681914D01*
X12879000Y-12681914D01*
X12907571Y-12667629D01*
X12921857Y-12639057D01*
X12921857Y-12624771D01*
X12907571Y-12596200D01*
X12879000Y-12581914D01*
X12836143Y-12581914D01*
X12807571Y-12567629D01*
X12793286Y-12539057D01*
X12793286Y-12524771D01*
X12807571Y-12496200D01*
X12836143Y-12481914D01*
X12879000Y-12481914D01*
X12907571Y-12496200D01*
X13021857Y-12796200D02*
X13036143Y-12781914D01*
X13064714Y-12739057D01*
X13079000Y-12710486D01*
X13093286Y-12667629D01*
X13107571Y-12596200D01*
X13107571Y-12539057D01*
X13093286Y-12467629D01*
X13079000Y-12424771D01*
X13064714Y-12396200D01*
X13036143Y-12353343D01*
X13021857Y-12339057D01*
M02*
