%TF.GenerationSoftware,KiCad,Pcbnew,5.1.10*%
%TF.CreationDate,2021-12-13T09:12:35+01:00*%
%TF.ProjectId,serialization_board,73657269-616c-4697-9a61-74696f6e5f62,rev?*%
%TF.SameCoordinates,Original*%
%TF.FileFunction,Soldermask,Bot*%
%TF.FilePolarity,Negative*%
%FSLAX46Y46*%
G04 Gerber Fmt 4.6, Leading zero omitted, Abs format (unit mm)*
G04 Created by KiCad (PCBNEW 5.1.10) date 2021-12-13 09:12:35*
%MOMM*%
%LPD*%
G01*
G04 APERTURE LIST*
%ADD10O,1.700000X1.700000*%
%ADD11R,1.700000X1.700000*%
%ADD12C,1.397000*%
%ADD13C,7.000000*%
%ADD14O,1.600000X1.600000*%
%ADD15R,1.600000X1.600000*%
%ADD16C,1.524000*%
G04 APERTURE END LIST*
D10*
X74168000Y-34183000D03*
D11*
X74168000Y-31643000D03*
D10*
X70485000Y-34163000D03*
D11*
X70485000Y-31623000D03*
D10*
X70358000Y-37846000D03*
X70358000Y-40386000D03*
X70358000Y-42926000D03*
D11*
X70358000Y-45466000D03*
D10*
X74168000Y-37846000D03*
X74168000Y-40386000D03*
X74168000Y-42926000D03*
D11*
X74168000Y-45466000D03*
D12*
X65405000Y-33400999D03*
X65405000Y-35401001D03*
X65405000Y-82295999D03*
X65405000Y-84296001D03*
D13*
X80518000Y-25908000D03*
X80518000Y-91694000D03*
X63754000Y-91694000D03*
X63754000Y-25908000D03*
D12*
X65405000Y-68325999D03*
X65405000Y-70326001D03*
D14*
X69215000Y-82296000D03*
X76835000Y-49276000D03*
X69215000Y-79756000D03*
X76835000Y-51816000D03*
X69215000Y-77216000D03*
X76835000Y-54356000D03*
X69215000Y-74676000D03*
X76835000Y-56896000D03*
X69215000Y-72136000D03*
X76835000Y-59436000D03*
X69215000Y-69596000D03*
X76835000Y-61976000D03*
X69215000Y-67056000D03*
X76835000Y-64516000D03*
X69215000Y-64516000D03*
X76835000Y-67056000D03*
X69215000Y-61976000D03*
X76835000Y-69596000D03*
X69215000Y-59436000D03*
X76835000Y-72136000D03*
X69215000Y-56896000D03*
X76835000Y-74676000D03*
X69215000Y-54356000D03*
X76835000Y-77216000D03*
X69215000Y-51816000D03*
X76835000Y-79756000D03*
X69215000Y-49276000D03*
D15*
X76835000Y-82296000D03*
D12*
X65405000Y-40386000D03*
X65405000Y-42386002D03*
X65405000Y-75310999D03*
X65405000Y-77311001D03*
X65405000Y-61340999D03*
X65405000Y-63341001D03*
X65405000Y-54355999D03*
X65405000Y-56356001D03*
X65405000Y-47370999D03*
X65405000Y-49371001D03*
X78740000Y-45212000D03*
X78740000Y-43211998D03*
D16*
X79756000Y-38354000D03*
X79756000Y-36303999D03*
X79756000Y-34254001D03*
X79756000Y-32204000D03*
D12*
X73136001Y-27686000D03*
X71135999Y-27686000D03*
M02*
