%TF.GenerationSoftware,KiCad,Pcbnew,5.1.10*%
%TF.CreationDate,2021-12-13T09:12:35+01:00*%
%TF.ProjectId,serialization_board,73657269-616c-4697-9a61-74696f6e5f62,rev?*%
%TF.SameCoordinates,Original*%
%TF.FileFunction,Copper,L1,Top*%
%TF.FilePolarity,Positive*%
%FSLAX46Y46*%
G04 Gerber Fmt 4.6, Leading zero omitted, Abs format (unit mm)*
G04 Created by KiCad (PCBNEW 5.1.10) date 2021-12-13 09:12:35*
%MOMM*%
%LPD*%
G01*
G04 APERTURE LIST*
%TA.AperFunction,ComponentPad*%
%ADD10O,1.700000X1.700000*%
%TD*%
%TA.AperFunction,ComponentPad*%
%ADD11R,1.700000X1.700000*%
%TD*%
%TA.AperFunction,ComponentPad*%
%ADD12C,1.397000*%
%TD*%
%TA.AperFunction,ComponentPad*%
%ADD13C,7.000000*%
%TD*%
%TA.AperFunction,ComponentPad*%
%ADD14O,1.600000X1.600000*%
%TD*%
%TA.AperFunction,ComponentPad*%
%ADD15R,1.600000X1.600000*%
%TD*%
%TA.AperFunction,SMDPad,CuDef*%
%ADD16R,1.500000X1.000000*%
%TD*%
%TA.AperFunction,ComponentPad*%
%ADD17C,1.524000*%
%TD*%
%TA.AperFunction,ViaPad*%
%ADD18C,0.800000*%
%TD*%
%TA.AperFunction,Conductor*%
%ADD19C,1.000000*%
%TD*%
%TA.AperFunction,Conductor*%
%ADD20C,0.500000*%
%TD*%
%TA.AperFunction,Conductor*%
%ADD21C,0.250000*%
%TD*%
%TA.AperFunction,Conductor*%
%ADD22C,0.254000*%
%TD*%
%TA.AperFunction,Conductor*%
%ADD23C,0.100000*%
%TD*%
G04 APERTURE END LIST*
D10*
X74168000Y-34183000D03*
D11*
X74168000Y-31643000D03*
D10*
X70485000Y-34163000D03*
D11*
X70485000Y-31623000D03*
D10*
X70358000Y-37846000D03*
X70358000Y-40386000D03*
X70358000Y-42926000D03*
D11*
X70358000Y-45466000D03*
D10*
X74168000Y-37846000D03*
X74168000Y-40386000D03*
X74168000Y-42926000D03*
D11*
X74168000Y-45466000D03*
D12*
X65405000Y-33400999D03*
X65405000Y-35401001D03*
X65405000Y-82295999D03*
X65405000Y-84296001D03*
D13*
X80518000Y-25908000D03*
X80518000Y-91694000D03*
X63754000Y-91694000D03*
X63754000Y-25908000D03*
D12*
X65405000Y-68325999D03*
X65405000Y-70326001D03*
D14*
X69215000Y-82296000D03*
X76835000Y-49276000D03*
X69215000Y-79756000D03*
X76835000Y-51816000D03*
X69215000Y-77216000D03*
X76835000Y-54356000D03*
X69215000Y-74676000D03*
X76835000Y-56896000D03*
X69215000Y-72136000D03*
X76835000Y-59436000D03*
X69215000Y-69596000D03*
X76835000Y-61976000D03*
X69215000Y-67056000D03*
X76835000Y-64516000D03*
X69215000Y-64516000D03*
X76835000Y-67056000D03*
X69215000Y-61976000D03*
X76835000Y-69596000D03*
X69215000Y-59436000D03*
X76835000Y-72136000D03*
X69215000Y-56896000D03*
X76835000Y-74676000D03*
X69215000Y-54356000D03*
X76835000Y-77216000D03*
X69215000Y-51816000D03*
X76835000Y-79756000D03*
X69215000Y-49276000D03*
D15*
X76835000Y-82296000D03*
D12*
X65405000Y-40386000D03*
X65405000Y-42386002D03*
X65405000Y-75310999D03*
X65405000Y-77311001D03*
X65405000Y-61340999D03*
X65405000Y-63341001D03*
X65405000Y-54355999D03*
X65405000Y-56356001D03*
X65405000Y-47370999D03*
X65405000Y-49371001D03*
D16*
X81534000Y-69342000D03*
X81534000Y-68042000D03*
X81534000Y-66742000D03*
X81534000Y-76342000D03*
X81534000Y-75042000D03*
X81534000Y-73742000D03*
X81534000Y-83342000D03*
X81534000Y-82042000D03*
X81534000Y-80742000D03*
D12*
X78740000Y-45212000D03*
X78740000Y-43211998D03*
D17*
X79756000Y-38354000D03*
X79756000Y-36303999D03*
X79756000Y-34254001D03*
X79756000Y-32204000D03*
D12*
X73136001Y-27686000D03*
X71135999Y-27686000D03*
%TA.AperFunction,SMDPad,CuDef*%
G36*
G01*
X79898001Y-59844500D02*
X78597999Y-59844500D01*
G75*
G02*
X78348000Y-59594501I0J249999D01*
G01*
X78348000Y-58769499D01*
G75*
G02*
X78597999Y-58519500I249999J0D01*
G01*
X79898001Y-58519500D01*
G75*
G02*
X80148000Y-58769499I0J-249999D01*
G01*
X80148000Y-59594501D01*
G75*
G02*
X79898001Y-59844500I-249999J0D01*
G01*
G37*
%TD.AperFunction*%
%TA.AperFunction,SMDPad,CuDef*%
G36*
G01*
X79898001Y-62969500D02*
X78597999Y-62969500D01*
G75*
G02*
X78348000Y-62719501I0J249999D01*
G01*
X78348000Y-61894499D01*
G75*
G02*
X78597999Y-61644500I249999J0D01*
G01*
X79898001Y-61644500D01*
G75*
G02*
X80148000Y-61894499I0J-249999D01*
G01*
X80148000Y-62719501D01*
G75*
G02*
X79898001Y-62969500I-249999J0D01*
G01*
G37*
%TD.AperFunction*%
D18*
X69494999Y-89916000D03*
X74776999Y-89916000D03*
X72135999Y-89916000D03*
X68072000Y-86106000D03*
X62738000Y-86106000D03*
X69494999Y-24638000D03*
X74776999Y-24638000D03*
X72135999Y-24638000D03*
X62103000Y-82651001D03*
X62103000Y-77563501D03*
X62103000Y-72476001D03*
X62103000Y-62301001D03*
X62103000Y-67388501D03*
X62103000Y-57213501D03*
X62103000Y-52126001D03*
X62103000Y-47038501D03*
X62103000Y-41951001D03*
X62103000Y-31776001D03*
X62103000Y-36863501D03*
X69494999Y-93218000D03*
X72135999Y-93218000D03*
X74776999Y-93218000D03*
X82042000Y-86106000D03*
X76708000Y-86106000D03*
X72263000Y-86106000D03*
X79502000Y-78232000D03*
X79502000Y-70612000D03*
X80010000Y-64516000D03*
X81280000Y-57404000D03*
X81026000Y-42164000D03*
X81661000Y-46355000D03*
X81661000Y-52578000D03*
X76962000Y-32893000D03*
X72263000Y-36068000D03*
X67945000Y-34163000D03*
X72263000Y-29591000D03*
X67945000Y-29591000D03*
X75946000Y-27686000D03*
X65405000Y-79883000D03*
X72136000Y-60960000D03*
X73406000Y-60960000D03*
X74676000Y-60960000D03*
D19*
X78994000Y-59436000D02*
X79248000Y-59182000D01*
X76835000Y-59436000D02*
X78994000Y-59436000D01*
X78917000Y-61976000D02*
X79248000Y-62307000D01*
X76835000Y-61976000D02*
X78917000Y-61976000D01*
X81534000Y-76342000D02*
X82744002Y-76342000D01*
X83312000Y-76909998D02*
X82744002Y-76342000D01*
X83312000Y-82804000D02*
X83312000Y-76909998D01*
X82774000Y-83342000D02*
X83312000Y-82804000D01*
X81534000Y-83342000D02*
X82774000Y-83342000D01*
X82744002Y-76342000D02*
X83312000Y-75774002D01*
X83058000Y-69342000D02*
X83312000Y-69088000D01*
X81534000Y-69342000D02*
X83058000Y-69342000D01*
X83312000Y-75774002D02*
X83312000Y-76909998D01*
X82744002Y-69342000D02*
X83312000Y-68774002D01*
X83312000Y-68774002D02*
X83312000Y-68580000D01*
X83312000Y-69088000D02*
X83312000Y-68580000D01*
X81534000Y-69342000D02*
X82744002Y-69342000D01*
X83312000Y-69909998D02*
X83312000Y-75774002D01*
X82744002Y-69342000D02*
X83312000Y-69909998D01*
X83312000Y-69909998D02*
X83312000Y-69088000D01*
X83312000Y-62992000D02*
X83312000Y-68580000D01*
X80772000Y-62307000D02*
X82727000Y-62307000D01*
X82727000Y-62307000D02*
X83312000Y-61722000D01*
X83312000Y-61722000D02*
X83312000Y-62992000D01*
X83312000Y-62892000D02*
X82727000Y-62307000D01*
X83312000Y-62992000D02*
X83312000Y-62892000D01*
X80772000Y-62307000D02*
X79248000Y-62307000D01*
X83312000Y-32766000D02*
X80654001Y-30108001D01*
X83312000Y-61722000D02*
X83312000Y-32766000D01*
X75558002Y-30108001D02*
X73136001Y-27686000D01*
X80654001Y-30108001D02*
X75558002Y-30108001D01*
X74043003Y-31623000D02*
X75558002Y-30108001D01*
X70485000Y-31623000D02*
X74043003Y-31623000D01*
D20*
X70358000Y-45466000D02*
X74168000Y-45466000D01*
X74168000Y-49149000D02*
X74168000Y-45466000D01*
X76835000Y-51816000D02*
X74168000Y-49149000D01*
X79756000Y-39878000D02*
X79756000Y-38354000D01*
X74168000Y-45466000D02*
X79756000Y-39878000D01*
X76835000Y-54356000D02*
X69977000Y-47498000D01*
X69977000Y-47498000D02*
X68834000Y-47498000D01*
X68834000Y-41910000D02*
X70358000Y-40386000D01*
X68834000Y-47498000D02*
X68834000Y-41910000D01*
X70358000Y-40386000D02*
X74168000Y-40386000D01*
X76962000Y-37048001D02*
X79756000Y-34254001D01*
X76962000Y-37592000D02*
X76962000Y-37048001D01*
X74168000Y-40386000D02*
X76962000Y-37592000D01*
X73005001Y-55645999D02*
X78466001Y-55645999D01*
X69215000Y-59436000D02*
X73005001Y-55645999D01*
X78740000Y-55372000D02*
X78740000Y-45212000D01*
X78466001Y-55645999D02*
X78740000Y-55372000D01*
X73044999Y-58146001D02*
X77743999Y-58146001D01*
X69215000Y-61976000D02*
X73044999Y-58146001D01*
X77743999Y-58146001D02*
X80264000Y-55626000D01*
X80264000Y-44735998D02*
X78740000Y-43211998D01*
X80264000Y-55626000D02*
X80264000Y-44735998D01*
D21*
X72136000Y-76962000D02*
X72136000Y-60960000D01*
X79518000Y-81026000D02*
X76200000Y-81026000D01*
X80534000Y-82042000D02*
X79518000Y-81026000D01*
X76200000Y-81026000D02*
X72136000Y-76962000D01*
X81534000Y-82042000D02*
X80534000Y-82042000D01*
X80534000Y-75042000D02*
X81534000Y-75042000D01*
X78898000Y-73406000D02*
X80534000Y-75042000D01*
X76200000Y-73406000D02*
X78898000Y-73406000D01*
X73406000Y-70612000D02*
X76200000Y-73406000D01*
X73406000Y-60960000D02*
X73406000Y-70612000D01*
X74676000Y-60960000D02*
X74676000Y-64770000D01*
X74676000Y-64770000D02*
X75692000Y-65786000D01*
X80534000Y-68042000D02*
X81534000Y-68042000D01*
X78278000Y-65786000D02*
X80534000Y-68042000D01*
X75692000Y-65786000D02*
X78278000Y-65786000D01*
X64381499Y-37847717D02*
X67898030Y-41364248D01*
X64381499Y-34424500D02*
X64381499Y-37847717D01*
X65405000Y-33400999D02*
X64381499Y-34424500D01*
X67898030Y-63199030D02*
X69215000Y-64516000D01*
X67898030Y-41364248D02*
X67898030Y-63199030D01*
X64381499Y-44832716D02*
X67448020Y-47899237D01*
X64381499Y-41409501D02*
X64381499Y-44832716D01*
X65405000Y-40386000D02*
X64381499Y-41409501D01*
X67448020Y-65289020D02*
X69215000Y-67056000D01*
X67448020Y-47899237D02*
X67448020Y-65289020D01*
X65405000Y-47370999D02*
X64262000Y-48513999D01*
X64262000Y-51698217D02*
X66998010Y-54434227D01*
X64262000Y-48513999D02*
X64262000Y-51698217D01*
X69215000Y-69212180D02*
X69215000Y-69596000D01*
X66998010Y-66995190D02*
X69215000Y-69212180D01*
X66998010Y-54434227D02*
X66998010Y-66995190D01*
X64381499Y-55379500D02*
X64381499Y-58793499D01*
X65405000Y-54355999D02*
X64381499Y-55379500D01*
X64381499Y-58793499D02*
X66548000Y-60960000D01*
X66548000Y-67181590D02*
X66878511Y-67512101D01*
X66548000Y-60960000D02*
X66548000Y-67181590D01*
X66878511Y-69799511D02*
X69215000Y-72136000D01*
X66878511Y-67512101D02*
X66878511Y-69799511D01*
X65405000Y-61340999D02*
X64262000Y-62483999D01*
X64262000Y-62483999D02*
X64262000Y-65532000D01*
X66428501Y-67698501D02*
X66428501Y-73032501D01*
X64262000Y-65532000D02*
X66428501Y-67698501D01*
X68072000Y-74676000D02*
X69215000Y-74676000D01*
X66428501Y-73032501D02*
X68072000Y-74676000D01*
X64381499Y-69349500D02*
X64381499Y-73652499D01*
X65405000Y-68325999D02*
X64381499Y-69349500D01*
X64381499Y-73652499D02*
X64770000Y-74041000D01*
X64770000Y-74041000D02*
X66040000Y-74041000D01*
X66675000Y-75311000D02*
X69215000Y-77851000D01*
X66675000Y-74676000D02*
X66675000Y-75311000D01*
X66040000Y-74041000D02*
X66675000Y-74676000D01*
X65405000Y-75310999D02*
X66675000Y-76580999D01*
X66675000Y-77851000D02*
X69215000Y-80391000D01*
X66675000Y-76580999D02*
X66675000Y-77851000D01*
X68579999Y-82295999D02*
X69215000Y-82931000D01*
X65405000Y-82295999D02*
X68579999Y-82295999D01*
D22*
X77882091Y-22696136D02*
X77306136Y-23272091D01*
X76853611Y-23949343D01*
X76541906Y-24701865D01*
X76383000Y-25500738D01*
X76383000Y-26315262D01*
X76541906Y-27114135D01*
X76853611Y-27866657D01*
X77306136Y-28543909D01*
X77735228Y-28973001D01*
X76028135Y-28973001D01*
X74434666Y-27379533D01*
X74418255Y-27297032D01*
X74317733Y-27054351D01*
X74171798Y-26835943D01*
X73986058Y-26650203D01*
X73767650Y-26504268D01*
X73524969Y-26403746D01*
X73267339Y-26352500D01*
X73004663Y-26352500D01*
X72747033Y-26403746D01*
X72504352Y-26504268D01*
X72285944Y-26650203D01*
X72100204Y-26835943D01*
X71968397Y-27033207D01*
X71315604Y-27686000D01*
X71968397Y-28338793D01*
X72100204Y-28536057D01*
X72285944Y-28721797D01*
X72504352Y-28867732D01*
X72747033Y-28968254D01*
X72829534Y-28984665D01*
X73952870Y-30108001D01*
X73905944Y-30154928D01*
X73318000Y-30154928D01*
X73193518Y-30167188D01*
X73073820Y-30203498D01*
X72963506Y-30262463D01*
X72866815Y-30341815D01*
X72787463Y-30438506D01*
X72761007Y-30488000D01*
X71902683Y-30488000D01*
X71865537Y-30418506D01*
X71786185Y-30321815D01*
X71689494Y-30242463D01*
X71579180Y-30183498D01*
X71459482Y-30147188D01*
X71335000Y-30134928D01*
X69635000Y-30134928D01*
X69510518Y-30147188D01*
X69390820Y-30183498D01*
X69280506Y-30242463D01*
X69183815Y-30321815D01*
X69104463Y-30418506D01*
X69045498Y-30528820D01*
X69009188Y-30648518D01*
X68996928Y-30773000D01*
X68996928Y-32473000D01*
X69009188Y-32597482D01*
X69045498Y-32717180D01*
X69104463Y-32827494D01*
X69183815Y-32924185D01*
X69280506Y-33003537D01*
X69390820Y-33062502D01*
X69471466Y-33086966D01*
X69387412Y-33162731D01*
X69213359Y-33396080D01*
X69088175Y-33658901D01*
X69043524Y-33806110D01*
X69164845Y-34036000D01*
X70358000Y-34036000D01*
X70358000Y-34016000D01*
X70612000Y-34016000D01*
X70612000Y-34036000D01*
X71805155Y-34036000D01*
X71926476Y-33806110D01*
X71881825Y-33658901D01*
X71756641Y-33396080D01*
X71582588Y-33162731D01*
X71498534Y-33086966D01*
X71579180Y-33062502D01*
X71689494Y-33003537D01*
X71786185Y-32924185D01*
X71865537Y-32827494D01*
X71902683Y-32758000D01*
X72739627Y-32758000D01*
X72787463Y-32847494D01*
X72866815Y-32944185D01*
X72963506Y-33023537D01*
X73073820Y-33082502D01*
X73154466Y-33106966D01*
X73070412Y-33182731D01*
X72896359Y-33416080D01*
X72771175Y-33678901D01*
X72726524Y-33826110D01*
X72847845Y-34056000D01*
X74041000Y-34056000D01*
X74041000Y-34036000D01*
X74295000Y-34036000D01*
X74295000Y-34056000D01*
X75488155Y-34056000D01*
X75609476Y-33826110D01*
X75564825Y-33678901D01*
X75439641Y-33416080D01*
X75265588Y-33182731D01*
X75181534Y-33106966D01*
X75262180Y-33082502D01*
X75372494Y-33023537D01*
X75469185Y-32944185D01*
X75548537Y-32847494D01*
X75607502Y-32737180D01*
X75643812Y-32617482D01*
X75656072Y-32493000D01*
X75656072Y-31615063D01*
X76028134Y-31243001D01*
X78732653Y-31243001D01*
X78674023Y-31301631D01*
X78790433Y-31418041D01*
X78550344Y-31485020D01*
X78433244Y-31734048D01*
X78366977Y-32001135D01*
X78354090Y-32276017D01*
X78395078Y-32548133D01*
X78488364Y-32807023D01*
X78550344Y-32922980D01*
X78790435Y-32989960D01*
X79576395Y-32204000D01*
X79562253Y-32189858D01*
X79741858Y-32010253D01*
X79756000Y-32024395D01*
X79770143Y-32010253D01*
X79949748Y-32189858D01*
X79935605Y-32204000D01*
X80721565Y-32989960D01*
X80961656Y-32922980D01*
X81078756Y-32673952D01*
X81145023Y-32406865D01*
X81154101Y-32213232D01*
X82177001Y-33236133D01*
X82177000Y-61172000D01*
X80410767Y-61172000D01*
X80391387Y-61156095D01*
X80237851Y-61074028D01*
X80071255Y-61023492D01*
X79898001Y-61006428D01*
X79510796Y-61006428D01*
X79353447Y-60922324D01*
X79139499Y-60857423D01*
X78972752Y-60841000D01*
X78972751Y-60841000D01*
X78917000Y-60835509D01*
X78861249Y-60841000D01*
X77719284Y-60841000D01*
X77514727Y-60704320D01*
X77504135Y-60699933D01*
X77690131Y-60588385D01*
X77898519Y-60399414D01*
X77945681Y-60335788D01*
X77993506Y-60375037D01*
X78103820Y-60434002D01*
X78223518Y-60470312D01*
X78348000Y-60482572D01*
X78962250Y-60479500D01*
X79121000Y-60320750D01*
X79121000Y-59309000D01*
X79375000Y-59309000D01*
X79375000Y-60320750D01*
X79533750Y-60479500D01*
X80148000Y-60482572D01*
X80272482Y-60470312D01*
X80392180Y-60434002D01*
X80502494Y-60375037D01*
X80599185Y-60295685D01*
X80678537Y-60198994D01*
X80737502Y-60088680D01*
X80773812Y-59968982D01*
X80786072Y-59844500D01*
X80783000Y-59467750D01*
X80624250Y-59309000D01*
X79375000Y-59309000D01*
X79121000Y-59309000D01*
X79101000Y-59309000D01*
X79101000Y-59055000D01*
X79121000Y-59055000D01*
X79121000Y-59035000D01*
X79375000Y-59035000D01*
X79375000Y-59055000D01*
X80624250Y-59055000D01*
X80783000Y-58896250D01*
X80786072Y-58519500D01*
X80773812Y-58395018D01*
X80737502Y-58275320D01*
X80678537Y-58165006D01*
X80599185Y-58068315D01*
X80502494Y-57988963D01*
X80392180Y-57929998D01*
X80272482Y-57893688D01*
X80148000Y-57881428D01*
X79533750Y-57884500D01*
X79375002Y-58043248D01*
X79375002Y-57884500D01*
X79257078Y-57884500D01*
X80859050Y-56282529D01*
X80892817Y-56254817D01*
X80955449Y-56178501D01*
X81003411Y-56120059D01*
X81085589Y-55966314D01*
X81136195Y-55799490D01*
X81137980Y-55781363D01*
X81149000Y-55669477D01*
X81149000Y-55669469D01*
X81153281Y-55626000D01*
X81149000Y-55582531D01*
X81149000Y-44779463D01*
X81153281Y-44735997D01*
X81149000Y-44692531D01*
X81149000Y-44692521D01*
X81136195Y-44562508D01*
X81085589Y-44395685D01*
X81003411Y-44241939D01*
X80967139Y-44197742D01*
X80920532Y-44140951D01*
X80920530Y-44140949D01*
X80892817Y-44107181D01*
X80859049Y-44079468D01*
X80073500Y-43293920D01*
X80073500Y-43080660D01*
X80022254Y-42823030D01*
X79921732Y-42580349D01*
X79775797Y-42361941D01*
X79590057Y-42176201D01*
X79371649Y-42030266D01*
X79128968Y-41929744D01*
X78984559Y-41901019D01*
X80351051Y-40534528D01*
X80384817Y-40506817D01*
X80495411Y-40372059D01*
X80577589Y-40218313D01*
X80628195Y-40051490D01*
X80641000Y-39921477D01*
X80641000Y-39921467D01*
X80645281Y-39878001D01*
X80641000Y-39834535D01*
X80641000Y-39442818D01*
X80646535Y-39439120D01*
X80841120Y-39244535D01*
X80994005Y-39015727D01*
X81099314Y-38761490D01*
X81153000Y-38491592D01*
X81153000Y-38216408D01*
X81099314Y-37946510D01*
X80994005Y-37692273D01*
X80841120Y-37463465D01*
X80646535Y-37268880D01*
X80417727Y-37115995D01*
X80367647Y-37095251D01*
X79756000Y-36483604D01*
X79144353Y-37095251D01*
X79094273Y-37115995D01*
X78865465Y-37268880D01*
X78670880Y-37463465D01*
X78517995Y-37692273D01*
X78412686Y-37946510D01*
X78359000Y-38216408D01*
X78359000Y-38491592D01*
X78412686Y-38761490D01*
X78517995Y-39015727D01*
X78670880Y-39244535D01*
X78865465Y-39439120D01*
X78871000Y-39442819D01*
X78871000Y-39511421D01*
X75583424Y-42798998D01*
X75488156Y-42798998D01*
X75609476Y-42569110D01*
X75564825Y-42421901D01*
X75439641Y-42159080D01*
X75265588Y-41925731D01*
X75049355Y-41730822D01*
X74932466Y-41661195D01*
X75114632Y-41539475D01*
X75321475Y-41332632D01*
X75483990Y-41089411D01*
X75595932Y-40819158D01*
X75653000Y-40532260D01*
X75653000Y-40239740D01*
X75638539Y-40167039D01*
X77557050Y-38248529D01*
X77590817Y-38220817D01*
X77623897Y-38180510D01*
X77701411Y-38086059D01*
X77783589Y-37932314D01*
X77834195Y-37765490D01*
X77840063Y-37705909D01*
X77847000Y-37635477D01*
X77847000Y-37635469D01*
X77851281Y-37592000D01*
X77847000Y-37548531D01*
X77847000Y-37414579D01*
X78452921Y-36808659D01*
X78488364Y-36907022D01*
X78550344Y-37022979D01*
X78790435Y-37089959D01*
X79576395Y-36303999D01*
X79935605Y-36303999D01*
X80721565Y-37089959D01*
X80961656Y-37022979D01*
X81078756Y-36773951D01*
X81145023Y-36506864D01*
X81157910Y-36231982D01*
X81116922Y-35959866D01*
X81023636Y-35700976D01*
X80961656Y-35585019D01*
X80721565Y-35518039D01*
X79935605Y-36303999D01*
X79576395Y-36303999D01*
X79562253Y-36289857D01*
X79741858Y-36110252D01*
X79756000Y-36124394D01*
X80367642Y-35512752D01*
X80417727Y-35492006D01*
X80646535Y-35339121D01*
X80841120Y-35144536D01*
X80994005Y-34915728D01*
X81099314Y-34661491D01*
X81153000Y-34391593D01*
X81153000Y-34116409D01*
X81099314Y-33846511D01*
X80994005Y-33592274D01*
X80841120Y-33363466D01*
X80646535Y-33168881D01*
X80417727Y-33015996D01*
X80367647Y-32995252D01*
X79756000Y-32383605D01*
X79144353Y-32995252D01*
X79094273Y-33015996D01*
X78865465Y-33168881D01*
X78670880Y-33363466D01*
X78517995Y-33592274D01*
X78412686Y-33846511D01*
X78359000Y-34116409D01*
X78359000Y-34391593D01*
X78360299Y-34398123D01*
X76366951Y-36391472D01*
X76333184Y-36419184D01*
X76305471Y-36452952D01*
X76305468Y-36452955D01*
X76222590Y-36553942D01*
X76140411Y-36707688D01*
X76089805Y-36874511D01*
X76077000Y-37004524D01*
X76077000Y-37004532D01*
X76072719Y-37048001D01*
X76077000Y-37091470D01*
X76077000Y-37225421D01*
X75583423Y-37718998D01*
X75488156Y-37718998D01*
X75609476Y-37489110D01*
X75564825Y-37341901D01*
X75439641Y-37079080D01*
X75265588Y-36845731D01*
X75049355Y-36650822D01*
X74799252Y-36501843D01*
X74524891Y-36404519D01*
X74295000Y-36525186D01*
X74295000Y-37719000D01*
X74315000Y-37719000D01*
X74315000Y-37973000D01*
X74295000Y-37973000D01*
X74295000Y-37993000D01*
X74041000Y-37993000D01*
X74041000Y-37973000D01*
X72847845Y-37973000D01*
X72726524Y-38202890D01*
X72771175Y-38350099D01*
X72896359Y-38612920D01*
X73070412Y-38846269D01*
X73286645Y-39041178D01*
X73403534Y-39110805D01*
X73221368Y-39232525D01*
X73014525Y-39439368D01*
X72973344Y-39501000D01*
X71552656Y-39501000D01*
X71511475Y-39439368D01*
X71304632Y-39232525D01*
X71122466Y-39110805D01*
X71239355Y-39041178D01*
X71455588Y-38846269D01*
X71629641Y-38612920D01*
X71754825Y-38350099D01*
X71799476Y-38202890D01*
X71678155Y-37973000D01*
X70485000Y-37973000D01*
X70485000Y-37993000D01*
X70231000Y-37993000D01*
X70231000Y-37973000D01*
X69037845Y-37973000D01*
X68916524Y-38202890D01*
X68961175Y-38350099D01*
X69086359Y-38612920D01*
X69260412Y-38846269D01*
X69476645Y-39041178D01*
X69593534Y-39110805D01*
X69411368Y-39232525D01*
X69204525Y-39439368D01*
X69042010Y-39682589D01*
X68930068Y-39952842D01*
X68873000Y-40239740D01*
X68873000Y-40532260D01*
X68887461Y-40604960D01*
X68539778Y-40952644D01*
X68533004Y-40939972D01*
X68438031Y-40824247D01*
X68409034Y-40800450D01*
X65141499Y-37532916D01*
X65141499Y-37489110D01*
X68916524Y-37489110D01*
X69037845Y-37719000D01*
X70231000Y-37719000D01*
X70231000Y-36525186D01*
X70485000Y-36525186D01*
X70485000Y-37719000D01*
X71678155Y-37719000D01*
X71799476Y-37489110D01*
X72726524Y-37489110D01*
X72847845Y-37719000D01*
X74041000Y-37719000D01*
X74041000Y-36525186D01*
X73811109Y-36404519D01*
X73536748Y-36501843D01*
X73286645Y-36650822D01*
X73070412Y-36845731D01*
X72896359Y-37079080D01*
X72771175Y-37341901D01*
X72726524Y-37489110D01*
X71799476Y-37489110D01*
X71754825Y-37341901D01*
X71629641Y-37079080D01*
X71455588Y-36845731D01*
X71239355Y-36650822D01*
X70989252Y-36501843D01*
X70714891Y-36404519D01*
X70485000Y-36525186D01*
X70231000Y-36525186D01*
X70001109Y-36404519D01*
X69726748Y-36501843D01*
X69476645Y-36650822D01*
X69260412Y-36845731D01*
X69086359Y-37079080D01*
X68961175Y-37341901D01*
X68916524Y-37489110D01*
X65141499Y-37489110D01*
X65141499Y-36708212D01*
X65273662Y-36734501D01*
X65536338Y-36734501D01*
X65793968Y-36683255D01*
X66036649Y-36582733D01*
X66255057Y-36436798D01*
X66440797Y-36251058D01*
X66586732Y-36032650D01*
X66687254Y-35789969D01*
X66738500Y-35532339D01*
X66738500Y-35269663D01*
X66687254Y-35012033D01*
X66586732Y-34769352D01*
X66440797Y-34550944D01*
X66409743Y-34519890D01*
X69043524Y-34519890D01*
X69088175Y-34667099D01*
X69213359Y-34929920D01*
X69387412Y-35163269D01*
X69603645Y-35358178D01*
X69853748Y-35507157D01*
X70128109Y-35604481D01*
X70358000Y-35483814D01*
X70358000Y-34290000D01*
X70612000Y-34290000D01*
X70612000Y-35483814D01*
X70841891Y-35604481D01*
X71116252Y-35507157D01*
X71366355Y-35358178D01*
X71582588Y-35163269D01*
X71756641Y-34929920D01*
X71881825Y-34667099D01*
X71920409Y-34539890D01*
X72726524Y-34539890D01*
X72771175Y-34687099D01*
X72896359Y-34949920D01*
X73070412Y-35183269D01*
X73286645Y-35378178D01*
X73536748Y-35527157D01*
X73811109Y-35624481D01*
X74041000Y-35503814D01*
X74041000Y-34310000D01*
X74295000Y-34310000D01*
X74295000Y-35503814D01*
X74524891Y-35624481D01*
X74799252Y-35527157D01*
X75049355Y-35378178D01*
X75265588Y-35183269D01*
X75439641Y-34949920D01*
X75564825Y-34687099D01*
X75609476Y-34539890D01*
X75488155Y-34310000D01*
X74295000Y-34310000D01*
X74041000Y-34310000D01*
X72847845Y-34310000D01*
X72726524Y-34539890D01*
X71920409Y-34539890D01*
X71926476Y-34519890D01*
X71805155Y-34290000D01*
X70612000Y-34290000D01*
X70358000Y-34290000D01*
X69164845Y-34290000D01*
X69043524Y-34519890D01*
X66409743Y-34519890D01*
X66290853Y-34401000D01*
X66440797Y-34251056D01*
X66586732Y-34032648D01*
X66687254Y-33789967D01*
X66738500Y-33532337D01*
X66738500Y-33269661D01*
X66687254Y-33012031D01*
X66586732Y-32769350D01*
X66440797Y-32550942D01*
X66255057Y-32365202D01*
X66036649Y-32219267D01*
X65793968Y-32118745D01*
X65536338Y-32067499D01*
X65273662Y-32067499D01*
X65016032Y-32118745D01*
X64773351Y-32219267D01*
X64554943Y-32365202D01*
X64369203Y-32550942D01*
X64223268Y-32769350D01*
X64122746Y-33012031D01*
X64071500Y-33269661D01*
X64071500Y-33532337D01*
X64092631Y-33638567D01*
X63870501Y-33860696D01*
X63841498Y-33884499D01*
X63786370Y-33951674D01*
X63746525Y-34000224D01*
X63684422Y-34116409D01*
X63675953Y-34132254D01*
X63632496Y-34275515D01*
X63621499Y-34387168D01*
X63621499Y-34387178D01*
X63617823Y-34424500D01*
X63621499Y-34461823D01*
X63621500Y-37810385D01*
X63617823Y-37847717D01*
X63621500Y-37885050D01*
X63630163Y-37973000D01*
X63632497Y-37996702D01*
X63675953Y-38139963D01*
X63746525Y-38271993D01*
X63795289Y-38331411D01*
X63841499Y-38387718D01*
X63870497Y-38411516D01*
X64707349Y-39248369D01*
X64554943Y-39350203D01*
X64369203Y-39535943D01*
X64223268Y-39754351D01*
X64122746Y-39997032D01*
X64071500Y-40254662D01*
X64071500Y-40517338D01*
X64092631Y-40623568D01*
X63870501Y-40845697D01*
X63841498Y-40869500D01*
X63803336Y-40916001D01*
X63746525Y-40985225D01*
X63691371Y-41088411D01*
X63675953Y-41117255D01*
X63632496Y-41260516D01*
X63621499Y-41372169D01*
X63621499Y-41372179D01*
X63617823Y-41409501D01*
X63621499Y-41446824D01*
X63621500Y-44795384D01*
X63617823Y-44832716D01*
X63632497Y-44981701D01*
X63675953Y-45124962D01*
X63746525Y-45256992D01*
X63817388Y-45343338D01*
X63841499Y-45372717D01*
X63870497Y-45396515D01*
X64707349Y-46233368D01*
X64554943Y-46335202D01*
X64369203Y-46520942D01*
X64223268Y-46739350D01*
X64122746Y-46982031D01*
X64071500Y-47239661D01*
X64071500Y-47502337D01*
X64092631Y-47608567D01*
X63751002Y-47950195D01*
X63721999Y-47973998D01*
X63697115Y-48004320D01*
X63627026Y-48089723D01*
X63573817Y-48189269D01*
X63556454Y-48221753D01*
X63512997Y-48365014D01*
X63502000Y-48476667D01*
X63502000Y-48476677D01*
X63498324Y-48513999D01*
X63502000Y-48551322D01*
X63502001Y-51660885D01*
X63498324Y-51698217D01*
X63512998Y-51847202D01*
X63556454Y-51990463D01*
X63627026Y-52122493D01*
X63654782Y-52156313D01*
X63722000Y-52238218D01*
X63750998Y-52262016D01*
X64707349Y-53218368D01*
X64554943Y-53320202D01*
X64369203Y-53505942D01*
X64223268Y-53724350D01*
X64122746Y-53967031D01*
X64071500Y-54224661D01*
X64071500Y-54487337D01*
X64092631Y-54593567D01*
X63870501Y-54815696D01*
X63841498Y-54839499D01*
X63809949Y-54877942D01*
X63746525Y-54955224D01*
X63685603Y-55069200D01*
X63675953Y-55087254D01*
X63632496Y-55230515D01*
X63621499Y-55342168D01*
X63621499Y-55342178D01*
X63617823Y-55379500D01*
X63621499Y-55416823D01*
X63621500Y-58756167D01*
X63617823Y-58793499D01*
X63621500Y-58830832D01*
X63632497Y-58942485D01*
X63645679Y-58985941D01*
X63675953Y-59085745D01*
X63746525Y-59217775D01*
X63809628Y-59294665D01*
X63841499Y-59333500D01*
X63870497Y-59357298D01*
X64712875Y-60199676D01*
X64554943Y-60305202D01*
X64369203Y-60490942D01*
X64223268Y-60709350D01*
X64122746Y-60952031D01*
X64071500Y-61209661D01*
X64071500Y-61472337D01*
X64092631Y-61578567D01*
X63751002Y-61920195D01*
X63721999Y-61943998D01*
X63695736Y-61976000D01*
X63627026Y-62059723D01*
X63613221Y-62085551D01*
X63556454Y-62191753D01*
X63512997Y-62335014D01*
X63502000Y-62446667D01*
X63502000Y-62446677D01*
X63498324Y-62483999D01*
X63502000Y-62521322D01*
X63502001Y-65494668D01*
X63498324Y-65532000D01*
X63512998Y-65680985D01*
X63556454Y-65824246D01*
X63627026Y-65956276D01*
X63661121Y-65997820D01*
X63722000Y-66072001D01*
X63750998Y-66095799D01*
X64791817Y-67136618D01*
X64773351Y-67144267D01*
X64554943Y-67290202D01*
X64369203Y-67475942D01*
X64223268Y-67694350D01*
X64122746Y-67937031D01*
X64071500Y-68194661D01*
X64071500Y-68457337D01*
X64092631Y-68563567D01*
X63870501Y-68785696D01*
X63841498Y-68809499D01*
X63803072Y-68856322D01*
X63746525Y-68925224D01*
X63708426Y-68996502D01*
X63675953Y-69057254D01*
X63632496Y-69200515D01*
X63621499Y-69312168D01*
X63621499Y-69312178D01*
X63617823Y-69349500D01*
X63621499Y-69386823D01*
X63621500Y-73615167D01*
X63617823Y-73652499D01*
X63632497Y-73801484D01*
X63675953Y-73944745D01*
X63746525Y-74076775D01*
X63810726Y-74155003D01*
X63841499Y-74192500D01*
X63870497Y-74216298D01*
X64206200Y-74552002D01*
X64229999Y-74581001D01*
X64268093Y-74612264D01*
X64223268Y-74679350D01*
X64122746Y-74922031D01*
X64071500Y-75179661D01*
X64071500Y-75442337D01*
X64122746Y-75699967D01*
X64223268Y-75942648D01*
X64369203Y-76161056D01*
X64519147Y-76311000D01*
X64369203Y-76460944D01*
X64223268Y-76679352D01*
X64122746Y-76922033D01*
X64071500Y-77179663D01*
X64071500Y-77442339D01*
X64122746Y-77699969D01*
X64223268Y-77942650D01*
X64369203Y-78161058D01*
X64554943Y-78346798D01*
X64773351Y-78492733D01*
X65016032Y-78593255D01*
X65273662Y-78644501D01*
X65536338Y-78644501D01*
X65793968Y-78593255D01*
X66036649Y-78492733D01*
X66159191Y-78410854D01*
X66163998Y-78414799D01*
X67813141Y-80063943D01*
X67835147Y-80174574D01*
X67943320Y-80435727D01*
X68100363Y-80670759D01*
X68300241Y-80870637D01*
X68532759Y-81026000D01*
X68300241Y-81181363D01*
X68100363Y-81381241D01*
X67996957Y-81535999D01*
X66500971Y-81535999D01*
X66440797Y-81445942D01*
X66255057Y-81260202D01*
X66036649Y-81114267D01*
X65793968Y-81013745D01*
X65536338Y-80962499D01*
X65273662Y-80962499D01*
X65016032Y-81013745D01*
X64773351Y-81114267D01*
X64554943Y-81260202D01*
X64369203Y-81445942D01*
X64223268Y-81664350D01*
X64122746Y-81907031D01*
X64071500Y-82164661D01*
X64071500Y-82427337D01*
X64122746Y-82684967D01*
X64223268Y-82927648D01*
X64369203Y-83146056D01*
X64519147Y-83296000D01*
X64369203Y-83445944D01*
X64223268Y-83664352D01*
X64122746Y-83907033D01*
X64071500Y-84164663D01*
X64071500Y-84427339D01*
X64122746Y-84684969D01*
X64223268Y-84927650D01*
X64369203Y-85146058D01*
X64554943Y-85331798D01*
X64773351Y-85477733D01*
X65016032Y-85578255D01*
X65273662Y-85629501D01*
X65536338Y-85629501D01*
X65793968Y-85578255D01*
X66036649Y-85477733D01*
X66255057Y-85331798D01*
X66440797Y-85146058D01*
X66586732Y-84927650D01*
X66687254Y-84684969D01*
X66738500Y-84427339D01*
X66738500Y-84164663D01*
X66687254Y-83907033D01*
X66586732Y-83664352D01*
X66440797Y-83445944D01*
X66290853Y-83296000D01*
X66440797Y-83146056D01*
X66500971Y-83055999D01*
X67996956Y-83055999D01*
X68100363Y-83210759D01*
X68300241Y-83410637D01*
X68535273Y-83567680D01*
X68796426Y-83675853D01*
X69073665Y-83731000D01*
X69356335Y-83731000D01*
X69633574Y-83675853D01*
X69894727Y-83567680D01*
X70129759Y-83410637D01*
X70329637Y-83210759D01*
X70486680Y-82975727D01*
X70594853Y-82714574D01*
X70650000Y-82437335D01*
X70650000Y-82423000D01*
X75396928Y-82423000D01*
X75396928Y-83096000D01*
X75409188Y-83220482D01*
X75445498Y-83340180D01*
X75504463Y-83450494D01*
X75583815Y-83547185D01*
X75680506Y-83626537D01*
X75790820Y-83685502D01*
X75910518Y-83721812D01*
X76035000Y-83734072D01*
X77635000Y-83734072D01*
X77759482Y-83721812D01*
X77879180Y-83685502D01*
X77989494Y-83626537D01*
X78086185Y-83547185D01*
X78165537Y-83450494D01*
X78224502Y-83340180D01*
X78260812Y-83220482D01*
X78273072Y-83096000D01*
X78273072Y-81786000D01*
X79203199Y-81786000D01*
X79970201Y-82553003D01*
X79993999Y-82582001D01*
X80022997Y-82605799D01*
X80109723Y-82676974D01*
X80162009Y-82704922D01*
X80158188Y-82717518D01*
X80145928Y-82842000D01*
X80145928Y-83842000D01*
X80158188Y-83966482D01*
X80194498Y-84086180D01*
X80253463Y-84196494D01*
X80332815Y-84293185D01*
X80429506Y-84372537D01*
X80539820Y-84431502D01*
X80659518Y-84467812D01*
X80784000Y-84480072D01*
X82284000Y-84480072D01*
X82315192Y-84477000D01*
X82718249Y-84477000D01*
X82774000Y-84482491D01*
X82829751Y-84477000D01*
X82829752Y-84477000D01*
X82996499Y-84460577D01*
X83210447Y-84395676D01*
X83407623Y-84290284D01*
X83580449Y-84148449D01*
X83615996Y-84105135D01*
X83897001Y-83824130D01*
X83897001Y-89308229D01*
X83729864Y-89058091D01*
X83153909Y-88482136D01*
X82476657Y-88029611D01*
X81724135Y-87717906D01*
X80925262Y-87559000D01*
X80110738Y-87559000D01*
X79311865Y-87717906D01*
X78559343Y-88029611D01*
X77882091Y-88482136D01*
X77306136Y-89058091D01*
X76853611Y-89735343D01*
X76541906Y-90487865D01*
X76383000Y-91286738D01*
X76383000Y-92101262D01*
X76541906Y-92900135D01*
X76853611Y-93652657D01*
X77306136Y-94329909D01*
X77882091Y-94905864D01*
X78512366Y-95327000D01*
X65759634Y-95327000D01*
X66389909Y-94905864D01*
X66965864Y-94329909D01*
X67418389Y-93652657D01*
X67730094Y-92900135D01*
X67889000Y-92101262D01*
X67889000Y-91286738D01*
X67730094Y-90487865D01*
X67450996Y-89814061D01*
X68459999Y-89814061D01*
X68459999Y-90017939D01*
X68499773Y-90217898D01*
X68577794Y-90406256D01*
X68691062Y-90575774D01*
X68835225Y-90719937D01*
X69004743Y-90833205D01*
X69193101Y-90911226D01*
X69393060Y-90951000D01*
X69596938Y-90951000D01*
X69796897Y-90911226D01*
X69985255Y-90833205D01*
X70154773Y-90719937D01*
X70298936Y-90575774D01*
X70412204Y-90406256D01*
X70490225Y-90217898D01*
X70529999Y-90017939D01*
X70529999Y-89814061D01*
X71100999Y-89814061D01*
X71100999Y-90017939D01*
X71140773Y-90217898D01*
X71218794Y-90406256D01*
X71332062Y-90575774D01*
X71476225Y-90719937D01*
X71645743Y-90833205D01*
X71834101Y-90911226D01*
X72034060Y-90951000D01*
X72237938Y-90951000D01*
X72437897Y-90911226D01*
X72626255Y-90833205D01*
X72795773Y-90719937D01*
X72939936Y-90575774D01*
X73053204Y-90406256D01*
X73131225Y-90217898D01*
X73170999Y-90017939D01*
X73170999Y-89814061D01*
X73741999Y-89814061D01*
X73741999Y-90017939D01*
X73781773Y-90217898D01*
X73859794Y-90406256D01*
X73973062Y-90575774D01*
X74117225Y-90719937D01*
X74286743Y-90833205D01*
X74475101Y-90911226D01*
X74675060Y-90951000D01*
X74878938Y-90951000D01*
X75078897Y-90911226D01*
X75267255Y-90833205D01*
X75436773Y-90719937D01*
X75580936Y-90575774D01*
X75694204Y-90406256D01*
X75772225Y-90217898D01*
X75811999Y-90017939D01*
X75811999Y-89814061D01*
X75772225Y-89614102D01*
X75694204Y-89425744D01*
X75580936Y-89256226D01*
X75436773Y-89112063D01*
X75267255Y-88998795D01*
X75078897Y-88920774D01*
X74878938Y-88881000D01*
X74675060Y-88881000D01*
X74475101Y-88920774D01*
X74286743Y-88998795D01*
X74117225Y-89112063D01*
X73973062Y-89256226D01*
X73859794Y-89425744D01*
X73781773Y-89614102D01*
X73741999Y-89814061D01*
X73170999Y-89814061D01*
X73131225Y-89614102D01*
X73053204Y-89425744D01*
X72939936Y-89256226D01*
X72795773Y-89112063D01*
X72626255Y-88998795D01*
X72437897Y-88920774D01*
X72237938Y-88881000D01*
X72034060Y-88881000D01*
X71834101Y-88920774D01*
X71645743Y-88998795D01*
X71476225Y-89112063D01*
X71332062Y-89256226D01*
X71218794Y-89425744D01*
X71140773Y-89614102D01*
X71100999Y-89814061D01*
X70529999Y-89814061D01*
X70490225Y-89614102D01*
X70412204Y-89425744D01*
X70298936Y-89256226D01*
X70154773Y-89112063D01*
X69985255Y-88998795D01*
X69796897Y-88920774D01*
X69596938Y-88881000D01*
X69393060Y-88881000D01*
X69193101Y-88920774D01*
X69004743Y-88998795D01*
X68835225Y-89112063D01*
X68691062Y-89256226D01*
X68577794Y-89425744D01*
X68499773Y-89614102D01*
X68459999Y-89814061D01*
X67450996Y-89814061D01*
X67418389Y-89735343D01*
X66965864Y-89058091D01*
X66389909Y-88482136D01*
X65712657Y-88029611D01*
X64960135Y-87717906D01*
X64161262Y-87559000D01*
X63346738Y-87559000D01*
X62547865Y-87717906D01*
X61795343Y-88029611D01*
X61118091Y-88482136D01*
X60542136Y-89058091D01*
X60375000Y-89308228D01*
X60375000Y-86004061D01*
X61703000Y-86004061D01*
X61703000Y-86207939D01*
X61742774Y-86407898D01*
X61820795Y-86596256D01*
X61934063Y-86765774D01*
X62078226Y-86909937D01*
X62247744Y-87023205D01*
X62436102Y-87101226D01*
X62636061Y-87141000D01*
X62839939Y-87141000D01*
X63039898Y-87101226D01*
X63228256Y-87023205D01*
X63397774Y-86909937D01*
X63541937Y-86765774D01*
X63655205Y-86596256D01*
X63733226Y-86407898D01*
X63773000Y-86207939D01*
X63773000Y-86004061D01*
X67037000Y-86004061D01*
X67037000Y-86207939D01*
X67076774Y-86407898D01*
X67154795Y-86596256D01*
X67268063Y-86765774D01*
X67412226Y-86909937D01*
X67581744Y-87023205D01*
X67770102Y-87101226D01*
X67970061Y-87141000D01*
X68173939Y-87141000D01*
X68373898Y-87101226D01*
X68562256Y-87023205D01*
X68731774Y-86909937D01*
X68875937Y-86765774D01*
X68989205Y-86596256D01*
X69067226Y-86407898D01*
X69107000Y-86207939D01*
X69107000Y-86004061D01*
X69067226Y-85804102D01*
X68989205Y-85615744D01*
X68875937Y-85446226D01*
X68731774Y-85302063D01*
X68562256Y-85188795D01*
X68373898Y-85110774D01*
X68173939Y-85071000D01*
X67970061Y-85071000D01*
X67770102Y-85110774D01*
X67581744Y-85188795D01*
X67412226Y-85302063D01*
X67268063Y-85446226D01*
X67154795Y-85615744D01*
X67076774Y-85804102D01*
X67037000Y-86004061D01*
X63773000Y-86004061D01*
X63733226Y-85804102D01*
X63655205Y-85615744D01*
X63541937Y-85446226D01*
X63397774Y-85302063D01*
X63228256Y-85188795D01*
X63039898Y-85110774D01*
X62839939Y-85071000D01*
X62636061Y-85071000D01*
X62436102Y-85110774D01*
X62247744Y-85188795D01*
X62078226Y-85302063D01*
X61934063Y-85446226D01*
X61820795Y-85615744D01*
X61742774Y-85804102D01*
X61703000Y-86004061D01*
X60375000Y-86004061D01*
X60375000Y-82549062D01*
X61068000Y-82549062D01*
X61068000Y-82752940D01*
X61107774Y-82952899D01*
X61185795Y-83141257D01*
X61299063Y-83310775D01*
X61443226Y-83454938D01*
X61612744Y-83568206D01*
X61801102Y-83646227D01*
X62001061Y-83686001D01*
X62204939Y-83686001D01*
X62404898Y-83646227D01*
X62593256Y-83568206D01*
X62762774Y-83454938D01*
X62906937Y-83310775D01*
X63020205Y-83141257D01*
X63098226Y-82952899D01*
X63138000Y-82752940D01*
X63138000Y-82549062D01*
X63098226Y-82349103D01*
X63020205Y-82160745D01*
X62906937Y-81991227D01*
X62762774Y-81847064D01*
X62593256Y-81733796D01*
X62404898Y-81655775D01*
X62204939Y-81616001D01*
X62001061Y-81616001D01*
X61801102Y-81655775D01*
X61612744Y-81733796D01*
X61443226Y-81847064D01*
X61299063Y-81991227D01*
X61185795Y-82160745D01*
X61107774Y-82349103D01*
X61068000Y-82549062D01*
X60375000Y-82549062D01*
X60375000Y-77461562D01*
X61068000Y-77461562D01*
X61068000Y-77665440D01*
X61107774Y-77865399D01*
X61185795Y-78053757D01*
X61299063Y-78223275D01*
X61443226Y-78367438D01*
X61612744Y-78480706D01*
X61801102Y-78558727D01*
X62001061Y-78598501D01*
X62204939Y-78598501D01*
X62404898Y-78558727D01*
X62593256Y-78480706D01*
X62762774Y-78367438D01*
X62906937Y-78223275D01*
X63020205Y-78053757D01*
X63098226Y-77865399D01*
X63138000Y-77665440D01*
X63138000Y-77461562D01*
X63098226Y-77261603D01*
X63020205Y-77073245D01*
X62906937Y-76903727D01*
X62762774Y-76759564D01*
X62593256Y-76646296D01*
X62404898Y-76568275D01*
X62204939Y-76528501D01*
X62001061Y-76528501D01*
X61801102Y-76568275D01*
X61612744Y-76646296D01*
X61443226Y-76759564D01*
X61299063Y-76903727D01*
X61185795Y-77073245D01*
X61107774Y-77261603D01*
X61068000Y-77461562D01*
X60375000Y-77461562D01*
X60375000Y-72374062D01*
X61068000Y-72374062D01*
X61068000Y-72577940D01*
X61107774Y-72777899D01*
X61185795Y-72966257D01*
X61299063Y-73135775D01*
X61443226Y-73279938D01*
X61612744Y-73393206D01*
X61801102Y-73471227D01*
X62001061Y-73511001D01*
X62204939Y-73511001D01*
X62404898Y-73471227D01*
X62593256Y-73393206D01*
X62762774Y-73279938D01*
X62906937Y-73135775D01*
X63020205Y-72966257D01*
X63098226Y-72777899D01*
X63138000Y-72577940D01*
X63138000Y-72374062D01*
X63098226Y-72174103D01*
X63020205Y-71985745D01*
X62906937Y-71816227D01*
X62762774Y-71672064D01*
X62593256Y-71558796D01*
X62404898Y-71480775D01*
X62204939Y-71441001D01*
X62001061Y-71441001D01*
X61801102Y-71480775D01*
X61612744Y-71558796D01*
X61443226Y-71672064D01*
X61299063Y-71816227D01*
X61185795Y-71985745D01*
X61107774Y-72174103D01*
X61068000Y-72374062D01*
X60375000Y-72374062D01*
X60375000Y-67286562D01*
X61068000Y-67286562D01*
X61068000Y-67490440D01*
X61107774Y-67690399D01*
X61185795Y-67878757D01*
X61299063Y-68048275D01*
X61443226Y-68192438D01*
X61612744Y-68305706D01*
X61801102Y-68383727D01*
X62001061Y-68423501D01*
X62204939Y-68423501D01*
X62404898Y-68383727D01*
X62593256Y-68305706D01*
X62762774Y-68192438D01*
X62906937Y-68048275D01*
X63020205Y-67878757D01*
X63098226Y-67690399D01*
X63138000Y-67490440D01*
X63138000Y-67286562D01*
X63098226Y-67086603D01*
X63020205Y-66898245D01*
X62906937Y-66728727D01*
X62762774Y-66584564D01*
X62593256Y-66471296D01*
X62404898Y-66393275D01*
X62204939Y-66353501D01*
X62001061Y-66353501D01*
X61801102Y-66393275D01*
X61612744Y-66471296D01*
X61443226Y-66584564D01*
X61299063Y-66728727D01*
X61185795Y-66898245D01*
X61107774Y-67086603D01*
X61068000Y-67286562D01*
X60375000Y-67286562D01*
X60375000Y-62199062D01*
X61068000Y-62199062D01*
X61068000Y-62402940D01*
X61107774Y-62602899D01*
X61185795Y-62791257D01*
X61299063Y-62960775D01*
X61443226Y-63104938D01*
X61612744Y-63218206D01*
X61801102Y-63296227D01*
X62001061Y-63336001D01*
X62204939Y-63336001D01*
X62404898Y-63296227D01*
X62593256Y-63218206D01*
X62762774Y-63104938D01*
X62906937Y-62960775D01*
X63020205Y-62791257D01*
X63098226Y-62602899D01*
X63138000Y-62402940D01*
X63138000Y-62199062D01*
X63098226Y-61999103D01*
X63020205Y-61810745D01*
X62906937Y-61641227D01*
X62762774Y-61497064D01*
X62593256Y-61383796D01*
X62404898Y-61305775D01*
X62204939Y-61266001D01*
X62001061Y-61266001D01*
X61801102Y-61305775D01*
X61612744Y-61383796D01*
X61443226Y-61497064D01*
X61299063Y-61641227D01*
X61185795Y-61810745D01*
X61107774Y-61999103D01*
X61068000Y-62199062D01*
X60375000Y-62199062D01*
X60375000Y-57111562D01*
X61068000Y-57111562D01*
X61068000Y-57315440D01*
X61107774Y-57515399D01*
X61185795Y-57703757D01*
X61299063Y-57873275D01*
X61443226Y-58017438D01*
X61612744Y-58130706D01*
X61801102Y-58208727D01*
X62001061Y-58248501D01*
X62204939Y-58248501D01*
X62404898Y-58208727D01*
X62593256Y-58130706D01*
X62762774Y-58017438D01*
X62906937Y-57873275D01*
X63020205Y-57703757D01*
X63098226Y-57515399D01*
X63138000Y-57315440D01*
X63138000Y-57111562D01*
X63098226Y-56911603D01*
X63020205Y-56723245D01*
X62906937Y-56553727D01*
X62762774Y-56409564D01*
X62593256Y-56296296D01*
X62404898Y-56218275D01*
X62204939Y-56178501D01*
X62001061Y-56178501D01*
X61801102Y-56218275D01*
X61612744Y-56296296D01*
X61443226Y-56409564D01*
X61299063Y-56553727D01*
X61185795Y-56723245D01*
X61107774Y-56911603D01*
X61068000Y-57111562D01*
X60375000Y-57111562D01*
X60375000Y-52024062D01*
X61068000Y-52024062D01*
X61068000Y-52227940D01*
X61107774Y-52427899D01*
X61185795Y-52616257D01*
X61299063Y-52785775D01*
X61443226Y-52929938D01*
X61612744Y-53043206D01*
X61801102Y-53121227D01*
X62001061Y-53161001D01*
X62204939Y-53161001D01*
X62404898Y-53121227D01*
X62593256Y-53043206D01*
X62762774Y-52929938D01*
X62906937Y-52785775D01*
X63020205Y-52616257D01*
X63098226Y-52427899D01*
X63138000Y-52227940D01*
X63138000Y-52024062D01*
X63098226Y-51824103D01*
X63020205Y-51635745D01*
X62906937Y-51466227D01*
X62762774Y-51322064D01*
X62593256Y-51208796D01*
X62404898Y-51130775D01*
X62204939Y-51091001D01*
X62001061Y-51091001D01*
X61801102Y-51130775D01*
X61612744Y-51208796D01*
X61443226Y-51322064D01*
X61299063Y-51466227D01*
X61185795Y-51635745D01*
X61107774Y-51824103D01*
X61068000Y-52024062D01*
X60375000Y-52024062D01*
X60375000Y-46936562D01*
X61068000Y-46936562D01*
X61068000Y-47140440D01*
X61107774Y-47340399D01*
X61185795Y-47528757D01*
X61299063Y-47698275D01*
X61443226Y-47842438D01*
X61612744Y-47955706D01*
X61801102Y-48033727D01*
X62001061Y-48073501D01*
X62204939Y-48073501D01*
X62404898Y-48033727D01*
X62593256Y-47955706D01*
X62762774Y-47842438D01*
X62906937Y-47698275D01*
X63020205Y-47528757D01*
X63098226Y-47340399D01*
X63138000Y-47140440D01*
X63138000Y-46936562D01*
X63098226Y-46736603D01*
X63020205Y-46548245D01*
X62906937Y-46378727D01*
X62762774Y-46234564D01*
X62593256Y-46121296D01*
X62404898Y-46043275D01*
X62204939Y-46003501D01*
X62001061Y-46003501D01*
X61801102Y-46043275D01*
X61612744Y-46121296D01*
X61443226Y-46234564D01*
X61299063Y-46378727D01*
X61185795Y-46548245D01*
X61107774Y-46736603D01*
X61068000Y-46936562D01*
X60375000Y-46936562D01*
X60375000Y-41849062D01*
X61068000Y-41849062D01*
X61068000Y-42052940D01*
X61107774Y-42252899D01*
X61185795Y-42441257D01*
X61299063Y-42610775D01*
X61443226Y-42754938D01*
X61612744Y-42868206D01*
X61801102Y-42946227D01*
X62001061Y-42986001D01*
X62204939Y-42986001D01*
X62404898Y-42946227D01*
X62593256Y-42868206D01*
X62762774Y-42754938D01*
X62906937Y-42610775D01*
X63020205Y-42441257D01*
X63098226Y-42252899D01*
X63138000Y-42052940D01*
X63138000Y-41849062D01*
X63098226Y-41649103D01*
X63020205Y-41460745D01*
X62906937Y-41291227D01*
X62762774Y-41147064D01*
X62593256Y-41033796D01*
X62404898Y-40955775D01*
X62204939Y-40916001D01*
X62001061Y-40916001D01*
X61801102Y-40955775D01*
X61612744Y-41033796D01*
X61443226Y-41147064D01*
X61299063Y-41291227D01*
X61185795Y-41460745D01*
X61107774Y-41649103D01*
X61068000Y-41849062D01*
X60375000Y-41849062D01*
X60375000Y-36761562D01*
X61068000Y-36761562D01*
X61068000Y-36965440D01*
X61107774Y-37165399D01*
X61185795Y-37353757D01*
X61299063Y-37523275D01*
X61443226Y-37667438D01*
X61612744Y-37780706D01*
X61801102Y-37858727D01*
X62001061Y-37898501D01*
X62204939Y-37898501D01*
X62404898Y-37858727D01*
X62593256Y-37780706D01*
X62762774Y-37667438D01*
X62906937Y-37523275D01*
X63020205Y-37353757D01*
X63098226Y-37165399D01*
X63138000Y-36965440D01*
X63138000Y-36761562D01*
X63098226Y-36561603D01*
X63020205Y-36373245D01*
X62906937Y-36203727D01*
X62762774Y-36059564D01*
X62593256Y-35946296D01*
X62404898Y-35868275D01*
X62204939Y-35828501D01*
X62001061Y-35828501D01*
X61801102Y-35868275D01*
X61612744Y-35946296D01*
X61443226Y-36059564D01*
X61299063Y-36203727D01*
X61185795Y-36373245D01*
X61107774Y-36561603D01*
X61068000Y-36761562D01*
X60375000Y-36761562D01*
X60375000Y-31674062D01*
X61068000Y-31674062D01*
X61068000Y-31877940D01*
X61107774Y-32077899D01*
X61185795Y-32266257D01*
X61299063Y-32435775D01*
X61443226Y-32579938D01*
X61612744Y-32693206D01*
X61801102Y-32771227D01*
X62001061Y-32811001D01*
X62204939Y-32811001D01*
X62404898Y-32771227D01*
X62593256Y-32693206D01*
X62762774Y-32579938D01*
X62906937Y-32435775D01*
X63020205Y-32266257D01*
X63098226Y-32077899D01*
X63138000Y-31877940D01*
X63138000Y-31674062D01*
X63098226Y-31474103D01*
X63020205Y-31285745D01*
X62906937Y-31116227D01*
X62762774Y-30972064D01*
X62593256Y-30858796D01*
X62404898Y-30780775D01*
X62204939Y-30741001D01*
X62001061Y-30741001D01*
X61801102Y-30780775D01*
X61612744Y-30858796D01*
X61443226Y-30972064D01*
X61299063Y-31116227D01*
X61185795Y-31285745D01*
X61107774Y-31474103D01*
X61068000Y-31674062D01*
X60375000Y-31674062D01*
X60375000Y-28293772D01*
X60542136Y-28543909D01*
X61118091Y-29119864D01*
X61795343Y-29572389D01*
X62547865Y-29884094D01*
X63346738Y-30043000D01*
X64161262Y-30043000D01*
X64960135Y-29884094D01*
X65712657Y-29572389D01*
X66389909Y-29119864D01*
X66903576Y-28606197D01*
X70395407Y-28606197D01*
X70454685Y-28839812D01*
X70692874Y-28950559D01*
X70948092Y-29012711D01*
X71210532Y-29023876D01*
X71470106Y-28983629D01*
X71716841Y-28893514D01*
X71817313Y-28839812D01*
X71876591Y-28606197D01*
X71135999Y-27865605D01*
X70395407Y-28606197D01*
X66903576Y-28606197D01*
X66965864Y-28543909D01*
X67418389Y-27866657D01*
X67462347Y-27760533D01*
X69798123Y-27760533D01*
X69838370Y-28020107D01*
X69928485Y-28266842D01*
X69982187Y-28367314D01*
X70215802Y-28426592D01*
X70956394Y-27686000D01*
X70215802Y-26945408D01*
X69982187Y-27004686D01*
X69871440Y-27242875D01*
X69809288Y-27498093D01*
X69798123Y-27760533D01*
X67462347Y-27760533D01*
X67730094Y-27114135D01*
X67799381Y-26765803D01*
X70395407Y-26765803D01*
X71135999Y-27506395D01*
X71876591Y-26765803D01*
X71817313Y-26532188D01*
X71579124Y-26421441D01*
X71323906Y-26359289D01*
X71061466Y-26348124D01*
X70801892Y-26388371D01*
X70555157Y-26478486D01*
X70454685Y-26532188D01*
X70395407Y-26765803D01*
X67799381Y-26765803D01*
X67889000Y-26315262D01*
X67889000Y-25500738D01*
X67730094Y-24701865D01*
X67661416Y-24536061D01*
X68459999Y-24536061D01*
X68459999Y-24739939D01*
X68499773Y-24939898D01*
X68577794Y-25128256D01*
X68691062Y-25297774D01*
X68835225Y-25441937D01*
X69004743Y-25555205D01*
X69193101Y-25633226D01*
X69393060Y-25673000D01*
X69596938Y-25673000D01*
X69796897Y-25633226D01*
X69985255Y-25555205D01*
X70154773Y-25441937D01*
X70298936Y-25297774D01*
X70412204Y-25128256D01*
X70490225Y-24939898D01*
X70529999Y-24739939D01*
X70529999Y-24536061D01*
X71100999Y-24536061D01*
X71100999Y-24739939D01*
X71140773Y-24939898D01*
X71218794Y-25128256D01*
X71332062Y-25297774D01*
X71476225Y-25441937D01*
X71645743Y-25555205D01*
X71834101Y-25633226D01*
X72034060Y-25673000D01*
X72237938Y-25673000D01*
X72437897Y-25633226D01*
X72626255Y-25555205D01*
X72795773Y-25441937D01*
X72939936Y-25297774D01*
X73053204Y-25128256D01*
X73131225Y-24939898D01*
X73170999Y-24739939D01*
X73170999Y-24536061D01*
X73741999Y-24536061D01*
X73741999Y-24739939D01*
X73781773Y-24939898D01*
X73859794Y-25128256D01*
X73973062Y-25297774D01*
X74117225Y-25441937D01*
X74286743Y-25555205D01*
X74475101Y-25633226D01*
X74675060Y-25673000D01*
X74878938Y-25673000D01*
X75078897Y-25633226D01*
X75267255Y-25555205D01*
X75436773Y-25441937D01*
X75580936Y-25297774D01*
X75694204Y-25128256D01*
X75772225Y-24939898D01*
X75811999Y-24739939D01*
X75811999Y-24536061D01*
X75772225Y-24336102D01*
X75694204Y-24147744D01*
X75580936Y-23978226D01*
X75436773Y-23834063D01*
X75267255Y-23720795D01*
X75078897Y-23642774D01*
X74878938Y-23603000D01*
X74675060Y-23603000D01*
X74475101Y-23642774D01*
X74286743Y-23720795D01*
X74117225Y-23834063D01*
X73973062Y-23978226D01*
X73859794Y-24147744D01*
X73781773Y-24336102D01*
X73741999Y-24536061D01*
X73170999Y-24536061D01*
X73131225Y-24336102D01*
X73053204Y-24147744D01*
X72939936Y-23978226D01*
X72795773Y-23834063D01*
X72626255Y-23720795D01*
X72437897Y-23642774D01*
X72237938Y-23603000D01*
X72034060Y-23603000D01*
X71834101Y-23642774D01*
X71645743Y-23720795D01*
X71476225Y-23834063D01*
X71332062Y-23978226D01*
X71218794Y-24147744D01*
X71140773Y-24336102D01*
X71100999Y-24536061D01*
X70529999Y-24536061D01*
X70490225Y-24336102D01*
X70412204Y-24147744D01*
X70298936Y-23978226D01*
X70154773Y-23834063D01*
X69985255Y-23720795D01*
X69796897Y-23642774D01*
X69596938Y-23603000D01*
X69393060Y-23603000D01*
X69193101Y-23642774D01*
X69004743Y-23720795D01*
X68835225Y-23834063D01*
X68691062Y-23978226D01*
X68577794Y-24147744D01*
X68499773Y-24336102D01*
X68459999Y-24536061D01*
X67661416Y-24536061D01*
X67418389Y-23949343D01*
X66965864Y-23272091D01*
X66389909Y-22696136D01*
X66139772Y-22529000D01*
X78132228Y-22529000D01*
X77882091Y-22696136D01*
%TA.AperFunction,Conductor*%
D23*
G36*
X77882091Y-22696136D02*
G01*
X77306136Y-23272091D01*
X76853611Y-23949343D01*
X76541906Y-24701865D01*
X76383000Y-25500738D01*
X76383000Y-26315262D01*
X76541906Y-27114135D01*
X76853611Y-27866657D01*
X77306136Y-28543909D01*
X77735228Y-28973001D01*
X76028135Y-28973001D01*
X74434666Y-27379533D01*
X74418255Y-27297032D01*
X74317733Y-27054351D01*
X74171798Y-26835943D01*
X73986058Y-26650203D01*
X73767650Y-26504268D01*
X73524969Y-26403746D01*
X73267339Y-26352500D01*
X73004663Y-26352500D01*
X72747033Y-26403746D01*
X72504352Y-26504268D01*
X72285944Y-26650203D01*
X72100204Y-26835943D01*
X71968397Y-27033207D01*
X71315604Y-27686000D01*
X71968397Y-28338793D01*
X72100204Y-28536057D01*
X72285944Y-28721797D01*
X72504352Y-28867732D01*
X72747033Y-28968254D01*
X72829534Y-28984665D01*
X73952870Y-30108001D01*
X73905944Y-30154928D01*
X73318000Y-30154928D01*
X73193518Y-30167188D01*
X73073820Y-30203498D01*
X72963506Y-30262463D01*
X72866815Y-30341815D01*
X72787463Y-30438506D01*
X72761007Y-30488000D01*
X71902683Y-30488000D01*
X71865537Y-30418506D01*
X71786185Y-30321815D01*
X71689494Y-30242463D01*
X71579180Y-30183498D01*
X71459482Y-30147188D01*
X71335000Y-30134928D01*
X69635000Y-30134928D01*
X69510518Y-30147188D01*
X69390820Y-30183498D01*
X69280506Y-30242463D01*
X69183815Y-30321815D01*
X69104463Y-30418506D01*
X69045498Y-30528820D01*
X69009188Y-30648518D01*
X68996928Y-30773000D01*
X68996928Y-32473000D01*
X69009188Y-32597482D01*
X69045498Y-32717180D01*
X69104463Y-32827494D01*
X69183815Y-32924185D01*
X69280506Y-33003537D01*
X69390820Y-33062502D01*
X69471466Y-33086966D01*
X69387412Y-33162731D01*
X69213359Y-33396080D01*
X69088175Y-33658901D01*
X69043524Y-33806110D01*
X69164845Y-34036000D01*
X70358000Y-34036000D01*
X70358000Y-34016000D01*
X70612000Y-34016000D01*
X70612000Y-34036000D01*
X71805155Y-34036000D01*
X71926476Y-33806110D01*
X71881825Y-33658901D01*
X71756641Y-33396080D01*
X71582588Y-33162731D01*
X71498534Y-33086966D01*
X71579180Y-33062502D01*
X71689494Y-33003537D01*
X71786185Y-32924185D01*
X71865537Y-32827494D01*
X71902683Y-32758000D01*
X72739627Y-32758000D01*
X72787463Y-32847494D01*
X72866815Y-32944185D01*
X72963506Y-33023537D01*
X73073820Y-33082502D01*
X73154466Y-33106966D01*
X73070412Y-33182731D01*
X72896359Y-33416080D01*
X72771175Y-33678901D01*
X72726524Y-33826110D01*
X72847845Y-34056000D01*
X74041000Y-34056000D01*
X74041000Y-34036000D01*
X74295000Y-34036000D01*
X74295000Y-34056000D01*
X75488155Y-34056000D01*
X75609476Y-33826110D01*
X75564825Y-33678901D01*
X75439641Y-33416080D01*
X75265588Y-33182731D01*
X75181534Y-33106966D01*
X75262180Y-33082502D01*
X75372494Y-33023537D01*
X75469185Y-32944185D01*
X75548537Y-32847494D01*
X75607502Y-32737180D01*
X75643812Y-32617482D01*
X75656072Y-32493000D01*
X75656072Y-31615063D01*
X76028134Y-31243001D01*
X78732653Y-31243001D01*
X78674023Y-31301631D01*
X78790433Y-31418041D01*
X78550344Y-31485020D01*
X78433244Y-31734048D01*
X78366977Y-32001135D01*
X78354090Y-32276017D01*
X78395078Y-32548133D01*
X78488364Y-32807023D01*
X78550344Y-32922980D01*
X78790435Y-32989960D01*
X79576395Y-32204000D01*
X79562253Y-32189858D01*
X79741858Y-32010253D01*
X79756000Y-32024395D01*
X79770143Y-32010253D01*
X79949748Y-32189858D01*
X79935605Y-32204000D01*
X80721565Y-32989960D01*
X80961656Y-32922980D01*
X81078756Y-32673952D01*
X81145023Y-32406865D01*
X81154101Y-32213232D01*
X82177001Y-33236133D01*
X82177000Y-61172000D01*
X80410767Y-61172000D01*
X80391387Y-61156095D01*
X80237851Y-61074028D01*
X80071255Y-61023492D01*
X79898001Y-61006428D01*
X79510796Y-61006428D01*
X79353447Y-60922324D01*
X79139499Y-60857423D01*
X78972752Y-60841000D01*
X78972751Y-60841000D01*
X78917000Y-60835509D01*
X78861249Y-60841000D01*
X77719284Y-60841000D01*
X77514727Y-60704320D01*
X77504135Y-60699933D01*
X77690131Y-60588385D01*
X77898519Y-60399414D01*
X77945681Y-60335788D01*
X77993506Y-60375037D01*
X78103820Y-60434002D01*
X78223518Y-60470312D01*
X78348000Y-60482572D01*
X78962250Y-60479500D01*
X79121000Y-60320750D01*
X79121000Y-59309000D01*
X79375000Y-59309000D01*
X79375000Y-60320750D01*
X79533750Y-60479500D01*
X80148000Y-60482572D01*
X80272482Y-60470312D01*
X80392180Y-60434002D01*
X80502494Y-60375037D01*
X80599185Y-60295685D01*
X80678537Y-60198994D01*
X80737502Y-60088680D01*
X80773812Y-59968982D01*
X80786072Y-59844500D01*
X80783000Y-59467750D01*
X80624250Y-59309000D01*
X79375000Y-59309000D01*
X79121000Y-59309000D01*
X79101000Y-59309000D01*
X79101000Y-59055000D01*
X79121000Y-59055000D01*
X79121000Y-59035000D01*
X79375000Y-59035000D01*
X79375000Y-59055000D01*
X80624250Y-59055000D01*
X80783000Y-58896250D01*
X80786072Y-58519500D01*
X80773812Y-58395018D01*
X80737502Y-58275320D01*
X80678537Y-58165006D01*
X80599185Y-58068315D01*
X80502494Y-57988963D01*
X80392180Y-57929998D01*
X80272482Y-57893688D01*
X80148000Y-57881428D01*
X79533750Y-57884500D01*
X79375002Y-58043248D01*
X79375002Y-57884500D01*
X79257078Y-57884500D01*
X80859050Y-56282529D01*
X80892817Y-56254817D01*
X80955449Y-56178501D01*
X81003411Y-56120059D01*
X81085589Y-55966314D01*
X81136195Y-55799490D01*
X81137980Y-55781363D01*
X81149000Y-55669477D01*
X81149000Y-55669469D01*
X81153281Y-55626000D01*
X81149000Y-55582531D01*
X81149000Y-44779463D01*
X81153281Y-44735997D01*
X81149000Y-44692531D01*
X81149000Y-44692521D01*
X81136195Y-44562508D01*
X81085589Y-44395685D01*
X81003411Y-44241939D01*
X80967139Y-44197742D01*
X80920532Y-44140951D01*
X80920530Y-44140949D01*
X80892817Y-44107181D01*
X80859049Y-44079468D01*
X80073500Y-43293920D01*
X80073500Y-43080660D01*
X80022254Y-42823030D01*
X79921732Y-42580349D01*
X79775797Y-42361941D01*
X79590057Y-42176201D01*
X79371649Y-42030266D01*
X79128968Y-41929744D01*
X78984559Y-41901019D01*
X80351051Y-40534528D01*
X80384817Y-40506817D01*
X80495411Y-40372059D01*
X80577589Y-40218313D01*
X80628195Y-40051490D01*
X80641000Y-39921477D01*
X80641000Y-39921467D01*
X80645281Y-39878001D01*
X80641000Y-39834535D01*
X80641000Y-39442818D01*
X80646535Y-39439120D01*
X80841120Y-39244535D01*
X80994005Y-39015727D01*
X81099314Y-38761490D01*
X81153000Y-38491592D01*
X81153000Y-38216408D01*
X81099314Y-37946510D01*
X80994005Y-37692273D01*
X80841120Y-37463465D01*
X80646535Y-37268880D01*
X80417727Y-37115995D01*
X80367647Y-37095251D01*
X79756000Y-36483604D01*
X79144353Y-37095251D01*
X79094273Y-37115995D01*
X78865465Y-37268880D01*
X78670880Y-37463465D01*
X78517995Y-37692273D01*
X78412686Y-37946510D01*
X78359000Y-38216408D01*
X78359000Y-38491592D01*
X78412686Y-38761490D01*
X78517995Y-39015727D01*
X78670880Y-39244535D01*
X78865465Y-39439120D01*
X78871000Y-39442819D01*
X78871000Y-39511421D01*
X75583424Y-42798998D01*
X75488156Y-42798998D01*
X75609476Y-42569110D01*
X75564825Y-42421901D01*
X75439641Y-42159080D01*
X75265588Y-41925731D01*
X75049355Y-41730822D01*
X74932466Y-41661195D01*
X75114632Y-41539475D01*
X75321475Y-41332632D01*
X75483990Y-41089411D01*
X75595932Y-40819158D01*
X75653000Y-40532260D01*
X75653000Y-40239740D01*
X75638539Y-40167039D01*
X77557050Y-38248529D01*
X77590817Y-38220817D01*
X77623897Y-38180510D01*
X77701411Y-38086059D01*
X77783589Y-37932314D01*
X77834195Y-37765490D01*
X77840063Y-37705909D01*
X77847000Y-37635477D01*
X77847000Y-37635469D01*
X77851281Y-37592000D01*
X77847000Y-37548531D01*
X77847000Y-37414579D01*
X78452921Y-36808659D01*
X78488364Y-36907022D01*
X78550344Y-37022979D01*
X78790435Y-37089959D01*
X79576395Y-36303999D01*
X79935605Y-36303999D01*
X80721565Y-37089959D01*
X80961656Y-37022979D01*
X81078756Y-36773951D01*
X81145023Y-36506864D01*
X81157910Y-36231982D01*
X81116922Y-35959866D01*
X81023636Y-35700976D01*
X80961656Y-35585019D01*
X80721565Y-35518039D01*
X79935605Y-36303999D01*
X79576395Y-36303999D01*
X79562253Y-36289857D01*
X79741858Y-36110252D01*
X79756000Y-36124394D01*
X80367642Y-35512752D01*
X80417727Y-35492006D01*
X80646535Y-35339121D01*
X80841120Y-35144536D01*
X80994005Y-34915728D01*
X81099314Y-34661491D01*
X81153000Y-34391593D01*
X81153000Y-34116409D01*
X81099314Y-33846511D01*
X80994005Y-33592274D01*
X80841120Y-33363466D01*
X80646535Y-33168881D01*
X80417727Y-33015996D01*
X80367647Y-32995252D01*
X79756000Y-32383605D01*
X79144353Y-32995252D01*
X79094273Y-33015996D01*
X78865465Y-33168881D01*
X78670880Y-33363466D01*
X78517995Y-33592274D01*
X78412686Y-33846511D01*
X78359000Y-34116409D01*
X78359000Y-34391593D01*
X78360299Y-34398123D01*
X76366951Y-36391472D01*
X76333184Y-36419184D01*
X76305471Y-36452952D01*
X76305468Y-36452955D01*
X76222590Y-36553942D01*
X76140411Y-36707688D01*
X76089805Y-36874511D01*
X76077000Y-37004524D01*
X76077000Y-37004532D01*
X76072719Y-37048001D01*
X76077000Y-37091470D01*
X76077000Y-37225421D01*
X75583423Y-37718998D01*
X75488156Y-37718998D01*
X75609476Y-37489110D01*
X75564825Y-37341901D01*
X75439641Y-37079080D01*
X75265588Y-36845731D01*
X75049355Y-36650822D01*
X74799252Y-36501843D01*
X74524891Y-36404519D01*
X74295000Y-36525186D01*
X74295000Y-37719000D01*
X74315000Y-37719000D01*
X74315000Y-37973000D01*
X74295000Y-37973000D01*
X74295000Y-37993000D01*
X74041000Y-37993000D01*
X74041000Y-37973000D01*
X72847845Y-37973000D01*
X72726524Y-38202890D01*
X72771175Y-38350099D01*
X72896359Y-38612920D01*
X73070412Y-38846269D01*
X73286645Y-39041178D01*
X73403534Y-39110805D01*
X73221368Y-39232525D01*
X73014525Y-39439368D01*
X72973344Y-39501000D01*
X71552656Y-39501000D01*
X71511475Y-39439368D01*
X71304632Y-39232525D01*
X71122466Y-39110805D01*
X71239355Y-39041178D01*
X71455588Y-38846269D01*
X71629641Y-38612920D01*
X71754825Y-38350099D01*
X71799476Y-38202890D01*
X71678155Y-37973000D01*
X70485000Y-37973000D01*
X70485000Y-37993000D01*
X70231000Y-37993000D01*
X70231000Y-37973000D01*
X69037845Y-37973000D01*
X68916524Y-38202890D01*
X68961175Y-38350099D01*
X69086359Y-38612920D01*
X69260412Y-38846269D01*
X69476645Y-39041178D01*
X69593534Y-39110805D01*
X69411368Y-39232525D01*
X69204525Y-39439368D01*
X69042010Y-39682589D01*
X68930068Y-39952842D01*
X68873000Y-40239740D01*
X68873000Y-40532260D01*
X68887461Y-40604960D01*
X68539778Y-40952644D01*
X68533004Y-40939972D01*
X68438031Y-40824247D01*
X68409034Y-40800450D01*
X65141499Y-37532916D01*
X65141499Y-37489110D01*
X68916524Y-37489110D01*
X69037845Y-37719000D01*
X70231000Y-37719000D01*
X70231000Y-36525186D01*
X70485000Y-36525186D01*
X70485000Y-37719000D01*
X71678155Y-37719000D01*
X71799476Y-37489110D01*
X72726524Y-37489110D01*
X72847845Y-37719000D01*
X74041000Y-37719000D01*
X74041000Y-36525186D01*
X73811109Y-36404519D01*
X73536748Y-36501843D01*
X73286645Y-36650822D01*
X73070412Y-36845731D01*
X72896359Y-37079080D01*
X72771175Y-37341901D01*
X72726524Y-37489110D01*
X71799476Y-37489110D01*
X71754825Y-37341901D01*
X71629641Y-37079080D01*
X71455588Y-36845731D01*
X71239355Y-36650822D01*
X70989252Y-36501843D01*
X70714891Y-36404519D01*
X70485000Y-36525186D01*
X70231000Y-36525186D01*
X70001109Y-36404519D01*
X69726748Y-36501843D01*
X69476645Y-36650822D01*
X69260412Y-36845731D01*
X69086359Y-37079080D01*
X68961175Y-37341901D01*
X68916524Y-37489110D01*
X65141499Y-37489110D01*
X65141499Y-36708212D01*
X65273662Y-36734501D01*
X65536338Y-36734501D01*
X65793968Y-36683255D01*
X66036649Y-36582733D01*
X66255057Y-36436798D01*
X66440797Y-36251058D01*
X66586732Y-36032650D01*
X66687254Y-35789969D01*
X66738500Y-35532339D01*
X66738500Y-35269663D01*
X66687254Y-35012033D01*
X66586732Y-34769352D01*
X66440797Y-34550944D01*
X66409743Y-34519890D01*
X69043524Y-34519890D01*
X69088175Y-34667099D01*
X69213359Y-34929920D01*
X69387412Y-35163269D01*
X69603645Y-35358178D01*
X69853748Y-35507157D01*
X70128109Y-35604481D01*
X70358000Y-35483814D01*
X70358000Y-34290000D01*
X70612000Y-34290000D01*
X70612000Y-35483814D01*
X70841891Y-35604481D01*
X71116252Y-35507157D01*
X71366355Y-35358178D01*
X71582588Y-35163269D01*
X71756641Y-34929920D01*
X71881825Y-34667099D01*
X71920409Y-34539890D01*
X72726524Y-34539890D01*
X72771175Y-34687099D01*
X72896359Y-34949920D01*
X73070412Y-35183269D01*
X73286645Y-35378178D01*
X73536748Y-35527157D01*
X73811109Y-35624481D01*
X74041000Y-35503814D01*
X74041000Y-34310000D01*
X74295000Y-34310000D01*
X74295000Y-35503814D01*
X74524891Y-35624481D01*
X74799252Y-35527157D01*
X75049355Y-35378178D01*
X75265588Y-35183269D01*
X75439641Y-34949920D01*
X75564825Y-34687099D01*
X75609476Y-34539890D01*
X75488155Y-34310000D01*
X74295000Y-34310000D01*
X74041000Y-34310000D01*
X72847845Y-34310000D01*
X72726524Y-34539890D01*
X71920409Y-34539890D01*
X71926476Y-34519890D01*
X71805155Y-34290000D01*
X70612000Y-34290000D01*
X70358000Y-34290000D01*
X69164845Y-34290000D01*
X69043524Y-34519890D01*
X66409743Y-34519890D01*
X66290853Y-34401000D01*
X66440797Y-34251056D01*
X66586732Y-34032648D01*
X66687254Y-33789967D01*
X66738500Y-33532337D01*
X66738500Y-33269661D01*
X66687254Y-33012031D01*
X66586732Y-32769350D01*
X66440797Y-32550942D01*
X66255057Y-32365202D01*
X66036649Y-32219267D01*
X65793968Y-32118745D01*
X65536338Y-32067499D01*
X65273662Y-32067499D01*
X65016032Y-32118745D01*
X64773351Y-32219267D01*
X64554943Y-32365202D01*
X64369203Y-32550942D01*
X64223268Y-32769350D01*
X64122746Y-33012031D01*
X64071500Y-33269661D01*
X64071500Y-33532337D01*
X64092631Y-33638567D01*
X63870501Y-33860696D01*
X63841498Y-33884499D01*
X63786370Y-33951674D01*
X63746525Y-34000224D01*
X63684422Y-34116409D01*
X63675953Y-34132254D01*
X63632496Y-34275515D01*
X63621499Y-34387168D01*
X63621499Y-34387178D01*
X63617823Y-34424500D01*
X63621499Y-34461823D01*
X63621500Y-37810385D01*
X63617823Y-37847717D01*
X63621500Y-37885050D01*
X63630163Y-37973000D01*
X63632497Y-37996702D01*
X63675953Y-38139963D01*
X63746525Y-38271993D01*
X63795289Y-38331411D01*
X63841499Y-38387718D01*
X63870497Y-38411516D01*
X64707349Y-39248369D01*
X64554943Y-39350203D01*
X64369203Y-39535943D01*
X64223268Y-39754351D01*
X64122746Y-39997032D01*
X64071500Y-40254662D01*
X64071500Y-40517338D01*
X64092631Y-40623568D01*
X63870501Y-40845697D01*
X63841498Y-40869500D01*
X63803336Y-40916001D01*
X63746525Y-40985225D01*
X63691371Y-41088411D01*
X63675953Y-41117255D01*
X63632496Y-41260516D01*
X63621499Y-41372169D01*
X63621499Y-41372179D01*
X63617823Y-41409501D01*
X63621499Y-41446824D01*
X63621500Y-44795384D01*
X63617823Y-44832716D01*
X63632497Y-44981701D01*
X63675953Y-45124962D01*
X63746525Y-45256992D01*
X63817388Y-45343338D01*
X63841499Y-45372717D01*
X63870497Y-45396515D01*
X64707349Y-46233368D01*
X64554943Y-46335202D01*
X64369203Y-46520942D01*
X64223268Y-46739350D01*
X64122746Y-46982031D01*
X64071500Y-47239661D01*
X64071500Y-47502337D01*
X64092631Y-47608567D01*
X63751002Y-47950195D01*
X63721999Y-47973998D01*
X63697115Y-48004320D01*
X63627026Y-48089723D01*
X63573817Y-48189269D01*
X63556454Y-48221753D01*
X63512997Y-48365014D01*
X63502000Y-48476667D01*
X63502000Y-48476677D01*
X63498324Y-48513999D01*
X63502000Y-48551322D01*
X63502001Y-51660885D01*
X63498324Y-51698217D01*
X63512998Y-51847202D01*
X63556454Y-51990463D01*
X63627026Y-52122493D01*
X63654782Y-52156313D01*
X63722000Y-52238218D01*
X63750998Y-52262016D01*
X64707349Y-53218368D01*
X64554943Y-53320202D01*
X64369203Y-53505942D01*
X64223268Y-53724350D01*
X64122746Y-53967031D01*
X64071500Y-54224661D01*
X64071500Y-54487337D01*
X64092631Y-54593567D01*
X63870501Y-54815696D01*
X63841498Y-54839499D01*
X63809949Y-54877942D01*
X63746525Y-54955224D01*
X63685603Y-55069200D01*
X63675953Y-55087254D01*
X63632496Y-55230515D01*
X63621499Y-55342168D01*
X63621499Y-55342178D01*
X63617823Y-55379500D01*
X63621499Y-55416823D01*
X63621500Y-58756167D01*
X63617823Y-58793499D01*
X63621500Y-58830832D01*
X63632497Y-58942485D01*
X63645679Y-58985941D01*
X63675953Y-59085745D01*
X63746525Y-59217775D01*
X63809628Y-59294665D01*
X63841499Y-59333500D01*
X63870497Y-59357298D01*
X64712875Y-60199676D01*
X64554943Y-60305202D01*
X64369203Y-60490942D01*
X64223268Y-60709350D01*
X64122746Y-60952031D01*
X64071500Y-61209661D01*
X64071500Y-61472337D01*
X64092631Y-61578567D01*
X63751002Y-61920195D01*
X63721999Y-61943998D01*
X63695736Y-61976000D01*
X63627026Y-62059723D01*
X63613221Y-62085551D01*
X63556454Y-62191753D01*
X63512997Y-62335014D01*
X63502000Y-62446667D01*
X63502000Y-62446677D01*
X63498324Y-62483999D01*
X63502000Y-62521322D01*
X63502001Y-65494668D01*
X63498324Y-65532000D01*
X63512998Y-65680985D01*
X63556454Y-65824246D01*
X63627026Y-65956276D01*
X63661121Y-65997820D01*
X63722000Y-66072001D01*
X63750998Y-66095799D01*
X64791817Y-67136618D01*
X64773351Y-67144267D01*
X64554943Y-67290202D01*
X64369203Y-67475942D01*
X64223268Y-67694350D01*
X64122746Y-67937031D01*
X64071500Y-68194661D01*
X64071500Y-68457337D01*
X64092631Y-68563567D01*
X63870501Y-68785696D01*
X63841498Y-68809499D01*
X63803072Y-68856322D01*
X63746525Y-68925224D01*
X63708426Y-68996502D01*
X63675953Y-69057254D01*
X63632496Y-69200515D01*
X63621499Y-69312168D01*
X63621499Y-69312178D01*
X63617823Y-69349500D01*
X63621499Y-69386823D01*
X63621500Y-73615167D01*
X63617823Y-73652499D01*
X63632497Y-73801484D01*
X63675953Y-73944745D01*
X63746525Y-74076775D01*
X63810726Y-74155003D01*
X63841499Y-74192500D01*
X63870497Y-74216298D01*
X64206200Y-74552002D01*
X64229999Y-74581001D01*
X64268093Y-74612264D01*
X64223268Y-74679350D01*
X64122746Y-74922031D01*
X64071500Y-75179661D01*
X64071500Y-75442337D01*
X64122746Y-75699967D01*
X64223268Y-75942648D01*
X64369203Y-76161056D01*
X64519147Y-76311000D01*
X64369203Y-76460944D01*
X64223268Y-76679352D01*
X64122746Y-76922033D01*
X64071500Y-77179663D01*
X64071500Y-77442339D01*
X64122746Y-77699969D01*
X64223268Y-77942650D01*
X64369203Y-78161058D01*
X64554943Y-78346798D01*
X64773351Y-78492733D01*
X65016032Y-78593255D01*
X65273662Y-78644501D01*
X65536338Y-78644501D01*
X65793968Y-78593255D01*
X66036649Y-78492733D01*
X66159191Y-78410854D01*
X66163998Y-78414799D01*
X67813141Y-80063943D01*
X67835147Y-80174574D01*
X67943320Y-80435727D01*
X68100363Y-80670759D01*
X68300241Y-80870637D01*
X68532759Y-81026000D01*
X68300241Y-81181363D01*
X68100363Y-81381241D01*
X67996957Y-81535999D01*
X66500971Y-81535999D01*
X66440797Y-81445942D01*
X66255057Y-81260202D01*
X66036649Y-81114267D01*
X65793968Y-81013745D01*
X65536338Y-80962499D01*
X65273662Y-80962499D01*
X65016032Y-81013745D01*
X64773351Y-81114267D01*
X64554943Y-81260202D01*
X64369203Y-81445942D01*
X64223268Y-81664350D01*
X64122746Y-81907031D01*
X64071500Y-82164661D01*
X64071500Y-82427337D01*
X64122746Y-82684967D01*
X64223268Y-82927648D01*
X64369203Y-83146056D01*
X64519147Y-83296000D01*
X64369203Y-83445944D01*
X64223268Y-83664352D01*
X64122746Y-83907033D01*
X64071500Y-84164663D01*
X64071500Y-84427339D01*
X64122746Y-84684969D01*
X64223268Y-84927650D01*
X64369203Y-85146058D01*
X64554943Y-85331798D01*
X64773351Y-85477733D01*
X65016032Y-85578255D01*
X65273662Y-85629501D01*
X65536338Y-85629501D01*
X65793968Y-85578255D01*
X66036649Y-85477733D01*
X66255057Y-85331798D01*
X66440797Y-85146058D01*
X66586732Y-84927650D01*
X66687254Y-84684969D01*
X66738500Y-84427339D01*
X66738500Y-84164663D01*
X66687254Y-83907033D01*
X66586732Y-83664352D01*
X66440797Y-83445944D01*
X66290853Y-83296000D01*
X66440797Y-83146056D01*
X66500971Y-83055999D01*
X67996956Y-83055999D01*
X68100363Y-83210759D01*
X68300241Y-83410637D01*
X68535273Y-83567680D01*
X68796426Y-83675853D01*
X69073665Y-83731000D01*
X69356335Y-83731000D01*
X69633574Y-83675853D01*
X69894727Y-83567680D01*
X70129759Y-83410637D01*
X70329637Y-83210759D01*
X70486680Y-82975727D01*
X70594853Y-82714574D01*
X70650000Y-82437335D01*
X70650000Y-82423000D01*
X75396928Y-82423000D01*
X75396928Y-83096000D01*
X75409188Y-83220482D01*
X75445498Y-83340180D01*
X75504463Y-83450494D01*
X75583815Y-83547185D01*
X75680506Y-83626537D01*
X75790820Y-83685502D01*
X75910518Y-83721812D01*
X76035000Y-83734072D01*
X77635000Y-83734072D01*
X77759482Y-83721812D01*
X77879180Y-83685502D01*
X77989494Y-83626537D01*
X78086185Y-83547185D01*
X78165537Y-83450494D01*
X78224502Y-83340180D01*
X78260812Y-83220482D01*
X78273072Y-83096000D01*
X78273072Y-81786000D01*
X79203199Y-81786000D01*
X79970201Y-82553003D01*
X79993999Y-82582001D01*
X80022997Y-82605799D01*
X80109723Y-82676974D01*
X80162009Y-82704922D01*
X80158188Y-82717518D01*
X80145928Y-82842000D01*
X80145928Y-83842000D01*
X80158188Y-83966482D01*
X80194498Y-84086180D01*
X80253463Y-84196494D01*
X80332815Y-84293185D01*
X80429506Y-84372537D01*
X80539820Y-84431502D01*
X80659518Y-84467812D01*
X80784000Y-84480072D01*
X82284000Y-84480072D01*
X82315192Y-84477000D01*
X82718249Y-84477000D01*
X82774000Y-84482491D01*
X82829751Y-84477000D01*
X82829752Y-84477000D01*
X82996499Y-84460577D01*
X83210447Y-84395676D01*
X83407623Y-84290284D01*
X83580449Y-84148449D01*
X83615996Y-84105135D01*
X83897001Y-83824130D01*
X83897001Y-89308229D01*
X83729864Y-89058091D01*
X83153909Y-88482136D01*
X82476657Y-88029611D01*
X81724135Y-87717906D01*
X80925262Y-87559000D01*
X80110738Y-87559000D01*
X79311865Y-87717906D01*
X78559343Y-88029611D01*
X77882091Y-88482136D01*
X77306136Y-89058091D01*
X76853611Y-89735343D01*
X76541906Y-90487865D01*
X76383000Y-91286738D01*
X76383000Y-92101262D01*
X76541906Y-92900135D01*
X76853611Y-93652657D01*
X77306136Y-94329909D01*
X77882091Y-94905864D01*
X78512366Y-95327000D01*
X65759634Y-95327000D01*
X66389909Y-94905864D01*
X66965864Y-94329909D01*
X67418389Y-93652657D01*
X67730094Y-92900135D01*
X67889000Y-92101262D01*
X67889000Y-91286738D01*
X67730094Y-90487865D01*
X67450996Y-89814061D01*
X68459999Y-89814061D01*
X68459999Y-90017939D01*
X68499773Y-90217898D01*
X68577794Y-90406256D01*
X68691062Y-90575774D01*
X68835225Y-90719937D01*
X69004743Y-90833205D01*
X69193101Y-90911226D01*
X69393060Y-90951000D01*
X69596938Y-90951000D01*
X69796897Y-90911226D01*
X69985255Y-90833205D01*
X70154773Y-90719937D01*
X70298936Y-90575774D01*
X70412204Y-90406256D01*
X70490225Y-90217898D01*
X70529999Y-90017939D01*
X70529999Y-89814061D01*
X71100999Y-89814061D01*
X71100999Y-90017939D01*
X71140773Y-90217898D01*
X71218794Y-90406256D01*
X71332062Y-90575774D01*
X71476225Y-90719937D01*
X71645743Y-90833205D01*
X71834101Y-90911226D01*
X72034060Y-90951000D01*
X72237938Y-90951000D01*
X72437897Y-90911226D01*
X72626255Y-90833205D01*
X72795773Y-90719937D01*
X72939936Y-90575774D01*
X73053204Y-90406256D01*
X73131225Y-90217898D01*
X73170999Y-90017939D01*
X73170999Y-89814061D01*
X73741999Y-89814061D01*
X73741999Y-90017939D01*
X73781773Y-90217898D01*
X73859794Y-90406256D01*
X73973062Y-90575774D01*
X74117225Y-90719937D01*
X74286743Y-90833205D01*
X74475101Y-90911226D01*
X74675060Y-90951000D01*
X74878938Y-90951000D01*
X75078897Y-90911226D01*
X75267255Y-90833205D01*
X75436773Y-90719937D01*
X75580936Y-90575774D01*
X75694204Y-90406256D01*
X75772225Y-90217898D01*
X75811999Y-90017939D01*
X75811999Y-89814061D01*
X75772225Y-89614102D01*
X75694204Y-89425744D01*
X75580936Y-89256226D01*
X75436773Y-89112063D01*
X75267255Y-88998795D01*
X75078897Y-88920774D01*
X74878938Y-88881000D01*
X74675060Y-88881000D01*
X74475101Y-88920774D01*
X74286743Y-88998795D01*
X74117225Y-89112063D01*
X73973062Y-89256226D01*
X73859794Y-89425744D01*
X73781773Y-89614102D01*
X73741999Y-89814061D01*
X73170999Y-89814061D01*
X73131225Y-89614102D01*
X73053204Y-89425744D01*
X72939936Y-89256226D01*
X72795773Y-89112063D01*
X72626255Y-88998795D01*
X72437897Y-88920774D01*
X72237938Y-88881000D01*
X72034060Y-88881000D01*
X71834101Y-88920774D01*
X71645743Y-88998795D01*
X71476225Y-89112063D01*
X71332062Y-89256226D01*
X71218794Y-89425744D01*
X71140773Y-89614102D01*
X71100999Y-89814061D01*
X70529999Y-89814061D01*
X70490225Y-89614102D01*
X70412204Y-89425744D01*
X70298936Y-89256226D01*
X70154773Y-89112063D01*
X69985255Y-88998795D01*
X69796897Y-88920774D01*
X69596938Y-88881000D01*
X69393060Y-88881000D01*
X69193101Y-88920774D01*
X69004743Y-88998795D01*
X68835225Y-89112063D01*
X68691062Y-89256226D01*
X68577794Y-89425744D01*
X68499773Y-89614102D01*
X68459999Y-89814061D01*
X67450996Y-89814061D01*
X67418389Y-89735343D01*
X66965864Y-89058091D01*
X66389909Y-88482136D01*
X65712657Y-88029611D01*
X64960135Y-87717906D01*
X64161262Y-87559000D01*
X63346738Y-87559000D01*
X62547865Y-87717906D01*
X61795343Y-88029611D01*
X61118091Y-88482136D01*
X60542136Y-89058091D01*
X60375000Y-89308228D01*
X60375000Y-86004061D01*
X61703000Y-86004061D01*
X61703000Y-86207939D01*
X61742774Y-86407898D01*
X61820795Y-86596256D01*
X61934063Y-86765774D01*
X62078226Y-86909937D01*
X62247744Y-87023205D01*
X62436102Y-87101226D01*
X62636061Y-87141000D01*
X62839939Y-87141000D01*
X63039898Y-87101226D01*
X63228256Y-87023205D01*
X63397774Y-86909937D01*
X63541937Y-86765774D01*
X63655205Y-86596256D01*
X63733226Y-86407898D01*
X63773000Y-86207939D01*
X63773000Y-86004061D01*
X67037000Y-86004061D01*
X67037000Y-86207939D01*
X67076774Y-86407898D01*
X67154795Y-86596256D01*
X67268063Y-86765774D01*
X67412226Y-86909937D01*
X67581744Y-87023205D01*
X67770102Y-87101226D01*
X67970061Y-87141000D01*
X68173939Y-87141000D01*
X68373898Y-87101226D01*
X68562256Y-87023205D01*
X68731774Y-86909937D01*
X68875937Y-86765774D01*
X68989205Y-86596256D01*
X69067226Y-86407898D01*
X69107000Y-86207939D01*
X69107000Y-86004061D01*
X69067226Y-85804102D01*
X68989205Y-85615744D01*
X68875937Y-85446226D01*
X68731774Y-85302063D01*
X68562256Y-85188795D01*
X68373898Y-85110774D01*
X68173939Y-85071000D01*
X67970061Y-85071000D01*
X67770102Y-85110774D01*
X67581744Y-85188795D01*
X67412226Y-85302063D01*
X67268063Y-85446226D01*
X67154795Y-85615744D01*
X67076774Y-85804102D01*
X67037000Y-86004061D01*
X63773000Y-86004061D01*
X63733226Y-85804102D01*
X63655205Y-85615744D01*
X63541937Y-85446226D01*
X63397774Y-85302063D01*
X63228256Y-85188795D01*
X63039898Y-85110774D01*
X62839939Y-85071000D01*
X62636061Y-85071000D01*
X62436102Y-85110774D01*
X62247744Y-85188795D01*
X62078226Y-85302063D01*
X61934063Y-85446226D01*
X61820795Y-85615744D01*
X61742774Y-85804102D01*
X61703000Y-86004061D01*
X60375000Y-86004061D01*
X60375000Y-82549062D01*
X61068000Y-82549062D01*
X61068000Y-82752940D01*
X61107774Y-82952899D01*
X61185795Y-83141257D01*
X61299063Y-83310775D01*
X61443226Y-83454938D01*
X61612744Y-83568206D01*
X61801102Y-83646227D01*
X62001061Y-83686001D01*
X62204939Y-83686001D01*
X62404898Y-83646227D01*
X62593256Y-83568206D01*
X62762774Y-83454938D01*
X62906937Y-83310775D01*
X63020205Y-83141257D01*
X63098226Y-82952899D01*
X63138000Y-82752940D01*
X63138000Y-82549062D01*
X63098226Y-82349103D01*
X63020205Y-82160745D01*
X62906937Y-81991227D01*
X62762774Y-81847064D01*
X62593256Y-81733796D01*
X62404898Y-81655775D01*
X62204939Y-81616001D01*
X62001061Y-81616001D01*
X61801102Y-81655775D01*
X61612744Y-81733796D01*
X61443226Y-81847064D01*
X61299063Y-81991227D01*
X61185795Y-82160745D01*
X61107774Y-82349103D01*
X61068000Y-82549062D01*
X60375000Y-82549062D01*
X60375000Y-77461562D01*
X61068000Y-77461562D01*
X61068000Y-77665440D01*
X61107774Y-77865399D01*
X61185795Y-78053757D01*
X61299063Y-78223275D01*
X61443226Y-78367438D01*
X61612744Y-78480706D01*
X61801102Y-78558727D01*
X62001061Y-78598501D01*
X62204939Y-78598501D01*
X62404898Y-78558727D01*
X62593256Y-78480706D01*
X62762774Y-78367438D01*
X62906937Y-78223275D01*
X63020205Y-78053757D01*
X63098226Y-77865399D01*
X63138000Y-77665440D01*
X63138000Y-77461562D01*
X63098226Y-77261603D01*
X63020205Y-77073245D01*
X62906937Y-76903727D01*
X62762774Y-76759564D01*
X62593256Y-76646296D01*
X62404898Y-76568275D01*
X62204939Y-76528501D01*
X62001061Y-76528501D01*
X61801102Y-76568275D01*
X61612744Y-76646296D01*
X61443226Y-76759564D01*
X61299063Y-76903727D01*
X61185795Y-77073245D01*
X61107774Y-77261603D01*
X61068000Y-77461562D01*
X60375000Y-77461562D01*
X60375000Y-72374062D01*
X61068000Y-72374062D01*
X61068000Y-72577940D01*
X61107774Y-72777899D01*
X61185795Y-72966257D01*
X61299063Y-73135775D01*
X61443226Y-73279938D01*
X61612744Y-73393206D01*
X61801102Y-73471227D01*
X62001061Y-73511001D01*
X62204939Y-73511001D01*
X62404898Y-73471227D01*
X62593256Y-73393206D01*
X62762774Y-73279938D01*
X62906937Y-73135775D01*
X63020205Y-72966257D01*
X63098226Y-72777899D01*
X63138000Y-72577940D01*
X63138000Y-72374062D01*
X63098226Y-72174103D01*
X63020205Y-71985745D01*
X62906937Y-71816227D01*
X62762774Y-71672064D01*
X62593256Y-71558796D01*
X62404898Y-71480775D01*
X62204939Y-71441001D01*
X62001061Y-71441001D01*
X61801102Y-71480775D01*
X61612744Y-71558796D01*
X61443226Y-71672064D01*
X61299063Y-71816227D01*
X61185795Y-71985745D01*
X61107774Y-72174103D01*
X61068000Y-72374062D01*
X60375000Y-72374062D01*
X60375000Y-67286562D01*
X61068000Y-67286562D01*
X61068000Y-67490440D01*
X61107774Y-67690399D01*
X61185795Y-67878757D01*
X61299063Y-68048275D01*
X61443226Y-68192438D01*
X61612744Y-68305706D01*
X61801102Y-68383727D01*
X62001061Y-68423501D01*
X62204939Y-68423501D01*
X62404898Y-68383727D01*
X62593256Y-68305706D01*
X62762774Y-68192438D01*
X62906937Y-68048275D01*
X63020205Y-67878757D01*
X63098226Y-67690399D01*
X63138000Y-67490440D01*
X63138000Y-67286562D01*
X63098226Y-67086603D01*
X63020205Y-66898245D01*
X62906937Y-66728727D01*
X62762774Y-66584564D01*
X62593256Y-66471296D01*
X62404898Y-66393275D01*
X62204939Y-66353501D01*
X62001061Y-66353501D01*
X61801102Y-66393275D01*
X61612744Y-66471296D01*
X61443226Y-66584564D01*
X61299063Y-66728727D01*
X61185795Y-66898245D01*
X61107774Y-67086603D01*
X61068000Y-67286562D01*
X60375000Y-67286562D01*
X60375000Y-62199062D01*
X61068000Y-62199062D01*
X61068000Y-62402940D01*
X61107774Y-62602899D01*
X61185795Y-62791257D01*
X61299063Y-62960775D01*
X61443226Y-63104938D01*
X61612744Y-63218206D01*
X61801102Y-63296227D01*
X62001061Y-63336001D01*
X62204939Y-63336001D01*
X62404898Y-63296227D01*
X62593256Y-63218206D01*
X62762774Y-63104938D01*
X62906937Y-62960775D01*
X63020205Y-62791257D01*
X63098226Y-62602899D01*
X63138000Y-62402940D01*
X63138000Y-62199062D01*
X63098226Y-61999103D01*
X63020205Y-61810745D01*
X62906937Y-61641227D01*
X62762774Y-61497064D01*
X62593256Y-61383796D01*
X62404898Y-61305775D01*
X62204939Y-61266001D01*
X62001061Y-61266001D01*
X61801102Y-61305775D01*
X61612744Y-61383796D01*
X61443226Y-61497064D01*
X61299063Y-61641227D01*
X61185795Y-61810745D01*
X61107774Y-61999103D01*
X61068000Y-62199062D01*
X60375000Y-62199062D01*
X60375000Y-57111562D01*
X61068000Y-57111562D01*
X61068000Y-57315440D01*
X61107774Y-57515399D01*
X61185795Y-57703757D01*
X61299063Y-57873275D01*
X61443226Y-58017438D01*
X61612744Y-58130706D01*
X61801102Y-58208727D01*
X62001061Y-58248501D01*
X62204939Y-58248501D01*
X62404898Y-58208727D01*
X62593256Y-58130706D01*
X62762774Y-58017438D01*
X62906937Y-57873275D01*
X63020205Y-57703757D01*
X63098226Y-57515399D01*
X63138000Y-57315440D01*
X63138000Y-57111562D01*
X63098226Y-56911603D01*
X63020205Y-56723245D01*
X62906937Y-56553727D01*
X62762774Y-56409564D01*
X62593256Y-56296296D01*
X62404898Y-56218275D01*
X62204939Y-56178501D01*
X62001061Y-56178501D01*
X61801102Y-56218275D01*
X61612744Y-56296296D01*
X61443226Y-56409564D01*
X61299063Y-56553727D01*
X61185795Y-56723245D01*
X61107774Y-56911603D01*
X61068000Y-57111562D01*
X60375000Y-57111562D01*
X60375000Y-52024062D01*
X61068000Y-52024062D01*
X61068000Y-52227940D01*
X61107774Y-52427899D01*
X61185795Y-52616257D01*
X61299063Y-52785775D01*
X61443226Y-52929938D01*
X61612744Y-53043206D01*
X61801102Y-53121227D01*
X62001061Y-53161001D01*
X62204939Y-53161001D01*
X62404898Y-53121227D01*
X62593256Y-53043206D01*
X62762774Y-52929938D01*
X62906937Y-52785775D01*
X63020205Y-52616257D01*
X63098226Y-52427899D01*
X63138000Y-52227940D01*
X63138000Y-52024062D01*
X63098226Y-51824103D01*
X63020205Y-51635745D01*
X62906937Y-51466227D01*
X62762774Y-51322064D01*
X62593256Y-51208796D01*
X62404898Y-51130775D01*
X62204939Y-51091001D01*
X62001061Y-51091001D01*
X61801102Y-51130775D01*
X61612744Y-51208796D01*
X61443226Y-51322064D01*
X61299063Y-51466227D01*
X61185795Y-51635745D01*
X61107774Y-51824103D01*
X61068000Y-52024062D01*
X60375000Y-52024062D01*
X60375000Y-46936562D01*
X61068000Y-46936562D01*
X61068000Y-47140440D01*
X61107774Y-47340399D01*
X61185795Y-47528757D01*
X61299063Y-47698275D01*
X61443226Y-47842438D01*
X61612744Y-47955706D01*
X61801102Y-48033727D01*
X62001061Y-48073501D01*
X62204939Y-48073501D01*
X62404898Y-48033727D01*
X62593256Y-47955706D01*
X62762774Y-47842438D01*
X62906937Y-47698275D01*
X63020205Y-47528757D01*
X63098226Y-47340399D01*
X63138000Y-47140440D01*
X63138000Y-46936562D01*
X63098226Y-46736603D01*
X63020205Y-46548245D01*
X62906937Y-46378727D01*
X62762774Y-46234564D01*
X62593256Y-46121296D01*
X62404898Y-46043275D01*
X62204939Y-46003501D01*
X62001061Y-46003501D01*
X61801102Y-46043275D01*
X61612744Y-46121296D01*
X61443226Y-46234564D01*
X61299063Y-46378727D01*
X61185795Y-46548245D01*
X61107774Y-46736603D01*
X61068000Y-46936562D01*
X60375000Y-46936562D01*
X60375000Y-41849062D01*
X61068000Y-41849062D01*
X61068000Y-42052940D01*
X61107774Y-42252899D01*
X61185795Y-42441257D01*
X61299063Y-42610775D01*
X61443226Y-42754938D01*
X61612744Y-42868206D01*
X61801102Y-42946227D01*
X62001061Y-42986001D01*
X62204939Y-42986001D01*
X62404898Y-42946227D01*
X62593256Y-42868206D01*
X62762774Y-42754938D01*
X62906937Y-42610775D01*
X63020205Y-42441257D01*
X63098226Y-42252899D01*
X63138000Y-42052940D01*
X63138000Y-41849062D01*
X63098226Y-41649103D01*
X63020205Y-41460745D01*
X62906937Y-41291227D01*
X62762774Y-41147064D01*
X62593256Y-41033796D01*
X62404898Y-40955775D01*
X62204939Y-40916001D01*
X62001061Y-40916001D01*
X61801102Y-40955775D01*
X61612744Y-41033796D01*
X61443226Y-41147064D01*
X61299063Y-41291227D01*
X61185795Y-41460745D01*
X61107774Y-41649103D01*
X61068000Y-41849062D01*
X60375000Y-41849062D01*
X60375000Y-36761562D01*
X61068000Y-36761562D01*
X61068000Y-36965440D01*
X61107774Y-37165399D01*
X61185795Y-37353757D01*
X61299063Y-37523275D01*
X61443226Y-37667438D01*
X61612744Y-37780706D01*
X61801102Y-37858727D01*
X62001061Y-37898501D01*
X62204939Y-37898501D01*
X62404898Y-37858727D01*
X62593256Y-37780706D01*
X62762774Y-37667438D01*
X62906937Y-37523275D01*
X63020205Y-37353757D01*
X63098226Y-37165399D01*
X63138000Y-36965440D01*
X63138000Y-36761562D01*
X63098226Y-36561603D01*
X63020205Y-36373245D01*
X62906937Y-36203727D01*
X62762774Y-36059564D01*
X62593256Y-35946296D01*
X62404898Y-35868275D01*
X62204939Y-35828501D01*
X62001061Y-35828501D01*
X61801102Y-35868275D01*
X61612744Y-35946296D01*
X61443226Y-36059564D01*
X61299063Y-36203727D01*
X61185795Y-36373245D01*
X61107774Y-36561603D01*
X61068000Y-36761562D01*
X60375000Y-36761562D01*
X60375000Y-31674062D01*
X61068000Y-31674062D01*
X61068000Y-31877940D01*
X61107774Y-32077899D01*
X61185795Y-32266257D01*
X61299063Y-32435775D01*
X61443226Y-32579938D01*
X61612744Y-32693206D01*
X61801102Y-32771227D01*
X62001061Y-32811001D01*
X62204939Y-32811001D01*
X62404898Y-32771227D01*
X62593256Y-32693206D01*
X62762774Y-32579938D01*
X62906937Y-32435775D01*
X63020205Y-32266257D01*
X63098226Y-32077899D01*
X63138000Y-31877940D01*
X63138000Y-31674062D01*
X63098226Y-31474103D01*
X63020205Y-31285745D01*
X62906937Y-31116227D01*
X62762774Y-30972064D01*
X62593256Y-30858796D01*
X62404898Y-30780775D01*
X62204939Y-30741001D01*
X62001061Y-30741001D01*
X61801102Y-30780775D01*
X61612744Y-30858796D01*
X61443226Y-30972064D01*
X61299063Y-31116227D01*
X61185795Y-31285745D01*
X61107774Y-31474103D01*
X61068000Y-31674062D01*
X60375000Y-31674062D01*
X60375000Y-28293772D01*
X60542136Y-28543909D01*
X61118091Y-29119864D01*
X61795343Y-29572389D01*
X62547865Y-29884094D01*
X63346738Y-30043000D01*
X64161262Y-30043000D01*
X64960135Y-29884094D01*
X65712657Y-29572389D01*
X66389909Y-29119864D01*
X66903576Y-28606197D01*
X70395407Y-28606197D01*
X70454685Y-28839812D01*
X70692874Y-28950559D01*
X70948092Y-29012711D01*
X71210532Y-29023876D01*
X71470106Y-28983629D01*
X71716841Y-28893514D01*
X71817313Y-28839812D01*
X71876591Y-28606197D01*
X71135999Y-27865605D01*
X70395407Y-28606197D01*
X66903576Y-28606197D01*
X66965864Y-28543909D01*
X67418389Y-27866657D01*
X67462347Y-27760533D01*
X69798123Y-27760533D01*
X69838370Y-28020107D01*
X69928485Y-28266842D01*
X69982187Y-28367314D01*
X70215802Y-28426592D01*
X70956394Y-27686000D01*
X70215802Y-26945408D01*
X69982187Y-27004686D01*
X69871440Y-27242875D01*
X69809288Y-27498093D01*
X69798123Y-27760533D01*
X67462347Y-27760533D01*
X67730094Y-27114135D01*
X67799381Y-26765803D01*
X70395407Y-26765803D01*
X71135999Y-27506395D01*
X71876591Y-26765803D01*
X71817313Y-26532188D01*
X71579124Y-26421441D01*
X71323906Y-26359289D01*
X71061466Y-26348124D01*
X70801892Y-26388371D01*
X70555157Y-26478486D01*
X70454685Y-26532188D01*
X70395407Y-26765803D01*
X67799381Y-26765803D01*
X67889000Y-26315262D01*
X67889000Y-25500738D01*
X67730094Y-24701865D01*
X67661416Y-24536061D01*
X68459999Y-24536061D01*
X68459999Y-24739939D01*
X68499773Y-24939898D01*
X68577794Y-25128256D01*
X68691062Y-25297774D01*
X68835225Y-25441937D01*
X69004743Y-25555205D01*
X69193101Y-25633226D01*
X69393060Y-25673000D01*
X69596938Y-25673000D01*
X69796897Y-25633226D01*
X69985255Y-25555205D01*
X70154773Y-25441937D01*
X70298936Y-25297774D01*
X70412204Y-25128256D01*
X70490225Y-24939898D01*
X70529999Y-24739939D01*
X70529999Y-24536061D01*
X71100999Y-24536061D01*
X71100999Y-24739939D01*
X71140773Y-24939898D01*
X71218794Y-25128256D01*
X71332062Y-25297774D01*
X71476225Y-25441937D01*
X71645743Y-25555205D01*
X71834101Y-25633226D01*
X72034060Y-25673000D01*
X72237938Y-25673000D01*
X72437897Y-25633226D01*
X72626255Y-25555205D01*
X72795773Y-25441937D01*
X72939936Y-25297774D01*
X73053204Y-25128256D01*
X73131225Y-24939898D01*
X73170999Y-24739939D01*
X73170999Y-24536061D01*
X73741999Y-24536061D01*
X73741999Y-24739939D01*
X73781773Y-24939898D01*
X73859794Y-25128256D01*
X73973062Y-25297774D01*
X74117225Y-25441937D01*
X74286743Y-25555205D01*
X74475101Y-25633226D01*
X74675060Y-25673000D01*
X74878938Y-25673000D01*
X75078897Y-25633226D01*
X75267255Y-25555205D01*
X75436773Y-25441937D01*
X75580936Y-25297774D01*
X75694204Y-25128256D01*
X75772225Y-24939898D01*
X75811999Y-24739939D01*
X75811999Y-24536061D01*
X75772225Y-24336102D01*
X75694204Y-24147744D01*
X75580936Y-23978226D01*
X75436773Y-23834063D01*
X75267255Y-23720795D01*
X75078897Y-23642774D01*
X74878938Y-23603000D01*
X74675060Y-23603000D01*
X74475101Y-23642774D01*
X74286743Y-23720795D01*
X74117225Y-23834063D01*
X73973062Y-23978226D01*
X73859794Y-24147744D01*
X73781773Y-24336102D01*
X73741999Y-24536061D01*
X73170999Y-24536061D01*
X73131225Y-24336102D01*
X73053204Y-24147744D01*
X72939936Y-23978226D01*
X72795773Y-23834063D01*
X72626255Y-23720795D01*
X72437897Y-23642774D01*
X72237938Y-23603000D01*
X72034060Y-23603000D01*
X71834101Y-23642774D01*
X71645743Y-23720795D01*
X71476225Y-23834063D01*
X71332062Y-23978226D01*
X71218794Y-24147744D01*
X71140773Y-24336102D01*
X71100999Y-24536061D01*
X70529999Y-24536061D01*
X70490225Y-24336102D01*
X70412204Y-24147744D01*
X70298936Y-23978226D01*
X70154773Y-23834063D01*
X69985255Y-23720795D01*
X69796897Y-23642774D01*
X69596938Y-23603000D01*
X69393060Y-23603000D01*
X69193101Y-23642774D01*
X69004743Y-23720795D01*
X68835225Y-23834063D01*
X68691062Y-23978226D01*
X68577794Y-24147744D01*
X68499773Y-24336102D01*
X68459999Y-24536061D01*
X67661416Y-24536061D01*
X67418389Y-23949343D01*
X66965864Y-23272091D01*
X66389909Y-22696136D01*
X66139772Y-22529000D01*
X78132228Y-22529000D01*
X77882091Y-22696136D01*
G37*
%TD.AperFunction*%
D22*
X79970205Y-75553008D02*
X79993999Y-75582001D01*
X80022992Y-75605795D01*
X80022996Y-75605799D01*
X80093685Y-75663811D01*
X80109724Y-75676974D01*
X80162009Y-75704921D01*
X80158188Y-75717518D01*
X80145928Y-75842000D01*
X80145928Y-76842000D01*
X80158188Y-76966482D01*
X80194498Y-77086180D01*
X80253463Y-77196494D01*
X80332815Y-77293185D01*
X80429506Y-77372537D01*
X80539820Y-77431502D01*
X80659518Y-77467812D01*
X80784000Y-77480072D01*
X82177001Y-77480072D01*
X82177001Y-79604636D01*
X81819750Y-79607000D01*
X81661000Y-79765750D01*
X81661000Y-80615000D01*
X81681000Y-80615000D01*
X81681000Y-80869000D01*
X81661000Y-80869000D01*
X81661000Y-80889000D01*
X81407000Y-80889000D01*
X81407000Y-80869000D01*
X81387000Y-80869000D01*
X81387000Y-80615000D01*
X81407000Y-80615000D01*
X81407000Y-79765750D01*
X81248250Y-79607000D01*
X80784000Y-79603928D01*
X80659518Y-79616188D01*
X80539820Y-79652498D01*
X80429506Y-79711463D01*
X80332815Y-79790815D01*
X80253463Y-79887506D01*
X80194498Y-79997820D01*
X80158188Y-80117518D01*
X80145928Y-80242000D01*
X80149000Y-80456250D01*
X80307748Y-80614998D01*
X80181800Y-80614998D01*
X80081804Y-80515002D01*
X80058001Y-80485999D01*
X79942276Y-80391026D01*
X79810247Y-80320454D01*
X79666986Y-80276997D01*
X79555333Y-80266000D01*
X79555322Y-80266000D01*
X79518000Y-80262324D01*
X79480678Y-80266000D01*
X78176983Y-80266000D01*
X78214853Y-80174574D01*
X78270000Y-79897335D01*
X78270000Y-79614665D01*
X78214853Y-79337426D01*
X78106680Y-79076273D01*
X77949637Y-78841241D01*
X77749759Y-78641363D01*
X77517241Y-78486000D01*
X77749759Y-78330637D01*
X77949637Y-78130759D01*
X78106680Y-77895727D01*
X78214853Y-77634574D01*
X78270000Y-77357335D01*
X78270000Y-77074665D01*
X78214853Y-76797426D01*
X78106680Y-76536273D01*
X77949637Y-76301241D01*
X77749759Y-76101363D01*
X77517241Y-75946000D01*
X77749759Y-75790637D01*
X77949637Y-75590759D01*
X78106680Y-75355727D01*
X78214853Y-75094574D01*
X78270000Y-74817335D01*
X78270000Y-74534665D01*
X78214853Y-74257426D01*
X78176983Y-74166000D01*
X78583199Y-74166000D01*
X79970205Y-75553008D01*
%TA.AperFunction,Conductor*%
D23*
G36*
X79970205Y-75553008D02*
G01*
X79993999Y-75582001D01*
X80022992Y-75605795D01*
X80022996Y-75605799D01*
X80093685Y-75663811D01*
X80109724Y-75676974D01*
X80162009Y-75704921D01*
X80158188Y-75717518D01*
X80145928Y-75842000D01*
X80145928Y-76842000D01*
X80158188Y-76966482D01*
X80194498Y-77086180D01*
X80253463Y-77196494D01*
X80332815Y-77293185D01*
X80429506Y-77372537D01*
X80539820Y-77431502D01*
X80659518Y-77467812D01*
X80784000Y-77480072D01*
X82177001Y-77480072D01*
X82177001Y-79604636D01*
X81819750Y-79607000D01*
X81661000Y-79765750D01*
X81661000Y-80615000D01*
X81681000Y-80615000D01*
X81681000Y-80869000D01*
X81661000Y-80869000D01*
X81661000Y-80889000D01*
X81407000Y-80889000D01*
X81407000Y-80869000D01*
X81387000Y-80869000D01*
X81387000Y-80615000D01*
X81407000Y-80615000D01*
X81407000Y-79765750D01*
X81248250Y-79607000D01*
X80784000Y-79603928D01*
X80659518Y-79616188D01*
X80539820Y-79652498D01*
X80429506Y-79711463D01*
X80332815Y-79790815D01*
X80253463Y-79887506D01*
X80194498Y-79997820D01*
X80158188Y-80117518D01*
X80145928Y-80242000D01*
X80149000Y-80456250D01*
X80307748Y-80614998D01*
X80181800Y-80614998D01*
X80081804Y-80515002D01*
X80058001Y-80485999D01*
X79942276Y-80391026D01*
X79810247Y-80320454D01*
X79666986Y-80276997D01*
X79555333Y-80266000D01*
X79555322Y-80266000D01*
X79518000Y-80262324D01*
X79480678Y-80266000D01*
X78176983Y-80266000D01*
X78214853Y-80174574D01*
X78270000Y-79897335D01*
X78270000Y-79614665D01*
X78214853Y-79337426D01*
X78106680Y-79076273D01*
X77949637Y-78841241D01*
X77749759Y-78641363D01*
X77517241Y-78486000D01*
X77749759Y-78330637D01*
X77949637Y-78130759D01*
X78106680Y-77895727D01*
X78214853Y-77634574D01*
X78270000Y-77357335D01*
X78270000Y-77074665D01*
X78214853Y-76797426D01*
X78106680Y-76536273D01*
X77949637Y-76301241D01*
X77749759Y-76101363D01*
X77517241Y-75946000D01*
X77749759Y-75790637D01*
X77949637Y-75590759D01*
X78106680Y-75355727D01*
X78214853Y-75094574D01*
X78270000Y-74817335D01*
X78270000Y-74534665D01*
X78214853Y-74257426D01*
X78176983Y-74166000D01*
X78583199Y-74166000D01*
X79970205Y-75553008D01*
G37*
%TD.AperFunction*%
D22*
X79970201Y-68553003D02*
X79993999Y-68582001D01*
X80109724Y-68676974D01*
X80162009Y-68704921D01*
X80158188Y-68717518D01*
X80145928Y-68842000D01*
X80145928Y-69842000D01*
X80158188Y-69966482D01*
X80194498Y-70086180D01*
X80253463Y-70196494D01*
X80332815Y-70293185D01*
X80429506Y-70372537D01*
X80539820Y-70431502D01*
X80659518Y-70467812D01*
X80784000Y-70480072D01*
X82177000Y-70480072D01*
X82177000Y-72604636D01*
X81819750Y-72607000D01*
X81661000Y-72765750D01*
X81661000Y-73615000D01*
X81681000Y-73615000D01*
X81681000Y-73869000D01*
X81661000Y-73869000D01*
X81661000Y-73889000D01*
X81407000Y-73889000D01*
X81407000Y-73869000D01*
X81387000Y-73869000D01*
X81387000Y-73615000D01*
X81407000Y-73615000D01*
X81407000Y-72765750D01*
X81248250Y-72607000D01*
X80784000Y-72603928D01*
X80659518Y-72616188D01*
X80539820Y-72652498D01*
X80429506Y-72711463D01*
X80332815Y-72790815D01*
X80253463Y-72887506D01*
X80194498Y-72997820D01*
X80158188Y-73117518D01*
X80145928Y-73242000D01*
X80149000Y-73456250D01*
X80307748Y-73614998D01*
X80181800Y-73614998D01*
X79461803Y-72895002D01*
X79438001Y-72865999D01*
X79322276Y-72771026D01*
X79190247Y-72700454D01*
X79046986Y-72656997D01*
X78935333Y-72646000D01*
X78935322Y-72646000D01*
X78898000Y-72642324D01*
X78860678Y-72646000D01*
X78176983Y-72646000D01*
X78214853Y-72554574D01*
X78270000Y-72277335D01*
X78270000Y-71994665D01*
X78214853Y-71717426D01*
X78106680Y-71456273D01*
X77949637Y-71221241D01*
X77749759Y-71021363D01*
X77517241Y-70866000D01*
X77749759Y-70710637D01*
X77949637Y-70510759D01*
X78106680Y-70275727D01*
X78214853Y-70014574D01*
X78270000Y-69737335D01*
X78270000Y-69454665D01*
X78214853Y-69177426D01*
X78106680Y-68916273D01*
X77949637Y-68681241D01*
X77749759Y-68481363D01*
X77517241Y-68326000D01*
X77749759Y-68170637D01*
X77949637Y-67970759D01*
X78106680Y-67735727D01*
X78214853Y-67474574D01*
X78270000Y-67197335D01*
X78270000Y-66914665D01*
X78254639Y-66837440D01*
X79970201Y-68553003D01*
%TA.AperFunction,Conductor*%
D23*
G36*
X79970201Y-68553003D02*
G01*
X79993999Y-68582001D01*
X80109724Y-68676974D01*
X80162009Y-68704921D01*
X80158188Y-68717518D01*
X80145928Y-68842000D01*
X80145928Y-69842000D01*
X80158188Y-69966482D01*
X80194498Y-70086180D01*
X80253463Y-70196494D01*
X80332815Y-70293185D01*
X80429506Y-70372537D01*
X80539820Y-70431502D01*
X80659518Y-70467812D01*
X80784000Y-70480072D01*
X82177000Y-70480072D01*
X82177000Y-72604636D01*
X81819750Y-72607000D01*
X81661000Y-72765750D01*
X81661000Y-73615000D01*
X81681000Y-73615000D01*
X81681000Y-73869000D01*
X81661000Y-73869000D01*
X81661000Y-73889000D01*
X81407000Y-73889000D01*
X81407000Y-73869000D01*
X81387000Y-73869000D01*
X81387000Y-73615000D01*
X81407000Y-73615000D01*
X81407000Y-72765750D01*
X81248250Y-72607000D01*
X80784000Y-72603928D01*
X80659518Y-72616188D01*
X80539820Y-72652498D01*
X80429506Y-72711463D01*
X80332815Y-72790815D01*
X80253463Y-72887506D01*
X80194498Y-72997820D01*
X80158188Y-73117518D01*
X80145928Y-73242000D01*
X80149000Y-73456250D01*
X80307748Y-73614998D01*
X80181800Y-73614998D01*
X79461803Y-72895002D01*
X79438001Y-72865999D01*
X79322276Y-72771026D01*
X79190247Y-72700454D01*
X79046986Y-72656997D01*
X78935333Y-72646000D01*
X78935322Y-72646000D01*
X78898000Y-72642324D01*
X78860678Y-72646000D01*
X78176983Y-72646000D01*
X78214853Y-72554574D01*
X78270000Y-72277335D01*
X78270000Y-71994665D01*
X78214853Y-71717426D01*
X78106680Y-71456273D01*
X77949637Y-71221241D01*
X77749759Y-71021363D01*
X77517241Y-70866000D01*
X77749759Y-70710637D01*
X77949637Y-70510759D01*
X78106680Y-70275727D01*
X78214853Y-70014574D01*
X78270000Y-69737335D01*
X78270000Y-69454665D01*
X78214853Y-69177426D01*
X78106680Y-68916273D01*
X77949637Y-68681241D01*
X77749759Y-68481363D01*
X77517241Y-68326000D01*
X77749759Y-68170637D01*
X77949637Y-67970759D01*
X78106680Y-67735727D01*
X78214853Y-67474574D01*
X78270000Y-67197335D01*
X78270000Y-66914665D01*
X78254639Y-66837440D01*
X79970201Y-68553003D01*
G37*
%TD.AperFunction*%
D22*
X77859595Y-63212887D02*
X77970038Y-63347462D01*
X78104613Y-63457905D01*
X78258149Y-63539972D01*
X78424745Y-63590508D01*
X78597999Y-63607572D01*
X79898001Y-63607572D01*
X80071255Y-63590508D01*
X80237851Y-63539972D01*
X80391387Y-63457905D01*
X80410767Y-63442000D01*
X82177000Y-63442000D01*
X82177000Y-65604636D01*
X81819750Y-65607000D01*
X81661000Y-65765750D01*
X81661000Y-66615000D01*
X81681000Y-66615000D01*
X81681000Y-66869000D01*
X81661000Y-66869000D01*
X81661000Y-66889000D01*
X81407000Y-66889000D01*
X81407000Y-66869000D01*
X81387000Y-66869000D01*
X81387000Y-66615000D01*
X81407000Y-66615000D01*
X81407000Y-65765750D01*
X81248250Y-65607000D01*
X80784000Y-65603928D01*
X80659518Y-65616188D01*
X80539820Y-65652498D01*
X80429506Y-65711463D01*
X80332815Y-65790815D01*
X80253463Y-65887506D01*
X80194498Y-65997820D01*
X80158188Y-66117518D01*
X80145928Y-66242000D01*
X80149000Y-66456250D01*
X80307748Y-66614998D01*
X80181800Y-66614998D01*
X78841804Y-65275003D01*
X78818001Y-65245999D01*
X78702276Y-65151026D01*
X78570247Y-65080454D01*
X78426986Y-65036997D01*
X78315333Y-65026000D01*
X78315322Y-65026000D01*
X78278000Y-65022324D01*
X78240678Y-65026000D01*
X78176983Y-65026000D01*
X78214853Y-64934574D01*
X78270000Y-64657335D01*
X78270000Y-64374665D01*
X78214853Y-64097426D01*
X78106680Y-63836273D01*
X77949637Y-63601241D01*
X77749759Y-63401363D01*
X77517241Y-63246000D01*
X77719284Y-63111000D01*
X77805135Y-63111000D01*
X77859595Y-63212887D01*
%TA.AperFunction,Conductor*%
D23*
G36*
X77859595Y-63212887D02*
G01*
X77970038Y-63347462D01*
X78104613Y-63457905D01*
X78258149Y-63539972D01*
X78424745Y-63590508D01*
X78597999Y-63607572D01*
X79898001Y-63607572D01*
X80071255Y-63590508D01*
X80237851Y-63539972D01*
X80391387Y-63457905D01*
X80410767Y-63442000D01*
X82177000Y-63442000D01*
X82177000Y-65604636D01*
X81819750Y-65607000D01*
X81661000Y-65765750D01*
X81661000Y-66615000D01*
X81681000Y-66615000D01*
X81681000Y-66869000D01*
X81661000Y-66869000D01*
X81661000Y-66889000D01*
X81407000Y-66889000D01*
X81407000Y-66869000D01*
X81387000Y-66869000D01*
X81387000Y-66615000D01*
X81407000Y-66615000D01*
X81407000Y-65765750D01*
X81248250Y-65607000D01*
X80784000Y-65603928D01*
X80659518Y-65616188D01*
X80539820Y-65652498D01*
X80429506Y-65711463D01*
X80332815Y-65790815D01*
X80253463Y-65887506D01*
X80194498Y-65997820D01*
X80158188Y-66117518D01*
X80145928Y-66242000D01*
X80149000Y-66456250D01*
X80307748Y-66614998D01*
X80181800Y-66614998D01*
X78841804Y-65275003D01*
X78818001Y-65245999D01*
X78702276Y-65151026D01*
X78570247Y-65080454D01*
X78426986Y-65036997D01*
X78315333Y-65026000D01*
X78315322Y-65026000D01*
X78278000Y-65022324D01*
X78240678Y-65026000D01*
X78176983Y-65026000D01*
X78214853Y-64934574D01*
X78270000Y-64657335D01*
X78270000Y-64374665D01*
X78214853Y-64097426D01*
X78106680Y-63836273D01*
X77949637Y-63601241D01*
X77749759Y-63401363D01*
X77517241Y-63246000D01*
X77719284Y-63111000D01*
X77805135Y-63111000D01*
X77859595Y-63212887D01*
G37*
%TD.AperFunction*%
D22*
X76962000Y-59309000D02*
X76982000Y-59309000D01*
X76982000Y-59563000D01*
X76962000Y-59563000D01*
X76962000Y-59583000D01*
X76835000Y-59583000D01*
X76835000Y-59289000D01*
X76962000Y-59289000D01*
X76962000Y-59309000D01*
%TA.AperFunction,Conductor*%
D23*
G36*
X76962000Y-59309000D02*
G01*
X76982000Y-59309000D01*
X76982000Y-59563000D01*
X76962000Y-59563000D01*
X76962000Y-59583000D01*
X76835000Y-59583000D01*
X76835000Y-59289000D01*
X76962000Y-59289000D01*
X76962000Y-59309000D01*
G37*
%TD.AperFunction*%
D22*
X73014525Y-41332632D02*
X73221368Y-41539475D01*
X73403534Y-41661195D01*
X73286645Y-41730822D01*
X73070412Y-41925731D01*
X72896359Y-42159080D01*
X72771175Y-42421901D01*
X72726524Y-42569110D01*
X72847845Y-42799000D01*
X74041000Y-42799000D01*
X74041000Y-42779000D01*
X74295000Y-42779000D01*
X74295000Y-42799000D01*
X74315000Y-42799000D01*
X74315000Y-43053000D01*
X74295000Y-43053000D01*
X74295000Y-43073000D01*
X74041000Y-43073000D01*
X74041000Y-43053000D01*
X72847845Y-43053000D01*
X72726524Y-43282890D01*
X72771175Y-43430099D01*
X72896359Y-43692920D01*
X73070412Y-43926269D01*
X73154466Y-44002034D01*
X73073820Y-44026498D01*
X72963506Y-44085463D01*
X72866815Y-44164815D01*
X72787463Y-44261506D01*
X72728498Y-44371820D01*
X72692188Y-44491518D01*
X72683375Y-44581000D01*
X71842625Y-44581000D01*
X71833812Y-44491518D01*
X71797502Y-44371820D01*
X71738537Y-44261506D01*
X71659185Y-44164815D01*
X71562494Y-44085463D01*
X71452180Y-44026498D01*
X71371534Y-44002034D01*
X71455588Y-43926269D01*
X71629641Y-43692920D01*
X71754825Y-43430099D01*
X71799476Y-43282890D01*
X71678155Y-43053000D01*
X70485000Y-43053000D01*
X70485000Y-43073000D01*
X70231000Y-43073000D01*
X70231000Y-43053000D01*
X70211000Y-43053000D01*
X70211000Y-42799000D01*
X70231000Y-42799000D01*
X70231000Y-42779000D01*
X70485000Y-42779000D01*
X70485000Y-42799000D01*
X71678155Y-42799000D01*
X71799476Y-42569110D01*
X71754825Y-42421901D01*
X71629641Y-42159080D01*
X71455588Y-41925731D01*
X71239355Y-41730822D01*
X71122466Y-41661195D01*
X71304632Y-41539475D01*
X71511475Y-41332632D01*
X71552656Y-41271000D01*
X72973344Y-41271000D01*
X73014525Y-41332632D01*
%TA.AperFunction,Conductor*%
D23*
G36*
X73014525Y-41332632D02*
G01*
X73221368Y-41539475D01*
X73403534Y-41661195D01*
X73286645Y-41730822D01*
X73070412Y-41925731D01*
X72896359Y-42159080D01*
X72771175Y-42421901D01*
X72726524Y-42569110D01*
X72847845Y-42799000D01*
X74041000Y-42799000D01*
X74041000Y-42779000D01*
X74295000Y-42779000D01*
X74295000Y-42799000D01*
X74315000Y-42799000D01*
X74315000Y-43053000D01*
X74295000Y-43053000D01*
X74295000Y-43073000D01*
X74041000Y-43073000D01*
X74041000Y-43053000D01*
X72847845Y-43053000D01*
X72726524Y-43282890D01*
X72771175Y-43430099D01*
X72896359Y-43692920D01*
X73070412Y-43926269D01*
X73154466Y-44002034D01*
X73073820Y-44026498D01*
X72963506Y-44085463D01*
X72866815Y-44164815D01*
X72787463Y-44261506D01*
X72728498Y-44371820D01*
X72692188Y-44491518D01*
X72683375Y-44581000D01*
X71842625Y-44581000D01*
X71833812Y-44491518D01*
X71797502Y-44371820D01*
X71738537Y-44261506D01*
X71659185Y-44164815D01*
X71562494Y-44085463D01*
X71452180Y-44026498D01*
X71371534Y-44002034D01*
X71455588Y-43926269D01*
X71629641Y-43692920D01*
X71754825Y-43430099D01*
X71799476Y-43282890D01*
X71678155Y-43053000D01*
X70485000Y-43053000D01*
X70485000Y-43073000D01*
X70231000Y-43073000D01*
X70231000Y-43053000D01*
X70211000Y-43053000D01*
X70211000Y-42799000D01*
X70231000Y-42799000D01*
X70231000Y-42779000D01*
X70485000Y-42779000D01*
X70485000Y-42799000D01*
X71678155Y-42799000D01*
X71799476Y-42569110D01*
X71754825Y-42421901D01*
X71629641Y-42159080D01*
X71455588Y-41925731D01*
X71239355Y-41730822D01*
X71122466Y-41661195D01*
X71304632Y-41539475D01*
X71511475Y-41332632D01*
X71552656Y-41271000D01*
X72973344Y-41271000D01*
X73014525Y-41332632D01*
G37*
%TD.AperFunction*%
M02*
