%TF.GenerationSoftware,KiCad,Pcbnew,5.1.10*%
%TF.CreationDate,2021-12-13T09:12:35+01:00*%
%TF.ProjectId,serialization_board,73657269-616c-4697-9a61-74696f6e5f62,rev?*%
%TF.SameCoordinates,Original*%
%TF.FileFunction,Copper,L2,Bot*%
%TF.FilePolarity,Positive*%
%FSLAX46Y46*%
G04 Gerber Fmt 4.6, Leading zero omitted, Abs format (unit mm)*
G04 Created by KiCad (PCBNEW 5.1.10) date 2021-12-13 09:12:35*
%MOMM*%
%LPD*%
G01*
G04 APERTURE LIST*
%TA.AperFunction,ComponentPad*%
%ADD10O,1.700000X1.700000*%
%TD*%
%TA.AperFunction,ComponentPad*%
%ADD11R,1.700000X1.700000*%
%TD*%
%TA.AperFunction,ComponentPad*%
%ADD12C,1.397000*%
%TD*%
%TA.AperFunction,ComponentPad*%
%ADD13C,7.000000*%
%TD*%
%TA.AperFunction,ComponentPad*%
%ADD14O,1.600000X1.600000*%
%TD*%
%TA.AperFunction,ComponentPad*%
%ADD15R,1.600000X1.600000*%
%TD*%
%TA.AperFunction,ComponentPad*%
%ADD16C,1.524000*%
%TD*%
%TA.AperFunction,ViaPad*%
%ADD17C,0.800000*%
%TD*%
%TA.AperFunction,Conductor*%
%ADD18C,0.250000*%
%TD*%
%TA.AperFunction,Conductor*%
%ADD19C,0.254000*%
%TD*%
%TA.AperFunction,Conductor*%
%ADD20C,0.100000*%
%TD*%
G04 APERTURE END LIST*
D10*
X74168000Y-34183000D03*
D11*
X74168000Y-31643000D03*
D10*
X70485000Y-34163000D03*
D11*
X70485000Y-31623000D03*
D10*
X70358000Y-37846000D03*
X70358000Y-40386000D03*
X70358000Y-42926000D03*
D11*
X70358000Y-45466000D03*
D10*
X74168000Y-37846000D03*
X74168000Y-40386000D03*
X74168000Y-42926000D03*
D11*
X74168000Y-45466000D03*
D12*
X65405000Y-33400999D03*
X65405000Y-35401001D03*
X65405000Y-82295999D03*
X65405000Y-84296001D03*
D13*
X80518000Y-25908000D03*
X80518000Y-91694000D03*
X63754000Y-91694000D03*
X63754000Y-25908000D03*
D12*
X65405000Y-68325999D03*
X65405000Y-70326001D03*
D14*
X69215000Y-82296000D03*
X76835000Y-49276000D03*
X69215000Y-79756000D03*
X76835000Y-51816000D03*
X69215000Y-77216000D03*
X76835000Y-54356000D03*
X69215000Y-74676000D03*
X76835000Y-56896000D03*
X69215000Y-72136000D03*
X76835000Y-59436000D03*
X69215000Y-69596000D03*
X76835000Y-61976000D03*
X69215000Y-67056000D03*
X76835000Y-64516000D03*
X69215000Y-64516000D03*
X76835000Y-67056000D03*
X69215000Y-61976000D03*
X76835000Y-69596000D03*
X69215000Y-59436000D03*
X76835000Y-72136000D03*
X69215000Y-56896000D03*
X76835000Y-74676000D03*
X69215000Y-54356000D03*
X76835000Y-77216000D03*
X69215000Y-51816000D03*
X76835000Y-79756000D03*
X69215000Y-49276000D03*
D15*
X76835000Y-82296000D03*
D12*
X65405000Y-40386000D03*
X65405000Y-42386002D03*
X65405000Y-75310999D03*
X65405000Y-77311001D03*
X65405000Y-61340999D03*
X65405000Y-63341001D03*
X65405000Y-54355999D03*
X65405000Y-56356001D03*
X65405000Y-47370999D03*
X65405000Y-49371001D03*
X78740000Y-45212000D03*
X78740000Y-43211998D03*
D16*
X79756000Y-38354000D03*
X79756000Y-36303999D03*
X79756000Y-34254001D03*
X79756000Y-32204000D03*
D12*
X73136001Y-27686000D03*
X71135999Y-27686000D03*
D17*
X69494999Y-89916000D03*
X74776999Y-89916000D03*
X72135999Y-89916000D03*
X68072000Y-86106000D03*
X62738000Y-86106000D03*
X69494999Y-24638000D03*
X74776999Y-24638000D03*
X72135999Y-24638000D03*
X62103000Y-82651001D03*
X62103000Y-77563501D03*
X62103000Y-72476001D03*
X62103000Y-62301001D03*
X62103000Y-67388501D03*
X62103000Y-57213501D03*
X62103000Y-52126001D03*
X62103000Y-47038501D03*
X62103000Y-41951001D03*
X62103000Y-31776001D03*
X62103000Y-36863501D03*
X69494999Y-93218000D03*
X72135999Y-93218000D03*
X74776999Y-93218000D03*
X82042000Y-86106000D03*
X76708000Y-86106000D03*
X72263000Y-86106000D03*
X79502000Y-78232000D03*
X79502000Y-70612000D03*
X80010000Y-64516000D03*
X81280000Y-57404000D03*
X81026000Y-42164000D03*
X81661000Y-46355000D03*
X81661000Y-52578000D03*
X76962000Y-32893000D03*
X72263000Y-36068000D03*
X67945000Y-34163000D03*
X72263000Y-29591000D03*
X67945000Y-29591000D03*
X75946000Y-27686000D03*
X65405000Y-79883000D03*
X72136000Y-60960000D03*
X73406000Y-60960000D03*
X74676000Y-60960000D03*
D18*
X69215000Y-56896000D02*
X70993000Y-58674000D01*
X70993000Y-58674000D02*
X70993000Y-61468000D01*
X71501000Y-61976000D02*
X76835000Y-61976000D01*
X70993000Y-61468000D02*
X71501000Y-61976000D01*
X69215000Y-54356000D02*
X72136000Y-57277000D01*
X72136000Y-57277000D02*
X72136000Y-60960000D01*
X72136000Y-60960000D02*
X72136000Y-60960000D01*
X69215000Y-51816000D02*
X73406000Y-56007000D01*
X73406000Y-56007000D02*
X73406000Y-60960000D01*
X73406000Y-60960000D02*
X73406000Y-60960000D01*
X69215000Y-49276000D02*
X74676000Y-54737000D01*
X74676000Y-54737000D02*
X74676000Y-60960000D01*
X74676000Y-60960000D02*
X74676000Y-60960000D01*
X67898030Y-37894031D02*
X67898030Y-62564030D01*
X65405000Y-35401001D02*
X67898030Y-37894031D01*
X67898030Y-62564030D02*
X68580000Y-63246000D01*
X68580000Y-63246000D02*
X73660000Y-63246000D01*
X74930000Y-64516000D02*
X76835000Y-64516000D01*
X73660000Y-63246000D02*
X74930000Y-64516000D01*
X67448020Y-44429022D02*
X67448020Y-65162020D01*
X65405000Y-42386002D02*
X67448020Y-44429022D01*
X68216999Y-65930999D02*
X72788999Y-65930999D01*
X67448020Y-65162020D02*
X68216999Y-65930999D01*
X73914000Y-67056000D02*
X76835000Y-67056000D01*
X72788999Y-65930999D02*
X73914000Y-67056000D01*
X66428501Y-50394502D02*
X65405000Y-49371001D01*
X66428501Y-59824501D02*
X66428501Y-50394502D01*
X66998010Y-60394010D02*
X66428501Y-59824501D01*
X66998010Y-66741190D02*
X66998010Y-60394010D01*
X67760010Y-67506010D02*
X67760009Y-67503189D01*
X68580000Y-68326000D02*
X67760010Y-67506010D01*
X67760009Y-67503189D02*
X66998010Y-66741190D01*
X73025000Y-68326000D02*
X68580000Y-68326000D01*
X74295000Y-69596000D02*
X73025000Y-68326000D01*
X76835000Y-69596000D02*
X74295000Y-69596000D01*
X65405000Y-59436000D02*
X65405000Y-56356001D01*
X66548000Y-60969217D02*
X65896281Y-60317498D01*
X65405000Y-59817000D02*
X65405000Y-59436000D01*
X66548000Y-66927590D02*
X66548000Y-60969217D01*
X65896281Y-60317498D02*
X65896281Y-60308281D01*
X67310000Y-69596000D02*
X67310000Y-67689590D01*
X68724999Y-71010999D02*
X67310000Y-69596000D01*
X67310000Y-67689590D02*
X66548000Y-66927590D01*
X73169999Y-71010999D02*
X68724999Y-71010999D01*
X65896281Y-60308281D02*
X65405000Y-59817000D01*
X74295000Y-72136000D02*
X73169999Y-71010999D01*
X76835000Y-72136000D02*
X74295000Y-72136000D01*
X65405000Y-63341001D02*
X65405000Y-66421000D01*
X65405000Y-66421000D02*
X66675000Y-67691000D01*
X66675000Y-67691000D02*
X66675000Y-72771000D01*
X67454999Y-73550999D02*
X71899999Y-73550999D01*
X66675000Y-72771000D02*
X67454999Y-73550999D01*
X73025000Y-74676000D02*
X76835000Y-74676000D01*
X71899999Y-73550999D02*
X73025000Y-74676000D01*
X68964997Y-76090999D02*
X72534999Y-76090999D01*
X65405000Y-72531002D02*
X68964997Y-76090999D01*
X65405000Y-70326001D02*
X65405000Y-72531002D01*
X73660000Y-77216000D02*
X76835000Y-77216000D01*
X72534999Y-76090999D02*
X73660000Y-77216000D01*
X66435000Y-78341001D02*
X70975001Y-78341001D01*
X65405000Y-77311001D02*
X66435000Y-78341001D01*
X72390000Y-79756000D02*
X76835000Y-79756000D01*
X70975001Y-78341001D02*
X72390000Y-79756000D01*
X74834999Y-84296001D02*
X76835000Y-82296000D01*
X65405000Y-84296001D02*
X74834999Y-84296001D01*
D19*
X77882091Y-22696136D02*
X77306136Y-23272091D01*
X76853611Y-23949343D01*
X76541906Y-24701865D01*
X76383000Y-25500738D01*
X76383000Y-26315262D01*
X76541906Y-27114135D01*
X76853611Y-27866657D01*
X77306136Y-28543909D01*
X77882091Y-29119864D01*
X78559343Y-29572389D01*
X79311865Y-29884094D01*
X80110738Y-30043000D01*
X80925262Y-30043000D01*
X81724135Y-29884094D01*
X82476657Y-29572389D01*
X83153909Y-29119864D01*
X83729864Y-28543909D01*
X83897000Y-28293772D01*
X83897001Y-89308229D01*
X83729864Y-89058091D01*
X83153909Y-88482136D01*
X82476657Y-88029611D01*
X81724135Y-87717906D01*
X80925262Y-87559000D01*
X80110738Y-87559000D01*
X79311865Y-87717906D01*
X78559343Y-88029611D01*
X77882091Y-88482136D01*
X77306136Y-89058091D01*
X76853611Y-89735343D01*
X76541906Y-90487865D01*
X76383000Y-91286738D01*
X76383000Y-92101262D01*
X76541906Y-92900135D01*
X76853611Y-93652657D01*
X77306136Y-94329909D01*
X77882091Y-94905864D01*
X78512366Y-95327000D01*
X65759634Y-95327000D01*
X66389909Y-94905864D01*
X66965864Y-94329909D01*
X67418389Y-93652657D01*
X67730094Y-92900135D01*
X67889000Y-92101262D01*
X67889000Y-91286738D01*
X67730094Y-90487865D01*
X67450996Y-89814061D01*
X68459999Y-89814061D01*
X68459999Y-90017939D01*
X68499773Y-90217898D01*
X68577794Y-90406256D01*
X68691062Y-90575774D01*
X68835225Y-90719937D01*
X69004743Y-90833205D01*
X69193101Y-90911226D01*
X69393060Y-90951000D01*
X69596938Y-90951000D01*
X69796897Y-90911226D01*
X69985255Y-90833205D01*
X70154773Y-90719937D01*
X70298936Y-90575774D01*
X70412204Y-90406256D01*
X70490225Y-90217898D01*
X70529999Y-90017939D01*
X70529999Y-89814061D01*
X71100999Y-89814061D01*
X71100999Y-90017939D01*
X71140773Y-90217898D01*
X71218794Y-90406256D01*
X71332062Y-90575774D01*
X71476225Y-90719937D01*
X71645743Y-90833205D01*
X71834101Y-90911226D01*
X72034060Y-90951000D01*
X72237938Y-90951000D01*
X72437897Y-90911226D01*
X72626255Y-90833205D01*
X72795773Y-90719937D01*
X72939936Y-90575774D01*
X73053204Y-90406256D01*
X73131225Y-90217898D01*
X73170999Y-90017939D01*
X73170999Y-89814061D01*
X73741999Y-89814061D01*
X73741999Y-90017939D01*
X73781773Y-90217898D01*
X73859794Y-90406256D01*
X73973062Y-90575774D01*
X74117225Y-90719937D01*
X74286743Y-90833205D01*
X74475101Y-90911226D01*
X74675060Y-90951000D01*
X74878938Y-90951000D01*
X75078897Y-90911226D01*
X75267255Y-90833205D01*
X75436773Y-90719937D01*
X75580936Y-90575774D01*
X75694204Y-90406256D01*
X75772225Y-90217898D01*
X75811999Y-90017939D01*
X75811999Y-89814061D01*
X75772225Y-89614102D01*
X75694204Y-89425744D01*
X75580936Y-89256226D01*
X75436773Y-89112063D01*
X75267255Y-88998795D01*
X75078897Y-88920774D01*
X74878938Y-88881000D01*
X74675060Y-88881000D01*
X74475101Y-88920774D01*
X74286743Y-88998795D01*
X74117225Y-89112063D01*
X73973062Y-89256226D01*
X73859794Y-89425744D01*
X73781773Y-89614102D01*
X73741999Y-89814061D01*
X73170999Y-89814061D01*
X73131225Y-89614102D01*
X73053204Y-89425744D01*
X72939936Y-89256226D01*
X72795773Y-89112063D01*
X72626255Y-88998795D01*
X72437897Y-88920774D01*
X72237938Y-88881000D01*
X72034060Y-88881000D01*
X71834101Y-88920774D01*
X71645743Y-88998795D01*
X71476225Y-89112063D01*
X71332062Y-89256226D01*
X71218794Y-89425744D01*
X71140773Y-89614102D01*
X71100999Y-89814061D01*
X70529999Y-89814061D01*
X70490225Y-89614102D01*
X70412204Y-89425744D01*
X70298936Y-89256226D01*
X70154773Y-89112063D01*
X69985255Y-88998795D01*
X69796897Y-88920774D01*
X69596938Y-88881000D01*
X69393060Y-88881000D01*
X69193101Y-88920774D01*
X69004743Y-88998795D01*
X68835225Y-89112063D01*
X68691062Y-89256226D01*
X68577794Y-89425744D01*
X68499773Y-89614102D01*
X68459999Y-89814061D01*
X67450996Y-89814061D01*
X67418389Y-89735343D01*
X66965864Y-89058091D01*
X66389909Y-88482136D01*
X65712657Y-88029611D01*
X64960135Y-87717906D01*
X64161262Y-87559000D01*
X63346738Y-87559000D01*
X62547865Y-87717906D01*
X61795343Y-88029611D01*
X61118091Y-88482136D01*
X60542136Y-89058091D01*
X60375000Y-89308228D01*
X60375000Y-86004061D01*
X61703000Y-86004061D01*
X61703000Y-86207939D01*
X61742774Y-86407898D01*
X61820795Y-86596256D01*
X61934063Y-86765774D01*
X62078226Y-86909937D01*
X62247744Y-87023205D01*
X62436102Y-87101226D01*
X62636061Y-87141000D01*
X62839939Y-87141000D01*
X63039898Y-87101226D01*
X63228256Y-87023205D01*
X63397774Y-86909937D01*
X63541937Y-86765774D01*
X63655205Y-86596256D01*
X63733226Y-86407898D01*
X63773000Y-86207939D01*
X63773000Y-86004061D01*
X67037000Y-86004061D01*
X67037000Y-86207939D01*
X67076774Y-86407898D01*
X67154795Y-86596256D01*
X67268063Y-86765774D01*
X67412226Y-86909937D01*
X67581744Y-87023205D01*
X67770102Y-87101226D01*
X67970061Y-87141000D01*
X68173939Y-87141000D01*
X68373898Y-87101226D01*
X68562256Y-87023205D01*
X68731774Y-86909937D01*
X68875937Y-86765774D01*
X68989205Y-86596256D01*
X69067226Y-86407898D01*
X69107000Y-86207939D01*
X69107000Y-86004061D01*
X69067226Y-85804102D01*
X68989205Y-85615744D01*
X68875937Y-85446226D01*
X68731774Y-85302063D01*
X68562256Y-85188795D01*
X68373898Y-85110774D01*
X68173939Y-85071000D01*
X67970061Y-85071000D01*
X67770102Y-85110774D01*
X67581744Y-85188795D01*
X67412226Y-85302063D01*
X67268063Y-85446226D01*
X67154795Y-85615744D01*
X67076774Y-85804102D01*
X67037000Y-86004061D01*
X63773000Y-86004061D01*
X63733226Y-85804102D01*
X63655205Y-85615744D01*
X63541937Y-85446226D01*
X63397774Y-85302063D01*
X63228256Y-85188795D01*
X63039898Y-85110774D01*
X62839939Y-85071000D01*
X62636061Y-85071000D01*
X62436102Y-85110774D01*
X62247744Y-85188795D01*
X62078226Y-85302063D01*
X61934063Y-85446226D01*
X61820795Y-85615744D01*
X61742774Y-85804102D01*
X61703000Y-86004061D01*
X60375000Y-86004061D01*
X60375000Y-82549062D01*
X61068000Y-82549062D01*
X61068000Y-82752940D01*
X61107774Y-82952899D01*
X61185795Y-83141257D01*
X61299063Y-83310775D01*
X61443226Y-83454938D01*
X61612744Y-83568206D01*
X61801102Y-83646227D01*
X62001061Y-83686001D01*
X62204939Y-83686001D01*
X62404898Y-83646227D01*
X62593256Y-83568206D01*
X62762774Y-83454938D01*
X62906937Y-83310775D01*
X63020205Y-83141257D01*
X63098226Y-82952899D01*
X63138000Y-82752940D01*
X63138000Y-82549062D01*
X63098226Y-82349103D01*
X63020205Y-82160745D01*
X62906937Y-81991227D01*
X62762774Y-81847064D01*
X62593256Y-81733796D01*
X62404898Y-81655775D01*
X62204939Y-81616001D01*
X62001061Y-81616001D01*
X61801102Y-81655775D01*
X61612744Y-81733796D01*
X61443226Y-81847064D01*
X61299063Y-81991227D01*
X61185795Y-82160745D01*
X61107774Y-82349103D01*
X61068000Y-82549062D01*
X60375000Y-82549062D01*
X60375000Y-77461562D01*
X61068000Y-77461562D01*
X61068000Y-77665440D01*
X61107774Y-77865399D01*
X61185795Y-78053757D01*
X61299063Y-78223275D01*
X61443226Y-78367438D01*
X61612744Y-78480706D01*
X61801102Y-78558727D01*
X62001061Y-78598501D01*
X62204939Y-78598501D01*
X62404898Y-78558727D01*
X62593256Y-78480706D01*
X62762774Y-78367438D01*
X62906937Y-78223275D01*
X63020205Y-78053757D01*
X63098226Y-77865399D01*
X63138000Y-77665440D01*
X63138000Y-77461562D01*
X63098226Y-77261603D01*
X63020205Y-77073245D01*
X62906937Y-76903727D01*
X62762774Y-76759564D01*
X62593256Y-76646296D01*
X62404898Y-76568275D01*
X62204939Y-76528501D01*
X62001061Y-76528501D01*
X61801102Y-76568275D01*
X61612744Y-76646296D01*
X61443226Y-76759564D01*
X61299063Y-76903727D01*
X61185795Y-77073245D01*
X61107774Y-77261603D01*
X61068000Y-77461562D01*
X60375000Y-77461562D01*
X60375000Y-72374062D01*
X61068000Y-72374062D01*
X61068000Y-72577940D01*
X61107774Y-72777899D01*
X61185795Y-72966257D01*
X61299063Y-73135775D01*
X61443226Y-73279938D01*
X61612744Y-73393206D01*
X61801102Y-73471227D01*
X62001061Y-73511001D01*
X62204939Y-73511001D01*
X62404898Y-73471227D01*
X62593256Y-73393206D01*
X62762774Y-73279938D01*
X62906937Y-73135775D01*
X63020205Y-72966257D01*
X63098226Y-72777899D01*
X63138000Y-72577940D01*
X63138000Y-72374062D01*
X63098226Y-72174103D01*
X63020205Y-71985745D01*
X62906937Y-71816227D01*
X62762774Y-71672064D01*
X62593256Y-71558796D01*
X62404898Y-71480775D01*
X62204939Y-71441001D01*
X62001061Y-71441001D01*
X61801102Y-71480775D01*
X61612744Y-71558796D01*
X61443226Y-71672064D01*
X61299063Y-71816227D01*
X61185795Y-71985745D01*
X61107774Y-72174103D01*
X61068000Y-72374062D01*
X60375000Y-72374062D01*
X60375000Y-67286562D01*
X61068000Y-67286562D01*
X61068000Y-67490440D01*
X61107774Y-67690399D01*
X61185795Y-67878757D01*
X61299063Y-68048275D01*
X61443226Y-68192438D01*
X61612744Y-68305706D01*
X61801102Y-68383727D01*
X62001061Y-68423501D01*
X62204939Y-68423501D01*
X62404898Y-68383727D01*
X62593256Y-68305706D01*
X62762774Y-68192438D01*
X62906937Y-68048275D01*
X63020205Y-67878757D01*
X63098226Y-67690399D01*
X63138000Y-67490440D01*
X63138000Y-67286562D01*
X63098226Y-67086603D01*
X63020205Y-66898245D01*
X62906937Y-66728727D01*
X62762774Y-66584564D01*
X62593256Y-66471296D01*
X62404898Y-66393275D01*
X62204939Y-66353501D01*
X62001061Y-66353501D01*
X61801102Y-66393275D01*
X61612744Y-66471296D01*
X61443226Y-66584564D01*
X61299063Y-66728727D01*
X61185795Y-66898245D01*
X61107774Y-67086603D01*
X61068000Y-67286562D01*
X60375000Y-67286562D01*
X60375000Y-62199062D01*
X61068000Y-62199062D01*
X61068000Y-62402940D01*
X61107774Y-62602899D01*
X61185795Y-62791257D01*
X61299063Y-62960775D01*
X61443226Y-63104938D01*
X61612744Y-63218206D01*
X61801102Y-63296227D01*
X62001061Y-63336001D01*
X62204939Y-63336001D01*
X62404898Y-63296227D01*
X62593256Y-63218206D01*
X62762774Y-63104938D01*
X62906937Y-62960775D01*
X63020205Y-62791257D01*
X63098226Y-62602899D01*
X63138000Y-62402940D01*
X63138000Y-62199062D01*
X63098226Y-61999103D01*
X63020205Y-61810745D01*
X62906937Y-61641227D01*
X62762774Y-61497064D01*
X62593256Y-61383796D01*
X62404898Y-61305775D01*
X62204939Y-61266001D01*
X62001061Y-61266001D01*
X61801102Y-61305775D01*
X61612744Y-61383796D01*
X61443226Y-61497064D01*
X61299063Y-61641227D01*
X61185795Y-61810745D01*
X61107774Y-61999103D01*
X61068000Y-62199062D01*
X60375000Y-62199062D01*
X60375000Y-57111562D01*
X61068000Y-57111562D01*
X61068000Y-57315440D01*
X61107774Y-57515399D01*
X61185795Y-57703757D01*
X61299063Y-57873275D01*
X61443226Y-58017438D01*
X61612744Y-58130706D01*
X61801102Y-58208727D01*
X62001061Y-58248501D01*
X62204939Y-58248501D01*
X62404898Y-58208727D01*
X62593256Y-58130706D01*
X62762774Y-58017438D01*
X62906937Y-57873275D01*
X63020205Y-57703757D01*
X63098226Y-57515399D01*
X63138000Y-57315440D01*
X63138000Y-57111562D01*
X63098226Y-56911603D01*
X63020205Y-56723245D01*
X62906937Y-56553727D01*
X62762774Y-56409564D01*
X62593256Y-56296296D01*
X62404898Y-56218275D01*
X62204939Y-56178501D01*
X62001061Y-56178501D01*
X61801102Y-56218275D01*
X61612744Y-56296296D01*
X61443226Y-56409564D01*
X61299063Y-56553727D01*
X61185795Y-56723245D01*
X61107774Y-56911603D01*
X61068000Y-57111562D01*
X60375000Y-57111562D01*
X60375000Y-52024062D01*
X61068000Y-52024062D01*
X61068000Y-52227940D01*
X61107774Y-52427899D01*
X61185795Y-52616257D01*
X61299063Y-52785775D01*
X61443226Y-52929938D01*
X61612744Y-53043206D01*
X61801102Y-53121227D01*
X62001061Y-53161001D01*
X62204939Y-53161001D01*
X62404898Y-53121227D01*
X62593256Y-53043206D01*
X62762774Y-52929938D01*
X62906937Y-52785775D01*
X63020205Y-52616257D01*
X63098226Y-52427899D01*
X63138000Y-52227940D01*
X63138000Y-52024062D01*
X63098226Y-51824103D01*
X63020205Y-51635745D01*
X62906937Y-51466227D01*
X62762774Y-51322064D01*
X62593256Y-51208796D01*
X62404898Y-51130775D01*
X62204939Y-51091001D01*
X62001061Y-51091001D01*
X61801102Y-51130775D01*
X61612744Y-51208796D01*
X61443226Y-51322064D01*
X61299063Y-51466227D01*
X61185795Y-51635745D01*
X61107774Y-51824103D01*
X61068000Y-52024062D01*
X60375000Y-52024062D01*
X60375000Y-46936562D01*
X61068000Y-46936562D01*
X61068000Y-47140440D01*
X61107774Y-47340399D01*
X61185795Y-47528757D01*
X61299063Y-47698275D01*
X61443226Y-47842438D01*
X61612744Y-47955706D01*
X61801102Y-48033727D01*
X62001061Y-48073501D01*
X62204939Y-48073501D01*
X62404898Y-48033727D01*
X62593256Y-47955706D01*
X62762774Y-47842438D01*
X62906937Y-47698275D01*
X63020205Y-47528757D01*
X63098226Y-47340399D01*
X63138000Y-47140440D01*
X63138000Y-46936562D01*
X63098226Y-46736603D01*
X63020205Y-46548245D01*
X62906937Y-46378727D01*
X62762774Y-46234564D01*
X62593256Y-46121296D01*
X62404898Y-46043275D01*
X62204939Y-46003501D01*
X62001061Y-46003501D01*
X61801102Y-46043275D01*
X61612744Y-46121296D01*
X61443226Y-46234564D01*
X61299063Y-46378727D01*
X61185795Y-46548245D01*
X61107774Y-46736603D01*
X61068000Y-46936562D01*
X60375000Y-46936562D01*
X60375000Y-41849062D01*
X61068000Y-41849062D01*
X61068000Y-42052940D01*
X61107774Y-42252899D01*
X61185795Y-42441257D01*
X61299063Y-42610775D01*
X61443226Y-42754938D01*
X61612744Y-42868206D01*
X61801102Y-42946227D01*
X62001061Y-42986001D01*
X62204939Y-42986001D01*
X62404898Y-42946227D01*
X62593256Y-42868206D01*
X62762774Y-42754938D01*
X62906937Y-42610775D01*
X63020205Y-42441257D01*
X63098226Y-42252899D01*
X63138000Y-42052940D01*
X63138000Y-41849062D01*
X63098226Y-41649103D01*
X63020205Y-41460745D01*
X62906937Y-41291227D01*
X62762774Y-41147064D01*
X62593256Y-41033796D01*
X62404898Y-40955775D01*
X62204939Y-40916001D01*
X62001061Y-40916001D01*
X61801102Y-40955775D01*
X61612744Y-41033796D01*
X61443226Y-41147064D01*
X61299063Y-41291227D01*
X61185795Y-41460745D01*
X61107774Y-41649103D01*
X61068000Y-41849062D01*
X60375000Y-41849062D01*
X60375000Y-36761562D01*
X61068000Y-36761562D01*
X61068000Y-36965440D01*
X61107774Y-37165399D01*
X61185795Y-37353757D01*
X61299063Y-37523275D01*
X61443226Y-37667438D01*
X61612744Y-37780706D01*
X61801102Y-37858727D01*
X62001061Y-37898501D01*
X62204939Y-37898501D01*
X62404898Y-37858727D01*
X62593256Y-37780706D01*
X62762774Y-37667438D01*
X62906937Y-37523275D01*
X63020205Y-37353757D01*
X63098226Y-37165399D01*
X63138000Y-36965440D01*
X63138000Y-36761562D01*
X63098226Y-36561603D01*
X63020205Y-36373245D01*
X62906937Y-36203727D01*
X62762774Y-36059564D01*
X62593256Y-35946296D01*
X62404898Y-35868275D01*
X62204939Y-35828501D01*
X62001061Y-35828501D01*
X61801102Y-35868275D01*
X61612744Y-35946296D01*
X61443226Y-36059564D01*
X61299063Y-36203727D01*
X61185795Y-36373245D01*
X61107774Y-36561603D01*
X61068000Y-36761562D01*
X60375000Y-36761562D01*
X60375000Y-33269661D01*
X64071500Y-33269661D01*
X64071500Y-33532337D01*
X64122746Y-33789967D01*
X64223268Y-34032648D01*
X64369203Y-34251056D01*
X64519147Y-34401000D01*
X64369203Y-34550944D01*
X64223268Y-34769352D01*
X64122746Y-35012033D01*
X64071500Y-35269663D01*
X64071500Y-35532339D01*
X64122746Y-35789969D01*
X64223268Y-36032650D01*
X64369203Y-36251058D01*
X64554943Y-36436798D01*
X64773351Y-36582733D01*
X65016032Y-36683255D01*
X65273662Y-36734501D01*
X65536338Y-36734501D01*
X65642568Y-36713370D01*
X67138030Y-38208833D01*
X67138030Y-43044231D01*
X66717369Y-42623570D01*
X66738500Y-42517340D01*
X66738500Y-42254664D01*
X66687254Y-41997034D01*
X66586732Y-41754353D01*
X66440797Y-41535945D01*
X66290853Y-41386001D01*
X66440797Y-41236057D01*
X66586732Y-41017649D01*
X66687254Y-40774968D01*
X66738500Y-40517338D01*
X66738500Y-40254662D01*
X66687254Y-39997032D01*
X66586732Y-39754351D01*
X66440797Y-39535943D01*
X66255057Y-39350203D01*
X66036649Y-39204268D01*
X65793968Y-39103746D01*
X65536338Y-39052500D01*
X65273662Y-39052500D01*
X65016032Y-39103746D01*
X64773351Y-39204268D01*
X64554943Y-39350203D01*
X64369203Y-39535943D01*
X64223268Y-39754351D01*
X64122746Y-39997032D01*
X64071500Y-40254662D01*
X64071500Y-40517338D01*
X64122746Y-40774968D01*
X64223268Y-41017649D01*
X64369203Y-41236057D01*
X64519147Y-41386001D01*
X64369203Y-41535945D01*
X64223268Y-41754353D01*
X64122746Y-41997034D01*
X64071500Y-42254664D01*
X64071500Y-42517340D01*
X64122746Y-42774970D01*
X64223268Y-43017651D01*
X64369203Y-43236059D01*
X64554943Y-43421799D01*
X64773351Y-43567734D01*
X65016032Y-43668256D01*
X65273662Y-43719502D01*
X65536338Y-43719502D01*
X65642568Y-43698371D01*
X66688020Y-44743824D01*
X66688020Y-46985883D01*
X66687254Y-46982031D01*
X66586732Y-46739350D01*
X66440797Y-46520942D01*
X66255057Y-46335202D01*
X66036649Y-46189267D01*
X65793968Y-46088745D01*
X65536338Y-46037499D01*
X65273662Y-46037499D01*
X65016032Y-46088745D01*
X64773351Y-46189267D01*
X64554943Y-46335202D01*
X64369203Y-46520942D01*
X64223268Y-46739350D01*
X64122746Y-46982031D01*
X64071500Y-47239661D01*
X64071500Y-47502337D01*
X64122746Y-47759967D01*
X64223268Y-48002648D01*
X64369203Y-48221056D01*
X64519147Y-48371000D01*
X64369203Y-48520944D01*
X64223268Y-48739352D01*
X64122746Y-48982033D01*
X64071500Y-49239663D01*
X64071500Y-49502339D01*
X64122746Y-49759969D01*
X64223268Y-50002650D01*
X64369203Y-50221058D01*
X64554943Y-50406798D01*
X64773351Y-50552733D01*
X65016032Y-50653255D01*
X65273662Y-50704501D01*
X65536338Y-50704501D01*
X65642568Y-50683371D01*
X65668502Y-50709305D01*
X65668502Y-53048788D01*
X65536338Y-53022499D01*
X65273662Y-53022499D01*
X65016032Y-53073745D01*
X64773351Y-53174267D01*
X64554943Y-53320202D01*
X64369203Y-53505942D01*
X64223268Y-53724350D01*
X64122746Y-53967031D01*
X64071500Y-54224661D01*
X64071500Y-54487337D01*
X64122746Y-54744967D01*
X64223268Y-54987648D01*
X64369203Y-55206056D01*
X64519147Y-55356000D01*
X64369203Y-55505944D01*
X64223268Y-55724352D01*
X64122746Y-55967033D01*
X64071500Y-56224663D01*
X64071500Y-56487339D01*
X64122746Y-56744969D01*
X64223268Y-56987650D01*
X64369203Y-57206058D01*
X64554943Y-57391798D01*
X64645001Y-57451972D01*
X64645000Y-59398667D01*
X64645000Y-59779678D01*
X64641324Y-59817000D01*
X64645000Y-59854322D01*
X64645000Y-59854332D01*
X64655997Y-59965985D01*
X64679297Y-60042795D01*
X64699454Y-60109246D01*
X64738602Y-60182486D01*
X64554943Y-60305202D01*
X64369203Y-60490942D01*
X64223268Y-60709350D01*
X64122746Y-60952031D01*
X64071500Y-61209661D01*
X64071500Y-61472337D01*
X64122746Y-61729967D01*
X64223268Y-61972648D01*
X64369203Y-62191056D01*
X64519147Y-62341000D01*
X64369203Y-62490944D01*
X64223268Y-62709352D01*
X64122746Y-62952033D01*
X64071500Y-63209663D01*
X64071500Y-63472339D01*
X64122746Y-63729969D01*
X64223268Y-63972650D01*
X64369203Y-64191058D01*
X64554943Y-64376798D01*
X64645000Y-64436972D01*
X64645001Y-66383668D01*
X64641324Y-66421000D01*
X64655998Y-66569985D01*
X64699454Y-66713246D01*
X64770026Y-66845276D01*
X64820694Y-66907014D01*
X64865000Y-66961001D01*
X64893998Y-66984799D01*
X64971422Y-67062223D01*
X64773351Y-67144267D01*
X64554943Y-67290202D01*
X64369203Y-67475942D01*
X64223268Y-67694350D01*
X64122746Y-67937031D01*
X64071500Y-68194661D01*
X64071500Y-68457337D01*
X64122746Y-68714967D01*
X64223268Y-68957648D01*
X64369203Y-69176056D01*
X64519147Y-69326000D01*
X64369203Y-69475944D01*
X64223268Y-69694352D01*
X64122746Y-69937033D01*
X64071500Y-70194663D01*
X64071500Y-70457339D01*
X64122746Y-70714969D01*
X64223268Y-70957650D01*
X64369203Y-71176058D01*
X64554943Y-71361798D01*
X64645000Y-71421972D01*
X64645001Y-72493670D01*
X64641324Y-72531002D01*
X64645001Y-72568335D01*
X64655998Y-72679988D01*
X64669180Y-72723444D01*
X64699454Y-72823248D01*
X64770026Y-72955278D01*
X64815755Y-73010998D01*
X64865000Y-73071003D01*
X64893998Y-73094801D01*
X65851965Y-74052768D01*
X65793968Y-74028745D01*
X65536338Y-73977499D01*
X65273662Y-73977499D01*
X65016032Y-74028745D01*
X64773351Y-74129267D01*
X64554943Y-74275202D01*
X64369203Y-74460942D01*
X64223268Y-74679350D01*
X64122746Y-74922031D01*
X64071500Y-75179661D01*
X64071500Y-75442337D01*
X64122746Y-75699967D01*
X64223268Y-75942648D01*
X64369203Y-76161056D01*
X64519147Y-76311000D01*
X64369203Y-76460944D01*
X64223268Y-76679352D01*
X64122746Y-76922033D01*
X64071500Y-77179663D01*
X64071500Y-77442339D01*
X64122746Y-77699969D01*
X64223268Y-77942650D01*
X64369203Y-78161058D01*
X64554943Y-78346798D01*
X64773351Y-78492733D01*
X65016032Y-78593255D01*
X65273662Y-78644501D01*
X65536338Y-78644501D01*
X65642568Y-78623371D01*
X65871200Y-78852003D01*
X65894999Y-78881002D01*
X65923997Y-78904800D01*
X66010723Y-78975975D01*
X66068761Y-79006997D01*
X66142753Y-79046547D01*
X66286014Y-79090004D01*
X66397667Y-79101001D01*
X66397677Y-79101001D01*
X66435000Y-79104677D01*
X66472323Y-79101001D01*
X67933077Y-79101001D01*
X67835147Y-79337426D01*
X67780000Y-79614665D01*
X67780000Y-79897335D01*
X67835147Y-80174574D01*
X67943320Y-80435727D01*
X68100363Y-80670759D01*
X68300241Y-80870637D01*
X68532759Y-81026000D01*
X68300241Y-81181363D01*
X68100363Y-81381241D01*
X67943320Y-81616273D01*
X67835147Y-81877426D01*
X67780000Y-82154665D01*
X67780000Y-82437335D01*
X67835147Y-82714574D01*
X67943320Y-82975727D01*
X68100363Y-83210759D01*
X68300241Y-83410637D01*
X68487862Y-83536001D01*
X66500971Y-83536001D01*
X66440797Y-83445944D01*
X66290853Y-83296000D01*
X66440797Y-83146056D01*
X66586732Y-82927648D01*
X66687254Y-82684967D01*
X66738500Y-82427337D01*
X66738500Y-82164661D01*
X66687254Y-81907031D01*
X66586732Y-81664350D01*
X66440797Y-81445942D01*
X66255057Y-81260202D01*
X66036649Y-81114267D01*
X65793968Y-81013745D01*
X65536338Y-80962499D01*
X65273662Y-80962499D01*
X65016032Y-81013745D01*
X64773351Y-81114267D01*
X64554943Y-81260202D01*
X64369203Y-81445942D01*
X64223268Y-81664350D01*
X64122746Y-81907031D01*
X64071500Y-82164661D01*
X64071500Y-82427337D01*
X64122746Y-82684967D01*
X64223268Y-82927648D01*
X64369203Y-83146056D01*
X64519147Y-83296000D01*
X64369203Y-83445944D01*
X64223268Y-83664352D01*
X64122746Y-83907033D01*
X64071500Y-84164663D01*
X64071500Y-84427339D01*
X64122746Y-84684969D01*
X64223268Y-84927650D01*
X64369203Y-85146058D01*
X64554943Y-85331798D01*
X64773351Y-85477733D01*
X65016032Y-85578255D01*
X65273662Y-85629501D01*
X65536338Y-85629501D01*
X65793968Y-85578255D01*
X66036649Y-85477733D01*
X66255057Y-85331798D01*
X66440797Y-85146058D01*
X66500971Y-85056001D01*
X74797677Y-85056001D01*
X74834999Y-85059677D01*
X74872321Y-85056001D01*
X74872332Y-85056001D01*
X74983985Y-85045004D01*
X75127246Y-85001547D01*
X75259275Y-84930975D01*
X75375000Y-84836002D01*
X75398803Y-84806998D01*
X76471730Y-83734072D01*
X77635000Y-83734072D01*
X77759482Y-83721812D01*
X77879180Y-83685502D01*
X77989494Y-83626537D01*
X78086185Y-83547185D01*
X78165537Y-83450494D01*
X78224502Y-83340180D01*
X78260812Y-83220482D01*
X78273072Y-83096000D01*
X78273072Y-81496000D01*
X78260812Y-81371518D01*
X78224502Y-81251820D01*
X78165537Y-81141506D01*
X78086185Y-81044815D01*
X77989494Y-80965463D01*
X77879180Y-80906498D01*
X77759482Y-80870188D01*
X77751039Y-80869357D01*
X77949637Y-80670759D01*
X78106680Y-80435727D01*
X78214853Y-80174574D01*
X78270000Y-79897335D01*
X78270000Y-79614665D01*
X78214853Y-79337426D01*
X78106680Y-79076273D01*
X77949637Y-78841241D01*
X77749759Y-78641363D01*
X77517241Y-78486000D01*
X77749759Y-78330637D01*
X77949637Y-78130759D01*
X78106680Y-77895727D01*
X78214853Y-77634574D01*
X78270000Y-77357335D01*
X78270000Y-77074665D01*
X78214853Y-76797426D01*
X78106680Y-76536273D01*
X77949637Y-76301241D01*
X77749759Y-76101363D01*
X77517241Y-75946000D01*
X77749759Y-75790637D01*
X77949637Y-75590759D01*
X78106680Y-75355727D01*
X78214853Y-75094574D01*
X78270000Y-74817335D01*
X78270000Y-74534665D01*
X78214853Y-74257426D01*
X78106680Y-73996273D01*
X77949637Y-73761241D01*
X77749759Y-73561363D01*
X77517241Y-73406000D01*
X77749759Y-73250637D01*
X77949637Y-73050759D01*
X78106680Y-72815727D01*
X78214853Y-72554574D01*
X78270000Y-72277335D01*
X78270000Y-71994665D01*
X78214853Y-71717426D01*
X78106680Y-71456273D01*
X77949637Y-71221241D01*
X77749759Y-71021363D01*
X77517241Y-70866000D01*
X77749759Y-70710637D01*
X77949637Y-70510759D01*
X78106680Y-70275727D01*
X78214853Y-70014574D01*
X78270000Y-69737335D01*
X78270000Y-69454665D01*
X78214853Y-69177426D01*
X78106680Y-68916273D01*
X77949637Y-68681241D01*
X77749759Y-68481363D01*
X77517241Y-68326000D01*
X77749759Y-68170637D01*
X77949637Y-67970759D01*
X78106680Y-67735727D01*
X78214853Y-67474574D01*
X78270000Y-67197335D01*
X78270000Y-66914665D01*
X78214853Y-66637426D01*
X78106680Y-66376273D01*
X77949637Y-66141241D01*
X77749759Y-65941363D01*
X77517241Y-65786000D01*
X77749759Y-65630637D01*
X77949637Y-65430759D01*
X78106680Y-65195727D01*
X78214853Y-64934574D01*
X78270000Y-64657335D01*
X78270000Y-64374665D01*
X78214853Y-64097426D01*
X78106680Y-63836273D01*
X77949637Y-63601241D01*
X77749759Y-63401363D01*
X77517241Y-63246000D01*
X77749759Y-63090637D01*
X77949637Y-62890759D01*
X78106680Y-62655727D01*
X78214853Y-62394574D01*
X78270000Y-62117335D01*
X78270000Y-61834665D01*
X78214853Y-61557426D01*
X78106680Y-61296273D01*
X77949637Y-61061241D01*
X77749759Y-60861363D01*
X77514727Y-60704320D01*
X77504135Y-60699933D01*
X77690131Y-60588385D01*
X77898519Y-60399414D01*
X78066037Y-60173420D01*
X78186246Y-59919087D01*
X78226904Y-59785039D01*
X78104915Y-59563000D01*
X76962000Y-59563000D01*
X76962000Y-59583000D01*
X76835000Y-59583000D01*
X76835000Y-59289000D01*
X76962000Y-59289000D01*
X76962000Y-59309000D01*
X78104915Y-59309000D01*
X78226904Y-59086961D01*
X78186246Y-58952913D01*
X78066037Y-58698580D01*
X77898519Y-58472586D01*
X77690131Y-58283615D01*
X77504135Y-58172067D01*
X77514727Y-58167680D01*
X77749759Y-58010637D01*
X77949637Y-57810759D01*
X78106680Y-57575727D01*
X78214853Y-57314574D01*
X78270000Y-57037335D01*
X78270000Y-56754665D01*
X78214853Y-56477426D01*
X78106680Y-56216273D01*
X77949637Y-55981241D01*
X77749759Y-55781363D01*
X77517241Y-55626000D01*
X77749759Y-55470637D01*
X77949637Y-55270759D01*
X78106680Y-55035727D01*
X78214853Y-54774574D01*
X78270000Y-54497335D01*
X78270000Y-54214665D01*
X78214853Y-53937426D01*
X78106680Y-53676273D01*
X77949637Y-53441241D01*
X77749759Y-53241363D01*
X77517241Y-53086000D01*
X77749759Y-52930637D01*
X77949637Y-52730759D01*
X78106680Y-52495727D01*
X78214853Y-52234574D01*
X78270000Y-51957335D01*
X78270000Y-51674665D01*
X78214853Y-51397426D01*
X78106680Y-51136273D01*
X77949637Y-50901241D01*
X77749759Y-50701363D01*
X77517241Y-50546000D01*
X77749759Y-50390637D01*
X77949637Y-50190759D01*
X78106680Y-49955727D01*
X78214853Y-49694574D01*
X78270000Y-49417335D01*
X78270000Y-49134665D01*
X78214853Y-48857426D01*
X78106680Y-48596273D01*
X77949637Y-48361241D01*
X77749759Y-48161363D01*
X77514727Y-48004320D01*
X77253574Y-47896147D01*
X76976335Y-47841000D01*
X76693665Y-47841000D01*
X76416426Y-47896147D01*
X76155273Y-48004320D01*
X75920241Y-48161363D01*
X75720363Y-48361241D01*
X75563320Y-48596273D01*
X75455147Y-48857426D01*
X75400000Y-49134665D01*
X75400000Y-49149000D01*
X70650000Y-49149000D01*
X70650000Y-49134665D01*
X70594853Y-48857426D01*
X70486680Y-48596273D01*
X70329637Y-48361241D01*
X70129759Y-48161363D01*
X69894727Y-48004320D01*
X69633574Y-47896147D01*
X69356335Y-47841000D01*
X69073665Y-47841000D01*
X68796426Y-47896147D01*
X68658030Y-47953472D01*
X68658030Y-44616000D01*
X68869928Y-44616000D01*
X68869928Y-46316000D01*
X68882188Y-46440482D01*
X68918498Y-46560180D01*
X68977463Y-46670494D01*
X69056815Y-46767185D01*
X69153506Y-46846537D01*
X69263820Y-46905502D01*
X69383518Y-46941812D01*
X69508000Y-46954072D01*
X71208000Y-46954072D01*
X71332482Y-46941812D01*
X71452180Y-46905502D01*
X71562494Y-46846537D01*
X71659185Y-46767185D01*
X71738537Y-46670494D01*
X71797502Y-46560180D01*
X71833812Y-46440482D01*
X71846072Y-46316000D01*
X71846072Y-44616000D01*
X72679928Y-44616000D01*
X72679928Y-46316000D01*
X72692188Y-46440482D01*
X72728498Y-46560180D01*
X72787463Y-46670494D01*
X72866815Y-46767185D01*
X72963506Y-46846537D01*
X73073820Y-46905502D01*
X73193518Y-46941812D01*
X73318000Y-46954072D01*
X75018000Y-46954072D01*
X75142482Y-46941812D01*
X75262180Y-46905502D01*
X75372494Y-46846537D01*
X75469185Y-46767185D01*
X75548537Y-46670494D01*
X75607502Y-46560180D01*
X75643812Y-46440482D01*
X75656072Y-46316000D01*
X75656072Y-44616000D01*
X75643812Y-44491518D01*
X75607502Y-44371820D01*
X75548537Y-44261506D01*
X75469185Y-44164815D01*
X75372494Y-44085463D01*
X75262180Y-44026498D01*
X75181534Y-44002034D01*
X75265588Y-43926269D01*
X75439641Y-43692920D01*
X75564825Y-43430099D01*
X75609476Y-43282890D01*
X75502753Y-43080660D01*
X77406500Y-43080660D01*
X77406500Y-43343336D01*
X77457746Y-43600966D01*
X77558268Y-43843647D01*
X77704203Y-44062055D01*
X77854147Y-44211999D01*
X77704203Y-44361943D01*
X77558268Y-44580351D01*
X77457746Y-44823032D01*
X77406500Y-45080662D01*
X77406500Y-45343338D01*
X77457746Y-45600968D01*
X77558268Y-45843649D01*
X77704203Y-46062057D01*
X77889943Y-46247797D01*
X78108351Y-46393732D01*
X78351032Y-46494254D01*
X78608662Y-46545500D01*
X78871338Y-46545500D01*
X79128968Y-46494254D01*
X79371649Y-46393732D01*
X79590057Y-46247797D01*
X79775797Y-46062057D01*
X79921732Y-45843649D01*
X80022254Y-45600968D01*
X80073500Y-45343338D01*
X80073500Y-45080662D01*
X80022254Y-44823032D01*
X79921732Y-44580351D01*
X79775797Y-44361943D01*
X79625853Y-44211999D01*
X79775797Y-44062055D01*
X79921732Y-43843647D01*
X80022254Y-43600966D01*
X80073500Y-43343336D01*
X80073500Y-43080660D01*
X80022254Y-42823030D01*
X79921732Y-42580349D01*
X79775797Y-42361941D01*
X79590057Y-42176201D01*
X79371649Y-42030266D01*
X79128968Y-41929744D01*
X78871338Y-41878498D01*
X78608662Y-41878498D01*
X78351032Y-41929744D01*
X78108351Y-42030266D01*
X77889943Y-42176201D01*
X77704203Y-42361941D01*
X77558268Y-42580349D01*
X77457746Y-42823030D01*
X77406500Y-43080660D01*
X75502753Y-43080660D01*
X75488155Y-43053000D01*
X74295000Y-43053000D01*
X74295000Y-43073000D01*
X74041000Y-43073000D01*
X74041000Y-43053000D01*
X72847845Y-43053000D01*
X72726524Y-43282890D01*
X72771175Y-43430099D01*
X72896359Y-43692920D01*
X73070412Y-43926269D01*
X73154466Y-44002034D01*
X73073820Y-44026498D01*
X72963506Y-44085463D01*
X72866815Y-44164815D01*
X72787463Y-44261506D01*
X72728498Y-44371820D01*
X72692188Y-44491518D01*
X72679928Y-44616000D01*
X71846072Y-44616000D01*
X71833812Y-44491518D01*
X71797502Y-44371820D01*
X71738537Y-44261506D01*
X71659185Y-44164815D01*
X71562494Y-44085463D01*
X71452180Y-44026498D01*
X71371534Y-44002034D01*
X71455588Y-43926269D01*
X71629641Y-43692920D01*
X71754825Y-43430099D01*
X71799476Y-43282890D01*
X71678155Y-43053000D01*
X70485000Y-43053000D01*
X70485000Y-43073000D01*
X70231000Y-43073000D01*
X70231000Y-43053000D01*
X69037845Y-43053000D01*
X68916524Y-43282890D01*
X68961175Y-43430099D01*
X69086359Y-43692920D01*
X69260412Y-43926269D01*
X69344466Y-44002034D01*
X69263820Y-44026498D01*
X69153506Y-44085463D01*
X69056815Y-44164815D01*
X68977463Y-44261506D01*
X68918498Y-44371820D01*
X68882188Y-44491518D01*
X68869928Y-44616000D01*
X68658030Y-44616000D01*
X68658030Y-40239740D01*
X68873000Y-40239740D01*
X68873000Y-40532260D01*
X68930068Y-40819158D01*
X69042010Y-41089411D01*
X69204525Y-41332632D01*
X69411368Y-41539475D01*
X69593534Y-41661195D01*
X69476645Y-41730822D01*
X69260412Y-41925731D01*
X69086359Y-42159080D01*
X68961175Y-42421901D01*
X68916524Y-42569110D01*
X69037845Y-42799000D01*
X70231000Y-42799000D01*
X70231000Y-42779000D01*
X70485000Y-42779000D01*
X70485000Y-42799000D01*
X71678155Y-42799000D01*
X71799476Y-42569110D01*
X71754825Y-42421901D01*
X71629641Y-42159080D01*
X71455588Y-41925731D01*
X71239355Y-41730822D01*
X71122466Y-41661195D01*
X71304632Y-41539475D01*
X71511475Y-41332632D01*
X71673990Y-41089411D01*
X71785932Y-40819158D01*
X71843000Y-40532260D01*
X71843000Y-40239740D01*
X72683000Y-40239740D01*
X72683000Y-40532260D01*
X72740068Y-40819158D01*
X72852010Y-41089411D01*
X73014525Y-41332632D01*
X73221368Y-41539475D01*
X73403534Y-41661195D01*
X73286645Y-41730822D01*
X73070412Y-41925731D01*
X72896359Y-42159080D01*
X72771175Y-42421901D01*
X72726524Y-42569110D01*
X72847845Y-42799000D01*
X74041000Y-42799000D01*
X74041000Y-42779000D01*
X74295000Y-42779000D01*
X74295000Y-42799000D01*
X75488155Y-42799000D01*
X75609476Y-42569110D01*
X75564825Y-42421901D01*
X75439641Y-42159080D01*
X75265588Y-41925731D01*
X75049355Y-41730822D01*
X74932466Y-41661195D01*
X75114632Y-41539475D01*
X75321475Y-41332632D01*
X75483990Y-41089411D01*
X75595932Y-40819158D01*
X75653000Y-40532260D01*
X75653000Y-40239740D01*
X75595932Y-39952842D01*
X75483990Y-39682589D01*
X75321475Y-39439368D01*
X75114632Y-39232525D01*
X74932466Y-39110805D01*
X75049355Y-39041178D01*
X75265588Y-38846269D01*
X75439641Y-38612920D01*
X75564825Y-38350099D01*
X75605375Y-38216408D01*
X78359000Y-38216408D01*
X78359000Y-38491592D01*
X78412686Y-38761490D01*
X78517995Y-39015727D01*
X78670880Y-39244535D01*
X78865465Y-39439120D01*
X79094273Y-39592005D01*
X79348510Y-39697314D01*
X79618408Y-39751000D01*
X79893592Y-39751000D01*
X80163490Y-39697314D01*
X80417727Y-39592005D01*
X80646535Y-39439120D01*
X80841120Y-39244535D01*
X80994005Y-39015727D01*
X81099314Y-38761490D01*
X81153000Y-38491592D01*
X81153000Y-38216408D01*
X81099314Y-37946510D01*
X80994005Y-37692273D01*
X80841120Y-37463465D01*
X80646535Y-37268880D01*
X80417727Y-37115995D01*
X80367647Y-37095251D01*
X79756000Y-36483604D01*
X79144353Y-37095251D01*
X79094273Y-37115995D01*
X78865465Y-37268880D01*
X78670880Y-37463465D01*
X78517995Y-37692273D01*
X78412686Y-37946510D01*
X78359000Y-38216408D01*
X75605375Y-38216408D01*
X75609476Y-38202890D01*
X75488155Y-37973000D01*
X74295000Y-37973000D01*
X74295000Y-37993000D01*
X74041000Y-37993000D01*
X74041000Y-37973000D01*
X72847845Y-37973000D01*
X72726524Y-38202890D01*
X72771175Y-38350099D01*
X72896359Y-38612920D01*
X73070412Y-38846269D01*
X73286645Y-39041178D01*
X73403534Y-39110805D01*
X73221368Y-39232525D01*
X73014525Y-39439368D01*
X72852010Y-39682589D01*
X72740068Y-39952842D01*
X72683000Y-40239740D01*
X71843000Y-40239740D01*
X71785932Y-39952842D01*
X71673990Y-39682589D01*
X71511475Y-39439368D01*
X71304632Y-39232525D01*
X71122466Y-39110805D01*
X71239355Y-39041178D01*
X71455588Y-38846269D01*
X71629641Y-38612920D01*
X71754825Y-38350099D01*
X71799476Y-38202890D01*
X71678155Y-37973000D01*
X70485000Y-37973000D01*
X70485000Y-37993000D01*
X70231000Y-37993000D01*
X70231000Y-37973000D01*
X69037845Y-37973000D01*
X68916524Y-38202890D01*
X68961175Y-38350099D01*
X69086359Y-38612920D01*
X69260412Y-38846269D01*
X69476645Y-39041178D01*
X69593534Y-39110805D01*
X69411368Y-39232525D01*
X69204525Y-39439368D01*
X69042010Y-39682589D01*
X68930068Y-39952842D01*
X68873000Y-40239740D01*
X68658030Y-40239740D01*
X68658030Y-37931354D01*
X68661706Y-37894031D01*
X68658030Y-37856708D01*
X68658030Y-37856698D01*
X68647033Y-37745045D01*
X68603576Y-37601784D01*
X68543350Y-37489110D01*
X68916524Y-37489110D01*
X69037845Y-37719000D01*
X70231000Y-37719000D01*
X70231000Y-36525186D01*
X70485000Y-36525186D01*
X70485000Y-37719000D01*
X71678155Y-37719000D01*
X71799476Y-37489110D01*
X72726524Y-37489110D01*
X72847845Y-37719000D01*
X74041000Y-37719000D01*
X74041000Y-36525186D01*
X74295000Y-36525186D01*
X74295000Y-37719000D01*
X75488155Y-37719000D01*
X75609476Y-37489110D01*
X75564825Y-37341901D01*
X75439641Y-37079080D01*
X75265588Y-36845731D01*
X75049355Y-36650822D01*
X74799252Y-36501843D01*
X74524891Y-36404519D01*
X74295000Y-36525186D01*
X74041000Y-36525186D01*
X73811109Y-36404519D01*
X73536748Y-36501843D01*
X73286645Y-36650822D01*
X73070412Y-36845731D01*
X72896359Y-37079080D01*
X72771175Y-37341901D01*
X72726524Y-37489110D01*
X71799476Y-37489110D01*
X71754825Y-37341901D01*
X71629641Y-37079080D01*
X71455588Y-36845731D01*
X71239355Y-36650822D01*
X70989252Y-36501843D01*
X70714891Y-36404519D01*
X70485000Y-36525186D01*
X70231000Y-36525186D01*
X70001109Y-36404519D01*
X69726748Y-36501843D01*
X69476645Y-36650822D01*
X69260412Y-36845731D01*
X69086359Y-37079080D01*
X68961175Y-37341901D01*
X68916524Y-37489110D01*
X68543350Y-37489110D01*
X68533004Y-37469755D01*
X68438031Y-37354030D01*
X68409034Y-37330233D01*
X67454817Y-36376016D01*
X78354090Y-36376016D01*
X78395078Y-36648132D01*
X78488364Y-36907022D01*
X78550344Y-37022979D01*
X78790435Y-37089959D01*
X79576395Y-36303999D01*
X79935605Y-36303999D01*
X80721565Y-37089959D01*
X80961656Y-37022979D01*
X81078756Y-36773951D01*
X81145023Y-36506864D01*
X81157910Y-36231982D01*
X81116922Y-35959866D01*
X81023636Y-35700976D01*
X80961656Y-35585019D01*
X80721565Y-35518039D01*
X79935605Y-36303999D01*
X79576395Y-36303999D01*
X78790435Y-35518039D01*
X78550344Y-35585019D01*
X78433244Y-35834047D01*
X78366977Y-36101134D01*
X78354090Y-36376016D01*
X67454817Y-36376016D01*
X66717369Y-35638569D01*
X66738500Y-35532339D01*
X66738500Y-35269663D01*
X66687254Y-35012033D01*
X66586732Y-34769352D01*
X66440797Y-34550944D01*
X66409743Y-34519890D01*
X69043524Y-34519890D01*
X69088175Y-34667099D01*
X69213359Y-34929920D01*
X69387412Y-35163269D01*
X69603645Y-35358178D01*
X69853748Y-35507157D01*
X70128109Y-35604481D01*
X70358000Y-35483814D01*
X70358000Y-34290000D01*
X70612000Y-34290000D01*
X70612000Y-35483814D01*
X70841891Y-35604481D01*
X71116252Y-35507157D01*
X71366355Y-35358178D01*
X71582588Y-35163269D01*
X71756641Y-34929920D01*
X71881825Y-34667099D01*
X71920409Y-34539890D01*
X72726524Y-34539890D01*
X72771175Y-34687099D01*
X72896359Y-34949920D01*
X73070412Y-35183269D01*
X73286645Y-35378178D01*
X73536748Y-35527157D01*
X73811109Y-35624481D01*
X74041000Y-35503814D01*
X74041000Y-34310000D01*
X74295000Y-34310000D01*
X74295000Y-35503814D01*
X74524891Y-35624481D01*
X74799252Y-35527157D01*
X75049355Y-35378178D01*
X75265588Y-35183269D01*
X75439641Y-34949920D01*
X75564825Y-34687099D01*
X75609476Y-34539890D01*
X75488155Y-34310000D01*
X74295000Y-34310000D01*
X74041000Y-34310000D01*
X72847845Y-34310000D01*
X72726524Y-34539890D01*
X71920409Y-34539890D01*
X71926476Y-34519890D01*
X71805155Y-34290000D01*
X70612000Y-34290000D01*
X70358000Y-34290000D01*
X69164845Y-34290000D01*
X69043524Y-34519890D01*
X66409743Y-34519890D01*
X66290853Y-34401000D01*
X66440797Y-34251056D01*
X66530764Y-34116409D01*
X78359000Y-34116409D01*
X78359000Y-34391593D01*
X78412686Y-34661491D01*
X78517995Y-34915728D01*
X78670880Y-35144536D01*
X78865465Y-35339121D01*
X79094273Y-35492006D01*
X79144358Y-35512752D01*
X79756000Y-36124394D01*
X80367642Y-35512752D01*
X80417727Y-35492006D01*
X80646535Y-35339121D01*
X80841120Y-35144536D01*
X80994005Y-34915728D01*
X81099314Y-34661491D01*
X81153000Y-34391593D01*
X81153000Y-34116409D01*
X81099314Y-33846511D01*
X80994005Y-33592274D01*
X80841120Y-33363466D01*
X80646535Y-33168881D01*
X80417727Y-33015996D01*
X80367647Y-32995252D01*
X79756000Y-32383605D01*
X79144353Y-32995252D01*
X79094273Y-33015996D01*
X78865465Y-33168881D01*
X78670880Y-33363466D01*
X78517995Y-33592274D01*
X78412686Y-33846511D01*
X78359000Y-34116409D01*
X66530764Y-34116409D01*
X66586732Y-34032648D01*
X66687254Y-33789967D01*
X66738500Y-33532337D01*
X66738500Y-33269661D01*
X66687254Y-33012031D01*
X66586732Y-32769350D01*
X66440797Y-32550942D01*
X66255057Y-32365202D01*
X66036649Y-32219267D01*
X65793968Y-32118745D01*
X65536338Y-32067499D01*
X65273662Y-32067499D01*
X65016032Y-32118745D01*
X64773351Y-32219267D01*
X64554943Y-32365202D01*
X64369203Y-32550942D01*
X64223268Y-32769350D01*
X64122746Y-33012031D01*
X64071500Y-33269661D01*
X60375000Y-33269661D01*
X60375000Y-31674062D01*
X61068000Y-31674062D01*
X61068000Y-31877940D01*
X61107774Y-32077899D01*
X61185795Y-32266257D01*
X61299063Y-32435775D01*
X61443226Y-32579938D01*
X61612744Y-32693206D01*
X61801102Y-32771227D01*
X62001061Y-32811001D01*
X62204939Y-32811001D01*
X62404898Y-32771227D01*
X62593256Y-32693206D01*
X62762774Y-32579938D01*
X62906937Y-32435775D01*
X63020205Y-32266257D01*
X63098226Y-32077899D01*
X63138000Y-31877940D01*
X63138000Y-31674062D01*
X63098226Y-31474103D01*
X63020205Y-31285745D01*
X62906937Y-31116227D01*
X62762774Y-30972064D01*
X62593256Y-30858796D01*
X62404898Y-30780775D01*
X62365811Y-30773000D01*
X68996928Y-30773000D01*
X68996928Y-32473000D01*
X69009188Y-32597482D01*
X69045498Y-32717180D01*
X69104463Y-32827494D01*
X69183815Y-32924185D01*
X69280506Y-33003537D01*
X69390820Y-33062502D01*
X69471466Y-33086966D01*
X69387412Y-33162731D01*
X69213359Y-33396080D01*
X69088175Y-33658901D01*
X69043524Y-33806110D01*
X69164845Y-34036000D01*
X70358000Y-34036000D01*
X70358000Y-34016000D01*
X70612000Y-34016000D01*
X70612000Y-34036000D01*
X71805155Y-34036000D01*
X71926476Y-33806110D01*
X71881825Y-33658901D01*
X71756641Y-33396080D01*
X71582588Y-33162731D01*
X71498534Y-33086966D01*
X71579180Y-33062502D01*
X71689494Y-33003537D01*
X71786185Y-32924185D01*
X71865537Y-32827494D01*
X71924502Y-32717180D01*
X71960812Y-32597482D01*
X71973072Y-32473000D01*
X71973072Y-30793000D01*
X72679928Y-30793000D01*
X72679928Y-32493000D01*
X72692188Y-32617482D01*
X72728498Y-32737180D01*
X72787463Y-32847494D01*
X72866815Y-32944185D01*
X72963506Y-33023537D01*
X73073820Y-33082502D01*
X73154466Y-33106966D01*
X73070412Y-33182731D01*
X72896359Y-33416080D01*
X72771175Y-33678901D01*
X72726524Y-33826110D01*
X72847845Y-34056000D01*
X74041000Y-34056000D01*
X74041000Y-34036000D01*
X74295000Y-34036000D01*
X74295000Y-34056000D01*
X75488155Y-34056000D01*
X75609476Y-33826110D01*
X75564825Y-33678901D01*
X75439641Y-33416080D01*
X75265588Y-33182731D01*
X75181534Y-33106966D01*
X75262180Y-33082502D01*
X75372494Y-33023537D01*
X75469185Y-32944185D01*
X75548537Y-32847494D01*
X75607502Y-32737180D01*
X75643812Y-32617482D01*
X75656072Y-32493000D01*
X75656072Y-32276017D01*
X78354090Y-32276017D01*
X78395078Y-32548133D01*
X78488364Y-32807023D01*
X78550344Y-32922980D01*
X78790435Y-32989960D01*
X79576395Y-32204000D01*
X79935605Y-32204000D01*
X80721565Y-32989960D01*
X80961656Y-32922980D01*
X81078756Y-32673952D01*
X81145023Y-32406865D01*
X81157910Y-32131983D01*
X81116922Y-31859867D01*
X81023636Y-31600977D01*
X80961656Y-31485020D01*
X80721565Y-31418040D01*
X79935605Y-32204000D01*
X79576395Y-32204000D01*
X78790435Y-31418040D01*
X78550344Y-31485020D01*
X78433244Y-31734048D01*
X78366977Y-32001135D01*
X78354090Y-32276017D01*
X75656072Y-32276017D01*
X75656072Y-31238435D01*
X78970040Y-31238435D01*
X79756000Y-32024395D01*
X80541960Y-31238435D01*
X80474980Y-30998344D01*
X80225952Y-30881244D01*
X79958865Y-30814977D01*
X79683983Y-30802090D01*
X79411867Y-30843078D01*
X79152977Y-30936364D01*
X79037020Y-30998344D01*
X78970040Y-31238435D01*
X75656072Y-31238435D01*
X75656072Y-30793000D01*
X75643812Y-30668518D01*
X75607502Y-30548820D01*
X75548537Y-30438506D01*
X75469185Y-30341815D01*
X75372494Y-30262463D01*
X75262180Y-30203498D01*
X75142482Y-30167188D01*
X75018000Y-30154928D01*
X73318000Y-30154928D01*
X73193518Y-30167188D01*
X73073820Y-30203498D01*
X72963506Y-30262463D01*
X72866815Y-30341815D01*
X72787463Y-30438506D01*
X72728498Y-30548820D01*
X72692188Y-30668518D01*
X72679928Y-30793000D01*
X71973072Y-30793000D01*
X71973072Y-30773000D01*
X71960812Y-30648518D01*
X71924502Y-30528820D01*
X71865537Y-30418506D01*
X71786185Y-30321815D01*
X71689494Y-30242463D01*
X71579180Y-30183498D01*
X71459482Y-30147188D01*
X71335000Y-30134928D01*
X69635000Y-30134928D01*
X69510518Y-30147188D01*
X69390820Y-30183498D01*
X69280506Y-30242463D01*
X69183815Y-30321815D01*
X69104463Y-30418506D01*
X69045498Y-30528820D01*
X69009188Y-30648518D01*
X68996928Y-30773000D01*
X62365811Y-30773000D01*
X62204939Y-30741001D01*
X62001061Y-30741001D01*
X61801102Y-30780775D01*
X61612744Y-30858796D01*
X61443226Y-30972064D01*
X61299063Y-31116227D01*
X61185795Y-31285745D01*
X61107774Y-31474103D01*
X61068000Y-31674062D01*
X60375000Y-31674062D01*
X60375000Y-28293772D01*
X60542136Y-28543909D01*
X61118091Y-29119864D01*
X61795343Y-29572389D01*
X62547865Y-29884094D01*
X63346738Y-30043000D01*
X64161262Y-30043000D01*
X64960135Y-29884094D01*
X65712657Y-29572389D01*
X66389909Y-29119864D01*
X66903576Y-28606197D01*
X70395407Y-28606197D01*
X70454685Y-28839812D01*
X70692874Y-28950559D01*
X70948092Y-29012711D01*
X71210532Y-29023876D01*
X71470106Y-28983629D01*
X71716841Y-28893514D01*
X71817313Y-28839812D01*
X71876591Y-28606197D01*
X71135999Y-27865605D01*
X70395407Y-28606197D01*
X66903576Y-28606197D01*
X66965864Y-28543909D01*
X67418389Y-27866657D01*
X67462347Y-27760533D01*
X69798123Y-27760533D01*
X69838370Y-28020107D01*
X69928485Y-28266842D01*
X69982187Y-28367314D01*
X70215802Y-28426592D01*
X70956394Y-27686000D01*
X71315604Y-27686000D01*
X71968397Y-28338793D01*
X72100204Y-28536057D01*
X72285944Y-28721797D01*
X72504352Y-28867732D01*
X72747033Y-28968254D01*
X73004663Y-29019500D01*
X73267339Y-29019500D01*
X73524969Y-28968254D01*
X73767650Y-28867732D01*
X73986058Y-28721797D01*
X74171798Y-28536057D01*
X74317733Y-28317649D01*
X74418255Y-28074968D01*
X74469501Y-27817338D01*
X74469501Y-27554662D01*
X74418255Y-27297032D01*
X74317733Y-27054351D01*
X74171798Y-26835943D01*
X73986058Y-26650203D01*
X73767650Y-26504268D01*
X73524969Y-26403746D01*
X73267339Y-26352500D01*
X73004663Y-26352500D01*
X72747033Y-26403746D01*
X72504352Y-26504268D01*
X72285944Y-26650203D01*
X72100204Y-26835943D01*
X71968397Y-27033207D01*
X71315604Y-27686000D01*
X70956394Y-27686000D01*
X70215802Y-26945408D01*
X69982187Y-27004686D01*
X69871440Y-27242875D01*
X69809288Y-27498093D01*
X69798123Y-27760533D01*
X67462347Y-27760533D01*
X67730094Y-27114135D01*
X67799381Y-26765803D01*
X70395407Y-26765803D01*
X71135999Y-27506395D01*
X71876591Y-26765803D01*
X71817313Y-26532188D01*
X71579124Y-26421441D01*
X71323906Y-26359289D01*
X71061466Y-26348124D01*
X70801892Y-26388371D01*
X70555157Y-26478486D01*
X70454685Y-26532188D01*
X70395407Y-26765803D01*
X67799381Y-26765803D01*
X67889000Y-26315262D01*
X67889000Y-25500738D01*
X67730094Y-24701865D01*
X67661416Y-24536061D01*
X68459999Y-24536061D01*
X68459999Y-24739939D01*
X68499773Y-24939898D01*
X68577794Y-25128256D01*
X68691062Y-25297774D01*
X68835225Y-25441937D01*
X69004743Y-25555205D01*
X69193101Y-25633226D01*
X69393060Y-25673000D01*
X69596938Y-25673000D01*
X69796897Y-25633226D01*
X69985255Y-25555205D01*
X70154773Y-25441937D01*
X70298936Y-25297774D01*
X70412204Y-25128256D01*
X70490225Y-24939898D01*
X70529999Y-24739939D01*
X70529999Y-24536061D01*
X71100999Y-24536061D01*
X71100999Y-24739939D01*
X71140773Y-24939898D01*
X71218794Y-25128256D01*
X71332062Y-25297774D01*
X71476225Y-25441937D01*
X71645743Y-25555205D01*
X71834101Y-25633226D01*
X72034060Y-25673000D01*
X72237938Y-25673000D01*
X72437897Y-25633226D01*
X72626255Y-25555205D01*
X72795773Y-25441937D01*
X72939936Y-25297774D01*
X73053204Y-25128256D01*
X73131225Y-24939898D01*
X73170999Y-24739939D01*
X73170999Y-24536061D01*
X73741999Y-24536061D01*
X73741999Y-24739939D01*
X73781773Y-24939898D01*
X73859794Y-25128256D01*
X73973062Y-25297774D01*
X74117225Y-25441937D01*
X74286743Y-25555205D01*
X74475101Y-25633226D01*
X74675060Y-25673000D01*
X74878938Y-25673000D01*
X75078897Y-25633226D01*
X75267255Y-25555205D01*
X75436773Y-25441937D01*
X75580936Y-25297774D01*
X75694204Y-25128256D01*
X75772225Y-24939898D01*
X75811999Y-24739939D01*
X75811999Y-24536061D01*
X75772225Y-24336102D01*
X75694204Y-24147744D01*
X75580936Y-23978226D01*
X75436773Y-23834063D01*
X75267255Y-23720795D01*
X75078897Y-23642774D01*
X74878938Y-23603000D01*
X74675060Y-23603000D01*
X74475101Y-23642774D01*
X74286743Y-23720795D01*
X74117225Y-23834063D01*
X73973062Y-23978226D01*
X73859794Y-24147744D01*
X73781773Y-24336102D01*
X73741999Y-24536061D01*
X73170999Y-24536061D01*
X73131225Y-24336102D01*
X73053204Y-24147744D01*
X72939936Y-23978226D01*
X72795773Y-23834063D01*
X72626255Y-23720795D01*
X72437897Y-23642774D01*
X72237938Y-23603000D01*
X72034060Y-23603000D01*
X71834101Y-23642774D01*
X71645743Y-23720795D01*
X71476225Y-23834063D01*
X71332062Y-23978226D01*
X71218794Y-24147744D01*
X71140773Y-24336102D01*
X71100999Y-24536061D01*
X70529999Y-24536061D01*
X70490225Y-24336102D01*
X70412204Y-24147744D01*
X70298936Y-23978226D01*
X70154773Y-23834063D01*
X69985255Y-23720795D01*
X69796897Y-23642774D01*
X69596938Y-23603000D01*
X69393060Y-23603000D01*
X69193101Y-23642774D01*
X69004743Y-23720795D01*
X68835225Y-23834063D01*
X68691062Y-23978226D01*
X68577794Y-24147744D01*
X68499773Y-24336102D01*
X68459999Y-24536061D01*
X67661416Y-24536061D01*
X67418389Y-23949343D01*
X66965864Y-23272091D01*
X66389909Y-22696136D01*
X66139772Y-22529000D01*
X78132228Y-22529000D01*
X77882091Y-22696136D01*
%TA.AperFunction,Conductor*%
D20*
G36*
X77882091Y-22696136D02*
G01*
X77306136Y-23272091D01*
X76853611Y-23949343D01*
X76541906Y-24701865D01*
X76383000Y-25500738D01*
X76383000Y-26315262D01*
X76541906Y-27114135D01*
X76853611Y-27866657D01*
X77306136Y-28543909D01*
X77882091Y-29119864D01*
X78559343Y-29572389D01*
X79311865Y-29884094D01*
X80110738Y-30043000D01*
X80925262Y-30043000D01*
X81724135Y-29884094D01*
X82476657Y-29572389D01*
X83153909Y-29119864D01*
X83729864Y-28543909D01*
X83897000Y-28293772D01*
X83897001Y-89308229D01*
X83729864Y-89058091D01*
X83153909Y-88482136D01*
X82476657Y-88029611D01*
X81724135Y-87717906D01*
X80925262Y-87559000D01*
X80110738Y-87559000D01*
X79311865Y-87717906D01*
X78559343Y-88029611D01*
X77882091Y-88482136D01*
X77306136Y-89058091D01*
X76853611Y-89735343D01*
X76541906Y-90487865D01*
X76383000Y-91286738D01*
X76383000Y-92101262D01*
X76541906Y-92900135D01*
X76853611Y-93652657D01*
X77306136Y-94329909D01*
X77882091Y-94905864D01*
X78512366Y-95327000D01*
X65759634Y-95327000D01*
X66389909Y-94905864D01*
X66965864Y-94329909D01*
X67418389Y-93652657D01*
X67730094Y-92900135D01*
X67889000Y-92101262D01*
X67889000Y-91286738D01*
X67730094Y-90487865D01*
X67450996Y-89814061D01*
X68459999Y-89814061D01*
X68459999Y-90017939D01*
X68499773Y-90217898D01*
X68577794Y-90406256D01*
X68691062Y-90575774D01*
X68835225Y-90719937D01*
X69004743Y-90833205D01*
X69193101Y-90911226D01*
X69393060Y-90951000D01*
X69596938Y-90951000D01*
X69796897Y-90911226D01*
X69985255Y-90833205D01*
X70154773Y-90719937D01*
X70298936Y-90575774D01*
X70412204Y-90406256D01*
X70490225Y-90217898D01*
X70529999Y-90017939D01*
X70529999Y-89814061D01*
X71100999Y-89814061D01*
X71100999Y-90017939D01*
X71140773Y-90217898D01*
X71218794Y-90406256D01*
X71332062Y-90575774D01*
X71476225Y-90719937D01*
X71645743Y-90833205D01*
X71834101Y-90911226D01*
X72034060Y-90951000D01*
X72237938Y-90951000D01*
X72437897Y-90911226D01*
X72626255Y-90833205D01*
X72795773Y-90719937D01*
X72939936Y-90575774D01*
X73053204Y-90406256D01*
X73131225Y-90217898D01*
X73170999Y-90017939D01*
X73170999Y-89814061D01*
X73741999Y-89814061D01*
X73741999Y-90017939D01*
X73781773Y-90217898D01*
X73859794Y-90406256D01*
X73973062Y-90575774D01*
X74117225Y-90719937D01*
X74286743Y-90833205D01*
X74475101Y-90911226D01*
X74675060Y-90951000D01*
X74878938Y-90951000D01*
X75078897Y-90911226D01*
X75267255Y-90833205D01*
X75436773Y-90719937D01*
X75580936Y-90575774D01*
X75694204Y-90406256D01*
X75772225Y-90217898D01*
X75811999Y-90017939D01*
X75811999Y-89814061D01*
X75772225Y-89614102D01*
X75694204Y-89425744D01*
X75580936Y-89256226D01*
X75436773Y-89112063D01*
X75267255Y-88998795D01*
X75078897Y-88920774D01*
X74878938Y-88881000D01*
X74675060Y-88881000D01*
X74475101Y-88920774D01*
X74286743Y-88998795D01*
X74117225Y-89112063D01*
X73973062Y-89256226D01*
X73859794Y-89425744D01*
X73781773Y-89614102D01*
X73741999Y-89814061D01*
X73170999Y-89814061D01*
X73131225Y-89614102D01*
X73053204Y-89425744D01*
X72939936Y-89256226D01*
X72795773Y-89112063D01*
X72626255Y-88998795D01*
X72437897Y-88920774D01*
X72237938Y-88881000D01*
X72034060Y-88881000D01*
X71834101Y-88920774D01*
X71645743Y-88998795D01*
X71476225Y-89112063D01*
X71332062Y-89256226D01*
X71218794Y-89425744D01*
X71140773Y-89614102D01*
X71100999Y-89814061D01*
X70529999Y-89814061D01*
X70490225Y-89614102D01*
X70412204Y-89425744D01*
X70298936Y-89256226D01*
X70154773Y-89112063D01*
X69985255Y-88998795D01*
X69796897Y-88920774D01*
X69596938Y-88881000D01*
X69393060Y-88881000D01*
X69193101Y-88920774D01*
X69004743Y-88998795D01*
X68835225Y-89112063D01*
X68691062Y-89256226D01*
X68577794Y-89425744D01*
X68499773Y-89614102D01*
X68459999Y-89814061D01*
X67450996Y-89814061D01*
X67418389Y-89735343D01*
X66965864Y-89058091D01*
X66389909Y-88482136D01*
X65712657Y-88029611D01*
X64960135Y-87717906D01*
X64161262Y-87559000D01*
X63346738Y-87559000D01*
X62547865Y-87717906D01*
X61795343Y-88029611D01*
X61118091Y-88482136D01*
X60542136Y-89058091D01*
X60375000Y-89308228D01*
X60375000Y-86004061D01*
X61703000Y-86004061D01*
X61703000Y-86207939D01*
X61742774Y-86407898D01*
X61820795Y-86596256D01*
X61934063Y-86765774D01*
X62078226Y-86909937D01*
X62247744Y-87023205D01*
X62436102Y-87101226D01*
X62636061Y-87141000D01*
X62839939Y-87141000D01*
X63039898Y-87101226D01*
X63228256Y-87023205D01*
X63397774Y-86909937D01*
X63541937Y-86765774D01*
X63655205Y-86596256D01*
X63733226Y-86407898D01*
X63773000Y-86207939D01*
X63773000Y-86004061D01*
X67037000Y-86004061D01*
X67037000Y-86207939D01*
X67076774Y-86407898D01*
X67154795Y-86596256D01*
X67268063Y-86765774D01*
X67412226Y-86909937D01*
X67581744Y-87023205D01*
X67770102Y-87101226D01*
X67970061Y-87141000D01*
X68173939Y-87141000D01*
X68373898Y-87101226D01*
X68562256Y-87023205D01*
X68731774Y-86909937D01*
X68875937Y-86765774D01*
X68989205Y-86596256D01*
X69067226Y-86407898D01*
X69107000Y-86207939D01*
X69107000Y-86004061D01*
X69067226Y-85804102D01*
X68989205Y-85615744D01*
X68875937Y-85446226D01*
X68731774Y-85302063D01*
X68562256Y-85188795D01*
X68373898Y-85110774D01*
X68173939Y-85071000D01*
X67970061Y-85071000D01*
X67770102Y-85110774D01*
X67581744Y-85188795D01*
X67412226Y-85302063D01*
X67268063Y-85446226D01*
X67154795Y-85615744D01*
X67076774Y-85804102D01*
X67037000Y-86004061D01*
X63773000Y-86004061D01*
X63733226Y-85804102D01*
X63655205Y-85615744D01*
X63541937Y-85446226D01*
X63397774Y-85302063D01*
X63228256Y-85188795D01*
X63039898Y-85110774D01*
X62839939Y-85071000D01*
X62636061Y-85071000D01*
X62436102Y-85110774D01*
X62247744Y-85188795D01*
X62078226Y-85302063D01*
X61934063Y-85446226D01*
X61820795Y-85615744D01*
X61742774Y-85804102D01*
X61703000Y-86004061D01*
X60375000Y-86004061D01*
X60375000Y-82549062D01*
X61068000Y-82549062D01*
X61068000Y-82752940D01*
X61107774Y-82952899D01*
X61185795Y-83141257D01*
X61299063Y-83310775D01*
X61443226Y-83454938D01*
X61612744Y-83568206D01*
X61801102Y-83646227D01*
X62001061Y-83686001D01*
X62204939Y-83686001D01*
X62404898Y-83646227D01*
X62593256Y-83568206D01*
X62762774Y-83454938D01*
X62906937Y-83310775D01*
X63020205Y-83141257D01*
X63098226Y-82952899D01*
X63138000Y-82752940D01*
X63138000Y-82549062D01*
X63098226Y-82349103D01*
X63020205Y-82160745D01*
X62906937Y-81991227D01*
X62762774Y-81847064D01*
X62593256Y-81733796D01*
X62404898Y-81655775D01*
X62204939Y-81616001D01*
X62001061Y-81616001D01*
X61801102Y-81655775D01*
X61612744Y-81733796D01*
X61443226Y-81847064D01*
X61299063Y-81991227D01*
X61185795Y-82160745D01*
X61107774Y-82349103D01*
X61068000Y-82549062D01*
X60375000Y-82549062D01*
X60375000Y-77461562D01*
X61068000Y-77461562D01*
X61068000Y-77665440D01*
X61107774Y-77865399D01*
X61185795Y-78053757D01*
X61299063Y-78223275D01*
X61443226Y-78367438D01*
X61612744Y-78480706D01*
X61801102Y-78558727D01*
X62001061Y-78598501D01*
X62204939Y-78598501D01*
X62404898Y-78558727D01*
X62593256Y-78480706D01*
X62762774Y-78367438D01*
X62906937Y-78223275D01*
X63020205Y-78053757D01*
X63098226Y-77865399D01*
X63138000Y-77665440D01*
X63138000Y-77461562D01*
X63098226Y-77261603D01*
X63020205Y-77073245D01*
X62906937Y-76903727D01*
X62762774Y-76759564D01*
X62593256Y-76646296D01*
X62404898Y-76568275D01*
X62204939Y-76528501D01*
X62001061Y-76528501D01*
X61801102Y-76568275D01*
X61612744Y-76646296D01*
X61443226Y-76759564D01*
X61299063Y-76903727D01*
X61185795Y-77073245D01*
X61107774Y-77261603D01*
X61068000Y-77461562D01*
X60375000Y-77461562D01*
X60375000Y-72374062D01*
X61068000Y-72374062D01*
X61068000Y-72577940D01*
X61107774Y-72777899D01*
X61185795Y-72966257D01*
X61299063Y-73135775D01*
X61443226Y-73279938D01*
X61612744Y-73393206D01*
X61801102Y-73471227D01*
X62001061Y-73511001D01*
X62204939Y-73511001D01*
X62404898Y-73471227D01*
X62593256Y-73393206D01*
X62762774Y-73279938D01*
X62906937Y-73135775D01*
X63020205Y-72966257D01*
X63098226Y-72777899D01*
X63138000Y-72577940D01*
X63138000Y-72374062D01*
X63098226Y-72174103D01*
X63020205Y-71985745D01*
X62906937Y-71816227D01*
X62762774Y-71672064D01*
X62593256Y-71558796D01*
X62404898Y-71480775D01*
X62204939Y-71441001D01*
X62001061Y-71441001D01*
X61801102Y-71480775D01*
X61612744Y-71558796D01*
X61443226Y-71672064D01*
X61299063Y-71816227D01*
X61185795Y-71985745D01*
X61107774Y-72174103D01*
X61068000Y-72374062D01*
X60375000Y-72374062D01*
X60375000Y-67286562D01*
X61068000Y-67286562D01*
X61068000Y-67490440D01*
X61107774Y-67690399D01*
X61185795Y-67878757D01*
X61299063Y-68048275D01*
X61443226Y-68192438D01*
X61612744Y-68305706D01*
X61801102Y-68383727D01*
X62001061Y-68423501D01*
X62204939Y-68423501D01*
X62404898Y-68383727D01*
X62593256Y-68305706D01*
X62762774Y-68192438D01*
X62906937Y-68048275D01*
X63020205Y-67878757D01*
X63098226Y-67690399D01*
X63138000Y-67490440D01*
X63138000Y-67286562D01*
X63098226Y-67086603D01*
X63020205Y-66898245D01*
X62906937Y-66728727D01*
X62762774Y-66584564D01*
X62593256Y-66471296D01*
X62404898Y-66393275D01*
X62204939Y-66353501D01*
X62001061Y-66353501D01*
X61801102Y-66393275D01*
X61612744Y-66471296D01*
X61443226Y-66584564D01*
X61299063Y-66728727D01*
X61185795Y-66898245D01*
X61107774Y-67086603D01*
X61068000Y-67286562D01*
X60375000Y-67286562D01*
X60375000Y-62199062D01*
X61068000Y-62199062D01*
X61068000Y-62402940D01*
X61107774Y-62602899D01*
X61185795Y-62791257D01*
X61299063Y-62960775D01*
X61443226Y-63104938D01*
X61612744Y-63218206D01*
X61801102Y-63296227D01*
X62001061Y-63336001D01*
X62204939Y-63336001D01*
X62404898Y-63296227D01*
X62593256Y-63218206D01*
X62762774Y-63104938D01*
X62906937Y-62960775D01*
X63020205Y-62791257D01*
X63098226Y-62602899D01*
X63138000Y-62402940D01*
X63138000Y-62199062D01*
X63098226Y-61999103D01*
X63020205Y-61810745D01*
X62906937Y-61641227D01*
X62762774Y-61497064D01*
X62593256Y-61383796D01*
X62404898Y-61305775D01*
X62204939Y-61266001D01*
X62001061Y-61266001D01*
X61801102Y-61305775D01*
X61612744Y-61383796D01*
X61443226Y-61497064D01*
X61299063Y-61641227D01*
X61185795Y-61810745D01*
X61107774Y-61999103D01*
X61068000Y-62199062D01*
X60375000Y-62199062D01*
X60375000Y-57111562D01*
X61068000Y-57111562D01*
X61068000Y-57315440D01*
X61107774Y-57515399D01*
X61185795Y-57703757D01*
X61299063Y-57873275D01*
X61443226Y-58017438D01*
X61612744Y-58130706D01*
X61801102Y-58208727D01*
X62001061Y-58248501D01*
X62204939Y-58248501D01*
X62404898Y-58208727D01*
X62593256Y-58130706D01*
X62762774Y-58017438D01*
X62906937Y-57873275D01*
X63020205Y-57703757D01*
X63098226Y-57515399D01*
X63138000Y-57315440D01*
X63138000Y-57111562D01*
X63098226Y-56911603D01*
X63020205Y-56723245D01*
X62906937Y-56553727D01*
X62762774Y-56409564D01*
X62593256Y-56296296D01*
X62404898Y-56218275D01*
X62204939Y-56178501D01*
X62001061Y-56178501D01*
X61801102Y-56218275D01*
X61612744Y-56296296D01*
X61443226Y-56409564D01*
X61299063Y-56553727D01*
X61185795Y-56723245D01*
X61107774Y-56911603D01*
X61068000Y-57111562D01*
X60375000Y-57111562D01*
X60375000Y-52024062D01*
X61068000Y-52024062D01*
X61068000Y-52227940D01*
X61107774Y-52427899D01*
X61185795Y-52616257D01*
X61299063Y-52785775D01*
X61443226Y-52929938D01*
X61612744Y-53043206D01*
X61801102Y-53121227D01*
X62001061Y-53161001D01*
X62204939Y-53161001D01*
X62404898Y-53121227D01*
X62593256Y-53043206D01*
X62762774Y-52929938D01*
X62906937Y-52785775D01*
X63020205Y-52616257D01*
X63098226Y-52427899D01*
X63138000Y-52227940D01*
X63138000Y-52024062D01*
X63098226Y-51824103D01*
X63020205Y-51635745D01*
X62906937Y-51466227D01*
X62762774Y-51322064D01*
X62593256Y-51208796D01*
X62404898Y-51130775D01*
X62204939Y-51091001D01*
X62001061Y-51091001D01*
X61801102Y-51130775D01*
X61612744Y-51208796D01*
X61443226Y-51322064D01*
X61299063Y-51466227D01*
X61185795Y-51635745D01*
X61107774Y-51824103D01*
X61068000Y-52024062D01*
X60375000Y-52024062D01*
X60375000Y-46936562D01*
X61068000Y-46936562D01*
X61068000Y-47140440D01*
X61107774Y-47340399D01*
X61185795Y-47528757D01*
X61299063Y-47698275D01*
X61443226Y-47842438D01*
X61612744Y-47955706D01*
X61801102Y-48033727D01*
X62001061Y-48073501D01*
X62204939Y-48073501D01*
X62404898Y-48033727D01*
X62593256Y-47955706D01*
X62762774Y-47842438D01*
X62906937Y-47698275D01*
X63020205Y-47528757D01*
X63098226Y-47340399D01*
X63138000Y-47140440D01*
X63138000Y-46936562D01*
X63098226Y-46736603D01*
X63020205Y-46548245D01*
X62906937Y-46378727D01*
X62762774Y-46234564D01*
X62593256Y-46121296D01*
X62404898Y-46043275D01*
X62204939Y-46003501D01*
X62001061Y-46003501D01*
X61801102Y-46043275D01*
X61612744Y-46121296D01*
X61443226Y-46234564D01*
X61299063Y-46378727D01*
X61185795Y-46548245D01*
X61107774Y-46736603D01*
X61068000Y-46936562D01*
X60375000Y-46936562D01*
X60375000Y-41849062D01*
X61068000Y-41849062D01*
X61068000Y-42052940D01*
X61107774Y-42252899D01*
X61185795Y-42441257D01*
X61299063Y-42610775D01*
X61443226Y-42754938D01*
X61612744Y-42868206D01*
X61801102Y-42946227D01*
X62001061Y-42986001D01*
X62204939Y-42986001D01*
X62404898Y-42946227D01*
X62593256Y-42868206D01*
X62762774Y-42754938D01*
X62906937Y-42610775D01*
X63020205Y-42441257D01*
X63098226Y-42252899D01*
X63138000Y-42052940D01*
X63138000Y-41849062D01*
X63098226Y-41649103D01*
X63020205Y-41460745D01*
X62906937Y-41291227D01*
X62762774Y-41147064D01*
X62593256Y-41033796D01*
X62404898Y-40955775D01*
X62204939Y-40916001D01*
X62001061Y-40916001D01*
X61801102Y-40955775D01*
X61612744Y-41033796D01*
X61443226Y-41147064D01*
X61299063Y-41291227D01*
X61185795Y-41460745D01*
X61107774Y-41649103D01*
X61068000Y-41849062D01*
X60375000Y-41849062D01*
X60375000Y-36761562D01*
X61068000Y-36761562D01*
X61068000Y-36965440D01*
X61107774Y-37165399D01*
X61185795Y-37353757D01*
X61299063Y-37523275D01*
X61443226Y-37667438D01*
X61612744Y-37780706D01*
X61801102Y-37858727D01*
X62001061Y-37898501D01*
X62204939Y-37898501D01*
X62404898Y-37858727D01*
X62593256Y-37780706D01*
X62762774Y-37667438D01*
X62906937Y-37523275D01*
X63020205Y-37353757D01*
X63098226Y-37165399D01*
X63138000Y-36965440D01*
X63138000Y-36761562D01*
X63098226Y-36561603D01*
X63020205Y-36373245D01*
X62906937Y-36203727D01*
X62762774Y-36059564D01*
X62593256Y-35946296D01*
X62404898Y-35868275D01*
X62204939Y-35828501D01*
X62001061Y-35828501D01*
X61801102Y-35868275D01*
X61612744Y-35946296D01*
X61443226Y-36059564D01*
X61299063Y-36203727D01*
X61185795Y-36373245D01*
X61107774Y-36561603D01*
X61068000Y-36761562D01*
X60375000Y-36761562D01*
X60375000Y-33269661D01*
X64071500Y-33269661D01*
X64071500Y-33532337D01*
X64122746Y-33789967D01*
X64223268Y-34032648D01*
X64369203Y-34251056D01*
X64519147Y-34401000D01*
X64369203Y-34550944D01*
X64223268Y-34769352D01*
X64122746Y-35012033D01*
X64071500Y-35269663D01*
X64071500Y-35532339D01*
X64122746Y-35789969D01*
X64223268Y-36032650D01*
X64369203Y-36251058D01*
X64554943Y-36436798D01*
X64773351Y-36582733D01*
X65016032Y-36683255D01*
X65273662Y-36734501D01*
X65536338Y-36734501D01*
X65642568Y-36713370D01*
X67138030Y-38208833D01*
X67138030Y-43044231D01*
X66717369Y-42623570D01*
X66738500Y-42517340D01*
X66738500Y-42254664D01*
X66687254Y-41997034D01*
X66586732Y-41754353D01*
X66440797Y-41535945D01*
X66290853Y-41386001D01*
X66440797Y-41236057D01*
X66586732Y-41017649D01*
X66687254Y-40774968D01*
X66738500Y-40517338D01*
X66738500Y-40254662D01*
X66687254Y-39997032D01*
X66586732Y-39754351D01*
X66440797Y-39535943D01*
X66255057Y-39350203D01*
X66036649Y-39204268D01*
X65793968Y-39103746D01*
X65536338Y-39052500D01*
X65273662Y-39052500D01*
X65016032Y-39103746D01*
X64773351Y-39204268D01*
X64554943Y-39350203D01*
X64369203Y-39535943D01*
X64223268Y-39754351D01*
X64122746Y-39997032D01*
X64071500Y-40254662D01*
X64071500Y-40517338D01*
X64122746Y-40774968D01*
X64223268Y-41017649D01*
X64369203Y-41236057D01*
X64519147Y-41386001D01*
X64369203Y-41535945D01*
X64223268Y-41754353D01*
X64122746Y-41997034D01*
X64071500Y-42254664D01*
X64071500Y-42517340D01*
X64122746Y-42774970D01*
X64223268Y-43017651D01*
X64369203Y-43236059D01*
X64554943Y-43421799D01*
X64773351Y-43567734D01*
X65016032Y-43668256D01*
X65273662Y-43719502D01*
X65536338Y-43719502D01*
X65642568Y-43698371D01*
X66688020Y-44743824D01*
X66688020Y-46985883D01*
X66687254Y-46982031D01*
X66586732Y-46739350D01*
X66440797Y-46520942D01*
X66255057Y-46335202D01*
X66036649Y-46189267D01*
X65793968Y-46088745D01*
X65536338Y-46037499D01*
X65273662Y-46037499D01*
X65016032Y-46088745D01*
X64773351Y-46189267D01*
X64554943Y-46335202D01*
X64369203Y-46520942D01*
X64223268Y-46739350D01*
X64122746Y-46982031D01*
X64071500Y-47239661D01*
X64071500Y-47502337D01*
X64122746Y-47759967D01*
X64223268Y-48002648D01*
X64369203Y-48221056D01*
X64519147Y-48371000D01*
X64369203Y-48520944D01*
X64223268Y-48739352D01*
X64122746Y-48982033D01*
X64071500Y-49239663D01*
X64071500Y-49502339D01*
X64122746Y-49759969D01*
X64223268Y-50002650D01*
X64369203Y-50221058D01*
X64554943Y-50406798D01*
X64773351Y-50552733D01*
X65016032Y-50653255D01*
X65273662Y-50704501D01*
X65536338Y-50704501D01*
X65642568Y-50683371D01*
X65668502Y-50709305D01*
X65668502Y-53048788D01*
X65536338Y-53022499D01*
X65273662Y-53022499D01*
X65016032Y-53073745D01*
X64773351Y-53174267D01*
X64554943Y-53320202D01*
X64369203Y-53505942D01*
X64223268Y-53724350D01*
X64122746Y-53967031D01*
X64071500Y-54224661D01*
X64071500Y-54487337D01*
X64122746Y-54744967D01*
X64223268Y-54987648D01*
X64369203Y-55206056D01*
X64519147Y-55356000D01*
X64369203Y-55505944D01*
X64223268Y-55724352D01*
X64122746Y-55967033D01*
X64071500Y-56224663D01*
X64071500Y-56487339D01*
X64122746Y-56744969D01*
X64223268Y-56987650D01*
X64369203Y-57206058D01*
X64554943Y-57391798D01*
X64645001Y-57451972D01*
X64645000Y-59398667D01*
X64645000Y-59779678D01*
X64641324Y-59817000D01*
X64645000Y-59854322D01*
X64645000Y-59854332D01*
X64655997Y-59965985D01*
X64679297Y-60042795D01*
X64699454Y-60109246D01*
X64738602Y-60182486D01*
X64554943Y-60305202D01*
X64369203Y-60490942D01*
X64223268Y-60709350D01*
X64122746Y-60952031D01*
X64071500Y-61209661D01*
X64071500Y-61472337D01*
X64122746Y-61729967D01*
X64223268Y-61972648D01*
X64369203Y-62191056D01*
X64519147Y-62341000D01*
X64369203Y-62490944D01*
X64223268Y-62709352D01*
X64122746Y-62952033D01*
X64071500Y-63209663D01*
X64071500Y-63472339D01*
X64122746Y-63729969D01*
X64223268Y-63972650D01*
X64369203Y-64191058D01*
X64554943Y-64376798D01*
X64645000Y-64436972D01*
X64645001Y-66383668D01*
X64641324Y-66421000D01*
X64655998Y-66569985D01*
X64699454Y-66713246D01*
X64770026Y-66845276D01*
X64820694Y-66907014D01*
X64865000Y-66961001D01*
X64893998Y-66984799D01*
X64971422Y-67062223D01*
X64773351Y-67144267D01*
X64554943Y-67290202D01*
X64369203Y-67475942D01*
X64223268Y-67694350D01*
X64122746Y-67937031D01*
X64071500Y-68194661D01*
X64071500Y-68457337D01*
X64122746Y-68714967D01*
X64223268Y-68957648D01*
X64369203Y-69176056D01*
X64519147Y-69326000D01*
X64369203Y-69475944D01*
X64223268Y-69694352D01*
X64122746Y-69937033D01*
X64071500Y-70194663D01*
X64071500Y-70457339D01*
X64122746Y-70714969D01*
X64223268Y-70957650D01*
X64369203Y-71176058D01*
X64554943Y-71361798D01*
X64645000Y-71421972D01*
X64645001Y-72493670D01*
X64641324Y-72531002D01*
X64645001Y-72568335D01*
X64655998Y-72679988D01*
X64669180Y-72723444D01*
X64699454Y-72823248D01*
X64770026Y-72955278D01*
X64815755Y-73010998D01*
X64865000Y-73071003D01*
X64893998Y-73094801D01*
X65851965Y-74052768D01*
X65793968Y-74028745D01*
X65536338Y-73977499D01*
X65273662Y-73977499D01*
X65016032Y-74028745D01*
X64773351Y-74129267D01*
X64554943Y-74275202D01*
X64369203Y-74460942D01*
X64223268Y-74679350D01*
X64122746Y-74922031D01*
X64071500Y-75179661D01*
X64071500Y-75442337D01*
X64122746Y-75699967D01*
X64223268Y-75942648D01*
X64369203Y-76161056D01*
X64519147Y-76311000D01*
X64369203Y-76460944D01*
X64223268Y-76679352D01*
X64122746Y-76922033D01*
X64071500Y-77179663D01*
X64071500Y-77442339D01*
X64122746Y-77699969D01*
X64223268Y-77942650D01*
X64369203Y-78161058D01*
X64554943Y-78346798D01*
X64773351Y-78492733D01*
X65016032Y-78593255D01*
X65273662Y-78644501D01*
X65536338Y-78644501D01*
X65642568Y-78623371D01*
X65871200Y-78852003D01*
X65894999Y-78881002D01*
X65923997Y-78904800D01*
X66010723Y-78975975D01*
X66068761Y-79006997D01*
X66142753Y-79046547D01*
X66286014Y-79090004D01*
X66397667Y-79101001D01*
X66397677Y-79101001D01*
X66435000Y-79104677D01*
X66472323Y-79101001D01*
X67933077Y-79101001D01*
X67835147Y-79337426D01*
X67780000Y-79614665D01*
X67780000Y-79897335D01*
X67835147Y-80174574D01*
X67943320Y-80435727D01*
X68100363Y-80670759D01*
X68300241Y-80870637D01*
X68532759Y-81026000D01*
X68300241Y-81181363D01*
X68100363Y-81381241D01*
X67943320Y-81616273D01*
X67835147Y-81877426D01*
X67780000Y-82154665D01*
X67780000Y-82437335D01*
X67835147Y-82714574D01*
X67943320Y-82975727D01*
X68100363Y-83210759D01*
X68300241Y-83410637D01*
X68487862Y-83536001D01*
X66500971Y-83536001D01*
X66440797Y-83445944D01*
X66290853Y-83296000D01*
X66440797Y-83146056D01*
X66586732Y-82927648D01*
X66687254Y-82684967D01*
X66738500Y-82427337D01*
X66738500Y-82164661D01*
X66687254Y-81907031D01*
X66586732Y-81664350D01*
X66440797Y-81445942D01*
X66255057Y-81260202D01*
X66036649Y-81114267D01*
X65793968Y-81013745D01*
X65536338Y-80962499D01*
X65273662Y-80962499D01*
X65016032Y-81013745D01*
X64773351Y-81114267D01*
X64554943Y-81260202D01*
X64369203Y-81445942D01*
X64223268Y-81664350D01*
X64122746Y-81907031D01*
X64071500Y-82164661D01*
X64071500Y-82427337D01*
X64122746Y-82684967D01*
X64223268Y-82927648D01*
X64369203Y-83146056D01*
X64519147Y-83296000D01*
X64369203Y-83445944D01*
X64223268Y-83664352D01*
X64122746Y-83907033D01*
X64071500Y-84164663D01*
X64071500Y-84427339D01*
X64122746Y-84684969D01*
X64223268Y-84927650D01*
X64369203Y-85146058D01*
X64554943Y-85331798D01*
X64773351Y-85477733D01*
X65016032Y-85578255D01*
X65273662Y-85629501D01*
X65536338Y-85629501D01*
X65793968Y-85578255D01*
X66036649Y-85477733D01*
X66255057Y-85331798D01*
X66440797Y-85146058D01*
X66500971Y-85056001D01*
X74797677Y-85056001D01*
X74834999Y-85059677D01*
X74872321Y-85056001D01*
X74872332Y-85056001D01*
X74983985Y-85045004D01*
X75127246Y-85001547D01*
X75259275Y-84930975D01*
X75375000Y-84836002D01*
X75398803Y-84806998D01*
X76471730Y-83734072D01*
X77635000Y-83734072D01*
X77759482Y-83721812D01*
X77879180Y-83685502D01*
X77989494Y-83626537D01*
X78086185Y-83547185D01*
X78165537Y-83450494D01*
X78224502Y-83340180D01*
X78260812Y-83220482D01*
X78273072Y-83096000D01*
X78273072Y-81496000D01*
X78260812Y-81371518D01*
X78224502Y-81251820D01*
X78165537Y-81141506D01*
X78086185Y-81044815D01*
X77989494Y-80965463D01*
X77879180Y-80906498D01*
X77759482Y-80870188D01*
X77751039Y-80869357D01*
X77949637Y-80670759D01*
X78106680Y-80435727D01*
X78214853Y-80174574D01*
X78270000Y-79897335D01*
X78270000Y-79614665D01*
X78214853Y-79337426D01*
X78106680Y-79076273D01*
X77949637Y-78841241D01*
X77749759Y-78641363D01*
X77517241Y-78486000D01*
X77749759Y-78330637D01*
X77949637Y-78130759D01*
X78106680Y-77895727D01*
X78214853Y-77634574D01*
X78270000Y-77357335D01*
X78270000Y-77074665D01*
X78214853Y-76797426D01*
X78106680Y-76536273D01*
X77949637Y-76301241D01*
X77749759Y-76101363D01*
X77517241Y-75946000D01*
X77749759Y-75790637D01*
X77949637Y-75590759D01*
X78106680Y-75355727D01*
X78214853Y-75094574D01*
X78270000Y-74817335D01*
X78270000Y-74534665D01*
X78214853Y-74257426D01*
X78106680Y-73996273D01*
X77949637Y-73761241D01*
X77749759Y-73561363D01*
X77517241Y-73406000D01*
X77749759Y-73250637D01*
X77949637Y-73050759D01*
X78106680Y-72815727D01*
X78214853Y-72554574D01*
X78270000Y-72277335D01*
X78270000Y-71994665D01*
X78214853Y-71717426D01*
X78106680Y-71456273D01*
X77949637Y-71221241D01*
X77749759Y-71021363D01*
X77517241Y-70866000D01*
X77749759Y-70710637D01*
X77949637Y-70510759D01*
X78106680Y-70275727D01*
X78214853Y-70014574D01*
X78270000Y-69737335D01*
X78270000Y-69454665D01*
X78214853Y-69177426D01*
X78106680Y-68916273D01*
X77949637Y-68681241D01*
X77749759Y-68481363D01*
X77517241Y-68326000D01*
X77749759Y-68170637D01*
X77949637Y-67970759D01*
X78106680Y-67735727D01*
X78214853Y-67474574D01*
X78270000Y-67197335D01*
X78270000Y-66914665D01*
X78214853Y-66637426D01*
X78106680Y-66376273D01*
X77949637Y-66141241D01*
X77749759Y-65941363D01*
X77517241Y-65786000D01*
X77749759Y-65630637D01*
X77949637Y-65430759D01*
X78106680Y-65195727D01*
X78214853Y-64934574D01*
X78270000Y-64657335D01*
X78270000Y-64374665D01*
X78214853Y-64097426D01*
X78106680Y-63836273D01*
X77949637Y-63601241D01*
X77749759Y-63401363D01*
X77517241Y-63246000D01*
X77749759Y-63090637D01*
X77949637Y-62890759D01*
X78106680Y-62655727D01*
X78214853Y-62394574D01*
X78270000Y-62117335D01*
X78270000Y-61834665D01*
X78214853Y-61557426D01*
X78106680Y-61296273D01*
X77949637Y-61061241D01*
X77749759Y-60861363D01*
X77514727Y-60704320D01*
X77504135Y-60699933D01*
X77690131Y-60588385D01*
X77898519Y-60399414D01*
X78066037Y-60173420D01*
X78186246Y-59919087D01*
X78226904Y-59785039D01*
X78104915Y-59563000D01*
X76962000Y-59563000D01*
X76962000Y-59583000D01*
X76835000Y-59583000D01*
X76835000Y-59289000D01*
X76962000Y-59289000D01*
X76962000Y-59309000D01*
X78104915Y-59309000D01*
X78226904Y-59086961D01*
X78186246Y-58952913D01*
X78066037Y-58698580D01*
X77898519Y-58472586D01*
X77690131Y-58283615D01*
X77504135Y-58172067D01*
X77514727Y-58167680D01*
X77749759Y-58010637D01*
X77949637Y-57810759D01*
X78106680Y-57575727D01*
X78214853Y-57314574D01*
X78270000Y-57037335D01*
X78270000Y-56754665D01*
X78214853Y-56477426D01*
X78106680Y-56216273D01*
X77949637Y-55981241D01*
X77749759Y-55781363D01*
X77517241Y-55626000D01*
X77749759Y-55470637D01*
X77949637Y-55270759D01*
X78106680Y-55035727D01*
X78214853Y-54774574D01*
X78270000Y-54497335D01*
X78270000Y-54214665D01*
X78214853Y-53937426D01*
X78106680Y-53676273D01*
X77949637Y-53441241D01*
X77749759Y-53241363D01*
X77517241Y-53086000D01*
X77749759Y-52930637D01*
X77949637Y-52730759D01*
X78106680Y-52495727D01*
X78214853Y-52234574D01*
X78270000Y-51957335D01*
X78270000Y-51674665D01*
X78214853Y-51397426D01*
X78106680Y-51136273D01*
X77949637Y-50901241D01*
X77749759Y-50701363D01*
X77517241Y-50546000D01*
X77749759Y-50390637D01*
X77949637Y-50190759D01*
X78106680Y-49955727D01*
X78214853Y-49694574D01*
X78270000Y-49417335D01*
X78270000Y-49134665D01*
X78214853Y-48857426D01*
X78106680Y-48596273D01*
X77949637Y-48361241D01*
X77749759Y-48161363D01*
X77514727Y-48004320D01*
X77253574Y-47896147D01*
X76976335Y-47841000D01*
X76693665Y-47841000D01*
X76416426Y-47896147D01*
X76155273Y-48004320D01*
X75920241Y-48161363D01*
X75720363Y-48361241D01*
X75563320Y-48596273D01*
X75455147Y-48857426D01*
X75400000Y-49134665D01*
X75400000Y-49149000D01*
X70650000Y-49149000D01*
X70650000Y-49134665D01*
X70594853Y-48857426D01*
X70486680Y-48596273D01*
X70329637Y-48361241D01*
X70129759Y-48161363D01*
X69894727Y-48004320D01*
X69633574Y-47896147D01*
X69356335Y-47841000D01*
X69073665Y-47841000D01*
X68796426Y-47896147D01*
X68658030Y-47953472D01*
X68658030Y-44616000D01*
X68869928Y-44616000D01*
X68869928Y-46316000D01*
X68882188Y-46440482D01*
X68918498Y-46560180D01*
X68977463Y-46670494D01*
X69056815Y-46767185D01*
X69153506Y-46846537D01*
X69263820Y-46905502D01*
X69383518Y-46941812D01*
X69508000Y-46954072D01*
X71208000Y-46954072D01*
X71332482Y-46941812D01*
X71452180Y-46905502D01*
X71562494Y-46846537D01*
X71659185Y-46767185D01*
X71738537Y-46670494D01*
X71797502Y-46560180D01*
X71833812Y-46440482D01*
X71846072Y-46316000D01*
X71846072Y-44616000D01*
X72679928Y-44616000D01*
X72679928Y-46316000D01*
X72692188Y-46440482D01*
X72728498Y-46560180D01*
X72787463Y-46670494D01*
X72866815Y-46767185D01*
X72963506Y-46846537D01*
X73073820Y-46905502D01*
X73193518Y-46941812D01*
X73318000Y-46954072D01*
X75018000Y-46954072D01*
X75142482Y-46941812D01*
X75262180Y-46905502D01*
X75372494Y-46846537D01*
X75469185Y-46767185D01*
X75548537Y-46670494D01*
X75607502Y-46560180D01*
X75643812Y-46440482D01*
X75656072Y-46316000D01*
X75656072Y-44616000D01*
X75643812Y-44491518D01*
X75607502Y-44371820D01*
X75548537Y-44261506D01*
X75469185Y-44164815D01*
X75372494Y-44085463D01*
X75262180Y-44026498D01*
X75181534Y-44002034D01*
X75265588Y-43926269D01*
X75439641Y-43692920D01*
X75564825Y-43430099D01*
X75609476Y-43282890D01*
X75502753Y-43080660D01*
X77406500Y-43080660D01*
X77406500Y-43343336D01*
X77457746Y-43600966D01*
X77558268Y-43843647D01*
X77704203Y-44062055D01*
X77854147Y-44211999D01*
X77704203Y-44361943D01*
X77558268Y-44580351D01*
X77457746Y-44823032D01*
X77406500Y-45080662D01*
X77406500Y-45343338D01*
X77457746Y-45600968D01*
X77558268Y-45843649D01*
X77704203Y-46062057D01*
X77889943Y-46247797D01*
X78108351Y-46393732D01*
X78351032Y-46494254D01*
X78608662Y-46545500D01*
X78871338Y-46545500D01*
X79128968Y-46494254D01*
X79371649Y-46393732D01*
X79590057Y-46247797D01*
X79775797Y-46062057D01*
X79921732Y-45843649D01*
X80022254Y-45600968D01*
X80073500Y-45343338D01*
X80073500Y-45080662D01*
X80022254Y-44823032D01*
X79921732Y-44580351D01*
X79775797Y-44361943D01*
X79625853Y-44211999D01*
X79775797Y-44062055D01*
X79921732Y-43843647D01*
X80022254Y-43600966D01*
X80073500Y-43343336D01*
X80073500Y-43080660D01*
X80022254Y-42823030D01*
X79921732Y-42580349D01*
X79775797Y-42361941D01*
X79590057Y-42176201D01*
X79371649Y-42030266D01*
X79128968Y-41929744D01*
X78871338Y-41878498D01*
X78608662Y-41878498D01*
X78351032Y-41929744D01*
X78108351Y-42030266D01*
X77889943Y-42176201D01*
X77704203Y-42361941D01*
X77558268Y-42580349D01*
X77457746Y-42823030D01*
X77406500Y-43080660D01*
X75502753Y-43080660D01*
X75488155Y-43053000D01*
X74295000Y-43053000D01*
X74295000Y-43073000D01*
X74041000Y-43073000D01*
X74041000Y-43053000D01*
X72847845Y-43053000D01*
X72726524Y-43282890D01*
X72771175Y-43430099D01*
X72896359Y-43692920D01*
X73070412Y-43926269D01*
X73154466Y-44002034D01*
X73073820Y-44026498D01*
X72963506Y-44085463D01*
X72866815Y-44164815D01*
X72787463Y-44261506D01*
X72728498Y-44371820D01*
X72692188Y-44491518D01*
X72679928Y-44616000D01*
X71846072Y-44616000D01*
X71833812Y-44491518D01*
X71797502Y-44371820D01*
X71738537Y-44261506D01*
X71659185Y-44164815D01*
X71562494Y-44085463D01*
X71452180Y-44026498D01*
X71371534Y-44002034D01*
X71455588Y-43926269D01*
X71629641Y-43692920D01*
X71754825Y-43430099D01*
X71799476Y-43282890D01*
X71678155Y-43053000D01*
X70485000Y-43053000D01*
X70485000Y-43073000D01*
X70231000Y-43073000D01*
X70231000Y-43053000D01*
X69037845Y-43053000D01*
X68916524Y-43282890D01*
X68961175Y-43430099D01*
X69086359Y-43692920D01*
X69260412Y-43926269D01*
X69344466Y-44002034D01*
X69263820Y-44026498D01*
X69153506Y-44085463D01*
X69056815Y-44164815D01*
X68977463Y-44261506D01*
X68918498Y-44371820D01*
X68882188Y-44491518D01*
X68869928Y-44616000D01*
X68658030Y-44616000D01*
X68658030Y-40239740D01*
X68873000Y-40239740D01*
X68873000Y-40532260D01*
X68930068Y-40819158D01*
X69042010Y-41089411D01*
X69204525Y-41332632D01*
X69411368Y-41539475D01*
X69593534Y-41661195D01*
X69476645Y-41730822D01*
X69260412Y-41925731D01*
X69086359Y-42159080D01*
X68961175Y-42421901D01*
X68916524Y-42569110D01*
X69037845Y-42799000D01*
X70231000Y-42799000D01*
X70231000Y-42779000D01*
X70485000Y-42779000D01*
X70485000Y-42799000D01*
X71678155Y-42799000D01*
X71799476Y-42569110D01*
X71754825Y-42421901D01*
X71629641Y-42159080D01*
X71455588Y-41925731D01*
X71239355Y-41730822D01*
X71122466Y-41661195D01*
X71304632Y-41539475D01*
X71511475Y-41332632D01*
X71673990Y-41089411D01*
X71785932Y-40819158D01*
X71843000Y-40532260D01*
X71843000Y-40239740D01*
X72683000Y-40239740D01*
X72683000Y-40532260D01*
X72740068Y-40819158D01*
X72852010Y-41089411D01*
X73014525Y-41332632D01*
X73221368Y-41539475D01*
X73403534Y-41661195D01*
X73286645Y-41730822D01*
X73070412Y-41925731D01*
X72896359Y-42159080D01*
X72771175Y-42421901D01*
X72726524Y-42569110D01*
X72847845Y-42799000D01*
X74041000Y-42799000D01*
X74041000Y-42779000D01*
X74295000Y-42779000D01*
X74295000Y-42799000D01*
X75488155Y-42799000D01*
X75609476Y-42569110D01*
X75564825Y-42421901D01*
X75439641Y-42159080D01*
X75265588Y-41925731D01*
X75049355Y-41730822D01*
X74932466Y-41661195D01*
X75114632Y-41539475D01*
X75321475Y-41332632D01*
X75483990Y-41089411D01*
X75595932Y-40819158D01*
X75653000Y-40532260D01*
X75653000Y-40239740D01*
X75595932Y-39952842D01*
X75483990Y-39682589D01*
X75321475Y-39439368D01*
X75114632Y-39232525D01*
X74932466Y-39110805D01*
X75049355Y-39041178D01*
X75265588Y-38846269D01*
X75439641Y-38612920D01*
X75564825Y-38350099D01*
X75605375Y-38216408D01*
X78359000Y-38216408D01*
X78359000Y-38491592D01*
X78412686Y-38761490D01*
X78517995Y-39015727D01*
X78670880Y-39244535D01*
X78865465Y-39439120D01*
X79094273Y-39592005D01*
X79348510Y-39697314D01*
X79618408Y-39751000D01*
X79893592Y-39751000D01*
X80163490Y-39697314D01*
X80417727Y-39592005D01*
X80646535Y-39439120D01*
X80841120Y-39244535D01*
X80994005Y-39015727D01*
X81099314Y-38761490D01*
X81153000Y-38491592D01*
X81153000Y-38216408D01*
X81099314Y-37946510D01*
X80994005Y-37692273D01*
X80841120Y-37463465D01*
X80646535Y-37268880D01*
X80417727Y-37115995D01*
X80367647Y-37095251D01*
X79756000Y-36483604D01*
X79144353Y-37095251D01*
X79094273Y-37115995D01*
X78865465Y-37268880D01*
X78670880Y-37463465D01*
X78517995Y-37692273D01*
X78412686Y-37946510D01*
X78359000Y-38216408D01*
X75605375Y-38216408D01*
X75609476Y-38202890D01*
X75488155Y-37973000D01*
X74295000Y-37973000D01*
X74295000Y-37993000D01*
X74041000Y-37993000D01*
X74041000Y-37973000D01*
X72847845Y-37973000D01*
X72726524Y-38202890D01*
X72771175Y-38350099D01*
X72896359Y-38612920D01*
X73070412Y-38846269D01*
X73286645Y-39041178D01*
X73403534Y-39110805D01*
X73221368Y-39232525D01*
X73014525Y-39439368D01*
X72852010Y-39682589D01*
X72740068Y-39952842D01*
X72683000Y-40239740D01*
X71843000Y-40239740D01*
X71785932Y-39952842D01*
X71673990Y-39682589D01*
X71511475Y-39439368D01*
X71304632Y-39232525D01*
X71122466Y-39110805D01*
X71239355Y-39041178D01*
X71455588Y-38846269D01*
X71629641Y-38612920D01*
X71754825Y-38350099D01*
X71799476Y-38202890D01*
X71678155Y-37973000D01*
X70485000Y-37973000D01*
X70485000Y-37993000D01*
X70231000Y-37993000D01*
X70231000Y-37973000D01*
X69037845Y-37973000D01*
X68916524Y-38202890D01*
X68961175Y-38350099D01*
X69086359Y-38612920D01*
X69260412Y-38846269D01*
X69476645Y-39041178D01*
X69593534Y-39110805D01*
X69411368Y-39232525D01*
X69204525Y-39439368D01*
X69042010Y-39682589D01*
X68930068Y-39952842D01*
X68873000Y-40239740D01*
X68658030Y-40239740D01*
X68658030Y-37931354D01*
X68661706Y-37894031D01*
X68658030Y-37856708D01*
X68658030Y-37856698D01*
X68647033Y-37745045D01*
X68603576Y-37601784D01*
X68543350Y-37489110D01*
X68916524Y-37489110D01*
X69037845Y-37719000D01*
X70231000Y-37719000D01*
X70231000Y-36525186D01*
X70485000Y-36525186D01*
X70485000Y-37719000D01*
X71678155Y-37719000D01*
X71799476Y-37489110D01*
X72726524Y-37489110D01*
X72847845Y-37719000D01*
X74041000Y-37719000D01*
X74041000Y-36525186D01*
X74295000Y-36525186D01*
X74295000Y-37719000D01*
X75488155Y-37719000D01*
X75609476Y-37489110D01*
X75564825Y-37341901D01*
X75439641Y-37079080D01*
X75265588Y-36845731D01*
X75049355Y-36650822D01*
X74799252Y-36501843D01*
X74524891Y-36404519D01*
X74295000Y-36525186D01*
X74041000Y-36525186D01*
X73811109Y-36404519D01*
X73536748Y-36501843D01*
X73286645Y-36650822D01*
X73070412Y-36845731D01*
X72896359Y-37079080D01*
X72771175Y-37341901D01*
X72726524Y-37489110D01*
X71799476Y-37489110D01*
X71754825Y-37341901D01*
X71629641Y-37079080D01*
X71455588Y-36845731D01*
X71239355Y-36650822D01*
X70989252Y-36501843D01*
X70714891Y-36404519D01*
X70485000Y-36525186D01*
X70231000Y-36525186D01*
X70001109Y-36404519D01*
X69726748Y-36501843D01*
X69476645Y-36650822D01*
X69260412Y-36845731D01*
X69086359Y-37079080D01*
X68961175Y-37341901D01*
X68916524Y-37489110D01*
X68543350Y-37489110D01*
X68533004Y-37469755D01*
X68438031Y-37354030D01*
X68409034Y-37330233D01*
X67454817Y-36376016D01*
X78354090Y-36376016D01*
X78395078Y-36648132D01*
X78488364Y-36907022D01*
X78550344Y-37022979D01*
X78790435Y-37089959D01*
X79576395Y-36303999D01*
X79935605Y-36303999D01*
X80721565Y-37089959D01*
X80961656Y-37022979D01*
X81078756Y-36773951D01*
X81145023Y-36506864D01*
X81157910Y-36231982D01*
X81116922Y-35959866D01*
X81023636Y-35700976D01*
X80961656Y-35585019D01*
X80721565Y-35518039D01*
X79935605Y-36303999D01*
X79576395Y-36303999D01*
X78790435Y-35518039D01*
X78550344Y-35585019D01*
X78433244Y-35834047D01*
X78366977Y-36101134D01*
X78354090Y-36376016D01*
X67454817Y-36376016D01*
X66717369Y-35638569D01*
X66738500Y-35532339D01*
X66738500Y-35269663D01*
X66687254Y-35012033D01*
X66586732Y-34769352D01*
X66440797Y-34550944D01*
X66409743Y-34519890D01*
X69043524Y-34519890D01*
X69088175Y-34667099D01*
X69213359Y-34929920D01*
X69387412Y-35163269D01*
X69603645Y-35358178D01*
X69853748Y-35507157D01*
X70128109Y-35604481D01*
X70358000Y-35483814D01*
X70358000Y-34290000D01*
X70612000Y-34290000D01*
X70612000Y-35483814D01*
X70841891Y-35604481D01*
X71116252Y-35507157D01*
X71366355Y-35358178D01*
X71582588Y-35163269D01*
X71756641Y-34929920D01*
X71881825Y-34667099D01*
X71920409Y-34539890D01*
X72726524Y-34539890D01*
X72771175Y-34687099D01*
X72896359Y-34949920D01*
X73070412Y-35183269D01*
X73286645Y-35378178D01*
X73536748Y-35527157D01*
X73811109Y-35624481D01*
X74041000Y-35503814D01*
X74041000Y-34310000D01*
X74295000Y-34310000D01*
X74295000Y-35503814D01*
X74524891Y-35624481D01*
X74799252Y-35527157D01*
X75049355Y-35378178D01*
X75265588Y-35183269D01*
X75439641Y-34949920D01*
X75564825Y-34687099D01*
X75609476Y-34539890D01*
X75488155Y-34310000D01*
X74295000Y-34310000D01*
X74041000Y-34310000D01*
X72847845Y-34310000D01*
X72726524Y-34539890D01*
X71920409Y-34539890D01*
X71926476Y-34519890D01*
X71805155Y-34290000D01*
X70612000Y-34290000D01*
X70358000Y-34290000D01*
X69164845Y-34290000D01*
X69043524Y-34519890D01*
X66409743Y-34519890D01*
X66290853Y-34401000D01*
X66440797Y-34251056D01*
X66530764Y-34116409D01*
X78359000Y-34116409D01*
X78359000Y-34391593D01*
X78412686Y-34661491D01*
X78517995Y-34915728D01*
X78670880Y-35144536D01*
X78865465Y-35339121D01*
X79094273Y-35492006D01*
X79144358Y-35512752D01*
X79756000Y-36124394D01*
X80367642Y-35512752D01*
X80417727Y-35492006D01*
X80646535Y-35339121D01*
X80841120Y-35144536D01*
X80994005Y-34915728D01*
X81099314Y-34661491D01*
X81153000Y-34391593D01*
X81153000Y-34116409D01*
X81099314Y-33846511D01*
X80994005Y-33592274D01*
X80841120Y-33363466D01*
X80646535Y-33168881D01*
X80417727Y-33015996D01*
X80367647Y-32995252D01*
X79756000Y-32383605D01*
X79144353Y-32995252D01*
X79094273Y-33015996D01*
X78865465Y-33168881D01*
X78670880Y-33363466D01*
X78517995Y-33592274D01*
X78412686Y-33846511D01*
X78359000Y-34116409D01*
X66530764Y-34116409D01*
X66586732Y-34032648D01*
X66687254Y-33789967D01*
X66738500Y-33532337D01*
X66738500Y-33269661D01*
X66687254Y-33012031D01*
X66586732Y-32769350D01*
X66440797Y-32550942D01*
X66255057Y-32365202D01*
X66036649Y-32219267D01*
X65793968Y-32118745D01*
X65536338Y-32067499D01*
X65273662Y-32067499D01*
X65016032Y-32118745D01*
X64773351Y-32219267D01*
X64554943Y-32365202D01*
X64369203Y-32550942D01*
X64223268Y-32769350D01*
X64122746Y-33012031D01*
X64071500Y-33269661D01*
X60375000Y-33269661D01*
X60375000Y-31674062D01*
X61068000Y-31674062D01*
X61068000Y-31877940D01*
X61107774Y-32077899D01*
X61185795Y-32266257D01*
X61299063Y-32435775D01*
X61443226Y-32579938D01*
X61612744Y-32693206D01*
X61801102Y-32771227D01*
X62001061Y-32811001D01*
X62204939Y-32811001D01*
X62404898Y-32771227D01*
X62593256Y-32693206D01*
X62762774Y-32579938D01*
X62906937Y-32435775D01*
X63020205Y-32266257D01*
X63098226Y-32077899D01*
X63138000Y-31877940D01*
X63138000Y-31674062D01*
X63098226Y-31474103D01*
X63020205Y-31285745D01*
X62906937Y-31116227D01*
X62762774Y-30972064D01*
X62593256Y-30858796D01*
X62404898Y-30780775D01*
X62365811Y-30773000D01*
X68996928Y-30773000D01*
X68996928Y-32473000D01*
X69009188Y-32597482D01*
X69045498Y-32717180D01*
X69104463Y-32827494D01*
X69183815Y-32924185D01*
X69280506Y-33003537D01*
X69390820Y-33062502D01*
X69471466Y-33086966D01*
X69387412Y-33162731D01*
X69213359Y-33396080D01*
X69088175Y-33658901D01*
X69043524Y-33806110D01*
X69164845Y-34036000D01*
X70358000Y-34036000D01*
X70358000Y-34016000D01*
X70612000Y-34016000D01*
X70612000Y-34036000D01*
X71805155Y-34036000D01*
X71926476Y-33806110D01*
X71881825Y-33658901D01*
X71756641Y-33396080D01*
X71582588Y-33162731D01*
X71498534Y-33086966D01*
X71579180Y-33062502D01*
X71689494Y-33003537D01*
X71786185Y-32924185D01*
X71865537Y-32827494D01*
X71924502Y-32717180D01*
X71960812Y-32597482D01*
X71973072Y-32473000D01*
X71973072Y-30793000D01*
X72679928Y-30793000D01*
X72679928Y-32493000D01*
X72692188Y-32617482D01*
X72728498Y-32737180D01*
X72787463Y-32847494D01*
X72866815Y-32944185D01*
X72963506Y-33023537D01*
X73073820Y-33082502D01*
X73154466Y-33106966D01*
X73070412Y-33182731D01*
X72896359Y-33416080D01*
X72771175Y-33678901D01*
X72726524Y-33826110D01*
X72847845Y-34056000D01*
X74041000Y-34056000D01*
X74041000Y-34036000D01*
X74295000Y-34036000D01*
X74295000Y-34056000D01*
X75488155Y-34056000D01*
X75609476Y-33826110D01*
X75564825Y-33678901D01*
X75439641Y-33416080D01*
X75265588Y-33182731D01*
X75181534Y-33106966D01*
X75262180Y-33082502D01*
X75372494Y-33023537D01*
X75469185Y-32944185D01*
X75548537Y-32847494D01*
X75607502Y-32737180D01*
X75643812Y-32617482D01*
X75656072Y-32493000D01*
X75656072Y-32276017D01*
X78354090Y-32276017D01*
X78395078Y-32548133D01*
X78488364Y-32807023D01*
X78550344Y-32922980D01*
X78790435Y-32989960D01*
X79576395Y-32204000D01*
X79935605Y-32204000D01*
X80721565Y-32989960D01*
X80961656Y-32922980D01*
X81078756Y-32673952D01*
X81145023Y-32406865D01*
X81157910Y-32131983D01*
X81116922Y-31859867D01*
X81023636Y-31600977D01*
X80961656Y-31485020D01*
X80721565Y-31418040D01*
X79935605Y-32204000D01*
X79576395Y-32204000D01*
X78790435Y-31418040D01*
X78550344Y-31485020D01*
X78433244Y-31734048D01*
X78366977Y-32001135D01*
X78354090Y-32276017D01*
X75656072Y-32276017D01*
X75656072Y-31238435D01*
X78970040Y-31238435D01*
X79756000Y-32024395D01*
X80541960Y-31238435D01*
X80474980Y-30998344D01*
X80225952Y-30881244D01*
X79958865Y-30814977D01*
X79683983Y-30802090D01*
X79411867Y-30843078D01*
X79152977Y-30936364D01*
X79037020Y-30998344D01*
X78970040Y-31238435D01*
X75656072Y-31238435D01*
X75656072Y-30793000D01*
X75643812Y-30668518D01*
X75607502Y-30548820D01*
X75548537Y-30438506D01*
X75469185Y-30341815D01*
X75372494Y-30262463D01*
X75262180Y-30203498D01*
X75142482Y-30167188D01*
X75018000Y-30154928D01*
X73318000Y-30154928D01*
X73193518Y-30167188D01*
X73073820Y-30203498D01*
X72963506Y-30262463D01*
X72866815Y-30341815D01*
X72787463Y-30438506D01*
X72728498Y-30548820D01*
X72692188Y-30668518D01*
X72679928Y-30793000D01*
X71973072Y-30793000D01*
X71973072Y-30773000D01*
X71960812Y-30648518D01*
X71924502Y-30528820D01*
X71865537Y-30418506D01*
X71786185Y-30321815D01*
X71689494Y-30242463D01*
X71579180Y-30183498D01*
X71459482Y-30147188D01*
X71335000Y-30134928D01*
X69635000Y-30134928D01*
X69510518Y-30147188D01*
X69390820Y-30183498D01*
X69280506Y-30242463D01*
X69183815Y-30321815D01*
X69104463Y-30418506D01*
X69045498Y-30528820D01*
X69009188Y-30648518D01*
X68996928Y-30773000D01*
X62365811Y-30773000D01*
X62204939Y-30741001D01*
X62001061Y-30741001D01*
X61801102Y-30780775D01*
X61612744Y-30858796D01*
X61443226Y-30972064D01*
X61299063Y-31116227D01*
X61185795Y-31285745D01*
X61107774Y-31474103D01*
X61068000Y-31674062D01*
X60375000Y-31674062D01*
X60375000Y-28293772D01*
X60542136Y-28543909D01*
X61118091Y-29119864D01*
X61795343Y-29572389D01*
X62547865Y-29884094D01*
X63346738Y-30043000D01*
X64161262Y-30043000D01*
X64960135Y-29884094D01*
X65712657Y-29572389D01*
X66389909Y-29119864D01*
X66903576Y-28606197D01*
X70395407Y-28606197D01*
X70454685Y-28839812D01*
X70692874Y-28950559D01*
X70948092Y-29012711D01*
X71210532Y-29023876D01*
X71470106Y-28983629D01*
X71716841Y-28893514D01*
X71817313Y-28839812D01*
X71876591Y-28606197D01*
X71135999Y-27865605D01*
X70395407Y-28606197D01*
X66903576Y-28606197D01*
X66965864Y-28543909D01*
X67418389Y-27866657D01*
X67462347Y-27760533D01*
X69798123Y-27760533D01*
X69838370Y-28020107D01*
X69928485Y-28266842D01*
X69982187Y-28367314D01*
X70215802Y-28426592D01*
X70956394Y-27686000D01*
X71315604Y-27686000D01*
X71968397Y-28338793D01*
X72100204Y-28536057D01*
X72285944Y-28721797D01*
X72504352Y-28867732D01*
X72747033Y-28968254D01*
X73004663Y-29019500D01*
X73267339Y-29019500D01*
X73524969Y-28968254D01*
X73767650Y-28867732D01*
X73986058Y-28721797D01*
X74171798Y-28536057D01*
X74317733Y-28317649D01*
X74418255Y-28074968D01*
X74469501Y-27817338D01*
X74469501Y-27554662D01*
X74418255Y-27297032D01*
X74317733Y-27054351D01*
X74171798Y-26835943D01*
X73986058Y-26650203D01*
X73767650Y-26504268D01*
X73524969Y-26403746D01*
X73267339Y-26352500D01*
X73004663Y-26352500D01*
X72747033Y-26403746D01*
X72504352Y-26504268D01*
X72285944Y-26650203D01*
X72100204Y-26835943D01*
X71968397Y-27033207D01*
X71315604Y-27686000D01*
X70956394Y-27686000D01*
X70215802Y-26945408D01*
X69982187Y-27004686D01*
X69871440Y-27242875D01*
X69809288Y-27498093D01*
X69798123Y-27760533D01*
X67462347Y-27760533D01*
X67730094Y-27114135D01*
X67799381Y-26765803D01*
X70395407Y-26765803D01*
X71135999Y-27506395D01*
X71876591Y-26765803D01*
X71817313Y-26532188D01*
X71579124Y-26421441D01*
X71323906Y-26359289D01*
X71061466Y-26348124D01*
X70801892Y-26388371D01*
X70555157Y-26478486D01*
X70454685Y-26532188D01*
X70395407Y-26765803D01*
X67799381Y-26765803D01*
X67889000Y-26315262D01*
X67889000Y-25500738D01*
X67730094Y-24701865D01*
X67661416Y-24536061D01*
X68459999Y-24536061D01*
X68459999Y-24739939D01*
X68499773Y-24939898D01*
X68577794Y-25128256D01*
X68691062Y-25297774D01*
X68835225Y-25441937D01*
X69004743Y-25555205D01*
X69193101Y-25633226D01*
X69393060Y-25673000D01*
X69596938Y-25673000D01*
X69796897Y-25633226D01*
X69985255Y-25555205D01*
X70154773Y-25441937D01*
X70298936Y-25297774D01*
X70412204Y-25128256D01*
X70490225Y-24939898D01*
X70529999Y-24739939D01*
X70529999Y-24536061D01*
X71100999Y-24536061D01*
X71100999Y-24739939D01*
X71140773Y-24939898D01*
X71218794Y-25128256D01*
X71332062Y-25297774D01*
X71476225Y-25441937D01*
X71645743Y-25555205D01*
X71834101Y-25633226D01*
X72034060Y-25673000D01*
X72237938Y-25673000D01*
X72437897Y-25633226D01*
X72626255Y-25555205D01*
X72795773Y-25441937D01*
X72939936Y-25297774D01*
X73053204Y-25128256D01*
X73131225Y-24939898D01*
X73170999Y-24739939D01*
X73170999Y-24536061D01*
X73741999Y-24536061D01*
X73741999Y-24739939D01*
X73781773Y-24939898D01*
X73859794Y-25128256D01*
X73973062Y-25297774D01*
X74117225Y-25441937D01*
X74286743Y-25555205D01*
X74475101Y-25633226D01*
X74675060Y-25673000D01*
X74878938Y-25673000D01*
X75078897Y-25633226D01*
X75267255Y-25555205D01*
X75436773Y-25441937D01*
X75580936Y-25297774D01*
X75694204Y-25128256D01*
X75772225Y-24939898D01*
X75811999Y-24739939D01*
X75811999Y-24536061D01*
X75772225Y-24336102D01*
X75694204Y-24147744D01*
X75580936Y-23978226D01*
X75436773Y-23834063D01*
X75267255Y-23720795D01*
X75078897Y-23642774D01*
X74878938Y-23603000D01*
X74675060Y-23603000D01*
X74475101Y-23642774D01*
X74286743Y-23720795D01*
X74117225Y-23834063D01*
X73973062Y-23978226D01*
X73859794Y-24147744D01*
X73781773Y-24336102D01*
X73741999Y-24536061D01*
X73170999Y-24536061D01*
X73131225Y-24336102D01*
X73053204Y-24147744D01*
X72939936Y-23978226D01*
X72795773Y-23834063D01*
X72626255Y-23720795D01*
X72437897Y-23642774D01*
X72237938Y-23603000D01*
X72034060Y-23603000D01*
X71834101Y-23642774D01*
X71645743Y-23720795D01*
X71476225Y-23834063D01*
X71332062Y-23978226D01*
X71218794Y-24147744D01*
X71140773Y-24336102D01*
X71100999Y-24536061D01*
X70529999Y-24536061D01*
X70490225Y-24336102D01*
X70412204Y-24147744D01*
X70298936Y-23978226D01*
X70154773Y-23834063D01*
X69985255Y-23720795D01*
X69796897Y-23642774D01*
X69596938Y-23603000D01*
X69393060Y-23603000D01*
X69193101Y-23642774D01*
X69004743Y-23720795D01*
X68835225Y-23834063D01*
X68691062Y-23978226D01*
X68577794Y-24147744D01*
X68499773Y-24336102D01*
X68459999Y-24536061D01*
X67661416Y-24536061D01*
X67418389Y-23949343D01*
X66965864Y-23272091D01*
X66389909Y-22696136D01*
X66139772Y-22529000D01*
X78132228Y-22529000D01*
X77882091Y-22696136D01*
G37*
%TD.AperFunction*%
M02*
