M48
; DRILL file {KiCad 5.1.10} date Mon Dec 13 09:12:37 2021
; FORMAT={-:-/ absolute / metric / decimal}
; #@! TF.CreationDate,2021-12-13T09:12:37+01:00
; #@! TF.GenerationSoftware,Kicad,Pcbnew,5.1.10
; #@! TF.FileFunction,Plated,1,2,PTH
FMAT,2
METRIC
T1C0.400
T2C0.800
T3C0.889
T4C1.000
T5C1.016
T6C4.300
%
G90
G05
T1
X62.103Y-31.776
X62.103Y-36.864
X62.103Y-41.951
X62.103Y-47.039
X62.103Y-52.126
X62.103Y-57.214
X62.103Y-62.301
X62.103Y-67.389
X62.103Y-72.476
X62.103Y-77.564
X62.103Y-82.651
X62.738Y-86.106
X65.405Y-79.883
X67.945Y-29.591
X67.945Y-34.163
X68.072Y-86.106
X69.495Y-24.638
X69.495Y-89.916
X69.495Y-93.218
X72.136Y-24.638
X72.136Y-89.916
X72.136Y-93.218
X72.136Y-60.96
X72.263Y-29.591
X72.263Y-36.068
X72.263Y-86.106
X73.406Y-60.96
X74.676Y-60.96
X74.777Y-24.638
X74.777Y-89.916
X74.777Y-93.218
X75.946Y-27.686
X76.708Y-86.106
X76.962Y-32.893
X79.502Y-70.612
X79.502Y-78.232
X80.01Y-64.516
X81.026Y-42.164
X81.28Y-57.404
X81.661Y-46.355
X81.661Y-52.578
X82.042Y-86.106
T2
X69.215Y-49.276
X69.215Y-51.816
X69.215Y-54.356
X69.215Y-56.896
X69.215Y-59.436
X69.215Y-61.976
X69.215Y-64.516
X69.215Y-67.056
X69.215Y-69.596
X69.215Y-72.136
X69.215Y-74.676
X69.215Y-77.216
X69.215Y-79.756
X69.215Y-82.296
X76.835Y-49.276
X76.835Y-51.816
X76.835Y-54.356
X76.835Y-56.896
X76.835Y-59.436
X76.835Y-61.976
X76.835Y-64.516
X76.835Y-67.056
X76.835Y-69.596
X76.835Y-72.136
X76.835Y-74.676
X76.835Y-77.216
X76.835Y-79.756
X76.835Y-82.296
T3
X65.405Y-33.401
X65.405Y-35.401
X65.405Y-40.386
X65.405Y-42.386
X65.405Y-47.371
X65.405Y-49.371
X65.405Y-54.356
X65.405Y-56.356
X65.405Y-61.341
X65.405Y-63.341
X65.405Y-68.326
X65.405Y-70.326
X65.405Y-75.311
X65.405Y-77.311
X65.405Y-82.296
X65.405Y-84.296
X71.136Y-27.686
X73.136Y-27.686
X78.74Y-43.212
X78.74Y-45.212
T4
X70.358Y-37.846
X70.358Y-40.386
X70.358Y-42.926
X70.358Y-45.466
X70.485Y-31.623
X70.485Y-34.163
X74.168Y-31.643
X74.168Y-34.183
X74.168Y-37.846
X74.168Y-40.386
X74.168Y-42.926
X74.168Y-45.466
T5
X79.756Y-32.204
X79.756Y-34.254
X79.756Y-36.304
X79.756Y-38.354
T6
X63.754Y-25.908
X63.754Y-91.694
X80.518Y-25.908
X80.518Y-91.694
T0
M30
