M48
; DRILL file {KiCad 5.1.10} date Mon Dec 13 09:12:47 2021
; FORMAT={-:-/ absolute / metric / decimal}
; #@! TF.CreationDate,2021-12-13T09:12:47+01:00
; #@! TF.GenerationSoftware,Kicad,Pcbnew,5.1.10
; #@! TF.FileFunction,Plated,1,2,PTH
FMAT,2
METRIC
T1C0.400
T2C0.800
T3C0.889
T4C1.000
T5C1.016
%
G90
G05
T1
X131.445Y-63.5
X131.445Y-67.945
X131.445Y-71.755
X132.08Y-56.515
X132.715Y-78.74
X132.715Y-94.615
X132.715Y-97.79
X134.62Y-81.28
X135.255Y-90.17
X135.255Y-94.615
X135.89Y-85.725
X135.89Y-103.505
X136.525Y-78.74
X137.16Y-63.5
X137.16Y-90.17
X138.176Y-110.49
X138.43Y-85.725
X138.684Y-57.15
X139.065Y-97.79
X139.065Y-103.505
X141.224Y-68.072
X141.224Y-72.136
X141.605Y-97.79
X141.605Y-100.965
X141.605Y-103.505
X142.24Y-62.23
X142.24Y-77.47
X142.24Y-82.55
X142.24Y-90.17
X142.24Y-93.345
X147.32Y-108.585
X147.955Y-99.695
X149.225Y-106.68
X151.13Y-104.14
X154.305Y-59.055
X154.305Y-64.135
X154.305Y-69.215
X154.305Y-74.295
X154.305Y-79.375
X154.305Y-84.455
X154.305Y-89.535
X154.305Y-94.615
X154.305Y-99.695
X154.305Y-104.14
X154.305Y-106.68
X158.115Y-106.045
X159.385Y-59.055
X159.385Y-64.135
X159.385Y-69.215
X159.385Y-74.295
X159.385Y-79.375
X159.385Y-84.455
X159.385Y-89.535
X159.385Y-94.615
X160.655Y-97.79
X160.655Y-107.95
X163.83Y-100.33
X165.1Y-59.055
X165.1Y-64.135
X165.1Y-69.215
X165.1Y-74.295
X165.1Y-79.375
X165.1Y-84.455
X165.1Y-89.535
T2
X144.784Y-57.153
X144.784Y-59.693
X144.784Y-62.233
X144.784Y-64.773
X144.784Y-67.313
X144.784Y-69.853
X144.784Y-72.393
X144.784Y-74.933
X144.784Y-77.473
X144.784Y-80.013
X144.784Y-82.553
X144.784Y-85.093
X144.784Y-87.633
X144.784Y-90.173
X144.784Y-92.713
X144.784Y-95.253
X144.784Y-97.793
X144.784Y-100.333
X144.784Y-102.873
X144.784Y-105.413
X144.784Y-107.953
X170.184Y-57.153
X170.184Y-59.693
X170.184Y-62.233
X170.184Y-64.773
X170.184Y-67.313
X170.184Y-69.853
X170.184Y-72.393
X170.184Y-74.933
X170.184Y-77.473
X170.184Y-80.013
X170.184Y-82.553
X170.184Y-85.093
X170.184Y-87.633
X170.184Y-90.173
X170.184Y-92.713
X170.184Y-95.253
X170.184Y-97.793
X170.184Y-100.333
X170.184Y-102.873
X170.184Y-105.413
X170.184Y-107.953
T3
X131.35Y-59.69
X133.35Y-59.69
X134.62Y-67.215
X134.62Y-69.215
X134.62Y-74.2
X134.62Y-76.2
X138.208Y-59.69
X140.208Y-59.69
T4
X146.685Y-111.125
X149.225Y-111.125
X151.765Y-111.125
X154.305Y-111.125
X159.385Y-111.125
X161.925Y-111.125
X164.465Y-111.125
X167.005Y-111.125
X169.545Y-111.125
T5
X132.715Y-83.675
X132.715Y-85.725
X132.715Y-87.775
X132.715Y-89.825
X132.715Y-100.965
X132.715Y-107.95
X134.765Y-100.965
X134.765Y-107.95
X136.815Y-100.965
X136.815Y-107.95
X138.865Y-100.965
X138.865Y-107.95
T0
M30
