%TF.GenerationSoftware,KiCad,Pcbnew,5.1.10*%
%TF.CreationDate,2021-12-13T09:12:43+01:00*%
%TF.ProjectId,main_board,6d61696e-5f62-46f6-9172-642e6b696361,rev?*%
%TF.SameCoordinates,Original*%
%TF.FileFunction,Soldermask,Top*%
%TF.FilePolarity,Negative*%
%FSLAX46Y46*%
G04 Gerber Fmt 4.6, Leading zero omitted, Abs format (unit mm)*
G04 Created by KiCad (PCBNEW 5.1.10) date 2021-12-13 09:12:43*
%MOMM*%
%LPD*%
G01*
G04 APERTURE LIST*
%ADD10O,1.700000X1.700000*%
%ADD11R,1.700000X1.700000*%
%ADD12C,1.397000*%
%ADD13O,2.000000X1.200000*%
%ADD14C,1.524000*%
G04 APERTURE END LIST*
D10*
X159385000Y-111125000D03*
X161925000Y-111125000D03*
X164465000Y-111125000D03*
X167005000Y-111125000D03*
D11*
X169545000Y-111125000D03*
D12*
X133350001Y-59690000D03*
X131349999Y-59690000D03*
X134620000Y-74199998D03*
X134620000Y-76200000D03*
X134620000Y-67214998D03*
X134620000Y-69215000D03*
X140208001Y-59690000D03*
X138207999Y-59690000D03*
G36*
G01*
X169483680Y-56552720D02*
X170883680Y-56552720D01*
G75*
G02*
X171183680Y-56852720I0J-300000D01*
G01*
X171183680Y-57452720D01*
G75*
G02*
X170883680Y-57752720I-300000J0D01*
G01*
X169483680Y-57752720D01*
G75*
G02*
X169183680Y-57452720I0J300000D01*
G01*
X169183680Y-56852720D01*
G75*
G02*
X169483680Y-56552720I300000J0D01*
G01*
G37*
D13*
X170183680Y-59692720D03*
X170183680Y-62232720D03*
X170183680Y-64772720D03*
X170183680Y-67312720D03*
X170183680Y-69852720D03*
X170183680Y-72392720D03*
X170183680Y-74932720D03*
X170183680Y-77472720D03*
X170183680Y-80012720D03*
X170183680Y-82552720D03*
X170183680Y-85092720D03*
X170183680Y-87632720D03*
X170183680Y-90172720D03*
X170183680Y-92712720D03*
X170183680Y-95252720D03*
X170183680Y-97792720D03*
X170183680Y-100332720D03*
X170183680Y-102872720D03*
X170183680Y-105412720D03*
X170183680Y-107952720D03*
G36*
G01*
X144083680Y-107352720D02*
X145483680Y-107352720D01*
G75*
G02*
X145783680Y-107652720I0J-300000D01*
G01*
X145783680Y-108252720D01*
G75*
G02*
X145483680Y-108552720I-300000J0D01*
G01*
X144083680Y-108552720D01*
G75*
G02*
X143783680Y-108252720I0J300000D01*
G01*
X143783680Y-107652720D01*
G75*
G02*
X144083680Y-107352720I300000J0D01*
G01*
G37*
X144783680Y-105412720D03*
X144783680Y-102872720D03*
X144783680Y-100332720D03*
X144783680Y-97792720D03*
X144783680Y-95252720D03*
X144783680Y-92712720D03*
X144783680Y-90172720D03*
X144783680Y-87632720D03*
X144783680Y-85092720D03*
X144783680Y-82552720D03*
X144783680Y-80012720D03*
X144783680Y-77472720D03*
X144783680Y-74932720D03*
X144783680Y-72392720D03*
X144783680Y-69852720D03*
X144783680Y-67312720D03*
X144783680Y-64772720D03*
X144783680Y-62232720D03*
X144783680Y-59692720D03*
X144783680Y-57152720D03*
G36*
G01*
X139075000Y-80630000D02*
X140325000Y-80630000D01*
G75*
G02*
X140575000Y-80880000I0J-250000D01*
G01*
X140575000Y-81680000D01*
G75*
G02*
X140325000Y-81930000I-250000J0D01*
G01*
X139075000Y-81930000D01*
G75*
G02*
X138825000Y-81680000I0J250000D01*
G01*
X138825000Y-80880000D01*
G75*
G02*
X139075000Y-80630000I250000J0D01*
G01*
G37*
G36*
G01*
X139075000Y-77530000D02*
X140325000Y-77530000D01*
G75*
G02*
X140575000Y-77780000I0J-250000D01*
G01*
X140575000Y-78580000D01*
G75*
G02*
X140325000Y-78830000I-250000J0D01*
G01*
X139075000Y-78830000D01*
G75*
G02*
X138825000Y-78580000I0J250000D01*
G01*
X138825000Y-77780000D01*
G75*
G02*
X139075000Y-77530000I250000J0D01*
G01*
G37*
G36*
G01*
X139075000Y-91985000D02*
X140325000Y-91985000D01*
G75*
G02*
X140575000Y-92235000I0J-250000D01*
G01*
X140575000Y-93035000D01*
G75*
G02*
X140325000Y-93285000I-250000J0D01*
G01*
X139075000Y-93285000D01*
G75*
G02*
X138825000Y-93035000I0J250000D01*
G01*
X138825000Y-92235000D01*
G75*
G02*
X139075000Y-91985000I250000J0D01*
G01*
G37*
G36*
G01*
X139075000Y-88885000D02*
X140325000Y-88885000D01*
G75*
G02*
X140575000Y-89135000I0J-250000D01*
G01*
X140575000Y-89935000D01*
G75*
G02*
X140325000Y-90185000I-250000J0D01*
G01*
X139075000Y-90185000D01*
G75*
G02*
X138825000Y-89935000I0J250000D01*
G01*
X138825000Y-89135000D01*
G75*
G02*
X139075000Y-88885000I250000J0D01*
G01*
G37*
D14*
X132715000Y-100965000D03*
X134765001Y-100965000D03*
X136814999Y-100965000D03*
X138865000Y-100965000D03*
X132715000Y-107950000D03*
X134765001Y-107950000D03*
X136814999Y-107950000D03*
X138865000Y-107950000D03*
D10*
X146685000Y-111125000D03*
X149225000Y-111125000D03*
X151765000Y-111125000D03*
D11*
X154305000Y-111125000D03*
D14*
X132715000Y-83674999D03*
X132715000Y-85725000D03*
X132715000Y-87774998D03*
X132715000Y-89824999D03*
M02*
