%TF.GenerationSoftware,KiCad,Pcbnew,5.1.10*%
%TF.CreationDate,2021-12-13T09:12:43+01:00*%
%TF.ProjectId,main_board,6d61696e-5f62-46f6-9172-642e6b696361,rev?*%
%TF.SameCoordinates,Original*%
%TF.FileFunction,Legend,Bot*%
%TF.FilePolarity,Positive*%
%FSLAX46Y46*%
G04 Gerber Fmt 4.6, Leading zero omitted, Abs format (unit mm)*
G04 Created by KiCad (PCBNEW 5.1.10) date 2021-12-13 09:12:43*
%MOMM*%
%LPD*%
G01*
G04 APERTURE LIST*
%ADD10C,0.300000*%
%ADD11C,0.150000*%
%ADD12C,0.100000*%
%ADD13C,0.120000*%
%ADD14O,1.700000X1.700000*%
%ADD15R,1.700000X1.700000*%
%ADD16C,1.397000*%
%ADD17O,2.000000X1.200000*%
%ADD18C,1.524000*%
G04 APERTURE END LIST*
D10*
X158037615Y-80265151D02*
X156737615Y-80265151D01*
X158037615Y-80908008D02*
X157356662Y-80908008D01*
X157232853Y-80836580D01*
X157170948Y-80693722D01*
X157170948Y-80479437D01*
X157232853Y-80336580D01*
X157294758Y-80265151D01*
X157970302Y-82151980D02*
X158041731Y-82009122D01*
X158041731Y-81723408D01*
X157970302Y-81580551D01*
X157827445Y-81509122D01*
X157256017Y-81509122D01*
X157113160Y-81580551D01*
X157041731Y-81723408D01*
X157041731Y-82009122D01*
X157113160Y-82151980D01*
X157256017Y-82223408D01*
X157398874Y-82223408D01*
X157541731Y-81509122D01*
X157970302Y-82794837D02*
X158041731Y-82937694D01*
X158041731Y-83223408D01*
X157970302Y-83366265D01*
X157827445Y-83437694D01*
X157756017Y-83437694D01*
X157613160Y-83366265D01*
X157541731Y-83223408D01*
X157541731Y-83009122D01*
X157470302Y-82866265D01*
X157327445Y-82794837D01*
X157256017Y-82794837D01*
X157113160Y-82866265D01*
X157041731Y-83009122D01*
X157041731Y-83223408D01*
X157113160Y-83366265D01*
X158041731Y-84294837D02*
X157970302Y-84151980D01*
X157898874Y-84080551D01*
X157756017Y-84009122D01*
X157327445Y-84009122D01*
X157184588Y-84080551D01*
X157113160Y-84151980D01*
X157041731Y-84294837D01*
X157041731Y-84509122D01*
X157113160Y-84651980D01*
X157184588Y-84723408D01*
X157327445Y-84794837D01*
X157756017Y-84794837D01*
X157898874Y-84723408D01*
X157970302Y-84651980D01*
X158041731Y-84509122D01*
X158041731Y-84294837D01*
X157988000Y-80264000D02*
X155602940Y-80264000D01*
X156475871Y-84717442D02*
X155609204Y-84312680D01*
X156475871Y-83907919D01*
X155609204Y-82531728D02*
X156290157Y-82531728D01*
X156413966Y-82612680D01*
X156475871Y-82774585D01*
X156475871Y-83098395D01*
X156413966Y-83260300D01*
X155671109Y-82531728D02*
X155609204Y-82693633D01*
X155609204Y-83098395D01*
X155671109Y-83260300D01*
X155794919Y-83341252D01*
X155918728Y-83341252D01*
X156042538Y-83260300D01*
X156104442Y-83098395D01*
X156104442Y-82693633D01*
X156166347Y-82531728D01*
X155609204Y-81722204D02*
X156475871Y-81722204D01*
X156352061Y-81722204D02*
X156413966Y-81641252D01*
X156475871Y-81479347D01*
X156475871Y-81236490D01*
X156413966Y-81074585D01*
X156290157Y-80993633D01*
X155609204Y-80993633D01*
X156290157Y-80993633D02*
X156413966Y-80912680D01*
X156475871Y-80750776D01*
X156475871Y-80507919D01*
X156413966Y-80346014D01*
X156290157Y-80265061D01*
X155609204Y-80265061D01*
X155564840Y-85298280D02*
G75*
G03*
X157707123Y-85396668I1172004J2146971D01*
G01*
X155600842Y-84333816D02*
G75*
G03*
X155528232Y-85275955I136718J-484404D01*
G01*
D11*
X164790380Y-57681904D02*
X163790380Y-57681904D01*
X164790380Y-58158095D02*
X163790380Y-58158095D01*
X163790380Y-58396190D01*
X163838000Y-58539047D01*
X163933238Y-58634285D01*
X164028476Y-58681904D01*
X164218952Y-58729523D01*
X164361809Y-58729523D01*
X164552285Y-58681904D01*
X164647523Y-58634285D01*
X164742761Y-58539047D01*
X164790380Y-58396190D01*
X164790380Y-58158095D01*
X164695142Y-59158095D02*
X164742761Y-59205714D01*
X164790380Y-59158095D01*
X164742761Y-59110476D01*
X164695142Y-59158095D01*
X164790380Y-59158095D01*
X164171333Y-59158095D02*
X164218952Y-59205714D01*
X164266571Y-59158095D01*
X164218952Y-59110476D01*
X164171333Y-59158095D01*
X164266571Y-59158095D01*
D12*
G36*
X163195000Y-60073720D02*
G01*
X165481000Y-60073720D01*
X165735000Y-59438720D01*
X167132000Y-59438720D01*
X167132000Y-105158720D01*
X161544000Y-105158720D01*
X161544000Y-59438720D01*
X162941000Y-59438720D01*
X163195000Y-60073720D01*
G37*
X163195000Y-60073720D02*
X165481000Y-60073720D01*
X165735000Y-59438720D01*
X167132000Y-59438720D01*
X167132000Y-105158720D01*
X161544000Y-105158720D01*
X161544000Y-59438720D01*
X162941000Y-59438720D01*
X163195000Y-60073720D01*
D10*
X151808571Y-65974571D02*
X150308571Y-65974571D01*
X151380000Y-66474571D01*
X150308571Y-66974571D01*
X151808571Y-66974571D01*
X151808571Y-67688857D02*
X150308571Y-67688857D01*
X151808571Y-69260285D02*
X151094285Y-68760285D01*
X151808571Y-68403142D02*
X150308571Y-68403142D01*
X150308571Y-68974571D01*
X150380000Y-69117428D01*
X150451428Y-69188857D01*
X150594285Y-69260285D01*
X150808571Y-69260285D01*
X150951428Y-69188857D01*
X151022857Y-69117428D01*
X151094285Y-68974571D01*
X151094285Y-68403142D01*
X150308571Y-70188857D02*
X150308571Y-70474571D01*
X150380000Y-70617428D01*
X150522857Y-70760285D01*
X150808571Y-70831714D01*
X151308571Y-70831714D01*
X151594285Y-70760285D01*
X151737142Y-70617428D01*
X151808571Y-70474571D01*
X151808571Y-70188857D01*
X151737142Y-70046000D01*
X151594285Y-69903142D01*
X151308571Y-69831714D01*
X150808571Y-69831714D01*
X150522857Y-69903142D01*
X150380000Y-70046000D01*
X150308571Y-70188857D01*
X151737142Y-71403142D02*
X151808571Y-71617428D01*
X151808571Y-71974571D01*
X151737142Y-72117428D01*
X151665714Y-72188857D01*
X151522857Y-72260285D01*
X151380000Y-72260285D01*
X151237142Y-72188857D01*
X151165714Y-72117428D01*
X151094285Y-71974571D01*
X151022857Y-71688857D01*
X150951428Y-71546000D01*
X150880000Y-71474571D01*
X150737142Y-71403142D01*
X150594285Y-71403142D01*
X150451428Y-71474571D01*
X150380000Y-71546000D01*
X150308571Y-71688857D01*
X150308571Y-72046000D01*
X150380000Y-72260285D01*
X151808571Y-73617428D02*
X151808571Y-72903142D01*
X150308571Y-72903142D01*
X151380000Y-74046000D02*
X151380000Y-74760285D01*
X151808571Y-73903142D02*
X150308571Y-74403142D01*
X151808571Y-74903142D01*
X150308571Y-75188857D02*
X151808571Y-75688857D01*
X150308571Y-76188857D01*
X150808571Y-77688857D02*
X151808571Y-78046000D01*
X150808571Y-78403142D01*
X150308571Y-79260285D02*
X150308571Y-79403142D01*
X150380000Y-79546000D01*
X150451428Y-79617428D01*
X150594285Y-79688857D01*
X150880000Y-79760285D01*
X151237142Y-79760285D01*
X151522857Y-79688857D01*
X151665714Y-79617428D01*
X151737142Y-79546000D01*
X151808571Y-79403142D01*
X151808571Y-79260285D01*
X151737142Y-79117428D01*
X151665714Y-79046000D01*
X151522857Y-78974571D01*
X151237142Y-78903142D01*
X150880000Y-78903142D01*
X150594285Y-78974571D01*
X150451428Y-79046000D01*
X150380000Y-79117428D01*
X150308571Y-79260285D01*
X151665714Y-80403142D02*
X151737142Y-80474571D01*
X151808571Y-80403142D01*
X151737142Y-80331714D01*
X151665714Y-80403142D01*
X151808571Y-80403142D01*
X150808571Y-81760285D02*
X151808571Y-81760285D01*
X150237142Y-81403142D02*
X151308571Y-81046000D01*
X151308571Y-81974571D01*
X151237142Y-83688857D02*
X151237142Y-84831714D01*
X151808571Y-86688857D02*
X150308571Y-86688857D01*
X151380000Y-87188857D01*
X150308571Y-87688857D01*
X151808571Y-87688857D01*
X151808571Y-89046000D02*
X151022857Y-89046000D01*
X150880000Y-88974571D01*
X150808571Y-88831714D01*
X150808571Y-88546000D01*
X150880000Y-88403142D01*
X151737142Y-89046000D02*
X151808571Y-88903142D01*
X151808571Y-88546000D01*
X151737142Y-88403142D01*
X151594285Y-88331714D01*
X151451428Y-88331714D01*
X151308571Y-88403142D01*
X151237142Y-88546000D01*
X151237142Y-88903142D01*
X151165714Y-89046000D01*
X151808571Y-89760285D02*
X150808571Y-89760285D01*
X150308571Y-89760285D02*
X150380000Y-89688857D01*
X150451428Y-89760285D01*
X150380000Y-89831714D01*
X150308571Y-89760285D01*
X150451428Y-89760285D01*
X150808571Y-90474571D02*
X151808571Y-90474571D01*
X150951428Y-90474571D02*
X150880000Y-90546000D01*
X150808571Y-90688857D01*
X150808571Y-90903142D01*
X150880000Y-91046000D01*
X151022857Y-91117428D01*
X151808571Y-91117428D01*
X151808571Y-92974571D02*
X150308571Y-92974571D01*
X150880000Y-92974571D02*
X150808571Y-93117428D01*
X150808571Y-93403142D01*
X150880000Y-93546000D01*
X150951428Y-93617428D01*
X151094285Y-93688857D01*
X151522857Y-93688857D01*
X151665714Y-93617428D01*
X151737142Y-93546000D01*
X151808571Y-93403142D01*
X151808571Y-93117428D01*
X151737142Y-92974571D01*
X151808571Y-94546000D02*
X151737142Y-94403142D01*
X151665714Y-94331714D01*
X151522857Y-94260285D01*
X151094285Y-94260285D01*
X150951428Y-94331714D01*
X150880000Y-94403142D01*
X150808571Y-94546000D01*
X150808571Y-94760285D01*
X150880000Y-94903142D01*
X150951428Y-94974571D01*
X151094285Y-95046000D01*
X151522857Y-95046000D01*
X151665714Y-94974571D01*
X151737142Y-94903142D01*
X151808571Y-94760285D01*
X151808571Y-94546000D01*
X151808571Y-96331714D02*
X151022857Y-96331714D01*
X150880000Y-96260285D01*
X150808571Y-96117428D01*
X150808571Y-95831714D01*
X150880000Y-95688857D01*
X151737142Y-96331714D02*
X151808571Y-96188857D01*
X151808571Y-95831714D01*
X151737142Y-95688857D01*
X151594285Y-95617428D01*
X151451428Y-95617428D01*
X151308571Y-95688857D01*
X151237142Y-95831714D01*
X151237142Y-96188857D01*
X151165714Y-96331714D01*
X151808571Y-97046000D02*
X150808571Y-97046000D01*
X151094285Y-97046000D02*
X150951428Y-97117428D01*
X150880000Y-97188857D01*
X150808571Y-97331714D01*
X150808571Y-97474571D01*
X151808571Y-98617428D02*
X150308571Y-98617428D01*
X151737142Y-98617428D02*
X151808571Y-98474571D01*
X151808571Y-98188857D01*
X151737142Y-98046000D01*
X151665714Y-97974571D01*
X151522857Y-97903142D01*
X151094285Y-97903142D01*
X150951428Y-97974571D01*
X150880000Y-98046000D01*
X150808571Y-98188857D01*
X150808571Y-98474571D01*
X150880000Y-98617428D01*
D13*
X133096000Y-102870000D02*
G75*
G03*
X133096000Y-102870000I-381000J0D01*
G01*
X133096000Y-109855000D02*
G75*
G03*
X133096000Y-109855000I-381000J0D01*
G01*
X131191000Y-83674999D02*
G75*
G03*
X131191000Y-83674999I-381000J0D01*
G01*
%LPC*%
D14*
X159385000Y-111125000D03*
X161925000Y-111125000D03*
X164465000Y-111125000D03*
X167005000Y-111125000D03*
D15*
X169545000Y-111125000D03*
D16*
X133350001Y-59690000D03*
X131349999Y-59690000D03*
X134620000Y-74199998D03*
X134620000Y-76200000D03*
X134620000Y-67214998D03*
X134620000Y-69215000D03*
X140208001Y-59690000D03*
X138207999Y-59690000D03*
G36*
G01*
X169483680Y-56552720D02*
X170883680Y-56552720D01*
G75*
G02*
X171183680Y-56852720I0J-300000D01*
G01*
X171183680Y-57452720D01*
G75*
G02*
X170883680Y-57752720I-300000J0D01*
G01*
X169483680Y-57752720D01*
G75*
G02*
X169183680Y-57452720I0J300000D01*
G01*
X169183680Y-56852720D01*
G75*
G02*
X169483680Y-56552720I300000J0D01*
G01*
G37*
D17*
X170183680Y-59692720D03*
X170183680Y-62232720D03*
X170183680Y-64772720D03*
X170183680Y-67312720D03*
X170183680Y-69852720D03*
X170183680Y-72392720D03*
X170183680Y-74932720D03*
X170183680Y-77472720D03*
X170183680Y-80012720D03*
X170183680Y-82552720D03*
X170183680Y-85092720D03*
X170183680Y-87632720D03*
X170183680Y-90172720D03*
X170183680Y-92712720D03*
X170183680Y-95252720D03*
X170183680Y-97792720D03*
X170183680Y-100332720D03*
X170183680Y-102872720D03*
X170183680Y-105412720D03*
X170183680Y-107952720D03*
G36*
G01*
X144083680Y-107352720D02*
X145483680Y-107352720D01*
G75*
G02*
X145783680Y-107652720I0J-300000D01*
G01*
X145783680Y-108252720D01*
G75*
G02*
X145483680Y-108552720I-300000J0D01*
G01*
X144083680Y-108552720D01*
G75*
G02*
X143783680Y-108252720I0J300000D01*
G01*
X143783680Y-107652720D01*
G75*
G02*
X144083680Y-107352720I300000J0D01*
G01*
G37*
X144783680Y-105412720D03*
X144783680Y-102872720D03*
X144783680Y-100332720D03*
X144783680Y-97792720D03*
X144783680Y-95252720D03*
X144783680Y-92712720D03*
X144783680Y-90172720D03*
X144783680Y-87632720D03*
X144783680Y-85092720D03*
X144783680Y-82552720D03*
X144783680Y-80012720D03*
X144783680Y-77472720D03*
X144783680Y-74932720D03*
X144783680Y-72392720D03*
X144783680Y-69852720D03*
X144783680Y-67312720D03*
X144783680Y-64772720D03*
X144783680Y-62232720D03*
X144783680Y-59692720D03*
X144783680Y-57152720D03*
D18*
X132715000Y-100965000D03*
X134765001Y-100965000D03*
X136814999Y-100965000D03*
X138865000Y-100965000D03*
X132715000Y-107950000D03*
X134765001Y-107950000D03*
X136814999Y-107950000D03*
X138865000Y-107950000D03*
D14*
X146685000Y-111125000D03*
X149225000Y-111125000D03*
X151765000Y-111125000D03*
D15*
X154305000Y-111125000D03*
D18*
X132715000Y-83674999D03*
X132715000Y-85725000D03*
X132715000Y-87774998D03*
X132715000Y-89824999D03*
M02*
