%TF.GenerationSoftware,KiCad,Pcbnew,5.1.10*%
%TF.CreationDate,2021-12-13T09:12:43+01:00*%
%TF.ProjectId,main_board,6d61696e-5f62-46f6-9172-642e6b696361,rev?*%
%TF.SameCoordinates,Original*%
%TF.FileFunction,Copper,L1,Top*%
%TF.FilePolarity,Positive*%
%FSLAX46Y46*%
G04 Gerber Fmt 4.6, Leading zero omitted, Abs format (unit mm)*
G04 Created by KiCad (PCBNEW 5.1.10) date 2021-12-13 09:12:43*
%MOMM*%
%LPD*%
G01*
G04 APERTURE LIST*
%TA.AperFunction,ComponentPad*%
%ADD10O,1.700000X1.700000*%
%TD*%
%TA.AperFunction,ComponentPad*%
%ADD11R,1.700000X1.700000*%
%TD*%
%TA.AperFunction,ComponentPad*%
%ADD12C,1.397000*%
%TD*%
%TA.AperFunction,ComponentPad*%
%ADD13O,2.000000X1.200000*%
%TD*%
%TA.AperFunction,ComponentPad*%
%ADD14C,1.524000*%
%TD*%
%TA.AperFunction,ViaPad*%
%ADD15C,0.800000*%
%TD*%
%TA.AperFunction,Conductor*%
%ADD16C,1.000000*%
%TD*%
%TA.AperFunction,Conductor*%
%ADD17C,0.500000*%
%TD*%
%TA.AperFunction,Conductor*%
%ADD18C,0.250000*%
%TD*%
%TA.AperFunction,Conductor*%
%ADD19C,0.254000*%
%TD*%
%TA.AperFunction,Conductor*%
%ADD20C,0.100000*%
%TD*%
G04 APERTURE END LIST*
D10*
X159385000Y-111125000D03*
X161925000Y-111125000D03*
X164465000Y-111125000D03*
X167005000Y-111125000D03*
D11*
X169545000Y-111125000D03*
D12*
X133350001Y-59690000D03*
X131349999Y-59690000D03*
X134620000Y-74199998D03*
X134620000Y-76200000D03*
X134620000Y-67214998D03*
X134620000Y-69215000D03*
X140208001Y-59690000D03*
X138207999Y-59690000D03*
%TA.AperFunction,ComponentPad*%
G36*
G01*
X169483680Y-56552720D02*
X170883680Y-56552720D01*
G75*
G02*
X171183680Y-56852720I0J-300000D01*
G01*
X171183680Y-57452720D01*
G75*
G02*
X170883680Y-57752720I-300000J0D01*
G01*
X169483680Y-57752720D01*
G75*
G02*
X169183680Y-57452720I0J300000D01*
G01*
X169183680Y-56852720D01*
G75*
G02*
X169483680Y-56552720I300000J0D01*
G01*
G37*
%TD.AperFunction*%
D13*
X170183680Y-59692720D03*
X170183680Y-62232720D03*
X170183680Y-64772720D03*
X170183680Y-67312720D03*
X170183680Y-69852720D03*
X170183680Y-72392720D03*
X170183680Y-74932720D03*
X170183680Y-77472720D03*
X170183680Y-80012720D03*
X170183680Y-82552720D03*
X170183680Y-85092720D03*
X170183680Y-87632720D03*
X170183680Y-90172720D03*
X170183680Y-92712720D03*
X170183680Y-95252720D03*
X170183680Y-97792720D03*
X170183680Y-100332720D03*
X170183680Y-102872720D03*
X170183680Y-105412720D03*
X170183680Y-107952720D03*
%TA.AperFunction,ComponentPad*%
G36*
G01*
X144083680Y-107352720D02*
X145483680Y-107352720D01*
G75*
G02*
X145783680Y-107652720I0J-300000D01*
G01*
X145783680Y-108252720D01*
G75*
G02*
X145483680Y-108552720I-300000J0D01*
G01*
X144083680Y-108552720D01*
G75*
G02*
X143783680Y-108252720I0J300000D01*
G01*
X143783680Y-107652720D01*
G75*
G02*
X144083680Y-107352720I300000J0D01*
G01*
G37*
%TD.AperFunction*%
X144783680Y-105412720D03*
X144783680Y-102872720D03*
X144783680Y-100332720D03*
X144783680Y-97792720D03*
X144783680Y-95252720D03*
X144783680Y-92712720D03*
X144783680Y-90172720D03*
X144783680Y-87632720D03*
X144783680Y-85092720D03*
X144783680Y-82552720D03*
X144783680Y-80012720D03*
X144783680Y-77472720D03*
X144783680Y-74932720D03*
X144783680Y-72392720D03*
X144783680Y-69852720D03*
X144783680Y-67312720D03*
X144783680Y-64772720D03*
X144783680Y-62232720D03*
X144783680Y-59692720D03*
X144783680Y-57152720D03*
%TA.AperFunction,SMDPad,CuDef*%
G36*
G01*
X139075000Y-80630000D02*
X140325000Y-80630000D01*
G75*
G02*
X140575000Y-80880000I0J-250000D01*
G01*
X140575000Y-81680000D01*
G75*
G02*
X140325000Y-81930000I-250000J0D01*
G01*
X139075000Y-81930000D01*
G75*
G02*
X138825000Y-81680000I0J250000D01*
G01*
X138825000Y-80880000D01*
G75*
G02*
X139075000Y-80630000I250000J0D01*
G01*
G37*
%TD.AperFunction*%
%TA.AperFunction,SMDPad,CuDef*%
G36*
G01*
X139075000Y-77530000D02*
X140325000Y-77530000D01*
G75*
G02*
X140575000Y-77780000I0J-250000D01*
G01*
X140575000Y-78580000D01*
G75*
G02*
X140325000Y-78830000I-250000J0D01*
G01*
X139075000Y-78830000D01*
G75*
G02*
X138825000Y-78580000I0J250000D01*
G01*
X138825000Y-77780000D01*
G75*
G02*
X139075000Y-77530000I250000J0D01*
G01*
G37*
%TD.AperFunction*%
%TA.AperFunction,SMDPad,CuDef*%
G36*
G01*
X139075000Y-91985000D02*
X140325000Y-91985000D01*
G75*
G02*
X140575000Y-92235000I0J-250000D01*
G01*
X140575000Y-93035000D01*
G75*
G02*
X140325000Y-93285000I-250000J0D01*
G01*
X139075000Y-93285000D01*
G75*
G02*
X138825000Y-93035000I0J250000D01*
G01*
X138825000Y-92235000D01*
G75*
G02*
X139075000Y-91985000I250000J0D01*
G01*
G37*
%TD.AperFunction*%
%TA.AperFunction,SMDPad,CuDef*%
G36*
G01*
X139075000Y-88885000D02*
X140325000Y-88885000D01*
G75*
G02*
X140575000Y-89135000I0J-250000D01*
G01*
X140575000Y-89935000D01*
G75*
G02*
X140325000Y-90185000I-250000J0D01*
G01*
X139075000Y-90185000D01*
G75*
G02*
X138825000Y-89935000I0J250000D01*
G01*
X138825000Y-89135000D01*
G75*
G02*
X139075000Y-88885000I250000J0D01*
G01*
G37*
%TD.AperFunction*%
D14*
X132715000Y-100965000D03*
X134765001Y-100965000D03*
X136814999Y-100965000D03*
X138865000Y-100965000D03*
X132715000Y-107950000D03*
X134765001Y-107950000D03*
X136814999Y-107950000D03*
X138865000Y-107950000D03*
D10*
X146685000Y-111125000D03*
X149225000Y-111125000D03*
X151765000Y-111125000D03*
D11*
X154305000Y-111125000D03*
D14*
X132715000Y-83674999D03*
X132715000Y-85725000D03*
X132715000Y-87774998D03*
X132715000Y-89824999D03*
D15*
X165100000Y-84455000D03*
X159385000Y-84455000D03*
X154305000Y-84455000D03*
X165100000Y-74295000D03*
X159385000Y-74295000D03*
X154305000Y-74295000D03*
X165100000Y-79375000D03*
X159385000Y-79375000D03*
X154305000Y-79375000D03*
X165100000Y-64135000D03*
X159385000Y-64135000D03*
X154305000Y-64135000D03*
X165100000Y-69215000D03*
X159385000Y-69215000D03*
X154305000Y-69215000D03*
X165100000Y-59055000D03*
X159385000Y-59055000D03*
X154305000Y-59055000D03*
X131445000Y-63500000D03*
X137160000Y-63500000D03*
X131445000Y-67945000D03*
X131445000Y-71755000D03*
X132715000Y-78740000D03*
X136525000Y-78740000D03*
X134620000Y-81280000D03*
X135890000Y-85725000D03*
X138430000Y-85725000D03*
X135255000Y-90170000D03*
X137160000Y-90170000D03*
X142240000Y-90170000D03*
X142240000Y-93345000D03*
X135255000Y-94615000D03*
X132715000Y-94615000D03*
X132715000Y-97790000D03*
X139065000Y-97790000D03*
X141605000Y-97790000D03*
X141605000Y-100965000D03*
X141605000Y-103505000D03*
X139065000Y-103505000D03*
X135890000Y-103505000D03*
X158115000Y-106045000D03*
X160655000Y-107950000D03*
X154305000Y-99695000D03*
X159385000Y-94615000D03*
X165100000Y-89535000D03*
X154305000Y-94615000D03*
X154305000Y-89535000D03*
X159385000Y-89535000D03*
X132080000Y-56515000D03*
X138684000Y-57150000D03*
X142240000Y-62230000D03*
X141224000Y-68072000D03*
X141224000Y-72136000D03*
X142240000Y-77470000D03*
X142240000Y-82550000D03*
X138176000Y-110490000D03*
X147955000Y-99695000D03*
X151130000Y-104140000D03*
X154305000Y-104140000D03*
X149225000Y-106680000D03*
X163830000Y-100330000D03*
X160655000Y-97790000D03*
X147320000Y-108585000D03*
X154305000Y-106680000D03*
D16*
X151130000Y-100965000D02*
X146682280Y-105412720D01*
X151130000Y-57150000D02*
X151130000Y-100965000D01*
X149225000Y-55245000D02*
X151130000Y-57150000D01*
X137795000Y-55245000D02*
X149225000Y-55245000D01*
X146682280Y-105412720D02*
X144783680Y-105412720D01*
X133350001Y-59690000D02*
X137795000Y-55245000D01*
D17*
X132715000Y-100965000D02*
X132715000Y-103505000D01*
X134622720Y-105412720D02*
X144783680Y-105412720D01*
X132715000Y-103505000D02*
X134622720Y-105412720D01*
D16*
X140208001Y-59690000D02*
X140208001Y-58546999D01*
X141602280Y-57152720D02*
X144783680Y-57152720D01*
X140208001Y-58546999D02*
X141602280Y-57152720D01*
X134620000Y-67214998D02*
X137890002Y-67214998D01*
X140208001Y-64896999D02*
X140208001Y-59690000D01*
X137890002Y-67214998D02*
X140208001Y-64896999D01*
X134620000Y-74199998D02*
X136429998Y-74199998D01*
X137890002Y-72739994D02*
X137890002Y-67214998D01*
D17*
X139700000Y-75565000D02*
X137382498Y-73247498D01*
D16*
X137382498Y-73247498D02*
X137890002Y-72739994D01*
D17*
X139700000Y-78180000D02*
X139700000Y-75565000D01*
D16*
X136429998Y-74199998D02*
X137382498Y-73247498D01*
D17*
X134765001Y-107950000D02*
X130175000Y-103359999D01*
X133445002Y-74199998D02*
X134620000Y-74199998D01*
X130175000Y-77470000D02*
X133445002Y-74199998D01*
X130250000Y-92635000D02*
X130175000Y-92710000D01*
X139700000Y-92635000D02*
X130250000Y-92635000D01*
X130175000Y-92710000D02*
X130175000Y-77470000D01*
X130175000Y-103359999D02*
X130175000Y-92710000D01*
D16*
X144783680Y-57152720D02*
X146687720Y-57152720D01*
X146687720Y-57152720D02*
X147955000Y-58420000D01*
X147955000Y-58420000D02*
X147955000Y-99695000D01*
X147955000Y-99695000D02*
X147955000Y-99695000D01*
D17*
X151130000Y-110490000D02*
X151765000Y-111125000D01*
X156210000Y-107950000D02*
X151130000Y-107950000D01*
X151130000Y-107950000D02*
X151130000Y-110490000D01*
X159385000Y-111125000D02*
X156210000Y-107950000D01*
X151130000Y-104140000D02*
X151130000Y-107950000D01*
D18*
X159385000Y-111125000D02*
X160655000Y-112395000D01*
X168275000Y-112395000D02*
X169545000Y-111125000D01*
X160655000Y-112395000D02*
X168275000Y-112395000D01*
D17*
X132715000Y-83674999D02*
X138919999Y-83674999D01*
X140337720Y-85092720D02*
X144783680Y-85092720D01*
X138919999Y-83674999D02*
X140337720Y-85092720D01*
X138919999Y-82060001D02*
X139700000Y-81280000D01*
X138919999Y-83674999D02*
X138919999Y-82060001D01*
X144641402Y-87774998D02*
X144783680Y-87632720D01*
X139700000Y-88265000D02*
X140190002Y-87774998D01*
X139700000Y-89535000D02*
X139700000Y-88265000D01*
X140190002Y-87774998D02*
X144641402Y-87774998D01*
X132715000Y-87774998D02*
X140190002Y-87774998D01*
X147924999Y-112425001D02*
X149225000Y-111125000D01*
X137190001Y-112425001D02*
X147924999Y-112425001D01*
X132715000Y-107950000D02*
X137190001Y-112425001D01*
X149225000Y-108585000D02*
X149225000Y-108585000D01*
X149225000Y-111125000D02*
X149225000Y-106680000D01*
X168272280Y-90172720D02*
X170183680Y-90172720D01*
X154305000Y-104140000D02*
X160655000Y-97790000D01*
X167005000Y-111125000D02*
X167005000Y-103505000D01*
X167005000Y-103505000D02*
X163830000Y-100330000D01*
X163830000Y-100330000D02*
X163830000Y-100330000D01*
X160655000Y-97790000D02*
X168272280Y-90172720D01*
X134765001Y-100965000D02*
X134765001Y-98570001D01*
X138082282Y-95252720D02*
X144783680Y-95252720D01*
X134765001Y-98570001D02*
X138082282Y-95252720D01*
X142040000Y-111125000D02*
X146685000Y-111125000D01*
X138865000Y-107950000D02*
X142040000Y-111125000D01*
X146685000Y-111125000D02*
X146685000Y-109220000D01*
X146685000Y-109220000D02*
X147320000Y-108585000D01*
X147320000Y-108585000D02*
X147320000Y-108585000D01*
X168272280Y-92712720D02*
X170183680Y-92712720D01*
X164465000Y-107950000D02*
X158750000Y-102235000D01*
X164465000Y-111125000D02*
X164465000Y-107950000D01*
X158750000Y-102235000D02*
X168272280Y-92712720D01*
X154305000Y-106680000D02*
X158750000Y-102235000D01*
D19*
X157914461Y-110906040D02*
X157900000Y-110978740D01*
X157900000Y-111271260D01*
X157957068Y-111558158D01*
X158069010Y-111828411D01*
X158231525Y-112071632D01*
X158438368Y-112278475D01*
X158537930Y-112345000D01*
X155672812Y-112345000D01*
X155685537Y-112329494D01*
X155744502Y-112219180D01*
X155780812Y-112099482D01*
X155793072Y-111975000D01*
X155790000Y-111410750D01*
X155631250Y-111252000D01*
X154432000Y-111252000D01*
X154432000Y-111272000D01*
X154178000Y-111272000D01*
X154178000Y-111252000D01*
X154158000Y-111252000D01*
X154158000Y-110998000D01*
X154178000Y-110998000D01*
X154178000Y-109798750D01*
X154432000Y-109798750D01*
X154432000Y-110998000D01*
X155631250Y-110998000D01*
X155790000Y-110839250D01*
X155793072Y-110275000D01*
X155780812Y-110150518D01*
X155744502Y-110030820D01*
X155685537Y-109920506D01*
X155606185Y-109823815D01*
X155509494Y-109744463D01*
X155399180Y-109685498D01*
X155279482Y-109649188D01*
X155155000Y-109636928D01*
X154590750Y-109640000D01*
X154432000Y-109798750D01*
X154178000Y-109798750D01*
X154019250Y-109640000D01*
X153455000Y-109636928D01*
X153330518Y-109649188D01*
X153210820Y-109685498D01*
X153100506Y-109744463D01*
X153003815Y-109823815D01*
X152924463Y-109920506D01*
X152865498Y-110030820D01*
X152843487Y-110103380D01*
X152711632Y-109971525D01*
X152468411Y-109809010D01*
X152198158Y-109697068D01*
X152015000Y-109660635D01*
X152015000Y-108835000D01*
X155843422Y-108835000D01*
X157914461Y-110906040D01*
%TA.AperFunction,Conductor*%
D20*
G36*
X157914461Y-110906040D02*
G01*
X157900000Y-110978740D01*
X157900000Y-111271260D01*
X157957068Y-111558158D01*
X158069010Y-111828411D01*
X158231525Y-112071632D01*
X158438368Y-112278475D01*
X158537930Y-112345000D01*
X155672812Y-112345000D01*
X155685537Y-112329494D01*
X155744502Y-112219180D01*
X155780812Y-112099482D01*
X155793072Y-111975000D01*
X155790000Y-111410750D01*
X155631250Y-111252000D01*
X154432000Y-111252000D01*
X154432000Y-111272000D01*
X154178000Y-111272000D01*
X154178000Y-111252000D01*
X154158000Y-111252000D01*
X154158000Y-110998000D01*
X154178000Y-110998000D01*
X154178000Y-109798750D01*
X154432000Y-109798750D01*
X154432000Y-110998000D01*
X155631250Y-110998000D01*
X155790000Y-110839250D01*
X155793072Y-110275000D01*
X155780812Y-110150518D01*
X155744502Y-110030820D01*
X155685537Y-109920506D01*
X155606185Y-109823815D01*
X155509494Y-109744463D01*
X155399180Y-109685498D01*
X155279482Y-109649188D01*
X155155000Y-109636928D01*
X154590750Y-109640000D01*
X154432000Y-109798750D01*
X154178000Y-109798750D01*
X154019250Y-109640000D01*
X153455000Y-109636928D01*
X153330518Y-109649188D01*
X153210820Y-109685498D01*
X153100506Y-109744463D01*
X153003815Y-109823815D01*
X152924463Y-109920506D01*
X152865498Y-110030820D01*
X152843487Y-110103380D01*
X152711632Y-109971525D01*
X152468411Y-109809010D01*
X152198158Y-109697068D01*
X152015000Y-109660635D01*
X152015000Y-108835000D01*
X155843422Y-108835000D01*
X157914461Y-110906040D01*
G37*
%TD.AperFunction*%
D19*
X171400001Y-55954767D02*
X171308162Y-55926908D01*
X171183680Y-55914648D01*
X170469430Y-55917720D01*
X170310680Y-56076470D01*
X170310680Y-57025720D01*
X170330680Y-57025720D01*
X170330680Y-57279720D01*
X170310680Y-57279720D01*
X170310680Y-58228970D01*
X170469430Y-58387720D01*
X171183680Y-58390792D01*
X171308162Y-58378532D01*
X171400001Y-58350673D01*
X171400001Y-58765008D01*
X171273129Y-58660887D01*
X171058581Y-58546209D01*
X170825782Y-58475590D01*
X170644345Y-58457720D01*
X169723015Y-58457720D01*
X169541578Y-58475590D01*
X169308779Y-58546209D01*
X169094231Y-58660887D01*
X168906178Y-58815218D01*
X168751847Y-59003271D01*
X168637169Y-59217819D01*
X168566550Y-59450618D01*
X168542705Y-59692720D01*
X168566550Y-59934822D01*
X168637169Y-60167621D01*
X168751847Y-60382169D01*
X168906178Y-60570222D01*
X169094231Y-60724553D01*
X169308779Y-60839231D01*
X169541578Y-60909850D01*
X169723015Y-60927720D01*
X170644345Y-60927720D01*
X170825782Y-60909850D01*
X171058581Y-60839231D01*
X171273129Y-60724553D01*
X171400001Y-60620432D01*
X171400001Y-61305008D01*
X171273129Y-61200887D01*
X171058581Y-61086209D01*
X170825782Y-61015590D01*
X170644345Y-60997720D01*
X169723015Y-60997720D01*
X169541578Y-61015590D01*
X169308779Y-61086209D01*
X169094231Y-61200887D01*
X168906178Y-61355218D01*
X168751847Y-61543271D01*
X168637169Y-61757819D01*
X168566550Y-61990618D01*
X168542705Y-62232720D01*
X168566550Y-62474822D01*
X168637169Y-62707621D01*
X168751847Y-62922169D01*
X168906178Y-63110222D01*
X169094231Y-63264553D01*
X169308779Y-63379231D01*
X169541578Y-63449850D01*
X169723015Y-63467720D01*
X170644345Y-63467720D01*
X170825782Y-63449850D01*
X171058581Y-63379231D01*
X171273129Y-63264553D01*
X171400001Y-63160432D01*
X171400001Y-63845008D01*
X171273129Y-63740887D01*
X171058581Y-63626209D01*
X170825782Y-63555590D01*
X170644345Y-63537720D01*
X169723015Y-63537720D01*
X169541578Y-63555590D01*
X169308779Y-63626209D01*
X169094231Y-63740887D01*
X168906178Y-63895218D01*
X168751847Y-64083271D01*
X168637169Y-64297819D01*
X168566550Y-64530618D01*
X168542705Y-64772720D01*
X168566550Y-65014822D01*
X168637169Y-65247621D01*
X168751847Y-65462169D01*
X168906178Y-65650222D01*
X169094231Y-65804553D01*
X169308779Y-65919231D01*
X169541578Y-65989850D01*
X169723015Y-66007720D01*
X170644345Y-66007720D01*
X170825782Y-65989850D01*
X171058581Y-65919231D01*
X171273129Y-65804553D01*
X171400001Y-65700432D01*
X171400001Y-66385008D01*
X171273129Y-66280887D01*
X171058581Y-66166209D01*
X170825782Y-66095590D01*
X170644345Y-66077720D01*
X169723015Y-66077720D01*
X169541578Y-66095590D01*
X169308779Y-66166209D01*
X169094231Y-66280887D01*
X168906178Y-66435218D01*
X168751847Y-66623271D01*
X168637169Y-66837819D01*
X168566550Y-67070618D01*
X168542705Y-67312720D01*
X168566550Y-67554822D01*
X168637169Y-67787621D01*
X168751847Y-68002169D01*
X168906178Y-68190222D01*
X169094231Y-68344553D01*
X169308779Y-68459231D01*
X169541578Y-68529850D01*
X169723015Y-68547720D01*
X170644345Y-68547720D01*
X170825782Y-68529850D01*
X171058581Y-68459231D01*
X171273129Y-68344553D01*
X171400001Y-68240432D01*
X171400001Y-68925008D01*
X171273129Y-68820887D01*
X171058581Y-68706209D01*
X170825782Y-68635590D01*
X170644345Y-68617720D01*
X169723015Y-68617720D01*
X169541578Y-68635590D01*
X169308779Y-68706209D01*
X169094231Y-68820887D01*
X168906178Y-68975218D01*
X168751847Y-69163271D01*
X168637169Y-69377819D01*
X168566550Y-69610618D01*
X168542705Y-69852720D01*
X168566550Y-70094822D01*
X168637169Y-70327621D01*
X168751847Y-70542169D01*
X168906178Y-70730222D01*
X169094231Y-70884553D01*
X169308779Y-70999231D01*
X169541578Y-71069850D01*
X169723015Y-71087720D01*
X170644345Y-71087720D01*
X170825782Y-71069850D01*
X171058581Y-70999231D01*
X171273129Y-70884553D01*
X171400001Y-70780432D01*
X171400001Y-71465008D01*
X171273129Y-71360887D01*
X171058581Y-71246209D01*
X170825782Y-71175590D01*
X170644345Y-71157720D01*
X169723015Y-71157720D01*
X169541578Y-71175590D01*
X169308779Y-71246209D01*
X169094231Y-71360887D01*
X168906178Y-71515218D01*
X168751847Y-71703271D01*
X168637169Y-71917819D01*
X168566550Y-72150618D01*
X168542705Y-72392720D01*
X168566550Y-72634822D01*
X168637169Y-72867621D01*
X168751847Y-73082169D01*
X168906178Y-73270222D01*
X169094231Y-73424553D01*
X169308779Y-73539231D01*
X169541578Y-73609850D01*
X169723015Y-73627720D01*
X170644345Y-73627720D01*
X170825782Y-73609850D01*
X171058581Y-73539231D01*
X171273129Y-73424553D01*
X171400001Y-73320432D01*
X171400001Y-74005008D01*
X171273129Y-73900887D01*
X171058581Y-73786209D01*
X170825782Y-73715590D01*
X170644345Y-73697720D01*
X169723015Y-73697720D01*
X169541578Y-73715590D01*
X169308779Y-73786209D01*
X169094231Y-73900887D01*
X168906178Y-74055218D01*
X168751847Y-74243271D01*
X168637169Y-74457819D01*
X168566550Y-74690618D01*
X168542705Y-74932720D01*
X168566550Y-75174822D01*
X168637169Y-75407621D01*
X168751847Y-75622169D01*
X168906178Y-75810222D01*
X169094231Y-75964553D01*
X169308779Y-76079231D01*
X169541578Y-76149850D01*
X169723015Y-76167720D01*
X170644345Y-76167720D01*
X170825782Y-76149850D01*
X171058581Y-76079231D01*
X171273129Y-75964553D01*
X171400001Y-75860432D01*
X171400001Y-76545008D01*
X171273129Y-76440887D01*
X171058581Y-76326209D01*
X170825782Y-76255590D01*
X170644345Y-76237720D01*
X169723015Y-76237720D01*
X169541578Y-76255590D01*
X169308779Y-76326209D01*
X169094231Y-76440887D01*
X168906178Y-76595218D01*
X168751847Y-76783271D01*
X168637169Y-76997819D01*
X168566550Y-77230618D01*
X168542705Y-77472720D01*
X168566550Y-77714822D01*
X168637169Y-77947621D01*
X168751847Y-78162169D01*
X168906178Y-78350222D01*
X169094231Y-78504553D01*
X169308779Y-78619231D01*
X169541578Y-78689850D01*
X169723015Y-78707720D01*
X170644345Y-78707720D01*
X170825782Y-78689850D01*
X171058581Y-78619231D01*
X171273129Y-78504553D01*
X171400001Y-78400432D01*
X171400001Y-79085008D01*
X171273129Y-78980887D01*
X171058581Y-78866209D01*
X170825782Y-78795590D01*
X170644345Y-78777720D01*
X169723015Y-78777720D01*
X169541578Y-78795590D01*
X169308779Y-78866209D01*
X169094231Y-78980887D01*
X168906178Y-79135218D01*
X168751847Y-79323271D01*
X168637169Y-79537819D01*
X168566550Y-79770618D01*
X168542705Y-80012720D01*
X168566550Y-80254822D01*
X168637169Y-80487621D01*
X168751847Y-80702169D01*
X168906178Y-80890222D01*
X169094231Y-81044553D01*
X169308779Y-81159231D01*
X169541578Y-81229850D01*
X169723015Y-81247720D01*
X170644345Y-81247720D01*
X170825782Y-81229850D01*
X171058581Y-81159231D01*
X171273129Y-81044553D01*
X171400001Y-80940432D01*
X171400001Y-81625008D01*
X171273129Y-81520887D01*
X171058581Y-81406209D01*
X170825782Y-81335590D01*
X170644345Y-81317720D01*
X169723015Y-81317720D01*
X169541578Y-81335590D01*
X169308779Y-81406209D01*
X169094231Y-81520887D01*
X168906178Y-81675218D01*
X168751847Y-81863271D01*
X168637169Y-82077819D01*
X168566550Y-82310618D01*
X168542705Y-82552720D01*
X168566550Y-82794822D01*
X168637169Y-83027621D01*
X168751847Y-83242169D01*
X168906178Y-83430222D01*
X169094231Y-83584553D01*
X169308779Y-83699231D01*
X169541578Y-83769850D01*
X169723015Y-83787720D01*
X170644345Y-83787720D01*
X170825782Y-83769850D01*
X171058581Y-83699231D01*
X171273129Y-83584553D01*
X171400001Y-83480432D01*
X171400000Y-84165008D01*
X171273129Y-84060887D01*
X171058581Y-83946209D01*
X170825782Y-83875590D01*
X170644345Y-83857720D01*
X169723015Y-83857720D01*
X169541578Y-83875590D01*
X169308779Y-83946209D01*
X169094231Y-84060887D01*
X168906178Y-84215218D01*
X168751847Y-84403271D01*
X168637169Y-84617819D01*
X168566550Y-84850618D01*
X168542705Y-85092720D01*
X168566550Y-85334822D01*
X168637169Y-85567621D01*
X168751847Y-85782169D01*
X168906178Y-85970222D01*
X169094231Y-86124553D01*
X169308779Y-86239231D01*
X169541578Y-86309850D01*
X169723015Y-86327720D01*
X170644345Y-86327720D01*
X170825782Y-86309850D01*
X171058581Y-86239231D01*
X171273129Y-86124553D01*
X171400000Y-86020432D01*
X171400000Y-86705008D01*
X171273129Y-86600887D01*
X171058581Y-86486209D01*
X170825782Y-86415590D01*
X170644345Y-86397720D01*
X169723015Y-86397720D01*
X169541578Y-86415590D01*
X169308779Y-86486209D01*
X169094231Y-86600887D01*
X168906178Y-86755218D01*
X168751847Y-86943271D01*
X168637169Y-87157819D01*
X168566550Y-87390618D01*
X168542705Y-87632720D01*
X168566550Y-87874822D01*
X168637169Y-88107621D01*
X168751847Y-88322169D01*
X168906178Y-88510222D01*
X169094231Y-88664553D01*
X169308779Y-88779231D01*
X169541578Y-88849850D01*
X169723015Y-88867720D01*
X170644345Y-88867720D01*
X170825782Y-88849850D01*
X171058581Y-88779231D01*
X171273129Y-88664553D01*
X171400000Y-88560432D01*
X171400000Y-89245008D01*
X171273129Y-89140887D01*
X171058581Y-89026209D01*
X170825782Y-88955590D01*
X170644345Y-88937720D01*
X169723015Y-88937720D01*
X169541578Y-88955590D01*
X169308779Y-89026209D01*
X169094231Y-89140887D01*
X168915314Y-89287720D01*
X168315749Y-89287720D01*
X168272280Y-89283439D01*
X168228811Y-89287720D01*
X168228803Y-89287720D01*
X168098790Y-89300525D01*
X167931966Y-89351131D01*
X167778221Y-89433309D01*
X167677233Y-89516188D01*
X167677231Y-89516190D01*
X167643463Y-89543903D01*
X167615750Y-89577671D01*
X160409957Y-96783465D01*
X160353102Y-96794774D01*
X160164744Y-96872795D01*
X159995226Y-96986063D01*
X159851063Y-97130226D01*
X159737795Y-97299744D01*
X159659774Y-97488102D01*
X159648465Y-97544956D01*
X154059957Y-103133465D01*
X154003102Y-103144774D01*
X153814744Y-103222795D01*
X153645226Y-103336063D01*
X153501063Y-103480226D01*
X153387795Y-103649744D01*
X153309774Y-103838102D01*
X153270000Y-104038061D01*
X153270000Y-104241939D01*
X153309774Y-104441898D01*
X153387795Y-104630256D01*
X153501063Y-104799774D01*
X153645226Y-104943937D01*
X153814744Y-105057205D01*
X154003102Y-105135226D01*
X154203061Y-105175000D01*
X154406939Y-105175000D01*
X154596035Y-105137387D01*
X154059957Y-105673465D01*
X154003102Y-105684774D01*
X153814744Y-105762795D01*
X153645226Y-105876063D01*
X153501063Y-106020226D01*
X153387795Y-106189744D01*
X153309774Y-106378102D01*
X153270000Y-106578061D01*
X153270000Y-106781939D01*
X153309774Y-106981898D01*
X153344196Y-107065000D01*
X152015000Y-107065000D01*
X152015000Y-104678454D01*
X152047205Y-104630256D01*
X152125226Y-104441898D01*
X152165000Y-104241939D01*
X152165000Y-104038061D01*
X152125226Y-103838102D01*
X152047205Y-103649744D01*
X151933937Y-103480226D01*
X151789774Y-103336063D01*
X151620256Y-103222795D01*
X151431898Y-103144774D01*
X151231939Y-103105000D01*
X151028061Y-103105000D01*
X150828102Y-103144774D01*
X150639744Y-103222795D01*
X150470226Y-103336063D01*
X150326063Y-103480226D01*
X150212795Y-103649744D01*
X150134774Y-103838102D01*
X150095000Y-104038061D01*
X150095000Y-104241939D01*
X150134774Y-104441898D01*
X150212795Y-104630256D01*
X150245000Y-104678455D01*
X150245001Y-106502653D01*
X150220226Y-106378102D01*
X150142205Y-106189744D01*
X150028937Y-106020226D01*
X149884774Y-105876063D01*
X149715256Y-105762795D01*
X149526898Y-105684774D01*
X149326939Y-105645000D01*
X149123061Y-105645000D01*
X148923102Y-105684774D01*
X148734744Y-105762795D01*
X148565226Y-105876063D01*
X148421063Y-106020226D01*
X148307795Y-106189744D01*
X148229774Y-106378102D01*
X148190000Y-106578061D01*
X148190000Y-106781939D01*
X148229774Y-106981898D01*
X148307795Y-107170256D01*
X148340001Y-107218456D01*
X148340001Y-108407653D01*
X148315226Y-108283102D01*
X148237205Y-108094744D01*
X148123937Y-107925226D01*
X147979774Y-107781063D01*
X147810256Y-107667795D01*
X147621898Y-107589774D01*
X147421939Y-107550000D01*
X147218061Y-107550000D01*
X147018102Y-107589774D01*
X146829744Y-107667795D01*
X146660226Y-107781063D01*
X146516063Y-107925226D01*
X146402795Y-108094744D01*
X146365351Y-108185141D01*
X146259930Y-108079720D01*
X144910680Y-108079720D01*
X144910680Y-109028970D01*
X145069430Y-109187720D01*
X145783680Y-109190792D01*
X145798742Y-109189309D01*
X145795719Y-109220000D01*
X145800001Y-109263479D01*
X145800001Y-109930343D01*
X145738368Y-109971525D01*
X145531525Y-110178368D01*
X145490344Y-110240000D01*
X142406579Y-110240000D01*
X140719299Y-108552720D01*
X143145608Y-108552720D01*
X143157868Y-108677202D01*
X143194178Y-108796900D01*
X143253143Y-108907214D01*
X143332495Y-109003905D01*
X143429186Y-109083257D01*
X143539500Y-109142222D01*
X143659198Y-109178532D01*
X143783680Y-109190792D01*
X144497930Y-109187720D01*
X144656680Y-109028970D01*
X144656680Y-108079720D01*
X143307430Y-108079720D01*
X143148680Y-108238470D01*
X143145608Y-108552720D01*
X140719299Y-108552720D01*
X140260701Y-108094123D01*
X140262000Y-108087592D01*
X140262000Y-107812408D01*
X140208314Y-107542510D01*
X140129700Y-107352720D01*
X143145608Y-107352720D01*
X143148680Y-107666970D01*
X143307430Y-107825720D01*
X144656680Y-107825720D01*
X144656680Y-106876470D01*
X144910680Y-106876470D01*
X144910680Y-107825720D01*
X146259930Y-107825720D01*
X146418680Y-107666970D01*
X146421752Y-107352720D01*
X146409492Y-107228238D01*
X146373182Y-107108540D01*
X146314217Y-106998226D01*
X146234865Y-106901535D01*
X146138174Y-106822183D01*
X146027860Y-106763218D01*
X145908162Y-106726908D01*
X145783680Y-106714648D01*
X145069430Y-106717720D01*
X144910680Y-106876470D01*
X144656680Y-106876470D01*
X144497930Y-106717720D01*
X143783680Y-106714648D01*
X143659198Y-106726908D01*
X143539500Y-106763218D01*
X143429186Y-106822183D01*
X143332495Y-106901535D01*
X143253143Y-106998226D01*
X143194178Y-107108540D01*
X143157868Y-107228238D01*
X143145608Y-107352720D01*
X140129700Y-107352720D01*
X140103005Y-107288273D01*
X139950120Y-107059465D01*
X139755535Y-106864880D01*
X139526727Y-106711995D01*
X139272490Y-106606686D01*
X139002592Y-106553000D01*
X138727408Y-106553000D01*
X138457510Y-106606686D01*
X138203273Y-106711995D01*
X137974465Y-106864880D01*
X137779880Y-107059465D01*
X137626995Y-107288273D01*
X137606251Y-107338353D01*
X136994604Y-107950000D01*
X137606251Y-108561647D01*
X137626995Y-108611727D01*
X137779880Y-108840535D01*
X137974465Y-109035120D01*
X138203273Y-109188005D01*
X138457510Y-109293314D01*
X138727408Y-109347000D01*
X139002592Y-109347000D01*
X139009123Y-109345701D01*
X141203422Y-111540001D01*
X137556580Y-111540001D01*
X135269648Y-109253070D01*
X135426728Y-109188005D01*
X135655536Y-109035120D01*
X135775091Y-108915565D01*
X136029039Y-108915565D01*
X136096019Y-109155656D01*
X136345047Y-109272756D01*
X136612134Y-109339023D01*
X136887016Y-109351910D01*
X137159132Y-109310922D01*
X137418022Y-109217636D01*
X137533979Y-109155656D01*
X137600959Y-108915565D01*
X136814999Y-108129605D01*
X136029039Y-108915565D01*
X135775091Y-108915565D01*
X135850121Y-108840535D01*
X136003006Y-108611727D01*
X136023752Y-108561642D01*
X136635394Y-107950000D01*
X136023752Y-107338358D01*
X136003006Y-107288273D01*
X135850121Y-107059465D01*
X135775091Y-106984435D01*
X136029039Y-106984435D01*
X136814999Y-107770395D01*
X137600959Y-106984435D01*
X137533979Y-106744344D01*
X137284951Y-106627244D01*
X137017864Y-106560977D01*
X136742982Y-106548090D01*
X136470866Y-106589078D01*
X136211976Y-106682364D01*
X136096019Y-106744344D01*
X136029039Y-106984435D01*
X135775091Y-106984435D01*
X135655536Y-106864880D01*
X135426728Y-106711995D01*
X135172491Y-106606686D01*
X134902593Y-106553000D01*
X134627409Y-106553000D01*
X134620879Y-106554299D01*
X134308937Y-106242357D01*
X134449230Y-106284915D01*
X134579243Y-106297720D01*
X134579253Y-106297720D01*
X134622719Y-106302001D01*
X134666185Y-106297720D01*
X143515314Y-106297720D01*
X143694231Y-106444553D01*
X143908779Y-106559231D01*
X144141578Y-106629850D01*
X144323015Y-106647720D01*
X145244345Y-106647720D01*
X145425782Y-106629850D01*
X145658581Y-106559231D01*
X145680117Y-106547720D01*
X146626529Y-106547720D01*
X146682280Y-106553211D01*
X146738031Y-106547720D01*
X146738032Y-106547720D01*
X146904779Y-106531297D01*
X147118727Y-106466396D01*
X147315903Y-106361004D01*
X147488729Y-106219169D01*
X147524276Y-106175855D01*
X151893141Y-101806991D01*
X151936449Y-101771449D01*
X152078284Y-101598623D01*
X152183676Y-101401447D01*
X152248577Y-101187499D01*
X152265000Y-101020752D01*
X152270491Y-100965000D01*
X152265000Y-100909249D01*
X152265000Y-57752720D01*
X168545608Y-57752720D01*
X168557868Y-57877202D01*
X168594178Y-57996900D01*
X168653143Y-58107214D01*
X168732495Y-58203905D01*
X168829186Y-58283257D01*
X168939500Y-58342222D01*
X169059198Y-58378532D01*
X169183680Y-58390792D01*
X169897930Y-58387720D01*
X170056680Y-58228970D01*
X170056680Y-57279720D01*
X168707430Y-57279720D01*
X168548680Y-57438470D01*
X168545608Y-57752720D01*
X152265000Y-57752720D01*
X152265000Y-57205752D01*
X152270491Y-57150000D01*
X152248577Y-56927501D01*
X152183676Y-56713553D01*
X152097710Y-56552720D01*
X168545608Y-56552720D01*
X168548680Y-56866970D01*
X168707430Y-57025720D01*
X170056680Y-57025720D01*
X170056680Y-56076470D01*
X169897930Y-55917720D01*
X169183680Y-55914648D01*
X169059198Y-55926908D01*
X168939500Y-55963218D01*
X168829186Y-56022183D01*
X168732495Y-56101535D01*
X168653143Y-56198226D01*
X168594178Y-56308540D01*
X168557868Y-56428238D01*
X168545608Y-56552720D01*
X152097710Y-56552720D01*
X152078284Y-56516377D01*
X152005950Y-56428238D01*
X151936449Y-56343551D01*
X151893141Y-56308009D01*
X150245131Y-54660000D01*
X171400001Y-54660000D01*
X171400001Y-55954767D01*
%TA.AperFunction,Conductor*%
D20*
G36*
X171400001Y-55954767D02*
G01*
X171308162Y-55926908D01*
X171183680Y-55914648D01*
X170469430Y-55917720D01*
X170310680Y-56076470D01*
X170310680Y-57025720D01*
X170330680Y-57025720D01*
X170330680Y-57279720D01*
X170310680Y-57279720D01*
X170310680Y-58228970D01*
X170469430Y-58387720D01*
X171183680Y-58390792D01*
X171308162Y-58378532D01*
X171400001Y-58350673D01*
X171400001Y-58765008D01*
X171273129Y-58660887D01*
X171058581Y-58546209D01*
X170825782Y-58475590D01*
X170644345Y-58457720D01*
X169723015Y-58457720D01*
X169541578Y-58475590D01*
X169308779Y-58546209D01*
X169094231Y-58660887D01*
X168906178Y-58815218D01*
X168751847Y-59003271D01*
X168637169Y-59217819D01*
X168566550Y-59450618D01*
X168542705Y-59692720D01*
X168566550Y-59934822D01*
X168637169Y-60167621D01*
X168751847Y-60382169D01*
X168906178Y-60570222D01*
X169094231Y-60724553D01*
X169308779Y-60839231D01*
X169541578Y-60909850D01*
X169723015Y-60927720D01*
X170644345Y-60927720D01*
X170825782Y-60909850D01*
X171058581Y-60839231D01*
X171273129Y-60724553D01*
X171400001Y-60620432D01*
X171400001Y-61305008D01*
X171273129Y-61200887D01*
X171058581Y-61086209D01*
X170825782Y-61015590D01*
X170644345Y-60997720D01*
X169723015Y-60997720D01*
X169541578Y-61015590D01*
X169308779Y-61086209D01*
X169094231Y-61200887D01*
X168906178Y-61355218D01*
X168751847Y-61543271D01*
X168637169Y-61757819D01*
X168566550Y-61990618D01*
X168542705Y-62232720D01*
X168566550Y-62474822D01*
X168637169Y-62707621D01*
X168751847Y-62922169D01*
X168906178Y-63110222D01*
X169094231Y-63264553D01*
X169308779Y-63379231D01*
X169541578Y-63449850D01*
X169723015Y-63467720D01*
X170644345Y-63467720D01*
X170825782Y-63449850D01*
X171058581Y-63379231D01*
X171273129Y-63264553D01*
X171400001Y-63160432D01*
X171400001Y-63845008D01*
X171273129Y-63740887D01*
X171058581Y-63626209D01*
X170825782Y-63555590D01*
X170644345Y-63537720D01*
X169723015Y-63537720D01*
X169541578Y-63555590D01*
X169308779Y-63626209D01*
X169094231Y-63740887D01*
X168906178Y-63895218D01*
X168751847Y-64083271D01*
X168637169Y-64297819D01*
X168566550Y-64530618D01*
X168542705Y-64772720D01*
X168566550Y-65014822D01*
X168637169Y-65247621D01*
X168751847Y-65462169D01*
X168906178Y-65650222D01*
X169094231Y-65804553D01*
X169308779Y-65919231D01*
X169541578Y-65989850D01*
X169723015Y-66007720D01*
X170644345Y-66007720D01*
X170825782Y-65989850D01*
X171058581Y-65919231D01*
X171273129Y-65804553D01*
X171400001Y-65700432D01*
X171400001Y-66385008D01*
X171273129Y-66280887D01*
X171058581Y-66166209D01*
X170825782Y-66095590D01*
X170644345Y-66077720D01*
X169723015Y-66077720D01*
X169541578Y-66095590D01*
X169308779Y-66166209D01*
X169094231Y-66280887D01*
X168906178Y-66435218D01*
X168751847Y-66623271D01*
X168637169Y-66837819D01*
X168566550Y-67070618D01*
X168542705Y-67312720D01*
X168566550Y-67554822D01*
X168637169Y-67787621D01*
X168751847Y-68002169D01*
X168906178Y-68190222D01*
X169094231Y-68344553D01*
X169308779Y-68459231D01*
X169541578Y-68529850D01*
X169723015Y-68547720D01*
X170644345Y-68547720D01*
X170825782Y-68529850D01*
X171058581Y-68459231D01*
X171273129Y-68344553D01*
X171400001Y-68240432D01*
X171400001Y-68925008D01*
X171273129Y-68820887D01*
X171058581Y-68706209D01*
X170825782Y-68635590D01*
X170644345Y-68617720D01*
X169723015Y-68617720D01*
X169541578Y-68635590D01*
X169308779Y-68706209D01*
X169094231Y-68820887D01*
X168906178Y-68975218D01*
X168751847Y-69163271D01*
X168637169Y-69377819D01*
X168566550Y-69610618D01*
X168542705Y-69852720D01*
X168566550Y-70094822D01*
X168637169Y-70327621D01*
X168751847Y-70542169D01*
X168906178Y-70730222D01*
X169094231Y-70884553D01*
X169308779Y-70999231D01*
X169541578Y-71069850D01*
X169723015Y-71087720D01*
X170644345Y-71087720D01*
X170825782Y-71069850D01*
X171058581Y-70999231D01*
X171273129Y-70884553D01*
X171400001Y-70780432D01*
X171400001Y-71465008D01*
X171273129Y-71360887D01*
X171058581Y-71246209D01*
X170825782Y-71175590D01*
X170644345Y-71157720D01*
X169723015Y-71157720D01*
X169541578Y-71175590D01*
X169308779Y-71246209D01*
X169094231Y-71360887D01*
X168906178Y-71515218D01*
X168751847Y-71703271D01*
X168637169Y-71917819D01*
X168566550Y-72150618D01*
X168542705Y-72392720D01*
X168566550Y-72634822D01*
X168637169Y-72867621D01*
X168751847Y-73082169D01*
X168906178Y-73270222D01*
X169094231Y-73424553D01*
X169308779Y-73539231D01*
X169541578Y-73609850D01*
X169723015Y-73627720D01*
X170644345Y-73627720D01*
X170825782Y-73609850D01*
X171058581Y-73539231D01*
X171273129Y-73424553D01*
X171400001Y-73320432D01*
X171400001Y-74005008D01*
X171273129Y-73900887D01*
X171058581Y-73786209D01*
X170825782Y-73715590D01*
X170644345Y-73697720D01*
X169723015Y-73697720D01*
X169541578Y-73715590D01*
X169308779Y-73786209D01*
X169094231Y-73900887D01*
X168906178Y-74055218D01*
X168751847Y-74243271D01*
X168637169Y-74457819D01*
X168566550Y-74690618D01*
X168542705Y-74932720D01*
X168566550Y-75174822D01*
X168637169Y-75407621D01*
X168751847Y-75622169D01*
X168906178Y-75810222D01*
X169094231Y-75964553D01*
X169308779Y-76079231D01*
X169541578Y-76149850D01*
X169723015Y-76167720D01*
X170644345Y-76167720D01*
X170825782Y-76149850D01*
X171058581Y-76079231D01*
X171273129Y-75964553D01*
X171400001Y-75860432D01*
X171400001Y-76545008D01*
X171273129Y-76440887D01*
X171058581Y-76326209D01*
X170825782Y-76255590D01*
X170644345Y-76237720D01*
X169723015Y-76237720D01*
X169541578Y-76255590D01*
X169308779Y-76326209D01*
X169094231Y-76440887D01*
X168906178Y-76595218D01*
X168751847Y-76783271D01*
X168637169Y-76997819D01*
X168566550Y-77230618D01*
X168542705Y-77472720D01*
X168566550Y-77714822D01*
X168637169Y-77947621D01*
X168751847Y-78162169D01*
X168906178Y-78350222D01*
X169094231Y-78504553D01*
X169308779Y-78619231D01*
X169541578Y-78689850D01*
X169723015Y-78707720D01*
X170644345Y-78707720D01*
X170825782Y-78689850D01*
X171058581Y-78619231D01*
X171273129Y-78504553D01*
X171400001Y-78400432D01*
X171400001Y-79085008D01*
X171273129Y-78980887D01*
X171058581Y-78866209D01*
X170825782Y-78795590D01*
X170644345Y-78777720D01*
X169723015Y-78777720D01*
X169541578Y-78795590D01*
X169308779Y-78866209D01*
X169094231Y-78980887D01*
X168906178Y-79135218D01*
X168751847Y-79323271D01*
X168637169Y-79537819D01*
X168566550Y-79770618D01*
X168542705Y-80012720D01*
X168566550Y-80254822D01*
X168637169Y-80487621D01*
X168751847Y-80702169D01*
X168906178Y-80890222D01*
X169094231Y-81044553D01*
X169308779Y-81159231D01*
X169541578Y-81229850D01*
X169723015Y-81247720D01*
X170644345Y-81247720D01*
X170825782Y-81229850D01*
X171058581Y-81159231D01*
X171273129Y-81044553D01*
X171400001Y-80940432D01*
X171400001Y-81625008D01*
X171273129Y-81520887D01*
X171058581Y-81406209D01*
X170825782Y-81335590D01*
X170644345Y-81317720D01*
X169723015Y-81317720D01*
X169541578Y-81335590D01*
X169308779Y-81406209D01*
X169094231Y-81520887D01*
X168906178Y-81675218D01*
X168751847Y-81863271D01*
X168637169Y-82077819D01*
X168566550Y-82310618D01*
X168542705Y-82552720D01*
X168566550Y-82794822D01*
X168637169Y-83027621D01*
X168751847Y-83242169D01*
X168906178Y-83430222D01*
X169094231Y-83584553D01*
X169308779Y-83699231D01*
X169541578Y-83769850D01*
X169723015Y-83787720D01*
X170644345Y-83787720D01*
X170825782Y-83769850D01*
X171058581Y-83699231D01*
X171273129Y-83584553D01*
X171400001Y-83480432D01*
X171400000Y-84165008D01*
X171273129Y-84060887D01*
X171058581Y-83946209D01*
X170825782Y-83875590D01*
X170644345Y-83857720D01*
X169723015Y-83857720D01*
X169541578Y-83875590D01*
X169308779Y-83946209D01*
X169094231Y-84060887D01*
X168906178Y-84215218D01*
X168751847Y-84403271D01*
X168637169Y-84617819D01*
X168566550Y-84850618D01*
X168542705Y-85092720D01*
X168566550Y-85334822D01*
X168637169Y-85567621D01*
X168751847Y-85782169D01*
X168906178Y-85970222D01*
X169094231Y-86124553D01*
X169308779Y-86239231D01*
X169541578Y-86309850D01*
X169723015Y-86327720D01*
X170644345Y-86327720D01*
X170825782Y-86309850D01*
X171058581Y-86239231D01*
X171273129Y-86124553D01*
X171400000Y-86020432D01*
X171400000Y-86705008D01*
X171273129Y-86600887D01*
X171058581Y-86486209D01*
X170825782Y-86415590D01*
X170644345Y-86397720D01*
X169723015Y-86397720D01*
X169541578Y-86415590D01*
X169308779Y-86486209D01*
X169094231Y-86600887D01*
X168906178Y-86755218D01*
X168751847Y-86943271D01*
X168637169Y-87157819D01*
X168566550Y-87390618D01*
X168542705Y-87632720D01*
X168566550Y-87874822D01*
X168637169Y-88107621D01*
X168751847Y-88322169D01*
X168906178Y-88510222D01*
X169094231Y-88664553D01*
X169308779Y-88779231D01*
X169541578Y-88849850D01*
X169723015Y-88867720D01*
X170644345Y-88867720D01*
X170825782Y-88849850D01*
X171058581Y-88779231D01*
X171273129Y-88664553D01*
X171400000Y-88560432D01*
X171400000Y-89245008D01*
X171273129Y-89140887D01*
X171058581Y-89026209D01*
X170825782Y-88955590D01*
X170644345Y-88937720D01*
X169723015Y-88937720D01*
X169541578Y-88955590D01*
X169308779Y-89026209D01*
X169094231Y-89140887D01*
X168915314Y-89287720D01*
X168315749Y-89287720D01*
X168272280Y-89283439D01*
X168228811Y-89287720D01*
X168228803Y-89287720D01*
X168098790Y-89300525D01*
X167931966Y-89351131D01*
X167778221Y-89433309D01*
X167677233Y-89516188D01*
X167677231Y-89516190D01*
X167643463Y-89543903D01*
X167615750Y-89577671D01*
X160409957Y-96783465D01*
X160353102Y-96794774D01*
X160164744Y-96872795D01*
X159995226Y-96986063D01*
X159851063Y-97130226D01*
X159737795Y-97299744D01*
X159659774Y-97488102D01*
X159648465Y-97544956D01*
X154059957Y-103133465D01*
X154003102Y-103144774D01*
X153814744Y-103222795D01*
X153645226Y-103336063D01*
X153501063Y-103480226D01*
X153387795Y-103649744D01*
X153309774Y-103838102D01*
X153270000Y-104038061D01*
X153270000Y-104241939D01*
X153309774Y-104441898D01*
X153387795Y-104630256D01*
X153501063Y-104799774D01*
X153645226Y-104943937D01*
X153814744Y-105057205D01*
X154003102Y-105135226D01*
X154203061Y-105175000D01*
X154406939Y-105175000D01*
X154596035Y-105137387D01*
X154059957Y-105673465D01*
X154003102Y-105684774D01*
X153814744Y-105762795D01*
X153645226Y-105876063D01*
X153501063Y-106020226D01*
X153387795Y-106189744D01*
X153309774Y-106378102D01*
X153270000Y-106578061D01*
X153270000Y-106781939D01*
X153309774Y-106981898D01*
X153344196Y-107065000D01*
X152015000Y-107065000D01*
X152015000Y-104678454D01*
X152047205Y-104630256D01*
X152125226Y-104441898D01*
X152165000Y-104241939D01*
X152165000Y-104038061D01*
X152125226Y-103838102D01*
X152047205Y-103649744D01*
X151933937Y-103480226D01*
X151789774Y-103336063D01*
X151620256Y-103222795D01*
X151431898Y-103144774D01*
X151231939Y-103105000D01*
X151028061Y-103105000D01*
X150828102Y-103144774D01*
X150639744Y-103222795D01*
X150470226Y-103336063D01*
X150326063Y-103480226D01*
X150212795Y-103649744D01*
X150134774Y-103838102D01*
X150095000Y-104038061D01*
X150095000Y-104241939D01*
X150134774Y-104441898D01*
X150212795Y-104630256D01*
X150245000Y-104678455D01*
X150245001Y-106502653D01*
X150220226Y-106378102D01*
X150142205Y-106189744D01*
X150028937Y-106020226D01*
X149884774Y-105876063D01*
X149715256Y-105762795D01*
X149526898Y-105684774D01*
X149326939Y-105645000D01*
X149123061Y-105645000D01*
X148923102Y-105684774D01*
X148734744Y-105762795D01*
X148565226Y-105876063D01*
X148421063Y-106020226D01*
X148307795Y-106189744D01*
X148229774Y-106378102D01*
X148190000Y-106578061D01*
X148190000Y-106781939D01*
X148229774Y-106981898D01*
X148307795Y-107170256D01*
X148340001Y-107218456D01*
X148340001Y-108407653D01*
X148315226Y-108283102D01*
X148237205Y-108094744D01*
X148123937Y-107925226D01*
X147979774Y-107781063D01*
X147810256Y-107667795D01*
X147621898Y-107589774D01*
X147421939Y-107550000D01*
X147218061Y-107550000D01*
X147018102Y-107589774D01*
X146829744Y-107667795D01*
X146660226Y-107781063D01*
X146516063Y-107925226D01*
X146402795Y-108094744D01*
X146365351Y-108185141D01*
X146259930Y-108079720D01*
X144910680Y-108079720D01*
X144910680Y-109028970D01*
X145069430Y-109187720D01*
X145783680Y-109190792D01*
X145798742Y-109189309D01*
X145795719Y-109220000D01*
X145800001Y-109263479D01*
X145800001Y-109930343D01*
X145738368Y-109971525D01*
X145531525Y-110178368D01*
X145490344Y-110240000D01*
X142406579Y-110240000D01*
X140719299Y-108552720D01*
X143145608Y-108552720D01*
X143157868Y-108677202D01*
X143194178Y-108796900D01*
X143253143Y-108907214D01*
X143332495Y-109003905D01*
X143429186Y-109083257D01*
X143539500Y-109142222D01*
X143659198Y-109178532D01*
X143783680Y-109190792D01*
X144497930Y-109187720D01*
X144656680Y-109028970D01*
X144656680Y-108079720D01*
X143307430Y-108079720D01*
X143148680Y-108238470D01*
X143145608Y-108552720D01*
X140719299Y-108552720D01*
X140260701Y-108094123D01*
X140262000Y-108087592D01*
X140262000Y-107812408D01*
X140208314Y-107542510D01*
X140129700Y-107352720D01*
X143145608Y-107352720D01*
X143148680Y-107666970D01*
X143307430Y-107825720D01*
X144656680Y-107825720D01*
X144656680Y-106876470D01*
X144910680Y-106876470D01*
X144910680Y-107825720D01*
X146259930Y-107825720D01*
X146418680Y-107666970D01*
X146421752Y-107352720D01*
X146409492Y-107228238D01*
X146373182Y-107108540D01*
X146314217Y-106998226D01*
X146234865Y-106901535D01*
X146138174Y-106822183D01*
X146027860Y-106763218D01*
X145908162Y-106726908D01*
X145783680Y-106714648D01*
X145069430Y-106717720D01*
X144910680Y-106876470D01*
X144656680Y-106876470D01*
X144497930Y-106717720D01*
X143783680Y-106714648D01*
X143659198Y-106726908D01*
X143539500Y-106763218D01*
X143429186Y-106822183D01*
X143332495Y-106901535D01*
X143253143Y-106998226D01*
X143194178Y-107108540D01*
X143157868Y-107228238D01*
X143145608Y-107352720D01*
X140129700Y-107352720D01*
X140103005Y-107288273D01*
X139950120Y-107059465D01*
X139755535Y-106864880D01*
X139526727Y-106711995D01*
X139272490Y-106606686D01*
X139002592Y-106553000D01*
X138727408Y-106553000D01*
X138457510Y-106606686D01*
X138203273Y-106711995D01*
X137974465Y-106864880D01*
X137779880Y-107059465D01*
X137626995Y-107288273D01*
X137606251Y-107338353D01*
X136994604Y-107950000D01*
X137606251Y-108561647D01*
X137626995Y-108611727D01*
X137779880Y-108840535D01*
X137974465Y-109035120D01*
X138203273Y-109188005D01*
X138457510Y-109293314D01*
X138727408Y-109347000D01*
X139002592Y-109347000D01*
X139009123Y-109345701D01*
X141203422Y-111540001D01*
X137556580Y-111540001D01*
X135269648Y-109253070D01*
X135426728Y-109188005D01*
X135655536Y-109035120D01*
X135775091Y-108915565D01*
X136029039Y-108915565D01*
X136096019Y-109155656D01*
X136345047Y-109272756D01*
X136612134Y-109339023D01*
X136887016Y-109351910D01*
X137159132Y-109310922D01*
X137418022Y-109217636D01*
X137533979Y-109155656D01*
X137600959Y-108915565D01*
X136814999Y-108129605D01*
X136029039Y-108915565D01*
X135775091Y-108915565D01*
X135850121Y-108840535D01*
X136003006Y-108611727D01*
X136023752Y-108561642D01*
X136635394Y-107950000D01*
X136023752Y-107338358D01*
X136003006Y-107288273D01*
X135850121Y-107059465D01*
X135775091Y-106984435D01*
X136029039Y-106984435D01*
X136814999Y-107770395D01*
X137600959Y-106984435D01*
X137533979Y-106744344D01*
X137284951Y-106627244D01*
X137017864Y-106560977D01*
X136742982Y-106548090D01*
X136470866Y-106589078D01*
X136211976Y-106682364D01*
X136096019Y-106744344D01*
X136029039Y-106984435D01*
X135775091Y-106984435D01*
X135655536Y-106864880D01*
X135426728Y-106711995D01*
X135172491Y-106606686D01*
X134902593Y-106553000D01*
X134627409Y-106553000D01*
X134620879Y-106554299D01*
X134308937Y-106242357D01*
X134449230Y-106284915D01*
X134579243Y-106297720D01*
X134579253Y-106297720D01*
X134622719Y-106302001D01*
X134666185Y-106297720D01*
X143515314Y-106297720D01*
X143694231Y-106444553D01*
X143908779Y-106559231D01*
X144141578Y-106629850D01*
X144323015Y-106647720D01*
X145244345Y-106647720D01*
X145425782Y-106629850D01*
X145658581Y-106559231D01*
X145680117Y-106547720D01*
X146626529Y-106547720D01*
X146682280Y-106553211D01*
X146738031Y-106547720D01*
X146738032Y-106547720D01*
X146904779Y-106531297D01*
X147118727Y-106466396D01*
X147315903Y-106361004D01*
X147488729Y-106219169D01*
X147524276Y-106175855D01*
X151893141Y-101806991D01*
X151936449Y-101771449D01*
X152078284Y-101598623D01*
X152183676Y-101401447D01*
X152248577Y-101187499D01*
X152265000Y-101020752D01*
X152270491Y-100965000D01*
X152265000Y-100909249D01*
X152265000Y-57752720D01*
X168545608Y-57752720D01*
X168557868Y-57877202D01*
X168594178Y-57996900D01*
X168653143Y-58107214D01*
X168732495Y-58203905D01*
X168829186Y-58283257D01*
X168939500Y-58342222D01*
X169059198Y-58378532D01*
X169183680Y-58390792D01*
X169897930Y-58387720D01*
X170056680Y-58228970D01*
X170056680Y-57279720D01*
X168707430Y-57279720D01*
X168548680Y-57438470D01*
X168545608Y-57752720D01*
X152265000Y-57752720D01*
X152265000Y-57205752D01*
X152270491Y-57150000D01*
X152248577Y-56927501D01*
X152183676Y-56713553D01*
X152097710Y-56552720D01*
X168545608Y-56552720D01*
X168548680Y-56866970D01*
X168707430Y-57025720D01*
X170056680Y-57025720D01*
X170056680Y-56076470D01*
X169897930Y-55917720D01*
X169183680Y-55914648D01*
X169059198Y-55926908D01*
X168939500Y-55963218D01*
X168829186Y-56022183D01*
X168732495Y-56101535D01*
X168653143Y-56198226D01*
X168594178Y-56308540D01*
X168557868Y-56428238D01*
X168545608Y-56552720D01*
X152097710Y-56552720D01*
X152078284Y-56516377D01*
X152005950Y-56428238D01*
X151936449Y-56343551D01*
X151893141Y-56308009D01*
X150245131Y-54660000D01*
X171400001Y-54660000D01*
X171400001Y-55954767D01*
G37*
%TD.AperFunction*%
D19*
X163580001Y-108316580D02*
X163580000Y-109930344D01*
X163518368Y-109971525D01*
X163311525Y-110178368D01*
X163189805Y-110360534D01*
X163120178Y-110243645D01*
X162925269Y-110027412D01*
X162691920Y-109853359D01*
X162429099Y-109728175D01*
X162281890Y-109683524D01*
X162052000Y-109804845D01*
X162052000Y-110998000D01*
X162072000Y-110998000D01*
X162072000Y-111252000D01*
X162052000Y-111252000D01*
X162052000Y-111272000D01*
X161798000Y-111272000D01*
X161798000Y-111252000D01*
X161778000Y-111252000D01*
X161778000Y-110998000D01*
X161798000Y-110998000D01*
X161798000Y-109804845D01*
X161568110Y-109683524D01*
X161420901Y-109728175D01*
X161158080Y-109853359D01*
X160924731Y-110027412D01*
X160729822Y-110243645D01*
X160660195Y-110360534D01*
X160538475Y-110178368D01*
X160331632Y-109971525D01*
X160088411Y-109809010D01*
X159818158Y-109697068D01*
X159531260Y-109640000D01*
X159238740Y-109640000D01*
X159166040Y-109654461D01*
X156866534Y-107354956D01*
X156838817Y-107321183D01*
X156704059Y-107210589D01*
X156550313Y-107128411D01*
X156383490Y-107077805D01*
X156253477Y-107065000D01*
X156253469Y-107065000D01*
X156210000Y-107060719D01*
X156166531Y-107065000D01*
X155265804Y-107065000D01*
X155300226Y-106981898D01*
X155311535Y-106925043D01*
X158750000Y-103486578D01*
X163580001Y-108316580D01*
%TA.AperFunction,Conductor*%
D20*
G36*
X163580001Y-108316580D02*
G01*
X163580000Y-109930344D01*
X163518368Y-109971525D01*
X163311525Y-110178368D01*
X163189805Y-110360534D01*
X163120178Y-110243645D01*
X162925269Y-110027412D01*
X162691920Y-109853359D01*
X162429099Y-109728175D01*
X162281890Y-109683524D01*
X162052000Y-109804845D01*
X162052000Y-110998000D01*
X162072000Y-110998000D01*
X162072000Y-111252000D01*
X162052000Y-111252000D01*
X162052000Y-111272000D01*
X161798000Y-111272000D01*
X161798000Y-111252000D01*
X161778000Y-111252000D01*
X161778000Y-110998000D01*
X161798000Y-110998000D01*
X161798000Y-109804845D01*
X161568110Y-109683524D01*
X161420901Y-109728175D01*
X161158080Y-109853359D01*
X160924731Y-110027412D01*
X160729822Y-110243645D01*
X160660195Y-110360534D01*
X160538475Y-110178368D01*
X160331632Y-109971525D01*
X160088411Y-109809010D01*
X159818158Y-109697068D01*
X159531260Y-109640000D01*
X159238740Y-109640000D01*
X159166040Y-109654461D01*
X156866534Y-107354956D01*
X156838817Y-107321183D01*
X156704059Y-107210589D01*
X156550313Y-107128411D01*
X156383490Y-107077805D01*
X156253477Y-107065000D01*
X156253469Y-107065000D01*
X156210000Y-107060719D01*
X156166531Y-107065000D01*
X155265804Y-107065000D01*
X155300226Y-106981898D01*
X155311535Y-106925043D01*
X158750000Y-103486578D01*
X163580001Y-108316580D01*
G37*
%TD.AperFunction*%
D19*
X149995000Y-57620132D02*
X149995001Y-100494867D01*
X146212149Y-104277720D01*
X145680117Y-104277720D01*
X145658581Y-104266209D01*
X145425782Y-104195590D01*
X145244345Y-104177720D01*
X144323015Y-104177720D01*
X144141578Y-104195590D01*
X143908779Y-104266209D01*
X143694231Y-104380887D01*
X143515314Y-104527720D01*
X134989299Y-104527720D01*
X133600000Y-103138422D01*
X133600000Y-102872720D01*
X143142705Y-102872720D01*
X143166550Y-103114822D01*
X143237169Y-103347621D01*
X143351847Y-103562169D01*
X143506178Y-103750222D01*
X143694231Y-103904553D01*
X143908779Y-104019231D01*
X144141578Y-104089850D01*
X144323015Y-104107720D01*
X145244345Y-104107720D01*
X145425782Y-104089850D01*
X145658581Y-104019231D01*
X145873129Y-103904553D01*
X146061182Y-103750222D01*
X146215513Y-103562169D01*
X146330191Y-103347621D01*
X146400810Y-103114822D01*
X146424655Y-102872720D01*
X146400810Y-102630618D01*
X146330191Y-102397819D01*
X146215513Y-102183271D01*
X146061182Y-101995218D01*
X145873129Y-101840887D01*
X145658581Y-101726209D01*
X145425782Y-101655590D01*
X145244345Y-101637720D01*
X144323015Y-101637720D01*
X144141578Y-101655590D01*
X143908779Y-101726209D01*
X143694231Y-101840887D01*
X143506178Y-101995218D01*
X143351847Y-102183271D01*
X143237169Y-102397819D01*
X143166550Y-102630618D01*
X143142705Y-102872720D01*
X133600000Y-102872720D01*
X133600000Y-102053818D01*
X133605535Y-102050120D01*
X133740001Y-101915655D01*
X133874466Y-102050120D01*
X134103274Y-102203005D01*
X134357511Y-102308314D01*
X134627409Y-102362000D01*
X134902593Y-102362000D01*
X135172491Y-102308314D01*
X135426728Y-102203005D01*
X135655536Y-102050120D01*
X135775091Y-101930565D01*
X136029039Y-101930565D01*
X136096019Y-102170656D01*
X136345047Y-102287756D01*
X136612134Y-102354023D01*
X136887016Y-102366910D01*
X137159132Y-102325922D01*
X137418022Y-102232636D01*
X137533979Y-102170656D01*
X137600959Y-101930565D01*
X138079040Y-101930565D01*
X138146020Y-102170656D01*
X138395048Y-102287756D01*
X138662135Y-102354023D01*
X138937017Y-102366910D01*
X139209133Y-102325922D01*
X139468023Y-102232636D01*
X139583980Y-102170656D01*
X139650960Y-101930565D01*
X138865000Y-101144605D01*
X138079040Y-101930565D01*
X137600959Y-101930565D01*
X136814999Y-101144605D01*
X136029039Y-101930565D01*
X135775091Y-101930565D01*
X135850121Y-101855535D01*
X136003006Y-101626727D01*
X136023752Y-101576642D01*
X136635394Y-100965000D01*
X136994604Y-100965000D01*
X137597216Y-101567612D01*
X137597364Y-101568023D01*
X137659344Y-101683980D01*
X137734571Y-101704967D01*
X137780564Y-101750960D01*
X137840000Y-101734379D01*
X137899435Y-101750960D01*
X137945428Y-101704967D01*
X138020655Y-101683980D01*
X138068799Y-101581596D01*
X138685395Y-100965000D01*
X139044605Y-100965000D01*
X139830565Y-101750960D01*
X140070656Y-101683980D01*
X140187756Y-101434952D01*
X140254023Y-101167865D01*
X140266910Y-100892983D01*
X140225922Y-100620867D01*
X140132636Y-100361977D01*
X140116998Y-100332720D01*
X143142705Y-100332720D01*
X143166550Y-100574822D01*
X143237169Y-100807621D01*
X143351847Y-101022169D01*
X143506178Y-101210222D01*
X143694231Y-101364553D01*
X143908779Y-101479231D01*
X144141578Y-101549850D01*
X144323015Y-101567720D01*
X145244345Y-101567720D01*
X145425782Y-101549850D01*
X145658581Y-101479231D01*
X145873129Y-101364553D01*
X146061182Y-101210222D01*
X146215513Y-101022169D01*
X146330191Y-100807621D01*
X146400810Y-100574822D01*
X146424655Y-100332720D01*
X146400810Y-100090618D01*
X146330191Y-99857819D01*
X146215513Y-99643271D01*
X146061182Y-99455218D01*
X145873129Y-99300887D01*
X145658581Y-99186209D01*
X145425782Y-99115590D01*
X145244345Y-99097720D01*
X144323015Y-99097720D01*
X144141578Y-99115590D01*
X143908779Y-99186209D01*
X143694231Y-99300887D01*
X143506178Y-99455218D01*
X143351847Y-99643271D01*
X143237169Y-99857819D01*
X143166550Y-100090618D01*
X143142705Y-100332720D01*
X140116998Y-100332720D01*
X140070656Y-100246020D01*
X139830565Y-100179040D01*
X139044605Y-100965000D01*
X138685395Y-100965000D01*
X138082783Y-100362388D01*
X138082635Y-100361977D01*
X138020655Y-100246020D01*
X137945428Y-100225033D01*
X137899435Y-100179040D01*
X137840000Y-100195621D01*
X137780564Y-100179040D01*
X137734571Y-100225033D01*
X137659344Y-100246020D01*
X137611200Y-100348404D01*
X136994604Y-100965000D01*
X136635394Y-100965000D01*
X136023752Y-100353358D01*
X136003006Y-100303273D01*
X135850121Y-100074465D01*
X135775091Y-99999435D01*
X136029039Y-99999435D01*
X136814999Y-100785395D01*
X137600959Y-99999435D01*
X138079040Y-99999435D01*
X138865000Y-100785395D01*
X139650960Y-99999435D01*
X139583980Y-99759344D01*
X139334952Y-99642244D01*
X139067865Y-99575977D01*
X138792983Y-99563090D01*
X138520867Y-99604078D01*
X138261977Y-99697364D01*
X138146020Y-99759344D01*
X138079040Y-99999435D01*
X137600959Y-99999435D01*
X137533979Y-99759344D01*
X137284951Y-99642244D01*
X137017864Y-99575977D01*
X136742982Y-99563090D01*
X136470866Y-99604078D01*
X136211976Y-99697364D01*
X136096019Y-99759344D01*
X136029039Y-99999435D01*
X135775091Y-99999435D01*
X135655536Y-99879880D01*
X135650001Y-99876182D01*
X135650001Y-98936579D01*
X136793860Y-97792720D01*
X143142705Y-97792720D01*
X143166550Y-98034822D01*
X143237169Y-98267621D01*
X143351847Y-98482169D01*
X143506178Y-98670222D01*
X143694231Y-98824553D01*
X143908779Y-98939231D01*
X144141578Y-99009850D01*
X144323015Y-99027720D01*
X145244345Y-99027720D01*
X145425782Y-99009850D01*
X145658581Y-98939231D01*
X145873129Y-98824553D01*
X146061182Y-98670222D01*
X146215513Y-98482169D01*
X146330191Y-98267621D01*
X146400810Y-98034822D01*
X146424655Y-97792720D01*
X146400810Y-97550618D01*
X146330191Y-97317819D01*
X146215513Y-97103271D01*
X146061182Y-96915218D01*
X145873129Y-96760887D01*
X145658581Y-96646209D01*
X145425782Y-96575590D01*
X145244345Y-96557720D01*
X144323015Y-96557720D01*
X144141578Y-96575590D01*
X143908779Y-96646209D01*
X143694231Y-96760887D01*
X143506178Y-96915218D01*
X143351847Y-97103271D01*
X143237169Y-97317819D01*
X143166550Y-97550618D01*
X143142705Y-97792720D01*
X136793860Y-97792720D01*
X138448861Y-96137720D01*
X143515314Y-96137720D01*
X143694231Y-96284553D01*
X143908779Y-96399231D01*
X144141578Y-96469850D01*
X144323015Y-96487720D01*
X145244345Y-96487720D01*
X145425782Y-96469850D01*
X145658581Y-96399231D01*
X145873129Y-96284553D01*
X146061182Y-96130222D01*
X146215513Y-95942169D01*
X146330191Y-95727621D01*
X146400810Y-95494822D01*
X146424655Y-95252720D01*
X146400810Y-95010618D01*
X146330191Y-94777819D01*
X146215513Y-94563271D01*
X146061182Y-94375218D01*
X145873129Y-94220887D01*
X145658581Y-94106209D01*
X145425782Y-94035590D01*
X145244345Y-94017720D01*
X144323015Y-94017720D01*
X144141578Y-94035590D01*
X143908779Y-94106209D01*
X143694231Y-94220887D01*
X143515314Y-94367720D01*
X138125751Y-94367720D01*
X138082282Y-94363439D01*
X138038813Y-94367720D01*
X138038805Y-94367720D01*
X137908792Y-94380525D01*
X137741969Y-94431131D01*
X137588223Y-94513309D01*
X137487235Y-94596188D01*
X137487233Y-94596190D01*
X137453465Y-94623903D01*
X137425752Y-94657671D01*
X134169952Y-97913472D01*
X134136185Y-97941184D01*
X134108472Y-97974952D01*
X134108469Y-97974955D01*
X134025591Y-98075942D01*
X133943413Y-98229688D01*
X133892806Y-98396511D01*
X133875720Y-98570001D01*
X133880002Y-98613480D01*
X133880001Y-99876181D01*
X133874466Y-99879880D01*
X133740001Y-100014346D01*
X133605535Y-99879880D01*
X133376727Y-99726995D01*
X133122490Y-99621686D01*
X132852592Y-99568000D01*
X132577408Y-99568000D01*
X132307510Y-99621686D01*
X132053273Y-99726995D01*
X131824465Y-99879880D01*
X131629880Y-100074465D01*
X131476995Y-100303273D01*
X131371686Y-100557510D01*
X131318000Y-100827408D01*
X131318000Y-101102592D01*
X131371686Y-101372490D01*
X131476995Y-101626727D01*
X131629880Y-101855535D01*
X131824465Y-102050120D01*
X131830000Y-102053819D01*
X131830001Y-103461521D01*
X131825719Y-103505000D01*
X131842805Y-103678490D01*
X131885365Y-103818785D01*
X131060000Y-102993421D01*
X131060000Y-93520000D01*
X138332113Y-93520000D01*
X138336595Y-93528386D01*
X138447038Y-93662962D01*
X138581614Y-93773405D01*
X138735150Y-93855472D01*
X138901746Y-93906008D01*
X139075000Y-93923072D01*
X140325000Y-93923072D01*
X140498254Y-93906008D01*
X140664850Y-93855472D01*
X140818386Y-93773405D01*
X140952962Y-93662962D01*
X141063405Y-93528386D01*
X141145472Y-93374850D01*
X141196008Y-93208254D01*
X141213072Y-93035000D01*
X141213072Y-92712720D01*
X143142705Y-92712720D01*
X143166550Y-92954822D01*
X143237169Y-93187621D01*
X143351847Y-93402169D01*
X143506178Y-93590222D01*
X143694231Y-93744553D01*
X143908779Y-93859231D01*
X144141578Y-93929850D01*
X144323015Y-93947720D01*
X145244345Y-93947720D01*
X145425782Y-93929850D01*
X145658581Y-93859231D01*
X145873129Y-93744553D01*
X146061182Y-93590222D01*
X146215513Y-93402169D01*
X146330191Y-93187621D01*
X146400810Y-92954822D01*
X146424655Y-92712720D01*
X146400810Y-92470618D01*
X146330191Y-92237819D01*
X146215513Y-92023271D01*
X146061182Y-91835218D01*
X145873129Y-91680887D01*
X145658581Y-91566209D01*
X145425782Y-91495590D01*
X145244345Y-91477720D01*
X144323015Y-91477720D01*
X144141578Y-91495590D01*
X143908779Y-91566209D01*
X143694231Y-91680887D01*
X143506178Y-91835218D01*
X143351847Y-92023271D01*
X143237169Y-92237819D01*
X143166550Y-92470618D01*
X143142705Y-92712720D01*
X141213072Y-92712720D01*
X141213072Y-92235000D01*
X141196008Y-92061746D01*
X141145472Y-91895150D01*
X141063405Y-91741614D01*
X140952962Y-91607038D01*
X140818386Y-91496595D01*
X140664850Y-91414528D01*
X140498254Y-91363992D01*
X140325000Y-91346928D01*
X139075000Y-91346928D01*
X138901746Y-91363992D01*
X138735150Y-91414528D01*
X138581614Y-91496595D01*
X138447038Y-91607038D01*
X138336595Y-91741614D01*
X138332113Y-91750000D01*
X131060000Y-91750000D01*
X131060000Y-90790564D01*
X131929040Y-90790564D01*
X131996020Y-91030655D01*
X132245048Y-91147755D01*
X132512135Y-91214022D01*
X132787017Y-91226909D01*
X133059133Y-91185921D01*
X133318023Y-91092635D01*
X133433980Y-91030655D01*
X133500960Y-90790564D01*
X132715000Y-90004604D01*
X131929040Y-90790564D01*
X131060000Y-90790564D01*
X131060000Y-89897016D01*
X131313090Y-89897016D01*
X131354078Y-90169132D01*
X131447364Y-90428022D01*
X131509344Y-90543979D01*
X131749435Y-90610959D01*
X132535395Y-89824999D01*
X132894605Y-89824999D01*
X133680565Y-90610959D01*
X133920656Y-90543979D01*
X134037756Y-90294951D01*
X134104023Y-90027864D01*
X134116910Y-89752982D01*
X134075922Y-89480866D01*
X133982636Y-89221976D01*
X133920656Y-89106019D01*
X133680565Y-89039039D01*
X132894605Y-89824999D01*
X132535395Y-89824999D01*
X131749435Y-89039039D01*
X131509344Y-89106019D01*
X131392244Y-89355047D01*
X131325977Y-89622134D01*
X131313090Y-89897016D01*
X131060000Y-89897016D01*
X131060000Y-87637406D01*
X131318000Y-87637406D01*
X131318000Y-87912590D01*
X131371686Y-88182488D01*
X131476995Y-88436725D01*
X131629880Y-88665533D01*
X131824465Y-88860118D01*
X132053273Y-89013003D01*
X132103353Y-89033747D01*
X132715000Y-89645394D01*
X133326647Y-89033747D01*
X133376727Y-89013003D01*
X133605535Y-88860118D01*
X133800120Y-88665533D01*
X133803818Y-88659998D01*
X138326769Y-88659998D01*
X138254528Y-88795150D01*
X138203992Y-88961746D01*
X138186928Y-89135000D01*
X138186928Y-89935000D01*
X138203992Y-90108254D01*
X138254528Y-90274850D01*
X138336595Y-90428386D01*
X138447038Y-90562962D01*
X138581614Y-90673405D01*
X138735150Y-90755472D01*
X138901746Y-90806008D01*
X139075000Y-90823072D01*
X140325000Y-90823072D01*
X140498254Y-90806008D01*
X140664850Y-90755472D01*
X140818386Y-90673405D01*
X140952962Y-90562962D01*
X141063405Y-90428386D01*
X141145472Y-90274850D01*
X141176452Y-90172720D01*
X143142705Y-90172720D01*
X143166550Y-90414822D01*
X143237169Y-90647621D01*
X143351847Y-90862169D01*
X143506178Y-91050222D01*
X143694231Y-91204553D01*
X143908779Y-91319231D01*
X144141578Y-91389850D01*
X144323015Y-91407720D01*
X145244345Y-91407720D01*
X145425782Y-91389850D01*
X145658581Y-91319231D01*
X145873129Y-91204553D01*
X146061182Y-91050222D01*
X146215513Y-90862169D01*
X146330191Y-90647621D01*
X146400810Y-90414822D01*
X146424655Y-90172720D01*
X146400810Y-89930618D01*
X146330191Y-89697819D01*
X146215513Y-89483271D01*
X146061182Y-89295218D01*
X145873129Y-89140887D01*
X145658581Y-89026209D01*
X145425782Y-88955590D01*
X145244345Y-88937720D01*
X144323015Y-88937720D01*
X144141578Y-88955590D01*
X143908779Y-89026209D01*
X143694231Y-89140887D01*
X143506178Y-89295218D01*
X143351847Y-89483271D01*
X143237169Y-89697819D01*
X143166550Y-89930618D01*
X143142705Y-90172720D01*
X141176452Y-90172720D01*
X141196008Y-90108254D01*
X141213072Y-89935000D01*
X141213072Y-89135000D01*
X141196008Y-88961746D01*
X141145472Y-88795150D01*
X141073231Y-88659998D01*
X143688681Y-88659998D01*
X143694231Y-88664553D01*
X143908779Y-88779231D01*
X144141578Y-88849850D01*
X144323015Y-88867720D01*
X145244345Y-88867720D01*
X145425782Y-88849850D01*
X145658581Y-88779231D01*
X145873129Y-88664553D01*
X146061182Y-88510222D01*
X146215513Y-88322169D01*
X146330191Y-88107621D01*
X146400810Y-87874822D01*
X146424655Y-87632720D01*
X146400810Y-87390618D01*
X146330191Y-87157819D01*
X146215513Y-86943271D01*
X146061182Y-86755218D01*
X145873129Y-86600887D01*
X145658581Y-86486209D01*
X145425782Y-86415590D01*
X145244345Y-86397720D01*
X144323015Y-86397720D01*
X144141578Y-86415590D01*
X143908779Y-86486209D01*
X143694231Y-86600887D01*
X143506178Y-86755218D01*
X143395567Y-86889998D01*
X140233467Y-86889998D01*
X140190001Y-86885717D01*
X140146535Y-86889998D01*
X133803818Y-86889998D01*
X133800120Y-86884463D01*
X133605535Y-86689878D01*
X133376727Y-86536993D01*
X133326642Y-86516247D01*
X132715000Y-85904605D01*
X132103358Y-86516247D01*
X132053273Y-86536993D01*
X131824465Y-86689878D01*
X131629880Y-86884463D01*
X131476995Y-87113271D01*
X131371686Y-87367508D01*
X131318000Y-87637406D01*
X131060000Y-87637406D01*
X131060000Y-85797017D01*
X131313090Y-85797017D01*
X131354078Y-86069133D01*
X131447364Y-86328023D01*
X131509344Y-86443980D01*
X131749435Y-86510960D01*
X132535395Y-85725000D01*
X132894605Y-85725000D01*
X133680565Y-86510960D01*
X133920656Y-86443980D01*
X134037756Y-86194952D01*
X134104023Y-85927865D01*
X134116910Y-85652983D01*
X134075922Y-85380867D01*
X133982636Y-85121977D01*
X133920656Y-85006020D01*
X133680565Y-84939040D01*
X132894605Y-85725000D01*
X132535395Y-85725000D01*
X131749435Y-84939040D01*
X131509344Y-85006020D01*
X131392244Y-85255048D01*
X131325977Y-85522135D01*
X131313090Y-85797017D01*
X131060000Y-85797017D01*
X131060000Y-83537407D01*
X131318000Y-83537407D01*
X131318000Y-83812591D01*
X131371686Y-84082489D01*
X131476995Y-84336726D01*
X131629880Y-84565534D01*
X131824465Y-84760119D01*
X132053273Y-84913004D01*
X132103353Y-84933748D01*
X132715000Y-85545395D01*
X133326647Y-84933748D01*
X133376727Y-84913004D01*
X133605535Y-84760119D01*
X133800120Y-84565534D01*
X133803818Y-84559999D01*
X138553421Y-84559999D01*
X139681190Y-85687769D01*
X139708903Y-85721537D01*
X139742671Y-85749250D01*
X139742673Y-85749252D01*
X139800875Y-85797017D01*
X139843661Y-85832131D01*
X139997407Y-85914309D01*
X140164230Y-85964915D01*
X140294243Y-85977720D01*
X140294253Y-85977720D01*
X140337719Y-85982001D01*
X140381185Y-85977720D01*
X143515314Y-85977720D01*
X143694231Y-86124553D01*
X143908779Y-86239231D01*
X144141578Y-86309850D01*
X144323015Y-86327720D01*
X145244345Y-86327720D01*
X145425782Y-86309850D01*
X145658581Y-86239231D01*
X145873129Y-86124553D01*
X146061182Y-85970222D01*
X146215513Y-85782169D01*
X146330191Y-85567621D01*
X146400810Y-85334822D01*
X146424655Y-85092720D01*
X146400810Y-84850618D01*
X146330191Y-84617819D01*
X146215513Y-84403271D01*
X146061182Y-84215218D01*
X145873129Y-84060887D01*
X145658581Y-83946209D01*
X145425782Y-83875590D01*
X145244345Y-83857720D01*
X144323015Y-83857720D01*
X144141578Y-83875590D01*
X143908779Y-83946209D01*
X143694231Y-84060887D01*
X143515314Y-84207720D01*
X140704299Y-84207720D01*
X139804999Y-83308421D01*
X139804999Y-82568072D01*
X140325000Y-82568072D01*
X140480871Y-82552720D01*
X143142705Y-82552720D01*
X143166550Y-82794822D01*
X143237169Y-83027621D01*
X143351847Y-83242169D01*
X143506178Y-83430222D01*
X143694231Y-83584553D01*
X143908779Y-83699231D01*
X144141578Y-83769850D01*
X144323015Y-83787720D01*
X145244345Y-83787720D01*
X145425782Y-83769850D01*
X145658581Y-83699231D01*
X145873129Y-83584553D01*
X146061182Y-83430222D01*
X146215513Y-83242169D01*
X146330191Y-83027621D01*
X146400810Y-82794822D01*
X146424655Y-82552720D01*
X146400810Y-82310618D01*
X146330191Y-82077819D01*
X146215513Y-81863271D01*
X146061182Y-81675218D01*
X145873129Y-81520887D01*
X145658581Y-81406209D01*
X145425782Y-81335590D01*
X145244345Y-81317720D01*
X144323015Y-81317720D01*
X144141578Y-81335590D01*
X143908779Y-81406209D01*
X143694231Y-81520887D01*
X143506178Y-81675218D01*
X143351847Y-81863271D01*
X143237169Y-82077819D01*
X143166550Y-82310618D01*
X143142705Y-82552720D01*
X140480871Y-82552720D01*
X140498254Y-82551008D01*
X140664850Y-82500472D01*
X140818386Y-82418405D01*
X140952962Y-82307962D01*
X141063405Y-82173386D01*
X141145472Y-82019850D01*
X141196008Y-81853254D01*
X141213072Y-81680000D01*
X141213072Y-80880000D01*
X141196008Y-80706746D01*
X141145472Y-80540150D01*
X141063405Y-80386614D01*
X140952962Y-80252038D01*
X140818386Y-80141595D01*
X140664850Y-80059528D01*
X140510544Y-80012720D01*
X143142705Y-80012720D01*
X143166550Y-80254822D01*
X143237169Y-80487621D01*
X143351847Y-80702169D01*
X143506178Y-80890222D01*
X143694231Y-81044553D01*
X143908779Y-81159231D01*
X144141578Y-81229850D01*
X144323015Y-81247720D01*
X145244345Y-81247720D01*
X145425782Y-81229850D01*
X145658581Y-81159231D01*
X145873129Y-81044553D01*
X146061182Y-80890222D01*
X146215513Y-80702169D01*
X146330191Y-80487621D01*
X146400810Y-80254822D01*
X146424655Y-80012720D01*
X146400810Y-79770618D01*
X146330191Y-79537819D01*
X146215513Y-79323271D01*
X146061182Y-79135218D01*
X145873129Y-78980887D01*
X145658581Y-78866209D01*
X145425782Y-78795590D01*
X145244345Y-78777720D01*
X144323015Y-78777720D01*
X144141578Y-78795590D01*
X143908779Y-78866209D01*
X143694231Y-78980887D01*
X143506178Y-79135218D01*
X143351847Y-79323271D01*
X143237169Y-79537819D01*
X143166550Y-79770618D01*
X143142705Y-80012720D01*
X140510544Y-80012720D01*
X140498254Y-80008992D01*
X140325000Y-79991928D01*
X139075000Y-79991928D01*
X138901746Y-80008992D01*
X138735150Y-80059528D01*
X138581614Y-80141595D01*
X138447038Y-80252038D01*
X138336595Y-80386614D01*
X138254528Y-80540150D01*
X138203992Y-80706746D01*
X138186928Y-80880000D01*
X138186928Y-81558218D01*
X138180589Y-81565942D01*
X138098411Y-81719688D01*
X138047804Y-81886511D01*
X138030718Y-82060001D01*
X138035000Y-82103480D01*
X138035000Y-82789999D01*
X133803818Y-82789999D01*
X133800120Y-82784464D01*
X133605535Y-82589879D01*
X133376727Y-82436994D01*
X133122490Y-82331685D01*
X132852592Y-82277999D01*
X132577408Y-82277999D01*
X132307510Y-82331685D01*
X132053273Y-82436994D01*
X131824465Y-82589879D01*
X131629880Y-82784464D01*
X131476995Y-83013272D01*
X131371686Y-83267509D01*
X131318000Y-83537407D01*
X131060000Y-83537407D01*
X131060000Y-77836578D01*
X131776381Y-77120197D01*
X133879408Y-77120197D01*
X133938686Y-77353812D01*
X134176875Y-77464559D01*
X134432093Y-77526711D01*
X134694533Y-77537876D01*
X134954107Y-77497629D01*
X135200842Y-77407514D01*
X135301314Y-77353812D01*
X135360592Y-77120197D01*
X134620000Y-76379605D01*
X133879408Y-77120197D01*
X131776381Y-77120197D01*
X132622045Y-76274533D01*
X133282124Y-76274533D01*
X133322371Y-76534107D01*
X133412486Y-76780842D01*
X133466188Y-76881314D01*
X133699803Y-76940592D01*
X134440395Y-76200000D01*
X133699803Y-75459408D01*
X133466188Y-75518686D01*
X133355441Y-75756875D01*
X133293289Y-76012093D01*
X133282124Y-76274533D01*
X132622045Y-76274533D01*
X133715363Y-75181215D01*
X133769943Y-75235795D01*
X133967207Y-75367602D01*
X134620000Y-76020395D01*
X134634143Y-76006253D01*
X134813748Y-76185858D01*
X134799605Y-76200000D01*
X135540197Y-76940592D01*
X135773812Y-76881314D01*
X135884559Y-76643125D01*
X135946711Y-76387907D01*
X135957876Y-76125467D01*
X135917629Y-75865893D01*
X135827514Y-75619158D01*
X135773812Y-75518686D01*
X135540199Y-75459409D01*
X135656859Y-75342749D01*
X135649108Y-75334998D01*
X136374247Y-75334998D01*
X136429998Y-75340489D01*
X136485749Y-75334998D01*
X136485750Y-75334998D01*
X136652497Y-75318575D01*
X136866445Y-75253674D01*
X137063621Y-75148282D01*
X137236447Y-75006447D01*
X137271994Y-74963134D01*
X137559275Y-74675853D01*
X138815001Y-75931580D01*
X138815000Y-76935306D01*
X138735150Y-76959528D01*
X138581614Y-77041595D01*
X138447038Y-77152038D01*
X138336595Y-77286614D01*
X138254528Y-77440150D01*
X138203992Y-77606746D01*
X138186928Y-77780000D01*
X138186928Y-78580000D01*
X138203992Y-78753254D01*
X138254528Y-78919850D01*
X138336595Y-79073386D01*
X138447038Y-79207962D01*
X138581614Y-79318405D01*
X138735150Y-79400472D01*
X138901746Y-79451008D01*
X139075000Y-79468072D01*
X140325000Y-79468072D01*
X140498254Y-79451008D01*
X140664850Y-79400472D01*
X140818386Y-79318405D01*
X140952962Y-79207962D01*
X141063405Y-79073386D01*
X141145472Y-78919850D01*
X141196008Y-78753254D01*
X141213072Y-78580000D01*
X141213072Y-77780000D01*
X141196008Y-77606746D01*
X141155352Y-77472720D01*
X143142705Y-77472720D01*
X143166550Y-77714822D01*
X143237169Y-77947621D01*
X143351847Y-78162169D01*
X143506178Y-78350222D01*
X143694231Y-78504553D01*
X143908779Y-78619231D01*
X144141578Y-78689850D01*
X144323015Y-78707720D01*
X145244345Y-78707720D01*
X145425782Y-78689850D01*
X145658581Y-78619231D01*
X145873129Y-78504553D01*
X146061182Y-78350222D01*
X146215513Y-78162169D01*
X146330191Y-77947621D01*
X146400810Y-77714822D01*
X146424655Y-77472720D01*
X146400810Y-77230618D01*
X146330191Y-76997819D01*
X146215513Y-76783271D01*
X146061182Y-76595218D01*
X145873129Y-76440887D01*
X145658581Y-76326209D01*
X145425782Y-76255590D01*
X145244345Y-76237720D01*
X144323015Y-76237720D01*
X144141578Y-76255590D01*
X143908779Y-76326209D01*
X143694231Y-76440887D01*
X143506178Y-76595218D01*
X143351847Y-76783271D01*
X143237169Y-76997819D01*
X143166550Y-77230618D01*
X143142705Y-77472720D01*
X141155352Y-77472720D01*
X141145472Y-77440150D01*
X141063405Y-77286614D01*
X140952962Y-77152038D01*
X140818386Y-77041595D01*
X140664850Y-76959528D01*
X140585000Y-76935306D01*
X140585000Y-75608469D01*
X140589281Y-75565000D01*
X140585000Y-75521531D01*
X140585000Y-75521523D01*
X140572195Y-75391510D01*
X140521589Y-75224687D01*
X140439411Y-75070941D01*
X140328817Y-74936183D01*
X140324598Y-74932720D01*
X143142705Y-74932720D01*
X143166550Y-75174822D01*
X143237169Y-75407621D01*
X143351847Y-75622169D01*
X143506178Y-75810222D01*
X143694231Y-75964553D01*
X143908779Y-76079231D01*
X144141578Y-76149850D01*
X144323015Y-76167720D01*
X145244345Y-76167720D01*
X145425782Y-76149850D01*
X145658581Y-76079231D01*
X145873129Y-75964553D01*
X146061182Y-75810222D01*
X146215513Y-75622169D01*
X146330191Y-75407621D01*
X146400810Y-75174822D01*
X146424655Y-74932720D01*
X146400810Y-74690618D01*
X146330191Y-74457819D01*
X146215513Y-74243271D01*
X146061182Y-74055218D01*
X145873129Y-73900887D01*
X145658581Y-73786209D01*
X145425782Y-73715590D01*
X145244345Y-73697720D01*
X144323015Y-73697720D01*
X144141578Y-73715590D01*
X143908779Y-73786209D01*
X143694231Y-73900887D01*
X143506178Y-74055218D01*
X143351847Y-74243271D01*
X143237169Y-74457819D01*
X143166550Y-74690618D01*
X143142705Y-74932720D01*
X140324598Y-74932720D01*
X140295049Y-74908470D01*
X138803086Y-73416508D01*
X138838286Y-73373617D01*
X138943678Y-73176441D01*
X139008579Y-72962493D01*
X139025002Y-72795746D01*
X139025002Y-72795745D01*
X139030493Y-72739995D01*
X139025002Y-72684243D01*
X139025002Y-72392720D01*
X143142705Y-72392720D01*
X143166550Y-72634822D01*
X143237169Y-72867621D01*
X143351847Y-73082169D01*
X143506178Y-73270222D01*
X143694231Y-73424553D01*
X143908779Y-73539231D01*
X144141578Y-73609850D01*
X144323015Y-73627720D01*
X145244345Y-73627720D01*
X145425782Y-73609850D01*
X145658581Y-73539231D01*
X145873129Y-73424553D01*
X146061182Y-73270222D01*
X146215513Y-73082169D01*
X146330191Y-72867621D01*
X146400810Y-72634822D01*
X146424655Y-72392720D01*
X146400810Y-72150618D01*
X146330191Y-71917819D01*
X146215513Y-71703271D01*
X146061182Y-71515218D01*
X145873129Y-71360887D01*
X145658581Y-71246209D01*
X145425782Y-71175590D01*
X145244345Y-71157720D01*
X144323015Y-71157720D01*
X144141578Y-71175590D01*
X143908779Y-71246209D01*
X143694231Y-71360887D01*
X143506178Y-71515218D01*
X143351847Y-71703271D01*
X143237169Y-71917819D01*
X143166550Y-72150618D01*
X143142705Y-72392720D01*
X139025002Y-72392720D01*
X139025002Y-69852720D01*
X143142705Y-69852720D01*
X143166550Y-70094822D01*
X143237169Y-70327621D01*
X143351847Y-70542169D01*
X143506178Y-70730222D01*
X143694231Y-70884553D01*
X143908779Y-70999231D01*
X144141578Y-71069850D01*
X144323015Y-71087720D01*
X145244345Y-71087720D01*
X145425782Y-71069850D01*
X145658581Y-70999231D01*
X145873129Y-70884553D01*
X146061182Y-70730222D01*
X146215513Y-70542169D01*
X146330191Y-70327621D01*
X146400810Y-70094822D01*
X146424655Y-69852720D01*
X146400810Y-69610618D01*
X146330191Y-69377819D01*
X146215513Y-69163271D01*
X146061182Y-68975218D01*
X145873129Y-68820887D01*
X145658581Y-68706209D01*
X145425782Y-68635590D01*
X145244345Y-68617720D01*
X144323015Y-68617720D01*
X144141578Y-68635590D01*
X143908779Y-68706209D01*
X143694231Y-68820887D01*
X143506178Y-68975218D01*
X143351847Y-69163271D01*
X143237169Y-69377819D01*
X143166550Y-69610618D01*
X143142705Y-69852720D01*
X139025002Y-69852720D01*
X139025002Y-67685129D01*
X139397411Y-67312720D01*
X143142705Y-67312720D01*
X143166550Y-67554822D01*
X143237169Y-67787621D01*
X143351847Y-68002169D01*
X143506178Y-68190222D01*
X143694231Y-68344553D01*
X143908779Y-68459231D01*
X144141578Y-68529850D01*
X144323015Y-68547720D01*
X145244345Y-68547720D01*
X145425782Y-68529850D01*
X145658581Y-68459231D01*
X145873129Y-68344553D01*
X146061182Y-68190222D01*
X146215513Y-68002169D01*
X146330191Y-67787621D01*
X146400810Y-67554822D01*
X146424655Y-67312720D01*
X146400810Y-67070618D01*
X146330191Y-66837819D01*
X146215513Y-66623271D01*
X146061182Y-66435218D01*
X145873129Y-66280887D01*
X145658581Y-66166209D01*
X145425782Y-66095590D01*
X145244345Y-66077720D01*
X144323015Y-66077720D01*
X144141578Y-66095590D01*
X143908779Y-66166209D01*
X143694231Y-66280887D01*
X143506178Y-66435218D01*
X143351847Y-66623271D01*
X143237169Y-66837819D01*
X143166550Y-67070618D01*
X143142705Y-67312720D01*
X139397411Y-67312720D01*
X140971147Y-65738986D01*
X141014450Y-65703448D01*
X141156285Y-65530622D01*
X141261677Y-65333446D01*
X141326578Y-65119498D01*
X141343001Y-64952751D01*
X141343001Y-64952750D01*
X141348492Y-64896999D01*
X141343001Y-64841247D01*
X141343001Y-64772720D01*
X143142705Y-64772720D01*
X143166550Y-65014822D01*
X143237169Y-65247621D01*
X143351847Y-65462169D01*
X143506178Y-65650222D01*
X143694231Y-65804553D01*
X143908779Y-65919231D01*
X144141578Y-65989850D01*
X144323015Y-66007720D01*
X145244345Y-66007720D01*
X145425782Y-65989850D01*
X145658581Y-65919231D01*
X145873129Y-65804553D01*
X146061182Y-65650222D01*
X146215513Y-65462169D01*
X146330191Y-65247621D01*
X146400810Y-65014822D01*
X146424655Y-64772720D01*
X146400810Y-64530618D01*
X146330191Y-64297819D01*
X146215513Y-64083271D01*
X146061182Y-63895218D01*
X145873129Y-63740887D01*
X145658581Y-63626209D01*
X145425782Y-63555590D01*
X145244345Y-63537720D01*
X144323015Y-63537720D01*
X144141578Y-63555590D01*
X143908779Y-63626209D01*
X143694231Y-63740887D01*
X143506178Y-63895218D01*
X143351847Y-64083271D01*
X143237169Y-64297819D01*
X143166550Y-64530618D01*
X143142705Y-64772720D01*
X141343001Y-64772720D01*
X141343001Y-62232720D01*
X143142705Y-62232720D01*
X143166550Y-62474822D01*
X143237169Y-62707621D01*
X143351847Y-62922169D01*
X143506178Y-63110222D01*
X143694231Y-63264553D01*
X143908779Y-63379231D01*
X144141578Y-63449850D01*
X144323015Y-63467720D01*
X145244345Y-63467720D01*
X145425782Y-63449850D01*
X145658581Y-63379231D01*
X145873129Y-63264553D01*
X146061182Y-63110222D01*
X146215513Y-62922169D01*
X146330191Y-62707621D01*
X146400810Y-62474822D01*
X146424655Y-62232720D01*
X146400810Y-61990618D01*
X146330191Y-61757819D01*
X146215513Y-61543271D01*
X146061182Y-61355218D01*
X145873129Y-61200887D01*
X145658581Y-61086209D01*
X145425782Y-61015590D01*
X145244345Y-60997720D01*
X144323015Y-60997720D01*
X144141578Y-61015590D01*
X143908779Y-61086209D01*
X143694231Y-61200887D01*
X143506178Y-61355218D01*
X143351847Y-61543271D01*
X143237169Y-61757819D01*
X143166550Y-61990618D01*
X143142705Y-62232720D01*
X141343001Y-62232720D01*
X141343001Y-60391589D01*
X141389733Y-60321649D01*
X141490255Y-60078968D01*
X141541501Y-59821338D01*
X141541501Y-59692720D01*
X143142705Y-59692720D01*
X143166550Y-59934822D01*
X143237169Y-60167621D01*
X143351847Y-60382169D01*
X143506178Y-60570222D01*
X143694231Y-60724553D01*
X143908779Y-60839231D01*
X144141578Y-60909850D01*
X144323015Y-60927720D01*
X145244345Y-60927720D01*
X145425782Y-60909850D01*
X145658581Y-60839231D01*
X145873129Y-60724553D01*
X146061182Y-60570222D01*
X146215513Y-60382169D01*
X146330191Y-60167621D01*
X146400810Y-59934822D01*
X146424655Y-59692720D01*
X146400810Y-59450618D01*
X146330191Y-59217819D01*
X146215513Y-59003271D01*
X146061182Y-58815218D01*
X145873129Y-58660887D01*
X145658581Y-58546209D01*
X145425782Y-58475590D01*
X145244345Y-58457720D01*
X144323015Y-58457720D01*
X144141578Y-58475590D01*
X143908779Y-58546209D01*
X143694231Y-58660887D01*
X143506178Y-58815218D01*
X143351847Y-59003271D01*
X143237169Y-59217819D01*
X143166550Y-59450618D01*
X143142705Y-59692720D01*
X141541501Y-59692720D01*
X141541501Y-59558662D01*
X141490255Y-59301032D01*
X141389733Y-59058351D01*
X141354504Y-59005627D01*
X142072412Y-58287720D01*
X143887243Y-58287720D01*
X143908779Y-58299231D01*
X144141578Y-58369850D01*
X144323015Y-58387720D01*
X145244345Y-58387720D01*
X145425782Y-58369850D01*
X145658581Y-58299231D01*
X145680117Y-58287720D01*
X146217588Y-58287720D01*
X146820000Y-58890132D01*
X146820001Y-99639238D01*
X146814509Y-99695000D01*
X146836423Y-99917499D01*
X146901324Y-100131447D01*
X147006716Y-100328623D01*
X147148551Y-100501449D01*
X147321377Y-100643284D01*
X147518553Y-100748676D01*
X147732501Y-100813577D01*
X147899248Y-100830000D01*
X147899249Y-100830000D01*
X147955000Y-100835491D01*
X148071073Y-100824059D01*
X148177499Y-100813577D01*
X148391447Y-100748676D01*
X148588623Y-100643284D01*
X148761449Y-100501449D01*
X148903284Y-100328623D01*
X149008676Y-100131447D01*
X149073577Y-99917499D01*
X149095491Y-99695000D01*
X149090000Y-99639248D01*
X149090000Y-58475752D01*
X149095491Y-58420000D01*
X149073577Y-58197501D01*
X149008676Y-57983553D01*
X148903284Y-57786377D01*
X148796989Y-57656856D01*
X148796987Y-57656854D01*
X148761449Y-57613551D01*
X148718146Y-57578013D01*
X147529715Y-56389584D01*
X147521850Y-56380000D01*
X148754869Y-56380000D01*
X149995000Y-57620132D01*
%TA.AperFunction,Conductor*%
D20*
G36*
X149995000Y-57620132D02*
G01*
X149995001Y-100494867D01*
X146212149Y-104277720D01*
X145680117Y-104277720D01*
X145658581Y-104266209D01*
X145425782Y-104195590D01*
X145244345Y-104177720D01*
X144323015Y-104177720D01*
X144141578Y-104195590D01*
X143908779Y-104266209D01*
X143694231Y-104380887D01*
X143515314Y-104527720D01*
X134989299Y-104527720D01*
X133600000Y-103138422D01*
X133600000Y-102872720D01*
X143142705Y-102872720D01*
X143166550Y-103114822D01*
X143237169Y-103347621D01*
X143351847Y-103562169D01*
X143506178Y-103750222D01*
X143694231Y-103904553D01*
X143908779Y-104019231D01*
X144141578Y-104089850D01*
X144323015Y-104107720D01*
X145244345Y-104107720D01*
X145425782Y-104089850D01*
X145658581Y-104019231D01*
X145873129Y-103904553D01*
X146061182Y-103750222D01*
X146215513Y-103562169D01*
X146330191Y-103347621D01*
X146400810Y-103114822D01*
X146424655Y-102872720D01*
X146400810Y-102630618D01*
X146330191Y-102397819D01*
X146215513Y-102183271D01*
X146061182Y-101995218D01*
X145873129Y-101840887D01*
X145658581Y-101726209D01*
X145425782Y-101655590D01*
X145244345Y-101637720D01*
X144323015Y-101637720D01*
X144141578Y-101655590D01*
X143908779Y-101726209D01*
X143694231Y-101840887D01*
X143506178Y-101995218D01*
X143351847Y-102183271D01*
X143237169Y-102397819D01*
X143166550Y-102630618D01*
X143142705Y-102872720D01*
X133600000Y-102872720D01*
X133600000Y-102053818D01*
X133605535Y-102050120D01*
X133740001Y-101915655D01*
X133874466Y-102050120D01*
X134103274Y-102203005D01*
X134357511Y-102308314D01*
X134627409Y-102362000D01*
X134902593Y-102362000D01*
X135172491Y-102308314D01*
X135426728Y-102203005D01*
X135655536Y-102050120D01*
X135775091Y-101930565D01*
X136029039Y-101930565D01*
X136096019Y-102170656D01*
X136345047Y-102287756D01*
X136612134Y-102354023D01*
X136887016Y-102366910D01*
X137159132Y-102325922D01*
X137418022Y-102232636D01*
X137533979Y-102170656D01*
X137600959Y-101930565D01*
X138079040Y-101930565D01*
X138146020Y-102170656D01*
X138395048Y-102287756D01*
X138662135Y-102354023D01*
X138937017Y-102366910D01*
X139209133Y-102325922D01*
X139468023Y-102232636D01*
X139583980Y-102170656D01*
X139650960Y-101930565D01*
X138865000Y-101144605D01*
X138079040Y-101930565D01*
X137600959Y-101930565D01*
X136814999Y-101144605D01*
X136029039Y-101930565D01*
X135775091Y-101930565D01*
X135850121Y-101855535D01*
X136003006Y-101626727D01*
X136023752Y-101576642D01*
X136635394Y-100965000D01*
X136994604Y-100965000D01*
X137597216Y-101567612D01*
X137597364Y-101568023D01*
X137659344Y-101683980D01*
X137734571Y-101704967D01*
X137780564Y-101750960D01*
X137840000Y-101734379D01*
X137899435Y-101750960D01*
X137945428Y-101704967D01*
X138020655Y-101683980D01*
X138068799Y-101581596D01*
X138685395Y-100965000D01*
X139044605Y-100965000D01*
X139830565Y-101750960D01*
X140070656Y-101683980D01*
X140187756Y-101434952D01*
X140254023Y-101167865D01*
X140266910Y-100892983D01*
X140225922Y-100620867D01*
X140132636Y-100361977D01*
X140116998Y-100332720D01*
X143142705Y-100332720D01*
X143166550Y-100574822D01*
X143237169Y-100807621D01*
X143351847Y-101022169D01*
X143506178Y-101210222D01*
X143694231Y-101364553D01*
X143908779Y-101479231D01*
X144141578Y-101549850D01*
X144323015Y-101567720D01*
X145244345Y-101567720D01*
X145425782Y-101549850D01*
X145658581Y-101479231D01*
X145873129Y-101364553D01*
X146061182Y-101210222D01*
X146215513Y-101022169D01*
X146330191Y-100807621D01*
X146400810Y-100574822D01*
X146424655Y-100332720D01*
X146400810Y-100090618D01*
X146330191Y-99857819D01*
X146215513Y-99643271D01*
X146061182Y-99455218D01*
X145873129Y-99300887D01*
X145658581Y-99186209D01*
X145425782Y-99115590D01*
X145244345Y-99097720D01*
X144323015Y-99097720D01*
X144141578Y-99115590D01*
X143908779Y-99186209D01*
X143694231Y-99300887D01*
X143506178Y-99455218D01*
X143351847Y-99643271D01*
X143237169Y-99857819D01*
X143166550Y-100090618D01*
X143142705Y-100332720D01*
X140116998Y-100332720D01*
X140070656Y-100246020D01*
X139830565Y-100179040D01*
X139044605Y-100965000D01*
X138685395Y-100965000D01*
X138082783Y-100362388D01*
X138082635Y-100361977D01*
X138020655Y-100246020D01*
X137945428Y-100225033D01*
X137899435Y-100179040D01*
X137840000Y-100195621D01*
X137780564Y-100179040D01*
X137734571Y-100225033D01*
X137659344Y-100246020D01*
X137611200Y-100348404D01*
X136994604Y-100965000D01*
X136635394Y-100965000D01*
X136023752Y-100353358D01*
X136003006Y-100303273D01*
X135850121Y-100074465D01*
X135775091Y-99999435D01*
X136029039Y-99999435D01*
X136814999Y-100785395D01*
X137600959Y-99999435D01*
X138079040Y-99999435D01*
X138865000Y-100785395D01*
X139650960Y-99999435D01*
X139583980Y-99759344D01*
X139334952Y-99642244D01*
X139067865Y-99575977D01*
X138792983Y-99563090D01*
X138520867Y-99604078D01*
X138261977Y-99697364D01*
X138146020Y-99759344D01*
X138079040Y-99999435D01*
X137600959Y-99999435D01*
X137533979Y-99759344D01*
X137284951Y-99642244D01*
X137017864Y-99575977D01*
X136742982Y-99563090D01*
X136470866Y-99604078D01*
X136211976Y-99697364D01*
X136096019Y-99759344D01*
X136029039Y-99999435D01*
X135775091Y-99999435D01*
X135655536Y-99879880D01*
X135650001Y-99876182D01*
X135650001Y-98936579D01*
X136793860Y-97792720D01*
X143142705Y-97792720D01*
X143166550Y-98034822D01*
X143237169Y-98267621D01*
X143351847Y-98482169D01*
X143506178Y-98670222D01*
X143694231Y-98824553D01*
X143908779Y-98939231D01*
X144141578Y-99009850D01*
X144323015Y-99027720D01*
X145244345Y-99027720D01*
X145425782Y-99009850D01*
X145658581Y-98939231D01*
X145873129Y-98824553D01*
X146061182Y-98670222D01*
X146215513Y-98482169D01*
X146330191Y-98267621D01*
X146400810Y-98034822D01*
X146424655Y-97792720D01*
X146400810Y-97550618D01*
X146330191Y-97317819D01*
X146215513Y-97103271D01*
X146061182Y-96915218D01*
X145873129Y-96760887D01*
X145658581Y-96646209D01*
X145425782Y-96575590D01*
X145244345Y-96557720D01*
X144323015Y-96557720D01*
X144141578Y-96575590D01*
X143908779Y-96646209D01*
X143694231Y-96760887D01*
X143506178Y-96915218D01*
X143351847Y-97103271D01*
X143237169Y-97317819D01*
X143166550Y-97550618D01*
X143142705Y-97792720D01*
X136793860Y-97792720D01*
X138448861Y-96137720D01*
X143515314Y-96137720D01*
X143694231Y-96284553D01*
X143908779Y-96399231D01*
X144141578Y-96469850D01*
X144323015Y-96487720D01*
X145244345Y-96487720D01*
X145425782Y-96469850D01*
X145658581Y-96399231D01*
X145873129Y-96284553D01*
X146061182Y-96130222D01*
X146215513Y-95942169D01*
X146330191Y-95727621D01*
X146400810Y-95494822D01*
X146424655Y-95252720D01*
X146400810Y-95010618D01*
X146330191Y-94777819D01*
X146215513Y-94563271D01*
X146061182Y-94375218D01*
X145873129Y-94220887D01*
X145658581Y-94106209D01*
X145425782Y-94035590D01*
X145244345Y-94017720D01*
X144323015Y-94017720D01*
X144141578Y-94035590D01*
X143908779Y-94106209D01*
X143694231Y-94220887D01*
X143515314Y-94367720D01*
X138125751Y-94367720D01*
X138082282Y-94363439D01*
X138038813Y-94367720D01*
X138038805Y-94367720D01*
X137908792Y-94380525D01*
X137741969Y-94431131D01*
X137588223Y-94513309D01*
X137487235Y-94596188D01*
X137487233Y-94596190D01*
X137453465Y-94623903D01*
X137425752Y-94657671D01*
X134169952Y-97913472D01*
X134136185Y-97941184D01*
X134108472Y-97974952D01*
X134108469Y-97974955D01*
X134025591Y-98075942D01*
X133943413Y-98229688D01*
X133892806Y-98396511D01*
X133875720Y-98570001D01*
X133880002Y-98613480D01*
X133880001Y-99876181D01*
X133874466Y-99879880D01*
X133740001Y-100014346D01*
X133605535Y-99879880D01*
X133376727Y-99726995D01*
X133122490Y-99621686D01*
X132852592Y-99568000D01*
X132577408Y-99568000D01*
X132307510Y-99621686D01*
X132053273Y-99726995D01*
X131824465Y-99879880D01*
X131629880Y-100074465D01*
X131476995Y-100303273D01*
X131371686Y-100557510D01*
X131318000Y-100827408D01*
X131318000Y-101102592D01*
X131371686Y-101372490D01*
X131476995Y-101626727D01*
X131629880Y-101855535D01*
X131824465Y-102050120D01*
X131830000Y-102053819D01*
X131830001Y-103461521D01*
X131825719Y-103505000D01*
X131842805Y-103678490D01*
X131885365Y-103818785D01*
X131060000Y-102993421D01*
X131060000Y-93520000D01*
X138332113Y-93520000D01*
X138336595Y-93528386D01*
X138447038Y-93662962D01*
X138581614Y-93773405D01*
X138735150Y-93855472D01*
X138901746Y-93906008D01*
X139075000Y-93923072D01*
X140325000Y-93923072D01*
X140498254Y-93906008D01*
X140664850Y-93855472D01*
X140818386Y-93773405D01*
X140952962Y-93662962D01*
X141063405Y-93528386D01*
X141145472Y-93374850D01*
X141196008Y-93208254D01*
X141213072Y-93035000D01*
X141213072Y-92712720D01*
X143142705Y-92712720D01*
X143166550Y-92954822D01*
X143237169Y-93187621D01*
X143351847Y-93402169D01*
X143506178Y-93590222D01*
X143694231Y-93744553D01*
X143908779Y-93859231D01*
X144141578Y-93929850D01*
X144323015Y-93947720D01*
X145244345Y-93947720D01*
X145425782Y-93929850D01*
X145658581Y-93859231D01*
X145873129Y-93744553D01*
X146061182Y-93590222D01*
X146215513Y-93402169D01*
X146330191Y-93187621D01*
X146400810Y-92954822D01*
X146424655Y-92712720D01*
X146400810Y-92470618D01*
X146330191Y-92237819D01*
X146215513Y-92023271D01*
X146061182Y-91835218D01*
X145873129Y-91680887D01*
X145658581Y-91566209D01*
X145425782Y-91495590D01*
X145244345Y-91477720D01*
X144323015Y-91477720D01*
X144141578Y-91495590D01*
X143908779Y-91566209D01*
X143694231Y-91680887D01*
X143506178Y-91835218D01*
X143351847Y-92023271D01*
X143237169Y-92237819D01*
X143166550Y-92470618D01*
X143142705Y-92712720D01*
X141213072Y-92712720D01*
X141213072Y-92235000D01*
X141196008Y-92061746D01*
X141145472Y-91895150D01*
X141063405Y-91741614D01*
X140952962Y-91607038D01*
X140818386Y-91496595D01*
X140664850Y-91414528D01*
X140498254Y-91363992D01*
X140325000Y-91346928D01*
X139075000Y-91346928D01*
X138901746Y-91363992D01*
X138735150Y-91414528D01*
X138581614Y-91496595D01*
X138447038Y-91607038D01*
X138336595Y-91741614D01*
X138332113Y-91750000D01*
X131060000Y-91750000D01*
X131060000Y-90790564D01*
X131929040Y-90790564D01*
X131996020Y-91030655D01*
X132245048Y-91147755D01*
X132512135Y-91214022D01*
X132787017Y-91226909D01*
X133059133Y-91185921D01*
X133318023Y-91092635D01*
X133433980Y-91030655D01*
X133500960Y-90790564D01*
X132715000Y-90004604D01*
X131929040Y-90790564D01*
X131060000Y-90790564D01*
X131060000Y-89897016D01*
X131313090Y-89897016D01*
X131354078Y-90169132D01*
X131447364Y-90428022D01*
X131509344Y-90543979D01*
X131749435Y-90610959D01*
X132535395Y-89824999D01*
X132894605Y-89824999D01*
X133680565Y-90610959D01*
X133920656Y-90543979D01*
X134037756Y-90294951D01*
X134104023Y-90027864D01*
X134116910Y-89752982D01*
X134075922Y-89480866D01*
X133982636Y-89221976D01*
X133920656Y-89106019D01*
X133680565Y-89039039D01*
X132894605Y-89824999D01*
X132535395Y-89824999D01*
X131749435Y-89039039D01*
X131509344Y-89106019D01*
X131392244Y-89355047D01*
X131325977Y-89622134D01*
X131313090Y-89897016D01*
X131060000Y-89897016D01*
X131060000Y-87637406D01*
X131318000Y-87637406D01*
X131318000Y-87912590D01*
X131371686Y-88182488D01*
X131476995Y-88436725D01*
X131629880Y-88665533D01*
X131824465Y-88860118D01*
X132053273Y-89013003D01*
X132103353Y-89033747D01*
X132715000Y-89645394D01*
X133326647Y-89033747D01*
X133376727Y-89013003D01*
X133605535Y-88860118D01*
X133800120Y-88665533D01*
X133803818Y-88659998D01*
X138326769Y-88659998D01*
X138254528Y-88795150D01*
X138203992Y-88961746D01*
X138186928Y-89135000D01*
X138186928Y-89935000D01*
X138203992Y-90108254D01*
X138254528Y-90274850D01*
X138336595Y-90428386D01*
X138447038Y-90562962D01*
X138581614Y-90673405D01*
X138735150Y-90755472D01*
X138901746Y-90806008D01*
X139075000Y-90823072D01*
X140325000Y-90823072D01*
X140498254Y-90806008D01*
X140664850Y-90755472D01*
X140818386Y-90673405D01*
X140952962Y-90562962D01*
X141063405Y-90428386D01*
X141145472Y-90274850D01*
X141176452Y-90172720D01*
X143142705Y-90172720D01*
X143166550Y-90414822D01*
X143237169Y-90647621D01*
X143351847Y-90862169D01*
X143506178Y-91050222D01*
X143694231Y-91204553D01*
X143908779Y-91319231D01*
X144141578Y-91389850D01*
X144323015Y-91407720D01*
X145244345Y-91407720D01*
X145425782Y-91389850D01*
X145658581Y-91319231D01*
X145873129Y-91204553D01*
X146061182Y-91050222D01*
X146215513Y-90862169D01*
X146330191Y-90647621D01*
X146400810Y-90414822D01*
X146424655Y-90172720D01*
X146400810Y-89930618D01*
X146330191Y-89697819D01*
X146215513Y-89483271D01*
X146061182Y-89295218D01*
X145873129Y-89140887D01*
X145658581Y-89026209D01*
X145425782Y-88955590D01*
X145244345Y-88937720D01*
X144323015Y-88937720D01*
X144141578Y-88955590D01*
X143908779Y-89026209D01*
X143694231Y-89140887D01*
X143506178Y-89295218D01*
X143351847Y-89483271D01*
X143237169Y-89697819D01*
X143166550Y-89930618D01*
X143142705Y-90172720D01*
X141176452Y-90172720D01*
X141196008Y-90108254D01*
X141213072Y-89935000D01*
X141213072Y-89135000D01*
X141196008Y-88961746D01*
X141145472Y-88795150D01*
X141073231Y-88659998D01*
X143688681Y-88659998D01*
X143694231Y-88664553D01*
X143908779Y-88779231D01*
X144141578Y-88849850D01*
X144323015Y-88867720D01*
X145244345Y-88867720D01*
X145425782Y-88849850D01*
X145658581Y-88779231D01*
X145873129Y-88664553D01*
X146061182Y-88510222D01*
X146215513Y-88322169D01*
X146330191Y-88107621D01*
X146400810Y-87874822D01*
X146424655Y-87632720D01*
X146400810Y-87390618D01*
X146330191Y-87157819D01*
X146215513Y-86943271D01*
X146061182Y-86755218D01*
X145873129Y-86600887D01*
X145658581Y-86486209D01*
X145425782Y-86415590D01*
X145244345Y-86397720D01*
X144323015Y-86397720D01*
X144141578Y-86415590D01*
X143908779Y-86486209D01*
X143694231Y-86600887D01*
X143506178Y-86755218D01*
X143395567Y-86889998D01*
X140233467Y-86889998D01*
X140190001Y-86885717D01*
X140146535Y-86889998D01*
X133803818Y-86889998D01*
X133800120Y-86884463D01*
X133605535Y-86689878D01*
X133376727Y-86536993D01*
X133326642Y-86516247D01*
X132715000Y-85904605D01*
X132103358Y-86516247D01*
X132053273Y-86536993D01*
X131824465Y-86689878D01*
X131629880Y-86884463D01*
X131476995Y-87113271D01*
X131371686Y-87367508D01*
X131318000Y-87637406D01*
X131060000Y-87637406D01*
X131060000Y-85797017D01*
X131313090Y-85797017D01*
X131354078Y-86069133D01*
X131447364Y-86328023D01*
X131509344Y-86443980D01*
X131749435Y-86510960D01*
X132535395Y-85725000D01*
X132894605Y-85725000D01*
X133680565Y-86510960D01*
X133920656Y-86443980D01*
X134037756Y-86194952D01*
X134104023Y-85927865D01*
X134116910Y-85652983D01*
X134075922Y-85380867D01*
X133982636Y-85121977D01*
X133920656Y-85006020D01*
X133680565Y-84939040D01*
X132894605Y-85725000D01*
X132535395Y-85725000D01*
X131749435Y-84939040D01*
X131509344Y-85006020D01*
X131392244Y-85255048D01*
X131325977Y-85522135D01*
X131313090Y-85797017D01*
X131060000Y-85797017D01*
X131060000Y-83537407D01*
X131318000Y-83537407D01*
X131318000Y-83812591D01*
X131371686Y-84082489D01*
X131476995Y-84336726D01*
X131629880Y-84565534D01*
X131824465Y-84760119D01*
X132053273Y-84913004D01*
X132103353Y-84933748D01*
X132715000Y-85545395D01*
X133326647Y-84933748D01*
X133376727Y-84913004D01*
X133605535Y-84760119D01*
X133800120Y-84565534D01*
X133803818Y-84559999D01*
X138553421Y-84559999D01*
X139681190Y-85687769D01*
X139708903Y-85721537D01*
X139742671Y-85749250D01*
X139742673Y-85749252D01*
X139800875Y-85797017D01*
X139843661Y-85832131D01*
X139997407Y-85914309D01*
X140164230Y-85964915D01*
X140294243Y-85977720D01*
X140294253Y-85977720D01*
X140337719Y-85982001D01*
X140381185Y-85977720D01*
X143515314Y-85977720D01*
X143694231Y-86124553D01*
X143908779Y-86239231D01*
X144141578Y-86309850D01*
X144323015Y-86327720D01*
X145244345Y-86327720D01*
X145425782Y-86309850D01*
X145658581Y-86239231D01*
X145873129Y-86124553D01*
X146061182Y-85970222D01*
X146215513Y-85782169D01*
X146330191Y-85567621D01*
X146400810Y-85334822D01*
X146424655Y-85092720D01*
X146400810Y-84850618D01*
X146330191Y-84617819D01*
X146215513Y-84403271D01*
X146061182Y-84215218D01*
X145873129Y-84060887D01*
X145658581Y-83946209D01*
X145425782Y-83875590D01*
X145244345Y-83857720D01*
X144323015Y-83857720D01*
X144141578Y-83875590D01*
X143908779Y-83946209D01*
X143694231Y-84060887D01*
X143515314Y-84207720D01*
X140704299Y-84207720D01*
X139804999Y-83308421D01*
X139804999Y-82568072D01*
X140325000Y-82568072D01*
X140480871Y-82552720D01*
X143142705Y-82552720D01*
X143166550Y-82794822D01*
X143237169Y-83027621D01*
X143351847Y-83242169D01*
X143506178Y-83430222D01*
X143694231Y-83584553D01*
X143908779Y-83699231D01*
X144141578Y-83769850D01*
X144323015Y-83787720D01*
X145244345Y-83787720D01*
X145425782Y-83769850D01*
X145658581Y-83699231D01*
X145873129Y-83584553D01*
X146061182Y-83430222D01*
X146215513Y-83242169D01*
X146330191Y-83027621D01*
X146400810Y-82794822D01*
X146424655Y-82552720D01*
X146400810Y-82310618D01*
X146330191Y-82077819D01*
X146215513Y-81863271D01*
X146061182Y-81675218D01*
X145873129Y-81520887D01*
X145658581Y-81406209D01*
X145425782Y-81335590D01*
X145244345Y-81317720D01*
X144323015Y-81317720D01*
X144141578Y-81335590D01*
X143908779Y-81406209D01*
X143694231Y-81520887D01*
X143506178Y-81675218D01*
X143351847Y-81863271D01*
X143237169Y-82077819D01*
X143166550Y-82310618D01*
X143142705Y-82552720D01*
X140480871Y-82552720D01*
X140498254Y-82551008D01*
X140664850Y-82500472D01*
X140818386Y-82418405D01*
X140952962Y-82307962D01*
X141063405Y-82173386D01*
X141145472Y-82019850D01*
X141196008Y-81853254D01*
X141213072Y-81680000D01*
X141213072Y-80880000D01*
X141196008Y-80706746D01*
X141145472Y-80540150D01*
X141063405Y-80386614D01*
X140952962Y-80252038D01*
X140818386Y-80141595D01*
X140664850Y-80059528D01*
X140510544Y-80012720D01*
X143142705Y-80012720D01*
X143166550Y-80254822D01*
X143237169Y-80487621D01*
X143351847Y-80702169D01*
X143506178Y-80890222D01*
X143694231Y-81044553D01*
X143908779Y-81159231D01*
X144141578Y-81229850D01*
X144323015Y-81247720D01*
X145244345Y-81247720D01*
X145425782Y-81229850D01*
X145658581Y-81159231D01*
X145873129Y-81044553D01*
X146061182Y-80890222D01*
X146215513Y-80702169D01*
X146330191Y-80487621D01*
X146400810Y-80254822D01*
X146424655Y-80012720D01*
X146400810Y-79770618D01*
X146330191Y-79537819D01*
X146215513Y-79323271D01*
X146061182Y-79135218D01*
X145873129Y-78980887D01*
X145658581Y-78866209D01*
X145425782Y-78795590D01*
X145244345Y-78777720D01*
X144323015Y-78777720D01*
X144141578Y-78795590D01*
X143908779Y-78866209D01*
X143694231Y-78980887D01*
X143506178Y-79135218D01*
X143351847Y-79323271D01*
X143237169Y-79537819D01*
X143166550Y-79770618D01*
X143142705Y-80012720D01*
X140510544Y-80012720D01*
X140498254Y-80008992D01*
X140325000Y-79991928D01*
X139075000Y-79991928D01*
X138901746Y-80008992D01*
X138735150Y-80059528D01*
X138581614Y-80141595D01*
X138447038Y-80252038D01*
X138336595Y-80386614D01*
X138254528Y-80540150D01*
X138203992Y-80706746D01*
X138186928Y-80880000D01*
X138186928Y-81558218D01*
X138180589Y-81565942D01*
X138098411Y-81719688D01*
X138047804Y-81886511D01*
X138030718Y-82060001D01*
X138035000Y-82103480D01*
X138035000Y-82789999D01*
X133803818Y-82789999D01*
X133800120Y-82784464D01*
X133605535Y-82589879D01*
X133376727Y-82436994D01*
X133122490Y-82331685D01*
X132852592Y-82277999D01*
X132577408Y-82277999D01*
X132307510Y-82331685D01*
X132053273Y-82436994D01*
X131824465Y-82589879D01*
X131629880Y-82784464D01*
X131476995Y-83013272D01*
X131371686Y-83267509D01*
X131318000Y-83537407D01*
X131060000Y-83537407D01*
X131060000Y-77836578D01*
X131776381Y-77120197D01*
X133879408Y-77120197D01*
X133938686Y-77353812D01*
X134176875Y-77464559D01*
X134432093Y-77526711D01*
X134694533Y-77537876D01*
X134954107Y-77497629D01*
X135200842Y-77407514D01*
X135301314Y-77353812D01*
X135360592Y-77120197D01*
X134620000Y-76379605D01*
X133879408Y-77120197D01*
X131776381Y-77120197D01*
X132622045Y-76274533D01*
X133282124Y-76274533D01*
X133322371Y-76534107D01*
X133412486Y-76780842D01*
X133466188Y-76881314D01*
X133699803Y-76940592D01*
X134440395Y-76200000D01*
X133699803Y-75459408D01*
X133466188Y-75518686D01*
X133355441Y-75756875D01*
X133293289Y-76012093D01*
X133282124Y-76274533D01*
X132622045Y-76274533D01*
X133715363Y-75181215D01*
X133769943Y-75235795D01*
X133967207Y-75367602D01*
X134620000Y-76020395D01*
X134634143Y-76006253D01*
X134813748Y-76185858D01*
X134799605Y-76200000D01*
X135540197Y-76940592D01*
X135773812Y-76881314D01*
X135884559Y-76643125D01*
X135946711Y-76387907D01*
X135957876Y-76125467D01*
X135917629Y-75865893D01*
X135827514Y-75619158D01*
X135773812Y-75518686D01*
X135540199Y-75459409D01*
X135656859Y-75342749D01*
X135649108Y-75334998D01*
X136374247Y-75334998D01*
X136429998Y-75340489D01*
X136485749Y-75334998D01*
X136485750Y-75334998D01*
X136652497Y-75318575D01*
X136866445Y-75253674D01*
X137063621Y-75148282D01*
X137236447Y-75006447D01*
X137271994Y-74963134D01*
X137559275Y-74675853D01*
X138815001Y-75931580D01*
X138815000Y-76935306D01*
X138735150Y-76959528D01*
X138581614Y-77041595D01*
X138447038Y-77152038D01*
X138336595Y-77286614D01*
X138254528Y-77440150D01*
X138203992Y-77606746D01*
X138186928Y-77780000D01*
X138186928Y-78580000D01*
X138203992Y-78753254D01*
X138254528Y-78919850D01*
X138336595Y-79073386D01*
X138447038Y-79207962D01*
X138581614Y-79318405D01*
X138735150Y-79400472D01*
X138901746Y-79451008D01*
X139075000Y-79468072D01*
X140325000Y-79468072D01*
X140498254Y-79451008D01*
X140664850Y-79400472D01*
X140818386Y-79318405D01*
X140952962Y-79207962D01*
X141063405Y-79073386D01*
X141145472Y-78919850D01*
X141196008Y-78753254D01*
X141213072Y-78580000D01*
X141213072Y-77780000D01*
X141196008Y-77606746D01*
X141155352Y-77472720D01*
X143142705Y-77472720D01*
X143166550Y-77714822D01*
X143237169Y-77947621D01*
X143351847Y-78162169D01*
X143506178Y-78350222D01*
X143694231Y-78504553D01*
X143908779Y-78619231D01*
X144141578Y-78689850D01*
X144323015Y-78707720D01*
X145244345Y-78707720D01*
X145425782Y-78689850D01*
X145658581Y-78619231D01*
X145873129Y-78504553D01*
X146061182Y-78350222D01*
X146215513Y-78162169D01*
X146330191Y-77947621D01*
X146400810Y-77714822D01*
X146424655Y-77472720D01*
X146400810Y-77230618D01*
X146330191Y-76997819D01*
X146215513Y-76783271D01*
X146061182Y-76595218D01*
X145873129Y-76440887D01*
X145658581Y-76326209D01*
X145425782Y-76255590D01*
X145244345Y-76237720D01*
X144323015Y-76237720D01*
X144141578Y-76255590D01*
X143908779Y-76326209D01*
X143694231Y-76440887D01*
X143506178Y-76595218D01*
X143351847Y-76783271D01*
X143237169Y-76997819D01*
X143166550Y-77230618D01*
X143142705Y-77472720D01*
X141155352Y-77472720D01*
X141145472Y-77440150D01*
X141063405Y-77286614D01*
X140952962Y-77152038D01*
X140818386Y-77041595D01*
X140664850Y-76959528D01*
X140585000Y-76935306D01*
X140585000Y-75608469D01*
X140589281Y-75565000D01*
X140585000Y-75521531D01*
X140585000Y-75521523D01*
X140572195Y-75391510D01*
X140521589Y-75224687D01*
X140439411Y-75070941D01*
X140328817Y-74936183D01*
X140324598Y-74932720D01*
X143142705Y-74932720D01*
X143166550Y-75174822D01*
X143237169Y-75407621D01*
X143351847Y-75622169D01*
X143506178Y-75810222D01*
X143694231Y-75964553D01*
X143908779Y-76079231D01*
X144141578Y-76149850D01*
X144323015Y-76167720D01*
X145244345Y-76167720D01*
X145425782Y-76149850D01*
X145658581Y-76079231D01*
X145873129Y-75964553D01*
X146061182Y-75810222D01*
X146215513Y-75622169D01*
X146330191Y-75407621D01*
X146400810Y-75174822D01*
X146424655Y-74932720D01*
X146400810Y-74690618D01*
X146330191Y-74457819D01*
X146215513Y-74243271D01*
X146061182Y-74055218D01*
X145873129Y-73900887D01*
X145658581Y-73786209D01*
X145425782Y-73715590D01*
X145244345Y-73697720D01*
X144323015Y-73697720D01*
X144141578Y-73715590D01*
X143908779Y-73786209D01*
X143694231Y-73900887D01*
X143506178Y-74055218D01*
X143351847Y-74243271D01*
X143237169Y-74457819D01*
X143166550Y-74690618D01*
X143142705Y-74932720D01*
X140324598Y-74932720D01*
X140295049Y-74908470D01*
X138803086Y-73416508D01*
X138838286Y-73373617D01*
X138943678Y-73176441D01*
X139008579Y-72962493D01*
X139025002Y-72795746D01*
X139025002Y-72795745D01*
X139030493Y-72739995D01*
X139025002Y-72684243D01*
X139025002Y-72392720D01*
X143142705Y-72392720D01*
X143166550Y-72634822D01*
X143237169Y-72867621D01*
X143351847Y-73082169D01*
X143506178Y-73270222D01*
X143694231Y-73424553D01*
X143908779Y-73539231D01*
X144141578Y-73609850D01*
X144323015Y-73627720D01*
X145244345Y-73627720D01*
X145425782Y-73609850D01*
X145658581Y-73539231D01*
X145873129Y-73424553D01*
X146061182Y-73270222D01*
X146215513Y-73082169D01*
X146330191Y-72867621D01*
X146400810Y-72634822D01*
X146424655Y-72392720D01*
X146400810Y-72150618D01*
X146330191Y-71917819D01*
X146215513Y-71703271D01*
X146061182Y-71515218D01*
X145873129Y-71360887D01*
X145658581Y-71246209D01*
X145425782Y-71175590D01*
X145244345Y-71157720D01*
X144323015Y-71157720D01*
X144141578Y-71175590D01*
X143908779Y-71246209D01*
X143694231Y-71360887D01*
X143506178Y-71515218D01*
X143351847Y-71703271D01*
X143237169Y-71917819D01*
X143166550Y-72150618D01*
X143142705Y-72392720D01*
X139025002Y-72392720D01*
X139025002Y-69852720D01*
X143142705Y-69852720D01*
X143166550Y-70094822D01*
X143237169Y-70327621D01*
X143351847Y-70542169D01*
X143506178Y-70730222D01*
X143694231Y-70884553D01*
X143908779Y-70999231D01*
X144141578Y-71069850D01*
X144323015Y-71087720D01*
X145244345Y-71087720D01*
X145425782Y-71069850D01*
X145658581Y-70999231D01*
X145873129Y-70884553D01*
X146061182Y-70730222D01*
X146215513Y-70542169D01*
X146330191Y-70327621D01*
X146400810Y-70094822D01*
X146424655Y-69852720D01*
X146400810Y-69610618D01*
X146330191Y-69377819D01*
X146215513Y-69163271D01*
X146061182Y-68975218D01*
X145873129Y-68820887D01*
X145658581Y-68706209D01*
X145425782Y-68635590D01*
X145244345Y-68617720D01*
X144323015Y-68617720D01*
X144141578Y-68635590D01*
X143908779Y-68706209D01*
X143694231Y-68820887D01*
X143506178Y-68975218D01*
X143351847Y-69163271D01*
X143237169Y-69377819D01*
X143166550Y-69610618D01*
X143142705Y-69852720D01*
X139025002Y-69852720D01*
X139025002Y-67685129D01*
X139397411Y-67312720D01*
X143142705Y-67312720D01*
X143166550Y-67554822D01*
X143237169Y-67787621D01*
X143351847Y-68002169D01*
X143506178Y-68190222D01*
X143694231Y-68344553D01*
X143908779Y-68459231D01*
X144141578Y-68529850D01*
X144323015Y-68547720D01*
X145244345Y-68547720D01*
X145425782Y-68529850D01*
X145658581Y-68459231D01*
X145873129Y-68344553D01*
X146061182Y-68190222D01*
X146215513Y-68002169D01*
X146330191Y-67787621D01*
X146400810Y-67554822D01*
X146424655Y-67312720D01*
X146400810Y-67070618D01*
X146330191Y-66837819D01*
X146215513Y-66623271D01*
X146061182Y-66435218D01*
X145873129Y-66280887D01*
X145658581Y-66166209D01*
X145425782Y-66095590D01*
X145244345Y-66077720D01*
X144323015Y-66077720D01*
X144141578Y-66095590D01*
X143908779Y-66166209D01*
X143694231Y-66280887D01*
X143506178Y-66435218D01*
X143351847Y-66623271D01*
X143237169Y-66837819D01*
X143166550Y-67070618D01*
X143142705Y-67312720D01*
X139397411Y-67312720D01*
X140971147Y-65738986D01*
X141014450Y-65703448D01*
X141156285Y-65530622D01*
X141261677Y-65333446D01*
X141326578Y-65119498D01*
X141343001Y-64952751D01*
X141343001Y-64952750D01*
X141348492Y-64896999D01*
X141343001Y-64841247D01*
X141343001Y-64772720D01*
X143142705Y-64772720D01*
X143166550Y-65014822D01*
X143237169Y-65247621D01*
X143351847Y-65462169D01*
X143506178Y-65650222D01*
X143694231Y-65804553D01*
X143908779Y-65919231D01*
X144141578Y-65989850D01*
X144323015Y-66007720D01*
X145244345Y-66007720D01*
X145425782Y-65989850D01*
X145658581Y-65919231D01*
X145873129Y-65804553D01*
X146061182Y-65650222D01*
X146215513Y-65462169D01*
X146330191Y-65247621D01*
X146400810Y-65014822D01*
X146424655Y-64772720D01*
X146400810Y-64530618D01*
X146330191Y-64297819D01*
X146215513Y-64083271D01*
X146061182Y-63895218D01*
X145873129Y-63740887D01*
X145658581Y-63626209D01*
X145425782Y-63555590D01*
X145244345Y-63537720D01*
X144323015Y-63537720D01*
X144141578Y-63555590D01*
X143908779Y-63626209D01*
X143694231Y-63740887D01*
X143506178Y-63895218D01*
X143351847Y-64083271D01*
X143237169Y-64297819D01*
X143166550Y-64530618D01*
X143142705Y-64772720D01*
X141343001Y-64772720D01*
X141343001Y-62232720D01*
X143142705Y-62232720D01*
X143166550Y-62474822D01*
X143237169Y-62707621D01*
X143351847Y-62922169D01*
X143506178Y-63110222D01*
X143694231Y-63264553D01*
X143908779Y-63379231D01*
X144141578Y-63449850D01*
X144323015Y-63467720D01*
X145244345Y-63467720D01*
X145425782Y-63449850D01*
X145658581Y-63379231D01*
X145873129Y-63264553D01*
X146061182Y-63110222D01*
X146215513Y-62922169D01*
X146330191Y-62707621D01*
X146400810Y-62474822D01*
X146424655Y-62232720D01*
X146400810Y-61990618D01*
X146330191Y-61757819D01*
X146215513Y-61543271D01*
X146061182Y-61355218D01*
X145873129Y-61200887D01*
X145658581Y-61086209D01*
X145425782Y-61015590D01*
X145244345Y-60997720D01*
X144323015Y-60997720D01*
X144141578Y-61015590D01*
X143908779Y-61086209D01*
X143694231Y-61200887D01*
X143506178Y-61355218D01*
X143351847Y-61543271D01*
X143237169Y-61757819D01*
X143166550Y-61990618D01*
X143142705Y-62232720D01*
X141343001Y-62232720D01*
X141343001Y-60391589D01*
X141389733Y-60321649D01*
X141490255Y-60078968D01*
X141541501Y-59821338D01*
X141541501Y-59692720D01*
X143142705Y-59692720D01*
X143166550Y-59934822D01*
X143237169Y-60167621D01*
X143351847Y-60382169D01*
X143506178Y-60570222D01*
X143694231Y-60724553D01*
X143908779Y-60839231D01*
X144141578Y-60909850D01*
X144323015Y-60927720D01*
X145244345Y-60927720D01*
X145425782Y-60909850D01*
X145658581Y-60839231D01*
X145873129Y-60724553D01*
X146061182Y-60570222D01*
X146215513Y-60382169D01*
X146330191Y-60167621D01*
X146400810Y-59934822D01*
X146424655Y-59692720D01*
X146400810Y-59450618D01*
X146330191Y-59217819D01*
X146215513Y-59003271D01*
X146061182Y-58815218D01*
X145873129Y-58660887D01*
X145658581Y-58546209D01*
X145425782Y-58475590D01*
X145244345Y-58457720D01*
X144323015Y-58457720D01*
X144141578Y-58475590D01*
X143908779Y-58546209D01*
X143694231Y-58660887D01*
X143506178Y-58815218D01*
X143351847Y-59003271D01*
X143237169Y-59217819D01*
X143166550Y-59450618D01*
X143142705Y-59692720D01*
X141541501Y-59692720D01*
X141541501Y-59558662D01*
X141490255Y-59301032D01*
X141389733Y-59058351D01*
X141354504Y-59005627D01*
X142072412Y-58287720D01*
X143887243Y-58287720D01*
X143908779Y-58299231D01*
X144141578Y-58369850D01*
X144323015Y-58387720D01*
X145244345Y-58387720D01*
X145425782Y-58369850D01*
X145658581Y-58299231D01*
X145680117Y-58287720D01*
X146217588Y-58287720D01*
X146820000Y-58890132D01*
X146820001Y-99639238D01*
X146814509Y-99695000D01*
X146836423Y-99917499D01*
X146901324Y-100131447D01*
X147006716Y-100328623D01*
X147148551Y-100501449D01*
X147321377Y-100643284D01*
X147518553Y-100748676D01*
X147732501Y-100813577D01*
X147899248Y-100830000D01*
X147899249Y-100830000D01*
X147955000Y-100835491D01*
X148071073Y-100824059D01*
X148177499Y-100813577D01*
X148391447Y-100748676D01*
X148588623Y-100643284D01*
X148761449Y-100501449D01*
X148903284Y-100328623D01*
X149008676Y-100131447D01*
X149073577Y-99917499D01*
X149095491Y-99695000D01*
X149090000Y-99639248D01*
X149090000Y-58475752D01*
X149095491Y-58420000D01*
X149073577Y-58197501D01*
X149008676Y-57983553D01*
X148903284Y-57786377D01*
X148796989Y-57656856D01*
X148796987Y-57656854D01*
X148761449Y-57613551D01*
X148718146Y-57578013D01*
X147529715Y-56389584D01*
X147521850Y-56380000D01*
X148754869Y-56380000D01*
X149995000Y-57620132D01*
G37*
%TD.AperFunction*%
D19*
X133043534Y-58391335D02*
X132961033Y-58407746D01*
X132718352Y-58508268D01*
X132499944Y-58654203D01*
X132314204Y-58839943D01*
X132182397Y-59037207D01*
X131529604Y-59690000D01*
X132182397Y-60342793D01*
X132314204Y-60540057D01*
X132499944Y-60725797D01*
X132718352Y-60871732D01*
X132961033Y-60972254D01*
X133218663Y-61023500D01*
X133481339Y-61023500D01*
X133738969Y-60972254D01*
X133981650Y-60871732D01*
X134200058Y-60725797D01*
X134385798Y-60540057D01*
X134531733Y-60321649D01*
X134632255Y-60078968D01*
X134648666Y-59996466D01*
X134880599Y-59764533D01*
X136870123Y-59764533D01*
X136910370Y-60024107D01*
X137000485Y-60270842D01*
X137054187Y-60371314D01*
X137287802Y-60430592D01*
X138028394Y-59690000D01*
X137287802Y-58949408D01*
X137054187Y-59008686D01*
X136943440Y-59246875D01*
X136881288Y-59502093D01*
X136870123Y-59764533D01*
X134880599Y-59764533D01*
X138265133Y-56380000D01*
X140768150Y-56380000D01*
X140760288Y-56389580D01*
X139444861Y-57705008D01*
X139401553Y-57740550D01*
X139259718Y-57913376D01*
X139154325Y-58110552D01*
X139089424Y-58324500D01*
X139082895Y-58390792D01*
X139067510Y-58546999D01*
X139073001Y-58602750D01*
X139073001Y-58660892D01*
X139065250Y-58653141D01*
X138948590Y-58769801D01*
X138889313Y-58536188D01*
X138651124Y-58425441D01*
X138395906Y-58363289D01*
X138133466Y-58352124D01*
X137873892Y-58392371D01*
X137627157Y-58482486D01*
X137526685Y-58536188D01*
X137467407Y-58769803D01*
X138207999Y-59510395D01*
X138222142Y-59496253D01*
X138401747Y-59675858D01*
X138387604Y-59690000D01*
X138401747Y-59704143D01*
X138222142Y-59883748D01*
X138207999Y-59869605D01*
X137467407Y-60610197D01*
X137526685Y-60843812D01*
X137764874Y-60954559D01*
X138020092Y-61016711D01*
X138282532Y-61027876D01*
X138542106Y-60987629D01*
X138788841Y-60897514D01*
X138889313Y-60843812D01*
X138948590Y-60610199D01*
X139065250Y-60726859D01*
X139073002Y-60719107D01*
X139073001Y-64426866D01*
X137419871Y-66079998D01*
X135321589Y-66079998D01*
X135251649Y-66033266D01*
X135008968Y-65932744D01*
X134751338Y-65881498D01*
X134488662Y-65881498D01*
X134231032Y-65932744D01*
X133988351Y-66033266D01*
X133769943Y-66179201D01*
X133584203Y-66364941D01*
X133438268Y-66583349D01*
X133337746Y-66826030D01*
X133286500Y-67083660D01*
X133286500Y-67346336D01*
X133337746Y-67603966D01*
X133438268Y-67846647D01*
X133584203Y-68065055D01*
X133769943Y-68250795D01*
X133967207Y-68382602D01*
X134620000Y-69035395D01*
X134634143Y-69021253D01*
X134813748Y-69200858D01*
X134799605Y-69215000D01*
X135540197Y-69955592D01*
X135773812Y-69896314D01*
X135884559Y-69658125D01*
X135946711Y-69402907D01*
X135957876Y-69140467D01*
X135917629Y-68880893D01*
X135827514Y-68634158D01*
X135773812Y-68533686D01*
X135540199Y-68474409D01*
X135656859Y-68357749D01*
X135649108Y-68349998D01*
X136755003Y-68349998D01*
X136755002Y-72269863D01*
X136619360Y-72405505D01*
X136619354Y-72405510D01*
X135959867Y-73064998D01*
X135321589Y-73064998D01*
X135251649Y-73018266D01*
X135008968Y-72917744D01*
X134751338Y-72866498D01*
X134488662Y-72866498D01*
X134231032Y-72917744D01*
X133988351Y-73018266D01*
X133769943Y-73164201D01*
X133619146Y-73314998D01*
X133488467Y-73314998D01*
X133445001Y-73310717D01*
X133401535Y-73314998D01*
X133401525Y-73314998D01*
X133271512Y-73327803D01*
X133104689Y-73378409D01*
X132950943Y-73460587D01*
X132950941Y-73460588D01*
X132950942Y-73460588D01*
X132849955Y-73543466D01*
X132849953Y-73543468D01*
X132816185Y-73571181D01*
X132788472Y-73604949D01*
X129590000Y-76803422D01*
X129590000Y-70135197D01*
X133879408Y-70135197D01*
X133938686Y-70368812D01*
X134176875Y-70479559D01*
X134432093Y-70541711D01*
X134694533Y-70552876D01*
X134954107Y-70512629D01*
X135200842Y-70422514D01*
X135301314Y-70368812D01*
X135360592Y-70135197D01*
X134620000Y-69394605D01*
X133879408Y-70135197D01*
X129590000Y-70135197D01*
X129590000Y-69289533D01*
X133282124Y-69289533D01*
X133322371Y-69549107D01*
X133412486Y-69795842D01*
X133466188Y-69896314D01*
X133699803Y-69955592D01*
X134440395Y-69215000D01*
X133699803Y-68474408D01*
X133466188Y-68533686D01*
X133355441Y-68771875D01*
X133293289Y-69027093D01*
X133282124Y-69289533D01*
X129590000Y-69289533D01*
X129590000Y-60610197D01*
X130609407Y-60610197D01*
X130668685Y-60843812D01*
X130906874Y-60954559D01*
X131162092Y-61016711D01*
X131424532Y-61027876D01*
X131684106Y-60987629D01*
X131930841Y-60897514D01*
X132031313Y-60843812D01*
X132090591Y-60610197D01*
X131349999Y-59869605D01*
X130609407Y-60610197D01*
X129590000Y-60610197D01*
X129590000Y-59764533D01*
X130012123Y-59764533D01*
X130052370Y-60024107D01*
X130142485Y-60270842D01*
X130196187Y-60371314D01*
X130429802Y-60430592D01*
X131170394Y-59690000D01*
X130429802Y-58949408D01*
X130196187Y-59008686D01*
X130085440Y-59246875D01*
X130023288Y-59502093D01*
X130012123Y-59764533D01*
X129590000Y-59764533D01*
X129590000Y-58769803D01*
X130609407Y-58769803D01*
X131349999Y-59510395D01*
X132090591Y-58769803D01*
X132031313Y-58536188D01*
X131793124Y-58425441D01*
X131537906Y-58363289D01*
X131275466Y-58352124D01*
X131015892Y-58392371D01*
X130769157Y-58482486D01*
X130668685Y-58536188D01*
X130609407Y-58769803D01*
X129590000Y-58769803D01*
X129590000Y-54660000D01*
X136774867Y-54660000D01*
X133043534Y-58391335D01*
%TA.AperFunction,Conductor*%
D20*
G36*
X133043534Y-58391335D02*
G01*
X132961033Y-58407746D01*
X132718352Y-58508268D01*
X132499944Y-58654203D01*
X132314204Y-58839943D01*
X132182397Y-59037207D01*
X131529604Y-59690000D01*
X132182397Y-60342793D01*
X132314204Y-60540057D01*
X132499944Y-60725797D01*
X132718352Y-60871732D01*
X132961033Y-60972254D01*
X133218663Y-61023500D01*
X133481339Y-61023500D01*
X133738969Y-60972254D01*
X133981650Y-60871732D01*
X134200058Y-60725797D01*
X134385798Y-60540057D01*
X134531733Y-60321649D01*
X134632255Y-60078968D01*
X134648666Y-59996466D01*
X134880599Y-59764533D01*
X136870123Y-59764533D01*
X136910370Y-60024107D01*
X137000485Y-60270842D01*
X137054187Y-60371314D01*
X137287802Y-60430592D01*
X138028394Y-59690000D01*
X137287802Y-58949408D01*
X137054187Y-59008686D01*
X136943440Y-59246875D01*
X136881288Y-59502093D01*
X136870123Y-59764533D01*
X134880599Y-59764533D01*
X138265133Y-56380000D01*
X140768150Y-56380000D01*
X140760288Y-56389580D01*
X139444861Y-57705008D01*
X139401553Y-57740550D01*
X139259718Y-57913376D01*
X139154325Y-58110552D01*
X139089424Y-58324500D01*
X139082895Y-58390792D01*
X139067510Y-58546999D01*
X139073001Y-58602750D01*
X139073001Y-58660892D01*
X139065250Y-58653141D01*
X138948590Y-58769801D01*
X138889313Y-58536188D01*
X138651124Y-58425441D01*
X138395906Y-58363289D01*
X138133466Y-58352124D01*
X137873892Y-58392371D01*
X137627157Y-58482486D01*
X137526685Y-58536188D01*
X137467407Y-58769803D01*
X138207999Y-59510395D01*
X138222142Y-59496253D01*
X138401747Y-59675858D01*
X138387604Y-59690000D01*
X138401747Y-59704143D01*
X138222142Y-59883748D01*
X138207999Y-59869605D01*
X137467407Y-60610197D01*
X137526685Y-60843812D01*
X137764874Y-60954559D01*
X138020092Y-61016711D01*
X138282532Y-61027876D01*
X138542106Y-60987629D01*
X138788841Y-60897514D01*
X138889313Y-60843812D01*
X138948590Y-60610199D01*
X139065250Y-60726859D01*
X139073002Y-60719107D01*
X139073001Y-64426866D01*
X137419871Y-66079998D01*
X135321589Y-66079998D01*
X135251649Y-66033266D01*
X135008968Y-65932744D01*
X134751338Y-65881498D01*
X134488662Y-65881498D01*
X134231032Y-65932744D01*
X133988351Y-66033266D01*
X133769943Y-66179201D01*
X133584203Y-66364941D01*
X133438268Y-66583349D01*
X133337746Y-66826030D01*
X133286500Y-67083660D01*
X133286500Y-67346336D01*
X133337746Y-67603966D01*
X133438268Y-67846647D01*
X133584203Y-68065055D01*
X133769943Y-68250795D01*
X133967207Y-68382602D01*
X134620000Y-69035395D01*
X134634143Y-69021253D01*
X134813748Y-69200858D01*
X134799605Y-69215000D01*
X135540197Y-69955592D01*
X135773812Y-69896314D01*
X135884559Y-69658125D01*
X135946711Y-69402907D01*
X135957876Y-69140467D01*
X135917629Y-68880893D01*
X135827514Y-68634158D01*
X135773812Y-68533686D01*
X135540199Y-68474409D01*
X135656859Y-68357749D01*
X135649108Y-68349998D01*
X136755003Y-68349998D01*
X136755002Y-72269863D01*
X136619360Y-72405505D01*
X136619354Y-72405510D01*
X135959867Y-73064998D01*
X135321589Y-73064998D01*
X135251649Y-73018266D01*
X135008968Y-72917744D01*
X134751338Y-72866498D01*
X134488662Y-72866498D01*
X134231032Y-72917744D01*
X133988351Y-73018266D01*
X133769943Y-73164201D01*
X133619146Y-73314998D01*
X133488467Y-73314998D01*
X133445001Y-73310717D01*
X133401535Y-73314998D01*
X133401525Y-73314998D01*
X133271512Y-73327803D01*
X133104689Y-73378409D01*
X132950943Y-73460587D01*
X132950941Y-73460588D01*
X132950942Y-73460588D01*
X132849955Y-73543466D01*
X132849953Y-73543468D01*
X132816185Y-73571181D01*
X132788472Y-73604949D01*
X129590000Y-76803422D01*
X129590000Y-70135197D01*
X133879408Y-70135197D01*
X133938686Y-70368812D01*
X134176875Y-70479559D01*
X134432093Y-70541711D01*
X134694533Y-70552876D01*
X134954107Y-70512629D01*
X135200842Y-70422514D01*
X135301314Y-70368812D01*
X135360592Y-70135197D01*
X134620000Y-69394605D01*
X133879408Y-70135197D01*
X129590000Y-70135197D01*
X129590000Y-69289533D01*
X133282124Y-69289533D01*
X133322371Y-69549107D01*
X133412486Y-69795842D01*
X133466188Y-69896314D01*
X133699803Y-69955592D01*
X134440395Y-69215000D01*
X133699803Y-68474408D01*
X133466188Y-68533686D01*
X133355441Y-68771875D01*
X133293289Y-69027093D01*
X133282124Y-69289533D01*
X129590000Y-69289533D01*
X129590000Y-60610197D01*
X130609407Y-60610197D01*
X130668685Y-60843812D01*
X130906874Y-60954559D01*
X131162092Y-61016711D01*
X131424532Y-61027876D01*
X131684106Y-60987629D01*
X131930841Y-60897514D01*
X132031313Y-60843812D01*
X132090591Y-60610197D01*
X131349999Y-59869605D01*
X130609407Y-60610197D01*
X129590000Y-60610197D01*
X129590000Y-59764533D01*
X130012123Y-59764533D01*
X130052370Y-60024107D01*
X130142485Y-60270842D01*
X130196187Y-60371314D01*
X130429802Y-60430592D01*
X131170394Y-59690000D01*
X130429802Y-58949408D01*
X130196187Y-59008686D01*
X130085440Y-59246875D01*
X130023288Y-59502093D01*
X130012123Y-59764533D01*
X129590000Y-59764533D01*
X129590000Y-58769803D01*
X130609407Y-58769803D01*
X131349999Y-59510395D01*
X132090591Y-58769803D01*
X132031313Y-58536188D01*
X131793124Y-58425441D01*
X131537906Y-58363289D01*
X131275466Y-58352124D01*
X131015892Y-58392371D01*
X130769157Y-58482486D01*
X130668685Y-58536188D01*
X130609407Y-58769803D01*
X129590000Y-58769803D01*
X129590000Y-54660000D01*
X136774867Y-54660000D01*
X133043534Y-58391335D01*
G37*
%TD.AperFunction*%
M02*
